<?xml version="1.0" encoding="utf-8"?>
<!-- Generator: Adobe Illustrator 26.4.1, SVG Export Plug-In . SVG Version: 6.00 Build 0)  -->
<svg version="1.1" id="Capa_1" xmlns="http://www.w3.org/2000/svg" xmlns:xlink="http://www.w3.org/1999/xlink" x="0px" y="0px"
	 viewBox="0 0 243.7 138.3" style="enable-background:new 0 0 243.7 138.3;" xml:space="preserve">
<style type="text/css">
	.st0{fill:#9D9EA1;}
	.st1{fill:#C71517;}
	.st2{fill:#FFFFFF;}
	.st3{fill:#181D22;}
	.st4{fill:#35AA54;}
	.st5{clip-path:url(#SVGID_00000154406411257012376770000001491978542000791743_);}
	.st6{fill:#1D1E1C;}
	.st7{fill:none;stroke:#919191;stroke-width:0.25;stroke-miterlimit:10;}
	.st8{fill:#9E9FA2;}
</style>
<g>
	<path class="st0" d="M237.5,24.8c-1-6.4-6.1-9.2-12.3-8.7c-7.6,0-108.7-0.4-112.9-0.3c-13.9,0.4-28.2,0.6-40.6,7.9l-7.2,4.2
		c-3.2,2.2-7.1,3.3-7.5,7.4c-0.5,5.5-0.9,13.9-2.2,19.2c-0.6,3.3-4.7,6.3-8.2,4.6c-1.7-0.8-2.6-3.8-3.4-5.3
		c-2.8-5.5-9.6-22.6-13.4-27.2l-3.2-3.9c-3.5-3.9-8.1-7.4-13.7-6.9C4.6,16.4-1.4,25.3,0.3,33.4C0.6,35,1.1,36.2,2,37.5
		C14.2,55.6,37.6,88.9,50,107c-1.2,3.8-3.1,8.6-3.3,12.7c-0.9,10.9,10.1,13.9,16.7,5.8c5.9-7,10.8-15.8,12-25.1l3.6-29
		c0.5-3.6,0.9-7.7,2.4-11.1c3.3-7.7,11.4-12.9,19.8-13c6.2-0.2,11.9,3,16.9,6.3c4.3,3.2,9.1,5.9,14.5,6.4c2.4,0.3,6.3,0.2,8.9,0.2
		c2.3,0,4.8,1.7,4.7,4.2c-0.1,5.6-0.5,25.9-0.7,31.1c-0.1,4.6,0,9.6,2.1,13.9c2.6,5.9,8.3,10.3,14.5,11.8c5.3,1.4,13.1,1.1,13.7-5.9
		l3.5-41c0.3-3.3,1.1-7.1,2.2-10.2c4.4-12.4,15.5-22.3,28.3-25.2c4.4-0.8,13.2-2.3,17.6-2.9C233.1,35.7,238.5,30.9,237.5,24.8z
		 M170.6,112.5h0.1H170.6c0.2,4.6-0.5,4.3-4.9,3.8c-7.8-0.9-13.8-6.9-14.6-14.7c-0.5-4.1-0.1-8.4,0-12.5l0.4-19.8
		c0-1.6,0.1-3,0.1-4.7c-0.2-5.3-4.2-9.3-9.7-9.7c-2.7-0.2-5.5,0.1-8.1-0.2c-3.5-0.4-6.7-1.6-10.1-3.8c-6.9-4.6-15.2-9.9-24.4-9
		c-8.5,0.8-16.1,5.3-21,12.4c-3.6,5.3-4.4,11.8-5.2,18.1c-2.2,15.8-1.2,32.6-11.3,46c-1.6,2.4-4.9,7.3-8,6.1
		c-3.6-1.3-1.4-7.8-0.3-10.9c1-3.3,2.9-6.5,0.8-10c-13.7-20.6-29-41.3-43-61.9c-2.9-4.2-7.1-8.7-5.4-14c3.2-8.6,11.4-7.1,16.4-1.2
		c7,7.9,11.1,20.2,15.9,30c1.4,3,2.8,6,5.8,7.6c3.8,2,8.8,1.2,12.4-2.1c5.4-4.9,4.9-13.9,5.6-21.1c0.2-2.1-0.2-4.5,1.5-5.9
		c15.6-11.8,34.7-14.2,54.4-13.7c19.7-0.1,37.5,0.1,56.6,0.2c2.3,0,44.9,0.2,45.9,0.1c4.4,0,12.6-1.1,11.6,5.3
		c-0.9,3.8-7,4.3-11.4,4.7c-19.5,1.8-35,9.6-43.3,28.3c-3.5,8-4,17-4.6,25.7C172.2,94.6,171,103.5,170.6,112.5z"/>
	<g>
		<g>
			<path class="st1" d="M191.4,9.8h-6.2c-1.6,0-2.8-1.3-2.8-2.8V2.8c0-1.6,1.3-2.8,2.8-2.8h6.2c1.6,0,2.8,1.3,2.8,2.8V7
				C194.2,8.5,192.9,9.8,191.4,9.8z"/>
			<g>
				<path class="st2" d="M186.7,5.8V5.6h1v0.1c0,0.4,0.2,0.6,0.5,0.6s0.5-0.2,0.5-0.4c0-0.3-0.1-0.4-0.5-0.5l-0.4-0.1
					c-0.6-0.2-1.2-0.5-1.2-1.3s0.6-1.3,1.5-1.3c1,0,1.5,0.5,1.5,1.4v0.1h-1V4c0-0.4-0.2-0.6-0.5-0.6s-0.4,0.2-0.4,0.4
					c0,0.4,0.4,0.5,0.8,0.7h0.1c0.5,0.2,1.2,0.5,1.2,1.3c0,0.7-0.5,1.4-1.6,1.4C187.3,7.2,186.7,6.7,186.7,5.8z"/>
			</g>
			<path class="st1" d="M188.3,27c-0.3,0-0.5-0.2-0.5-0.5l-0.1-18.2c0-0.3,0.2-0.5,0.5-0.5s0.5,0.2,0.5,0.5l0.1,18.2
				C188.8,26.8,188.5,27,188.3,27z"/>
		</g>
		<g>
			<path class="st1" d="M94.9,10h-6.2c-1.6,0-2.8-1.3-2.8-2.8V3c0-1.6,1.3-2.8,2.8-2.8h6.2c1.6,0,2.8,1.3,2.8,2.8v4.2
				C97.8,8.7,96.5,10,94.9,10z"/>
			<g>
				<path class="st2" d="M89.7,2.3h1v0.9h-1V2.3z M89.8,3.6h0.9v3.5h-0.9V3.6z"/>
				<path class="st2" d="M94.5,6.3l-0.2,0.8h-2.8V6.3h1.1V3.6l-1.1,0.5V3.3l1.4-0.6h0.7v3.6H94.5z"/>
			</g>
			<path class="st1" d="M95.9,28c-0.3,0-0.5-0.2-0.5-0.5L92.5,9.3c0-0.3,0.2-0.5,0.5-0.5s0.5,0.2,0.5,0.5l2.9,18.2
				C96.4,27.8,96.2,28,95.9,28z"/>
		</g>
		<g>
			<path class="st1" d="M213.2,57.9H207c-1.6,0-2.8-1.3-2.8-2.8v-4.2c0-1.6,1.3-2.8,2.8-2.8h6.2c1.6,0,2.8,1.3,2.8,2.8v4.2
				C216.1,56.6,214.8,57.9,213.2,57.9z"/>
			<g>
				<path class="st2" d="M208.1,50.2h1v0.9h-1V50.2z M208.1,51.5h0.9V55h-0.9V51.5z"/>
				<path class="st2" d="M209.7,54.2c0-0.7,0.3-1.1,0.9-1.4l0.2-0.1c0.7-0.3,0.9-0.5,0.9-0.9c0-0.3-0.2-0.6-0.5-0.6
					c-0.4,0-0.6,0.3-0.6,0.8v0.1h-1V52c0-1.1,0.5-1.6,1.6-1.6c0.9,0,1.5,0.5,1.5,1.4c0,0.7-0.3,1.1-1.1,1.5l-0.2,0.1
					c-0.6,0.2-0.8,0.4-0.8,0.8v0.1h2.1l-0.1,0.8h-2.9V54.2z"/>
			</g>
			<path class="st1" d="M195.4,33.9C195.4,33.9,195.5,33.9,195.4,33.9c0.4-0.1,0.6,0.1,0.7,0.3l10.3,16.2c0.1,0.3-0.1,0.6-0.4,0.6
				c-0.3,0.1-0.5-0.1-0.6-0.4l-10.3-16.2C195.2,34.3,195.3,34,195.4,33.9z"/>
		</g>
		<g>
			<path class="st1" d="M117.5,71.4h-6.2c-1.6,0-2.8-1.3-2.8-2.8v-4.2c0-1.6,1.3-2.8,2.8-2.8h6.2c1.6,0,2.8,1.3,2.8,2.8v4.2
				C120.3,70.2,119.1,71.4,117.5,71.4z"/>
			<g>
				<path class="st2" d="M112.3,63.8h1v0.9h-1V63.8z M112.4,65.1h0.9v3.5h-0.9V65.1z"/>
				<path class="st2" d="M113.9,67.2h1c0,0.4,0.2,0.7,0.6,0.7s0.6-0.2,0.6-0.6s-0.2-0.6-0.7-0.6H115V66h0.3c0.4,0,0.6-0.2,0.6-0.6
					c0-0.3-0.2-0.5-0.5-0.5c-0.4,0-0.6,0.2-0.6,0.7l0,0h-1l0,0c0-1,0.5-1.5,1.6-1.5c0.9,0,1.5,0.5,1.5,1.2c0,0.5-0.2,0.8-0.5,0.9
					c0.5,0.2,0.7,0.5,0.7,1c0,0.8-0.6,1.4-1.6,1.4C114.4,68.7,113.9,68.1,113.9,67.2z"/>
			</g>
			<path class="st1" d="M122.9,42.3c0.1,0.1,0.2,0.4,0.1,0.5l-8.2,19.9c-0.1,0.2-0.4,0.3-0.6,0.3c-0.2-0.1-0.3-0.4-0.3-0.6l8.2-19.9
				c0.1-0.2,0.4-0.3,0.6-0.3C122.8,42.3,122.8,42.3,122.9,42.3z"/>
		</g>
		<g>
			<g>
				<g>
					<polygon class="st1" points="35.4,68.8 35.9,69.6 21.7,80.2 21.1,79.4 					"/>
					
						<rect x="32.6" y="62.3" transform="matrix(0.8144 -0.5804 0.5804 0.8144 -32.4232 31.5331)" class="st1" width="1" height="8.2"/>
					<path id="Shape_17_" class="st1" d="M31.1,61.9l1.5,0.7c0.2,0.1,0.2,0.3,0.1,0.4l-1.3,1l-1.3,0.9c-0.2,0.1-0.4,0-0.4-0.2
						l-0.2-1.6l-0.2-1.6c0-0.2,0.1-0.3,0.3-0.2L31.1,61.9z"/>
				</g>
			</g>
			<g>
				<path class="st3" d="M21.6,85.7H8.5c-1.6,0-2.8-1.3-2.8-2.8v-4.3c0-1.6,1.3-2.8,2.8-2.8h13.1c1.6,0,2.8,1.3,2.8,2.8v4.2
					C24.4,84.4,23.1,85.7,21.6,85.7z"/>
				<circle class="st1" cx="11" cy="80.8" r="3.5"/>
				<circle class="st4" cx="19" cy="80.7" r="3.5"/>
			</g>
		</g>
		<g>
			<g>
				<path class="st1" d="M40,109.4h-6.2c-1.6,0-2.8-1.3-2.8-2.8v-4.3c0-1.6,1.3-2.8,2.8-2.8H40c1.6,0,2.8,1.3,2.8,2.8v4.2
					C42.8,108.1,41.6,109.4,40,109.4z"/>
				<g>
					<path class="st2" d="M35.3,103.4v0.9h1.6v0.8h-1.6v1.6h-1v-3.6c0-0.6,0.3-0.9,0.9-0.9H37l-0.1,0.8h-1.3
						C35.4,103.1,35.3,103.2,35.3,103.4z"/>
					<path class="st2" d="M37.6,105.7v-3.4h1v3.3c0,0.3,0.1,0.4,0.4,0.4h1.3l-0.1,0.8h-1.4C37.9,106.8,37.6,106.4,37.6,105.7z"/>
				</g>
				<path class="st1" d="M52.3,93.8c0,0.2-0.1,0.4-0.3,0.4l-11.3,7.2c-0.2,0.1-0.5,0.1-0.7-0.1c-0.1-0.2-0.1-0.5,0.1-0.7l11.3-7.2
					c0.2-0.1,0.5-0.1,0.7,0.1C52.3,93.7,52.3,93.7,52.3,93.8z"/>
			</g>
			<g>
				<path class="st3" d="M27,109.5h-4.1c-1.6,0-2.8-1.3-2.8-2.8v-4.3c0-1.6,1.3-2.8,2.8-2.8H27c1.6,0,2.8,1.3,2.8,2.8v4.2
					C29.8,108.2,28.5,109.5,27,109.5z"/>
				<g>
					<g>
						<g>
							<defs>
								<circle id="SVGID_1_" cx="25" cy="104.6" r="3.5"/>
							</defs>
							<clipPath id="SVGID_00000175324935166311006220000004985842831244649919_">
								<use xlink:href="#SVGID_1_"  style="overflow:visible;"/>
							</clipPath>
							<g style="clip-path:url(#SVGID_00000175324935166311006220000004985842831244649919_);">
								<rect x="16.8" y="98.2" class="st2" width="1.8" height="1.8"/>
								<rect x="18.7" y="98.2" class="st6" width="1.8" height="1.8"/>
								<rect x="20.5" y="98.2" class="st2" width="1.8" height="1.8"/>
								<rect x="22.3" y="98.2" class="st6" width="1.8" height="1.8"/>
								<rect x="24.1" y="98.2" class="st2" width="1.8" height="1.8"/>
								<rect x="26" y="98.2" class="st6" width="1.8" height="1.8"/>
								<rect x="27.8" y="98.2" class="st2" width="1.8" height="1.8"/>
								<rect x="29.6" y="98.2" class="st6" width="1.8" height="1.8"/>
								<rect x="16.8" y="100" class="st6" width="1.8" height="1.8"/>
								<rect x="18.7" y="100" class="st2" width="1.8" height="1.8"/>
								<rect x="20.5" y="100" class="st6" width="1.8" height="1.8"/>
								<rect x="22.3" y="100" class="st2" width="1.8" height="1.8"/>
								<rect x="24.1" y="100" class="st6" width="1.8" height="1.8"/>
								<rect x="26" y="100" class="st2" width="1.8" height="1.8"/>
								<rect x="27.8" y="100" class="st6" width="1.8" height="1.8"/>
								<rect x="29.6" y="100" class="st2" width="1.8" height="1.8"/>
								<rect x="16.8" y="101.8" class="st2" width="1.8" height="1.8"/>
								<rect x="18.7" y="101.8" class="st6" width="1.8" height="1.8"/>
								<rect x="20.5" y="101.8" class="st2" width="1.8" height="1.8"/>
								<rect x="22.3" y="101.8" class="st6" width="1.8" height="1.8"/>
								<rect x="24.1" y="101.8" class="st2" width="1.8" height="1.8"/>
								<rect x="26" y="101.8" class="st6" width="1.8" height="1.8"/>
								<rect x="27.8" y="101.8" class="st2" width="1.8" height="1.8"/>
								<rect x="29.6" y="101.8" class="st6" width="1.8" height="1.8"/>
								<rect x="16.8" y="103.7" class="st6" width="1.8" height="1.8"/>
								<rect x="18.7" y="103.7" class="st2" width="1.8" height="1.8"/>
								<rect x="20.5" y="103.7" class="st6" width="1.8" height="1.8"/>
								<rect x="22.3" y="103.7" class="st2" width="1.8" height="1.8"/>
								<rect x="24.1" y="103.7" class="st6" width="1.8" height="1.8"/>
								<rect x="26" y="103.7" class="st2" width="1.8" height="1.8"/>
								<rect x="27.8" y="103.7" class="st6" width="1.8" height="1.8"/>
								<rect x="29.6" y="103.7" class="st2" width="1.8" height="1.8"/>
								<rect x="16.8" y="105.5" class="st2" width="1.8" height="1.8"/>
								<rect x="18.7" y="105.5" class="st6" width="1.8" height="1.8"/>
								<rect x="20.5" y="105.5" class="st2" width="1.8" height="1.8"/>
								<rect x="22.3" y="105.5" class="st6" width="1.8" height="1.8"/>
								<rect x="24.1" y="105.5" class="st2" width="1.8" height="1.8"/>
								<rect x="26" y="105.5" class="st6" width="1.8" height="1.8"/>
								<rect x="27.8" y="105.5" class="st2" width="1.8" height="1.8"/>
								<rect x="29.6" y="105.5" class="st6" width="1.8" height="1.8"/>
								<rect x="16.8" y="107.3" class="st6" width="1.8" height="1.8"/>
								<rect x="18.7" y="107.3" class="st2" width="1.8" height="1.8"/>
								<rect x="20.5" y="107.3" class="st6" width="1.8" height="1.8"/>
								<rect x="22.3" y="107.3" class="st2" width="1.8" height="1.8"/>
								<rect x="24.1" y="107.3" class="st6" width="1.8" height="1.8"/>
								<rect x="26" y="107.3" class="st2" width="1.8" height="1.8"/>
								<rect x="27.8" y="107.3" class="st6" width="1.8" height="1.8"/>
								<rect x="29.6" y="107.3" class="st2" width="1.8" height="1.8"/>
								<rect x="16.8" y="109.1" class="st2" width="1.8" height="1.8"/>
								<rect x="18.7" y="109.1" class="st6" width="1.8" height="1.8"/>
								<rect x="20.5" y="109.1" class="st2" width="1.8" height="1.8"/>
								<rect x="22.3" y="109.1" class="st6" width="1.8" height="1.8"/>
								<rect x="24.1" y="109.1" class="st2" width="1.8" height="1.8"/>
								<rect x="26" y="109.1" class="st6" width="1.8" height="1.8"/>
								<rect x="27.8" y="109.1" class="st2" width="1.8" height="1.8"/>
								<rect x="29.6" y="109.1" class="st6" width="1.8" height="1.8"/>
								<rect x="16.8" y="111" class="st6" width="1.8" height="1.8"/>
								<rect x="18.7" y="111" class="st2" width="1.8" height="1.8"/>
								<rect x="20.5" y="111" class="st6" width="1.8" height="1.8"/>
								<rect x="22.3" y="111" class="st2" width="1.8" height="1.8"/>
								<rect x="24.1" y="111" class="st6" width="1.8" height="1.8"/>
								<rect x="26" y="111" class="st2" width="1.8" height="1.8"/>
								<rect x="27.8" y="111" class="st6" width="1.8" height="1.8"/>
								<rect x="29.6" y="111" class="st2" width="1.8" height="1.8"/>
							</g>
						</g>
					</g>
					<g>
						<circle id="SVGID_00000046334547856590018550000017336534540057720220_" class="st7" cx="25" cy="104.6" r="3.5"/>
					</g>
				</g>
			</g>
		</g>
	</g>
	<g>
		<path class="st8" d="M2.6,15.8v-0.6h1.1V12h0l-1,0.3l-0.1-0.6l1.3-0.4h0.7v3.9h1v0.6H2.6z"/>
		<path class="st8" d="M47.5,52.5v-0.8c0-0.9,0.3-1.3,1-1.6L49,50c0.4-0.1,0.6-0.3,0.6-0.8v0c0-0.5-0.3-0.7-0.8-0.7
			c-0.4,0-0.8,0.1-1.1,0.3l-0.2-0.6c0.3-0.2,0.8-0.3,1.4-0.3c0.9,0,1.5,0.4,1.5,1.3v0.1c0,0.8-0.3,1.1-0.9,1.3l-0.5,0.2
			c-0.5,0.1-0.7,0.4-0.7,0.8v0.3h2.1v0.6H47.5z"/>
		<path class="st8" d="M50.8,31.4l0.1-0.6c0.3,0.1,0.7,0.2,1.2,0.2c0.6,0,0.8-0.2,0.8-0.7v-0.1c0-0.5-0.3-0.7-0.9-0.7h-0.5v-0.6H52
			c0.6,0,0.9-0.2,0.9-0.7v0c0-0.4-0.3-0.6-0.7-0.6c-0.4,0-0.8,0.1-1.1,0.3l-0.2-0.6c0.3-0.2,0.8-0.3,1.4-0.3c0.8,0,1.4,0.3,1.4,1.1
			v0.1c0,0.5-0.2,0.9-0.7,1v0c0.5,0.1,0.8,0.4,0.8,1.1v0.1c0,0.9-0.5,1.3-1.6,1.3C51.6,31.7,51.1,31.6,50.8,31.4z"/>
		<path class="st8" d="M77.8,16v-0.9h-2.2v-0.5l1.6-3.1H78l-1.5,2.9h1.3v-1.3h0.8v1.3h0.5v0.7h-0.5V16H77.8z"/>
		<path class="st8" d="M243.7,26.5L243.7,26.5c0,1.1-0.6,1.5-1.6,1.5c-0.6,0-1.1-0.1-1.5-0.4l0.2-0.6c0.4,0.2,0.8,0.3,1.2,0.3
			c0.6,0,0.8-0.2,0.8-0.8v-0.1c0-0.6-0.3-0.8-0.9-0.8c-0.3,0-0.7,0-1,0.1l-0.2-0.2l0.2-2.2h2.4V24h-1.7l-0.1,1.1c0.2,0,0.4,0,0.5,0
			C243.3,25.1,243.7,25.5,243.7,26.5z"/>
		<path class="st8" d="M193.3,58.6L193.3,58.6c0,1.1-0.5,1.5-1.5,1.5c-1.2,0-1.6-0.6-1.6-2.1v-0.3c0-1.8,0.7-2.3,1.8-2.3
			c0.5,0,0.8,0.1,1.1,0.2l-0.1,0.6c-0.2-0.1-0.6-0.2-0.9-0.2c-0.7,0-1,0.3-1,1.2c0.3,0,0.6-0.1,0.9-0.1
			C192.8,57.2,193.3,57.7,193.3,58.6z M192.5,58.6c0-0.6-0.2-0.8-0.7-0.8c-0.3,0-0.6,0-0.8,0.1v0.1c0,1.1,0.1,1.5,0.8,1.5
			C192.3,59.5,192.5,59.3,192.5,58.6L192.5,58.6z"/>
		<path class="st8" d="M178.4,127l1.9-3.9h-2.2v-0.6h3.1v0.5l-1.9,4H178.4z"/>
		<path class="st8" d="M147.8,121.1L147.8,121.1c0,0.9-0.5,1.3-1.6,1.3c-1.1,0-1.6-0.4-1.6-1.3v0c0-0.5,0.2-0.9,0.7-1.1
			c-0.4-0.2-0.5-0.5-0.5-1v0c0-0.8,0.5-1.2,1.5-1.2c0.9,0,1.5,0.4,1.5,1.2v0.1c0,0.5-0.2,0.8-0.5,1
			C147.6,120.2,147.8,120.5,147.8,121.1z M147,121c0-0.5-0.2-0.7-0.8-0.7h-0.1c-0.5,0-0.8,0.2-0.8,0.7v0c0,0.5,0.2,0.7,0.8,0.7
			C146.8,121.8,147,121.6,147,121L147,121z M145.5,119.1c0,0.4,0.2,0.7,0.7,0.7h0.1c0.5,0,0.7-0.2,0.7-0.7v0c0-0.4-0.2-0.6-0.7-0.6
			C145.7,118.4,145.5,118.6,145.5,119.1L145.5,119.1z"/>
		<path class="st8" d="M141.2,66.4V67c0,1.5-0.4,2.2-1.7,2.2c-0.5,0-0.9-0.1-1.2-0.2l0.1-0.6c0.3,0.1,0.7,0.2,1,0.2
			c0.6,0,0.9-0.3,0.9-1.1c-0.2,0-0.5,0.1-0.8,0.1c-1.1,0-1.5-0.4-1.5-1.4V66c0-1,0.6-1.5,1.6-1.5C140.7,64.5,141.2,65,141.2,66.4z
			 M138.8,66c0,0.6,0.2,0.8,0.8,0.8c0.3,0,0.6,0,0.8-0.1v-0.3c0-1-0.1-1.4-0.8-1.4C139,65.2,138.8,65.4,138.8,66L138.8,66z"/>
		<g>
			<path class="st8" d="M131.3,50.2v-0.6h1.1v-3.1h0l-1,0.3l-0.1-0.6l1.3-0.4h0.7v3.9h1v0.6H131.3z"/>
			<path class="st8" d="M135.3,49.9c-0.3-0.3-0.5-0.8-0.5-1.9v-0.2c0-1,0.1-1.5,0.4-1.8c0.3-0.3,0.6-0.4,1.2-0.4
				c0.6,0,1,0.1,1.2,0.4c0.3,0.3,0.4,0.8,0.4,1.8V48c0,1.1-0.1,1.5-0.4,1.8c-0.3,0.3-0.7,0.4-1.2,0.4
				C135.9,50.2,135.5,50.1,135.3,49.9z M137,49.4c0.2-0.2,0.2-0.6,0.2-1.4v-0.1c0-0.8,0-1.2-0.2-1.4c-0.1-0.2-0.3-0.2-0.6-0.2
				c-0.3,0-0.5,0.1-0.6,0.2c-0.2,0.2-0.2,0.6-0.2,1.4v0.1c0,0.8,0,1.2,0.2,1.4c0.1,0.1,0.3,0.2,0.6,0.2
				C136.7,49.6,136.9,49.5,137,49.4z"/>
		</g>
		<g>
			<path class="st8" d="M96.5,57.3v-0.6h1.1v-3.1h0l-1,0.3l-0.1-0.6l1.3-0.4h0.7v3.9h1v0.6H96.5z"/>
			<path class="st8" d="M100.3,57.3v-0.6h1.1v-3.1h0l-1,0.3l-0.1-0.6l1.3-0.4h0.7v3.9h1v0.6H100.3z"/>
		</g>
		<g>
			<path class="st8" d="M79.3,109v-0.6h1.1v-3.1h0l-1,0.3l-0.1-0.6l1.3-0.4h0.7v3.9h1v0.6H79.3z"/>
			<path class="st8" d="M82.9,109v-0.8c0-0.9,0.3-1.3,1-1.6l0.5-0.1c0.4-0.1,0.6-0.3,0.6-0.8v0c0-0.5-0.3-0.7-0.8-0.7
				c-0.4,0-0.8,0.1-1.1,0.3l-0.2-0.6c0.3-0.2,0.8-0.3,1.4-0.3c0.9,0,1.5,0.4,1.5,1.3v0.1c0,0.8-0.3,1.1-0.9,1.3l-0.5,0.2
				c-0.5,0.1-0.7,0.4-0.7,0.8v0.3h2.1v0.6H82.9z"/>
		</g>
		<g>
			<path class="st8" d="M45.7,138.2v-0.6h1.1v-3.1h0l-1,0.3l-0.1-0.6l1.3-0.4h0.7v3.9h1v0.6H45.7z"/>
			<path class="st8" d="M49.2,138l0.1-0.6c0.3,0.1,0.7,0.2,1.2,0.2c0.6,0,0.8-0.2,0.8-0.7v-0.1c0-0.5-0.3-0.7-0.9-0.7H50v-0.6h0.4
				c0.6,0,0.9-0.2,0.9-0.7v0c0-0.4-0.3-0.6-0.7-0.6c-0.4,0-0.8,0.1-1.1,0.3l-0.2-0.6c0.3-0.2,0.8-0.3,1.4-0.3c0.8,0,1.4,0.3,1.4,1.1
				v0.1c0,0.5-0.2,0.9-0.7,1v0c0.5,0.1,0.8,0.4,0.8,1.1v0.1c0,0.9-0.5,1.3-1.6,1.3C50.1,138.3,49.6,138.2,49.2,138z"/>
		</g>
		<g>
			<path class="st8" d="M57.2,103.3v-0.6h1.1v-3.1h0l-1,0.3l-0.1-0.6l1.3-0.4h0.7v3.9h1v0.6H57.2z"/>
			<path class="st8" d="M62.7,103.3v-0.9h-2.2v-0.5l1.6-3.1H63l-1.5,2.9h1.3v-1.3h0.8v1.3h0.5v0.7h-0.5v0.9H62.7z"/>
		</g>
	</g>
</g>
</svg>
