<?xml version="1.0" encoding="utf-8"?>
<!-- Generator: Adobe Illustrator 26.4.1, SVG Export Plug-In . SVG Version: 6.00 Build 0)  -->
<svg version="1.1" id="Capa_1" xmlns="http://www.w3.org/2000/svg" xmlns:xlink="http://www.w3.org/1999/xlink" x="0px" y="0px"
	 viewBox="0 0 201.1 102.4" style="enable-background:new 0 0 201.1 102.4;" xml:space="preserve">
<style type="text/css">
	.st0{fill:#9FA0A4;}
	.st1{fill:#C80502;}
	.st2{fill:#FFFFFF;}
	.st3{fill:#171C21;}
	.st4{fill:#00B753;}
	.st5{clip-path:url(#SVGID_00000150796618654375063600000000574498412942719619_);}
	.st6{fill:#1D1D1B;}
	.st7{fill:none;stroke:#939393;stroke-width:0.25;stroke-miterlimit:10;}
	.st8{fill:#9E9FA2;}
</style>
<g>
	<path class="st0" d="M20.1,89.1c-2.3,0-3.2-0.5-4.6-1.8c-1.5-1.5-2-2.8-2.3-3.9c-0.1-0.2-0.1-0.4-0.2-0.6L6.7,66.1
		c-0.3-0.7-0.8-2.2-0.8-4.2c0-2.5,0.8-4.2,1.3-5.1c0.3-0.5,8.5-14.8,9.4-16.4l0.1-0.1l0.1-0.1c0.4-0.6,1.9-2.6,4.4-3.3
		c0.7-0.2,1.4-0.3,2.1-0.3c1.8,0,3.4,0.6,4.7,1.6c1.8,1.5,2.4,3.1,2.8,4.6c0.3,1.1,2.9,10.7,3.1,11.5c0.1,0.4,0.6,1.6,1.5,2.2
		c1.3,0.9,1.6,1,4,1h62.8h0.1c0.4,0,0.6-0.2,0.8-0.8c0.1-0.1,0.1-0.2,0.1-0.3c-0.1-0.2-0.6-0.6-1-0.7c-1.6-0.4-11.3-4.4-11.7-4.6
		c-0.1,0-2.9-1.1-6.1-1.1c-0.3,0-0.6,0-0.8,0c-3.1,0.2-6.2,0.9-10.3,1.8c-2,0.4-3.9,0.8-5.9,1.3c-2.1,0.4-3.8,0.8-5.1,1.1
		c-3.1,0.7-4.7,1-6.2,1c-0.1,0-0.2,0-0.4,0c-4.8-0.1-8.6-2.5-11.2-6.8l-6.3-9.7c-1.3-1.9-2.7-6.1,0.1-10.1c1.8-2.6,4.4-3.9,7.5-3.9
		c1.1,0,2.2,0.2,3.4,0.3c0,0,40,5.5,40.1,5.5h0.1c0.2,0,1,0.1,2,0.1c1.8,0,3.3-0.3,4.3-0.9c2.6-1.5,3.8-2.8,6.1-5.3
		c0.5-0.5,1-1.1,1.6-1.7l10.7-11.4c0.5-0.5,5.3-5.3,11.3-5.5c4.1-0.2,4.7-0.2,4.8-0.2h0.1h0.1c0.6,0,2.6,0.1,4.6,1.1
		c3,1.6,4.8,4.5,4.9,8.1c0.1,4.7,0.3,20.1,0.3,21.3c0,1,0.4,3.7,1.8,5.3c2,2.5,3.1,3.1,7.2,5l13.6,6.1c-0.1-0.1-0.2-0.3-0.4-0.6
		l-10.7-15.8c-1.7-2.2-3.7-6.9-1-11.7c2.3-4.1,7.1-6.5,13-6.5c0.4,0,0.8,0,1.1,0c5.2,0.3,9.4,3.1,13,8.3c3.1,4.6,12.4,18.3,13,19.1
		c0.6,0.8,4.1,6.1,4.4,13.8c0.3,7.5-2,14.4-6.6,19.8c-2.5,3-5.3,5.3-8.6,7c-4.1,2.2-8.5,3.3-13.3,3.3c-0.2,0-0.4,0-0.7,0h-62H21.7
		C20.4,89.1,20.4,89.1,20.1,89.1z M103.6,84.7h62.1c9.1,0.2,15.4-4.3,19-8.6c3.7-4.4,5.7-10,5.5-16.7c-0.2-6.6-3.6-11.4-3.6-11.4
		s-9.8-14.5-13-19.1c-3.2-4.7-6.4-6.1-9.5-6.3c-3.1-0.2-7.9,0.7-9.9,4.2s0.7,6.7,0.7,6.7s9.8,14.5,10.8,15.9c1,1.5,2.4,4.1,0,6.5
		c-2.5,2.5-5.3,0.8-5.3,0.8s-9.1-4.1-13.6-6.1c-4.5-2.1-6.3-3.1-8.9-6.3c-2.6-3.3-2.8-8-2.8-8s-0.2-16.5-0.3-21.3
		c-0.1-4.9-4.9-4.8-4.9-4.8s-0.3,0-4.7,0.2c-4.4,0.2-8.1,4.2-8.1,4.2s-7.2,7.6-10.7,11.4s-5,5.6-8.7,7.9c-3.8,2.3-9.1,1.4-9.2,1.3
		c-0.1-0.1-37.1-5.2-40.1-5.5c-3-0.4-5-0.7-6.6,1.7c-1.7,2.4,0,5,0,5l6.4,9.8c2.4,4.1,5.6,4.6,7.4,4.7c1.8,0.1,3.9-0.6,10.6-2
		S78,46,82.8,45.7c4.9-0.3,8.9,1.4,8.9,1.4s10.1,4.2,11.6,4.8s5.1,2.8,3.5,6.8c-1.6,4.2-5.3,3.7-5.3,3.7s-59.8,0-62.5,0
		s-4.3-0.1-6.6-1.8c-2.3-1.7-3-4.9-3-4.9s-2.9-10.3-3.2-11.5c-0.3-1.2-0.5-1.6-1.3-2.3c-0.8-0.6-1.8-0.7-2.8-0.5s-1.7,1.3-1.7,1.3
		s-9,15.9-9.3,16.4s-0.7,1.5-0.7,2.7c0,1.4,0.5,2.4,0.5,2.4s5.7,15.7,6.2,16.9c0.5,1.3,0.5,1.9,1.5,2.8c0.9,0.9,2.9,0.7,2.9,0.7
		L103.6,84.7L103.6,84.7z"/>
	<g>
		<path class="st1" d="M126.5,101.7h-6.2c-1.6,0-2.8-1.3-2.8-2.8v-4.3c0-1.6,1.3-2.8,2.8-2.8h6.2c1.6,0,2.8,1.3,2.8,2.8v4.2
			C129.3,100.4,128.1,101.7,126.5,101.7z"/>
		<g>
			<path class="st2" d="M121.8,95.7v0.9h1.6v0.8h-1.6V99h-1v-3.6c0-0.6,0.3-0.9,0.9-0.9h1.8l-0.1,0.8h-1.3
				C121.9,95.4,121.8,95.5,121.8,95.7z"/>
			<path class="st2" d="M124.1,98v-3.4h1v3.3c0,0.3,0.1,0.4,0.4,0.4h1.3l-0.1,0.8h-1.4C124.4,99.1,124.1,98.7,124.1,98z"/>
		</g>
		<rect x="122.6" y="80.5" class="st1" width="1" height="11.4"/>
		<rect x="115.2" y="80.5" class="st1" width="8.2" height="1"/>
		<path id="Shape_17_" class="st1" d="M114.6,80l1.4-0.8c0.2-0.1,0.4,0,0.4,0.2V81v1.6c0,0.2-0.2,0.3-0.4,0.2l-1.4-0.8l-1.4-0.8
			c-0.2-0.1-0.2-0.3,0-0.4L114.6,80z"/>
	</g>
	<g>
		<path class="st1" d="M70.3,102.4h-6.2c-1.6,0-2.8-1.3-2.8-2.8v-4.2c0-1.6,1.3-2.8,2.8-2.8h6.2c1.6,0,2.8,1.3,2.8,2.8v4.2
			C73.1,101.1,71.8,102.4,70.3,102.4z"/>
		<g>
			<path class="st2" d="M65.6,98.4v-0.2h1v0.1c0,0.4,0.2,0.6,0.5,0.6c0.3,0,0.5-0.2,0.5-0.4c0-0.3-0.1-0.4-0.5-0.5l-0.4-0.1
				c-0.6-0.2-1.2-0.5-1.2-1.3s0.6-1.3,1.5-1.3c1,0,1.5,0.5,1.5,1.4v0.1h-1v-0.2c0-0.4-0.2-0.6-0.5-0.6c-0.3,0-0.4,0.2-0.4,0.4
				c0,0.4,0.4,0.5,0.8,0.7h0.1c0.5,0.2,1.2,0.5,1.2,1.3c0,0.7-0.5,1.4-1.6,1.4C66.2,99.8,65.6,99.3,65.6,98.4z"/>
		</g>
		<path class="st1" d="M67.2,93.1c-0.3,0-0.5-0.2-0.5-0.5V81.2c0-0.3,0.2-0.5,0.5-0.5c0.3,0,0.5,0.2,0.5,0.5v11.4
			C67.7,92.9,67.4,93.1,67.2,93.1z"/>
	</g>
	<g>
		<path class="st1" d="M24.2,61.3H18c-1.6,0-2.8-1.3-2.8-2.8v-4.2c0-1.6,1.3-2.8,2.8-2.8h6.2c1.6,0,2.8,1.3,2.8,2.8v4.2
			C27.1,60,25.8,61.3,24.2,61.3z"/>
		<g>
			<path class="st2" d="M19,53.6h1v0.9h-1V53.6z M19.1,54.9H20v3.5h-0.9V54.9z"/>
			<path class="st2" d="M23.8,57.6l-0.2,0.8h-2.8v-0.8h1.1v-2.7l-1.1,0.5v-0.8l1.4-0.6h0.7v3.6H23.8z"/>
		</g>
		<path class="st1" d="M24.8,53.1c-0.2-0.2-0.1-0.5,0.1-0.7l7.6-5.4c0.2-0.2,0.5-0.1,0.7,0.1s0.1,0.5-0.1,0.7l-7.6,5.4
			C25.3,53.4,25,53.3,24.8,53.1z"/>
	</g>
	<g>
		<path class="st1" d="M63,37.1C63,37.1,62.9,37.1,63,37.1c-0.4-0.1-0.5-0.3-0.5-0.6l1.2-11.4c0-0.3,0.3-0.5,0.6-0.4
			c0.3,0,0.4,0.3,0.4,0.6l-1.2,11.4C63.4,36.9,63.2,37.1,63,37.1z"/>
		<path class="st1" d="M68.4,44.1h-6.2c-1.6,0-2.8-1.3-2.8-2.8v-4.2c0-1.6,1.3-2.8,2.8-2.8h6.2c1.6,0,2.8,1.3,2.8,2.8v4.2
			C71.3,42.8,70,44.1,68.4,44.1z"/>
		<g>
			<path class="st2" d="M63.3,36.4h1v0.9h-1V36.4z M63.3,37.7h0.9v3.5h-0.9V37.7z"/>
			<path class="st2" d="M64.9,40.4c0-0.7,0.3-1.1,0.9-1.4l0.2-0.1c0.7-0.3,0.9-0.5,0.9-0.9c0-0.3-0.2-0.6-0.5-0.6
				c-0.4,0-0.6,0.3-0.6,0.8v0.1h-1v-0.1c0-1.1,0.5-1.6,1.6-1.6c0.9,0,1.5,0.5,1.5,1.4c0,0.7-0.3,1.1-1.1,1.5l-0.2,0.1
				c-0.6,0.2-0.8,0.4-0.8,0.8v0.1h2.1l-0.1,0.8h-2.9V40.4z"/>
		</g>
	</g>
	<g>
		<path class="st1" d="M129.3,39h-6.2c-1.6,0-2.8-1.3-2.8-2.8V32c0-1.6,1.3-2.8,2.8-2.8h6.2c1.6,0,2.8,1.3,2.8,2.8v4.2
			C132.1,37.8,130.9,39,129.3,39z"/>
		<g>
			<path class="st2" d="M124.1,31.4h1v0.9h-1V31.4z M124.2,32.7h0.9v3.5h-0.9V32.7z"/>
			<path class="st2" d="M125.7,34.8h1c0,0.4,0.2,0.7,0.6,0.7c0.4,0,0.6-0.2,0.6-0.6c0-0.4-0.2-0.6-0.7-0.6h-0.4v-0.7h0.3
				c0.4,0,0.6-0.2,0.6-0.6c0-0.3-0.2-0.5-0.5-0.5c-0.4,0-0.6,0.2-0.6,0.7l0,0h-1l0,0c0-1,0.5-1.5,1.6-1.5c0.9,0,1.5,0.5,1.5,1.2
				c0,0.5-0.2,0.8-0.5,0.9c0.5,0.2,0.7,0.5,0.7,1c0,0.8-0.6,1.4-1.6,1.4C126.2,36.3,125.7,35.7,125.7,34.8z"/>
		</g>
		<path class="st1" d="M128.3,33.7c0.1-0.2,0.3-0.3,0.4-0.2l14.7,0c0.2,0,0.4,0.2,0.5,0.5c0,0.2-0.2,0.4-0.5,0.5l-14.7,0
			c-0.2,0-0.4-0.2-0.5-0.5C128.3,33.8,128.3,33.8,128.3,33.7z"/>
	</g>
	<g>
		<path class="st3" d="M154.5,101.7h-20.1c-1.6,0-2.8-1.3-2.8-2.8v-4.3c0-1.6,1.3-2.8,2.8-2.8h20.1c1.6,0,2.8,1.3,2.8,2.8v4.2
			C157.3,100.4,156,101.7,154.5,101.7z"/>
		<circle class="st1" cx="136.9" cy="96.8" r="3.5"/>
		<circle class="st4" cx="144.9" cy="96.7" r="3.5"/>
		<g>
			<g>
				<defs>
					<circle id="SVGID_00000176760377538238574750000011442459161825833095_" cx="152.5" cy="96.8" r="3.5"/>
				</defs>
				<clipPath id="SVGID_00000132068821117344422720000011863913292248787884_">
					<use xlink:href="#SVGID_00000176760377538238574750000011442459161825833095_"  style="overflow:visible;"/>
				</clipPath>
				<g style="clip-path:url(#SVGID_00000132068821117344422720000011863913292248787884_);">
					<rect x="144.3" y="90.4" class="st2" width="1.8" height="1.8"/>
					<rect x="146.2" y="90.4" class="st6" width="1.8" height="1.8"/>
					<rect x="148" y="90.4" class="st2" width="1.8" height="1.8"/>
					<rect x="149.8" y="90.4" class="st6" width="1.8" height="1.8"/>
					<rect x="151.6" y="90.4" class="st2" width="1.8" height="1.8"/>
					<rect x="153.5" y="90.4" class="st6" width="1.8" height="1.8"/>
					<rect x="155.3" y="90.4" class="st2" width="1.8" height="1.8"/>
					<rect x="157.1" y="90.4" class="st6" width="1.8" height="1.8"/>
					<rect x="144.3" y="92.2" class="st6" width="1.8" height="1.8"/>
					<rect x="146.2" y="92.2" class="st2" width="1.8" height="1.8"/>
					<rect x="148" y="92.2" class="st6" width="1.8" height="1.8"/>
					<rect x="149.8" y="92.2" class="st2" width="1.8" height="1.8"/>
					<rect x="151.6" y="92.2" class="st6" width="1.8" height="1.8"/>
					<rect x="153.5" y="92.2" class="st2" width="1.8" height="1.8"/>
					<rect x="155.3" y="92.2" class="st6" width="1.8" height="1.8"/>
					<rect x="157.1" y="92.2" class="st2" width="1.8" height="1.8"/>
					<rect x="144.3" y="94" class="st2" width="1.8" height="1.8"/>
					<rect x="146.2" y="94" class="st6" width="1.8" height="1.8"/>
					<rect x="148" y="94" class="st2" width="1.8" height="1.8"/>
					<rect x="149.8" y="94" class="st6" width="1.8" height="1.8"/>
					<rect x="151.6" y="94" class="st2" width="1.8" height="1.8"/>
					<rect x="153.5" y="94" class="st6" width="1.8" height="1.8"/>
					<rect x="155.3" y="94" class="st2" width="1.8" height="1.8"/>
					<rect x="157.1" y="94" class="st6" width="1.8" height="1.8"/>
					<rect x="144.3" y="95.9" class="st6" width="1.8" height="1.8"/>
					<rect x="146.2" y="95.9" class="st2" width="1.8" height="1.8"/>
					<rect x="148" y="95.9" class="st6" width="1.8" height="1.8"/>
					<rect x="149.8" y="95.9" class="st2" width="1.8" height="1.8"/>
					<rect x="151.6" y="95.9" class="st6" width="1.8" height="1.8"/>
					<rect x="153.5" y="95.9" class="st2" width="1.8" height="1.8"/>
					<rect x="155.3" y="95.9" class="st6" width="1.8" height="1.8"/>
					<rect x="157.1" y="95.9" class="st2" width="1.8" height="1.8"/>
					<rect x="144.3" y="97.7" class="st2" width="1.8" height="1.8"/>
					<rect x="146.2" y="97.7" class="st6" width="1.8" height="1.8"/>
					<rect x="148" y="97.7" class="st2" width="1.8" height="1.8"/>
					<rect x="149.8" y="97.7" class="st6" width="1.8" height="1.8"/>
					<rect x="151.6" y="97.7" class="st2" width="1.8" height="1.8"/>
					<rect x="153.5" y="97.7" class="st6" width="1.8" height="1.8"/>
					<rect x="155.3" y="97.7" class="st2" width="1.8" height="1.8"/>
					<rect x="157.1" y="97.7" class="st6" width="1.8" height="1.8"/>
					<rect x="144.3" y="99.5" class="st6" width="1.8" height="1.8"/>
					<rect x="146.2" y="99.5" class="st2" width="1.8" height="1.8"/>
					<rect x="148" y="99.5" class="st6" width="1.8" height="1.8"/>
					<rect x="149.8" y="99.5" class="st2" width="1.8" height="1.8"/>
					<rect x="151.6" y="99.5" class="st6" width="1.8" height="1.8"/>
					<rect x="153.5" y="99.5" class="st2" width="1.8" height="1.8"/>
					<rect x="155.3" y="99.5" class="st6" width="1.8" height="1.8"/>
					<rect x="157.1" y="99.5" class="st2" width="1.8" height="1.8"/>
					<rect x="144.3" y="101.3" class="st2" width="1.8" height="1.8"/>
					<rect x="146.2" y="101.3" class="st6" width="1.8" height="1.8"/>
					<rect x="148" y="101.3" class="st2" width="1.8" height="1.8"/>
					<rect x="149.8" y="101.3" class="st6" width="1.8" height="1.8"/>
					<rect x="151.6" y="101.3" class="st2" width="1.8" height="1.8"/>
					<rect x="153.5" y="101.3" class="st6" width="1.8" height="1.8"/>
					<rect x="155.3" y="101.3" class="st2" width="1.8" height="1.8"/>
					<rect x="157.1" y="101.3" class="st6" width="1.8" height="1.8"/>
					<rect x="144.3" y="103.2" class="st6" width="1.8" height="1.8"/>
					<rect x="146.2" y="103.2" class="st2" width="1.8" height="1.8"/>
					<rect x="148" y="103.2" class="st6" width="1.8" height="1.8"/>
					<rect x="149.8" y="103.2" class="st2" width="1.8" height="1.8"/>
					<rect x="151.6" y="103.2" class="st6" width="1.8" height="1.8"/>
					<rect x="153.5" y="103.2" class="st2" width="1.8" height="1.8"/>
					<rect x="155.3" y="103.2" class="st6" width="1.8" height="1.8"/>
					<rect x="157.1" y="103.2" class="st2" width="1.8" height="1.8"/>
				</g>
			</g>
			<g>
				<circle id="SVGID_1_" class="st7" cx="152.5" cy="96.8" r="3.5"/>
			</g>
		</g>
	</g>
	<g>
		<path class="st8" d="M11.2,96.8v-0.6h1.1V93h0l-1,0.3L11,92.7l1.3-0.4H13v3.9h1v0.6H11.2z"/>
		<path class="st8" d="M0,63.6v-0.8c0-0.9,0.3-1.3,1-1.6l0.5-0.1c0.4-0.1,0.6-0.3,0.6-0.8v0c0-0.5-0.3-0.7-0.8-0.7
			c-0.4,0-0.8,0.1-1.1,0.3L0,59.3C0.4,59.2,0.8,59,1.4,59c0.9,0,1.5,0.4,1.5,1.3v0.1c0,0.8-0.3,1.1-0.9,1.3l-0.5,0.2
			c-0.5,0.1-0.7,0.4-0.7,0.8V63h2.1v0.6H0z"/>
		<path class="st8" d="M21.1,33.9l0.1-0.6c0.3,0.1,0.7,0.2,1.2,0.2c0.6,0,0.8-0.2,0.8-0.7v-0.1c0-0.5-0.3-0.7-0.9-0.7h-0.5v-0.6h0.4
			c0.6,0,0.9-0.2,0.9-0.7v0c0-0.4-0.3-0.6-0.7-0.6c-0.4,0-0.8,0.1-1.1,0.3l-0.2-0.6c0.3-0.2,0.8-0.3,1.4-0.3c0.8,0,1.4,0.3,1.4,1.1
			v0.1c0,0.5-0.2,0.9-0.7,1v0c0.5,0.1,0.8,0.4,0.8,1.1v0.1c0,0.9-0.5,1.3-1.6,1.3C21.9,34.2,21.4,34.1,21.1,33.9z"/>
		<path class="st8" d="M32.7,69.8v-0.9h-2.2v-0.5l1.6-3.1h0.8l-1.5,2.9h1.3v-1.3h0.8v1.3H34v0.7h-0.5v0.9H32.7z"/>
		<path class="st8" d="M113.5,62.1L113.5,62.1c0,1.1-0.6,1.5-1.6,1.5c-0.6,0-1.1-0.1-1.5-0.4l0.2-0.6c0.4,0.2,0.8,0.3,1.2,0.3
			c0.6,0,0.8-0.2,0.8-0.8v-0.1c0-0.6-0.3-0.8-0.9-0.8c-0.3,0-0.7,0-1,0.1l-0.2-0.2l0.2-2.2h2.4v0.6h-1.7l-0.1,1.1c0.2,0,0.4,0,0.5,0
			C113,60.7,113.5,61.1,113.5,62.1z"/>
		<path class="st8" d="M86.1,54.8L86.1,54.8c0,1.1-0.5,1.5-1.5,1.5c-1.2,0-1.6-0.6-1.6-2.1V54c0-1.8,0.7-2.3,1.8-2.3
			c0.5,0,0.8,0.1,1.1,0.2l-0.1,0.6c-0.2-0.1-0.6-0.2-0.9-0.2c-0.7,0-1,0.3-1,1.2c0.3,0,0.6-0.1,0.9-0.1
			C85.6,53.5,86.1,53.9,86.1,54.8z M85.3,54.9c0-0.6-0.2-0.8-0.7-0.8c-0.3,0-0.6,0-0.8,0.1v0.1c0,1.1,0.1,1.5,0.8,1.5
			C85.1,55.7,85.3,55.5,85.3,54.9L85.3,54.9z"/>
		<path class="st8" d="M53.6,47.1l1.9-3.9h-2.2v-0.6h3.1v0.5l-1.9,4H53.6z"/>
		<path class="st8" d="M38.1,24.2L38.1,24.2c0,0.9-0.5,1.3-1.6,1.3c-1.1,0-1.6-0.4-1.6-1.3v0c0-0.5,0.2-0.9,0.7-1.1
			c-0.4-0.2-0.5-0.5-0.5-1v0c0-0.8,0.5-1.2,1.5-1.2c0.9,0,1.5,0.4,1.5,1.2v0.1c0,0.5-0.2,0.8-0.5,1C37.9,23.3,38.1,23.6,38.1,24.2z
			 M37.3,24.2c0-0.5-0.2-0.7-0.8-0.7h-0.1c-0.5,0-0.8,0.2-0.8,0.7v0c0,0.5,0.2,0.7,0.8,0.7C37,24.9,37.3,24.7,37.3,24.2L37.3,24.2z
			 M35.8,22.2c0,0.4,0.2,0.7,0.7,0.7h0.1c0.5,0,0.7-0.2,0.7-0.7v0c0-0.4-0.2-0.6-0.7-0.6C36,21.5,35.8,21.7,35.8,22.2L35.8,22.2z"/>
		<path class="st8" d="M93.6,24.5V25c0,1.5-0.4,2.2-1.7,2.2c-0.5,0-0.9-0.1-1.2-0.2l0.1-0.6c0.3,0.1,0.7,0.2,1,0.2
			c0.6,0,0.9-0.3,0.9-1.1c-0.2,0-0.5,0.1-0.8,0.1c-1.1,0-1.5-0.4-1.5-1.4v-0.1c0-1,0.6-1.5,1.6-1.5C93.1,22.6,93.6,23.1,93.6,24.5z
			 M91.3,24.1c0,0.6,0.2,0.8,0.8,0.8c0.3,0,0.6,0,0.8-0.1v-0.3c0-1-0.1-1.4-0.8-1.4C91.5,23.2,91.3,23.5,91.3,24.1L91.3,24.1z"/>
		<g>
			<path class="st8" d="M111.4,4.6V4h1.1V0.8h0l-1,0.3l-0.1-0.6l1.3-0.4h0.7V4h1v0.6H111.4z"/>
			<path class="st8" d="M115.3,4.3c-0.3-0.3-0.5-0.8-0.5-1.9V2.2c0-1,0.1-1.5,0.4-1.8c0.3-0.3,0.6-0.4,1.2-0.4c0.6,0,1,0.1,1.2,0.4
				c0.3,0.3,0.4,0.8,0.4,1.8v0.2c0,1.1-0.1,1.5-0.4,1.8c-0.3,0.3-0.7,0.4-1.2,0.4C116,4.7,115.6,4.6,115.3,4.3z M117.1,3.8
				c0.2-0.2,0.2-0.6,0.2-1.4V2.3c0-0.8,0-1.2-0.2-1.4c-0.1-0.2-0.3-0.2-0.6-0.2c-0.3,0-0.5,0.1-0.6,0.2c-0.2,0.2-0.2,0.6-0.2,1.4
				v0.1c0,0.8,0,1.2,0.2,1.4C116,4,116.2,4,116.5,4C116.8,4,117,4,117.1,3.8z"/>
		</g>
		<g>
			<path class="st8" d="M139.8,5.2V4.5h1.1V1.4h0l-1,0.3l-0.1-0.6l1.3-0.4h0.7v3.9h1v0.6H139.8z"/>
			<path class="st8" d="M143.5,5.2V4.5h1.1V1.4h0l-1,0.3l-0.1-0.6l1.3-0.4h0.7v3.9h1v0.6H143.5z"/>
		</g>
		<g>
			<path class="st8" d="M130.2,51.5v-0.6h1.1v-3.1h0l-1,0.3l-0.1-0.6l1.3-0.4h0.7v3.9h1v0.6H130.2z"/>
			<path class="st8" d="M133.8,51.5v-0.8c0-0.9,0.3-1.3,1-1.6l0.5-0.1c0.4-0.1,0.6-0.3,0.6-0.8v0c0-0.5-0.3-0.7-0.8-0.7
				c-0.4,0-0.8,0.1-1.1,0.3l-0.2-0.6c0.3-0.2,0.8-0.3,1.4-0.3c0.9,0,1.5,0.4,1.5,1.3v0.1c0,0.8-0.3,1.1-0.9,1.3l-0.5,0.2
				c-0.5,0.1-0.7,0.4-0.7,0.8v0.3h2.1v0.6H133.8z"/>
		</g>
		<g>
			<path class="st8" d="M160.8,65.2v-0.6h1.1v-3.1h0l-1,0.3l-0.1-0.6l1.3-0.4h0.7v3.9h1v0.6H160.8z"/>
			<path class="st8" d="M164.3,65.1l0.1-0.6c0.3,0.1,0.7,0.2,1.2,0.2c0.6,0,0.8-0.2,0.8-0.7v-0.1c0-0.5-0.3-0.7-0.9-0.7h-0.5v-0.6
				h0.4c0.6,0,0.9-0.2,0.9-0.7v0c0-0.4-0.3-0.6-0.7-0.6c-0.4,0-0.8,0.1-1.1,0.3l-0.2-0.6c0.3-0.2,0.8-0.3,1.4-0.3
				c0.8,0,1.4,0.3,1.4,1.1v0.1c0,0.5-0.2,0.9-0.7,1v0c0.5,0.1,0.8,0.4,0.8,1.1V64c0,0.9-0.5,1.3-1.6,1.3
				C165.1,65.3,164.7,65.2,164.3,65.1z"/>
		</g>
		<g>
			<path class="st8" d="M157.3,14.8v-0.6h1.1V11h0l-1,0.3l-0.1-0.6l1.3-0.4h0.7v3.9h1v0.6H157.3z"/>
			<path class="st8" d="M162.9,14.8v-0.9h-2.2v-0.5l1.6-3.1h0.8l-1.5,2.9h1.3v-1.3h0.8v1.3h0.5v0.7h-0.5v0.9H162.9z"/>
		</g>
		<g>
			<path class="st8" d="M194.5,80.7V80h1.1v-3.1h0l-1,0.3l-0.1-0.6l1.3-0.4h0.7V80h1v0.6H194.5z"/>
			<path class="st8" d="M201.1,79.2L201.1,79.2c0,1.1-0.6,1.5-1.6,1.5c-0.6,0-1.1-0.1-1.5-0.4l0.2-0.6c0.4,0.2,0.8,0.3,1.2,0.3
				c0.6,0,0.8-0.2,0.8-0.8v-0.1c0-0.6-0.3-0.8-0.9-0.8c-0.3,0-0.7,0-1,0.1l-0.2-0.2l0.2-2.2h2.4v0.6H199l-0.1,1.1c0.2,0,0.4,0,0.5,0
				C200.6,77.8,201.1,78.3,201.1,79.2z"/>
		</g>
	</g>
</g>
</svg>
