<?xml version="1.0" encoding="utf-8"?>
<!-- Generator: Adobe Illustrator 26.4.1, SVG Export Plug-In . SVG Version: 6.00 Build 0)  -->
<svg version="1.1" id="Capa_1" xmlns="http://www.w3.org/2000/svg" xmlns:xlink="http://www.w3.org/1999/xlink" x="0px" y="0px"
	 viewBox="0 0 221.3 151.9" style="enable-background:new 0 0 221.3 151.9;" xml:space="preserve">
<style type="text/css">
	.st0{fill:#9C9C9D;}
	.st1{fill:#C71517;}
	.st2{fill:#FFFFFF;}
	.st3{fill:#181D22;}
	.st4{fill:#35AA54;}
	.st5{clip-path:url(#SVGID_00000126304658520422732770000016058363904919371393_);}
	.st6{fill:#1D1E1C;}
	.st7{fill:none;stroke:#919191;stroke-width:0.25;stroke-miterlimit:10;}
	.st8{fill:#9E9FA2;}
</style>
<g>
	<g>
		<path class="st0" d="M203.5,107.9c2.8,1.1,10.8,4,8.8,13.4c-1.8,7.1-9.1,8.6-13.9,8.3c-0.6-0.1-11.2-1.5-16.3-2.3
			c-0.5-0.1-0.9-0.1-1.3-0.1c-2,0-2.9,0.9-3.1,1.1c-0.5,1-2.2,4.2-4.4,7.9c-4.2,7.1-10.8,7.8-16.6,5.5c-0.6-0.3-38.8-22.7-43.1-25.3
			c-1.5-1.1-3.8-1.1-4.8-0.5c-0.2,0.1-4,2.6-7.8,4.5c-3.6,2.1-9.3,0.2-10.8-1.1l-36-25.8c-4.2-3-4.3-8.2-4.4-8.3l-0.5-13
			c-0.1-1.5-0.8-3.3-2.2-5.4c-1.3-2-5.4-4-7.8-4.9c-1.1-0.3-16.6-4.6-17.4-4.9C21.5,57,8.6,53.5,6,44.1c-1.9-6-0.1-14.3,2.1-17.9
			l6.6-12.8c5.2-7.8,12.7-8.3,18.5-7.5c0.1,0,36.1,4.9,38,5.2c8.3,1.2,9.1,8,9.2,8.4c0,0.1,0.2,2.3,0.6,9.4c0.2,4.8,4.5,5.8,5,6
			c0.4,0.1,38.4,8.6,44,10c2.1,0.5,9.1,2.5,11.6,8.2c1,2.2,1.5,5.7-0.9,10.3c-4,7.7-12.7,7.4-18.5,4.5c-0.6-0.4-9-6.1-13.1-9.2
			c-2.6-1.9-4.7-2-6.5-1.9l-6.4,0.6c-4.3,0.6-9.3-2.6-10-3.2c-1.6-1.1-38.1-25.6-46.4-30.8c-4.5-3.1-9.5-2.3-11.7,0.3
			c-2.1,2.3-2.7,5.6-1.8,9.3c0.9,3.9,8.2,8,12.5,9.7c21.8,8.3,72,27.3,92.3,35.3c6,2.3,10.8,5.3,11.4,5.6
			c0.9,0.5,18.5,9.5,29.7,14.2c4.4,1.9,6.7,2.7,6.9,2.8L203.5,107.9z M206.8,120.3c0.7-3.5-0.6-5.3-5.2-7c-1-0.3-24.3-7.8-24.4-7.8
			c-0.1-0.1-2.7-1-7.2-2.9c-11.6-4.9-29.9-14.3-30.2-14.4c-0.2-0.1-5-3.1-10.8-5.3c-20-7.9-70.6-27-92.2-35.2
			c-1.5-0.6-14.2-5.6-16-13.7c-2.1-9.1,2.3-18.2,12.9-18.6c2.8,0,5.8,0.8,9.1,3c8.3,5.4,46.1,30.7,46.4,30.9
			c0.2,0.2,2.9,2.3,5.8,2.3c0.5,0,6.6-0.6,6.6-0.6c3-0.2,6.5-0.1,10.7,3c3.7,2.9,11.4,8.2,12.3,8.7c2.8,1.4,8.6,2.5,10.8-2.1
			c1.1-2,1.4-3.8,0.7-5.3c-1.1-2.6-4.9-4.3-7.8-5c-5.7-1.4-43.6-9.9-43.9-10c-3.1-0.6-9.1-3.8-9.4-11.2c-0.2-6.2-0.5-8.5-0.5-9
			c-0.1-0.6-0.7-2.9-4.5-3.6c-1.2-0.1-38.4-5.4-40.5-5.3c-2.9,0-7.5,0.7-10.2,4.9c-0.2,0.3-6.2,12.1-6.6,12.7
			c-1.5,2.5-3,9.1-1.5,13.6c1.5,5.2,9.2,8.3,12.2,9.1l17.6,4.9c0.9,0.3,7.9,2.8,10.7,7.1c1.9,2.9,2.9,5.6,3.1,8.1l0.6,13.2
			c0,0,0.1,2.7,2,4c1.8,1.3,35.4,25.4,35.6,25.7c1,0.6,3.8,1.6,5.3,0.7c3.5-1.8,7.1-4,7.3-4.2c2.8-1.8,7.4-1.9,10.8,0.3
			c4.2,2.5,40,23.5,42.6,25.1c3,1.2,6.8,1.1,9.2-3.2s4.3-7.9,4.4-8c1.4-2.3,5.8-4.7,10.2-3.8c4.9,0.8,15.2,2.1,15.9,2.2
			C200.9,124.1,205.8,124,206.8,120.3"/>
	</g>
	<g>
		<g>
			<g>
				<g>
					<path class="st1" d="M114.1,95.1h-6.2c-1.6,0-2.8-1.3-2.8-2.8V88c0-1.6,1.3-2.8,2.8-2.8h6.2c1.6,0,2.8,1.3,2.8,2.8v4.2
						C116.9,93.8,115.7,95.1,114.1,95.1z"/>
					<g>
						<path class="st2" d="M109.4,89.1V90h1.6v0.8h-1.6v1.6h-1v-3.6c0-0.6,0.3-0.9,0.9-0.9h1.8l-0.1,0.8h-1.3
							C109.5,88.8,109.4,88.9,109.4,89.1z"/>
						<path class="st2" d="M111.7,91.4V88h1v3.3c0,0.3,0.1,0.4,0.4,0.4h1.3l-0.1,0.8h-1.4C112,92.5,111.7,92.1,111.7,91.4z"/>
					</g>
					<g>
						<polygon class="st1" points="121.4,69.9 120.5,69.5 113.2,85.8 114.1,86.1 						"/>
						<g>
							
								<rect x="123.6" y="67.3" transform="matrix(0.4108 -0.9117 0.9117 0.4108 7.9585 155.21)" class="st1" width="1" height="8.2"/>
							<path id="Shape_00000065764410594641705710000012851787520307324863_" class="st1" d="M127.9,74.3l-1.6,0.2
								c-0.2,0-0.4-0.2-0.3-0.3l0.7-1.5l0.7-1.5c0.1-0.2,0.3-0.2,0.4,0l0.9,1.3l0.9,1.3c0.1,0.2,0.1,0.4-0.2,0.4L127.9,74.3z"/>
						</g>
					</g>
				</g>
				<g>
					<path class="st3" d="M100.1,95.1H80c-1.6,0-2.8-1.3-2.8-2.8V88c0-1.6,1.3-2.8,2.8-2.8h20.1c1.6,0,2.8,1.3,2.8,2.8v4.2
						C102.9,93.8,101.6,95.1,100.1,95.1z"/>
					<circle class="st1" cx="82.5" cy="90.2" r="3.5"/>
					<circle class="st4" cx="90.5" cy="90.1" r="3.5"/>
					<g>
						<g>
							<g>
								<defs>
									<circle id="SVGID_1_" cx="98.1" cy="90.2" r="3.5"/>
								</defs>
								<clipPath id="SVGID_00000051353948453489091480000009703608648645714586_">
									<use xlink:href="#SVGID_1_"  style="overflow:visible;"/>
								</clipPath>
								<g style="clip-path:url(#SVGID_00000051353948453489091480000009703608648645714586_);">
									<rect x="89.9" y="83.8" class="st2" width="1.8" height="1.8"/>
									<rect x="91.8" y="83.8" class="st6" width="1.8" height="1.8"/>
									<rect x="93.6" y="83.8" class="st2" width="1.8" height="1.8"/>
									<rect x="95.4" y="83.8" class="st6" width="1.8" height="1.8"/>
									<rect x="97.2" y="83.8" class="st2" width="1.8" height="1.8"/>
									<rect x="99.1" y="83.8" class="st6" width="1.8" height="1.8"/>
									<rect x="100.9" y="83.8" class="st2" width="1.8" height="1.8"/>
									<rect x="102.7" y="83.8" class="st6" width="1.8" height="1.8"/>
									<rect x="89.9" y="85.6" class="st6" width="1.8" height="1.8"/>
									<rect x="91.8" y="85.6" class="st2" width="1.8" height="1.8"/>
									<rect x="93.6" y="85.6" class="st6" width="1.8" height="1.8"/>
									<rect x="95.4" y="85.6" class="st2" width="1.8" height="1.8"/>
									<rect x="97.2" y="85.6" class="st6" width="1.8" height="1.8"/>
									<rect x="99.1" y="85.6" class="st2" width="1.8" height="1.8"/>
									<rect x="100.9" y="85.6" class="st6" width="1.8" height="1.8"/>
									<rect x="102.7" y="85.6" class="st2" width="1.8" height="1.8"/>
									<rect x="89.9" y="87.4" class="st2" width="1.8" height="1.8"/>
									<rect x="91.8" y="87.4" class="st6" width="1.8" height="1.8"/>
									<rect x="93.6" y="87.4" class="st2" width="1.8" height="1.8"/>
									<rect x="95.4" y="87.4" class="st6" width="1.8" height="1.8"/>
									<rect x="97.2" y="87.4" class="st2" width="1.8" height="1.8"/>
									<rect x="99.1" y="87.4" class="st6" width="1.8" height="1.8"/>
									<rect x="100.9" y="87.4" class="st2" width="1.8" height="1.8"/>
									<rect x="102.7" y="87.4" class="st6" width="1.8" height="1.8"/>
									<rect x="89.9" y="89.3" class="st6" width="1.8" height="1.8"/>
									<rect x="91.8" y="89.3" class="st2" width="1.8" height="1.8"/>
									<rect x="93.6" y="89.3" class="st6" width="1.8" height="1.8"/>
									<rect x="95.4" y="89.3" class="st2" width="1.8" height="1.8"/>
									<rect x="97.2" y="89.3" class="st6" width="1.8" height="1.8"/>
									<rect x="99.1" y="89.3" class="st2" width="1.8" height="1.8"/>
									<rect x="100.9" y="89.3" class="st6" width="1.8" height="1.8"/>
									<rect x="102.7" y="89.3" class="st2" width="1.8" height="1.8"/>
									<rect x="89.9" y="91.1" class="st2" width="1.8" height="1.8"/>
									<rect x="91.8" y="91.1" class="st6" width="1.8" height="1.8"/>
									<rect x="93.6" y="91.1" class="st2" width="1.8" height="1.8"/>
									<rect x="95.4" y="91.1" class="st6" width="1.8" height="1.8"/>
									<rect x="97.2" y="91.1" class="st2" width="1.8" height="1.8"/>
									<rect x="99.1" y="91.1" class="st6" width="1.8" height="1.8"/>
									<rect x="100.9" y="91.1" class="st2" width="1.8" height="1.8"/>
									<rect x="102.7" y="91.1" class="st6" width="1.8" height="1.8"/>
									<rect x="89.9" y="92.9" class="st6" width="1.8" height="1.8"/>
									<rect x="91.8" y="92.9" class="st2" width="1.8" height="1.8"/>
									<rect x="93.6" y="92.9" class="st6" width="1.8" height="1.8"/>
									<rect x="95.4" y="92.9" class="st2" width="1.8" height="1.8"/>
									<rect x="97.2" y="92.9" class="st6" width="1.8" height="1.8"/>
									<rect x="99.1" y="92.9" class="st2" width="1.8" height="1.8"/>
									<rect x="100.9" y="92.9" class="st6" width="1.8" height="1.8"/>
									<rect x="102.7" y="92.9" class="st2" width="1.8" height="1.8"/>
									<rect x="89.9" y="94.7" class="st2" width="1.8" height="1.8"/>
									<rect x="91.8" y="94.7" class="st6" width="1.8" height="1.8"/>
									<rect x="93.6" y="94.7" class="st2" width="1.8" height="1.8"/>
									<rect x="95.4" y="94.7" class="st6" width="1.8" height="1.8"/>
									<rect x="97.2" y="94.7" class="st2" width="1.8" height="1.8"/>
									<rect x="99.1" y="94.7" class="st6" width="1.8" height="1.8"/>
									<rect x="100.9" y="94.7" class="st2" width="1.8" height="1.8"/>
									<rect x="102.7" y="94.7" class="st6" width="1.8" height="1.8"/>
									<rect x="89.9" y="96.6" class="st6" width="1.8" height="1.8"/>
									<rect x="91.8" y="96.6" class="st2" width="1.8" height="1.8"/>
									<rect x="93.6" y="96.6" class="st6" width="1.8" height="1.8"/>
									<rect x="95.4" y="96.6" class="st2" width="1.8" height="1.8"/>
									<rect x="97.2" y="96.6" class="st6" width="1.8" height="1.8"/>
									<rect x="99.1" y="96.6" class="st2" width="1.8" height="1.8"/>
									<rect x="100.9" y="96.6" class="st6" width="1.8" height="1.8"/>
									<rect x="102.7" y="96.6" class="st2" width="1.8" height="1.8"/>
								</g>
							</g>
						</g>
						<g>
							<circle id="SVGID_00000081626722910048823450000009398272281877020083_" class="st7" cx="98.1" cy="90.2" r="3.5"/>
						</g>
					</g>
				</g>
			</g>
			<g>
				<path class="st1" d="M130.7,61.3h-6.2c-1.6,0-2.8-1.3-2.8-2.8v-4.2c0-1.6,1.3-2.8,2.8-2.8h6.2c1.6,0,2.8,1.3,2.8,2.8v4.2
					C133.5,60.1,132.3,61.3,130.7,61.3z"/>
				<g>
					<path class="st2" d="M125.5,53.7h1v0.9h-1V53.7z M125.6,55h0.9v3.5h-0.9V55z"/>
					<path class="st2" d="M127.1,57.1h1c0,0.4,0.2,0.7,0.6,0.7c0.4,0,0.6-0.2,0.6-0.6c0-0.4-0.2-0.6-0.7-0.6h-0.4v-0.7h0.3
						c0.4,0,0.6-0.2,0.6-0.6c0-0.3-0.2-0.5-0.5-0.5c-0.4,0-0.6,0.2-0.6,0.7l0,0h-1l0,0c0-1,0.5-1.5,1.6-1.5c0.9,0,1.5,0.5,1.5,1.2
						c0,0.5-0.2,0.8-0.5,0.9c0.5,0.2,0.7,0.5,0.7,1c0,0.8-0.6,1.4-1.6,1.4C127.6,58.6,127.1,58,127.1,57.1z"/>
				</g>
				<path class="st1" d="M124.1,55.6c0.1,0.2,0.1,0.4-0.1,0.5l-6.9,10.8c-0.1,0.2-0.4,0.2-0.7,0.2c-0.2-0.1-0.2-0.4-0.2-0.7
					l6.9-10.8c0.1-0.2,0.4-0.2,0.7-0.2C124,55.5,124,55.5,124.1,55.6z"/>
			</g>
			<g>
				<path class="st1" d="M25.4,71h-6.2c-1.6,0-2.8-1.3-2.8-2.8V64c0-1.6,1.3-2.8,2.8-2.8h6.2c1.6,0,2.8,1.3,2.8,2.8v4.2
					C28.3,69.7,27,71,25.4,71z"/>
				<g>
					<path class="st2" d="M20.3,63.3h1v0.9h-1V63.3z M20.3,64.6h0.9v3.5h-0.9V64.6z"/>
					<path class="st2" d="M21.9,67.3c0-0.7,0.3-1.1,0.9-1.4l0.2-0.1c0.7-0.3,0.9-0.5,0.9-0.9c0-0.3-0.2-0.6-0.5-0.6
						c-0.4,0-0.6,0.3-0.6,0.8v0.1h-1v-0.1c0-1.1,0.5-1.6,1.6-1.6c0.9,0,1.5,0.5,1.5,1.4c0,0.7-0.3,1.1-1.1,1.5l-0.2,0.1
						c-0.6,0.2-0.8,0.4-0.8,0.8v0.1h2.1l-0.1,0.8h-2.9V67.3z"/>
				</g>
				<path class="st1" d="M26,62C26,62,25.9,61.9,26,62c-0.3-0.3-0.2-0.5,0-0.8l5.2-11.6c0.2-0.2,0.5-0.2,0.7,0.1
					c0.2,0.2,0.1,0.5-0.1,0.7L26.6,62C26.4,62,26.1,62.1,26,62z"/>
			</g>
			<g>
				<path class="st1" d="M141.7,151.9h-6.2c-1.6,0-2.8-1.3-2.8-2.8v-4.2c0-1.6,1.3-2.8,2.8-2.8h6.2c1.6,0,2.8,1.3,2.8,2.8v4.2
					C144.6,150.6,143.3,151.9,141.7,151.9z"/>
				<g>
					<path class="st2" d="M136.5,144.2h1v0.9h-1V144.2z M136.6,145.5h0.9v3.5h-0.9V145.5z"/>
					<path class="st2" d="M141.3,148.2l-0.2,0.8h-2.8v-0.8h1.1v-2.7l-1.1,0.5v-0.8l1.4-0.6h0.7v3.6H141.3z"/>
				</g>
				<path class="st1" d="M143.2,145.9c-0.2-0.2-0.2-0.5,0-0.7l10-15.5c0.2-0.2,0.5-0.2,0.7,0s0.2,0.5,0,0.7l-10,15.5
					C143.7,146.2,143.4,146.2,143.2,145.9z"/>
			</g>
			<g>
				<path class="st1" d="M162.8,119.2h-6.2c-1.6,0-2.8-1.3-2.8-2.8v-4.2c0-1.6,1.3-2.8,2.8-2.8h6.2c1.6,0,2.8,1.3,2.8,2.8v4.2
					C165.6,117.9,164.3,119.2,162.8,119.2z"/>
				<g>
					<path class="st2" d="M158.1,115.2V115h1v0.1c0,0.4,0.2,0.6,0.5,0.6s0.5-0.2,0.5-0.4c0-0.3-0.1-0.4-0.5-0.5l-0.4-0.1
						c-0.6-0.2-1.2-0.5-1.2-1.3s0.6-1.3,1.5-1.3c1,0,1.5,0.5,1.5,1.4v0.1h-1v-0.2c0-0.4-0.2-0.6-0.5-0.6s-0.4,0.2-0.4,0.4
						c0,0.4,0.4,0.5,0.8,0.7h0.1c0.5,0.2,1.2,0.5,1.2,1.3c0,0.7-0.5,1.4-1.6,1.4C158.7,116.6,158.1,116.1,158.1,115.2z"/>
				</g>
				<path class="st1" d="M161.9,110.2c-0.3-0.1-0.4-0.4-0.3-0.7l7.2-16.7c0.1-0.3,0.4-0.4,0.7-0.3s0.4,0.4,0.3,0.7l-7.2,16.7
					C162.4,110.3,162,110.3,161.9,110.2z"/>
			</g>
		</g>
	</g>
	<path class="st8" d="M218.5,124.7v-0.6h1.1v-3.1h0l-1,0.3l-0.1-0.6l1.3-0.4h0.7v3.9h1v0.6H218.5z"/>
	<path class="st8" d="M181.7,136.3v-0.8c0-0.9,0.3-1.3,1-1.6l0.5-0.1c0.4-0.1,0.6-0.3,0.6-0.8v0c0-0.5-0.3-0.7-0.8-0.7
		c-0.4,0-0.8,0.1-1.1,0.3l-0.2-0.6c0.3-0.2,0.8-0.3,1.4-0.3c0.9,0,1.5,0.4,1.5,1.3v0.1c0,0.8-0.3,1.1-0.9,1.3l-0.5,0.2
		c-0.5,0.1-0.7,0.4-0.7,0.8v0.3h2.1v0.6H181.7z"/>
	<path class="st8" d="M162.1,151.1l0.1-0.6c0.3,0.1,0.7,0.2,1.2,0.2c0.6,0,0.8-0.2,0.8-0.7v-0.1c0-0.5-0.3-0.7-0.9-0.7h-0.5v-0.6
		h0.4c0.6,0,0.9-0.2,0.9-0.7v0c0-0.4-0.3-0.6-0.7-0.6c-0.4,0-0.8,0.1-1.1,0.3l-0.2-0.6c0.3-0.2,0.8-0.3,1.4-0.3
		c0.8,0,1.4,0.3,1.4,1.1v0.1c0,0.5-0.2,0.9-0.7,1v0c0.5,0.1,0.8,0.4,0.8,1.1v0.1c0,0.9-0.5,1.3-1.6,1.3
		C162.9,151.3,162.4,151.2,162.1,151.1z"/>
	<path class="st8" d="M111.5,124.7v-0.9h-2.2v-0.5l1.6-3.1h0.8l-1.5,2.9h1.3v-1.3h0.8v1.3h0.5v0.7h-0.5v0.9H111.5z"/>
	<path class="st8" d="M97.1,130.3L97.1,130.3c0,1.1-0.6,1.5-1.6,1.5c-0.6,0-1.1-0.1-1.5-0.4l0.2-0.6c0.4,0.2,0.8,0.3,1.2,0.3
		c0.6,0,0.8-0.2,0.8-0.8v-0.1c0-0.6-0.3-0.8-0.9-0.8c-0.3,0-0.7,0-1,0.1l-0.2-0.2l0.2-2.2h2.4v0.6h-1.7L95,129c0.2,0,0.4,0,0.5,0
		C96.6,129,97.1,129.4,97.1,130.3z"/>
	<path class="st8" d="M50.2,101.2L50.2,101.2c0,1.1-0.5,1.5-1.5,1.5c-1.2,0-1.6-0.6-1.6-2.1v-0.3c0-1.8,0.7-2.3,1.8-2.3
		c0.5,0,0.8,0.1,1.1,0.2l-0.1,0.6c-0.2-0.1-0.6-0.2-0.9-0.2c-0.7,0-1,0.3-1,1.2c0.3,0,0.6-0.1,0.9-0.1
		C49.7,99.8,50.2,100.2,50.2,101.2z M49.4,101.2c0-0.6-0.2-0.8-0.7-0.8c-0.3,0-0.6,0-0.8,0.1v0.1c0,1.1,0.1,1.5,0.8,1.5
		C49.2,102.1,49.4,101.8,49.4,101.2L49.4,101.2z"/>
	<path class="st8" d="M41.1,73.3l1.9-3.9h-2.2v-0.6h3.1v0.5l-1.9,4H41.1z"/>
	<path class="st8" d="M3.2,52.5L3.2,52.5c0,0.9-0.5,1.3-1.6,1.3c-1.1,0-1.6-0.4-1.6-1.3v0c0-0.5,0.2-0.9,0.7-1.1
		c-0.4-0.2-0.5-0.5-0.5-1v0c0-0.8,0.5-1.2,1.5-1.2c0.9,0,1.5,0.4,1.5,1.2v0.1c0,0.5-0.2,0.8-0.5,1C3,51.6,3.2,51.9,3.2,52.5z
		 M2.4,52.4c0-0.5-0.2-0.7-0.8-0.7H1.6c-0.5,0-0.8,0.2-0.8,0.7v0c0,0.5,0.2,0.7,0.8,0.7C2.2,53.2,2.4,53,2.4,52.4L2.4,52.4z
		 M0.9,50.4c0,0.4,0.2,0.7,0.7,0.7h0.1c0.5,0,0.7-0.2,0.7-0.7v0c0-0.4-0.2-0.6-0.7-0.6C1.1,49.8,0.9,50,0.9,50.4L0.9,50.4z"/>
	<path class="st8" d="M15.4,1.9v0.6c0,1.5-0.4,2.2-1.7,2.2c-0.5,0-0.9-0.1-1.2-0.2l0.1-0.6C12.9,4,13.3,4,13.7,4
		c0.6,0,0.9-0.3,0.9-1.1c-0.2,0-0.5,0.1-0.8,0.1c-1.1,0-1.5-0.4-1.5-1.4V1.5c0-1,0.6-1.5,1.6-1.5C15,0,15.4,0.5,15.4,1.9z M13.1,1.5
		c0,0.6,0.2,0.8,0.8,0.8c0.3,0,0.6,0,0.8-0.1V2c0-1-0.1-1.4-0.8-1.4C13.3,0.6,13.1,0.9,13.1,1.5L13.1,1.5z"/>
	<g>
		<path class="st8" d="M82.7,11.3v-0.6h1.1V7.5h0l-1,0.3l-0.1-0.6l1.3-0.4h0.7v3.9h1v0.6H82.7z"/>
		<path class="st8" d="M86.6,11c-0.3-0.3-0.5-0.8-0.5-1.9V8.9c0-1,0.1-1.5,0.4-1.8c0.3-0.3,0.6-0.4,1.2-0.4c0.6,0,1,0.1,1.2,0.4
			c0.3,0.3,0.4,0.8,0.4,1.8v0.2c0,1.1-0.1,1.5-0.4,1.8c-0.3,0.3-0.7,0.4-1.2,0.4C87.2,11.3,86.9,11.2,86.6,11z M88.4,10.5
			c0.2-0.2,0.2-0.6,0.2-1.4V8.9c0-0.8,0-1.2-0.2-1.4c-0.1-0.2-0.3-0.2-0.6-0.2c-0.3,0-0.5,0.1-0.6,0.2c-0.2,0.2-0.2,0.6-0.2,1.4V9
			c0,0.8,0,1.2,0.2,1.4c0.1,0.1,0.3,0.2,0.6,0.2C88.1,10.7,88.3,10.6,88.4,10.5z"/>
	</g>
	<g>
		<path class="st8" d="M87.2,29.8v-0.6h1.1v-3.1h0l-1,0.3l-0.1-0.6l1.3-0.4h0.7v3.9h1v0.6H87.2z"/>
		<path class="st8" d="M91,29.8v-0.6h1.1v-3.1h0l-1,0.3l-0.1-0.6l1.3-0.4h0.7v3.9h1v0.6H91z"/>
	</g>
	<g>
		<path class="st8" d="M146.3,62.6v-0.6h1.1v-3.1h0l-1,0.3l-0.1-0.6l1.3-0.4h0.7v3.9h1v0.6H146.3z"/>
		<path class="st8" d="M149.9,62.6v-0.8c0-0.9,0.3-1.3,1-1.6l0.5-0.1c0.4-0.1,0.6-0.3,0.6-0.8v0c0-0.5-0.3-0.7-0.8-0.7
			c-0.4,0-0.8,0.1-1.1,0.3l-0.2-0.6c0.3-0.2,0.8-0.3,1.4-0.3c0.9,0,1.5,0.4,1.5,1.3v0.1c0,0.8-0.3,1.1-0.9,1.3l-0.5,0.2
			c-0.5,0.1-0.7,0.4-0.7,0.8v0.3h2.1v0.6H149.9z"/>
	</g>
	<g>
		<path class="st8" d="M99.7,63.8v-0.6h1.1v-3.1h0l-1,0.3l-0.1-0.6l1.3-0.4h0.7v3.9h1v0.6H99.7z"/>
		<path class="st8" d="M103.2,63.7l0.1-0.6c0.3,0.1,0.7,0.2,1.2,0.2c0.6,0,0.8-0.2,0.8-0.7v-0.1c0-0.5-0.3-0.7-0.9-0.7H104v-0.6h0.4
			c0.6,0,0.9-0.2,0.9-0.7v0c0-0.4-0.3-0.6-0.7-0.6c-0.4,0-0.8,0.1-1.1,0.3l-0.2-0.6c0.3-0.2,0.8-0.3,1.4-0.3c0.8,0,1.4,0.3,1.4,1.1
			v0.1c0,0.5-0.2,0.9-0.7,1v0c0.5,0.1,0.8,0.4,0.8,1.1v0.1c0,0.9-0.5,1.3-1.6,1.3C104,63.9,103.5,63.8,103.2,63.7z"/>
	</g>
	<g>
		<path class="st8" d="M92.7,49.1v-0.6h1.1v-3.1h0l-1,0.3L92.6,45l1.3-0.4h0.7v3.9h1v0.6H92.7z"/>
		<path class="st8" d="M98.3,49.1v-0.9h-2.2v-0.5l1.6-3.1h0.8L97,47.5h1.3v-1.3h0.8v1.3h0.5v0.7h-0.5v0.9H98.3z"/>
	</g>
</g>
</svg>
