<?xml version="1.0" encoding="utf-8"?>
<!-- Generator: Adobe Illustrator 26.4.1, SVG Export Plug-In . SVG Version: 6.00 Build 0)  -->
<svg version="1.1" id="Capa_1" xmlns="http://www.w3.org/2000/svg" xmlns:xlink="http://www.w3.org/1999/xlink" x="0px" y="0px"
	 viewBox="0 0 225.7 126.2" style="enable-background:new 0 0 225.7 126.2;" xml:space="preserve">
<style type="text/css">
	.st0{fill:#9E9FA2;}
	.st1{fill:#C80502;}
	.st2{fill:#FFFFFF;}
	.st3{fill:#171C21;}
	.st4{fill:#00B753;}
	.st5{clip-path:url(#SVGID_00000082364055219790086410000010612627379872767152_);}
	.st6{fill:#1D1D1B;}
	.st7{fill:none;stroke:#939393;stroke-width:0.25;stroke-miterlimit:10;}
</style>
<g>
	<g>
		<path class="st0" d="M215.5,30.2c1.9-2.3,2.5-5.5,2-9c-1.3-8.4-9.4-7.8-13.8-7.5c-2.6,0.2-7.9,0.8-15.6,1.6
			c-9.8,1.1-22.7,2.5-38.1,4c-29.3,2.7-87,1.6-104.6,0.8c-10.5,0-14.3,3-15.4,11.5c-0.7,5.5-13.6,65.1-17.4,83.4
			c-1.3,5.9-1.1,10.9,4.7,11.2c10.3-1.4,38.5-10.8,64.3-18.8c13.6-4.6,15.5-6.2,21-12.1c7.2-8.9,18.8-9.8,29.1-1.7
			c9.9,8,23.4-3.4,19.1-14.3c-0.6-1.5-1.4-3.3-2.1-5c-4.2-10.4-7.4-17.9-10.5-20.7c-2.7-4.3-30.1,0.6-42.6,1.8
			c-13.3,1.2-16.3,2-22.4,6.4c-5.7,3.9-6,6.1-7.7,14.8C64,88.2,59.8,96,46.3,93.5c-7.3-1.3-7.9-1.8-8.4-4.7
			c-0.5-4.2,7.9-13.6,10.9-18.8c2.1-3.2,3.8-6.1,5.1-8.2C61.2,49.7,62.8,47.2,78,46c18.2-1.4,96.9-8.4,126.3-11
			C209.5,34.6,213.3,33,215.5,30.2z M176.4,31.8c-29.5,2.6-84.5,7.4-98.9,8.6C59.4,41.8,56.6,46.5,49,58.9c-2.4,4.1-6.8,11-9.8,15.1
			c-4.4,6.4-7.6,10.9-6.8,15.7c1.2,7.3,6.1,8.2,12.9,9.4c16.8,3,24-6.7,25.9-21.9c1.5-8,1.6-8.2,5.3-10.8c4.9-3.5,6.3-4.2,19.6-5.4
			c9.4-0.8,34.1-4.9,38.2-3.3l0.2,0.1c2.2,1.8,5.9,11,9.2,19.1c0.7,1.7,1.3,3.2,1.9,4.6c1.2,2.8-0.5,6-2.6,7.7
			c-1.2,0.9-4.2,2.6-7.8-0.1c-11.9-9.2-26.1-8.9-35.3,0.9c-6.1,6.5-6.1,7.4-20,12.1c-25,7.9-54.2,17-62.3,18.5
			c0-1.4,0.2-2.5,0.6-4.3C22.3,96.6,36,32.5,35.7,32.4c0.6-4.4,1.2-6.5,9.3-6.5c17.8,0.8,76,1.9,105.6-0.8c21.1-2,37.4-4.1,53.4-5.6
			c6.6-0.5,7.4,0.5,7.8,2.7c0.7,5.4-2.5,6.8-8.1,7.4C201,29.6,190.4,30.6,176.4,31.8z"/>
	</g>
	<g>
		<g>
			<path class="st1" d="M167.9,9.8h-6.2c-1.6,0-2.8-1.3-2.8-2.8V2.8c0-1.6,1.3-2.8,2.8-2.8h6.2c1.6,0,2.8,1.3,2.8,2.8V7
				C170.7,8.5,169.4,9.8,167.9,9.8z"/>
			<g>
				<path class="st2" d="M163.2,5.8V5.6h1v0.1c0,0.4,0.2,0.6,0.5,0.6s0.5-0.2,0.5-0.4c0-0.3-0.1-0.4-0.5-0.5l-0.4-0.1
					c-0.6-0.2-1.2-0.5-1.2-1.3s0.6-1.3,1.5-1.3c1,0,1.5,0.5,1.5,1.4v0.1h-1V4c0-0.4-0.2-0.6-0.5-0.6s-0.4,0.2-0.4,0.4
					c0,0.4,0.4,0.5,0.8,0.7h0.1c0.5,0.2,1.2,0.5,1.2,1.3c0,0.7-0.5,1.4-1.6,1.4C163.8,7.2,163.2,6.7,163.2,5.8z"/>
			</g>
		</g>
		<g>
			<g>
				<path class="st1" d="M9,85.7H2.8c-1.6,0-2.8-1.3-2.8-2.8v-4.3c0-1.6,1.3-2.8,2.8-2.8H9c1.6,0,2.8,1.3,2.8,2.8v4.2
					C11.8,84.4,10.6,85.7,9,85.7z"/>
				<g>
					<path class="st2" d="M4.3,79.7v0.9h1.6v0.8H4.3V83h-1v-3.6c0-0.6,0.3-0.9,0.9-0.9H6l-0.1,0.8H4.6C4.4,79.4,4.3,79.5,4.3,79.7z"
						/>
					<path class="st2" d="M6.6,82v-3.4h1v3.3c0,0.3,0.1,0.4,0.4,0.4h1.3l-0.1,0.8H7.8C6.9,83.1,6.6,82.7,6.6,82z"/>
				</g>
				<g>
					<polygon class="st1" points="28.8,84.6 28.5,85.6 12,81.2 12.2,80.2 					"/>
					
						<rect x="25" y="80.8" transform="matrix(0.2311 -0.9729 0.9729 0.2311 -56.7359 90.8577)" class="st1" width="8.2" height="1"/>
					<path id="Shape_17_" class="st1" d="M31.1,76.9l0.4,1.6c0,0.2-0.1,0.4-0.2,0.3l-1.5-0.4l-1.6-0.3C28,78,28,77.9,28.1,77.6
						l1.1-1.2l1.1-1.2c0.2-0.1,0.4-0.1,0.4,0.1L31.1,76.9z"/>
				</g>
			</g>
			<g>
				<path class="st3" d="M0.9,111.7V91.6c0-1.6,1.3-2.8,2.8-2.8H8c1.6,0,2.8,1.3,2.8,2.8v20.1c0,1.6-1.3,2.8-2.8,2.8H3.8
					C2.2,114.5,0.9,113.2,0.9,111.7z"/>
				<circle class="st1" cx="5.8" cy="94.1" r="3.5"/>
				<circle class="st4" cx="5.9" cy="102.1" r="3.5"/>
				<g>
					<g>
						<g>
							<g>
								<g>
									<defs>
										<circle id="SVGID_00000013874546964075114130000011900148703796043953_" cx="5.8" cy="109.7" r="3.5"/>
									</defs>
									<clipPath id="SVGID_00000035524507408441722400000006551597644068616606_">
										<use xlink:href="#SVGID_00000013874546964075114130000011900148703796043953_"  style="overflow:visible;"/>
									</clipPath>
									<g style="clip-path:url(#SVGID_00000035524507408441722400000006551597644068616606_);">
										<rect x="10.4" y="101.5" class="st2" width="1.8" height="1.8"/>
										<rect x="10.4" y="103.4" class="st6" width="1.8" height="1.8"/>
										<rect x="10.4" y="105.2" class="st2" width="1.8" height="1.8"/>
										<rect x="10.4" y="107" class="st6" width="1.8" height="1.8"/>
										<rect x="10.4" y="108.8" class="st2" width="1.8" height="1.8"/>
										<rect x="10.4" y="110.7" class="st6" width="1.8" height="1.8"/>
										<rect x="10.4" y="112.5" class="st2" width="1.8" height="1.8"/>
										<rect x="10.4" y="114.3" class="st6" width="1.8" height="1.8"/>
										<rect x="8.6" y="101.5" class="st6" width="1.8" height="1.8"/>
										<rect x="8.6" y="103.4" class="st2" width="1.8" height="1.8"/>
										<rect x="8.6" y="105.2" class="st6" width="1.8" height="1.8"/>
										<rect x="8.6" y="107" class="st2" width="1.8" height="1.8"/>
										<rect x="8.6" y="108.8" class="st6" width="1.8" height="1.8"/>
										<rect x="8.6" y="110.7" class="st2" width="1.8" height="1.8"/>
										<rect x="8.6" y="112.5" class="st6" width="1.8" height="1.8"/>
										<rect x="8.6" y="114.3" class="st2" width="1.8" height="1.8"/>
										<rect x="6.8" y="101.5" class="st2" width="1.8" height="1.8"/>
										<rect x="6.8" y="103.4" class="st6" width="1.8" height="1.8"/>
										<rect x="6.8" y="105.2" class="st2" width="1.8" height="1.8"/>
										<rect x="6.8" y="107" class="st6" width="1.8" height="1.8"/>
										<rect x="6.8" y="108.8" class="st2" width="1.8" height="1.8"/>
										<rect x="6.8" y="110.7" class="st6" width="1.8" height="1.8"/>
										<rect x="6.8" y="112.5" class="st2" width="1.8" height="1.8"/>
										<rect x="6.8" y="114.3" class="st6" width="1.8" height="1.8"/>
										<rect x="4.9" y="101.5" class="st6" width="1.8" height="1.8"/>
										<rect x="4.9" y="103.4" class="st2" width="1.8" height="1.8"/>
										<rect x="4.9" y="105.2" class="st6" width="1.8" height="1.8"/>
										<rect x="4.9" y="107" class="st2" width="1.8" height="1.8"/>
										<rect x="4.9" y="108.8" class="st6" width="1.8" height="1.8"/>
										<rect x="4.9" y="110.7" class="st2" width="1.8" height="1.8"/>
										<rect x="4.9" y="112.5" class="st6" width="1.8" height="1.8"/>
										<rect x="4.9" y="114.3" class="st2" width="1.8" height="1.8"/>
										<rect x="3.1" y="101.5" class="st2" width="1.8" height="1.8"/>
										<rect x="3.1" y="103.4" class="st6" width="1.8" height="1.8"/>
										<rect x="3.1" y="105.2" class="st2" width="1.8" height="1.8"/>
										<rect x="3.1" y="107" class="st6" width="1.8" height="1.8"/>
										<rect x="3.1" y="108.8" class="st2" width="1.8" height="1.8"/>
										<rect x="3.1" y="110.7" class="st6" width="1.8" height="1.8"/>
										<rect x="3.1" y="112.5" class="st2" width="1.8" height="1.8"/>
										<rect x="3.1" y="114.3" class="st6" width="1.8" height="1.8"/>
										<rect x="1.3" y="101.5" class="st6" width="1.8" height="1.8"/>
										<rect x="1.3" y="103.4" class="st2" width="1.8" height="1.8"/>
										<rect x="1.3" y="105.2" class="st6" width="1.8" height="1.8"/>
										<rect x="1.3" y="107" class="st2" width="1.8" height="1.8"/>
										<rect x="1.3" y="108.8" class="st6" width="1.8" height="1.8"/>
										<rect x="1.3" y="110.7" class="st2" width="1.8" height="1.8"/>
										<rect x="1.3" y="112.5" class="st6" width="1.8" height="1.8"/>
										<rect x="1.3" y="114.3" class="st2" width="1.8" height="1.8"/>
										<rect x="-0.5" y="101.5" class="st2" width="1.8" height="1.8"/>
										<rect x="-0.5" y="103.4" class="st6" width="1.8" height="1.8"/>
										<rect x="-0.5" y="105.2" class="st2" width="1.8" height="1.8"/>
										<rect x="-0.5" y="107" class="st6" width="1.8" height="1.8"/>
										<rect x="-0.5" y="108.8" class="st2" width="1.8" height="1.8"/>
										<rect x="-0.5" y="110.7" class="st6" width="1.8" height="1.8"/>
										<rect x="-0.5" y="112.5" class="st2" width="1.8" height="1.8"/>
										<rect x="-0.5" y="114.3" class="st6" width="1.8" height="1.8"/>
										<rect x="-2.4" y="101.5" class="st6" width="1.8" height="1.8"/>
										<rect x="-2.4" y="103.4" class="st2" width="1.8" height="1.8"/>
										<rect x="-2.4" y="105.2" class="st6" width="1.8" height="1.8"/>
										<rect x="-2.4" y="107" class="st2" width="1.8" height="1.8"/>
										<rect x="-2.4" y="108.8" class="st6" width="1.8" height="1.8"/>
										<rect x="-2.4" y="110.7" class="st2" width="1.8" height="1.8"/>
										<rect x="-2.4" y="112.5" class="st6" width="1.8" height="1.8"/>
										<rect x="-2.4" y="114.3" class="st2" width="1.8" height="1.8"/>
									</g>
								</g>
							</g>
						</g>
					</g>
					<g>
						<circle id="SVGID_1_" class="st7" cx="5.8" cy="109.7" r="3.5"/>
					</g>
				</g>
			</g>
		</g>
		<g>
			<path class="st1" d="M153.3,10h-6.2c-1.6,0-2.8-1.3-2.8-2.8V3c0-1.6,1.3-2.8,2.8-2.8h6.2c1.6,0,2.8,1.3,2.8,2.8v4.2
				C156.2,8.7,154.9,10,153.3,10z"/>
			<g>
				<path class="st2" d="M148.1,2.3h1v0.9h-1V2.3z M148.2,3.6h0.9v3.5h-0.9V3.6z"/>
				<path class="st2" d="M152.9,6.3l-0.2,0.8h-2.8V6.3h1.1V3.6l-1.1,0.5V3.3l1.4-0.6h0.7v3.6C152,6.3,152.9,6.3,152.9,6.3z"/>
			</g>
			<path class="st1" d="M150.2,28.6c-0.3,0-0.4-0.3-0.4-0.6l-0.2-19.6c0-0.3,0.3-0.4,0.6-0.4s0.4,0.3,0.4,0.6l0.1,19.6
				C150.7,28.5,150.5,28.6,150.2,28.6z"/>
		</g>
		<g>
			<path class="st1" d="M38.8,66.7C38.8,66.7,38.9,66.6,38.8,66.7c0.1-0.4,0.4-0.4,0.6-0.4l13.9,7.1c0.3,0.1,0.4,0.4,0.3,0.7
				c-0.1,0.3-0.4,0.4-0.7,0.3L39,67.3C38.9,67.1,38.8,66.9,38.8,66.7z"/>
			<path class="st1" d="M60.2,81.2H54c-1.6,0-2.8-1.3-2.8-2.8v-4.2c0-1.6,1.3-2.8,2.8-2.8h6.2c1.6,0,2.8,1.3,2.8,2.8v4.2
				C63.1,79.9,61.8,81.2,60.2,81.2z"/>
			<g>
				<path class="st2" d="M55.1,73.5h1v0.9h-1V73.5z M55.1,74.8H56v3.5h-0.9V74.8z"/>
				<path class="st2" d="M56.7,77.5c0-0.7,0.3-1.1,0.9-1.4l0.2-0.1c0.7-0.3,0.9-0.5,0.9-0.9c0-0.3-0.2-0.6-0.5-0.6
					c-0.4,0-0.6,0.3-0.6,0.8v0.1h-1v-0.1c0-1.1,0.5-1.6,1.6-1.6c0.9,0,1.5,0.5,1.5,1.4c0,0.7-0.3,1.1-1.1,1.5l-0.2,0.1
					c-0.6,0.2-0.8,0.4-0.8,0.8v0.1h2.1l-0.1,0.8h-2.9C56.7,78.4,56.7,77.5,56.7,77.5z"/>
			</g>
		</g>
		<g>
			<path class="st1" d="M155.4,70c0,0.2-0.2,0.4-0.3,0.3l-15.4,4.8c-0.2,0.1-0.5,0-0.6-0.3c-0.1-0.2,0-0.5,0.3-0.6l15.4-4.8
				c0.2-0.1,0.5,0,0.6,0.3C155.4,69.9,155.4,69.9,155.4,70z"/>
			<path class="st1" d="M160.9,74.3h-6.2c-1.6,0-2.8-1.3-2.8-2.8v-4.2c0-1.6,1.3-2.8,2.8-2.8h6.2c1.6,0,2.8,1.3,2.8,2.8v4.2
				C163.7,73.1,162.5,74.3,160.9,74.3z"/>
			<g>
				<path class="st2" d="M155.7,66.7h1v0.9h-1V66.7z M155.8,68h0.9v3.5h-0.9V68z"/>
				<path class="st2" d="M157.3,70.1h1c0,0.4,0.2,0.7,0.6,0.7s0.6-0.2,0.6-0.6s-0.2-0.6-0.7-0.6h-0.4v-0.7h0.3
					c0.4,0,0.6-0.2,0.6-0.6c0-0.3-0.2-0.5-0.5-0.5c-0.4,0-0.6,0.2-0.6,0.7l0,0h-1l0,0c0-1,0.5-1.5,1.6-1.5c0.9,0,1.5,0.5,1.5,1.2
					c0,0.5-0.2,0.8-0.5,0.9c0.5,0.2,0.7,0.5,0.7,1c0,0.8-0.6,1.4-1.6,1.4C157.8,71.6,157.3,71,157.3,70.1z"/>
			</g>
		</g>
	</g>
	<g>
		<path class="st0" d="M33.1,18.1v-0.6h1.1v-3.1h0l-1,0.3L33,14l1.3-0.4H35v3.9h1v0.6H33.1z"/>
		<path class="st0" d="M136.2,15.9v-0.8c0-0.9,0.3-1.3,1-1.6l0.5-0.1c0.4-0.1,0.6-0.3,0.6-0.8v0c0-0.5-0.3-0.7-0.8-0.7
			c-0.4,0-0.8,0.1-1.1,0.3l-0.2-0.6c0.3-0.2,0.8-0.3,1.4-0.3c0.9,0,1.5,0.4,1.5,1.3v0.1c0,0.8-0.3,1.1-0.9,1.3l-0.5,0.2
			c-0.5,0.1-0.7,0.4-0.7,0.8v0.3h2.1v0.6H136.2z"/>
		<path class="st0" d="M222.7,23.8l0.1-0.6c0.3,0.1,0.7,0.2,1.2,0.2c0.6,0,0.8-0.2,0.8-0.7v-0.1c0-0.5-0.3-0.7-0.9-0.7h-0.5v-0.6
			h0.4c0.6,0,0.9-0.2,0.9-0.7v0c0-0.4-0.3-0.6-0.7-0.6c-0.4,0-0.8,0.1-1.1,0.3l-0.2-0.6c0.3-0.2,0.8-0.3,1.4-0.3
			c0.8,0,1.4,0.3,1.4,1.1v0.1c0,0.5-0.2,0.9-0.7,1v0c0.5,0.1,0.8,0.4,0.8,1.1v0.1c0,0.9-0.5,1.3-1.6,1.3
			C223.5,24,223,23.9,222.7,23.8z"/>
		<path class="st0" d="M55.5,43.5v-0.9h-2.2V42l1.6-3.1h0.8l-1.5,2.9h1.3v-1.3h0.8v1.3h0.5v0.7h-0.5v0.9H55.5z"/>
		<path class="st0" d="M31.3,99.4L31.3,99.4c0,1.1-0.6,1.5-1.6,1.5c-0.6,0-1.1-0.1-1.5-0.4l0.2-0.6c0.4,0.2,0.8,0.3,1.2,0.3
			c0.6,0,0.8-0.2,0.8-0.8v-0.1c0-0.6-0.3-0.8-0.9-0.8c-0.3,0-0.7,0-1,0.1l-0.2-0.2l0.2-2.2H31v0.6h-1.7L29.2,98c0.2,0,0.4,0,0.5,0
			C30.8,98,31.3,98.4,31.3,99.4z"/>
		<path class="st0" d="M70.2,99.4L70.2,99.4c0,1.1-0.5,1.5-1.5,1.5c-1.2,0-1.6-0.6-1.6-2.1v-0.3c0-1.8,0.7-2.3,1.8-2.3
			c0.5,0,0.8,0.1,1.1,0.2l-0.1,0.6c-0.2-0.1-0.6-0.2-0.9-0.2c-0.7,0-1,0.3-1,1.2c0.3,0,0.6-0.1,0.9-0.1C69.7,98,70.2,98.4,70.2,99.4
			z M69.4,99.4c0-0.6-0.2-0.8-0.7-0.8c-0.3,0-0.6,0-0.8,0.1v0.1c0,1.1,0.1,1.5,0.8,1.5C69.2,100.3,69.4,100.1,69.4,99.4L69.4,99.4z"
			/>
		<path class="st0" d="M78.8,73.7l1.9-3.9h-2.2v-0.6h3.1v0.5l-1.9,4H78.8z"/>
		<path class="st0" d="M145.9,51.8L145.9,51.8c0,0.9-0.5,1.3-1.6,1.3c-1.1,0-1.6-0.4-1.6-1.3v0c0-0.5,0.2-0.9,0.7-1.1
			c-0.4-0.2-0.5-0.5-0.5-1v0c0-0.8,0.5-1.2,1.5-1.2c0.9,0,1.5,0.4,1.5,1.2v0.1c0,0.5-0.2,0.8-0.5,1C145.7,51,145.9,51.3,145.9,51.8z
			 M145.1,51.8c0-0.5-0.2-0.7-0.8-0.7h-0.1c-0.5,0-0.8,0.2-0.8,0.7v0c0,0.5,0.2,0.7,0.8,0.7C144.9,52.6,145.1,52.3,145.1,51.8
			L145.1,51.8z M143.6,49.8c0,0.4,0.2,0.7,0.7,0.7h0.1c0.5,0,0.7-0.2,0.7-0.7v0c0-0.4-0.2-0.6-0.7-0.6
			C143.8,49.2,143.6,49.4,143.6,49.8L143.6,49.8z"/>
		<path class="st0" d="M153.5,97.8v0.6c0,1.5-0.4,2.2-1.7,2.2c-0.5,0-0.9-0.1-1.2-0.2l0.1-0.6c0.3,0.1,0.7,0.2,1,0.2
			c0.6,0,0.9-0.3,0.9-1.1c-0.2,0-0.5,0.1-0.8,0.1c-1.1,0-1.5-0.4-1.5-1.4v-0.1c0-1,0.6-1.5,1.6-1.5C153,95.9,153.5,96.5,153.5,97.8z
			 M151.1,97.5c0,0.6,0.2,0.8,0.8,0.8c0.3,0,0.6,0,0.8-0.1V98c0-1-0.1-1.4-0.8-1.4C151.3,96.6,151.1,96.8,151.1,97.5L151.1,97.5z"/>
		<g>
			<path class="st0" d="M108,79.5v-0.6h1.1v-3.1h0l-1,0.3l-0.1-0.6l1.3-0.4h0.7v3.9h1v0.6H108z"/>
			<path class="st0" d="M112,79.2c-0.3-0.3-0.5-0.8-0.5-1.9v-0.2c0-1,0.1-1.5,0.4-1.8c0.3-0.3,0.6-0.4,1.2-0.4c0.6,0,1,0.1,1.2,0.4
				c0.3,0.3,0.4,0.8,0.4,1.8v0.2c0,1.1-0.1,1.5-0.4,1.8c-0.3,0.3-0.7,0.4-1.2,0.4C112.6,79.5,112.2,79.5,112,79.2z M113.8,78.7
				c0.2-0.2,0.2-0.6,0.2-1.4v-0.1c0-0.8,0-1.2-0.2-1.4c-0.1-0.2-0.3-0.2-0.6-0.2c-0.3,0-0.5,0.1-0.6,0.2c-0.2,0.2-0.2,0.6-0.2,1.4
				v0.1c0,0.8,0,1.2,0.2,1.4c0.1,0.1,0.3,0.2,0.6,0.2C113.4,78.9,113.6,78.8,113.8,78.7z"/>
		</g>
		<g>
			<path class="st0" d="M96.2,110.1v-0.6h1.1v-3.1h0l-1,0.3l-0.1-0.6l1.3-0.4h0.7v3.9h1v0.6H96.2z"/>
			<path class="st0" d="M100,110.1v-0.6h1.1v-3.1h0l-1,0.3l-0.1-0.6l1.3-0.4h0.7v3.9h1v0.6H100z"/>
		</g>
	</g>
</g>
</svg>
