<?xml version="1.0" encoding="utf-8"?>
<!-- Generator: Adobe Illustrator 26.4.1, SVG Export Plug-In . SVG Version: 6.00 Build 0)  -->
<svg version="1.1" id="Capa_1" xmlns="http://www.w3.org/2000/svg" xmlns:xlink="http://www.w3.org/1999/xlink" x="0px" y="0px"
	 viewBox="0 0 257.3 146.4" style="enable-background:new 0 0 257.3 146.4;" xml:space="preserve">
<style type="text/css">
	.st0{fill:#9C9D9F;}
	.st1{fill:#C71517;}
	.st2{fill:#FFFFFF;}
	.st3{fill:#181D22;}
	.st4{clip-path:url(#SVGID_00000050660686151257159610000002251056747389004191_);}
	.st5{fill:#1D1E1C;}
	.st6{fill:none;stroke:#919191;stroke-width:0.25;stroke-miterlimit:10;}
	.st7{fill:#C80502;}
	.st8{fill:#35AA54;}
	.st9{fill:#9E9FA2;}
</style>
<g>
	<path class="st0" d="M244.2,7.8L244.2,7.8c-1.6-2.4-3.9-2.6-6.7-1.9c-16,4.3-27.4,7.7-51.4,12.7c-38.3,7.4-58.2,7.7-88.5,10.3
		c-3-0.1-7,2.8-4.4,7c4,5.8,9.5,13.2,12,18.7c-1.4-0.1-3.7-0.3-5.7-0.4c-1.5-3.7-0.7-4.2-3.4-7.8c-3.4-3.5-2.8-5-7.7-6.7
		c-1.7-0.4-4.5-0.7-4.6-0.7c-5.2-1-7,5.4-4.6,8.8c0.9,2,6.8,12.9,8.9,17.4c1.3,3.4-0.6,7.7-2.9,10.5c-1.4,0.7-6.1,2.7-8,3.5
		c-4.4,0.5-10.7-0.9-13.1-4.9c-3.2-5-8.9-13.2-12-17.4c-2.6-4.7-7.4-5.5-12.8-3.1L13.1,64.2c-1.8,0.7-3.9,2.4-4.1,5
		c-0.3,3,2.2,5,3.8,6.2c6.4,5.5,48.7,41.6,58.5,49.8c4.5,3,10.1,9,16.5,10.1c3.9,0.2,5.5-3.9,4.4-6.9c-0.8-3.8-5.3-17-5.4-20.4
		c0.1-1.8,0.8-6.4,4.8-8.7c4.4-2.6,14.6-8.3,17.9-10.2c1.3-0.8,4-2,6.6-7c3.7-12.6,13.6-3.9,16-18.2c0.4-2.3,0.8-5.3,1.9-6.4
		c1.8-1.8,7.1-4.9,9.2-4.9c2.3,0.1,12.4,5.8,13.6,6.1c6,2.8,13.1-4.3,16.3-8.2c1-1.5,1.5-2.6,4.2-2.7c0.3,0,1.6,0.1,2.2,0.9
		c0.6,0.7,0.9,1.3,1.2,1.9c1,2.9,4.5,4.6,7.7,3.7c0.2,0,20.3-3.6,20.6-3.6c5.5-1.2,9-8.4,15.2-14.4l12.5-13.9l0,0
		C239.4,19.3,247,12.3,244.2,7.8z M221.2,30.4c-1.9,2.1-11.5,12.8-12.5,14c-8.3,2.3-21.4,3.8-22.2,4.1c-1.9-4.7-5.8-6.8-9.6-6.6
		c-9,0.4-9.1,8.9-16.9,11.5c-2.7-0.7-12.2-7-16.7-6.9c-9.8,1.2-17.2,7.7-17.5,16.8c-1.1,4.5-0.7,3.4-4.8,5.3
		c-11.3,2.8-7.5,11.7-15.2,15.6c-9.8,6.3-25.1,10.4-25.4,23.7c-0.2,4.9,3.7,14.9,4.8,19.9c-19.4-13.6-52.4-44.1-69.3-57.7
		c2.7-0.8,27.4-11.6,29.6-11.1c1.2,1.2,5.2,7.3,7.9,10.8c3.1,3.8,5.7,10.9,11,13.2c10,4.7,14.6,2.9,23.6-1.6
		c6.2-4.3,8.3-13.3,5.9-18.9c-2.8-6-8-15.4-8.6-16.9c1,0.2,1.8,0.1,2.4,0.9c2.1,2.3,4.8,5.1,5.5,9.3c1.1,5.8,9.7,4.9,11.8,5.2
		c5.2,1,8.4-5,6-9c-2.4-5-6.8-11.5-10.8-17c38.7-1.6,97.6-10.1,136.5-22.4c-1.7,2.4-2,2.8-4.8,6l0,0L221.2,30.4z"/>
	<g>
		<g>
			<path class="st1" d="M147.1,18.7h-6.2c-1.6,0-2.8-1.3-2.8-2.8v-4.2c0-1.6,1.3-2.8,2.8-2.8h6.2c1.6,0,2.8,1.3,2.8,2.8v4.2
				C149.9,17.4,148.6,18.7,147.1,18.7z"/>
			<g>
				<path class="st2" d="M142.4,14.7v-0.2h1v0.1c0,0.4,0.2,0.6,0.5,0.6s0.5-0.2,0.5-0.4c0-0.3-0.1-0.4-0.5-0.5l-0.4-0.1
					c-0.6-0.2-1.2-0.5-1.2-1.3s0.6-1.3,1.5-1.3c1,0,1.5,0.5,1.5,1.4v0.1h-1v-0.2c0-0.4-0.2-0.6-0.5-0.6s-0.4,0.2-0.4,0.4
					c0,0.4,0.4,0.5,0.8,0.7h0.1c0.5,0.2,1.2,0.5,1.2,1.3c0,0.7-0.5,1.4-1.6,1.4C143,16.1,142.4,15.6,142.4,14.7z"/>
			</g>
			<path class="st1" d="M144,35.8c-0.3,0-0.5-0.2-0.5-0.5l-0.1-18.2c0-0.3,0.2-0.5,0.5-0.5s0.5,0.2,0.5,0.5l0.1,18.2
				C144.5,35.6,144.2,35.8,144,35.8z"/>
		</g>
		<g>
			<path class="st1" d="M149.1,69.9h-6.2c-1.6,0-2.8-1.3-2.8-2.8v-4.2c0-1.6,1.3-2.8,2.8-2.8h6.2c1.6,0,2.8,1.3,2.8,2.8v4.2
				C152,68.6,150.7,69.9,149.1,69.9z"/>
			<g>
				<path class="st2" d="M143.9,62.2h1v0.9h-1V62.2z M144,63.5h0.9V67H144V63.5z"/>
				<path class="st2" d="M148.7,66.2l-0.2,0.8h-2.8v-0.8h1.1v-2.7l-1.1,0.5v-0.8l1.4-0.6h0.7v3.6H148.7z"/>
			</g>
			<path class="st1" d="M146.3,61.1c-0.3-0.1-0.4-0.4-0.2-0.7l4.1-18c0.1-0.3,0.4-0.4,0.7-0.2c0.3,0.1,0.4,0.4,0.2,0.7l-4.1,18
				C146.9,61.1,146.6,61.2,146.3,61.1z"/>
		</g>
		<g>
			<path class="st1" d="M194.2,14.3H188c-1.6,0-2.8-1.3-2.8-2.8V7.3c0-1.6,1.3-2.8,2.8-2.8h6.2c1.6,0,2.8,1.3,2.8,2.8v4.2
				C197.1,13,195.8,14.3,194.2,14.3z"/>
			<g>
				<path class="st2" d="M189.1,6.6h1v0.9h-1V6.6z M189.1,7.9h0.9v3.5h-0.9V7.9z"/>
				<path class="st2" d="M190.7,10.6c0-0.7,0.3-1.1,0.9-1.4l0.2-0.1c0.7-0.3,0.9-0.5,0.9-0.9c0-0.3-0.2-0.6-0.5-0.6
					c-0.4,0-0.6,0.3-0.6,0.8v0.1h-1V8.4c0-1.1,0.5-1.6,1.6-1.6c0.9,0,1.5,0.5,1.5,1.4c0,0.7-0.3,1.1-1.1,1.5l-0.2,0.1
					c-0.6,0.2-0.8,0.4-0.8,0.8v0.1h2.1l-0.1,0.8h-2.9L190.7,10.6L190.7,10.6z"/>
			</g>
			<path class="st1" d="M194.4,11.6C194.4,11.6,194.5,11.6,194.4,11.6c0.4,0.1,0.5,0.3,0.5,0.6l2.6,12.5c0,0.3-0.3,0.5-0.6,0.4
				c-0.3,0-0.4-0.3-0.4-0.6L193.9,12C194,11.7,194.2,11.6,194.4,11.6z"/>
		</g>
		<g>
			<path class="st1" d="M76.7,60.1h-6.2c-1.6,0-2.8-1.3-2.8-2.8v-4.2c0-1.6,1.3-2.8,2.8-2.8h6.2c1.6,0,2.8,1.3,2.8,2.8v4.2
				C79.5,58.9,78.3,60.1,76.7,60.1z"/>
			<g>
				<path class="st2" d="M71.5,52.5h1v0.9h-1V52.5z M71.6,53.8h0.9v3.5h-0.9V53.8z"/>
				<path class="st2" d="M73.1,55.9h1c0,0.4,0.2,0.7,0.6,0.7s0.6-0.2,0.6-0.6c0-0.4-0.2-0.6-0.7-0.6h-0.4v-0.7h0.3
					c0.4,0,0.6-0.2,0.6-0.6c0-0.3-0.2-0.5-0.5-0.5c-0.4,0-0.6,0.2-0.6,0.7l0,0h-1l0,0c0-1,0.5-1.5,1.6-1.5c0.9,0,1.5,0.5,1.5,1.2
					c0,0.5-0.2,0.8-0.5,0.9c0.5,0.2,0.7,0.5,0.7,1c0,0.8-0.6,1.4-1.6,1.4C73.6,57.4,73.1,56.8,73.1,55.9z"/>
			</g>
			<path class="st1" d="M89.9,50.3c0,0.2-0.1,0.4-0.3,0.4l-12,5.9c-0.2,0.1-0.5,0-0.7-0.2c-0.1-0.2,0-0.5,0.2-0.7l12-5.9
				c0.2-0.1,0.5,0,0.7,0.2C89.9,50.2,89.9,50.2,89.9,50.3z"/>
		</g>
		<g>
			<g>
				<path class="st1" d="M18.9,95.5h-6.2c-1.6,0-2.8-1.3-2.8-2.8v-4.3c0-1.6,1.3-2.8,2.8-2.8h6.2c1.6,0,2.8,1.3,2.8,2.8v4.2
					C21.7,94.2,20.5,95.5,18.9,95.5z"/>
				<g>
					<path class="st2" d="M14.2,89.5v0.9h1.6v0.8h-1.6v1.6h-1v-3.6c0-0.6,0.3-0.9,0.9-0.9h1.8l-0.1,0.8h-1.3
						C14.3,89.2,14.2,89.3,14.2,89.5z"/>
					<path class="st2" d="M16.5,91.8v-3.4h1v3.3c0,0.3,0.1,0.4,0.4,0.4h1.3l-0.1,0.8h-1.4C16.8,92.9,16.5,92.5,16.5,91.8z"/>
				</g>
				<path class="st1" d="M30.7,79.2c0,0.2,0,0.4-0.2,0.5l-10.3,8.6c-0.2,0.1-0.5,0.1-0.7,0c-0.1-0.2-0.1-0.5,0-0.7L29.8,79
					c0.2-0.1,0.5-0.1,0.7,0S30.7,79.1,30.7,79.2z"/>
			</g>
			<g>
				<path class="st3" d="M5.9,95.6H1.8c-1.6,0-2.8-1.3-2.8-2.8v-4.3c0-1.6,1.3-2.8,2.8-2.8h4.1c1.6,0,2.8,1.3,2.8,2.8v4.2
					C8.7,94.3,7.4,95.6,5.9,95.6z"/>
				<g>
					<g>
						<g>
							<g>
								<defs>
									<circle id="SVGID_1_" cx="3.9" cy="90.7" r="3.5"/>
								</defs>
								<clipPath id="SVGID_00000022551704889080706230000003635771868376001931_">
									<use xlink:href="#SVGID_1_"  style="overflow:visible;"/>
								</clipPath>
								<g style="clip-path:url(#SVGID_00000022551704889080706230000003635771868376001931_);">
									<rect x="-4.3" y="84.3" class="st2" width="1.8" height="1.8"/>
									<rect x="-2.4" y="84.3" class="st5" width="1.8" height="1.8"/>
									<rect x="-0.6" y="84.3" class="st2" width="1.8" height="1.8"/>
									<rect x="1.2" y="84.3" class="st5" width="1.8" height="1.8"/>
									<rect x="3" y="84.3" class="st2" width="1.8" height="1.8"/>
									<rect x="4.9" y="84.3" class="st5" width="1.8" height="1.8"/>
									<rect x="6.7" y="84.3" class="st2" width="1.8" height="1.8"/>
									<rect x="8.5" y="84.3" class="st5" width="1.8" height="1.8"/>
									<rect x="-4.3" y="86.1" class="st5" width="1.8" height="1.8"/>
									<rect x="-2.4" y="86.1" class="st2" width="1.8" height="1.8"/>
									<rect x="-0.6" y="86.1" class="st5" width="1.8" height="1.8"/>
									<rect x="1.2" y="86.1" class="st2" width="1.8" height="1.8"/>
									<rect x="3" y="86.1" class="st5" width="1.8" height="1.8"/>
									<rect x="4.9" y="86.1" class="st2" width="1.8" height="1.8"/>
									<rect x="6.7" y="86.1" class="st5" width="1.8" height="1.8"/>
									<rect x="8.5" y="86.1" class="st2" width="1.8" height="1.8"/>
									<rect x="-4.3" y="87.9" class="st2" width="1.8" height="1.8"/>
									<rect x="-2.4" y="87.9" class="st5" width="1.8" height="1.8"/>
									<rect x="-0.6" y="87.9" class="st2" width="1.8" height="1.8"/>
									<rect x="1.2" y="87.9" class="st5" width="1.8" height="1.8"/>
									<rect x="3" y="87.9" class="st2" width="1.8" height="1.8"/>
									<rect x="4.9" y="87.9" class="st5" width="1.8" height="1.8"/>
									<rect x="6.7" y="87.9" class="st2" width="1.8" height="1.8"/>
									<rect x="8.5" y="87.9" class="st5" width="1.8" height="1.8"/>
									<rect x="-4.3" y="89.8" class="st5" width="1.8" height="1.8"/>
									<rect x="-2.4" y="89.8" class="st2" width="1.8" height="1.8"/>
									<rect x="-0.6" y="89.8" class="st5" width="1.8" height="1.8"/>
									<rect x="1.2" y="89.8" class="st2" width="1.8" height="1.8"/>
									<rect x="3" y="89.8" class="st5" width="1.8" height="1.8"/>
									<rect x="4.9" y="89.8" class="st2" width="1.8" height="1.8"/>
									<rect x="6.7" y="89.8" class="st5" width="1.8" height="1.8"/>
									<rect x="8.5" y="89.8" class="st2" width="1.8" height="1.8"/>
									<rect x="-4.3" y="91.6" class="st2" width="1.8" height="1.8"/>
									<rect x="-2.4" y="91.6" class="st5" width="1.8" height="1.8"/>
									<rect x="-0.6" y="91.6" class="st2" width="1.8" height="1.8"/>
									<rect x="1.2" y="91.6" class="st5" width="1.8" height="1.8"/>
									<rect x="3" y="91.6" class="st2" width="1.8" height="1.8"/>
									<rect x="4.9" y="91.6" class="st5" width="1.8" height="1.8"/>
									<rect x="6.7" y="91.6" class="st2" width="1.8" height="1.8"/>
									<rect x="8.5" y="91.6" class="st5" width="1.8" height="1.8"/>
									<rect x="-4.3" y="93.4" class="st5" width="1.8" height="1.8"/>
									<rect x="-2.4" y="93.4" class="st2" width="1.8" height="1.8"/>
									<rect x="-0.6" y="93.4" class="st5" width="1.8" height="1.8"/>
									<rect x="1.2" y="93.4" class="st2" width="1.8" height="1.8"/>
									<rect x="3" y="93.4" class="st5" width="1.8" height="1.8"/>
									<rect x="4.9" y="93.4" class="st2" width="1.8" height="1.8"/>
									<rect x="6.7" y="93.4" class="st5" width="1.8" height="1.8"/>
									<rect x="8.5" y="93.4" class="st2" width="1.8" height="1.8"/>
									<rect x="-4.3" y="95.2" class="st2" width="1.8" height="1.8"/>
									<rect x="-2.4" y="95.2" class="st5" width="1.8" height="1.8"/>
									<rect x="-0.6" y="95.2" class="st2" width="1.8" height="1.8"/>
									<rect x="1.2" y="95.2" class="st5" width="1.8" height="1.8"/>
									<rect x="3" y="95.2" class="st2" width="1.8" height="1.8"/>
									<rect x="4.9" y="95.2" class="st5" width="1.8" height="1.8"/>
									<rect x="6.7" y="95.2" class="st2" width="1.8" height="1.8"/>
									<rect x="8.5" y="95.2" class="st5" width="1.8" height="1.8"/>
									<rect x="-4.3" y="97.1" class="st5" width="1.8" height="1.8"/>
									<rect x="-2.4" y="97.1" class="st2" width="1.8" height="1.8"/>
									<rect x="-0.6" y="97.1" class="st5" width="1.8" height="1.8"/>
									<rect x="1.2" y="97.1" class="st2" width="1.8" height="1.8"/>
									<rect x="3" y="97.1" class="st5" width="1.8" height="1.8"/>
									<rect x="4.9" y="97.1" class="st2" width="1.8" height="1.8"/>
									<rect x="6.7" y="97.1" class="st5" width="1.8" height="1.8"/>
									<rect x="8.5" y="97.1" class="st2" width="1.8" height="1.8"/>
								</g>
							</g>
						</g>
					</g>
					<g>
						<circle id="SVGID_00000046334547856590018550000017336534540057720220_" class="st6" cx="3.9" cy="90.7" r="3.5"/>
					</g>
				</g>
			</g>
		</g>
		<g>
			<g>
				<polygon class="st7" points="52.3,95.2 51.5,94.6 40.6,105 41.3,105.8 				"/>
				<rect x="53.7" y="93.6" transform="matrix(0.7378 -0.675 0.675 0.7378 -51.7463 62.2203)" class="st7" width="1" height="8.2"/>
				<path id="Shape_00000009562240328663955860000010945057737194509970_" class="st7" d="M58.1,100.5l-0.4-1.6
					c-0.1-0.2-0.3-0.3-0.4-0.2l-1.2,1.1l-1.2,1.1c-0.1,0.2-0.1,0.3,0.1,0.5l1.5,0.5l1.5,0.5c0.2,0,0.3-0.1,0.3-0.3L58.1,100.5z"/>
			</g>
			<path class="st3" d="M39.4,113.9H26.3c-1.6,0-2.8-1.3-2.8-2.8v-4.3c0-1.6,1.3-2.8,2.8-2.8h13.1c1.6,0,2.8,1.3,2.8,2.8v4.2
				C42.2,112.6,40.9,113.9,39.4,113.9z"/>
			<circle class="st1" cx="28.8" cy="109" r="3.5"/>
			<circle class="st8" cx="36.8" cy="108.9" r="3.5"/>
		</g>
	</g>
	<g>
		<g>
			<path class="st9" d="M0,67.3v-0.8c0-0.9,0.3-1.3,1-1.6l0.5-0.1c0.4-0.1,0.6-0.3,0.6-0.8l0,0c0-0.5-0.3-0.7-0.8-0.7
				c-0.4,0-0.8,0.1-1.1,0.3L0,63c0.3-0.2,0.8-0.3,1.4-0.3c0.9,0,1.5,0.4,1.5,1.3l0,0c0,0.8-0.3,1.1-0.9,1.3l-0.5,0.2
				c-0.5,0.1-0.7,0.4-0.7,0.8v0.3h2.1v0.6L0,67.3L0,67.3z"/>
			<path class="st9" d="M4.1,67c-0.3-0.3-0.5-0.8-0.5-1.9v-0.2c0-1,0.1-1.5,0.4-1.8s0.6-0.4,1.2-0.4s1,0.1,1.2,0.4
				c0.3,0.3,0.4,0.8,0.4,1.8v0.2c0,1.1-0.1,1.5-0.4,1.8s-0.7,0.4-1.2,0.4C4.7,67.4,4.3,67.3,4.1,67z M5.8,66.5C6,66.3,6,65.9,6,65.1
				V65c0-0.8,0-1.2-0.2-1.4c-0.1-0.2-0.3-0.2-0.6-0.2c-0.3,0-0.5,0.1-0.6,0.2c-0.2,0.2-0.2,0.6-0.2,1.4v0.1c0,0.8,0,1.2,0.2,1.4
				c0.1,0.1,0.3,0.2,0.6,0.2S5.7,66.7,5.8,66.5z"/>
		</g>
		<path class="st9" d="M90,146.4v-0.6h1.1v-3.1l0,0l-1,0.3l-0.1-0.6l1.3-0.4H92v3.9h1v0.6L90,146.4L90,146.4z"/>
		<path class="st9" d="M91.4,109.5v-0.8c0-0.9,0.3-1.3,1-1.6l0.5-0.1c0.4-0.1,0.6-0.3,0.6-0.8l0,0c0-0.5-0.3-0.7-0.8-0.7
			c-0.4,0-0.8,0.1-1.1,0.3l-0.2-0.6c0.3-0.2,0.8-0.3,1.4-0.3c0.9,0,1.5,0.4,1.5,1.3v0.1c0,0.8-0.3,1.1-0.9,1.3l-0.5,0.2
			c-0.5,0.1-0.7,0.4-0.7,0.8v0.3h2.1v0.6C94.3,109.5,91.4,109.5,91.4,109.5z"/>
		<path class="st9" d="M114.7,94.9l0.1-0.6c0.3,0.1,0.7,0.2,1.2,0.2c0.6,0,0.8-0.2,0.8-0.7v-0.1c0-0.5-0.3-0.7-0.9-0.7h-0.5v-0.6
			h0.4c0.6,0,0.9-0.2,0.9-0.7l0,0c0-0.4-0.3-0.6-0.7-0.6c-0.4,0-0.8,0.1-1.1,0.3l-0.2-0.6c0.3-0.2,0.8-0.3,1.4-0.3
			c0.8,0,1.4,0.3,1.4,1.1v0.1c0,0.5-0.2,0.9-0.7,1l0,0c0.5,0.1,0.8,0.4,0.8,1.1v0.1c0,0.9-0.5,1.3-1.6,1.3
			C115.5,95.2,115,95.1,114.7,94.9z"/>
		<path class="st9" d="M123,84v-0.9h-2.2v-0.5l1.6-3.1h0.8l-1.5,2.9h1.3v-1.3h0.8v1.3h0.5v0.7h-0.5V84H123z"/>
		<path class="st9" d="M133.9,75.9L133.9,75.9c0,1.1-0.6,1.5-1.6,1.5c-0.6,0-1.1-0.1-1.5-0.4l0.2-0.6c0.4,0.2,0.8,0.3,1.2,0.3
			c0.6,0,0.8-0.2,0.8-0.8v-0.1c0-0.6-0.3-0.8-0.9-0.8c-0.3,0-0.7,0-1,0.1L131,75l0.2-2.2h2.4v0.6h-1.7l-0.1,1.1c0.2,0,0.4,0,0.5,0
			C133.4,74.5,133.9,75,133.9,75.9z"/>
		<path class="st9" d="M132.4,45.2L132.4,45.2c0,1.1-0.5,1.5-1.5,1.5c-1.2,0-1.6-0.6-1.6-2.1v-0.3c0-1.8,0.7-2.3,1.8-2.3
			c0.5,0,0.8,0.1,1.1,0.2l-0.1,0.6c-0.2-0.1-0.6-0.2-0.9-0.2c-0.7,0-1,0.3-1,1.2c0.3,0,0.6-0.1,0.9-0.1
			C131.9,43.9,132.4,44.3,132.4,45.2z M131.6,45.3c0-0.6-0.2-0.8-0.7-0.8c-0.3,0-0.6,0-0.8,0.1v0.1c0,1.1,0.1,1.5,0.8,1.5
			C131.4,46.2,131.6,45.9,131.6,45.3L131.6,45.3z"/>
		<path class="st9" d="M160.2,68.1l1.9-3.9h-2.2v-0.6h3.1v0.5l-1.9,4H160.2z"/>
		<path class="st9" d="M177.7,36.4L177.7,36.4c0,0.9-0.5,1.3-1.6,1.3s-1.6-0.4-1.6-1.3l0,0c0-0.5,0.2-0.9,0.7-1.1
			c-0.4-0.2-0.5-0.5-0.5-1l0,0c0-0.8,0.5-1.2,1.5-1.2c0.9,0,1.5,0.4,1.5,1.2v0.1c0,0.5-0.2,0.8-0.5,1
			C177.4,35.5,177.7,35.9,177.7,36.4z M176.8,36.4c0-0.5-0.2-0.7-0.8-0.7l0,0c-0.5,0-0.8,0.2-0.8,0.7l0,0c0,0.5,0.2,0.7,0.8,0.7
			C176.6,37.2,176.8,36.9,176.8,36.4L176.8,36.4z M175.3,34.4c0,0.4,0.2,0.7,0.7,0.7h0.1c0.5,0,0.7-0.2,0.7-0.7l0,0
			c0-0.4-0.2-0.6-0.7-0.6C175.6,33.7,175.3,33.9,175.3,34.4L175.3,34.4z"/>
		<path class="st9" d="M185.2,60.7v0.6c0,1.5-0.4,2.2-1.7,2.2c-0.5,0-0.9-0.1-1.2-0.2l0.1-0.6c0.3,0.1,0.7,0.2,1,0.2
			c0.6,0,0.9-0.3,0.9-1.1c-0.2,0-0.5,0.1-0.8,0.1c-1.1,0-1.5-0.4-1.5-1.4v-0.1c0-1,0.6-1.5,1.6-1.5
			C184.7,58.8,185.2,59.4,185.2,60.7z M182.9,60.4c0,0.6,0.2,0.8,0.8,0.8c0.3,0,0.6,0,0.8-0.1v-0.3c0-1-0.1-1.4-0.8-1.4
			C183.1,59.5,182.9,59.7,182.9,60.4L182.9,60.4z"/>
		<g>
			<path class="st9" d="M209.9,59.6V59h1.1v-3.1l0,0l-1,0.3l-0.1-0.6l1.3-0.4h0.7V59h1v0.6H209.9z"/>
			<path class="st9" d="M213.8,59.3c-0.3-0.3-0.5-0.8-0.5-1.9v-0.2c0-1,0.1-1.5,0.4-1.8c0.3-0.3,0.6-0.4,1.2-0.4
				c0.6,0,1,0.1,1.2,0.4c0.3,0.3,0.4,0.8,0.4,1.8v0.2c0,1.1-0.1,1.5-0.4,1.8c-0.3,0.3-0.7,0.4-1.2,0.4
				C214.5,59.7,214.1,59.6,213.8,59.3z M215.6,58.8c0.2-0.2,0.2-0.6,0.2-1.4v-0.1c0-0.8,0-1.2-0.2-1.4c-0.1-0.2-0.3-0.2-0.6-0.2
				s-0.5,0.1-0.6,0.2c-0.2,0.2-0.2,0.6-0.2,1.4v0.1c0,0.8,0,1.2,0.2,1.4c0.1,0.1,0.3,0.2,0.6,0.2S215.5,59,215.6,58.8z"/>
		</g>
		<g>
			<path class="st9" d="M248.9,4.5V3.9h1.1V0.8l0,0l-1,0.3l-0.1-0.6l1.3-0.4h0.7V4h1v0.6L248.9,4.5L248.9,4.5z"/>
			<path class="st9" d="M252.7,4.5V3.9h1.1V0.8l0,0l-1,0.3l-0.1-0.6l1.3-0.4h0.7V4h1v0.6L252.7,4.5L252.7,4.5z"/>
		</g>
		<g>
			<path class="st9" d="M86.7,26.2v-0.6h1.1v-3.1l0,0l-1,0.3l-0.1-0.6l1.3-0.4h0.7v3.9h1v0.6L86.7,26.2L86.7,26.2z"/>
			<path class="st9" d="M90.3,26.2v-0.8c0-0.9,0.3-1.3,1-1.6l0.5-0.1c0.4-0.1,0.6-0.3,0.6-0.8l0,0c0-0.5-0.3-0.7-0.8-0.7
				c-0.4,0-0.8,0.1-1.1,0.3l-0.2-0.6c0.3-0.2,0.8-0.3,1.4-0.3c0.9,0,1.5,0.4,1.5,1.3V23c0,0.8-0.3,1.1-0.9,1.3l-0.5,0.2
				c-0.5,0.1-0.7,0.4-0.7,0.8v0.3h2.1v0.6C93.2,26.2,90.3,26.2,90.3,26.2z"/>
		</g>
		<g>
			<path class="st9" d="M111.5,65.9v-0.6h1.1v-3.1l0,0l-1,0.3l-0.1-0.6l1.3-0.4h0.7v3.9h1V66L111.5,65.9L111.5,65.9z"/>
			<path class="st9" d="M115,65.7l0.1-0.6c0.3,0.1,0.7,0.2,1.2,0.2c0.6,0,0.8-0.2,0.8-0.7v-0.1c0-0.5-0.3-0.7-0.9-0.7h-0.5v-0.6h0.4
				c0.6,0,0.9-0.2,0.9-0.7l0,0c0-0.4-0.3-0.6-0.7-0.6c-0.4,0-0.8,0.1-1.1,0.3l-0.2-0.6c0.3-0.2,0.8-0.3,1.4-0.3
				c0.8,0,1.4,0.3,1.4,1.1v0.1c0,0.5-0.2,0.9-0.7,1l0,0c0.5,0.1,0.8,0.4,0.8,1.1v0.1c0,0.9-0.5,1.3-1.6,1.3
				C115.8,66,115.3,65.9,115,65.7z"/>
		</g>
		<g>
			<path class="st9" d="M96.9,69.1v-0.6H98v-3.1l0,0l-1,0.3L96.8,65l1.3-0.4h0.7v3.9h1v0.6H96.9z"/>
			<path class="st9" d="M102.4,69.1v-0.9h-2.2v-0.5l1.6-3.1h0.8l-1.5,2.9h1.3v-1.3h0.8v1.3h0.5v0.7h-0.5v0.9H102.4z"/>
		</g>
		<g>
			<path class="st9" d="M71.3,38.4v-0.6h1.1v-3.1l0,0l-1,0.3l-0.1-0.6l1.3-0.4h0.7v3.9h1v0.6h-3V38.4z"/>
			<path class="st9" d="M77.9,36.9L77.9,36.9c0,1.1-0.6,1.5-1.6,1.5c-0.6,0-1.1-0.1-1.5-0.4l0.2-0.6c0.4,0.2,0.8,0.3,1.2,0.3
				c0.6,0,0.8-0.2,0.8-0.8V37c0-0.6-0.3-0.8-0.9-0.8c-0.3,0-0.7,0-1,0.1V36l0.2-2.2h2.4v0.6H76l-0.1,1.1c0.2,0,0.4,0,0.5,0
				C77.4,35.6,77.9,36,77.9,36.9z"/>
		</g>
		<g>
			<path class="st9" d="M78.2,71.4v-0.6h1.1v-3.1l0,0l-1,0.3l-0.1-0.6l1.3-0.4h0.7v3.9h1v0.6h-3V71.4z"/>
			<path class="st9" d="M84.9,69.9L84.9,69.9c0,1.1-0.5,1.5-1.5,1.5c-1.2,0-1.6-0.6-1.6-2.1V69c0-1.8,0.7-2.3,1.8-2.3
				c0.5,0,0.8,0.1,1.1,0.2l-0.1,0.6c-0.2-0.1-0.6-0.2-0.9-0.2c-0.7,0-1,0.3-1,1.2c0.3,0,0.6-0.1,0.9-0.1
				C84.4,68.5,84.9,68.9,84.9,69.9z M84.1,69.9c0-0.6-0.2-0.8-0.7-0.8c-0.3,0-0.6,0-0.8,0.1v0.1c0,1.1,0.1,1.5,0.8,1.5
				C83.9,70.8,84.1,70.6,84.1,69.9L84.1,69.9z"/>
		</g>
		<g>
			<path class="st9" d="M84.8,90.3v-0.6h1.1v-3.1l0,0l-1,0.3l-0.1-0.6l1.3-0.4h0.7v3.9h1v0.6h-3V90.3z"/>
			<path class="st9" d="M88.7,90.3l1.9-3.9h-2.2v-0.6h3.1v0.5l-1.9,4H88.7z"/>
		</g>
		<g>
			<path class="st9" d="M56.6,90v-0.6h1.1v-3.1l0,0l-1,0.3L56.6,86l1.3-0.4h0.7v3.9h1V90H56.6z"/>
			<path class="st9" d="M63.3,88.8L63.3,88.8c0,0.9-0.5,1.3-1.6,1.3s-1.6-0.4-1.6-1.3l0,0c0-0.5,0.2-0.9,0.7-1.1
				c-0.4-0.2-0.5-0.5-0.5-1l0,0c0-0.8,0.5-1.2,1.5-1.2c0.9,0,1.5,0.4,1.5,1.2v0.1c0,0.5-0.2,0.8-0.5,1
				C63.1,87.9,63.3,88.2,63.3,88.8z M62.5,88.7c0-0.5-0.2-0.7-0.8-0.7h-0.1c-0.5,0-0.8,0.2-0.8,0.7l0,0c0,0.5,0.2,0.7,0.8,0.7
				C62.3,89.5,62.5,89.2,62.5,88.7L62.5,88.7z M61,86.7c0,0.4,0.2,0.7,0.7,0.7h0.1c0.5,0,0.7-0.2,0.7-0.7l0,0c0-0.4-0.2-0.6-0.7-0.6
				C61.2,86.1,61,86.3,61,86.7L61,86.7z"/>
		</g>
		<g>
			<path class="st9" d="M43.5,49.1v-0.6h1.1v-3.1l0,0l-1,0.3L43.4,45l1.3-0.4h0.7v3.9h1v0.6H43.5z"/>
			<path class="st9" d="M50.2,46.3v0.6c0,1.5-0.4,2.2-1.7,2.2c-0.5,0-0.9-0.1-1.2-0.2l0.1-0.6c0.3,0.1,0.7,0.2,1,0.2
				c0.6,0,0.9-0.3,0.9-1.1c-0.2,0-0.5,0.1-0.8,0.1c-1.1,0-1.5-0.4-1.5-1.4V46c0-1,0.6-1.5,1.6-1.5C49.7,44.5,50.2,45,50.2,46.3z
				 M47.9,46c0,0.6,0.2,0.8,0.8,0.8c0.3,0,0.6,0,0.8-0.1v-0.3c0-1-0.1-1.4-0.8-1.4C48.1,45.1,47.9,45.3,47.9,46L47.9,46z"/>
		</g>
	</g>
</g>
</svg>
