<?xml version="1.0" encoding="utf-8"?>
<!-- Generator: Adobe Illustrator 26.4.1, SVG Export Plug-In . SVG Version: 6.00 Build 0)  -->
<svg version="1.1" id="Capa_1" xmlns="http://www.w3.org/2000/svg" xmlns:xlink="http://www.w3.org/1999/xlink" x="0px" y="0px"
	 viewBox="0 0 217.4 109.2" style="enable-background:new 0 0 217.4 109.2;" xml:space="preserve">
<style type="text/css">
	.st0{fill:#9E9FA2;}
	.st1{fill:#C80502;}
	.st2{fill:#FFFFFF;}
	.st3{fill:#171C21;}
	.st4{fill:#00B753;}
	.st5{clip-path:url(#SVGID_00000180328415205079503770000011351018457507186595_);}
	.st6{fill:#1D1D1B;}
	.st7{fill:none;stroke:#939393;stroke-width:0.25;stroke-miterlimit:10;}
</style>
<g>
	<path class="st0" d="M207.6,18.3c-4.2-1.6-8.8,0.7-10.4,2.8c-0.8,0.8-7.4,7.8-11.4,12c-3.6,4.3-6.1,4.4-6,12.1
		c0.4,4.7,1.5,24.3,1.5,24.4c0,0.8-0.2,3.6-3,3.7c-2.9,0.2-17.2,0-17.8,0c-0.5,0-5.2-0.1-6.2-3.5c-0.9-2.3-0.5-6.6,0.7-7.7
		c0.9-1.3,19.7-28.5,20.9-30.2c4.7-6.8-1-16.8-9.7-16.3c-3.6,0.1-52.6,0.4-52.9,0.4c-1.3,0-4.8,0.2-8,1.8
		c-3.4,1.7-24.6,11.9-24.7,12c-2.8,1.6-7.4,6.8-5.1,14.9c2.8,8.1,8.5,8,15.9,7.9c5.6,0,13.9,0,14,0c2.9,0.1,6.7-0.4,11.8-5.5
		c4.1-4.2,7.3-7.1,8.3-8.1c0.9-0.8,2.2-2.6,5.6-3c0.5,0,10.5-0.2,11.6-0.3c1.2,0.1,3.9,0.7,4,3.7c0,1.5-0.4,3.3-2.2,4.1l-49,22.8
		c-1,0.6-2.9,0.4-3.9-0.7c-23.3-24.9-66-16.4-81,20.1c-1.8,4.9,1,10.7,8.5,11L185,96.2c4,0,11.7-2.5,14.7-12l12.8-55.7
		C213.1,25.7,213,19.9,207.6,18.3z M207.1,27.4c-0.2,0.9-1.7,7.2-12.7,55.4c-2.5,7.7-8.8,7.9-9.5,7.9c-3.5,0.1-128.8,0.4-165.5,0.6
		c-2.3-0.4-3.7-0.6-3.8-2.5c0.1-0.7,0.1-1,0.2-1.2C30.1,54.5,67,47.4,87.9,69.7c5.8,5.2,10.9,0.9,16.3-1.4
		C141,51.2,146,48.9,146.6,48.6l0,0c7.9-3.2,8-17.5-3.8-18.3l-12,0.3c-5,0.2-8.4,3.6-9,4.3c-0.6,0.6-4,3.6-8.7,8.4
		c-2.5,2.5-5.1,3.8-7.7,3.8L86,47.2c-1,0-4.3-0.3-5.4-3.9c-1.4-3.9,0.7-7.7,2.4-8.5c5.8-2.8,21.6-10.4,24.5-11.9
		c1.6-0.8,3.7-1.2,5.9-1.2c1.3-0.1,48-0.3,53.1-0.4c2,0,3,0.3,4.9,3.1c1.4,2.1-0.2,4.6-0.3,4.6c-4.2,6.1-19.3,27.9-20.8,30.1
		c-2.4,3.3-2.9,7.4-1.5,12.3c3.4,9.7,13.1,7.2,21.3,7.7c3.5,0,6.2,0,8.2-0.1c6.3-0.3,8.4-5.9,8.3-9.6c-0.4-6.1-1.1-20.4-1.5-24.5
		c-0.2-2.9,1.2-4.3,1.5-4.6c0.1-0.1,13.3-14.2,14.5-15.4c1-1.3,2.9-2,4.7-1.3C207.5,24,207.2,26.3,207.1,27.4L207.1,27.4z"/>
	<g>
		<g>
			<path class="st1" d="M136,109.2h-6.2c-1.6,0-2.8-1.3-2.8-2.8v-4.2c0-1.6,1.3-2.8,2.8-2.8h6.2c1.6,0,2.8,1.3,2.8,2.8v4.2
				C138.8,107.9,137.5,109.2,136,109.2z"/>
			<g>
				<path class="st2" d="M131.3,105.2V105h1v0.1c0,0.4,0.2,0.6,0.5,0.6s0.5-0.2,0.5-0.4c0-0.3-0.1-0.4-0.5-0.5l-0.4-0.1
					c-0.6-0.2-1.2-0.5-1.2-1.3s0.6-1.3,1.5-1.3c1,0,1.5,0.5,1.5,1.4v0.1h-1v-0.2c0-0.4-0.2-0.6-0.5-0.6s-0.4,0.2-0.4,0.4
					c0,0.4,0.4,0.5,0.8,0.7h0.1c0.5,0.2,1.2,0.5,1.2,1.3c0,0.7-0.5,1.4-1.6,1.4C131.9,106.6,131.3,106.1,131.3,105.2z"/>
			</g>
			<path class="st1" d="M132.7,102.2c-0.3,0-0.4-0.3-0.4-0.6l0.1-14.7c0-0.3,0.3-0.4,0.6-0.4s0.4,0.3,0.4,0.6l-0.2,14.7
				C133.2,102.1,133.1,102.2,132.7,102.2z"/>
		</g>
		<g>
			<g>
				<path class="st1" d="M79.6,108.6h-6.2c-1.6,0-2.8-1.3-2.8-2.8v-4.3c0-1.6,1.3-2.8,2.8-2.8h6.2c1.6,0,2.8,1.3,2.8,2.8v4.2
					C82.4,107.3,81.2,108.6,79.6,108.6z"/>
				<g>
					<path class="st2" d="M74.9,102.6v0.9h1.6v0.8h-1.6v1.6h-1v-3.6c0-0.6,0.3-0.9,0.9-0.9h1.8l-0.1,0.8h-1.3
						C75,102.3,74.9,102.4,74.9,102.6z"/>
					<path class="st2" d="M77.2,104.9v-3.4h1v3.3c0,0.3,0.1,0.4,0.4,0.4h1.3l-0.1,0.8h-1.4C77.5,106,77.2,105.6,77.2,104.9z"/>
				</g>
				<g>
					<polygon class="st1" points="77,86.1 76,86.1 75.8,100.2 76.8,100.2 					"/>
					
						<rect x="79.6" y="82.4" transform="matrix(4.417797e-03 -1 1 4.417797e-03 -6.8358 166.2217)" class="st1" width="1" height="8.2"/>
					<path id="Shape_17_" class="st1" d="M85,85.6l-1.4-0.8c-0.2-0.1-0.4,0-0.4,0.2v1.6v1.6c0,0.2,0.1,0.3,0.4,0.2l1.4-0.8l1.4-0.8
						c0.2-0.1,0.2-0.3,0-0.4L85,85.6z"/>
				</g>
			</g>
			<g>
				<path class="st3" d="M65.3,108.7H45.2c-1.6,0-2.8-1.3-2.8-2.8v-4.3c0-1.6,1.3-2.8,2.8-2.8h20.1c1.6,0,2.8,1.3,2.8,2.8v4.2
					C68.1,107.4,66.8,108.7,65.3,108.7z"/>
				<circle class="st1" cx="47.7" cy="103.8" r="3.5"/>
				<circle class="st4" cx="55.7" cy="103.7" r="3.5"/>
				<g>
					<g>
						<g>
							<g>
								<g>
									<defs>
										<circle id="SVGID_00000034083173895629463360000010317910497295024026_" cx="63.3" cy="103.8" r="3.5"/>
									</defs>
									<clipPath id="SVGID_00000097500211658878366850000006682942162818631355_">
										<use xlink:href="#SVGID_00000034083173895629463360000010317910497295024026_"  style="overflow:visible;"/>
									</clipPath>
									<g style="clip-path:url(#SVGID_00000097500211658878366850000006682942162818631355_);">
										<rect x="55.1" y="97.4" class="st2" width="1.8" height="1.8"/>
										<rect x="57" y="97.4" class="st6" width="1.8" height="1.8"/>
										<rect x="58.8" y="97.4" class="st2" width="1.8" height="1.8"/>
										<rect x="60.6" y="97.4" class="st6" width="1.8" height="1.8"/>
										<rect x="62.4" y="97.4" class="st2" width="1.8" height="1.8"/>
										<rect x="64.3" y="97.4" class="st6" width="1.8" height="1.8"/>
										<rect x="66.1" y="97.4" class="st2" width="1.8" height="1.8"/>
										<rect x="67.9" y="97.4" class="st6" width="1.8" height="1.8"/>
										<rect x="55.1" y="99.2" class="st6" width="1.8" height="1.8"/>
										<rect x="57" y="99.2" class="st2" width="1.8" height="1.8"/>
										<rect x="58.8" y="99.2" class="st6" width="1.8" height="1.8"/>
										<rect x="60.6" y="99.2" class="st2" width="1.8" height="1.8"/>
										<rect x="62.4" y="99.2" class="st6" width="1.8" height="1.8"/>
										<rect x="64.3" y="99.2" class="st2" width="1.8" height="1.8"/>
										<rect x="66.1" y="99.2" class="st6" width="1.8" height="1.8"/>
										<rect x="67.9" y="99.2" class="st2" width="1.8" height="1.8"/>
										<rect x="55.1" y="101" class="st2" width="1.8" height="1.8"/>
										<rect x="57" y="101" class="st6" width="1.8" height="1.8"/>
										<rect x="58.8" y="101" class="st2" width="1.8" height="1.8"/>
										<rect x="60.6" y="101" class="st6" width="1.8" height="1.8"/>
										<rect x="62.4" y="101" class="st2" width="1.8" height="1.8"/>
										<rect x="64.3" y="101" class="st6" width="1.8" height="1.8"/>
										<rect x="66.1" y="101" class="st2" width="1.8" height="1.8"/>
										<rect x="67.9" y="101" class="st6" width="1.8" height="1.8"/>
										<rect x="55.1" y="102.9" class="st6" width="1.8" height="1.8"/>
										<rect x="57" y="102.9" class="st2" width="1.8" height="1.8"/>
										<rect x="58.8" y="102.9" class="st6" width="1.8" height="1.8"/>
										<rect x="60.6" y="102.9" class="st2" width="1.8" height="1.8"/>
										<rect x="62.4" y="102.9" class="st6" width="1.8" height="1.8"/>
										<rect x="64.3" y="102.9" class="st2" width="1.8" height="1.8"/>
										<rect x="66.1" y="102.9" class="st6" width="1.8" height="1.8"/>
										<rect x="67.9" y="102.9" class="st2" width="1.8" height="1.8"/>
										<rect x="55.1" y="104.7" class="st2" width="1.8" height="1.8"/>
										<rect x="57" y="104.7" class="st6" width="1.8" height="1.8"/>
										<rect x="58.8" y="104.7" class="st2" width="1.8" height="1.8"/>
										<rect x="60.6" y="104.7" class="st6" width="1.8" height="1.8"/>
										<rect x="62.4" y="104.7" class="st2" width="1.8" height="1.8"/>
										<rect x="64.3" y="104.7" class="st6" width="1.8" height="1.8"/>
										<rect x="66.1" y="104.7" class="st2" width="1.8" height="1.8"/>
										<rect x="67.9" y="104.7" class="st6" width="1.8" height="1.8"/>
										<rect x="55.1" y="106.5" class="st6" width="1.8" height="1.8"/>
										<rect x="57" y="106.5" class="st2" width="1.8" height="1.8"/>
										<rect x="58.8" y="106.5" class="st6" width="1.8" height="1.8"/>
										<rect x="60.6" y="106.5" class="st2" width="1.8" height="1.8"/>
										<rect x="62.4" y="106.5" class="st6" width="1.8" height="1.8"/>
										<rect x="64.3" y="106.5" class="st2" width="1.8" height="1.8"/>
										<rect x="66.1" y="106.5" class="st6" width="1.8" height="1.8"/>
										<rect x="67.9" y="106.5" class="st2" width="1.8" height="1.8"/>
										<rect x="55.1" y="108.3" class="st2" width="1.8" height="1.8"/>
										<rect x="57" y="108.3" class="st6" width="1.8" height="1.8"/>
										<rect x="58.8" y="108.3" class="st2" width="1.8" height="1.8"/>
										<rect x="60.6" y="108.3" class="st6" width="1.8" height="1.8"/>
										<rect x="62.4" y="108.3" class="st2" width="1.8" height="1.8"/>
										<rect x="64.3" y="108.3" class="st6" width="1.8" height="1.8"/>
										<rect x="66.1" y="108.3" class="st2" width="1.8" height="1.8"/>
										<rect x="67.9" y="108.3" class="st6" width="1.8" height="1.8"/>
										<rect x="55.1" y="110.2" class="st6" width="1.8" height="1.8"/>
										<rect x="57" y="110.2" class="st2" width="1.8" height="1.8"/>
										<rect x="58.8" y="110.2" class="st6" width="1.8" height="1.8"/>
										<rect x="60.6" y="110.2" class="st2" width="1.8" height="1.8"/>
										<rect x="62.4" y="110.2" class="st6" width="1.8" height="1.8"/>
										<rect x="64.3" y="110.2" class="st2" width="1.8" height="1.8"/>
										<rect x="66.1" y="110.2" class="st6" width="1.8" height="1.8"/>
										<rect x="67.9" y="110.2" class="st2" width="1.8" height="1.8"/>
									</g>
								</g>
							</g>
						</g>
					</g>
					<g>
						<circle id="SVGID_1_" class="st7" cx="63.3" cy="103.8" r="3.5"/>
					</g>
				</g>
			</g>
		</g>
		<g>
			<path class="st1" d="M187.8,28h-6.2c-1.6,0-2.8-1.3-2.8-2.8V21c0-1.6,1.3-2.8,2.8-2.8h6.2c1.6,0,2.8,1.3,2.8,2.8v4.2
				C190.7,26.7,189.4,28,187.8,28z"/>
			<g>
				<path class="st2" d="M182.6,20.3h1v0.9h-1V20.3z M182.7,21.6h0.9v3.5h-0.9V21.6z"/>
				<path class="st2" d="M187.4,24.3l-0.2,0.8h-2.8v-0.8h1.1v-2.7l-1.1,0.5v-0.8l1.4-0.6h0.7v3.6H187.4z"/>
			</g>
			<path class="st1" d="M181.6,24.1c0.3-0.1,0.5,0,0.6,0.3l11.4,12.9c0.1,0.3,0,0.5-0.3,0.6s-0.5,0-0.6-0.3l-11.3-12.9
				C181.2,24.4,181.3,24.2,181.6,24.1z"/>
		</g>
		<g>
			<path class="st1" d="M118.3,26C118.3,26,118.2,26,118.3,26c-0.4,0.1-0.6-0.2-0.7-0.4l0.1-15.6c-0.1-0.3,0.2-0.6,0.5-0.6
				c0.3-0.1,0.5,0.2,0.6,0.5l-0.1,15.6C118.6,25.7,118.5,25.9,118.3,26z"/>
			<path class="st1" d="M121.3,11.2h-6.2c-1.6,0-2.8-1.3-2.8-2.8V4.2c0-1.6,1.3-2.8,2.8-2.8h6.2c1.6,0,2.8,1.3,2.8,2.8v4.2
				C124.2,9.9,122.9,11.2,121.3,11.2z"/>
			<g>
				<path class="st2" d="M116.2,3.5h1v0.9h-1V3.5z M116.2,4.8h0.9v3.5h-0.9V4.8z"/>
				<path class="st2" d="M117.8,7.5c0-0.7,0.3-1.1,0.9-1.4l0.2-0.1c0.7-0.3,0.9-0.5,0.9-0.9c0-0.3-0.2-0.6-0.5-0.6
					c-0.4,0-0.6,0.3-0.6,0.8v0.1h-1V5.3c0-1.1,0.5-1.6,1.6-1.6c0.9,0,1.5,0.5,1.5,1.4c0,0.7-0.3,1.1-1.1,1.5l-0.2,0.1
					c-0.6,0.2-0.8,0.4-0.8,0.8v0.1h2.1l-0.1,0.8h-2.9V7.5z"/>
			</g>
		</g>
		<g>
			<path class="st1" d="M138.2,59.9c-0.2,0-0.4-0.2-0.3-0.3L131,45.1c-0.1-0.2,0-0.5,0.3-0.7c0.2-0.1,0.5,0,0.7,0.3l6.9,14.5
				c0.1,0.2,0,0.5-0.3,0.7C138.3,59.9,138.3,59.9,138.2,59.9z"/>
			<path class="st1" d="M140.8,67.2h-6.2c-1.6,0-2.8-1.3-2.8-2.8v-4.2c0-1.6,1.3-2.8,2.8-2.8h6.2c1.6,0,2.8,1.3,2.8,2.8v4.2
				C143.6,66,142.4,67.2,140.8,67.2z"/>
			<g>
				<path class="st2" d="M135.6,59.6h1v0.9h-1V59.6z M135.7,60.9h0.9v3.5h-0.9V60.9z"/>
				<path class="st2" d="M137.2,63h1c0,0.4,0.2,0.7,0.6,0.7c0.4,0,0.6-0.2,0.6-0.6s-0.2-0.6-0.7-0.6h-0.4v-0.7h0.3
					c0.4,0,0.6-0.2,0.6-0.6c0-0.3-0.2-0.5-0.5-0.5c-0.4,0-0.6,0.2-0.6,0.7l0,0h-1l0,0c0-1,0.5-1.5,1.6-1.5c0.9,0,1.5,0.5,1.5,1.2
					c0,0.5-0.2,0.8-0.5,0.9c0.5,0.2,0.7,0.5,0.7,1c0,0.8-0.6,1.4-1.6,1.4C137.7,64.5,137.2,63.9,137.2,63z"/>
			</g>
		</g>
	</g>
</g>
<path class="st0" d="M194,104.2v-0.6h1.1v-3.1h0l-1,0.3l-0.1-0.6l1.3-0.4h0.7v3.9h1v0.6H194z"/>
<path class="st0" d="M214.5,17.8v-0.8c0-0.9,0.3-1.3,1-1.6l0.5-0.1c0.4-0.1,0.6-0.3,0.6-0.8v0c0-0.5-0.3-0.7-0.8-0.7
	c-0.4,0-0.8,0.1-1.1,0.3l-0.2-0.6c0.3-0.2,0.8-0.3,1.4-0.3c0.9,0,1.5,0.4,1.5,1.3v0.1c0,0.8-0.3,1.1-0.9,1.3l-0.5,0.2
	c-0.5,0.1-0.7,0.4-0.7,0.8v0.3h2.1v0.6H214.5z"/>
<path class="st0" d="M189.1,48.7l0.1-0.6c0.3,0.1,0.7,0.2,1.2,0.2c0.6,0,0.8-0.2,0.8-0.7v-0.1c0-0.5-0.3-0.7-0.9-0.7h-0.5v-0.6h0.4
	c0.6,0,0.9-0.2,0.9-0.7v0c0-0.4-0.3-0.6-0.7-0.6c-0.4,0-0.8,0.1-1.1,0.3l-0.2-0.6c0.3-0.2,0.8-0.3,1.4-0.3c0.8,0,1.4,0.3,1.4,1.1
	v0.1c0,0.5-0.2,0.9-0.7,1v0c0.5,0.1,0.8,0.4,0.8,1.1v0.1c0,0.9-0.5,1.3-1.6,1.3C189.9,49,189.4,48.9,189.1,48.7z"/>
<path class="st0" d="M185.1,84.7v-0.9h-2.2v-0.5l1.6-3.1h0.8l-1.5,2.9h1.3v-1.3h0.8v1.3h0.5v0.7h-0.5v0.9H185.1z"/>
<path class="st0" d="M148,77.1L148,77.1c0,1.1-0.6,1.5-1.6,1.5c-0.6,0-1.1-0.1-1.5-0.4l0.2-0.6c0.4,0.2,0.8,0.3,1.2,0.3
	c0.6,0,0.8-0.2,0.8-0.8v-0.1c0-0.6-0.3-0.8-0.9-0.8c-0.3,0-0.7,0-1,0.1l-0.2-0.2l0.2-2.2h2.4v0.6H146l-0.1,1.1c0.2,0,0.4,0,0.5,0
	C147.5,75.7,148,76.1,148,77.1z"/>
<path class="st0" d="M177.2,12.4L177.2,12.4c0,1.1-0.5,1.5-1.5,1.5c-1.2,0-1.6-0.6-1.6-2.1v-0.3c0-1.8,0.7-2.3,1.8-2.3
	c0.5,0,0.8,0.1,1.1,0.2l-0.1,0.6c-0.2-0.1-0.6-0.2-0.9-0.2c-0.7,0-1,0.3-1,1.2c0.3,0,0.6-0.1,0.9-0.1
	C176.7,11.1,177.2,11.5,177.2,12.4z M176.4,12.5c0-0.6-0.2-0.8-0.7-0.8c-0.3,0-0.6,0-0.8,0.1v0.1c0,1.1,0.1,1.5,0.8,1.5
	C176.2,13.4,176.4,13.1,176.4,12.5L176.4,12.5z"/>
<path class="st0" d="M103.6,14.8l1.9-3.9h-2.2v-0.6h3.1v0.5l-1.9,4H103.6z"/>
<path class="st0" d="M72.9,41.2L72.9,41.2c0,0.9-0.5,1.3-1.6,1.3c-1.1,0-1.6-0.4-1.6-1.3v0c0-0.5,0.2-0.9,0.7-1.1
	c-0.4-0.2-0.5-0.5-0.5-1v0c0-0.8,0.5-1.2,1.5-1.2c0.9,0,1.5,0.4,1.5,1.2v0.1c0,0.5-0.2,0.8-0.5,1C72.7,40.3,72.9,40.7,72.9,41.2z
	 M72.1,41.2c0-0.5-0.2-0.7-0.8-0.7h-0.1c-0.5,0-0.8,0.2-0.8,0.7v0c0,0.5,0.2,0.7,0.8,0.7C71.9,41.9,72.1,41.7,72.1,41.2L72.1,41.2z
	 M70.6,39.2c0,0.4,0.2,0.7,0.7,0.7h0.1c0.5,0,0.7-0.2,0.7-0.7v0c0-0.4-0.2-0.6-0.7-0.6C70.8,38.5,70.6,38.7,70.6,39.2L70.6,39.2z"/>
<path class="st0" d="M109.4,40v0.6c0,1.5-0.4,2.2-1.7,2.2c-0.5,0-0.9-0.1-1.2-0.2l0.1-0.6c0.3,0.1,0.7,0.2,1,0.2
	c0.6,0,0.9-0.3,0.9-1.1c-0.2,0-0.5,0.1-0.8,0.1c-1.1,0-1.5-0.4-1.5-1.4v-0.1c0-1,0.6-1.5,1.6-1.5C108.9,38.1,109.4,38.6,109.4,40z
	 M107.1,39.6c0,0.6,0.2,0.8,0.8,0.8c0.3,0,0.6,0,0.8-0.1v-0.3c0-1-0.1-1.4-0.8-1.4C107.3,38.7,107.1,39,107.1,39.6L107.1,39.6z"/>
<g>
	<path class="st0" d="M122.7,28.7V28h1.1v-3.1h0l-1,0.3l-0.1-0.6l1.3-0.4h0.7V28h1v0.6H122.7z"/>
	<path class="st0" d="M126.6,28.4c-0.3-0.3-0.5-0.8-0.5-1.9v-0.2c0-1,0.1-1.5,0.4-1.8c0.3-0.3,0.6-0.4,1.2-0.4c0.6,0,1,0.1,1.2,0.4
		c0.3,0.3,0.4,0.8,0.4,1.8v0.2c0,1.1-0.1,1.5-0.4,1.8c-0.3,0.3-0.7,0.4-1.2,0.4C127.3,28.7,126.9,28.6,126.6,28.4z M128.4,27.9
		c0.2-0.2,0.2-0.6,0.2-1.4v-0.1c0-0.8,0-1.2-0.2-1.4c-0.1-0.2-0.3-0.2-0.6-0.2c-0.3,0-0.5,0.1-0.6,0.2c-0.2,0.2-0.2,0.6-0.2,1.4v0.1
		c0,0.8,0,1.2,0.2,1.4c0.1,0.1,0.3,0.2,0.6,0.2C128.1,28.1,128.3,28,128.4,27.9z"/>
</g>
<g>
	<path class="st0" d="M154.1,34.5v-0.6h1.1v-3.1h0l-1,0.3l-0.1-0.6l1.3-0.4h0.7v3.9h1v0.6H154.1z"/>
	<path class="st0" d="M157.9,34.5v-0.6h1.1v-3.1h0l-1,0.3l-0.1-0.6l1.3-0.4h0.7v3.9h1v0.6H157.9z"/>
</g>
<g>
	<path class="st0" d="M89.9,79.4v-0.6h1.1v-3.1h0l-1,0.3l-0.1-0.6l1.3-0.4h0.7v3.9h1v0.6H89.9z"/>
	<path class="st0" d="M93.5,79.4v-0.8c0-0.9,0.3-1.3,1-1.6l0.5-0.1c0.4-0.1,0.6-0.3,0.6-0.8v0c0-0.5-0.3-0.7-0.8-0.7
		c-0.4,0-0.8,0.1-1.1,0.3l-0.2-0.6c0.3-0.2,0.8-0.3,1.4-0.3c0.9,0,1.5,0.4,1.5,1.3v0.1c0,0.8-0.3,1.1-0.9,1.3l-0.5,0.2
		c-0.5,0.1-0.7,0.4-0.7,0.8v0.3h2.1v0.6H93.5z"/>
</g>
<g>
	<path class="st0" d="M30.4,54.4v-0.6h1.1v-3.1h0l-1,0.3l-0.1-0.6l1.3-0.4h0.7v3.9h1v0.6H30.4z"/>
	<path class="st0" d="M33.9,54.2l0.1-0.6c0.3,0.1,0.7,0.2,1.2,0.2c0.6,0,0.8-0.2,0.8-0.7V53c0-0.5-0.3-0.7-0.9-0.7h-0.5v-0.6h0.4
		c0.6,0,0.9-0.2,0.9-0.7v0c0-0.4-0.3-0.6-0.7-0.6c-0.4,0-0.8,0.1-1.1,0.3L34,50.1c0.3-0.2,0.8-0.3,1.4-0.3c0.8,0,1.4,0.3,1.4,1.1
		v0.1c0,0.5-0.2,0.9-0.7,1v0c0.5,0.1,0.8,0.4,0.8,1.1v0.1c0,0.9-0.5,1.3-1.6,1.3C34.7,54.4,34.3,54.3,33.9,54.2z"/>
</g>
<g>
	<path class="st0" d="M0.1,96.6v-0.6h1.1v-3.1h0l-1,0.3L0,92.5L1.3,92H2v3.9h1v0.6H0.1z"/>
	<path class="st0" d="M5.6,96.6v-0.9H3.4v-0.5L5,92h0.8L4.3,95h1.3v-1.3h0.8V95h0.5v0.7H6.4v0.9H5.6z"/>
</g>
</svg>
