<svg xmlns="http://www.w3.org/2000/svg" id="Capa_1" viewBox="0 0 210 186.57"><defs><style>.cls-1{fill:#444;}.cls-2{fill:#e6e6e6;}.cls-3{fill:#f6f6f6;}.cls-4{font-size:5px;letter-spacing:.03em;}.cls-4,.cls-5{font-family:MGPDisplayVF-Medium, 'MGP Display VF';font-variation-settings:'wght' 500, 'wdth' 100;font-weight:500;}.cls-4,.cls-6{fill:#ededed;}.cls-7{fill:#606060;}.cls-8{fill:#a0a0a0;}.cls-9{fill:#c6c6c6;font-family:MGPText-Bold, 'MGP Text';font-size:5.28px;font-weight:700;}.cls-10{fill:#fafafa;}.cls-11{fill:red;}.cls-5{fill:#323232;font-size:6.19px;letter-spacing:.02em;}</style></defs><path class="cls-7" d="M163.29,105.59l-.24-1.44c.99-.17,1.87-.28,2.64-.38,2.51-.33,4.03-.53,6.24-1.89,1.5-.93,2.65-2.91,2.84-4.93.28-2.98-1.1-5.27-3.9-6.47-4.19-1.79-11.85-2.12-11.92-2.12l.06-1.45c.32.01,8,.34,12.44,2.24,3.38,1.44,5.12,4.34,4.78,7.95-.24,2.5-1.62,4.86-3.53,6.04-2.48,1.52-4.3,1.76-6.81,2.09-.76.1-1.62.21-2.59.37Z"></path><path class="cls-8" d="M118.21,166.54c-2.25-.66-4.54-1.62-6.75-3-5.56-3.49-9.4-8.27-11.4-14.19-1.92-5.65-1.74-11.15-1.25-14.76.3-2.24,2.01-10.96,2.79-14.37.06-.25.11-.49.16-.73.64-2.84,1.02-4.55,3.03-7.01,2.46-3.01,6.62-3.28,6.8-3.29h.13c2.61-.16,7.47-.38,10.69-.09,4.16.37,6.82,2.12,9.48,6.22,2.37,3.65,3.24,7.37,4,10.65.08.36.17.72.25,1.08.82,3.43.43,6.43-1.35,10.34-1.36,2.99-2.5,5.64-2.62,7.91-.14,2.49.66,4.63,2.31,6.18,1.84,1.73,4.59,2.53,7.55,2.2,2-.23,3.64-1.19,4.89-2.87,1.71-2.3,2.45-5.79,1.89-8.89-.68-3.73-2.11-5.46-3.77-7.46-.54-.66-1.11-1.34-1.68-2.12-2.89-3.98-3.34-8.66-1.34-13.92,4.61-12.15,15.41-13.98,18.96-14.58.29-.05.55-.09.72-.13,2.14-.45,3.99-.84,5.84-3.75,1.81-2.84.11-6.78-1.31-8.1-2.77-2.57-5.48-2.74-9.98-3.03-4.12-.26-27.38-.61-37.37-.61l-66.27.04c-.51,0-24.84.33-30.91.19-1.75-.04-3.13-.01-4.24.01-2.89.06-4.35.09-6.34-1.26-2.7-1.83-3.44-3.55-4.33-6.17-.83-2.44.65-6.48,2.11-10.08.11-.26.2-.5.28-.7.38-.96,3.65-9.47,7.12-18.48,3.92-10.18,7.97-20.71,8.5-22.06l.15-.39c1.09-2.79,2.92-7.45,5.24-9.9,3.32-3.51,8.45-5.47,13.71-5.23,5.41.24,10.78,3.24,12.54,4.65,3.13,2.52,7.66,6.45,12.9,11,7.78,6.75,17.46,15.16,27.17,22.92,14.74,11.79,29.15,22.09,29.29,22.19,3.01,2.14,4.3,2.75,6.65,3.49,1.99.62,4.01.64,7.08.68.54,0,1.11.01,1.72.02,3.82.06,24.45,1,27.65,1.34l.23.02c2.93.31,4.87.52,7.74,1.78,2.6,1.14,4.09,3.48,5.18,5.18.21.34.42.65.61.93,1.26,1.82,9.11,13.92,10.5,16.18,1.48,2.4,1.41,4.64,1.38,5.84,0,.11,0,.21,0,.3,0,.21-.01,1.22-.02,2.61-.04,6.01-.12,20.08-.33,23.38-.22,3.54-1.28,6.8-2.12,9.42-.16.5-.32.98-.46,1.44-.78,2.52-1.92,4.4-3.24,6.58-.3.49-.61,1-.93,1.54-1.94,3.3-4.5,3.99-5.59,4.28h-.02c-.67.19-6.19,1.48-11.53,2.73-2.8.66-5.46,1.28-7.09,1.67-3,.71-27.83,3.19-30.79,3.37h-.13c-2.79.18-8.28.51-14.09-1.19ZM124.43,111.57c-.67-.2-1.4-.32-2.21-.4-2.26-.2-6.05-.17-10.39.09h-.13s-3.45.26-5.3,2.53c-1.7,2.08-2,3.44-2.61,6.15-.05.24-.11.48-.17.73-.75,3.29-2.47,12.04-2.76,14.18-.46,3.39-.63,8.54,1.16,13.81,1.85,5.46,5.4,9.86,10.54,13.1,7.36,4.63,15.95,4.11,19.61,3.89h.13c2.86-.18,27.61-2.65,30.43-3.32,1.63-.39,4.29-1.01,7.1-1.67,5.07-1.19,10.82-2.54,11.46-2.71h.02c.92-.25,2.83-.77,4.34-3.34.32-.55.64-1.07.94-1.56,1.3-2.15,2.33-3.85,3.03-6.12.15-.47.3-.96.47-1.47.85-2.64,1.82-5.63,2.03-8.92.2-3.24.29-17.27.33-23.26,0-1.45.01-2.41.02-2.63,0-.1,0-.21,0-.32.03-1.12.08-2.82-1.07-4.69-1.47-2.39-9.37-14.53-10.45-16.09-.21-.31-.42-.64-.65-.99-1-1.56-2.24-3.51-4.26-4.4-2.57-1.13-4.28-1.31-7.12-1.61l-.23-.02c-2.93-.31-23.17-1.26-27.47-1.33-.6,0-1.17-.02-1.71-.02-3.13-.03-5.39-.05-7.68-.77-2.54-.79-4.02-1.48-7.23-3.78-.14-.1-14.61-10.43-29.39-22.26-9.74-7.79-19.44-16.21-27.23-22.98-5.23-4.54-9.74-8.46-12.84-10.95-1.52-1.22-6.49-3.97-11.33-4.19-4.66-.21-9.19,1.5-12.1,4.58-2.04,2.16-3.85,6.76-4.82,9.23l-.15.39c-.53,1.34-4.58,11.86-8.49,22.04-3.47,9.02-6.75,17.53-7.13,18.5-.08.21-.18.45-.29.71-.81,2.01-2.72,6.72-2.07,8.62.86,2.52,1.42,3.69,3.53,5.12,1.45.98,2.45.96,5.13.9,1.13-.02,2.53-.05,4.33-.01,6.07.14,30.59-.19,30.84-.19h.01s66.27-.04,66.27-.04c10.26,0,33.26.34,37.5.61,4.61.29,7.95.51,11.26,3.58,1.8,1.67,4.22,6.69,1.65,10.74-2.32,3.65-4.89,4.19-7.17,4.67-.21.04-.47.09-.8.15-1.75.3-5.01.85-8.41,2.73-4.15,2.29-7.16,5.84-8.95,10.55-1.76,4.63-1.4,8.54,1.08,11.96.53.73,1.07,1.38,1.59,2.01,1.77,2.14,3.44,4.15,4.21,8.42.67,3.69-.2,7.72-2.27,10.5-1.58,2.13-3.77,3.41-6.32,3.7-3.57.41-6.93-.59-9.22-2.75-2.08-1.96-3.13-4.73-2.96-7.81.14-2.63,1.35-5.48,2.8-8.66,1.59-3.5,1.93-6.02,1.22-8.99-.09-.36-.17-.72-.26-1.09-.73-3.11-1.55-6.64-3.72-9.99-1.8-2.77-3.44-4.22-5.72-4.89Z"></path><circle class="cls-1" cx="162.62" cy="96.91" r="3.56"></circle><text class="cls-9" transform="translate(161.27 98.6)"><tspan x="0" y="0">1</tspan></text><circle class="cls-1" cx="141.06" cy="108.53" r="3.56"></circle><text class="cls-9" transform="translate(139.72 110.22)"><tspan x="0" y="0">2</tspan></text><circle class="cls-1" cx="140.8" cy="147.96" r="3.56"></circle><text class="cls-9" transform="translate(139.41 149.62) rotate(2.25)"><tspan x="0" y="0">3</tspan></text><circle class="cls-1" cx="127.24" cy="135.01" r="3.56"></circle><text class="cls-9" transform="translate(125.86 136.67) rotate(2.25)"><tspan x="0" y="0">4</tspan></text><circle class="cls-1" cx="125.29" cy="103.62" r="3.56"></circle><text class="cls-9" transform="translate(123.9 105.28) rotate(2.25)"><tspan x="0" y="0">5</tspan></text><circle class="cls-1" cx="105.32" cy="104.98" r="3.56"></circle><text class="cls-9" transform="translate(103.98 106.67)"><tspan x="0" y="0">6</tspan></text><circle class="cls-1" cx="112.88" cy="170.86" r="3.56"></circle><text class="cls-9" transform="translate(111.54 172.55)"><tspan x="0" y="0">7</tspan></text><circle class="cls-1" cx="199.62" cy="104.93" r="3.56"></circle><text class="cls-9" transform="translate(198.27 106.62)"><tspan x="0" y="0">9</tspan></text><circle class="cls-1" cx="180.16" cy="77.41" r="3.56"></circle><text class="cls-9" transform="translate(177.41 79.1)"><tspan x="0" y="0">10</tspan></text><circle class="cls-1" cx="135.47" cy="73.17" r="3.56"></circle><text class="cls-9" transform="translate(132.72 74.86)"><tspan x="0" y="0">11</tspan></text><circle class="cls-1" cx="43.47" cy="8.39" r="3.56"></circle><text class="cls-9" transform="translate(40.71 10.09)"><tspan x="0" y="0">12</tspan></text><circle class="cls-1" cx="188.95" cy="162.92" r="3.56"></circle><text class="cls-9" transform="translate(187.6 164.61)"><tspan x="0" y="0">8</tspan></text><circle class="cls-1" cx="5.48" cy="88.87" r="3.56"></circle><text class="cls-9" transform="translate(2.72 90.56)"><tspan x="0" y="0">13</tspan></text><line class="cls-6" x1="52.71" y1="92.2" x2="52.22" y2="83.45"></line><rect class="cls-2" x="52.1" y="83.45" width=".73" height="8.76" transform="translate(-4.89 3.12) rotate(-3.25)"></rect><path class="cls-11" d="M57.73,90.94h-10.98s-.02.02-.03.03v8.7h11.02v-8.74Z"></path><text class="cls-4" transform="translate(49.52 97.15)"><tspan x="0" y="0">FL</tspan></text><rect class="cls-10" x="47.59" y="93.85" width=".88" height="5.83"></rect><rect x="47.59" y="94.82" width=".88" height=".97"></rect><rect x="47.59" y="96.77" width=".88" height=".97"></rect><rect x="47.59" y="98.71" width=".88" height=".97"></rect><rect class="cls-10" x="46.71" y="93.85" width=".88" height="5.83"></rect><rect x="46.71" y="93.85" width=".88" height=".97"></rect><rect x="46.71" y="95.79" width=".88" height=".97"></rect><rect x="46.71" y="97.74" width=".88" height=".97"></rect><rect class="cls-10" x="47.59" y="90.94" width=".88" height="2.91"></rect><rect x="47.59" y="90.94" width=".88" height=".97"></rect><rect x="47.59" y="92.88" width=".88" height=".97"></rect><rect class="cls-10" x="46.71" y="90.94" width=".88" height="2.91"></rect><rect x="46.71" y="91.91" width=".88" height=".97"></rect><rect class="cls-6" x="109.92" y="86.75" width="9.41" height=".73" transform="translate(27.05 201.38) rotate(-89.77)"></rect><path class="cls-3" d="M118.04,90.57h-8.62s-.02.02-.03.03v7.38h8.65v-7.41Z"></path><text class="cls-5" transform="translate(111.47 96.63)"><tspan x="0" y="0">S</tspan></text><rect class="cls-2" x="115.71" y="68.25" width="12.82" height=".73" transform="translate(-3.71 130.16) rotate(-55.4)"></rect><path class="cls-11" d="M130.78,58.63h-10.94s-.02.02-.03.03v8.96h10.97v-9Z"></path><text class="cls-4" transform="translate(121.29 64.98)"><tspan x="0" y="0">i3</tspan></text><polygon class="cls-2" points="154.53 125.19 142.89 135.77 142.48 135.15 154.12 124.58 154.53 125.19"></polygon><path class="cls-11" d="M158.35,122.69h-10.14s-.02.02-.03.03v8.76h10.17v-8.79Z"></path><text class="cls-4" transform="translate(149.67 129.04)"><tspan x="0" y="0">i1</tspan></text><rect class="cls-2" x="134.39" y="162.54" width=".73" height="12.21" transform="translate(-14.87 13.04) rotate(-5.25)"></rect><path class="cls-11" d="M139.81,170.83h-10.14s-.02.02-.03.03v7.93h10.17v-7.96Z"></path><text class="cls-4" transform="translate(130.74 176.71)"><tspan x="0" y="0">i2</tspan></text></svg>