<?xml version="1.0" encoding="utf-8"?>
<!-- Generator: Adobe Illustrator 26.4.1, SVG Export Plug-In . SVG Version: 6.00 Build 0)  -->
<svg version="1.1" id="Capa_1" xmlns="http://www.w3.org/2000/svg" xmlns:xlink="http://www.w3.org/1999/xlink" x="0px" y="0px"
	 viewBox="0 0 252.8 181.7" style="enable-background:new 0 0 252.8 181.7;" xml:space="preserve">
<style type="text/css">
	.st0{fill:#9C9C9D;}
	.st1{fill:#C71517;}
	.st2{fill:#FFFFFF;}
	.st3{fill:#181D22;}
	.st4{fill:#35AA54;}
	.st5{clip-path:url(#SVGID_00000104673187823893211970000015677039401944152484_);}
	.st6{fill:#1D1E1C;}
	.st7{fill:none;stroke:#919191;stroke-width:0.25;stroke-miterlimit:10;}
	.st8{fill:#C80502;}
	.st9{fill:#9E9FA2;}
</style>
<g>
	<g>
		<path class="st0" d="M236.1,146c5.6,1.6,8.5,5.4,7.4,9.6l-0.6,2.2c-1.2,4.7-1.8,6.8-2.2,7.8c-0.1,0.3-0.2,0.5-0.3,0.7
			c-1.1,3.2-7.9,3.1-13,2.4c-1.6-0.1-89.6-4.6-100.3-5.4c-21.8-1.5-53-10.9-62.1-32.6c-2.5-6.1-1.7-13.2-7.8-14.1
			c-6.2-0.2-11.3,1.5-15.7-6.8c-2.1-4.2-11-23.1-12.5-25.2c-1.3-1.6-6.3-6.1-10.5-9.1c-5.3-3.6-13.4-9.2-13.7-19.7
			c-0.6-8.4,6.8-16.4,13.9-16.7c12.1,0.3,25.1,15.8,35.5,28.2c3.2,4.5,9.6,14.2,12.1,16.2c3.6,3.9,5.2,4.8,8.1,3.5
			c5.6-2.9,4.7-9.8-2-21c-4-6.7-12.6-14.4-15.4-16.9c-6.1-5.3-26.3-21.7-36.3-29.9c-2.7-2.3-3.1-5.4-1.1-9.2c1.2-2.3,4-7.7,9.9-7.7
			c5.9,0.4,27.6,17.8,30.4,20.1c9.9,8.5,67.8,57.2,75,62.6c9.2,7.2,7.7-4.1,18-3.6c3.8,0,7.4,1.2,9.4,1.8
			c4.6,1.5,44.1,14.8,46.2,15.5c6.5,2.3,9.8,9,7.9,16.1c-1.2,5.3-9,10.2-10.2,15.1C204.8,138.2,215.7,140.5,236.1,146z M236.5,156.1
			c0-0.1,0.5-1.9,0.6-2.1c-0.2-0.3-1-1-2.8-1.5l-1.5-0.4c-16.5-4.2-25.4-7.5-28.8-10.7c-5.5-5.2-4.8-9.9-4.5-12.3
			c0.6-6,8.3-11,10.4-16c0.8-2.8,0.3-6.6-3.6-7.9c-2.1-0.7-41.5-14-46-15.5c-3.5-1.2-5.9-1.6-7.5-1.6c-1.7,0-2.6,0.4-3.1,0.9
			c-6.2,6.6-11.8,6.6-18.8,1.4C123.7,85,65.5,36,55.6,27.5C46.9,20.1,32.5,10,29.6,9c-1,0-2.1,0.5-4,4c-0.2,0.3-0.3,0.5-0.3,0.7
			c0,0.3,5.8,5.1,6.1,5.4c9.6,7.9,25.8,21,30.1,24.8c5.2,4.6,12.7,11.5,16.8,18.3c7.4,12.4,10.4,24.3-0.7,30.5
			c-5.6,2.6-10.2,1.6-15.7-4.5c-3.1-2.5-9.2-12-12.9-17.1c-6.4-7.4-13.7-15.3-17.6-18.4c-7.4-6-10.3-6.9-12.3-6.9
			c-3.7,0.3-8,5-7.5,9.7c0.2,7.2,6.1,11.2,10.3,14.1c5.2,3.5,10.6,8.6,12.4,10.6c2,2.4,12.6,24.9,13.5,26.8
			c1.3,3.6,6.6,3.7,10.6,3.4c8.4-0.8,8.8,3.9,11.5,13.6c7.8,22.6,36.5,30.8,57.9,32.5c10.7,0.7,99.3,5.3,100.2,5.4
			c2.7,0.3,4.7,0.5,6.9,0.3C235.3,160.6,236.1,157.7,236.5,156.1"/>
	</g>
	<g>
		<g>
			<path class="st1" d="M107.5,175.6h-6.2c-1.6,0-2.8-1.3-2.8-2.8v-4.2c0-1.6,1.3-2.8,2.8-2.8h6.2c1.6,0,2.8,1.3,2.8,2.8v4.2
				C110.3,174.3,109,175.6,107.5,175.6z"/>
			<g>
				<path class="st2" d="M102.8,171.6v-0.2h1v0.1c0,0.4,0.2,0.6,0.5,0.6s0.5-0.2,0.5-0.4c0-0.3-0.1-0.4-0.5-0.5l-0.4-0.1
					c-0.6-0.2-1.2-0.5-1.2-1.3s0.6-1.3,1.5-1.3c1,0,1.5,0.5,1.5,1.4v0.1h-1v-0.2c0-0.4-0.2-0.6-0.5-0.6s-0.4,0.2-0.4,0.4
					c0,0.4,0.4,0.5,0.8,0.7h0.1c0.5,0.2,1.2,0.5,1.2,1.3c0,0.7-0.5,1.4-1.6,1.4C103.4,173,102.8,172.5,102.8,171.6z"/>
			</g>
			<path class="st1" d="M106.6,166.7c-0.3-0.1-0.4-0.4-0.3-0.7l7.2-16.7c0.1-0.3,0.4-0.4,0.7-0.3c0.3,0.1,0.4,0.4,0.3,0.7l-7.2,16.7
				C107.2,166.7,106.8,166.8,106.6,166.7z"/>
		</g>
		<g>
			<path class="st1" d="M10.6,85.5H4.4c-1.6,0-2.8-1.3-2.8-2.8v-4.2c0-1.6,1.3-2.8,2.8-2.8h6.2c1.6,0,2.8,1.3,2.8,2.8v4.2
				C13.5,84.2,12.2,85.5,10.6,85.5z"/>
			<g>
				<path class="st2" d="M5.4,77.8h1v0.9h-1C5.4,78.7,5.4,77.8,5.4,77.8z M5.5,79.1h0.9v3.5H5.5V79.1z"/>
				<path class="st2" d="M10.2,81.8L10,82.6H7.2v-0.8h1.1v-2.7l-1.1,0.5v-0.8l1.4-0.6h0.7v3.6C9.3,81.8,10.2,81.8,10.2,81.8z"/>
			</g>
			<path class="st1" d="M10.5,78.2c-0.2-0.3-0.1-0.5,0.1-0.7l13-13.1c0.3-0.2,0.5-0.1,0.7,0.1s0.1,0.5-0.1,0.7l-13,13.1
				C11,78.5,10.7,78.5,10.5,78.2z"/>
		</g>
		<g>
			<g>
				<g>
					<polygon class="st1" points="180.5,153.2 181.5,153.2 181.1,171.1 180.2,171 					"/>
					<g>
						
							<rect x="176.8" y="149.4" transform="matrix(1.808800e-02 -0.9998 0.9998 1.808800e-02 20.6354 328.0681)" class="st1" width="1" height="8.2"/>
						<path id="Shape_00000065764410594641705710000012851787520307324863_" class="st1" d="M172.7,154.4l1.4,0.8
							c0.2,0.1,0.4,0,0.4-0.2v-1.6v-1.6c0-0.2-0.2-0.3-0.4-0.2l-1.4,0.8l-1.4,0.8c-0.2,0.1-0.2,0.3,0,0.4L172.7,154.4z"/>
					</g>
				</g>
			</g>
			<g>
				<g>
					<path class="st3" d="M180.7,181h-20.1c-1.6,0-2.8-1.3-2.8-2.8v-4.3c0-1.6,1.3-2.8,2.8-2.8h20.1c1.6,0,2.8,1.3,2.8,2.8v4.2
						C183.5,179.7,182.2,181,180.7,181z"/>
					<circle class="st1" cx="163.1" cy="176.1" r="3.5"/>
					<circle class="st4" cx="171.1" cy="176" r="3.5"/>
					<g>
						<g>
							<g>
								<g>
									<defs>
										<circle id="SVGID_1_" cx="178.7" cy="176.1" r="3.5"/>
									</defs>
									<clipPath id="SVGID_00000032618468850721376430000008805239438399769273_">
										<use xlink:href="#SVGID_1_"  style="overflow:visible;"/>
									</clipPath>
									<g style="clip-path:url(#SVGID_00000032618468850721376430000008805239438399769273_);">
										<rect x="170.5" y="169.7" class="st2" width="1.8" height="1.8"/>
										<rect x="172.4" y="169.7" class="st6" width="1.8" height="1.8"/>
										<rect x="174.2" y="169.7" class="st2" width="1.8" height="1.8"/>
										<rect x="176" y="169.7" class="st6" width="1.8" height="1.8"/>
										<rect x="177.8" y="169.7" class="st2" width="1.8" height="1.8"/>
										<rect x="179.7" y="169.7" class="st6" width="1.8" height="1.8"/>
										<rect x="181.5" y="169.7" class="st2" width="1.8" height="1.8"/>
										<rect x="183.3" y="169.7" class="st6" width="1.8" height="1.8"/>
										<rect x="170.5" y="171.5" class="st6" width="1.8" height="1.8"/>
										<rect x="172.4" y="171.5" class="st2" width="1.8" height="1.8"/>
										<rect x="174.2" y="171.5" class="st6" width="1.8" height="1.8"/>
										<rect x="176" y="171.5" class="st2" width="1.8" height="1.8"/>
										<rect x="177.8" y="171.5" class="st6" width="1.8" height="1.8"/>
										<rect x="179.7" y="171.5" class="st2" width="1.8" height="1.8"/>
										<rect x="181.5" y="171.5" class="st6" width="1.8" height="1.8"/>
										<rect x="183.3" y="171.5" class="st2" width="1.8" height="1.8"/>
										<rect x="170.5" y="173.3" class="st2" width="1.8" height="1.8"/>
										<rect x="172.4" y="173.3" class="st6" width="1.8" height="1.8"/>
										<rect x="174.2" y="173.3" class="st2" width="1.8" height="1.8"/>
										<rect x="176" y="173.3" class="st6" width="1.8" height="1.8"/>
										<rect x="177.8" y="173.3" class="st2" width="1.8" height="1.8"/>
										<rect x="179.7" y="173.3" class="st6" width="1.8" height="1.8"/>
										<rect x="181.5" y="173.3" class="st2" width="1.8" height="1.8"/>
										<rect x="183.3" y="173.3" class="st6" width="1.8" height="1.8"/>
										<rect x="170.5" y="175.2" class="st6" width="1.8" height="1.8"/>
										<rect x="172.4" y="175.2" class="st2" width="1.8" height="1.8"/>
										<rect x="174.2" y="175.2" class="st6" width="1.8" height="1.8"/>
										<rect x="176" y="175.2" class="st2" width="1.8" height="1.8"/>
										<rect x="177.8" y="175.2" class="st6" width="1.8" height="1.8"/>
										<rect x="179.7" y="175.2" class="st2" width="1.8" height="1.8"/>
										<rect x="181.5" y="175.2" class="st6" width="1.8" height="1.8"/>
										<rect x="183.3" y="175.2" class="st2" width="1.8" height="1.8"/>
										<rect x="170.5" y="177" class="st2" width="1.8" height="1.8"/>
										<rect x="172.4" y="177" class="st6" width="1.8" height="1.8"/>
										<rect x="174.2" y="177" class="st2" width="1.8" height="1.8"/>
										<rect x="176" y="177" class="st6" width="1.8" height="1.8"/>
										<rect x="177.8" y="177" class="st2" width="1.8" height="1.8"/>
										<rect x="179.7" y="177" class="st6" width="1.8" height="1.8"/>
										<rect x="181.5" y="177" class="st2" width="1.8" height="1.8"/>
										<rect x="183.3" y="177" class="st6" width="1.8" height="1.8"/>
										<rect x="170.5" y="178.8" class="st6" width="1.8" height="1.8"/>
										<rect x="172.4" y="178.8" class="st2" width="1.8" height="1.8"/>
										<rect x="174.2" y="178.8" class="st6" width="1.8" height="1.8"/>
										<rect x="176" y="178.8" class="st2" width="1.8" height="1.8"/>
										<rect x="177.8" y="178.8" class="st6" width="1.8" height="1.8"/>
										<rect x="179.7" y="178.8" class="st2" width="1.8" height="1.8"/>
										<rect x="181.5" y="178.8" class="st6" width="1.8" height="1.8"/>
										<rect x="183.3" y="178.8" class="st2" width="1.8" height="1.8"/>
										<rect x="170.5" y="180.6" class="st2" width="1.8" height="1.8"/>
										<rect x="172.4" y="180.6" class="st6" width="1.8" height="1.8"/>
										<rect x="174.2" y="180.6" class="st2" width="1.8" height="1.8"/>
										<rect x="176" y="180.6" class="st6" width="1.8" height="1.8"/>
										<rect x="177.8" y="180.6" class="st2" width="1.8" height="1.8"/>
										<rect x="179.7" y="180.6" class="st6" width="1.8" height="1.8"/>
										<rect x="181.5" y="180.6" class="st2" width="1.8" height="1.8"/>
										<rect x="183.3" y="180.6" class="st6" width="1.8" height="1.8"/>
										<rect x="170.5" y="182.5" class="st6" width="1.8" height="1.8"/>
										<rect x="172.4" y="182.5" class="st2" width="1.8" height="1.8"/>
										<rect x="174.2" y="182.5" class="st6" width="1.8" height="1.8"/>
										<rect x="176" y="182.5" class="st2" width="1.8" height="1.8"/>
										<rect x="177.8" y="182.5" class="st6" width="1.8" height="1.8"/>
										<rect x="179.7" y="182.5" class="st2" width="1.8" height="1.8"/>
										<rect x="181.5" y="182.5" class="st6" width="1.8" height="1.8"/>
										<rect x="183.3" y="182.5" class="st2" width="1.8" height="1.8"/>
									</g>
								</g>
							</g>
						</g>
						<g>
							<circle id="SVGID_00000081626722910048823450000009398272281877020083_" class="st7" cx="178.7" cy="176.1" r="3.5"/>
						</g>
					</g>
				</g>
			</g>
		</g>
		<g>
			<path class="st1" d="M56.1,59.8h-6.2c-1.6,0-2.8-1.3-2.8-2.8v-4.2c0-1.6,1.3-2.8,2.8-2.8h6.2c1.6,0,2.8,1.3,2.8,2.8V57
				C59,58.5,57.7,59.8,56.1,59.8z"/>
			<g>
				<path class="st2" d="M51,52.1h1V53h-1V52.1z M51,53.4h0.9v3.5H51V53.4z"/>
				<path class="st2" d="M52.6,56.1c0-0.7,0.3-1.1,0.9-1.4l0.2-0.1c0.7-0.3,0.9-0.5,0.9-0.9c0-0.3-0.2-0.6-0.5-0.6
					c-0.4,0-0.6,0.3-0.6,0.8V54h-1v-0.1c0-1.1,0.5-1.6,1.6-1.6c0.9,0,1.5,0.5,1.5,1.4c0,0.7-0.3,1.1-1.1,1.5l-0.2,0.1
					c-0.6,0.2-0.8,0.4-0.8,0.8v0.1h2.1L55.5,57h-2.9V56.1z"/>
			</g>
			<path class="st1" d="M53.9,50.6C53.9,50.6,53.9,50.5,53.9,50.6c-0.1-0.4,0-0.6,0.2-0.7l8.7-9.3c0.3-0.2,0.6,0,0.7,0.3
				c0.2,0.3,0,0.5-0.3,0.7l-8.7,9.3C54.3,50.8,54,50.8,53.9,50.6z"/>
		</g>
		<g>
			<path class="st1" d="M170.1,76.5h-6.2c-1.6,0-2.8-1.3-2.8-2.8v-4.2c0-1.6,1.3-2.8,2.8-2.8h6.2c1.6,0,2.8,1.3,2.8,2.8v4.2
				C172.9,75.3,171.7,76.5,170.1,76.5z"/>
			<g>
				<path class="st2" d="M164.9,68.9h1v0.9h-1V68.9z M165,70.2h0.9v3.5H165V70.2z"/>
				<path class="st2" d="M166.5,72.3h1c0,0.4,0.2,0.7,0.6,0.7c0.4,0,0.6-0.2,0.6-0.6s-0.2-0.6-0.7-0.6h-0.4v-0.7h0.3
					c0.4,0,0.6-0.2,0.6-0.6c0-0.3-0.2-0.5-0.5-0.5c-0.4,0-0.6,0.2-0.6,0.7l0,0h-1l0,0c0-1,0.5-1.5,1.6-1.5c0.9,0,1.5,0.5,1.5,1.2
					c0,0.5-0.2,0.8-0.5,0.9c0.5,0.2,0.7,0.5,0.7,1c0,0.8-0.6,1.4-1.6,1.4C167,73.8,166.5,73.2,166.5,72.3z"/>
			</g>
			<path class="st1" d="M166.3,75.3c0.1,0.2,0.2,0.4,0,0.5l-7,15.5c-0.1,0.2-0.4,0.3-0.7,0.3c-0.2-0.1-0.3-0.4-0.3-0.7l7-15.5
				c0.1-0.2,0.4-0.3,0.7-0.3C166.2,75.3,166.2,75.3,166.3,75.3z"/>
		</g>
		<g>
			<path class="st8" d="M215.2,181.7H209c-1.6,0-2.8-1.3-2.8-2.8v-4.3c0-1.6,1.3-2.8,2.8-2.8h6.2c1.6,0,2.8,1.3,2.8,2.8v4.2
				C218,180.4,216.8,181.7,215.2,181.7z"/>
			<g>
				<path class="st2" d="M210.5,175.7v0.9h1.6v0.8h-1.6v1.6h-1v-3.6c0-0.6,0.3-0.9,0.9-0.9h1.8l-0.1,0.8h-1.3
					C210.6,175.4,210.5,175.5,210.5,175.7z"/>
				<path class="st2" d="M212.8,178v-3.4h1v3.3c0,0.3,0.1,0.4,0.4,0.4h1.3l-0.1,0.8H214C213.1,179.1,212.8,178.7,212.8,178z"/>
			</g>
			<path class="st1" d="M213.4,158.8c0.2,0.1,0.3,0.3,0.2,0.5l-0.6,13.4c0,0.2-0.2,0.4-0.5,0.5c-0.2,0-0.4-0.2-0.5-0.5l0.6-13.4
				c0-0.2,0.2-0.4,0.5-0.5C213.3,158.7,213.3,158.7,213.4,158.8z"/>
		</g>
	</g>
	<g>
		<path class="st9" d="M74.1,153.9v-0.6h1.1v-3.1l0,0l-1,0.3l-0.1-0.6l1.3-0.4H76v3.9h1v0.6L74.1,153.9L74.1,153.9z"/>
		<path class="st9" d="M62,141.1v-0.8c0-0.9,0.3-1.3,1-1.6l0.5-0.1c0.4-0.1,0.6-0.3,0.6-0.8l0,0c0-0.5-0.3-0.7-0.8-0.7
			c-0.4,0-0.8,0.1-1.1,0.3l-0.2-0.6c0.3-0.2,0.8-0.3,1.4-0.3c0.9,0,1.5,0.4,1.5,1.3v0.1c0,0.8-0.3,1.1-0.9,1.3l-0.5,0.2
			c-0.5,0.1-0.7,0.4-0.7,0.8v0.3h2.1v0.6H62z"/>
		<path class="st9" d="M69.5,110l0.1-0.6c0.3,0.1,0.7,0.2,1.2,0.2c0.6,0,0.8-0.2,0.8-0.7v-0.1c0-0.5-0.3-0.7-0.9-0.7h-0.5v-0.6h0.4
			c0.6,0,0.9-0.2,0.9-0.7l0,0c0-0.4-0.3-0.6-0.7-0.6c-0.4,0-0.8,0.1-1.1,0.3l-0.2-0.6c0.3-0.2,0.8-0.3,1.4-0.3
			c0.8,0,1.4,0.3,1.4,1.1v0.1c0,0.5-0.2,0.9-0.7,1l0,0c0.5,0.1,0.8,0.4,0.8,1.1v0.1c0,0.9-0.5,1.3-1.6,1.3
			C70.3,110.2,69.9,110.1,69.5,110z"/>
		<path class="st9" d="M42.2,122.2v-0.9H40v-0.5l1.6-3.1h0.8l-1.5,2.9h1.3v-1.3H43v1.3h0.5v0.7H43v0.9H42.2z"/>
		<path class="st9" d="M25.9,90.1L25.9,90.1c0,1.1-0.6,1.5-1.6,1.5c-0.6,0-1.1-0.1-1.5-0.4l0.2-0.6c0.4,0.2,0.8,0.3,1.2,0.3
			c0.6,0,0.8-0.2,0.8-0.8V90c0-0.6-0.3-0.8-0.9-0.8c-0.3,0-0.7,0-1,0.1l-0.2-0.2l0.2-2.2h2.4v0.6h-1.7l-0.1,1.1c0.2,0,0.4,0,0.5,0
			C25.4,88.7,25.9,89.2,25.9,90.1z"/>
		<path class="st9" d="M3.1,43.7L3.1,43.7c0,1.1-0.5,1.5-1.5,1.5c-1.2,0-1.6-0.6-1.6-2.1v-0.3c0-1.8,0.7-2.3,1.8-2.3
			c0.5,0,0.8,0.1,1.1,0.2l-0.1,0.6c-0.2-0.1-0.6-0.2-0.9-0.2c-0.7,0-1,0.3-1,1.2c0.3,0,0.6-0.1,0.9-0.1C2.6,42.3,3.1,42.7,3.1,43.7z
			 M2.3,43.7c0-0.6-0.2-0.8-0.7-0.8c-0.3,0-0.6,0-0.8,0.1v0.1c0,1.1,0.1,1.5,0.8,1.5C2.1,44.6,2.3,44.3,2.3,43.7L2.3,43.7z"/>
		<path class="st9" d="M87.6,95.9l1.9-3.9h-2.2v-0.6h3.1v0.5l-1.9,4H87.6z"/>
		<path class="st9" d="M16.6,3.3L16.6,3.3c0,0.9-0.5,1.3-1.6,1.3s-1.6-0.4-1.6-1.3l0,0c0-0.5,0.2-0.9,0.7-1.1
			c-0.4-0.2-0.5-0.5-0.5-1l0,0C13.5,0.4,14,0,15,0c0.9,0,1.5,0.4,1.5,1.2v0.1c0,0.5-0.2,0.8-0.5,1C16.4,2.4,16.6,2.8,16.6,3.3z
			 M15.8,3.3c0-0.5-0.2-0.7-0.8-0.7h-0.1c-0.5,0-0.8,0.2-0.8,0.7l0,0C14.2,3.8,14.4,4,15,4C15.5,4,15.8,3.8,15.8,3.3L15.8,3.3z
			 M14.3,1.3C14.3,1.7,14.5,2,15,2l0,0c0.5,0,0.7-0.2,0.7-0.7l0,0c0-0.4-0.2-0.6-0.7-0.6C14.5,0.6,14.3,0.8,14.3,1.3L14.3,1.3z"/>
		<path class="st9" d="M139.5,101v0.6c0,1.5-0.4,2.2-1.7,2.2c-0.5,0-0.9-0.1-1.2-0.2l0.1-0.6c0.3,0.1,0.7,0.2,1,0.2
			c0.6,0,0.9-0.3,0.9-1.1c-0.2,0-0.5,0.1-0.8,0.1c-1.1,0-1.5-0.4-1.5-1.4v-0.1c0-1,0.6-1.5,1.6-1.5C139.1,99.2,139.5,99.7,139.5,101
			z M137.2,100.7c0,0.6,0.2,0.8,0.8,0.8c0.3,0,0.6,0,0.8-0.1v-0.3c0-1-0.1-1.4-0.8-1.4C137.4,99.8,137.2,100.1,137.2,100.7
			L137.2,100.7z"/>
		<g>
			<path class="st9" d="M144.6,76v-0.6h1.1v-3.1l0,0l-1,0.3l-0.1-0.6l1.3-0.4h0.7v3.9h1V76H144.6z"/>
			<path class="st9" d="M148.5,75.7c-0.3-0.3-0.5-0.8-0.5-1.9v-0.2c0-1,0.1-1.5,0.4-1.8c0.3-0.3,0.6-0.4,1.2-0.4
				c0.6,0,1,0.1,1.2,0.4c0.3,0.3,0.4,0.8,0.4,1.8v0.2c0,1.1-0.1,1.5-0.4,1.8c-0.3,0.3-0.7,0.4-1.2,0.4
				C149.2,76.1,148.8,76,148.5,75.7z M150.3,75.2c0.2-0.2,0.2-0.6,0.2-1.4v-0.1c0-0.8,0-1.2-0.2-1.4c-0.1-0.2-0.3-0.2-0.6-0.2
				s-0.5,0.1-0.6,0.2c-0.2,0.2-0.2,0.6-0.2,1.4v0.1c0,0.8,0,1.2,0.2,1.4c0.1,0.1,0.3,0.2,0.6,0.2C150,75.4,150.2,75.4,150.3,75.2z"
				/>
		</g>
		<g>
			<path class="st9" d="M221.5,106.1v-0.6h1.1v-3.1l0,0l-1,0.3l-0.1-0.6l1.3-0.4h0.7v3.9h1v0.6h-3V106.1z"/>
			<path class="st9" d="M225.2,106.1v-0.6h1.1v-3.1l0,0l-1,0.3l-0.1-0.6l1.3-0.4h0.7v3.9h1v0.6h-3V106.1z"/>
		</g>
		<g>
			<path class="st9" d="M189.3,133v-0.6h1.1v-3.1l0,0l-1,0.3l-0.1-0.6l1.3-0.4h0.7v3.9h1v0.6L189.3,133L189.3,133z"/>
			<path class="st9" d="M192.9,133v-0.8c0-0.9,0.3-1.3,1-1.6l0.5-0.1c0.4-0.1,0.6-0.3,0.6-0.8l0,0c0-0.5-0.3-0.7-0.8-0.7
				c-0.4,0-0.8,0.1-1.1,0.3l-0.2-0.6c0.3-0.2,0.8-0.3,1.4-0.3c0.9,0,1.5,0.4,1.5,1.3v0.1c0,0.8-0.3,1.1-0.9,1.3l-0.5,0.2
				c-0.5,0.1-0.7,0.4-0.7,0.8v0.3h2.1v0.6H192.9z"/>
		</g>
		<g>
			<path class="st9" d="M246.3,148.9v-0.6h1.1v-3.1l0,0l-1,0.3l-0.1-0.6l1.3-0.4h0.7v3.9h1v0.6L246.3,148.9L246.3,148.9z"/>
			<path class="st9" d="M249.8,148.7l0.1-0.6c0.3,0.1,0.7,0.2,1.2,0.2c0.6,0,0.8-0.2,0.8-0.7v-0.1c0-0.5-0.3-0.7-0.9-0.7h-0.5v-0.6
				h0.4c0.6,0,0.9-0.2,0.9-0.7l0,0c0-0.4-0.3-0.6-0.7-0.6s-0.8,0.1-1.1,0.3l-0.2-0.6c0.3-0.2,0.8-0.3,1.4-0.3c0.8,0,1.4,0.3,1.4,1.1
				v0.1c0,0.5-0.2,0.9-0.7,1l0,0c0.5,0.1,0.8,0.4,0.8,1.1v0.1c0,0.9-0.5,1.3-1.6,1.3C250.7,149,250.2,148.9,249.8,148.7z"/>
		</g>
		<g>
			<path class="st9" d="M237.4,177.9v-0.6h1.1v-3.1l0,0l-1,0.3l-0.1-0.6l1.3-0.4h0.7v3.9h1v0.6L237.4,177.9L237.4,177.9z"/>
			<path class="st9" d="M242.9,177.9V177h-2.2v-0.5l1.6-3.1h0.8l-1.5,2.9h1.3V175h0.8v1.3h0.5v0.7h-0.5v0.9H242.9z"/>
		</g>
	</g>
</g>
</svg>
