<?xml version="1.0" encoding="utf-8"?>
<!-- Generator: Adobe Illustrator 26.4.1, SVG Export Plug-In . SVG Version: 6.00 Build 0)  -->
<svg version="1.1" id="Capa_1" xmlns="http://www.w3.org/2000/svg" xmlns:xlink="http://www.w3.org/1999/xlink" x="0px" y="0px"
	 viewBox="0 0 162 129.3" style="enable-background:new 0 0 162 129.3;" xml:space="preserve">
<style type="text/css">
	.st0{fill:#9E9FA2;}
	.st1{fill:#C80502;}
	.st2{fill:#FFFFFF;}
	.st3{fill:#171C21;}
	.st4{fill:#00B753;}
	.st5{clip-path:url(#SVGID_00000144336910703352817460000016475940405949076158_);}
	.st6{fill:#1D1D1B;}
	.st7{fill:none;stroke:#939393;stroke-width:0.25;stroke-miterlimit:10;}
</style>
<g>
	<path class="st0" d="M29.9,95.2c-4.4,2.5-10.2,5.5-10.2,11.1c0,10.7,14.1,9.3,21.1,9.3c12.7,0,30.2,0,42.9,0
		c12.4,0,24.9,0.1,37.3,0.1c5.8,0,11.6,0,17.4,0c4.3,0,9.4-0.2,12.6-3.5c4.3-4.5,1.8-10-1.1-14.5c-4.3-6.5-8.5-13.1-12.8-19.6
		c-3.6-5.4-10-12.2-3.9-18.2c2.1-2.4,4.2-4.8,6.3-7.2c3.2-3.7,7.3-7.5,9.4-11.9c2.6-5.4-0.5-10-3.2-14.6c-2.3-3.9-3.8-9.5-8.4-11.3
		c-4.3-1.7-10.5-1.1-15-0.6c-16.4,1.6-13.1,32.1-32.9,44c-7.8,5.1-18.3,8.4-12.9-5.4c1.8-4.7,4.3-10.2,1.7-15
		c-2.2-4-6.5-6.3-8.9-10.3c-2.7-4.4-2.8-10.3-6-14.4c-3-3.8-8-4.1-11.7-1c-4.1,3.4-4.5,8.9-5,13.8c-0.7,7-1.1,12.1-1.7,18.1
		c-0.3,2.7-0.4,4.8-1.6,5.4c-1.6,0.8-2.3-2.6-2.7-3.6c-1.9-5.2-3.1-10.5-4.8-15.7c-1.5-4.7-3.9-8-9.2-8.1c-4.1-0.1-8.7,1.7-12.3,3.6
		c-7.8,4.3-3.5,13-1.3,19.2c1.9,5.5,3.8,11,5.6,16.5c1.3,3.8,2.4,7.8,4.9,11c2.9,3.8,7,5.1,11.1,7.2c2.8,1.4,9.5,5.6,6.5,8.8
		C38.5,91.2,29.9,95.2,29.9,95.2z M44.9,80.5c-3-4.1-8.3-5.3-12.6-7.5c-5.1-2.6-6.8-6.6-8.3-11.9c-1.4-4.9-3.2-9.7-4.8-14.5
		c-1.5-4.2-4.1-8.9-4.4-13.4c-0.3-4.4,5.2-5.8,8.7-6.7c5-1.2,7,2.2,8.2,6.5c1.1,4.1,2.4,8.3,3.8,12.4c1,3.2,1.9,7.4,5.4,8.5
		c3.9,1.3,6.9-1.6,8-5c1.3-4.2,1.2-9,1.8-13.4c0.6-4.8,0.8-10.5,1.8-15.3c0.3-1.7,0.8-3.9,2.2-5c2-1.6,4.2-0.4,5.2,1.5
		c0.9,1.8,1.2,4.6,1.8,6.4c0.8,2.6,1.9,5.1,3.3,7.4c2.6,4.1,9.6,7.2,9.1,12.7c-0.4,4.5-3.1,8.8-3.9,13.3c-1.6,7.7,3,12.1,10.7,10.7
		c9.5-1.6,17.9-8.7,23.1-16.5c5.3-7.9,8.1-17.1,12-25.7c2.4-5.3,6.2-6,11.8-5.8c2.2,0.1,4.5-0.2,6.6,0.1c2.9,0.4,3.5,2.9,4.7,5.2
		c1.2,2.3,2.5,4.7,3.8,6.9c1.5,2.5,2.7,4.9,1.2,7.7c-2.1,3.9-6,7.4-8.9,10.7c-2.9,3.4-6.5,6.7-8.7,10.6c-2.7,4.7-0.9,9.3,1.8,13.5
		c5.7,8.9,11.7,17.7,17.4,26.5c3,4,4,8.6-2.2,9.9c-4.5,0.9-9.4,0.3-14,0.3c-24.8-0.1-49.6,0-74.3,0.1c-6.1,0-12.2,0.1-18.3,0.1
		c-3.4,0-10.1,0.2-11.3-2.5c-1.8-4,3.1-6.4,5.7-7.8c4.2-2.4,9.1-4.7,12.8-7.8C47.6,89.8,47.6,84.2,44.9,80.5z"/>
	<g>
		<g>
			<path class="st1" d="M56.2,129.2H50c-1.6,0-2.8-1.3-2.8-2.8v-4.2c0-1.6,1.3-2.8,2.8-2.8h6.2c1.6,0,2.8,1.3,2.8,2.8v4.2
				C59,127.9,57.7,129.2,56.2,129.2z"/>
			<g>
				<path class="st2" d="M51.5,125.2V125h1v0.1c0,0.4,0.2,0.6,0.5,0.6s0.5-0.2,0.5-0.4c0-0.3-0.1-0.4-0.5-0.5l-0.4-0.1
					c-0.6-0.2-1.2-0.5-1.2-1.3c0-0.8,0.6-1.3,1.5-1.3c1,0,1.5,0.5,1.5,1.4v0.1h-1v-0.2c0-0.4-0.2-0.6-0.5-0.6s-0.4,0.2-0.4,0.4
					c0,0.4,0.4,0.5,0.8,0.7h0.1c0.5,0.2,1.2,0.5,1.2,1.3c0,0.7-0.5,1.4-1.6,1.4C52.1,126.6,51.5,126.1,51.5,125.2z"/>
			</g>
			<path class="st1" d="M52.8,120c-0.3-0.1-0.4-0.3-0.4-0.6l0.2-15.3c0.1-0.3,0.3-0.4,0.6-0.4c0.3,0.1,0.4,0.3,0.4,0.6l-0.2,15.3
				C53.4,119.9,53,120.1,52.8,120z"/>
		</g>
		<g>
			<path class="st1" d="M9,58.7H2.8c-1.6,0-2.8-1.3-2.8-2.8v-4.2c0-1.6,1.3-2.8,2.8-2.8H9c1.6,0,2.8,1.3,2.8,2.8v4.2
				C11.9,57.4,10.6,58.7,9,58.7z"/>
			<g>
				<path class="st2" d="M3.8,51h1v0.9h-1V51z M3.9,52.3h0.9v3.5H3.9V52.3z"/>
				<path class="st2" d="M8.6,55l-0.2,0.8H5.6V55h1.1v-2.7l-1.1,0.5V52L7,51.4h0.7V55H8.6z"/>
			</g>
			<path class="st1" d="M8,52.9c0-0.3,0.2-0.5,0.5-0.5l18-3.9c0.3,0,0.5,0.2,0.5,0.5c0,0.3-0.2,0.5-0.5,0.5l-18,3.8
				C8.2,53.4,8.1,53.2,8,52.9z"/>
		</g>
		<g>
			<path class="st1" d="M78.6,20.1h-6.2c-1.6,0-2.8-1.3-2.8-2.8v-4.2c0-1.6,1.3-2.8,2.8-2.8h6.2c1.6,0,2.8,1.3,2.8,2.8v4.2
				C81.5,18.8,80.2,20.1,78.6,20.1z"/>
			<g>
				<path class="st2" d="M73.5,12.4h1v0.9h-1V12.4z M73.5,13.7h0.9v3.5h-0.9V13.7z"/>
				<path class="st2" d="M75.1,16.4c0-0.7,0.3-1.1,0.9-1.4l0.2-0.1c0.7-0.3,0.9-0.5,0.9-0.9c0-0.3-0.2-0.6-0.5-0.6
					c-0.4,0-0.6,0.3-0.6,0.8v0.1h-1v-0.1c0-1.1,0.5-1.6,1.6-1.6c0.9,0,1.5,0.5,1.5,1.4c0,0.7-0.3,1.1-1.1,1.5l-0.2,0.1
					C76.2,15.8,76,16,76,16.4v0.1h2.1L78,17.3h-2.9C75.1,17.3,75.1,16.4,75.1,16.4z"/>
			</g>
			<path class="st1" d="M57.4,24.1C57.4,24.1,57.4,24,57.4,24.1c-0.1-0.4,0.1-0.6,0.3-0.7l16.1-6.1c0.3-0.1,0.6,0.1,0.6,0.4
				c0.1,0.3-0.1,0.5-0.4,0.6l-16.1,6.1C57.6,24.4,57.4,24.3,57.4,24.1z"/>
		</g>
		<g>
			<path class="st1" d="M155.6,23.1h-6.2c-1.6,0-2.8-1.3-2.8-2.8v-4.2c0-1.6,1.3-2.8,2.8-2.8h6.2c1.6,0,2.8,1.3,2.8,2.8v4.2
				C158.4,21.9,157.2,23.1,155.6,23.1z"/>
			<g>
				<path class="st2" d="M150.4,15.5h1v0.9h-1V15.5z M150.5,16.8h0.9v3.5h-0.9V16.8z"/>
				<path class="st2" d="M152,18.9h1c0,0.4,0.2,0.7,0.6,0.7c0.4,0,0.6-0.2,0.6-0.6s-0.2-0.6-0.7-0.6h-0.4v-0.7h0.3
					c0.4,0,0.6-0.2,0.6-0.6c0-0.3-0.2-0.5-0.5-0.5c-0.4,0-0.6,0.2-0.6,0.7l0,0h-1l0,0c0-1,0.5-1.5,1.6-1.5c0.9,0,1.5,0.5,1.5,1.2
					c0,0.5-0.2,0.8-0.5,0.9c0.5,0.2,0.7,0.5,0.7,1c0,0.8-0.6,1.4-1.6,1.4C152.5,20.4,152,19.8,152,18.9z"/>
			</g>
			<path class="st1" d="M148.6,21.4c0,0.2-0.1,0.4-0.3,0.4l-14.1,7.8c-0.2,0.1-0.5,0.1-0.7-0.2c-0.1-0.2-0.1-0.5,0.2-0.7l14.1-7.8
				c0.2-0.1,0.5-0.1,0.7,0.2C148.6,21.3,148.6,21.3,148.6,21.4z"/>
		</g>
		<g>
			<g>
				<path class="st1" d="M77.3,129.3h-6.2c-1.6,0-2.8-1.3-2.8-2.8v-4.3c0-1.6,1.3-2.8,2.8-2.8h6.2c1.6,0,2.8,1.3,2.8,2.8v4.2
					C80.1,128,78.9,129.3,77.3,129.3z"/>
				<g>
					<path class="st2" d="M72.6,123.3v0.9h1.6v0.8h-1.6v1.6h-1V123c0-0.6,0.3-0.9,0.9-0.9h1.8l-0.1,0.8h-1.3
						C72.7,123,72.6,123.1,72.6,123.3z"/>
					<path class="st2" d="M74.9,125.6v-3.4h1v3.3c0,0.3,0.1,0.4,0.4,0.4h1.3l-0.1,0.8h-1.4C75.2,126.7,74.9,126.3,74.9,125.6z"/>
				</g>
				<g>
					<polygon class="st1" points="73.9,105.3 74.9,105.4 74.6,120.5 73.6,120.5 					"/>
					
						<rect x="66.7" y="105.1" transform="matrix(1 -3.442110e-03 3.442110e-03 1 -0.3629 0.2442)" class="st1" width="8.2" height="1"/>
					<path id="Shape_00000009562240328663955860000010945057737194509970_" class="st1" d="M66.1,104.6l1.4-0.8
						c0.2-0.1,0.4,0,0.4,0.2l-0.1,1.6l0,1.6c0,0.2-0.1,0.3-0.4,0.2l-1.4-0.8l-1.4-0.8c-0.2-0.1-0.2-0.3,0-0.4L66.1,104.6z"/>
				</g>
			</g>
			<g>
				<path class="st3" d="M105.3,129.3H85.2c-1.6,0-2.8-1.3-2.8-2.8v-4.3c0-1.6,1.3-2.8,2.8-2.8h20.1c1.6,0,2.8,1.3,2.8,2.8v4.2
					C108.1,128,106.8,129.3,105.3,129.3z"/>
				<circle class="st1" cx="87.7" cy="124.4" r="3.5"/>
				<circle class="st4" cx="95.7" cy="124.3" r="3.5"/>
				<g>
					<g>
						<g>
							<g>
								<defs>
									<circle id="SVGID_1_" cx="103.3" cy="124.4" r="3.5"/>
								</defs>
								<clipPath id="SVGID_00000058569842292091290890000005950115187584294021_">
									<use xlink:href="#SVGID_1_"  style="overflow:visible;"/>
								</clipPath>
								<g style="clip-path:url(#SVGID_00000058569842292091290890000005950115187584294021_);">
									<rect x="95.1" y="118" class="st2" width="1.8" height="1.8"/>
									<rect x="97" y="118" class="st6" width="1.8" height="1.8"/>
									<rect x="98.8" y="118" class="st2" width="1.8" height="1.8"/>
									<rect x="100.6" y="118" class="st6" width="1.8" height="1.8"/>
									<rect x="102.4" y="118" class="st2" width="1.8" height="1.8"/>
									<rect x="104.3" y="118" class="st6" width="1.8" height="1.8"/>
									<rect x="106.1" y="118" class="st2" width="1.8" height="1.8"/>
									<rect x="107.9" y="118" class="st6" width="1.8" height="1.8"/>
									<rect x="95.1" y="119.8" class="st6" width="1.8" height="1.8"/>
									<rect x="97" y="119.8" class="st2" width="1.8" height="1.8"/>
									<rect x="98.8" y="119.8" class="st6" width="1.8" height="1.8"/>
									<rect x="100.6" y="119.8" class="st2" width="1.8" height="1.8"/>
									<rect x="102.4" y="119.8" class="st6" width="1.8" height="1.8"/>
									<rect x="104.3" y="119.8" class="st2" width="1.8" height="1.8"/>
									<rect x="106.1" y="119.8" class="st6" width="1.8" height="1.8"/>
									<rect x="107.9" y="119.8" class="st2" width="1.8" height="1.8"/>
									<rect x="95.1" y="121.6" class="st2" width="1.8" height="1.8"/>
									<rect x="97" y="121.6" class="st6" width="1.8" height="1.8"/>
									<rect x="98.8" y="121.6" class="st2" width="1.8" height="1.8"/>
									<rect x="100.6" y="121.6" class="st6" width="1.8" height="1.8"/>
									<rect x="102.4" y="121.6" class="st2" width="1.8" height="1.8"/>
									<rect x="104.3" y="121.6" class="st6" width="1.8" height="1.8"/>
									<rect x="106.1" y="121.6" class="st2" width="1.8" height="1.8"/>
									<rect x="107.9" y="121.6" class="st6" width="1.8" height="1.8"/>
									<rect x="95.1" y="123.5" class="st6" width="1.8" height="1.8"/>
									<rect x="97" y="123.5" class="st2" width="1.8" height="1.8"/>
									<rect x="98.8" y="123.5" class="st6" width="1.8" height="1.8"/>
									<rect x="100.6" y="123.5" class="st2" width="1.8" height="1.8"/>
									<rect x="102.4" y="123.5" class="st6" width="1.8" height="1.8"/>
									<rect x="104.3" y="123.5" class="st2" width="1.8" height="1.8"/>
									<rect x="106.1" y="123.5" class="st6" width="1.8" height="1.8"/>
									<rect x="107.9" y="123.5" class="st2" width="1.8" height="1.8"/>
									<rect x="95.1" y="125.3" class="st2" width="1.8" height="1.8"/>
									<rect x="97" y="125.3" class="st6" width="1.8" height="1.8"/>
									<rect x="98.8" y="125.3" class="st2" width="1.8" height="1.8"/>
									<rect x="100.6" y="125.3" class="st6" width="1.8" height="1.8"/>
									<rect x="102.4" y="125.3" class="st2" width="1.8" height="1.8"/>
									<rect x="104.3" y="125.3" class="st6" width="1.8" height="1.8"/>
									<rect x="106.1" y="125.3" class="st2" width="1.8" height="1.8"/>
									<rect x="107.9" y="125.3" class="st6" width="1.8" height="1.8"/>
									<rect x="95.1" y="127.1" class="st6" width="1.8" height="1.8"/>
									<rect x="97" y="127.1" class="st2" width="1.8" height="1.8"/>
									<rect x="98.8" y="127.1" class="st6" width="1.8" height="1.8"/>
									<rect x="100.6" y="127.1" class="st2" width="1.8" height="1.8"/>
									<rect x="102.4" y="127.1" class="st6" width="1.8" height="1.8"/>
									<rect x="104.3" y="127.1" class="st2" width="1.8" height="1.8"/>
									<rect x="106.1" y="127.1" class="st6" width="1.8" height="1.8"/>
									<rect x="107.9" y="127.1" class="st2" width="1.8" height="1.8"/>
									<rect x="95.1" y="128.9" class="st2" width="1.8" height="1.8"/>
									<rect x="97" y="128.9" class="st6" width="1.8" height="1.8"/>
									<rect x="98.8" y="128.9" class="st2" width="1.8" height="1.8"/>
									<rect x="100.6" y="128.9" class="st6" width="1.8" height="1.8"/>
									<rect x="102.4" y="128.9" class="st2" width="1.8" height="1.8"/>
									<rect x="104.3" y="128.9" class="st6" width="1.8" height="1.8"/>
									<rect x="106.1" y="128.9" class="st2" width="1.8" height="1.8"/>
									<rect x="107.9" y="128.9" class="st6" width="1.8" height="1.8"/>
									<rect x="95.1" y="130.8" class="st6" width="1.8" height="1.8"/>
									<rect x="97" y="130.8" class="st2" width="1.8" height="1.8"/>
									<rect x="98.8" y="130.8" class="st6" width="1.8" height="1.8"/>
									<rect x="100.6" y="130.8" class="st2" width="1.8" height="1.8"/>
									<rect x="102.4" y="130.8" class="st6" width="1.8" height="1.8"/>
									<rect x="104.3" y="130.8" class="st2" width="1.8" height="1.8"/>
									<rect x="106.1" y="130.8" class="st6" width="1.8" height="1.8"/>
									<rect x="107.9" y="130.8" class="st2" width="1.8" height="1.8"/>
								</g>
							</g>
						</g>
					</g>
					<g>
						<circle id="SVGID_00000144296943906409727320000012260001983509527997_" class="st7" cx="103.3" cy="124.4" r="3.5"/>
					</g>
				</g>
			</g>
		</g>
	</g>
	<g>
		<path class="st0" d="M13.4,119.5v-0.6h1.1v-3.1h0l-1,0.3l-0.1-0.6l1.3-0.4h0.7v3.9h1v0.6H13.4z"/>
		<path class="st0" d="M51,88.2v-0.8c0-0.9,0.3-1.3,1-1.6l0.5-0.1c0.4-0.1,0.6-0.3,0.6-0.8v0c0-0.5-0.3-0.7-0.8-0.7
			c-0.4,0-0.8,0.1-1.1,0.3L51,83.9c0.3-0.2,0.8-0.3,1.4-0.3c0.9,0,1.5,0.4,1.5,1.3v0.1c0,0.8-0.3,1.1-0.9,1.3l-0.5,0.2
			c-0.5,0.1-0.7,0.4-0.7,0.8v0.3h2.1v0.6H51z"/>
		<path class="st0" d="M17.6,79.6l0.1-0.6c0.3,0.1,0.7,0.2,1.2,0.2c0.6,0,0.8-0.2,0.8-0.7v-0.1c0-0.5-0.3-0.7-0.9-0.7h-0.5v-0.6h0.4
			c0.6,0,0.9-0.2,0.9-0.7v0c0-0.4-0.3-0.6-0.7-0.6c-0.4,0-0.8,0.1-1.1,0.3l-0.2-0.6c0.3-0.2,0.8-0.3,1.4-0.3c0.8,0,1.4,0.3,1.4,1.1
			v0.1c0,0.5-0.2,0.9-0.7,1v0c0.5,0.1,0.8,0.4,0.8,1.1v0.1c0,0.9-0.5,1.3-1.6,1.3C18.4,79.9,17.9,79.8,17.6,79.6z"/>
		<path class="st0" d="M4.2,27.5v-0.9H2v-0.5L3.6,23h0.8l-1.5,2.9h1.3v-1.3H5v1.3h0.5v0.7H5v0.9H4.2z"/>
		<path class="st0" d="M31.8,15.2L31.8,15.2c0,1.1-0.6,1.5-1.6,1.5c-0.6,0-1.1-0.1-1.5-0.4l0.2-0.6c0.4,0.2,0.8,0.3,1.2,0.3
			c0.6,0,0.8-0.2,0.8-0.8v-0.1c0-0.6-0.3-0.8-0.9-0.8c-0.3,0-0.7,0-1,0.1l-0.2-0.2l0.2-2.2h2.4v0.6h-1.7l-0.1,1.1c0.2,0,0.4,0,0.5,0
			C31.3,13.9,31.8,14.3,31.8,15.2z"/>
		<path class="st0" d="M44.8,62.4L44.8,62.4c0,1.1-0.5,1.5-1.5,1.5c-1.2,0-1.6-0.6-1.6-2.1v-0.3c0-1.8,0.7-2.3,1.8-2.3
			c0.5,0,0.8,0.1,1.1,0.2l-0.1,0.6c-0.2-0.1-0.6-0.2-0.9-0.2c-0.7,0-1,0.3-1,1.2c0.3,0,0.6-0.1,0.9-0.1C44.3,61,44.8,61.5,44.8,62.4
			z M44,62.4c0-0.6-0.2-0.8-0.7-0.8c-0.3,0-0.6,0-0.8,0.1v0.1c0,1.1,0.1,1.5,0.8,1.5C43.8,63.3,44,63.1,44,62.4L44,62.4z"/>
		<path class="st0" d="M56.1,4.5L58,0.6h-2.2V0h3.1v0.5l-1.9,4H56.1z"/>
		<path class="st0" d="M62.6,36.3L62.6,36.3c0,0.9-0.5,1.3-1.6,1.3c-1.1,0-1.6-0.4-1.6-1.3v0c0-0.5,0.2-0.9,0.7-1.1
			c-0.4-0.2-0.5-0.5-0.5-1v0c0-0.8,0.5-1.2,1.5-1.2c0.9,0,1.5,0.4,1.5,1.2v0.1c0,0.5-0.2,0.8-0.5,1C62.4,35.4,62.6,35.7,62.6,36.3z
			 M61.8,36.3c0-0.5-0.2-0.7-0.8-0.7H61c-0.5,0-0.8,0.2-0.8,0.7v0c0,0.5,0.2,0.7,0.8,0.7C61.6,37,61.8,36.8,61.8,36.3L61.8,36.3z
			 M60.3,34.3c0,0.4,0.2,0.7,0.7,0.7H61c0.5,0,0.7-0.2,0.7-0.7v0c0-0.4-0.2-0.6-0.7-0.6C60.5,33.6,60.3,33.8,60.3,34.3L60.3,34.3z"
			/>
		<path class="st0" d="M85.7,35.8v0.6c0,1.5-0.4,2.2-1.7,2.2c-0.5,0-0.9-0.1-1.2-0.2l0.1-0.6c0.3,0.1,0.7,0.2,1,0.2
			c0.6,0,0.9-0.3,0.9-1.1c-0.2,0-0.5,0.1-0.8,0.1c-1.1,0-1.5-0.4-1.5-1.4v-0.1c0-1,0.6-1.5,1.6-1.5C85.2,33.9,85.7,34.4,85.7,35.8z
			 M83.4,35.4c0,0.6,0.2,0.8,0.8,0.8c0.3,0,0.6,0,0.8-0.1v-0.3c0-1-0.1-1.4-0.8-1.4C83.6,34.5,83.4,34.8,83.4,35.4L83.4,35.4z"/>
		<g>
			<path class="st0" d="M66.3,75.1v-0.6h1.1v-3.1h0l-1,0.3L66.2,71l1.3-0.4h0.7v3.9h1v0.6H66.3z"/>
			<path class="st0" d="M70.2,74.9c-0.3-0.3-0.5-0.8-0.5-1.9v-0.2c0-1,0.1-1.5,0.4-1.8c0.3-0.3,0.6-0.4,1.2-0.4c0.6,0,1,0.1,1.2,0.4
				c0.3,0.3,0.4,0.8,0.4,1.8V73c0,1.1-0.1,1.5-0.4,1.8c-0.3,0.3-0.7,0.4-1.2,0.4C70.9,75.2,70.5,75.1,70.2,74.9z M72,74.3
				c0.2-0.2,0.2-0.6,0.2-1.4v-0.1c0-0.8,0-1.2-0.2-1.4c-0.1-0.2-0.3-0.2-0.6-0.2c-0.3,0-0.5,0.1-0.6,0.2c-0.2,0.2-0.2,0.6-0.2,1.4
				v0.1c0,0.8,0,1.2,0.2,1.4c0.1,0.1,0.3,0.2,0.6,0.2C71.7,74.6,71.9,74.5,72,74.3z"/>
		</g>
		<g>
			<path class="st0" d="M108.8,53.2v-0.6h1.1v-3.1h0l-1,0.3l-0.1-0.6l1.3-0.4h0.7v3.9h1v0.6H108.8z"/>
			<path class="st0" d="M112.5,53.2v-0.6h1.1v-3.1h0l-1,0.3l-0.1-0.6l1.3-0.4h0.7v3.9h1v0.6H112.5z"/>
		</g>
		<g>
			<path class="st0" d="M109.2,10.3V9.7h1.1V6.5h0l-1,0.3l-0.1-0.6l1.3-0.4h0.7v3.9h1v0.6H109.2z"/>
			<path class="st0" d="M112.8,10.3V9.5c0-0.9,0.3-1.3,1-1.6l0.5-0.1c0.4-0.1,0.6-0.3,0.6-0.8v0c0-0.5-0.3-0.7-0.8-0.7
				c-0.4,0-0.8,0.1-1.1,0.3L112.9,6c0.3-0.2,0.8-0.3,1.4-0.3c0.9,0,1.5,0.4,1.5,1.3V7c0,0.8-0.3,1.1-0.9,1.3l-0.5,0.2
				c-0.5,0.1-0.7,0.4-0.7,0.8v0.3h2.1v0.6H112.8z"/>
		</g>
		<g>
			<path class="st0" d="M133.6,10.3V9.6h1.1V6.5h0l-1,0.3l-0.1-0.6l1.3-0.4h0.7v3.9h1v0.6H133.6z"/>
			<path class="st0" d="M137.1,10.1l0.1-0.6c0.3,0.1,0.7,0.2,1.2,0.2c0.6,0,0.8-0.2,0.8-0.7V8.9c0-0.5-0.3-0.7-0.9-0.7h-0.5V7.6h0.4
				c0.6,0,0.9-0.2,0.9-0.7v0c0-0.4-0.3-0.6-0.7-0.6c-0.4,0-0.8,0.1-1.1,0.3L137.2,6c0.3-0.2,0.8-0.3,1.4-0.3c0.8,0,1.4,0.3,1.4,1.1
				v0.1c0,0.5-0.2,0.9-0.7,1v0c0.5,0.1,0.8,0.4,0.8,1.1V9c0,0.9-0.5,1.3-1.6,1.3C137.9,10.3,137.4,10.2,137.1,10.1z"/>
		</g>
		<g>
			<path class="st0" d="M153.7,43.1v-0.6h1.1v-3.1h0l-1,0.3l-0.1-0.6l1.3-0.4h0.7v3.9h1v0.6H153.7z"/>
			<path class="st0" d="M159.2,43.1v-0.9H157v-0.5l1.6-3.1h0.8l-1.5,2.9h1.3v-1.3h0.8v1.3h0.5v0.7H160v0.9H159.2z"/>
		</g>
		<g>
			<path class="st0" d="M114.4,69.9v-0.6h1.1v-3.1h0l-1,0.3l-0.1-0.6l1.3-0.4h0.7v3.9h1v0.6H114.4z"/>
			<path class="st0" d="M120.9,68.5L120.9,68.5c0,1.1-0.6,1.5-1.6,1.5c-0.6,0-1.1-0.1-1.5-0.4l0.2-0.6c0.4,0.2,0.8,0.3,1.2,0.3
				c0.6,0,0.8-0.2,0.8-0.8v-0.1c0-0.6-0.3-0.8-0.9-0.8c-0.3,0-0.7,0-1,0.1l-0.2-0.2l0.2-2.2h2.4V66h-1.7l-0.1,1.1c0.2,0,0.4,0,0.5,0
				C120.5,67.1,120.9,67.5,120.9,68.5z"/>
		</g>
		<g>
			<path class="st0" d="M153.7,119.5v-0.6h1.1v-3.1h0l-1,0.3l-0.1-0.6l1.3-0.4h0.7v3.9h1v0.6H153.7z"/>
			<path class="st0" d="M160.4,118L160.4,118c0,1.1-0.5,1.5-1.5,1.5c-1.2,0-1.6-0.6-1.6-2.1v-0.3c0-1.8,0.7-2.3,1.8-2.3
				c0.5,0,0.8,0.1,1.1,0.2l-0.1,0.6c-0.2-0.1-0.6-0.2-0.9-0.2c-0.7,0-1,0.3-1,1.2c0.3,0,0.6-0.1,0.9-0.1
				C159.9,116.6,160.4,117.1,160.4,118z M159.6,118c0-0.6-0.2-0.8-0.7-0.8c-0.3,0-0.6,0-0.8,0.1v0.1c0,1.1,0.1,1.5,0.8,1.5
				C159.4,118.9,159.6,118.7,159.6,118L159.6,118z"/>
		</g>
	</g>
</g>
</svg>
