<?xml version="1.0" encoding="utf-8"?>
<!-- Generator: Adobe Illustrator 26.4.1, SVG Export Plug-In . SVG Version: 6.00 Build 0)  -->
<svg version="1.1" id="Capa_1" xmlns="http://www.w3.org/2000/svg" xmlns:xlink="http://www.w3.org/1999/xlink" x="0px" y="0px"
	 viewBox="0 0 149.6 194.3" style="enable-background:new 0 0 149.6 194.3;" xml:space="preserve">
<style type="text/css">
	.st0{fill:#9E9FA2;}
	.st1{fill:#C80502;}
	.st2{fill:#FFFFFF;}
	.st3{fill:#171C21;}
	.st4{fill:#00B753;}
	.st5{clip-path:url(#SVGID_00000102521001228129834860000017061378805623126704_);}
	.st6{fill:#1D1D1B;}
	.st7{fill:none;stroke:#939393;stroke-width:0.25;stroke-miterlimit:10;}
</style>
<g>
	<path class="st0" d="M29.6,184.2c-1.9,0-3.5-0.5-4.8-1.5c-1.4-1.1-3-3.1-2.8-7.1c0.2-5.7,4.2-29.9,4.4-31.4
		c0.1-0.9,1.1-6.3,6.5-8.4c1.3-0.5,3.1-0.9,5.5-1.4c6-1.2,15.9-3.3,18.1-8.5c1.7-4.1,1.2-24.8,0.5-36.9v-0.1v-0.1
		c0-0.5-0.3-3.4-4.8-4.3c-0.6-0.1-1.1-0.2-1.7-0.3c-5.9-1.2-13.3-2.6-18.9-10.1c-0.2-0.3-21.4-29.2-20.5-41.9
		c0.5-7.3,2.9-16.4,8-20.3c2-1.5,4.4-2.1,6.8-1.6c0.6,0.1,3,0.7,4.5,3.1c1.5,2.3,1.6,5.5,0.5,9.4c-0.7,2.2-1.4,4.2-2,6
		c-1.4,4-2.7,7.5-1.5,8.4c1.1,0.9,4,0.9,5.6,0.7l96-17.8c0.5-0.1,5.3-1,8.3,1.3c3.2,2.4,3.2,5.8,3.1,7.9c0,0.2,0,0.5,0,0.7
		c0,2-1.5,23.7-1.7,26.2c-0.3,2.6-1.8,7-5.7,7.6c-1.6,0.3-2.9,0-3.9-0.2c-1.2-0.3-2-0.4-3.8,0.1c-2.2,0.7-4.3,3.1-3.8,5.9
		s9,12.4,16.5,19.6c0.5,0.5,2.3,2.3,2.3,5.3c0,2.2-0.3,23-0.3,24.7c0,1.1-0.2,4.9-5,9.1c-1.3,1.1-10.6,10.8-16.7,17
		c-0.7,0.8-4.2,4.2-12.1,3c-3.8-0.6-6-0.6-10.9,1.1c-2.4,0.8-3.6,2.1-6,4.6c-1.1,1.2-2.6,2.7-4.4,4.4c-6.6,6.2-42.4,22.2-51.4,25.1
		C32.1,184,30.8,184.2,29.6,184.2z M62.2,88.8c0.2,3.7,1.8,32.6-0.9,39.1c-3.2,7.7-14.4,10-21.8,11.6c-1.9,0.4-3.8,0.8-4.7,1.1
		c-2.8,1.1-3.3,4.1-3.3,4.3v0.1c0,0.3-4.1,25.4-4.4,30.9c0,1,0.1,2.2,0.8,2.8s2.3,0.6,4,0c9.2-2.9,44-18.9,49.5-24
		c1.8-1.7,3.1-3,4.2-4.2c2.6-2.7,4.5-4.7,8.1-5.9c5.8-2,8.7-2,13.4-1.3c5.4,0.8,7.4-1.2,7.4-1.3l0.2-0.2c1.5-1.6,15.2-15.7,17-17.4
		c2.9-2.5,3.2-4.5,3.2-4.9l-0.1-0.2l0.1-0.1c0-0.2,0.3-22.6,0.3-24.7c0-0.9-0.6-1.5-0.6-1.5l-0.1-0.1l0,0
		c-2.8-2.7-16.9-16.6-18.1-22.4c-1-5,2.1-10.1,7.2-11.8c3.1-1,5.1-0.6,6.5-0.3c0.8,0.2,1.3,0.3,2,0.2c0.6-0.1,1.2-1.8,1.4-2.9
		c0.7-9.5,1.7-24.4,1.7-25.7c0-0.3,0-0.5,0-0.8c0-2,0-2.9-1-3.6c-0.9-0.7-3.2-0.6-4.3-0.4L33.8,43.1c-0.7,0.1-6.3,0.9-9.7-1.7
		c-4-3.2-2.2-8.3-0.1-14.1c0.6-1.7,1.3-3.7,2-5.8c0.7-2.3,0.7-4.1,0.2-5.1c-0.4-0.7-1-0.8-1.1-0.8h-0.2H25c-0.9-0.2-1.8,0-2.7,0.7
		c-2.9,2.2-5.4,9-6,16.5c-0.6,8,12.4,29,19.5,38.4c4.4,5.9,9.9,6.9,15.7,8.1c0.6,0.1,1.2,0.2,1.8,0.4C60.3,80.9,62.2,86.1,62.2,88.8
		z M135,119.6L135,119.6L135,119.6z"/>
	<g>
		<g>
			<path class="st1" d="M118.1,17h-6.2c-1.6,0-2.8-1.3-2.8-2.8V10c0-1.6,1.3-2.8,2.8-2.8h6.2c1.6,0,2.8,1.3,2.8,2.8v4.2
				C120.9,15.7,119.6,17,118.1,17z"/>
			<g>
				<path class="st2" d="M113.4,13v-0.2h1v0.1c0,0.4,0.2,0.6,0.5,0.6s0.5-0.2,0.5-0.4c0-0.3-0.1-0.4-0.5-0.5l-0.4-0.1
					c-0.6-0.2-1.2-0.5-1.2-1.3s0.6-1.3,1.5-1.3c1,0,1.5,0.5,1.5,1.4v0.1h-1v-0.2c0-0.4-0.2-0.6-0.5-0.6s-0.4,0.2-0.4,0.4
					c0,0.4,0.4,0.5,0.8,0.7h0.1c0.5,0.2,1.2,0.5,1.2,1.3c0,0.7-0.5,1.4-1.6,1.4C114,14.4,113.4,13.9,113.4,13z"/>
			</g>
			<path class="st1" d="M119,30.7c-0.3,0-0.5-0.2-0.5-0.5l-3.2-15c0-0.3,0.2-0.5,0.5-0.5s0.5,0.2,0.5,0.5l3.2,15
				C119.5,30.5,119.2,30.7,119,30.7z"/>
		</g>
		<g>
			<path class="st1" d="M146.8,83.6h-6.2c-1.6,0-2.8-1.3-2.8-2.8v-4.2c0-1.6,1.3-2.8,2.8-2.8h6.2c1.6,0,2.8,1.3,2.8,2.8v4.2
				C149.7,82.3,148.4,83.6,146.8,83.6z"/>
			<g>
				<path class="st2" d="M141.6,75.9h1v0.9h-1V75.9z M141.7,77.2h0.9v3.5h-0.9V77.2z"/>
				<path class="st2" d="M146.4,79.9l-0.2,0.8h-2.8v-0.8h1.1v-2.7l-1.1,0.5v-0.8l1.4-0.6h0.7v3.6H146.4z"/>
			</g>
			<path class="st1" d="M122.2,90.8c-0.1-0.3,0.1-0.5,0.4-0.6l16.4-8.4c0.3-0.1,0.5,0.1,0.6,0.4s-0.1,0.5-0.4,0.6l-16.4,8.3
				C122.5,91.2,122.3,91.1,122.2,90.8z"/>
		</g>
		<g>
			<path class="st1" d="M55.3,191.8h-6.2c-1.6,0-2.8-1.3-2.8-2.8v-4.2c0-1.6,1.3-2.8,2.8-2.8h6.2c1.6,0,2.8,1.3,2.8,2.8v4.2
				C58.2,190.5,56.9,191.8,55.3,191.8z"/>
			<g>
				<path class="st2" d="M50.2,184.1h1v0.9h-1V184.1z M50.2,185.4h0.9v3.5h-0.9V185.4z"/>
				<path class="st2" d="M51.8,188.1c0-0.7,0.3-1.1,0.9-1.4l0.2-0.1c0.7-0.3,0.9-0.5,0.9-0.9c0-0.3-0.2-0.6-0.5-0.6
					c-0.4,0-0.6,0.3-0.6,0.8v0.1h-1v-0.1c0-1.1,0.5-1.6,1.6-1.6c0.9,0,1.5,0.5,1.5,1.4c0,0.7-0.3,1.1-1.1,1.5l-0.2,0.1
					c-0.6,0.2-0.8,0.4-0.8,0.8v0.1h2.1l-0.1,0.8h-2.9C51.8,189,51.8,188.1,51.8,188.1z"/>
			</g>
			<path class="st1" d="M45.1,166.3C45.1,166.3,45.2,166.3,45.1,166.3c0.4-0.1,0.6,0.1,0.7,0.3l6.6,15.9c0.1,0.3-0.1,0.6-0.4,0.6
				c-0.3,0.1-0.5-0.1-0.6-0.4l-6.6-15.9C44.8,166.6,44.9,166.4,45.1,166.3z"/>
		</g>
		<g>
			<path class="st1" d="M75.5,104.2h-6.2c-1.6,0-2.8-1.3-2.8-2.8v-4.2c0-1.6,1.3-2.8,2.8-2.8h6.2c1.6,0,2.8,1.3,2.8,2.8v4.2
				C78.3,103,77.1,104.2,75.5,104.2z"/>
			<g>
				<path class="st2" d="M70.3,96.6h1v0.9h-1V96.6z M70.4,97.9h0.9v3.5h-0.9V97.9z"/>
				<path class="st2" d="M71.9,100h1c0,0.4,0.2,0.7,0.6,0.7c0.4,0,0.6-0.2,0.6-0.6s-0.2-0.6-0.7-0.6H73v-0.7h0.3
					c0.4,0,0.6-0.2,0.6-0.6c0-0.3-0.2-0.5-0.5-0.5c-0.4,0-0.6,0.2-0.6,0.7l0,0h-1l0,0c0-1,0.5-1.5,1.6-1.5c0.9,0,1.5,0.5,1.5,1.2
					c0,0.5-0.2,0.8-0.5,0.9c0.5,0.2,0.7,0.5,0.7,1c0,0.8-0.6,1.4-1.6,1.4C72.4,101.5,71.9,100.9,71.9,100z"/>
			</g>
			<path class="st1" d="M67.7,99.2c-0.1,0.2-0.3,0.3-0.4,0.2l-16.1,0.2c-0.2,0-0.5-0.2-0.5-0.5c0-0.2,0.2-0.5,0.5-0.5l16.1-0.2
				c0.2,0,0.5,0.2,0.5,0.5C67.8,99.1,67.8,99.1,67.7,99.2z"/>
		</g>
		<g>
			<g>
				<path class="st1" d="M47.6,27.4h-6.2c-1.6,0-2.8-1.3-2.8-2.8v-4.3c0-1.6,1.3-2.8,2.8-2.8h6.2c1.6,0,2.8,1.3,2.8,2.8v4.2
					C50.4,26.1,49.2,27.4,47.6,27.4z"/>
				<g>
					<path class="st2" d="M42.9,21.4v0.9h1.6v0.8h-1.6v1.6h-1v-3.6c0-0.6,0.3-0.9,0.9-0.9h1.8L44.5,21h-1.3
						C43,21.1,42.9,21.2,42.9,21.4z"/>
					<path class="st2" d="M45.2,23.7v-3.4h1v3.3c0,0.3,0.1,0.4,0.4,0.4h1.3l-0.1,0.8h-1.4C45.5,24.8,45.2,24.4,45.2,23.7z"/>
				</g>
				<g>
					<polygon class="st1" points="50.9,43.4 49.9,43.6 46.1,26.2 47.1,26 					"/>
					
						<rect x="49.9" y="41.8" transform="matrix(0.9811 -0.1935 0.1935 0.9811 -7.1651 11.2566)" class="st1" width="8.2" height="1"/>
					<path id="Shape_17_" class="st1" d="M58.8,42.4l-1.2,1c-0.2,0.1-0.4,0.1-0.4-0.1l-0.3-1.6l-0.3-1.5c0-0.2,0.1-0.3,0.4-0.3
						l1.5,0.5l1.5,0.5c0.2,0.1,0.3,0.3,0.1,0.4L58.8,42.4z"/>
				</g>
			</g>
			<g>
				<path class="st3" d="M75.6,27.4H55.5c-1.6,0-2.8-1.3-2.8-2.8v-4.3c0-1.6,1.3-2.8,2.8-2.8h20.1c1.6,0,2.8,1.3,2.8,2.8v4.2
					C78.4,26.1,77.1,27.4,75.6,27.4z"/>
				<circle class="st1" cx="58" cy="22.5" r="3.5"/>
				<circle class="st4" cx="66" cy="22.4" r="3.5"/>
				<g>
					<g>
						<g>
							<g>
								<defs>
									<circle id="SVGID_00000064348920266668743550000001338305427881073029_" cx="73.6" cy="22.5" r="3.5"/>
								</defs>
								<clipPath id="SVGID_00000014591899569865893300000014568723059247149955_">
									<use xlink:href="#SVGID_00000064348920266668743550000001338305427881073029_"  style="overflow:visible;"/>
								</clipPath>
								<g style="clip-path:url(#SVGID_00000014591899569865893300000014568723059247149955_);">
									<rect x="65.4" y="16.1" class="st2" width="1.8" height="1.8"/>
									<rect x="67.3" y="16.1" class="st6" width="1.8" height="1.8"/>
									<rect x="69.1" y="16.1" class="st2" width="1.8" height="1.8"/>
									<rect x="70.9" y="16.1" class="st6" width="1.8" height="1.8"/>
									<rect x="72.7" y="16.1" class="st2" width="1.8" height="1.8"/>
									<rect x="74.6" y="16.1" class="st6" width="1.8" height="1.8"/>
									<rect x="76.4" y="16.1" class="st2" width="1.8" height="1.8"/>
									<rect x="78.2" y="16.1" class="st6" width="1.8" height="1.8"/>
									<rect x="65.4" y="17.9" class="st6" width="1.8" height="1.8"/>
									<rect x="67.3" y="17.9" class="st2" width="1.8" height="1.8"/>
									<rect x="69.1" y="17.9" class="st6" width="1.8" height="1.8"/>
									<rect x="70.9" y="17.9" class="st2" width="1.8" height="1.8"/>
									<rect x="72.7" y="17.9" class="st6" width="1.8" height="1.8"/>
									<rect x="74.6" y="17.9" class="st2" width="1.8" height="1.8"/>
									<rect x="76.4" y="17.9" class="st6" width="1.8" height="1.8"/>
									<rect x="78.2" y="17.9" class="st2" width="1.8" height="1.8"/>
									<rect x="65.4" y="19.7" class="st2" width="1.8" height="1.8"/>
									<rect x="67.3" y="19.7" class="st6" width="1.8" height="1.8"/>
									<rect x="69.1" y="19.7" class="st2" width="1.8" height="1.8"/>
									<rect x="70.9" y="19.7" class="st6" width="1.8" height="1.8"/>
									<rect x="72.7" y="19.7" class="st2" width="1.8" height="1.8"/>
									<rect x="74.6" y="19.7" class="st6" width="1.8" height="1.8"/>
									<rect x="76.4" y="19.7" class="st2" width="1.8" height="1.8"/>
									<rect x="78.2" y="19.7" class="st6" width="1.8" height="1.8"/>
									<rect x="65.4" y="21.6" class="st6" width="1.8" height="1.8"/>
									<rect x="67.3" y="21.6" class="st2" width="1.8" height="1.8"/>
									<rect x="69.1" y="21.6" class="st6" width="1.8" height="1.8"/>
									<rect x="70.9" y="21.6" class="st2" width="1.8" height="1.8"/>
									<rect x="72.7" y="21.6" class="st6" width="1.8" height="1.8"/>
									<rect x="74.6" y="21.6" class="st2" width="1.8" height="1.8"/>
									<rect x="76.4" y="21.6" class="st6" width="1.8" height="1.8"/>
									<rect x="78.2" y="21.6" class="st2" width="1.8" height="1.8"/>
									<rect x="65.4" y="23.4" class="st2" width="1.8" height="1.8"/>
									<rect x="67.3" y="23.4" class="st6" width="1.8" height="1.8"/>
									<rect x="69.1" y="23.4" class="st2" width="1.8" height="1.8"/>
									<rect x="70.9" y="23.4" class="st6" width="1.8" height="1.8"/>
									<rect x="72.7" y="23.4" class="st2" width="1.8" height="1.8"/>
									<rect x="74.6" y="23.4" class="st6" width="1.8" height="1.8"/>
									<rect x="76.4" y="23.4" class="st2" width="1.8" height="1.8"/>
									<rect x="78.2" y="23.4" class="st6" width="1.8" height="1.8"/>
									<rect x="65.4" y="25.2" class="st6" width="1.8" height="1.8"/>
									<rect x="67.3" y="25.2" class="st2" width="1.8" height="1.8"/>
									<rect x="69.1" y="25.2" class="st6" width="1.8" height="1.8"/>
									<rect x="70.9" y="25.2" class="st2" width="1.8" height="1.8"/>
									<rect x="72.7" y="25.2" class="st6" width="1.8" height="1.8"/>
									<rect x="74.6" y="25.2" class="st2" width="1.8" height="1.8"/>
									<rect x="76.4" y="25.2" class="st6" width="1.8" height="1.8"/>
									<rect x="78.2" y="25.2" class="st2" width="1.8" height="1.8"/>
									<rect x="65.4" y="27" class="st2" width="1.8" height="1.8"/>
									<rect x="67.3" y="27" class="st6" width="1.8" height="1.8"/>
									<rect x="69.1" y="27" class="st2" width="1.8" height="1.8"/>
									<rect x="70.9" y="27" class="st6" width="1.8" height="1.8"/>
									<rect x="72.7" y="27" class="st2" width="1.8" height="1.8"/>
									<rect x="74.6" y="27" class="st6" width="1.8" height="1.8"/>
									<rect x="76.4" y="27" class="st2" width="1.8" height="1.8"/>
									<rect x="78.2" y="27" class="st6" width="1.8" height="1.8"/>
									<rect x="65.4" y="28.9" class="st6" width="1.8" height="1.8"/>
									<rect x="67.3" y="28.9" class="st2" width="1.8" height="1.8"/>
									<rect x="69.1" y="28.9" class="st6" width="1.8" height="1.8"/>
									<rect x="70.9" y="28.9" class="st2" width="1.8" height="1.8"/>
									<rect x="72.7" y="28.9" class="st6" width="1.8" height="1.8"/>
									<rect x="74.6" y="28.9" class="st2" width="1.8" height="1.8"/>
									<rect x="76.4" y="28.9" class="st6" width="1.8" height="1.8"/>
									<rect x="78.2" y="28.9" class="st2" width="1.8" height="1.8"/>
								</g>
							</g>
						</g>
					</g>
					<g>
						<circle id="SVGID_1_" class="st7" cx="73.6" cy="22.5" r="3.5"/>
					</g>
				</g>
			</g>
		</g>
	</g>
	<g>
		<path class="st0" d="M143.6,17.8v-0.6h1.1V14h0l-1,0.3l-0.1-0.6l1.3-0.4h0.7v3.9h1v0.6H143.6z"/>
		<path class="st0" d="M140.3,68.3v-0.8c0-0.9,0.3-1.3,1-1.6l0.5-0.1c0.4-0.1,0.6-0.3,0.6-0.8v0c0-0.5-0.3-0.7-0.8-0.7
			c-0.4,0-0.8,0.1-1.1,0.3l-0.2-0.6c0.3-0.2,0.8-0.3,1.4-0.3c0.9,0,1.5,0.4,1.5,1.3V65c0,0.8-0.3,1.1-0.9,1.3l-0.5,0.2
			c-0.5,0.1-0.7,0.4-0.7,0.8v0.3h2.1v0.6H140.3z"/>
		<path class="st0" d="M119.8,54.9l0.1-0.6c0.3,0.1,0.7,0.2,1.2,0.2c0.6,0,0.8-0.2,0.8-0.7v-0.1c0-0.5-0.3-0.7-0.9-0.7h-0.5v-0.6
			h0.4c0.6,0,0.9-0.2,0.9-0.7v0c0-0.4-0.3-0.6-0.7-0.6c-0.4,0-0.8,0.1-1.1,0.3l-0.2-0.6c0.3-0.2,0.8-0.3,1.4-0.3
			c0.8,0,1.4,0.3,1.4,1.1v0.1c0,0.5-0.2,0.9-0.7,1v0c0.5,0.1,0.8,0.4,0.8,1.1v0.1c0,0.9-0.5,1.3-1.6,1.3
			C120.7,55.1,120.2,55.1,119.8,54.9z"/>
		<path class="st0" d="M112.8,79.2v-0.9h-2.2v-0.5l1.6-3.1h0.8l-1.5,2.9h1.3v-1.3h0.8v1.3h0.5v0.7h-0.5v0.9H112.8z"/>
		<path class="st0" d="M148,93.2L148,93.2c0,1.1-0.6,1.5-1.6,1.5c-0.6,0-1.1-0.1-1.5-0.4l0.2-0.6c0.4,0.2,0.8,0.3,1.2,0.3
			c0.6,0,0.8-0.2,0.8-0.8v-0.1c0-0.6-0.3-0.8-0.9-0.8c-0.3,0-0.7,0-1,0.1l-0.2-0.2l0.2-2.2h2.4v0.6h-1.7l-0.1,1.1c0.2,0,0.4,0,0.5,0
			C147.5,91.8,148,92.2,148,93.2z"/>
		<path class="st0" d="M148,122.7L148,122.7c0,1.1-0.5,1.5-1.5,1.5c-1.2,0-1.6-0.6-1.6-2.1v-0.3c0-1.8,0.7-2.3,1.8-2.3
			c0.5,0,0.8,0.1,1.1,0.2l-0.1,0.6c-0.2-0.1-0.6-0.2-0.9-0.2c-0.7,0-1,0.3-1,1.2c0.3,0,0.6-0.1,0.9-0.1
			C147.5,121.4,148,121.8,148,122.7z M147.2,122.8c0-0.6-0.2-0.8-0.7-0.8c-0.3,0-0.6,0-0.8,0.1v0.1c0,1.1,0.1,1.5,0.8,1.5
			C147,123.6,147.2,123.4,147.2,122.8L147.2,122.8z"/>
		<path class="st0" d="M117.1,157.4l1.9-3.9h-2.2v-0.6h3.1v0.5l-1.9,4H117.1z"/>
		<path class="st0" d="M94.5,138.8L94.5,138.8c0,0.9-0.5,1.3-1.6,1.3c-1.1,0-1.6-0.4-1.6-1.3v0c0-0.5,0.2-0.9,0.7-1.1
			c-0.4-0.2-0.5-0.5-0.5-1v0c0-0.8,0.5-1.2,1.5-1.2c0.9,0,1.5,0.4,1.5,1.2v0.1c0,0.5-0.2,0.8-0.5,1C94.3,138,94.5,138.3,94.5,138.8z
			 M93.7,138.8c0-0.5-0.2-0.7-0.8-0.7h-0.1c-0.5,0-0.8,0.2-0.8,0.7v0c0,0.5,0.2,0.7,0.8,0.7C93.5,139.6,93.7,139.3,93.7,138.8
			L93.7,138.8z M92.2,136.8c0,0.4,0.2,0.7,0.7,0.7h0.1c0.5,0,0.7-0.2,0.7-0.7v0c0-0.4-0.2-0.6-0.7-0.6
			C92.4,136.2,92.2,136.4,92.2,136.8L92.2,136.8z"/>
		<path class="st0" d="M90.1,163.5v0.6c0,1.5-0.4,2.2-1.7,2.2c-0.5,0-0.9-0.1-1.2-0.2l0.1-0.6c0.3,0.1,0.7,0.2,1,0.2
			c0.6,0,0.9-0.3,0.9-1.1c-0.2,0-0.5,0.1-0.8,0.1c-1.1,0-1.5-0.4-1.5-1.4v-0.1c0-1,0.6-1.5,1.6-1.5
			C89.6,161.6,90.1,162.1,90.1,163.5z M87.8,163.1c0,0.6,0.2,0.8,0.8,0.8c0.3,0,0.6,0,0.8-0.1v-0.3c0-1-0.1-1.4-0.8-1.4
			C88,162.2,87.8,162.5,87.8,163.1L87.8,163.1z"/>
		<g>
			<path class="st0" d="M19.4,194.3v-0.6h1.1v-3.1h0l-1,0.3l-0.1-0.6l1.3-0.4h0.7v3.9h1v0.6H19.4z"/>
			<path class="st0" d="M23.3,194c-0.3-0.3-0.5-0.8-0.5-1.9v-0.2c0-1,0.1-1.5,0.4-1.8c0.3-0.3,0.6-0.4,1.2-0.4c0.6,0,1,0.1,1.2,0.4
				c0.3,0.3,0.4,0.8,0.4,1.8v0.2c0,1.1-0.1,1.5-0.4,1.8c-0.3,0.3-0.7,0.4-1.2,0.4C23.9,194.3,23.6,194.2,23.3,194z M25.1,193.5
				c0.2-0.2,0.2-0.6,0.2-1.4V192c0-0.8,0-1.2-0.2-1.4c-0.1-0.2-0.3-0.2-0.6-0.2c-0.3,0-0.5,0.1-0.6,0.2c-0.2,0.2-0.2,0.6-0.2,1.4
				v0.1c0,0.8,0,1.2,0.2,1.4c0.1,0.1,0.3,0.2,0.6,0.2C24.8,193.7,25,193.6,25.1,193.5z"/>
		</g>
		<g>
			<path class="st0" d="M17.5,136.2v-0.6h1.1v-3.1h0l-1,0.3l-0.1-0.6l1.3-0.4h0.7v3.9h1v0.6H17.5z"/>
			<path class="st0" d="M21.3,136.2v-0.6h1.1v-3.1h0l-1,0.3l-0.1-0.6l1.3-0.4h0.7v3.9h1v0.6H21.3z"/>
		</g>
		<g>
			<path class="st0" d="M64.6,136.2v-0.6h1.1v-3.1h0l-1,0.3l-0.1-0.6l1.3-0.4h0.7v3.9h1v0.6H64.6z"/>
			<path class="st0" d="M68.3,136.2v-0.8c0-0.9,0.3-1.3,1-1.6l0.5-0.1c0.4-0.1,0.6-0.3,0.6-0.8v0c0-0.5-0.3-0.7-0.8-0.7
				c-0.4,0-0.8,0.1-1.1,0.3l-0.2-0.6c0.3-0.2,0.8-0.3,1.4-0.3c0.9,0,1.5,0.4,1.5,1.3v0.1c0,0.8-0.3,1.1-0.9,1.3l-0.5,0.2
				c-0.5,0.1-0.7,0.4-0.7,0.8v0.3h2.1v0.6H68.3z"/>
		</g>
		<g>
			<path class="st0" d="M64.5,80.3v-0.6h1v-3.1h0l-0.9,0.3l-0.1-0.6l1.2-0.4h0.6v3.9H67v0.6H64.5z"/>
			<path class="st0" d="M67.6,80.1l0.1-0.6c0.3,0.1,0.6,0.2,1.1,0.2c0.5,0,0.7-0.2,0.7-0.7v-0.1c0-0.5-0.2-0.7-0.8-0.7h-0.4v-0.6
				h0.4c0.5,0,0.8-0.2,0.8-0.7v0c0-0.4-0.2-0.6-0.6-0.6c-0.4,0-0.7,0.1-1,0.3L67.7,76c0.3-0.2,0.7-0.3,1.2-0.3
				c0.7,0,1.2,0.3,1.2,1.1v0.1c0,0.5-0.2,0.9-0.6,1v0c0.4,0.1,0.7,0.4,0.7,1.1V79c0,0.9-0.4,1.3-1.4,1.3
				C68.3,80.3,67.9,80.2,67.6,80.1z"/>
		</g>
		<g>
			<path class="st0" d="M25.4,84v-0.6h1.1v-3.1h0l-1,0.3l-0.1-0.6l1.3-0.4h0.7v3.9h1V84H25.4z"/>
			<path class="st0" d="M30.9,84v-0.9h-2.2v-0.5l1.6-3.1h0.8l-1.5,2.9h1.3v-1.3h0.8v1.3h0.5v0.7h-0.5V84H30.9z"/>
		</g>
		<g>
			<path class="st0" d="M0.1,36.9v-0.6h1.1v-3.1h0l-1,0.3L0,32.8l1.3-0.4H2v3.9h1v0.6H0.1z"/>
			<path class="st0" d="M6.7,35.5L6.7,35.5c0,1.1-0.6,1.5-1.6,1.5c-0.6,0-1.1-0.1-1.5-0.4L3.8,36c0.4,0.2,0.8,0.3,1.2,0.3
				c0.6,0,0.8-0.2,0.8-0.8v-0.1c0-0.6-0.3-0.8-0.9-0.8c-0.3,0-0.7,0-1,0.1l-0.2-0.2L4,32.4h2.4V33H4.6l-0.1,1.1c0.2,0,0.4,0,0.5,0
				C6.2,34.1,6.7,34.5,6.7,35.5z"/>
		</g>
		<g>
			<path class="st0" d="M19.8,4.6V4h1.1V0.8h0l-1,0.3l-0.1-0.6l1.3-0.4h0.7V4h1v0.6H19.8z"/>
			<path class="st0" d="M26.5,3.1L26.5,3.1c0,1.1-0.5,1.5-1.5,1.5c-1.2,0-1.6-0.6-1.6-2.1V2.3C23.4,0.5,24,0,25.1,0
				c0.5,0,0.8,0.1,1.1,0.2l-0.1,0.6c-0.2-0.1-0.6-0.2-0.9-0.2c-0.7,0-1,0.3-1,1.2c0.3,0,0.6-0.1,0.9-0.1C26,1.8,26.5,2.2,26.5,3.1z
				 M25.7,3.2c0-0.6-0.2-0.8-0.7-0.8c-0.3,0-0.6,0-0.8,0.1v0.1C24.2,3.6,24.3,4,25,4C25.5,4,25.7,3.8,25.7,3.2L25.7,3.2z"/>
		</g>
	</g>
</g>
</svg>
