<?xml version="1.0" encoding="UTF-8" standalone="no"?>
<!-- Created with Inkscape (http://www.inkscape.org/) -->
<svg
   xmlns:dc="http://purl.org/dc/elements/1.1/"
   xmlns:cc="http://web.resource.org/cc/"
   xmlns:rdf="http://www.w3.org/1999/02/22-rdf-syntax-ns#"
   xmlns:svg="http://www.w3.org/2000/svg"
   xmlns="http://www.w3.org/2000/svg"
   xmlns:sodipodi="http://inkscape.sourceforge.net/DTD/sodipodi-0.dtd"
   xmlns:inkscape="http://www.inkscape.org/namespaces/inkscape"
   width="275pt"
   height="460pt"
   id="svg2"
   sodipodi:version="0.32"
   inkscape:version="0.43"
   version="1.0"
   sodipodi:docbase="/home/dcrochet"
   sodipodi:docname="parcours lent permis moto france 2.svg">
  <defs
     id="defs4" />
  <sodipodi:namedview
     id="base"
     pagecolor="#ffffff"
     bordercolor="#666666"
     borderopacity="1.0"
     inkscape:pageopacity="0.0"
     inkscape:pageshadow="2"
     inkscape:zoom="0.98994949"
     inkscape:cx="331.33642"
     inkscape:cy="382.84639"
     inkscape:document-units="px"
     inkscape:current-layer="layer1"
     inkscape:window-width="1280"
     inkscape:window-height="997"
     inkscape:window-x="0"
     inkscape:window-y="0" />
  <metadata
     id="metadata7">
    <rdf:RDF>
      <cc:Work
         rdf:about="">
        <dc:format>image/svg+xml</dc:format>
        <dc:type
           rdf:resource="http://purl.org/dc/dcmitype/StillImage" />
      </cc:Work>
    </rdf:RDF>
  </metadata>
  <g
     inkscape:label="Calque 1"
     inkscape:groupmode="layer"
     id="layer1">
    <g
       id="g11095"
       transform="translate(-32.32488,-33.33503)">
      <g
         id="g6621">
        <rect
           style="opacity:1;color:#000000;fill:#ffa500;fill-opacity:1;fill-rule:nonzero;stroke:#000000;stroke-width:1;stroke-linecap:butt;stroke-linejoin:miter;marker:none;marker-start:none;marker-mid:none;marker-end:none;stroke-miterlimit:10;stroke-dasharray:none;stroke-dashoffset:0;stroke-opacity:1;visibility:visible;display:inline;overflow:visible"
           id="rect1357"
           width="37.410713"
           height="37.94643"
           x="71.785713"
           y="89.951469"
           ry="5.625"
           rx="5.625" />
        <path
           sodipodi:type="arc"
           style="opacity:1;color:#000000;fill:#ff6d00;fill-opacity:1;fill-rule:nonzero;stroke:#292929;stroke-width:0.82529324;stroke-linecap:butt;stroke-linejoin:miter;marker:none;marker-start:none;marker-mid:none;marker-end:none;stroke-miterlimit:10;stroke-dasharray:none;stroke-dashoffset:0;stroke-opacity:1;visibility:visible;display:inline;overflow:visible"
           id="path2232"
           sodipodi:cx="105.3125"
           sodipodi:cy="94.951469"
           sodipodi:rx="14.508928"
           sodipodi:ry="12.946428"
           d="M 119.82143 94.951469 A 14.508928 12.946428 0 1 1  90.803572,94.951469 A 14.508928 12.946428 0 1 1  119.82143 94.951469 z"
           transform="matrix(1.130521,0,0,1.298688,-28.70085,-14.25371)" />
        <path
           sodipodi:type="arc"
           style="opacity:1;color:#000000;fill:#ff5a00;fill-opacity:1;fill-rule:nonzero;stroke:#898989;stroke-width:3.63162422;stroke-linecap:butt;stroke-linejoin:miter;marker:none;marker-start:none;marker-mid:none;marker-end:none;stroke-miterlimit:10;stroke-dasharray:none;stroke-dashoffset:0;stroke-opacity:1;visibility:visible;display:inline;overflow:visible"
           id="path3107"
           sodipodi:cx="105.3125"
           sodipodi:cy="94.951469"
           sodipodi:rx="14.508928"
           sodipodi:ry="12.946428"
           d="M 119.82143 94.951469 A 14.508928 12.946428 0 1 1  90.803572,94.951469 A 14.508928 12.946428 0 1 1  119.82143 94.951469 z"
           transform="matrix(0.770739,2.715818e-18,-3.119801e-18,0.885388,9.080733,24.85588)" />
        <path
           sodipodi:type="arc"
           style="opacity:1;color:#000000;fill:#ff4100;fill-opacity:1;fill-rule:nonzero;stroke:#898989;stroke-width:6.65869379;stroke-linecap:butt;stroke-linejoin:miter;marker:none;marker-start:none;marker-mid:none;marker-end:none;stroke-miterlimit:10;stroke-dasharray:none;stroke-dashoffset:0;stroke-opacity:1;visibility:visible;display:inline;overflow:visible"
           id="path4855"
           sodipodi:cx="105.3125"
           sodipodi:cy="94.951469"
           sodipodi:rx="14.508928"
           sodipodi:ry="12.946428"
           d="M 119.82143 94.951469 A 14.508928 12.946428 0 1 1  90.803572,94.951469 A 14.508928 12.946428 0 1 1  119.82143 94.951469 z"
           transform="matrix(0.420358,1.481196e-18,-1.701527e-18,0.482887,45.90964,63.20777)" />
        <path
           sodipodi:type="arc"
           style="opacity:1;color:#000000;fill:#000000;fill-opacity:1;fill-rule:nonzero;stroke:none;stroke-width:6.65869379;stroke-linecap:butt;stroke-linejoin:miter;marker:none;marker-start:none;marker-mid:none;marker-end:none;stroke-miterlimit:10;stroke-dasharray:none;stroke-dashoffset:0;stroke-opacity:1;visibility:visible;display:inline;overflow:visible"
           id="path5730"
           sodipodi:cx="105.3125"
           sodipodi:cy="94.951469"
           sodipodi:rx="14.508928"
           sodipodi:ry="12.946428"
           d="M 119.82143 94.951469 A 14.508928 12.946428 0 1 1  90.803572,94.951469 A 14.508928 12.946428 0 1 1  119.82143 94.951469 z"
           transform="matrix(0.186221,6.561774e-19,-7.537852e-19,0.213921,70.47791,88.74646)" />
      </g>
      <g
         transform="translate(75.9375,0.401782)"
         id="g6628">
        <rect
           rx="5.625"
           style="opacity:1;color:#000000;fill:#ffa500;fill-opacity:1;fill-rule:nonzero;stroke:#000000;stroke-width:1;stroke-linecap:butt;stroke-linejoin:miter;marker:none;marker-start:none;marker-mid:none;marker-end:none;stroke-miterlimit:10;stroke-dasharray:none;stroke-dashoffset:0;stroke-opacity:1;visibility:visible;display:inline;overflow:visible"
           id="rect6630"
           width="37.410713"
           height="37.94643"
           x="71.785713"
           y="89.951469"
           ry="5.625" />
        <path
           sodipodi:type="arc"
           style="opacity:1;color:#000000;fill:#ff6d00;fill-opacity:1;fill-rule:nonzero;stroke:#292929;stroke-width:0.82529324;stroke-linecap:butt;stroke-linejoin:miter;marker:none;marker-start:none;marker-mid:none;marker-end:none;stroke-miterlimit:10;stroke-dasharray:none;stroke-dashoffset:0;stroke-opacity:1;visibility:visible;display:inline;overflow:visible"
           id="path6632"
           sodipodi:cx="105.3125"
           sodipodi:cy="94.951469"
           sodipodi:rx="14.508928"
           sodipodi:ry="12.946428"
           d="M 119.82143 94.951469 A 14.508928 12.946428 0 1 1  90.803572,94.951469 A 14.508928 12.946428 0 1 1  119.82143 94.951469 z"
           transform="matrix(1.130521,0,0,1.298688,-28.70085,-14.25371)" />
        <path
           sodipodi:type="arc"
           style="opacity:1;color:#000000;fill:#ff5a00;fill-opacity:1;fill-rule:nonzero;stroke:#898989;stroke-width:3.63162422;stroke-linecap:butt;stroke-linejoin:miter;marker:none;marker-start:none;marker-mid:none;marker-end:none;stroke-miterlimit:10;stroke-dasharray:none;stroke-dashoffset:0;stroke-opacity:1;visibility:visible;display:inline;overflow:visible"
           id="path6634"
           sodipodi:cx="105.3125"
           sodipodi:cy="94.951469"
           sodipodi:rx="14.508928"
           sodipodi:ry="12.946428"
           d="M 119.82143 94.951469 A 14.508928 12.946428 0 1 1  90.803572,94.951469 A 14.508928 12.946428 0 1 1  119.82143 94.951469 z"
           transform="matrix(0.770739,2.715818e-18,-3.119801e-18,0.885388,9.080733,24.85588)" />
        <path
           sodipodi:type="arc"
           style="opacity:1;color:#000000;fill:#ff4100;fill-opacity:1;fill-rule:nonzero;stroke:#898989;stroke-width:6.65869379;stroke-linecap:butt;stroke-linejoin:miter;marker:none;marker-start:none;marker-mid:none;marker-end:none;stroke-miterlimit:10;stroke-dasharray:none;stroke-dashoffset:0;stroke-opacity:1;visibility:visible;display:inline;overflow:visible"
           id="path6636"
           sodipodi:cx="105.3125"
           sodipodi:cy="94.951469"
           sodipodi:rx="14.508928"
           sodipodi:ry="12.946428"
           d="M 119.82143 94.951469 A 14.508928 12.946428 0 1 1  90.803572,94.951469 A 14.508928 12.946428 0 1 1  119.82143 94.951469 z"
           transform="matrix(0.420358,1.481196e-18,-1.701527e-18,0.482887,45.90964,63.20777)" />
        <path
           sodipodi:type="arc"
           style="opacity:1;color:#000000;fill:#000000;fill-opacity:1;fill-rule:nonzero;stroke:none;stroke-width:6.65869379;stroke-linecap:butt;stroke-linejoin:miter;marker:none;marker-start:none;marker-mid:none;marker-end:none;stroke-miterlimit:10;stroke-dasharray:none;stroke-dashoffset:0;stroke-opacity:1;visibility:visible;display:inline;overflow:visible"
           id="path6638"
           sodipodi:cx="105.3125"
           sodipodi:cy="94.951469"
           sodipodi:rx="14.508928"
           sodipodi:ry="12.946428"
           d="M 119.82143 94.951469 A 14.508928 12.946428 0 1 1  90.803572,94.951469 A 14.508928 12.946428 0 1 1  119.82143 94.951469 z"
           transform="matrix(0.186221,6.561774e-19,-7.537852e-19,0.213921,70.47791,88.74646)" />
      </g>
      <g
         transform="translate(188.1473,134.8437)"
         id="g6640">
        <rect
           rx="5.625"
           style="opacity:1;color:#000000;fill:#ffa500;fill-opacity:1;fill-rule:nonzero;stroke:#000000;stroke-width:1;stroke-linecap:butt;stroke-linejoin:miter;marker:none;marker-start:none;marker-mid:none;marker-end:none;stroke-miterlimit:10;stroke-dasharray:none;stroke-dashoffset:0;stroke-opacity:1;visibility:visible;display:inline;overflow:visible"
           id="rect6642"
           width="37.410713"
           height="37.94643"
           x="71.785713"
           y="89.951469"
           ry="5.625" />
        <path
           sodipodi:type="arc"
           style="opacity:1;color:#000000;fill:#ff6d00;fill-opacity:1;fill-rule:nonzero;stroke:#292929;stroke-width:0.82529324;stroke-linecap:butt;stroke-linejoin:miter;marker:none;marker-start:none;marker-mid:none;marker-end:none;stroke-miterlimit:10;stroke-dasharray:none;stroke-dashoffset:0;stroke-opacity:1;visibility:visible;display:inline;overflow:visible"
           id="path6644"
           sodipodi:cx="105.3125"
           sodipodi:cy="94.951469"
           sodipodi:rx="14.508928"
           sodipodi:ry="12.946428"
           d="M 119.82143 94.951469 A 14.508928 12.946428 0 1 1  90.803572,94.951469 A 14.508928 12.946428 0 1 1  119.82143 94.951469 z"
           transform="matrix(1.130521,0,0,1.298688,-28.70085,-14.25371)" />
        <path
           sodipodi:type="arc"
           style="opacity:1;color:#000000;fill:#ff5a00;fill-opacity:1;fill-rule:nonzero;stroke:#898989;stroke-width:3.63162422;stroke-linecap:butt;stroke-linejoin:miter;marker:none;marker-start:none;marker-mid:none;marker-end:none;stroke-miterlimit:10;stroke-dasharray:none;stroke-dashoffset:0;stroke-opacity:1;visibility:visible;display:inline;overflow:visible"
           id="path6646"
           sodipodi:cx="105.3125"
           sodipodi:cy="94.951469"
           sodipodi:rx="14.508928"
           sodipodi:ry="12.946428"
           d="M 119.82143 94.951469 A 14.508928 12.946428 0 1 1  90.803572,94.951469 A 14.508928 12.946428 0 1 1  119.82143 94.951469 z"
           transform="matrix(0.770739,2.715818e-18,-3.119801e-18,0.885388,9.080733,24.85588)" />
        <path
           sodipodi:type="arc"
           style="opacity:1;color:#000000;fill:#ff4100;fill-opacity:1;fill-rule:nonzero;stroke:#898989;stroke-width:6.65869379;stroke-linecap:butt;stroke-linejoin:miter;marker:none;marker-start:none;marker-mid:none;marker-end:none;stroke-miterlimit:10;stroke-dasharray:none;stroke-dashoffset:0;stroke-opacity:1;visibility:visible;display:inline;overflow:visible"
           id="path6648"
           sodipodi:cx="105.3125"
           sodipodi:cy="94.951469"
           sodipodi:rx="14.508928"
           sodipodi:ry="12.946428"
           d="M 119.82143 94.951469 A 14.508928 12.946428 0 1 1  90.803572,94.951469 A 14.508928 12.946428 0 1 1  119.82143 94.951469 z"
           transform="matrix(0.420358,1.481196e-18,-1.701527e-18,0.482887,45.90964,63.20777)" />
        <path
           sodipodi:type="arc"
           style="opacity:1;color:#000000;fill:#000000;fill-opacity:1;fill-rule:nonzero;stroke:none;stroke-width:6.65869379;stroke-linecap:butt;stroke-linejoin:miter;marker:none;marker-start:none;marker-mid:none;marker-end:none;stroke-miterlimit:10;stroke-dasharray:none;stroke-dashoffset:0;stroke-opacity:1;visibility:visible;display:inline;overflow:visible"
           id="path6650"
           sodipodi:cx="105.3125"
           sodipodi:cy="94.951469"
           sodipodi:rx="14.508928"
           sodipodi:ry="12.946428"
           d="M 119.82143 94.951469 A 14.508928 12.946428 0 1 1  90.803572,94.951469 A 14.508928 12.946428 0 1 1  119.82143 94.951469 z"
           transform="matrix(0.186221,6.561774e-19,-7.537852e-19,0.213921,70.47791,88.74646)" />
      </g>
      <g
         transform="translate(264.0848,135.2455)"
         id="g6652">
        <rect
           rx="5.625"
           style="opacity:1;color:#000000;fill:#ffa500;fill-opacity:1;fill-rule:nonzero;stroke:#000000;stroke-width:1;stroke-linecap:butt;stroke-linejoin:miter;marker:none;marker-start:none;marker-mid:none;marker-end:none;stroke-miterlimit:10;stroke-dasharray:none;stroke-dashoffset:0;stroke-opacity:1;visibility:visible;display:inline;overflow:visible"
           id="rect6654"
           width="37.410713"
           height="37.94643"
           x="71.785713"
           y="89.951469"
           ry="5.625" />
        <path
           sodipodi:type="arc"
           style="opacity:1;color:#000000;fill:#ff6d00;fill-opacity:1;fill-rule:nonzero;stroke:#292929;stroke-width:0.82529324;stroke-linecap:butt;stroke-linejoin:miter;marker:none;marker-start:none;marker-mid:none;marker-end:none;stroke-miterlimit:10;stroke-dasharray:none;stroke-dashoffset:0;stroke-opacity:1;visibility:visible;display:inline;overflow:visible"
           id="path6656"
           sodipodi:cx="105.3125"
           sodipodi:cy="94.951469"
           sodipodi:rx="14.508928"
           sodipodi:ry="12.946428"
           d="M 119.82143 94.951469 A 14.508928 12.946428 0 1 1  90.803572,94.951469 A 14.508928 12.946428 0 1 1  119.82143 94.951469 z"
           transform="matrix(1.130521,0,0,1.298688,-28.70085,-14.25371)" />
        <path
           sodipodi:type="arc"
           style="opacity:1;color:#000000;fill:#ff5a00;fill-opacity:1;fill-rule:nonzero;stroke:#898989;stroke-width:3.63162422;stroke-linecap:butt;stroke-linejoin:miter;marker:none;marker-start:none;marker-mid:none;marker-end:none;stroke-miterlimit:10;stroke-dasharray:none;stroke-dashoffset:0;stroke-opacity:1;visibility:visible;display:inline;overflow:visible"
           id="path6658"
           sodipodi:cx="105.3125"
           sodipodi:cy="94.951469"
           sodipodi:rx="14.508928"
           sodipodi:ry="12.946428"
           d="M 119.82143 94.951469 A 14.508928 12.946428 0 1 1  90.803572,94.951469 A 14.508928 12.946428 0 1 1  119.82143 94.951469 z"
           transform="matrix(0.770739,2.715818e-18,-3.119801e-18,0.885388,9.080733,24.85588)" />
        <path
           sodipodi:type="arc"
           style="opacity:1;color:#000000;fill:#ff4100;fill-opacity:1;fill-rule:nonzero;stroke:#898989;stroke-width:6.65869379;stroke-linecap:butt;stroke-linejoin:miter;marker:none;marker-start:none;marker-mid:none;marker-end:none;stroke-miterlimit:10;stroke-dasharray:none;stroke-dashoffset:0;stroke-opacity:1;visibility:visible;display:inline;overflow:visible"
           id="path6660"
           sodipodi:cx="105.3125"
           sodipodi:cy="94.951469"
           sodipodi:rx="14.508928"
           sodipodi:ry="12.946428"
           d="M 119.82143 94.951469 A 14.508928 12.946428 0 1 1  90.803572,94.951469 A 14.508928 12.946428 0 1 1  119.82143 94.951469 z"
           transform="matrix(0.420358,1.481196e-18,-1.701527e-18,0.482887,45.90964,63.20777)" />
        <path
           sodipodi:type="arc"
           style="opacity:1;color:#000000;fill:#000000;fill-opacity:1;fill-rule:nonzero;stroke:none;stroke-width:6.65869379;stroke-linecap:butt;stroke-linejoin:miter;marker:none;marker-start:none;marker-mid:none;marker-end:none;stroke-miterlimit:10;stroke-dasharray:none;stroke-dashoffset:0;stroke-opacity:1;visibility:visible;display:inline;overflow:visible"
           id="path6662"
           sodipodi:cx="105.3125"
           sodipodi:cy="94.951469"
           sodipodi:rx="14.508928"
           sodipodi:ry="12.946428"
           d="M 119.82143 94.951469 A 14.508928 12.946428 0 1 1  90.803572,94.951469 A 14.508928 12.946428 0 1 1  119.82143 94.951469 z"
           transform="matrix(0.186221,6.561774e-19,-7.537852e-19,0.213921,70.47791,88.74646)" />
      </g>
      <g
         transform="translate(-0.424143,274.308)"
         id="g6664">
        <rect
           rx="5.625"
           style="opacity:1;color:#000000;fill:#ffa500;fill-opacity:1;fill-rule:nonzero;stroke:#000000;stroke-width:1;stroke-linecap:butt;stroke-linejoin:miter;marker:none;marker-start:none;marker-mid:none;marker-end:none;stroke-miterlimit:10;stroke-dasharray:none;stroke-dashoffset:0;stroke-opacity:1;visibility:visible;display:inline;overflow:visible"
           id="rect6666"
           width="37.410713"
           height="37.94643"
           x="71.785713"
           y="89.951469"
           ry="5.625" />
        <path
           sodipodi:type="arc"
           style="opacity:1;color:#000000;fill:#ff6d00;fill-opacity:1;fill-rule:nonzero;stroke:#292929;stroke-width:0.82529324;stroke-linecap:butt;stroke-linejoin:miter;marker:none;marker-start:none;marker-mid:none;marker-end:none;stroke-miterlimit:10;stroke-dasharray:none;stroke-dashoffset:0;stroke-opacity:1;visibility:visible;display:inline;overflow:visible"
           id="path6668"
           sodipodi:cx="105.3125"
           sodipodi:cy="94.951469"
           sodipodi:rx="14.508928"
           sodipodi:ry="12.946428"
           d="M 119.82143 94.951469 A 14.508928 12.946428 0 1 1  90.803572,94.951469 A 14.508928 12.946428 0 1 1  119.82143 94.951469 z"
           transform="matrix(1.130521,0,0,1.298688,-28.70085,-14.25371)" />
        <path
           sodipodi:type="arc"
           style="opacity:1;color:#000000;fill:#ff5a00;fill-opacity:1;fill-rule:nonzero;stroke:#898989;stroke-width:3.63162422;stroke-linecap:butt;stroke-linejoin:miter;marker:none;marker-start:none;marker-mid:none;marker-end:none;stroke-miterlimit:10;stroke-dasharray:none;stroke-dashoffset:0;stroke-opacity:1;visibility:visible;display:inline;overflow:visible"
           id="path6670"
           sodipodi:cx="105.3125"
           sodipodi:cy="94.951469"
           sodipodi:rx="14.508928"
           sodipodi:ry="12.946428"
           d="M 119.82143 94.951469 A 14.508928 12.946428 0 1 1  90.803572,94.951469 A 14.508928 12.946428 0 1 1  119.82143 94.951469 z"
           transform="matrix(0.770739,2.715818e-18,-3.119801e-18,0.885388,9.080733,24.85588)" />
        <path
           sodipodi:type="arc"
           style="opacity:1;color:#000000;fill:#ff4100;fill-opacity:1;fill-rule:nonzero;stroke:#898989;stroke-width:6.65869379;stroke-linecap:butt;stroke-linejoin:miter;marker:none;marker-start:none;marker-mid:none;marker-end:none;stroke-miterlimit:10;stroke-dasharray:none;stroke-dashoffset:0;stroke-opacity:1;visibility:visible;display:inline;overflow:visible"
           id="path6672"
           sodipodi:cx="105.3125"
           sodipodi:cy="94.951469"
           sodipodi:rx="14.508928"
           sodipodi:ry="12.946428"
           d="M 119.82143 94.951469 A 14.508928 12.946428 0 1 1  90.803572,94.951469 A 14.508928 12.946428 0 1 1  119.82143 94.951469 z"
           transform="matrix(0.420358,1.481196e-18,-1.701527e-18,0.482887,45.90964,63.20777)" />
        <path
           sodipodi:type="arc"
           style="opacity:1;color:#000000;fill:#000000;fill-opacity:1;fill-rule:nonzero;stroke:none;stroke-width:6.65869379;stroke-linecap:butt;stroke-linejoin:miter;marker:none;marker-start:none;marker-mid:none;marker-end:none;stroke-miterlimit:10;stroke-dasharray:none;stroke-dashoffset:0;stroke-opacity:1;visibility:visible;display:inline;overflow:visible"
           id="path6674"
           sodipodi:cx="105.3125"
           sodipodi:cy="94.951469"
           sodipodi:rx="14.508928"
           sodipodi:ry="12.946428"
           d="M 119.82143 94.951469 A 14.508928 12.946428 0 1 1  90.803572,94.951469 A 14.508928 12.946428 0 1 1  119.82143 94.951469 z"
           transform="matrix(0.186221,6.561774e-19,-7.537852e-19,0.213921,70.47791,88.74646)" />
      </g>
      <g
         transform="translate(75.51336,274.7098)"
         id="g6676">
        <rect
           rx="5.625"
           style="opacity:1;color:#000000;fill:#ffa500;fill-opacity:1;fill-rule:nonzero;stroke:#000000;stroke-width:1;stroke-linecap:butt;stroke-linejoin:miter;marker:none;marker-start:none;marker-mid:none;marker-end:none;stroke-miterlimit:10;stroke-dasharray:none;stroke-dashoffset:0;stroke-opacity:1;visibility:visible;display:inline;overflow:visible"
           id="rect6678"
           width="37.410713"
           height="37.94643"
           x="71.785713"
           y="89.951469"
           ry="5.625" />
        <path
           sodipodi:type="arc"
           style="opacity:1;color:#000000;fill:#ff6d00;fill-opacity:1;fill-rule:nonzero;stroke:#292929;stroke-width:0.82529324;stroke-linecap:butt;stroke-linejoin:miter;marker:none;marker-start:none;marker-mid:none;marker-end:none;stroke-miterlimit:10;stroke-dasharray:none;stroke-dashoffset:0;stroke-opacity:1;visibility:visible;display:inline;overflow:visible"
           id="path6680"
           sodipodi:cx="105.3125"
           sodipodi:cy="94.951469"
           sodipodi:rx="14.508928"
           sodipodi:ry="12.946428"
           d="M 119.82143 94.951469 A 14.508928 12.946428 0 1 1  90.803572,94.951469 A 14.508928 12.946428 0 1 1  119.82143 94.951469 z"
           transform="matrix(1.130521,0,0,1.298688,-28.70085,-14.25371)" />
        <path
           sodipodi:type="arc"
           style="opacity:1;color:#000000;fill:#ff5a00;fill-opacity:1;fill-rule:nonzero;stroke:#898989;stroke-width:3.63162422;stroke-linecap:butt;stroke-linejoin:miter;marker:none;marker-start:none;marker-mid:none;marker-end:none;stroke-miterlimit:10;stroke-dasharray:none;stroke-dashoffset:0;stroke-opacity:1;visibility:visible;display:inline;overflow:visible"
           id="path6682"
           sodipodi:cx="105.3125"
           sodipodi:cy="94.951469"
           sodipodi:rx="14.508928"
           sodipodi:ry="12.946428"
           d="M 119.82143 94.951469 A 14.508928 12.946428 0 1 1  90.803572,94.951469 A 14.508928 12.946428 0 1 1  119.82143 94.951469 z"
           transform="matrix(0.770739,2.715818e-18,-3.119801e-18,0.885388,9.080733,24.85588)" />
        <path
           sodipodi:type="arc"
           style="opacity:1;color:#000000;fill:#ff4100;fill-opacity:1;fill-rule:nonzero;stroke:#898989;stroke-width:6.65869379;stroke-linecap:butt;stroke-linejoin:miter;marker:none;marker-start:none;marker-mid:none;marker-end:none;stroke-miterlimit:10;stroke-dasharray:none;stroke-dashoffset:0;stroke-opacity:1;visibility:visible;display:inline;overflow:visible"
           id="path6684"
           sodipodi:cx="105.3125"
           sodipodi:cy="94.951469"
           sodipodi:rx="14.508928"
           sodipodi:ry="12.946428"
           d="M 119.82143 94.951469 A 14.508928 12.946428 0 1 1  90.803572,94.951469 A 14.508928 12.946428 0 1 1  119.82143 94.951469 z"
           transform="matrix(0.420358,1.481196e-18,-1.701527e-18,0.482887,45.90964,63.20777)" />
        <path
           sodipodi:type="arc"
           style="opacity:1;color:#000000;fill:#000000;fill-opacity:1;fill-rule:nonzero;stroke:none;stroke-width:6.65869379;stroke-linecap:butt;stroke-linejoin:miter;marker:none;marker-start:none;marker-mid:none;marker-end:none;stroke-miterlimit:10;stroke-dasharray:none;stroke-dashoffset:0;stroke-opacity:1;visibility:visible;display:inline;overflow:visible"
           id="path6686"
           sodipodi:cx="105.3125"
           sodipodi:cy="94.951469"
           sodipodi:rx="14.508928"
           sodipodi:ry="12.946428"
           d="M 119.82143 94.951469 A 14.508928 12.946428 0 1 1  90.803572,94.951469 A 14.508928 12.946428 0 1 1  119.82143 94.951469 z"
           transform="matrix(0.186221,6.561774e-19,-7.537852e-19,0.213921,70.47791,88.74646)" />
      </g>
      <g
         transform="translate(185.6473,410.7366)"
         id="g6688">
        <rect
           rx="5.625"
           style="opacity:1;color:#000000;fill:#ffa500;fill-opacity:1;fill-rule:nonzero;stroke:#000000;stroke-width:1;stroke-linecap:butt;stroke-linejoin:miter;marker:none;marker-start:none;marker-mid:none;marker-end:none;stroke-miterlimit:10;stroke-dasharray:none;stroke-dashoffset:0;stroke-opacity:1;visibility:visible;display:inline;overflow:visible"
           id="rect6690"
           width="37.410713"
           height="37.94643"
           x="71.785713"
           y="89.951469"
           ry="5.625" />
        <path
           sodipodi:type="arc"
           style="opacity:1;color:#000000;fill:#ff6d00;fill-opacity:1;fill-rule:nonzero;stroke:#292929;stroke-width:0.82529324;stroke-linecap:butt;stroke-linejoin:miter;marker:none;marker-start:none;marker-mid:none;marker-end:none;stroke-miterlimit:10;stroke-dasharray:none;stroke-dashoffset:0;stroke-opacity:1;visibility:visible;display:inline;overflow:visible"
           id="path6692"
           sodipodi:cx="105.3125"
           sodipodi:cy="94.951469"
           sodipodi:rx="14.508928"
           sodipodi:ry="12.946428"
           d="M 119.82143 94.951469 A 14.508928 12.946428 0 1 1  90.803572,94.951469 A 14.508928 12.946428 0 1 1  119.82143 94.951469 z"
           transform="matrix(1.130521,0,0,1.298688,-28.70085,-14.25371)" />
        <path
           sodipodi:type="arc"
           style="opacity:1;color:#000000;fill:#ff5a00;fill-opacity:1;fill-rule:nonzero;stroke:#898989;stroke-width:3.63162422;stroke-linecap:butt;stroke-linejoin:miter;marker:none;marker-start:none;marker-mid:none;marker-end:none;stroke-miterlimit:10;stroke-dasharray:none;stroke-dashoffset:0;stroke-opacity:1;visibility:visible;display:inline;overflow:visible"
           id="path6694"
           sodipodi:cx="105.3125"
           sodipodi:cy="94.951469"
           sodipodi:rx="14.508928"
           sodipodi:ry="12.946428"
           d="M 119.82143 94.951469 A 14.508928 12.946428 0 1 1  90.803572,94.951469 A 14.508928 12.946428 0 1 1  119.82143 94.951469 z"
           transform="matrix(0.770739,2.715818e-18,-3.119801e-18,0.885388,9.080733,24.85588)" />
        <path
           sodipodi:type="arc"
           style="opacity:1;color:#000000;fill:#ff4100;fill-opacity:1;fill-rule:nonzero;stroke:#898989;stroke-width:6.65869379;stroke-linecap:butt;stroke-linejoin:miter;marker:none;marker-start:none;marker-mid:none;marker-end:none;stroke-miterlimit:10;stroke-dasharray:none;stroke-dashoffset:0;stroke-opacity:1;visibility:visible;display:inline;overflow:visible"
           id="path6696"
           sodipodi:cx="105.3125"
           sodipodi:cy="94.951469"
           sodipodi:rx="14.508928"
           sodipodi:ry="12.946428"
           d="M 119.82143 94.951469 A 14.508928 12.946428 0 1 1  90.803572,94.951469 A 14.508928 12.946428 0 1 1  119.82143 94.951469 z"
           transform="matrix(0.420358,1.481196e-18,-1.701527e-18,0.482887,45.90964,63.20777)" />
        <path
           sodipodi:type="arc"
           style="opacity:1;color:#000000;fill:#000000;fill-opacity:1;fill-rule:nonzero;stroke:none;stroke-width:6.65869379;stroke-linecap:butt;stroke-linejoin:miter;marker:none;marker-start:none;marker-mid:none;marker-end:none;stroke-miterlimit:10;stroke-dasharray:none;stroke-dashoffset:0;stroke-opacity:1;visibility:visible;display:inline;overflow:visible"
           id="path6698"
           sodipodi:cx="105.3125"
           sodipodi:cy="94.951469"
           sodipodi:rx="14.508928"
           sodipodi:ry="12.946428"
           d="M 119.82143 94.951469 A 14.508928 12.946428 0 1 1  90.803572,94.951469 A 14.508928 12.946428 0 1 1  119.82143 94.951469 z"
           transform="matrix(0.186221,6.561774e-19,-7.537852e-19,0.213921,70.47791,88.74646)" />
      </g>
      <g
         transform="translate(261.5848,411.1384)"
         id="g6700">
        <rect
           rx="5.625"
           style="opacity:1;color:#000000;fill:#ffa500;fill-opacity:1;fill-rule:nonzero;stroke:#000000;stroke-width:1;stroke-linecap:butt;stroke-linejoin:miter;marker:none;marker-start:none;marker-mid:none;marker-end:none;stroke-miterlimit:10;stroke-dasharray:none;stroke-dashoffset:0;stroke-opacity:1;visibility:visible;display:inline;overflow:visible"
           id="rect6702"
           width="37.410713"
           height="37.94643"
           x="71.785713"
           y="89.951469"
           ry="5.625" />
        <path
           sodipodi:type="arc"
           style="opacity:1;color:#000000;fill:#ff6d00;fill-opacity:1;fill-rule:nonzero;stroke:#292929;stroke-width:0.82529324;stroke-linecap:butt;stroke-linejoin:miter;marker:none;marker-start:none;marker-mid:none;marker-end:none;stroke-miterlimit:10;stroke-dasharray:none;stroke-dashoffset:0;stroke-opacity:1;visibility:visible;display:inline;overflow:visible"
           id="path6704"
           sodipodi:cx="105.3125"
           sodipodi:cy="94.951469"
           sodipodi:rx="14.508928"
           sodipodi:ry="12.946428"
           d="M 119.82143 94.951469 A 14.508928 12.946428 0 1 1  90.803572,94.951469 A 14.508928 12.946428 0 1 1  119.82143 94.951469 z"
           transform="matrix(1.130521,0,0,1.298688,-28.70085,-14.25371)" />
        <path
           sodipodi:type="arc"
           style="opacity:1;color:#000000;fill:#ff5a00;fill-opacity:1;fill-rule:nonzero;stroke:#898989;stroke-width:3.63162422;stroke-linecap:butt;stroke-linejoin:miter;marker:none;marker-start:none;marker-mid:none;marker-end:none;stroke-miterlimit:10;stroke-dasharray:none;stroke-dashoffset:0;stroke-opacity:1;visibility:visible;display:inline;overflow:visible"
           id="path6706"
           sodipodi:cx="105.3125"
           sodipodi:cy="94.951469"
           sodipodi:rx="14.508928"
           sodipodi:ry="12.946428"
           d="M 119.82143 94.951469 A 14.508928 12.946428 0 1 1  90.803572,94.951469 A 14.508928 12.946428 0 1 1  119.82143 94.951469 z"
           transform="matrix(0.770739,2.715818e-18,-3.119801e-18,0.885388,9.080733,24.85588)" />
        <path
           sodipodi:type="arc"
           style="opacity:1;color:#000000;fill:#ff4100;fill-opacity:1;fill-rule:nonzero;stroke:#898989;stroke-width:6.65869379;stroke-linecap:butt;stroke-linejoin:miter;marker:none;marker-start:none;marker-mid:none;marker-end:none;stroke-miterlimit:10;stroke-dasharray:none;stroke-dashoffset:0;stroke-opacity:1;visibility:visible;display:inline;overflow:visible"
           id="path6708"
           sodipodi:cx="105.3125"
           sodipodi:cy="94.951469"
           sodipodi:rx="14.508928"
           sodipodi:ry="12.946428"
           d="M 119.82143 94.951469 A 14.508928 12.946428 0 1 1  90.803572,94.951469 A 14.508928 12.946428 0 1 1  119.82143 94.951469 z"
           transform="matrix(0.420358,1.481196e-18,-1.701527e-18,0.482887,45.90964,63.20777)" />
        <path
           sodipodi:type="arc"
           style="opacity:1;color:#000000;fill:#000000;fill-opacity:1;fill-rule:nonzero;stroke:none;stroke-width:6.65869379;stroke-linecap:butt;stroke-linejoin:miter;marker:none;marker-start:none;marker-mid:none;marker-end:none;stroke-miterlimit:10;stroke-dasharray:none;stroke-dashoffset:0;stroke-opacity:1;visibility:visible;display:inline;overflow:visible"
           id="path6710"
           sodipodi:cx="105.3125"
           sodipodi:cy="94.951469"
           sodipodi:rx="14.508928"
           sodipodi:ry="12.946428"
           d="M 119.82143 94.951469 A 14.508928 12.946428 0 1 1  90.803572,94.951469 A 14.508928 12.946428 0 1 1  119.82143 94.951469 z"
           transform="matrix(0.186221,6.561774e-19,-7.537852e-19,0.213921,70.47791,88.74646)" />
      </g>
      <path
         sodipodi:nodetypes="cccczzcccccc"
         id="path6712"
         d="M 129.10714,498.79075 L 127.62255,356.71623 C 127.26541,281.71623 312.43228,332.58431 310.94691,230.21587 C 309.46155,126.83728 46.225225,212.37482 48.018453,111.46062 C 51.949247,67.062575 73.69518,46.626241 162.73805,45.923095 C 251.76721,45.220058 321.69645,71.664537 320.76113,139.30364 C 319.78423,209.95047 319.46429,420.75504 318.75,446.11218 L 318.21429,528.79075 C 317.85715,570.57646 295.35714,599.50504 244.28571,598.43361 L 182.14286,597.54075 C 136.78572,597.18361 130,552.00504 128.21429,528.07647 L 128.92857,513.96932"
         style="opacity:1;color:#000000;fill:none;fill-opacity:1;fill-rule:nonzero;stroke:#3f4886;stroke-width:3;stroke-linecap:round;stroke-linejoin:round;marker:none;marker-start:none;marker-mid:none;marker-end:none;stroke-miterlimit:0;stroke-dasharray:3, 3;stroke-dashoffset:0;stroke-opacity:1;visibility:visible;display:inline;overflow:visible" />
      <path
         id="path7587"
         d="M 52.142857,503.43361 L 228.21429,503.07647"
         style="opacity:1;color:#000000;fill:none;fill-opacity:1;fill-rule:nonzero;stroke:#030000;stroke-width:3;stroke-linecap:round;stroke-linejoin:miter;marker:none;marker-start:none;marker-mid:none;marker-end:none;stroke-miterlimit:0;stroke-dasharray:12, 6, 3, 6;stroke-dashoffset:0;stroke-opacity:1;visibility:visible;display:inline;overflow:visible" />
      <path
         id="text8462"
         d="M 143.26438,490.55273 C 142.27284,490.55273 141.6727,491.02241 141.6727,491.85739 C 141.6727,492.24879 141.88144,492.66628 142.22065,492.90112 C 142.45549,493.08377 142.7947,493.16205 143.42094,493.16205 L 148.74394,493.16205 C 151.01404,493.16205 152.57963,492.5619 153.85819,491.20506 C 155.05847,489.95259 155.68471,488.33482 155.68471,486.43002 L 155.68471,485.20364 C 155.68471,481.10702 152.76228,477.94975 148.95268,477.94975 L 143.42094,477.94975 C 142.71642,477.94975 142.53377,477.97584 142.29893,478.1324 C 141.90753,478.36724 141.6727,478.81082 141.6727,479.2544 C 141.6727,480.08938 142.24675,480.55906 143.26438,480.55906 L 143.26438,490.55273 M 145.87369,490.55273 L 145.87369,480.55906 L 148.74394,480.55906 C 150.12687,480.55906 151.11841,480.97655 151.90121,481.88981 C 152.65791,482.77698 153.0754,483.92508 153.0754,485.15145 L 153.0754,486.35174 C 153.0754,487.68249 152.73619,488.59575 152.00558,489.40464 C 151.19669,490.23962 150.33562,490.55273 148.77003,490.55273 L 145.87369,490.55273 M 171.02462,488.67403 L 171.02462,487.6564 C 171.02462,484.05555 168.15437,481.42014 164.2665,481.42014 C 160.45691,481.42014 157.53447,484.08164 157.53447,487.52593 C 157.53447,491.07459 160.37863,493.57954 164.42306,493.57954 C 166.27567,493.57954 168.93717,493.10986 170.11136,492.588 C 170.7376,492.30098 171.02462,491.93567 171.02462,491.41381 C 171.02462,490.6832 170.47667,490.10915 169.77215,490.10915 C 169.53731,490.10915 169.2242,490.16134 168.91108,490.23962 C 166.51051,490.86585 165.85818,490.97022 164.6579,490.97022 C 162.3617,490.97022 160.97876,490.23962 160.37862,488.67403 L 171.02462,488.67403 M 160.4569,486.37783 C 160.8483,484.9688 162.3878,484.02945 164.29259,484.02945 C 166.19739,484.02945 167.7108,484.94271 168.12829,486.37783 L 160.4569,486.37783 M 167.91954,476.87993 C 168.36312,476.54072 168.51968,476.27979 168.51968,475.96667 C 168.51968,475.41871 168.10219,475.00122 167.55424,475.00122 C 167.26721,475.00122 167.13675,475.0795 166.71926,475.41871 L 163.24887,478.31505 C 162.83138,478.65426 162.64873,478.94129 162.64873,479.2805 C 162.64873,479.77627 163.09231,480.21985 163.61417,480.21985 C 163.8751,480.21985 164.05776,480.11548 164.44915,479.80236 L 167.91954,476.87993 M 176.55352,491.4399 C 177.91036,492.48363 179.05846,492.90112 180.59795,492.90112 C 184.2249,492.90112 186.91249,490.52664 186.91249,487.31719 C 186.91249,483.95117 184.1988,481.42014 180.54577,481.42014 C 178.92799,481.42014 177.83208,481.83763 176.55352,482.93354 L 176.55352,481.75935 L 173.52671,481.75935 C 172.90048,481.75935 172.66564,481.81153 172.4308,481.942 C 172.0394,482.17684 171.80456,482.62042 171.80456,483.064 C 171.80456,483.48149 172.01331,483.87289 172.32643,484.13382 C 172.58736,484.31647 172.84829,484.36866 173.52671,484.36866 L 173.9442,484.36866 L 173.9442,495.90183 L 173.52671,495.90183 C 172.90048,495.90183 172.66564,495.92792 172.4308,496.08448 C 172.0394,496.31932 171.80456,496.7629 171.80456,497.20648 C 171.80456,497.62397 172.01331,498.01537 172.32643,498.25021 C 172.58736,498.45896 172.87438,498.51114 173.52671,498.51114 L 178.06692,498.51114 C 178.64097,498.51114 178.95408,498.45896 179.16283,498.32849 C 179.55423,498.06756 179.78906,497.65007 179.78906,497.20648 C 179.78906,496.789 179.60641,496.3976 179.2672,496.13667 C 179.00627,495.95401 178.74534,495.90183 178.06692,495.90183 L 176.55352,495.90183 L 176.55352,491.4399 M 180.44139,484.02945 C 181.51121,484.02945 182.37229,484.26429 183.05071,484.78615 C 183.80741,485.33411 184.30318,486.29955 184.30318,487.16063 C 184.30318,488.98714 182.6854,490.2918 180.44139,490.2918 C 178.1452,490.2918 176.55352,488.98714 176.55352,487.13453 C 176.55352,486.29955 177.04929,485.33411 177.80599,484.78615 C 178.48441,484.26429 179.34548,484.02945 180.44139,484.02945 M 197.47736,493.16205 L 200.53026,493.16205 C 201.07821,493.16205 201.44352,493.10986 201.62617,492.9794 C 202.01757,492.74456 202.2524,492.30097 202.2524,491.85739 C 202.2524,491.4399 202.04366,491.0485 201.73054,490.78757 C 201.46961,490.60492 201.23477,490.55273 200.53026,490.55273 L 200.11277,490.55273 L 200.11277,485.28192 C 200.11277,482.85526 198.18187,481.42014 194.97242,481.42014 C 193.66776,481.42014 191.73687,481.75935 190.4844,482.20293 C 189.96254,482.38558 189.7016,482.75089 189.7016,483.29884 C 189.7016,484.05554 190.24956,484.62959 190.98017,484.62959 C 191.21501,484.62959 191.58031,484.57741 192.02389,484.47303 C 193.22418,484.15992 194.18963,484.02945 195.0507,484.02945 C 196.72066,484.02945 197.47736,484.42085 197.47736,485.30801 L 197.47736,485.90816 C 196.40754,485.7255 195.59865,485.64722 194.76367,485.64722 C 192.44139,485.64722 190.64096,486.32565 189.46677,487.6303 C 188.84053,488.33482 188.44913,489.24808 188.44913,490.05696 C 188.44913,491.98786 190.56268,493.57954 193.1459,493.57954 C 194.68539,493.57954 196.22489,493.21423 197.47736,492.56191 L 197.47736,493.16205 M 197.50345,489.63947 C 196.06833,490.52664 194.60711,490.97022 193.19808,490.97022 C 192.07608,490.97022 191.21501,490.52664 191.21501,489.95259 C 191.21501,488.96105 192.83278,488.04779 194.60711,488.04779 C 195.49428,488.04779 196.45973,488.15217 197.50345,488.33482 L 197.50345,489.63947 M 209.94703,481.75935 L 206.42445,481.75935 C 205.98087,481.75935 205.4851,481.83763 205.32854,481.96809 C 204.93714,482.20293 204.70231,482.62042 204.70231,483.064 C 204.70231,483.48149 204.91105,483.87289 205.25026,484.10773 C 205.4851,484.31647 205.77213,484.36866 206.42445,484.36866 L 207.33771,484.36866 L 207.33771,490.55273 L 205.82431,490.55273 C 205.14589,490.55273 204.96324,490.57883 204.7284,490.73539 C 204.337,490.97022 204.10216,491.41381 204.10216,491.85739 C 204.10216,492.24879 204.31091,492.66628 204.62403,492.90112 C 204.85886,493.08377 205.22417,493.16205 205.82431,493.16205 L 213.57397,493.16205 C 214.12193,493.16205 214.51333,493.08377 214.69598,492.9794 C 215.08738,492.74456 215.32221,492.30097 215.32221,491.85739 C 215.32221,491.4399 215.11347,491.0485 214.77426,490.78757 C 214.51333,490.60492 214.30458,490.55273 213.57397,490.55273 L 209.94703,490.55273 L 209.94703,486.71704 C 212.42587,484.68178 213.41742,484.05554 214.25239,484.05554 C 214.6177,484.05554 214.87863,484.18601 215.27003,484.52522 C 215.66142,484.86443 215.92236,484.9949 216.28766,484.9949 C 216.99217,484.9949 217.59232,484.39475 217.59232,483.66415 C 217.59232,483.19447 217.40966,482.88135 216.86171,482.43777 C 216.05282,481.75935 215.21784,481.44623 214.30458,481.44623 C 213.02602,481.44623 212.03448,481.88981 209.94703,483.4554 L 209.94703,481.75935 M 223.61698,484.36866 L 228.33984,484.36866 C 228.91389,484.36866 229.227,484.31647 229.43575,484.18601 C 229.82715,483.95117 230.06198,483.50759 230.06198,483.064 C 230.06198,482.64651 229.85324,482.25512 229.54012,481.99418 C 229.2531,481.81153 229.04435,481.75935 228.33984,481.75935 L 223.61698,481.75935 L 223.61698,479.46315 C 223.61698,478.78473 223.59089,478.60208 223.43433,478.36724 C 223.19949,477.97584 222.7559,477.741 222.31232,477.741 C 221.89483,477.741 221.50343,477.94975 221.2686,478.26287 C 221.05985,478.5238 221.00766,478.78473 221.00766,479.46315 L 221.00766,481.75935 L 220.0944,481.75935 C 219.41598,481.75935 219.23333,481.78544 218.99849,481.942 C 218.6071,482.17684 218.37226,482.62042 218.37226,483.064 C 218.37226,483.4554 218.581,483.87289 218.89412,484.10773 C 219.15505,484.31647 219.44208,484.36866 220.0944,484.36866 L 221.00766,484.36866 L 221.00766,489.97869 C 221.00766,492.1966 222.86028,493.57954 225.8349,493.57954 C 227.19174,493.57954 229.2531,493.13595 230.53166,492.53581 C 231.5232,492.09223 231.83632,491.75302 231.83632,491.12678 C 231.83632,490.39618 231.28836,489.79603 230.58385,489.79603 C 230.29682,489.79603 230.11417,489.84822 229.67059,490.08306 C 228.4964,490.6832 227.24392,490.97022 225.86099,490.97022 C 224.86945,490.97022 224.13884,490.78757 223.82572,490.44836 C 223.66916,490.26571 223.61698,490.03087 223.61698,489.48292 L 223.61698,484.36866"
         style="font-size:65.23284912px;font-style:normal;font-variant:normal;font-weight:normal;font-stretch:normal;text-align:start;line-height:100%;writing-mode:lr-tb;text-anchor:start;color:#000000;fill:#000000;fill-opacity:1;fill-rule:nonzero;stroke:none;stroke-width:3.00000048;stroke-linecap:round;stroke-linejoin:miter;marker:none;marker-start:none;marker-mid:none;marker-end:none;stroke-miterlimit:0;stroke-dasharray:12.00000284, 6.00000143, 3.00000071, 6.00000143;stroke-dashoffset:0;stroke-opacity:1;visibility:visible;display:inline;overflow:visible;font-family:Nimbus Sans L" />
      <path
         sodipodi:nodetypes="ccc"
         id="path10216"
         d="M 149.64286,440.21932 L 129.64286,419.50504 L 112.27678,440.62111"
         style="opacity:1;color:#000000;fill:none;fill-opacity:1;fill-rule:nonzero;stroke:#576585;stroke-width:3;stroke-linecap:round;stroke-linejoin:miter;marker:none;marker-start:none;marker-mid:none;marker-end:none;stroke-miterlimit:0;stroke-dasharray:none;stroke-dashoffset:0;stroke-opacity:1;visibility:visible;display:inline;overflow:visible" />
      <path
         sodipodi:nodetypes="ccc"
         id="path11093"
         d="M 298.8349,451.29078 L 318.8349,472.00507 L 336.20098,450.88899"
         style="opacity:1;color:#000000;fill:none;fill-opacity:1;fill-rule:nonzero;stroke:#576585;stroke-width:3;stroke-linecap:round;stroke-linejoin:miter;marker:none;marker-start:none;marker-mid:none;marker-end:none;stroke-miterlimit:0;stroke-dasharray:none;stroke-dashoffset:0;stroke-opacity:1;visibility:visible;display:inline;overflow:visible" />
    </g>
  </g>
</svg>
