<?xml version="1.0" encoding="utf-8"?>
<!-- Generator: Adobe Illustrator 26.4.1, SVG Export Plug-In . SVG Version: 6.00 Build 0)  -->
<svg version="1.1" id="Capa_1" xmlns="http://www.w3.org/2000/svg" xmlns:xlink="http://www.w3.org/1999/xlink" x="0px" y="0px"
	 viewBox="0 0 208.4 131.1" style="enable-background:new 0 0 208.4 131.1;" xml:space="preserve">
<style type="text/css">
	.st0{fill:#9E9FA2;}
	.st1{fill:#C80502;}
	.st2{fill:#FFFFFF;}
	.st3{fill:#171C21;}
	.st4{fill:#00B753;}
	.st5{clip-path:url(#SVGID_00000037692849408420487860000005460850987165003658_);}
	.st6{fill:#1D1D1B;}
	.st7{fill:none;stroke:#939393;stroke-width:0.25;stroke-miterlimit:10;}
</style>
<g>
	<path class="st0" d="M207.9,71.3c-1.4-4.6-3.4-7.1-6.2-9.7c-9.6-7.6-22.2-14.9-30.7-20c-19.7-11.6-34.7-2.5-55.3,5.6
		c-0.3,0.1-1.1,0.5-1.2,0c0-0.4,0.1-0.6,0.1-0.6c0.9-0.8,7.2-6.7,8.1-7.6c2.2-1.6,7.8-4.5,10.5-6c9.4-6.9,4.9-21.5-8-20.2l-17.9,3
		c-0.7,0.1-6.7,1.5-10.7,4.7c-1,0.8-5.4,4-12.1,8.5c-6.2,4.6-12.9,4.3-21.2,1.9c-3.9-0.9-8.6-2-9-2.1c-0.8-0.3-8.2-1.6-12.4-0.6
		c-11.2,2.2-18,12.3-16,23.1c0.4,2.5,1,4.5,1.2,5.3c0,0.1,3,8.7,4.5,11.4c0.4,0.7,0.6,1.2,0.6,1.8C29.5,69,24.3,66.3,20,67
		c-6,0.6-14.2,6-13.2,18.8c2.5,35.7,22.2,45.1,49.7,28.8c0.7-0.4,85.3-46.8,85.4-46.9c8.6-5.2,19.1-4.3,25.7,2.8
		c1.3,1.3,8.3,9.5,10.9,12.5c0.6,0.8,6.5,8.2,16.2,7.2C203.8,89.5,210,78.8,207.9,71.3z M36.5,64.9c-2.3-5.7-7.6-15.5-4.1-23.3
		c4.4-8.8,14.1-8.9,20.4-7.2c11.8,2.6,24.1,7.8,35.1-0.8c2.1-1.4,9.2-6.1,12.3-8.6c2.9-2.4,7.7-3.5,8.2-3.6
		c-0.6,0.1,15.8-2.6,17.5-2.9c1-0.1,5.8-0.2,6.4,4.3c0.4,3.1-1.8,5-2.3,5.3c-2.8,1.5-9,4.8-10.9,6.3l-8.6,8
		c-3.7,3.5-1.7,11.8,4.8,10.7C135,47.2,148.5,35,168,46.5l8.7,5.2c4.8,3,18,11.4,21,14.1c2.2,2,3.8,4.1,4.7,7.6
		c0.6,4.6-3,10.5-8.5,10.8c-6.5,0.7-10.7-4.5-11.1-5.1c0-0.1-9.5-11.1-11.2-12.8c-9.6-10.1-23.4-9.5-32.7-3.8
		c0,0-85.4,46.8-85.4,46.9c-9.9,5.8-25.3,12.5-34.8-0.8c-2.9-2.8-5.5-15.6-6.3-23.7c-0.7-6.4,3-9.9,3.4-10.3c3.9-3.3,8-2.1,12.6-0.1
		C34.9,77.5,40.8,72.5,36.5,64.9z"/>
	<g>
		<g>
			<path class="st1" d="M130,93.1h-6.2c-1.6,0-2.8-1.3-2.8-2.8v-4.2c0-1.6,1.3-2.8,2.8-2.8h6.2c1.6,0,2.8,1.3,2.8,2.8v4.2
				C132.8,91.8,131.5,93.1,130,93.1z"/>
			<g>
				<path class="st2" d="M125.3,89.1v-0.2h1V89c0,0.4,0.2,0.6,0.5,0.6s0.5-0.2,0.5-0.4c0-0.3-0.1-0.4-0.5-0.5l-0.4-0.1
					c-0.6-0.2-1.2-0.5-1.2-1.3s0.6-1.3,1.5-1.3c1,0,1.5,0.5,1.5,1.4v0.1h-1v-0.2c0-0.4-0.2-0.6-0.5-0.6s-0.4,0.2-0.4,0.4
					c0,0.4,0.4,0.5,0.8,0.7h0.1c0.5,0.2,1.2,0.5,1.2,1.3c0,0.7-0.5,1.4-1.6,1.4C125.9,90.5,125.3,90,125.3,89.1z"/>
			</g>
			<path class="st1" d="M127.2,84.9c-0.3,0.1-0.5-0.1-0.6-0.4L117.8,68c-0.1-0.3,0.1-0.5,0.4-0.6s0.5,0.1,0.6,0.4l8.7,16.5
				C127.6,84.6,127.5,84.8,127.2,84.9z"/>
		</g>
		<g>
			<g>
				<path class="st1" d="M103.6,104.5h-6.2c-1.6,0-2.8-1.3-2.8-2.8v-4.3c0-1.6,1.3-2.8,2.8-2.8h6.2c1.6,0,2.8,1.3,2.8,2.8v4.2
					C106.4,103.2,105.2,104.5,103.6,104.5z"/>
				<g>
					<path class="st2" d="M98.9,98.5v0.9h1.6v0.8h-1.6v1.6h-1v-3.6c0-0.6,0.3-0.9,0.9-0.9h1.8l-0.1,0.8h-1.3
						C99,98.2,98.9,98.3,98.9,98.5z"/>
					<path class="st2" d="M101.2,100.8v-3.4h1v3.3c0,0.3,0.1,0.4,0.4,0.4h1.3l-0.1,0.8h-1.4C101.5,101.9,101.2,101.5,101.2,100.8z"
						/>
				</g>
				<g>
					<polygon class="st1" points="89.4,80.8 88.6,81.4 97.7,95.8 98.6,95.3 					"/>
					<rect x="88.4" y="79" transform="matrix(0.86 -0.5104 0.5104 0.86 -27.6246 58.3417)" class="st1" width="8.2" height="1"/>
					<path id="Shape_17_" class="st1" d="M96.1,76.3l-1.6,0.1c-0.2,0.1-0.4,0.2-0.2,0.3l0.9,1.4l0.8,1.4c0.1,0.2,0.3,0.2,0.5,0
						l0.8-1.4l0.8-1.4c0.1-0.2,0-0.4-0.2-0.4H96.1z"/>
				</g>
			</g>
			<g>
				<path class="st3" d="M116.4,116.3H96.3c-1.6,0-2.8-1.3-2.8-2.8v-4.3c0-1.6,1.3-2.8,2.8-2.8h20.1c1.6,0,2.8,1.3,2.8,2.8v4.2
					C119.2,115,117.9,116.3,116.4,116.3z"/>
				<circle class="st1" cx="98.8" cy="111.4" r="3.5"/>
				<circle class="st4" cx="106.8" cy="111.3" r="3.5"/>
				<g>
					<g>
						<g>
							<g>
								<g>
									<defs>
										<circle id="SVGID_00000178201918959381839950000010892886144710657211_" cx="114.4" cy="111.4" r="3.5"/>
									</defs>
									<clipPath id="SVGID_00000156558025304201401430000014025746292779708294_">
										<use xlink:href="#SVGID_00000178201918959381839950000010892886144710657211_"  style="overflow:visible;"/>
									</clipPath>
									<g style="clip-path:url(#SVGID_00000156558025304201401430000014025746292779708294_);">
										<rect x="106.2" y="105" class="st2" width="1.8" height="1.8"/>
										<rect x="108.1" y="105" class="st6" width="1.8" height="1.8"/>
										<rect x="109.9" y="105" class="st2" width="1.8" height="1.8"/>
										<rect x="111.7" y="105" class="st6" width="1.8" height="1.8"/>
										<rect x="113.5" y="105" class="st2" width="1.8" height="1.8"/>
										<rect x="115.4" y="105" class="st6" width="1.8" height="1.8"/>
										<rect x="117.2" y="105" class="st2" width="1.8" height="1.8"/>
										<rect x="119" y="105" class="st6" width="1.8" height="1.8"/>
										<rect x="106.2" y="106.8" class="st6" width="1.8" height="1.8"/>
										<rect x="108.1" y="106.8" class="st2" width="1.8" height="1.8"/>
										<rect x="109.9" y="106.8" class="st6" width="1.8" height="1.8"/>
										<rect x="111.7" y="106.8" class="st2" width="1.8" height="1.8"/>
										<rect x="113.5" y="106.8" class="st6" width="1.8" height="1.8"/>
										<rect x="115.4" y="106.8" class="st2" width="1.8" height="1.8"/>
										<rect x="117.2" y="106.8" class="st6" width="1.8" height="1.8"/>
										<rect x="119" y="106.8" class="st2" width="1.8" height="1.8"/>
										<rect x="106.2" y="108.6" class="st2" width="1.8" height="1.8"/>
										<rect x="108.1" y="108.6" class="st6" width="1.8" height="1.8"/>
										<rect x="109.9" y="108.6" class="st2" width="1.8" height="1.8"/>
										<rect x="111.7" y="108.6" class="st6" width="1.8" height="1.8"/>
										<rect x="113.5" y="108.6" class="st2" width="1.8" height="1.8"/>
										<rect x="115.4" y="108.6" class="st6" width="1.8" height="1.8"/>
										<rect x="117.2" y="108.6" class="st2" width="1.8" height="1.8"/>
										<rect x="119" y="108.6" class="st6" width="1.8" height="1.8"/>
										<rect x="106.2" y="110.5" class="st6" width="1.8" height="1.8"/>
										<rect x="108.1" y="110.5" class="st2" width="1.8" height="1.8"/>
										<rect x="109.9" y="110.5" class="st6" width="1.8" height="1.8"/>
										<rect x="111.7" y="110.5" class="st2" width="1.8" height="1.8"/>
										<rect x="113.5" y="110.5" class="st6" width="1.8" height="1.8"/>
										<rect x="115.4" y="110.5" class="st2" width="1.8" height="1.8"/>
										<rect x="117.2" y="110.5" class="st6" width="1.8" height="1.8"/>
										<rect x="119" y="110.5" class="st2" width="1.8" height="1.8"/>
										<rect x="106.2" y="112.3" class="st2" width="1.8" height="1.8"/>
										<rect x="108.1" y="112.3" class="st6" width="1.8" height="1.8"/>
										<rect x="109.9" y="112.3" class="st2" width="1.8" height="1.8"/>
										<rect x="111.7" y="112.3" class="st6" width="1.8" height="1.8"/>
										<rect x="113.5" y="112.3" class="st2" width="1.8" height="1.8"/>
										<rect x="115.4" y="112.3" class="st6" width="1.8" height="1.8"/>
										<rect x="117.2" y="112.3" class="st2" width="1.8" height="1.8"/>
										<rect x="119" y="112.3" class="st6" width="1.8" height="1.8"/>
										<rect x="106.2" y="114.1" class="st6" width="1.8" height="1.8"/>
										<rect x="108.1" y="114.1" class="st2" width="1.8" height="1.8"/>
										<rect x="109.9" y="114.1" class="st6" width="1.8" height="1.8"/>
										<rect x="111.7" y="114.1" class="st2" width="1.8" height="1.8"/>
										<rect x="113.5" y="114.1" class="st6" width="1.8" height="1.8"/>
										<rect x="115.4" y="114.1" class="st2" width="1.8" height="1.8"/>
										<rect x="117.2" y="114.1" class="st6" width="1.8" height="1.8"/>
										<rect x="119" y="114.1" class="st2" width="1.8" height="1.8"/>
										<rect x="106.2" y="115.9" class="st2" width="1.8" height="1.8"/>
										<rect x="108.1" y="115.9" class="st6" width="1.8" height="1.8"/>
										<rect x="109.9" y="115.9" class="st2" width="1.8" height="1.8"/>
										<rect x="111.7" y="115.9" class="st6" width="1.8" height="1.8"/>
										<rect x="113.5" y="115.9" class="st2" width="1.8" height="1.8"/>
										<rect x="115.4" y="115.9" class="st6" width="1.8" height="1.8"/>
										<rect x="117.2" y="115.9" class="st2" width="1.8" height="1.8"/>
										<rect x="119" y="115.9" class="st6" width="1.8" height="1.8"/>
										<rect x="106.2" y="117.8" class="st6" width="1.8" height="1.8"/>
										<rect x="108.1" y="117.8" class="st2" width="1.8" height="1.8"/>
										<rect x="109.9" y="117.8" class="st6" width="1.8" height="1.8"/>
										<rect x="111.7" y="117.8" class="st2" width="1.8" height="1.8"/>
										<rect x="113.5" y="117.8" class="st6" width="1.8" height="1.8"/>
										<rect x="115.4" y="117.8" class="st2" width="1.8" height="1.8"/>
										<rect x="117.2" y="117.8" class="st6" width="1.8" height="1.8"/>
										<rect x="119" y="117.8" class="st2" width="1.8" height="1.8"/>
									</g>
								</g>
							</g>
						</g>
					</g>
					<g>
						<circle id="SVGID_1_" class="st7" cx="114.4" cy="111.4" r="3.5"/>
					</g>
				</g>
			</g>
		</g>
		<g>
			<path class="st1" d="M205.6,54.2h-6.2c-1.6,0-2.8-1.3-2.8-2.8v-4.2c0-1.6,1.3-2.8,2.8-2.8h6.2c1.6,0,2.8,1.3,2.8,2.8v4.2
				C208.5,52.9,207.2,54.2,205.6,54.2z"/>
			<g>
				<path class="st2" d="M200.4,46.5h1v0.9h-1V46.5z M200.5,47.8h0.9v3.5h-0.9V47.8z"/>
				<path class="st2" d="M205.2,50.5l-0.2,0.8h-2.8v-0.8h1.1v-2.7l-1.1,0.5v-0.8l1.4-0.6h0.7v3.6H205.2z"/>
			</g>
			<path class="st1" d="M189.2,65c-0.2-0.2-0.1-0.5,0.1-0.7l8.8-10.9c0.2-0.2,0.5-0.1,0.7,0.1s0.1,0.5-0.1,0.7L189.9,65
				C189.7,65.3,189.4,65.3,189.2,65z"/>
		</g>
		<g>
			<path class="st1" d="M118.5,24.1C118.5,24.1,118.4,24.1,118.5,24.1c-0.4,0.1-0.6-0.1-0.7-0.3l-1.1-15.5c-0.1-0.3,0.1-0.6,0.4-0.6
				c0.3-0.1,0.5,0.1,0.6,0.4l1.1,15.5C118.8,23.8,118.7,24,118.5,24.1z"/>
			<path class="st1" d="M120.2,9.8H114c-1.6,0-2.8-1.3-2.8-2.8V2.8c0-1.6,1.3-2.8,2.8-2.8h6.2c1.6,0,2.8,1.3,2.8,2.8V7
				C123.1,8.5,121.8,9.8,120.2,9.8z"/>
			<g>
				<path class="st2" d="M115.1,2.1h1V3h-1V2.1z M115.1,3.4h0.9v3.5h-0.9V3.4z"/>
				<path class="st2" d="M116.7,6.1c0-0.7,0.3-1.1,0.9-1.4l0.2-0.1c0.7-0.3,0.9-0.5,0.9-0.9c0-0.3-0.2-0.6-0.5-0.6
					c-0.4,0-0.6,0.3-0.6,0.8V4h-1V3.9c0-1.1,0.5-1.6,1.6-1.6c0.9,0,1.5,0.5,1.5,1.4c0,0.7-0.3,1.1-1.1,1.5l-0.2,0.1
					c-0.6,0.2-0.8,0.4-0.8,0.8v0.1h2.1L119.6,7h-2.9V6.1z"/>
			</g>
		</g>
		<g>
			<path class="st1" d="M41.4,55.8c0,0.2-0.2,0.4-0.3,0.3l-17.4,5.8c-0.2,0.1-0.5,0-0.6-0.3c-0.1-0.2,0-0.5,0.3-0.6l17.4-5.8
				c0.2-0.1,0.5,0,0.6,0.3C41.4,55.7,41.4,55.7,41.4,55.8z"/>
			<path class="st1" d="M46.9,60.1h-6.2c-1.6,0-2.8-1.3-2.8-2.8v-4.2c0-1.6,1.3-2.8,2.8-2.8h6.2c1.6,0,2.8,1.3,2.8,2.8v4.2
				C49.7,58.9,48.5,60.1,46.9,60.1z"/>
			<g>
				<path class="st2" d="M41.7,52.5h1v0.9h-1V52.5z M41.8,53.8h0.9v3.5h-0.9V53.8z"/>
				<path class="st2" d="M43.3,55.9h1c0,0.4,0.2,0.7,0.6,0.7s0.6-0.2,0.6-0.6s-0.2-0.6-0.7-0.6h-0.4v-0.7h0.3c0.4,0,0.6-0.2,0.6-0.6
					c0-0.3-0.2-0.5-0.5-0.5c-0.4,0-0.6,0.2-0.6,0.7l0,0h-1l0,0c0-1,0.5-1.5,1.6-1.5c0.9,0,1.5,0.5,1.5,1.2c0,0.5-0.2,0.8-0.5,0.9
					c0.5,0.2,0.7,0.5,0.7,1c0,0.8-0.6,1.4-1.6,1.4C43.8,57.4,43.3,56.8,43.3,55.9z"/>
			</g>
		</g>
	</g>
</g>
<path class="st0" d="M153.2,73.2v-0.6h1.1v-3.1h0l-1,0.3l-0.1-0.6l1.3-0.4h0.7v3.9h1v0.6H153.2z"/>
<path class="st0" d="M203.7,96.9v-0.8c0-0.9,0.3-1.3,1-1.6l0.5-0.1c0.4-0.1,0.6-0.3,0.6-0.8v0c0-0.5-0.3-0.7-0.8-0.7
	c-0.4,0-0.8,0.1-1.1,0.3l-0.2-0.6c0.3-0.2,0.8-0.3,1.4-0.3c0.9,0,1.5,0.4,1.5,1.3v0.1c0,0.8-0.3,1.1-0.9,1.3l-0.5,0.2
	c-0.5,0.1-0.7,0.4-0.7,0.8v0.3h2.1v0.6H203.7z"/>
<path class="st0" d="M153.1,32.5l0.1-0.6c0.3,0.1,0.7,0.2,1.2,0.2c0.6,0,0.8-0.2,0.8-0.7v-0.1c0-0.5-0.3-0.7-0.9-0.7h-0.5v-0.6h0.4
	c0.6,0,0.9-0.2,0.9-0.7v0c0-0.4-0.3-0.6-0.7-0.6c-0.4,0-0.8,0.1-1.1,0.3l-0.2-0.6c0.3-0.2,0.8-0.3,1.4-0.3c0.8,0,1.4,0.3,1.4,1.1
	v0.1c0,0.5-0.2,0.9-0.7,1v0c0.5,0.1,0.8,0.4,0.8,1.1v0.1c0,0.9-0.5,1.3-1.6,1.3C153.9,32.7,153.4,32.6,153.1,32.5z"/>
<path class="st0" d="M104.3,56V55h-2.2v-0.5l1.6-3.1h0.8l-1.5,2.9h1.3V53h0.8v1.3h0.5V55h-0.5V56H104.3z"/>
<path class="st0" d="M115.9,32.2L115.9,32.2c0,1.1-0.6,1.5-1.6,1.5c-0.6,0-1.1-0.1-1.5-0.4l0.2-0.6c0.4,0.2,0.8,0.3,1.2,0.3
	c0.6,0,0.8-0.2,0.8-0.8v-0.1c0-0.6-0.3-0.8-0.9-0.8c-0.3,0-0.7,0-1,0.1l-0.2-0.2l0.2-2.2h2.4v0.6h-1.7l-0.1,1.1c0.2,0,0.4,0,0.5,0
	C115.5,30.8,115.9,31.3,115.9,32.2z"/>
<path class="st0" d="M142.8,15.8L142.8,15.8c0,1.1-0.5,1.5-1.5,1.5c-1.2,0-1.6-0.6-1.6-2.1V15c0-1.8,0.7-2.3,1.8-2.3
	c0.5,0,0.8,0.1,1.1,0.2l-0.1,0.6c-0.2-0.1-0.6-0.2-0.9-0.2c-0.7,0-1,0.3-1,1.2c0.3,0,0.6-0.1,0.9-0.1
	C142.4,14.5,142.8,14.9,142.8,15.8z M142,15.9c0-0.6-0.2-0.8-0.7-0.8c-0.3,0-0.6,0-0.8,0.1v0.1c0,1.1,0.1,1.5,0.8,1.5
	C141.9,16.8,142,16.5,142,15.9L142,15.9z"/>
<path class="st0" d="M95.1,15l1.9-3.9h-2.2v-0.6h3.1V11l-1.9,4H95.1z"/>
<path class="st0" d="M76.9,27.4L76.9,27.4c0,0.9-0.5,1.3-1.6,1.3c-1.1,0-1.6-0.4-1.6-1.3v0c0-0.5,0.2-0.9,0.7-1.1
	c-0.4-0.2-0.5-0.5-0.5-1v0c0-0.8,0.5-1.2,1.5-1.2c0.9,0,1.5,0.4,1.5,1.2v0.1c0,0.5-0.2,0.8-0.5,1C76.7,26.6,76.9,26.9,76.9,27.4z
	 M76.1,27.4c0-0.5-0.2-0.7-0.8-0.7h-0.1c-0.5,0-0.8,0.2-0.8,0.7v0c0,0.5,0.2,0.7,0.8,0.7C75.9,28.2,76.1,27.9,76.1,27.4L76.1,27.4z
	 M74.6,25.4c0,0.4,0.2,0.7,0.7,0.7h0.1c0.5,0,0.7-0.2,0.7-0.7v0c0-0.4-0.2-0.6-0.7-0.6C74.8,24.7,74.6,24.9,74.6,25.4L74.6,25.4z"/>
<path class="st0" d="M28.3,27.7v0.6c0,1.5-0.4,2.2-1.7,2.2c-0.5,0-0.9-0.1-1.2-0.2l0.1-0.6c0.3,0.1,0.7,0.2,1,0.2
	c0.6,0,0.9-0.3,0.9-1.1c-0.2,0-0.5,0.1-0.8,0.1c-1.1,0-1.5-0.4-1.5-1.4v-0.1c0-1,0.6-1.5,1.6-1.5C27.8,25.8,28.3,26.4,28.3,27.7z
	 M26,27.4c0,0.6,0.2,0.8,0.8,0.8c0.3,0,0.6,0,0.8-0.1v-0.3c0-1-0.1-1.4-0.8-1.4C26.2,26.5,26,26.7,26,27.4L26,27.4z"/>
<g>
	<path class="st0" d="M40.5,80.2v-0.6h1.1v-3.1h0l-1,0.3l-0.1-0.6l1.3-0.4h0.7v3.9h1v0.6H40.5z"/>
	<path class="st0" d="M44.4,80c-0.3-0.3-0.5-0.8-0.5-1.9v-0.2c0-1,0.1-1.5,0.4-1.8c0.3-0.3,0.6-0.4,1.2-0.4c0.6,0,1,0.1,1.2,0.4
		c0.3,0.3,0.4,0.8,0.4,1.8v0.2c0,1.1-0.1,1.5-0.4,1.8c-0.3,0.3-0.7,0.4-1.2,0.4C45.1,80.3,44.7,80.2,44.4,80z M46.2,79.4
		c0.2-0.2,0.2-0.6,0.2-1.4v-0.1c0-0.8,0-1.2-0.2-1.4c-0.1-0.2-0.3-0.2-0.6-0.2c-0.3,0-0.5,0.1-0.6,0.2c-0.2,0.2-0.2,0.6-0.2,1.4V78
		c0,0.8,0,1.2,0.2,1.4c0.1,0.1,0.3,0.2,0.6,0.2C45.9,79.7,46.1,79.6,46.2,79.4z"/>
</g>
<g>
	<path class="st0" d="M0.1,69.6V69h1.1v-3.1h0l-1,0.3L0,65.5l1.3-0.4H2V69h1v0.6H0.1z"/>
	<path class="st0" d="M3.9,69.6V69h1.1v-3.1h0l-1,0.3l-0.1-0.6l1.3-0.4h0.7V69h1v0.6H3.9z"/>
</g>
<g>
	<path class="st0" d="M29,131.1v-0.6h1.1v-3.1h0l-1,0.3l-0.1-0.6l1.3-0.4h0.7v3.9h1v0.6H29z"/>
	<path class="st0" d="M32.6,131.1v-0.8c0-0.9,0.3-1.3,1-1.6l0.5-0.1c0.4-0.1,0.6-0.3,0.6-0.8v0c0-0.5-0.3-0.7-0.8-0.7
		c-0.4,0-0.8,0.1-1.1,0.3l-0.2-0.6c0.3-0.2,0.8-0.3,1.4-0.3c0.9,0,1.5,0.4,1.5,1.3v0.1c0,0.8-0.3,1.1-0.9,1.3l-0.5,0.2
		c-0.5,0.1-0.7,0.4-0.7,0.8v0.3h2.1v0.6H32.6z"/>
</g>
</svg>
