<?xml version="1.0" encoding="utf-8"?>
<!-- Generator: Adobe Illustrator 26.4.1, SVG Export Plug-In . SVG Version: 6.00 Build 0)  -->
<svg version="1.1" id="Capa_1" xmlns="http://www.w3.org/2000/svg" xmlns:xlink="http://www.w3.org/1999/xlink" x="0px" y="0px"
	 viewBox="0 0 266.2 157.2" style="enable-background:new 0 0 266.2 157.2;" xml:space="preserve">
<style type="text/css">
	.st0{fill:#9C9C9D;}
	.st1{fill:#C71517;}
	.st2{fill:#FFFFFF;}
	.st3{fill:#181D22;}
	.st4{clip-path:url(#SVGID_00000178200301046838948470000013175990613555753150_);}
	.st5{fill:#1D1E1C;}
	.st6{fill:none;stroke:#919191;stroke-width:0.25;stroke-miterlimit:10;}
	.st7{fill:#35AA54;}
	.st8{fill:#9E9FA2;}
</style>
<g>
	<path class="st0" d="M262.3,90.9c-0.9-7.5-2.2-13.4-6.1-21.3C252.4,62,242.1,43,242,42.9c-0.5-1.4-2.4-4.9-9-8.8l-19.6-11.4
		c-1.7-1.5-10.7-3.8-16-1.8c-7.6,2.1-34,10.4-35.6,10.9c-3,1.2-9.7,1.3-13.5-0.3c-24.4-6-59.3-13.9-76.7-20.4
		C61.2,7.7,54,4.5,46.8,4.3c-9.1-0.2-22.9,4.8-26.6,16.2L1.5,80.6C-0.7,86.6,4.4,94,12,94.1c2.2,0,4.8-0.6,8.7-2
		c38-12.5,139.1-46.8,175.8-53.6c3.2-0.5,6.7-0.6,8,3c1.5,3.4,1.3,4.9-2,6.7c-3.9,2.1-13,7.2-15.2,19.3c-2.8,14.3,5,23,8.7,24.7
		c1.6,0.7,6.6,3.4,8.7,6.4l1.4,1.9c5.2,6.6,7.1,14.4-1.5,17.9l-8.7,3c-1.3,0.6-4,0.2-5.2-1c-2.3-1.8-1.7-4.2-1.3-6.7
		c1.1-11,5-20.6-7.1-32.7c-5.8-5.3-12.5-11-19.9-11c-1.8,0-3.6,0.3-5.4,1c-12.9,4.9-19.7,10-20.8,15.5c-1.1,4.7-0.9,8.3,0.2,11
		c1.4,4.5,6.6,22,6.6,22.1c1.9,9.5,15.6,29.7,40.2,29.5c13.3,0,23.4-6.1,24.5-6.9l36.4-22.9C253,111.3,264.8,104.6,262.3,90.9z
		 M183.9,101.3c-0.1,2.9-1.1,8.7-1.5,12.2c-0.4,2.2-1.3,8,3.9,12.2c4.2,3.2,8.4,3.4,11.9,2.1c5.8-2.5,15.9-3.2,18.7-13.7
		c1.6-9.3-2.9-14.1-6.6-19.4c-3.6-5.2-10.5-8.3-11.3-8.7c-2.5-1.3-6.8-7.5-5-17.2c1.7-8.9,8-12.4,11.7-14.5c6.6-3.6,8-8.9,5.1-15.5
		c-2.6-6.5-8.8-8.1-15.1-7C169.8,37,149.9,43.3,106,56.9c-19.6,6.4-79.6,25.9-87.5,28.7c-4.8,1.5-6.3,2.7-9.5,0.3
		c-1.2-0.9-1.1-2.3-0.9-3.2c3.6-11.6,18.3-59.1,18.6-60c2.4-8.6,15.8-12.4,22.2-11.4c4.1,0.6,12.3,3.5,20.3,6.3
		c21,7.1,65.3,18.7,86.2,22c4.7,0,7.9-1.1,8.5-1.3c1-0.3,27.8-8.7,35.2-10.7c2.9-1.3,9.7,0.1,10.7,1.1c0.1,0.1,19.4,11.3,19.6,11.4
		c2.4,1.4,5.4,3.6,6.4,6c0.1,0.1,10.4,19.1,14.2,26.7c3.5,7,4.6,12.1,5.5,19.1c0.7,4.2-0.2,8.1-3,10.8c-1.4,1.7-5.7,5.4-12.7,11.2
		c-0.4,0.2-34.4,21.6-35.9,22.6c-0.1,0.1-9,5.8-20.9,5.8c-21.2,0.2-32.3-17.9-33.6-24.5l-6.6-22.2c-0.7-2.2-1-2.4,0-7.6
		c0.2-0.7,1.7-4.7,16.5-10.4c0.9-0.4,1.9-0.6,2.9-0.6c4.4,0,9.3,3.7,15.3,9.2C184.1,92.1,183.9,98.8,183.9,101.3z"/>
	<g>
		<g>
			<g>
				<g>
					<g>
						<g>
							<path class="st1" d="M77.3,97.6h-6.2c-1.6,0-2.8-1.3-2.8-2.8v-4.3c0-1.6,1.3-2.8,2.8-2.8h6.2c1.6,0,2.8,1.3,2.8,2.8v4.2
								C80.1,96.3,78.9,97.6,77.3,97.6z"/>
							<g>
								<path class="st2" d="M72.6,91.6v0.9h1.6v0.8h-1.6v1.6h-1v-3.6c0-0.6,0.3-0.9,0.9-0.9h1.8l-0.1,0.8h-1.3
									C72.7,91.3,72.6,91.4,72.6,91.6z"/>
								<path class="st2" d="M74.9,93.9v-3.4h1v3.3c0,0.3,0.1,0.4,0.4,0.4h1.3L77.5,95h-1.4C75.2,95,74.9,94.6,74.9,93.9z"/>
							</g>
							<g>
								<polygon class="st1" points="63.5,64.3 62.5,64.7 74.1,89.7 75,89.3 								"/>
								<g>
									
										<rect x="62.4" y="62.9" transform="matrix(0.9256 -0.3786 0.3786 0.9256 -19.0528 29.8831)" class="st1" width="8.2" height="1"/>
									<path id="Shape_00000065764410594641705710000012851787520307324863_" class="st1" d="M71.2,62.6l-1,1.3
										c-0.1,0.2-0.4,0.2-0.4,0l-0.6-1.6l-0.6-1.5c-0.1-0.2,0.1-0.4,0.3-0.3l1.6,0.2l1.6,0.2c0.2,0,0.3,0.2,0.2,0.4L71.2,62.6z"/>
								</g>
							</g>
						</g>
						<g>
							<path class="st3" d="M88.1,97.7L84,97.8c-1.6,0-2.8-1.3-2.8-2.8v-4.3c0-1.6,1.3-2.8,2.8-2.8l4.1-0.1c1.6,0,2.8,1.3,2.8,2.8
								v4.2C90.9,96.4,89.6,97.7,88.1,97.7z"/>
							<g>
								<g>
									<g>
										<defs>
											<circle id="SVGID_1_" cx="86.1" cy="92.8" r="3.5"/>
										</defs>
										<clipPath id="SVGID_00000001656320158423333780000001030194961210775946_">
											<use xlink:href="#SVGID_1_"  style="overflow:visible;"/>
										</clipPath>
										<g style="clip-path:url(#SVGID_00000001656320158423333780000001030194961210775946_);">
											<rect x="77.9" y="86.4" class="st2" width="1.8" height="1.8"/>
											<rect x="79.8" y="86.4" class="st5" width="1.8" height="1.8"/>
											<rect x="81.6" y="86.4" class="st2" width="1.8" height="1.8"/>
											<rect x="83.4" y="86.4" class="st5" width="1.8" height="1.8"/>
											<rect x="85.2" y="86.4" class="st2" width="1.8" height="1.8"/>
											<rect x="87.1" y="86.4" class="st5" width="1.8" height="1.8"/>
											<rect x="88.9" y="86.4" class="st2" width="1.8" height="1.8"/>
											<rect x="90.7" y="86.4" class="st5" width="1.8" height="1.8"/>
											<rect x="77.9" y="88.2" class="st5" width="1.8" height="1.8"/>
											<rect x="79.8" y="88.2" class="st2" width="1.8" height="1.8"/>
											<rect x="81.6" y="88.2" class="st5" width="1.8" height="1.8"/>
											<rect x="83.4" y="88.2" class="st2" width="1.8" height="1.8"/>
											<rect x="85.2" y="88.2" class="st5" width="1.8" height="1.8"/>
											<rect x="87.1" y="88.2" class="st2" width="1.8" height="1.8"/>
											<rect x="88.9" y="88.2" class="st5" width="1.8" height="1.8"/>
											<rect x="90.7" y="88.2" class="st2" width="1.8" height="1.8"/>
											<rect x="77.9" y="90" class="st2" width="1.8" height="1.8"/>
											<rect x="79.8" y="90" class="st5" width="1.8" height="1.8"/>
											<rect x="81.6" y="90" class="st2" width="1.8" height="1.8"/>
											<rect x="83.4" y="90" class="st5" width="1.8" height="1.8"/>
											<rect x="85.2" y="90" class="st2" width="1.8" height="1.8"/>
											<rect x="87.1" y="90" class="st5" width="1.8" height="1.8"/>
											<rect x="88.9" y="90" class="st2" width="1.8" height="1.8"/>
											<rect x="90.7" y="90" class="st5" width="1.8" height="1.8"/>
											<rect x="77.9" y="91.9" class="st5" width="1.8" height="1.8"/>
											<rect x="79.8" y="91.9" class="st2" width="1.8" height="1.8"/>
											<rect x="81.6" y="91.9" class="st5" width="1.8" height="1.8"/>
											<rect x="83.4" y="91.9" class="st2" width="1.8" height="1.8"/>
											<rect x="85.2" y="91.9" class="st5" width="1.8" height="1.8"/>
											<rect x="87.1" y="91.9" class="st2" width="1.8" height="1.8"/>
											<rect x="88.9" y="91.9" class="st5" width="1.8" height="1.8"/>
											<rect x="90.7" y="91.9" class="st2" width="1.8" height="1.8"/>
											<rect x="77.9" y="93.7" class="st2" width="1.8" height="1.8"/>
											<rect x="79.8" y="93.7" class="st5" width="1.8" height="1.8"/>
											<rect x="81.6" y="93.7" class="st2" width="1.8" height="1.8"/>
											<rect x="83.4" y="93.7" class="st5" width="1.8" height="1.8"/>
											<rect x="85.2" y="93.7" class="st2" width="1.8" height="1.8"/>
											<rect x="87.1" y="93.7" class="st5" width="1.8" height="1.8"/>
											<rect x="88.9" y="93.7" class="st2" width="1.8" height="1.8"/>
											<rect x="90.7" y="93.7" class="st5" width="1.8" height="1.8"/>
											<rect x="77.9" y="95.5" class="st5" width="1.8" height="1.8"/>
											<rect x="79.8" y="95.5" class="st2" width="1.8" height="1.8"/>
											<rect x="81.6" y="95.5" class="st5" width="1.8" height="1.8"/>
											<rect x="83.4" y="95.5" class="st2" width="1.8" height="1.8"/>
											<rect x="85.2" y="95.5" class="st5" width="1.8" height="1.8"/>
											<rect x="87.1" y="95.5" class="st2" width="1.8" height="1.8"/>
											<rect x="88.9" y="95.5" class="st5" width="1.8" height="1.8"/>
											<rect x="90.7" y="95.5" class="st2" width="1.8" height="1.8"/>
											<rect x="77.9" y="97.3" class="st2" width="1.8" height="1.8"/>
											<rect x="79.8" y="97.3" class="st5" width="1.8" height="1.8"/>
											<rect x="81.6" y="97.3" class="st2" width="1.8" height="1.8"/>
											<rect x="83.4" y="97.3" class="st5" width="1.8" height="1.8"/>
											<rect x="85.2" y="97.3" class="st2" width="1.8" height="1.8"/>
											<rect x="87.1" y="97.3" class="st5" width="1.8" height="1.8"/>
											<rect x="88.9" y="97.3" class="st2" width="1.8" height="1.8"/>
											<rect x="90.7" y="97.3" class="st5" width="1.8" height="1.8"/>
											<rect x="77.9" y="99.2" class="st5" width="1.8" height="1.8"/>
											<rect x="79.8" y="99.2" class="st2" width="1.8" height="1.8"/>
											<rect x="81.6" y="99.2" class="st5" width="1.8" height="1.8"/>
											<rect x="83.4" y="99.2" class="st2" width="1.8" height="1.8"/>
											<rect x="85.2" y="99.2" class="st5" width="1.8" height="1.8"/>
											<rect x="87.1" y="99.2" class="st2" width="1.8" height="1.8"/>
											<rect x="88.9" y="99.2" class="st5" width="1.8" height="1.8"/>
											<rect x="90.7" y="99.2" class="st2" width="1.8" height="1.8"/>
										</g>
									</g>
								</g>
								<g>
									<circle id="SVGID_00000081626722910048823450000009398272281877020083_" class="st6" cx="86.1" cy="92.8" r="3.5"/>
								</g>
							</g>
						</g>
					</g>
					<g>
						<path class="st1" d="M126.8,16.2h-6.2c-1.6,0-2.8-1.3-2.8-2.8V9.2c0-1.6,1.3-2.8,2.8-2.8h6.2c1.6,0,2.8,1.3,2.8,2.8v4.2
							C129.6,15,128.4,16.2,126.8,16.2z"/>
						<g>
							<path class="st2" d="M121.6,8.6h1v0.9h-1V8.6z M121.7,9.9h0.9v3.5h-0.9V9.9z"/>
							<path class="st2" d="M123.2,12h1c0,0.4,0.2,0.7,0.6,0.7s0.6-0.2,0.6-0.6c0-0.4-0.2-0.6-0.7-0.6h-0.4v-0.7h0.3
								c0.4,0,0.6-0.2,0.6-0.6c0-0.3-0.2-0.5-0.5-0.5c-0.4,0-0.6,0.2-0.6,0.7l0,0h-1l0,0c0-1,0.5-1.5,1.6-1.5c0.9,0,1.5,0.5,1.5,1.2
								c0,0.5-0.2,0.8-0.5,0.9c0.5,0.2,0.7,0.5,0.7,1c0,0.8-0.6,1.4-1.6,1.4C123.7,13.5,123.2,12.9,123.2,12z"/>
						</g>
						<path class="st1" d="M123.6,15c0.1,0.1,0.2,0.4,0,0.5L118,36.1c-0.1,0.2-0.4,0.3-0.7,0.3c-0.2-0.1-0.3-0.4-0.3-0.7l5.6-20.6
							c0.1-0.2,0.4-0.3,0.7-0.3C123.5,14.9,123.5,14.9,123.6,15z"/>
					</g>
					<g>
						<path class="st1" d="M210.7,157.2h-6.2c-1.6,0-2.8-1.3-2.8-2.8v-4.2c0-1.6,1.3-2.8,2.8-2.8h6.2c1.6,0,2.8,1.3,2.8,2.8v4.2
							C213.6,155.9,212.3,157.2,210.7,157.2z"/>
						<g>
							<path class="st2" d="M205.6,149.5h1v0.9h-1V149.5z M205.6,150.8h0.9v3.5h-0.9V150.8z"/>
							<path class="st2" d="M207.2,153.5c0-0.7,0.3-1.1,0.9-1.4l0.2-0.1c0.7-0.3,0.9-0.5,0.9-0.9c0-0.3-0.2-0.6-0.5-0.6
								c-0.4,0-0.6,0.3-0.6,0.8v0.1h-1v-0.1c0-1.1,0.5-1.6,1.6-1.6c0.9,0,1.5,0.5,1.5,1.4c0,0.7-0.3,1.1-1.1,1.5l-0.2,0.1
								c-0.6,0.2-0.8,0.4-0.8,0.8v0.1h2.1l-0.1,0.8h-2.9L207.2,153.5L207.2,153.5z"/>
						</g>
						<path class="st1" d="M196.4,135.1C196.4,135.1,196.5,135,196.4,135.1c0.4-0.1,0.6,0.1,0.7,0.4l8.4,14.1
							c0.1,0.3-0.1,0.6-0.4,0.6c-0.3,0.1-0.5-0.1-0.6-0.4l-8.4-14.1C196.1,135.4,196.2,135.1,196.4,135.1z"/>
					</g>
					<g>
						<path class="st1" d="M191,92.1c-0.1-0.3-0.1-0.5,0.2-0.7l14-12c0.3-0.1,0.5-0.1,0.7,0.2c0.1,0.3,0.1,0.5-0.2,0.7l-14,12
							C191.4,92.5,191.1,92.4,191,92.1z"/>
						<path class="st1" d="M210.7,82.3h-6.2c-1.6,0-2.8-1.3-2.8-2.8v-4.2c0-1.6,1.3-2.8,2.8-2.8h6.2c1.6,0,2.8,1.3,2.8,2.8v4.2
							C213.6,81,212.3,82.3,210.7,82.3z"/>
						<g>
							<path class="st2" d="M205.5,74.6h1v0.9h-1V74.6z M205.6,75.9h0.9v3.5h-0.9V75.9z"/>
							<path class="st2" d="M210.3,78.6l-0.2,0.8h-2.8v-0.8h1.1v-2.7l-1.1,0.5v-0.8l1.4-0.6h0.7v3.6H210.3z"/>
						</g>
					</g>
					<g>
						<path class="st1" d="M134.9,70.8h-6.2c-1.6,0-2.8-1.3-2.8-2.8v-4.2c0-1.6,1.3-2.8,2.8-2.8h6.2c1.6,0,2.8,1.3,2.8,2.8V68
							C137.7,69.5,136.4,70.8,134.9,70.8z"/>
						<g>
							<path class="st2" d="M130.2,66.8v-0.2h1v0.1c0,0.4,0.2,0.6,0.5,0.6s0.5-0.2,0.5-0.4c0-0.3-0.1-0.4-0.5-0.5l-0.4-0.1
								c-0.6-0.2-1.2-0.5-1.2-1.3c0-0.8,0.6-1.3,1.5-1.3c1,0,1.5,0.5,1.5,1.4v0.1h-1V65c0-0.4-0.2-0.6-0.5-0.6s-0.4,0.2-0.4,0.4
								c0,0.4,0.4,0.5,0.8,0.7h0.1c0.5,0.2,1.2,0.5,1.2,1.3c0,0.7-0.5,1.4-1.6,1.4C130.8,68.2,130.2,67.7,130.2,66.8z"/>
						</g>
						<path class="st1" d="M130.5,62.1c-0.3,0.1-0.5,0-0.6-0.3l-5.5-14.7c-0.1-0.3,0-0.5,0.3-0.6s0.5,0,0.6,0.3l5.5,14.7
							C130.9,61.8,130.7,62.1,130.5,62.1z"/>
					</g>
					<g>
						<g>
							<g>
								<polygon class="st1" points="108,50.2 107,50.6 118.6,75.6 119.5,75.2 								"/>
								<g>
									
										<rect x="106.9" y="48.8" transform="matrix(0.9256 -0.3786 0.3786 0.9256 -10.4078 45.6796)" class="st1" width="8.2" height="1"/>
									<path id="Shape_00000096746466641133192240000003154193030867550399_" class="st1" d="M115.7,48.5l-1,1.3
										c-0.1,0.2-0.4,0.2-0.4,0l-0.6-1.6l-0.6-1.5c-0.1-0.2,0.1-0.4,0.3-0.3l1.6,0.2l1.6,0.2c0.2,0,0.3,0.2,0.2,0.4L115.7,48.5z"
										/>
								</g>
							</g>
						</g>
						<g>
							<path class="st3" d="M125.7,83.5h-14.4c-1.1,0-2-1.3-2-2.8v-4.3c0-1.6,0.9-2.8,2-2.8h14.4c1.1,0,2,1.3,2,2.8v4.2
								C127.7,82.2,126.7,83.5,125.7,83.5z"/>
							<circle class="st1" cx="114.6" cy="78.6" r="3.5"/>
							<circle class="st7" cx="122.6" cy="78.5" r="3.5"/>
						</g>
					</g>
				</g>
			</g>
		</g>
	</g>
	<path class="st8" d="M194.7,46.5v-0.6h1.1v-3.1h0l-1,0.3l-0.1-0.6l1.3-0.4h0.7v3.9h1v0.6H194.7z"/>
	<path class="st8" d="M198.3,70.5v-0.8c0-0.9,0.3-1.3,1-1.6l0.5-0.1c0.4-0.1,0.6-0.3,0.6-0.8v0c0-0.5-0.3-0.7-0.8-0.7
		c-0.4,0-0.8,0.1-1.1,0.3l-0.2-0.6c0.3-0.2,0.8-0.3,1.4-0.3c0.9,0,1.5,0.4,1.5,1.3v0.1c0,0.8-0.3,1.1-0.9,1.3l-0.5,0.2
		c-0.5,0.1-0.7,0.4-0.7,0.8v0.3h2.1v0.6H198.3z"/>
	<path class="st8" d="M196.9,113.3l0.1-0.6c0.3,0.1,0.7,0.2,1.2,0.2c0.6,0,0.8-0.2,0.8-0.7v-0.1c0-0.5-0.3-0.7-0.9-0.7h-0.5v-0.6
		h0.4c0.6,0,0.9-0.2,0.9-0.7v0c0-0.4-0.3-0.6-0.7-0.6c-0.4,0-0.8,0.1-1.1,0.3l-0.2-0.6c0.3-0.2,0.8-0.3,1.4-0.3
		c0.8,0,1.4,0.3,1.4,1.1v0.1c0,0.5-0.2,0.9-0.7,1v0c0.5,0.1,0.8,0.4,0.8,1.1v0.1c0,0.9-0.5,1.3-1.6,1.3
		C197.7,113.5,197.3,113.4,196.9,113.3z"/>
	<path class="st8" d="M177.7,97.3v-0.9h-2.2v-0.5l1.6-3.1h0.8l-1.5,2.9h1.3v-1.3h0.8v1.3h0.5v0.7h-0.5v0.9H177.7z"/>
	<path class="st8" d="M165.3,64.5L165.3,64.5c0,1.1-0.6,1.5-1.6,1.5c-0.6,0-1.1-0.1-1.5-0.4l0.2-0.6c0.4,0.2,0.8,0.3,1.2,0.3
		c0.6,0,0.8-0.2,0.8-0.8v-0.1c0-0.6-0.3-0.8-0.9-0.8c-0.3,0-0.7,0-1,0.1l-0.2-0.2l0.2-2.2h2.4V62h-1.7l-0.1,1.1c0.2,0,0.4,0,0.5,0
		C164.9,63.1,165.3,63.5,165.3,64.5z"/>
	<path class="st8" d="M131.1,93.2L131.1,93.2c0,1.1-0.5,1.5-1.5,1.5c-1.2,0-1.6-0.6-1.6-2.1v-0.3c0-1.8,0.7-2.3,1.8-2.3
		c0.5,0,0.8,0.1,1.1,0.2l-0.1,0.6c-0.2-0.1-0.6-0.2-0.9-0.2c-0.7,0-1,0.3-1,1.2c0.3,0,0.6-0.1,0.9-0.1
		C130.7,91.8,131.1,92.3,131.1,93.2z M130.3,93.2c0-0.6-0.2-0.8-0.7-0.8c-0.3,0-0.6,0-0.8,0.1v0.1c0,1.1,0.1,1.5,0.8,1.5
		C130.1,94.1,130.3,93.9,130.3,93.2L130.3,93.2z"/>
	<path class="st8" d="M153.2,151.4l1.9-3.9h-2.2v-0.6h3.1v0.5l-1.9,4H153.2z"/>
	<path class="st8" d="M266.2,112.2L266.2,112.2c0,0.9-0.5,1.3-1.6,1.3c-1.1,0-1.6-0.4-1.6-1.3v0c0-0.5,0.2-0.9,0.7-1.1
		c-0.4-0.2-0.5-0.5-0.5-1v0c0-0.8,0.5-1.2,1.5-1.2c0.9,0,1.5,0.4,1.5,1.2v0.1c0,0.5-0.2,0.8-0.5,1
		C266,111.3,266.2,111.6,266.2,112.2z M265.4,112.1c0-0.5-0.2-0.7-0.8-0.7h-0.1c-0.5,0-0.8,0.2-0.8,0.7v0c0,0.5,0.2,0.7,0.8,0.7
		C265.2,112.9,265.4,112.7,265.4,112.1L265.4,112.1z M263.9,110.1c0,0.4,0.2,0.7,0.7,0.7h0.1c0.5,0,0.7-0.2,0.7-0.7v0
		c0-0.4-0.2-0.6-0.7-0.6C264.1,109.5,263.9,109.7,263.9,110.1L263.9,110.1z"/>
	<path class="st8" d="M250,35.9v0.6c0,1.5-0.4,2.2-1.7,2.2c-0.5,0-0.9-0.1-1.2-0.2l0.1-0.6c0.3,0.1,0.7,0.2,1,0.2
		c0.6,0,0.9-0.3,0.9-1.1c-0.2,0-0.5,0.1-0.8,0.1c-1.1,0-1.5-0.4-1.5-1.4v-0.1c0-1,0.6-1.5,1.6-1.5C249.5,34.1,250,34.6,250,35.9z
		 M247.7,35.6c0,0.6,0.2,0.8,0.8,0.8c0.3,0,0.6,0,0.8-0.1v-0.3c0-1-0.1-1.4-0.8-1.4C247.9,34.7,247.7,35,247.7,35.6L247.7,35.6z"/>
	<g>
		<path class="st8" d="M202.2,15.7V15h1.1v-3.1h0l-1,0.3l-0.1-0.6l1.3-0.4h0.7V15h1v0.6H202.2z"/>
		<path class="st8" d="M206.1,15.4c-0.3-0.3-0.5-0.8-0.5-1.9v-0.2c0-1,0.1-1.5,0.4-1.8c0.3-0.3,0.6-0.4,1.2-0.4c0.6,0,1,0.1,1.2,0.4
			c0.3,0.3,0.4,0.8,0.4,1.8v0.2c0,1.1-0.1,1.5-0.4,1.8c-0.3,0.3-0.7,0.4-1.2,0.4C206.8,15.7,206.4,15.6,206.1,15.4z M207.9,14.9
			c0.2-0.2,0.2-0.6,0.2-1.4v-0.1c0-0.8,0-1.2-0.2-1.4c-0.1-0.2-0.3-0.2-0.6-0.2c-0.3,0-0.5,0.1-0.6,0.2c-0.2,0.2-0.2,0.6-0.2,1.4
			v0.1c0,0.8,0,1.2,0.2,1.4c0.1,0.1,0.3,0.2,0.6,0.2C207.6,15.1,207.8,15,207.9,14.9z"/>
	</g>
	<g>
		<path class="st8" d="M152.2,26.6V26h1.1v-3.1h0l-1,0.3l-0.1-0.6l1.3-0.4h0.7V26h1v0.6H152.2z"/>
		<path class="st8" d="M155.9,26.6V26h1.1v-3.1h0l-1,0.3l-0.1-0.6l1.3-0.4h0.7V26h1v0.6H155.9z"/>
	</g>
	<g>
		<path class="st8" d="M21.6,4.6V4h1.1V0.8h0l-1,0.3l-0.1-0.6l1.3-0.4h0.7V4h1v0.6H21.6z"/>
		<path class="st8" d="M25.2,4.6V3.8c0-0.9,0.3-1.3,1-1.6l0.5-0.1c0.4-0.1,0.6-0.3,0.6-0.8v0c0-0.5-0.3-0.7-0.8-0.7
			c-0.4,0-0.8,0.1-1.1,0.3l-0.2-0.6C25.6,0.1,26.1,0,26.7,0c0.9,0,1.5,0.4,1.5,1.3v0.1c0,0.8-0.3,1.1-0.9,1.3l-0.5,0.2
			C26.1,3,26,3.2,26,3.7V4H28v0.6H25.2z"/>
	</g>
	<g>
		<path class="st8" d="M0.1,102.3v-0.6h1.1v-3.1h0l-1,0.3L0,98.3l1.3-0.4H2v3.9h1v0.6H0.1z"/>
		<path class="st8" d="M3.6,102.2l0.1-0.6c0.3,0.1,0.7,0.2,1.2,0.2c0.6,0,0.8-0.2,0.8-0.7V101c0-0.5-0.3-0.7-0.9-0.7H4.4v-0.6h0.4
			c0.6,0,0.9-0.2,0.9-0.7v0c0-0.4-0.3-0.6-0.7-0.6c-0.4,0-0.8,0.1-1.1,0.3L3.7,98c0.3-0.2,0.8-0.3,1.4-0.3c0.8,0,1.4,0.3,1.4,1.1
			v0.1c0,0.5-0.2,0.9-0.7,1v0c0.5,0.1,0.8,0.4,0.8,1.1v0.1c0,0.9-0.5,1.3-1.6,1.3C4.4,102.4,4,102.3,3.6,102.2z"/>
	</g>
</g>
</svg>
