<?xml version="1.0" encoding="utf-8"?>
<!-- Generator: Adobe Illustrator 26.4.1, SVG Export Plug-In . SVG Version: 6.00 Build 0)  -->
<svg version="1.1" id="Capa_1" xmlns="http://www.w3.org/2000/svg" xmlns:xlink="http://www.w3.org/1999/xlink" x="0px" y="0px"
	 viewBox="0 0 179.7 152.6" style="enable-background:new 0 0 179.7 152.6;" xml:space="preserve">
<style type="text/css">
	.st0{fill:#9E9FA2;}
	.st1{fill:#C80502;}
	.st2{fill:#FFFFFF;}
	.st3{fill:#171C21;}
	.st4{fill:#00B753;}
	.st5{clip-path:url(#SVGID_00000043456926100839571870000006548800177398547630_);}
	.st6{fill:#1D1D1B;}
	.st7{fill:none;stroke:#939393;stroke-width:0.25;stroke-miterlimit:10;}
</style>
<g>
	<path class="st0" d="M172.3,80.1c-2-2.4-23.1-30.6-23.3-30.7c-0.5-0.7-4.8-6.5-12.7-6.5c-5.3,0.1-9.7,1.9-12.5,5.2
		c-4.6,5.2-8.8,5.8-13.2,5.5c-8.6-0.9-11.6-8.9-12-11.6c0,0,0-0.3-0.2-1.6c-2.2-18.7-3.4-28.4-3.4-28.7c-0.2-5-6-6.3-9.8-4.1
		c-0.9,0.4-14.9,5.9-21.6,7.8c-7.4,2.2-25.5,7-27.3,7.4c-0.2,0-15.5,3.7-18.9,18.4c-2.4,10.2-2.3,15.9,3,23.7c0.6,0.9,2.2,3.1,2.2,4
		c-0.2,0.5-0.4,0.7-0.5,0.7c-2.2-1-5-2.6-8-2.5c-3.1,0.2-5.2,1-6.8,4.8c-2.4,6.2,3.3,10.4,7.2,10.4c21.7-0.4,108.6-2,128.6-2.2
		c1.2,0,3.1,0.3,3.3,2.3c0,0.7-0.2,1.1-0.4,1.3c-0.7,0.7-2.3,1.1-3.6,1.1L26.8,98.8c-3.7,0.7-7.4,3.3-6.8,7.4
		c0.4,2.3,2.2,10.3,10.3,13.7c3.6,1.6,7.3,2.3,10.9,2.3c5.9,0.4,13.9-3.9,19.2-6c0.2-0.1,1.2-0.4,2.3-0.4s2.2,0.3,2.9,0.9
		c2.5,2.1,16.5,15.5,24.7,23.6c1.4,2.2,5,4.6,8.5,4c0.6,0,3.9-0.3,6.9-4.8c2.8-3.5,8-13.4,6.4-22.7c-1.7-8.9-8.3-10.5-12.8-13.8
		c0.1,0,0.4,0,0.7,0c0.2,0,24.3-2.2,30.5-2.3l30.6-0.2c2,0.2,4.6,0.1,6.7-3.6c1.5-2.8,5.1-9.4,5.2-9.4
		C174.4,85.1,174,82.3,172.3,80.1z M94.2,101.4c-1,4,1.9,5.9,2.2,6.1l5.4,3.3c2.2,1.2,5.8,3.9,5.4,9.8c0,7.6-3.5,12.9-5.7,16
		c-1.4,2.1-2.6,2.5-3.2,2.5c-2,0.5-3.5-1.5-4.1-2.4c-1.6-1.6-21.9-21.4-25.3-24.1c-2.6-2.4-8-2.3-10.6-1.3l-10,4.2
		c-5,2.1-10.5,2-16.1-0.5c-5.8-2.4-6.9-8.1-7.2-9.8c0-0.5,1.6-1.2,2.5-1.5L142.7,90c3.4,0,9.2-2.2,8.7-7.9c-0.3-5.3-4.9-7.2-8.8-7.2
		l-29.4,0.5C87.8,75.8,18,77,14.4,77.1c-0.7-0.1-2.7-0.9-2.7-2.3c-0.1-0.8,0.7-2.3,1.3-2.4c1.9-0.4,3.5,0.4,5.9,1.6
		c3.4,1.8,6.8,0.9,8.6-3.4c1.6-4.7-3.9-9-5.3-13.3c-1.1-2.4-2.2-4.9,0.2-15C25.1,30.9,37.3,28,37.5,28c2.4-0.6,20.4-5.5,27.6-7.5
		c7-2.1,21.1-7.6,22.4-8.1c0.8-0.4,1.6-0.4,2.3,0.2l3.6,30.3c0.6,6.6,7.7,16.6,18.8,16.2c6.1,0,11.5-2.6,15.6-7.6
		c1.8-2.1,4.7-3.1,8.5-3.1c5.4,0,8.3,4.3,8.4,4.3c1.1,1.4,21.3,28.4,23.4,31c0.6,0.7,0.5,1,0.3,1.4l0,0c-0.2,0.3-3.8,6.7-5.3,9.7
		c-0.2,0.6-0.9,0.8-1.9,0.8l-30.9,0.3c-6.4,0.2-23.8,1.8-31,2.3C97.5,97.8,94.9,98.8,94.2,101.4z"/>
	<g>
		<g>
			<path class="st1" d="M42.3,94.8h-6.1c-1.6,0-2.7-1.3-2.7-2.7v-4.1c0-1.6,1.3-2.7,2.7-2.7h6.1c1.6,0,2.7,1.3,2.7,2.7V92
				C45,93.5,43.8,94.8,42.3,94.8z"/>
			<g>
				<path class="st2" d="M37.7,90.9v-0.2h1v0.1c0,0.4,0.2,0.6,0.5,0.6s0.5-0.2,0.5-0.4c0-0.3-0.1-0.4-0.5-0.5l-0.4-0.1
					c-0.6-0.2-1.2-0.5-1.2-1.3c0-0.8,0.6-1.3,1.5-1.3c1,0,1.5,0.5,1.5,1.4v0.1h-1v-0.2c0-0.4-0.2-0.6-0.5-0.6s-0.4,0.2-0.4,0.4
					c0,0.4,0.4,0.5,0.8,0.7h0.1c0.5,0.2,1.2,0.5,1.2,1.3c0,0.7-0.5,1.4-1.6,1.4C38.3,92.2,37.7,91.7,37.7,90.9z"/>
			</g>
			<path class="st1" d="M39.1,87.9c-0.3,0-0.4-0.3-0.4-0.6L38.8,73c0-0.3,0.3-0.4,0.6-0.4c0.3,0,0.4,0.3,0.4,0.6l-0.2,14.4
				C39.6,87.7,39.4,87.9,39.1,87.9z"/>
		</g>
		<g>
			<g>
				<path class="st1" d="M114,73.6h-6.1c-1.6,0-2.7-1.3-2.7-2.7v-4.2c0-1.6,1.3-2.7,2.7-2.7h6.1c1.6,0,2.7,1.3,2.7,2.7v4.1
					C116.7,72.3,115.5,73.6,114,73.6z"/>
				<g>
					<path class="st2" d="M109.4,67.7v0.9h1.6v0.8h-1.6v1.6h-1v-3.5c0-0.6,0.3-0.9,0.9-0.9h1.8l-0.1,0.8h-1.3
						C109.5,67.4,109.4,67.5,109.4,67.7z"/>
					<path class="st2" d="M111.6,69.9v-3.3h1v3.2c0,0.3,0.1,0.4,0.4,0.4h1.3l-0.1,0.8h-1.4C111.9,71,111.6,70.6,111.6,69.9z"/>
				</g>
				<g>
					<polygon class="st1" points="110.8,85.7 111.7,85.7 111.8,71.9 110.8,71.8 					"/>
					
						<rect x="107" y="81.1" transform="matrix(3.647907e-02 -0.9993 0.9993 3.647907e-02 18.5511 189.3761)" class="st1" width="1" height="8"/>
					<path id="Shape_17_" class="st1" d="M102.8,85.9l1.4,0.8c0.2,0.1,0.4,0.1,0.4-0.1V85l0.1-1.6c0-0.2-0.1-0.3-0.4-0.2l-1.4,0.8
						l-1.4,0.8c-0.2,0.1-0.2,0.3-0.1,0.4L102.8,85.9z"/>
				</g>
			</g>
			<g>
				<path class="st3" d="M100,73.7H80.3c-1.6,0-2.7-1.3-2.7-2.7v-4.2c0-1.6,1.3-2.7,2.7-2.7H100c1.6,0,2.7,1.3,2.7,2.7v4.1
					C102.7,72.5,101.5,73.7,100,73.7z"/>
				<circle class="st1" cx="82.8" cy="69" r="3.4"/>
				<circle class="st4" cx="90.6" cy="68.9" r="3.4"/>
				<g>
					<g>
						<g>
							<g>
								<g>
									<defs>
										<circle id="SVGID_00000147930075530999258740000016734975980971541928_" cx="98" cy="69" r="3.4"/>
									</defs>
									<clipPath id="SVGID_00000160189282107706682300000000376769295788344493_">
										<use xlink:href="#SVGID_00000147930075530999258740000016734975980971541928_"  style="overflow:visible;"/>
									</clipPath>
									<g style="clip-path:url(#SVGID_00000160189282107706682300000000376769295788344493_);">
										<rect x="90" y="62.7" class="st2" width="1.8" height="1.8"/>
										<rect x="91.9" y="62.7" class="st6" width="1.8" height="1.8"/>
										<rect x="93.6" y="62.7" class="st2" width="1.8" height="1.8"/>
										<rect x="95.4" y="62.7" class="st6" width="1.8" height="1.8"/>
										<rect x="97.2" y="62.7" class="st2" width="1.8" height="1.8"/>
										<rect x="99" y="62.7" class="st6" width="1.8" height="1.8"/>
										<rect x="100.8" y="62.7" class="st2" width="1.8" height="1.8"/>
										<rect x="102.5" y="62.7" class="st6" width="1.8" height="1.8"/>
										<rect x="90" y="64.5" class="st6" width="1.8" height="1.8"/>
										<rect x="91.9" y="64.5" class="st2" width="1.8" height="1.8"/>
										<rect x="93.6" y="64.5" class="st6" width="1.8" height="1.8"/>
										<rect x="95.4" y="64.5" class="st2" width="1.8" height="1.8"/>
										<rect x="97.2" y="64.5" class="st6" width="1.8" height="1.8"/>
										<rect x="99" y="64.5" class="st2" width="1.8" height="1.8"/>
										<rect x="100.8" y="64.5" class="st6" width="1.8" height="1.8"/>
										<rect x="102.5" y="64.5" class="st2" width="1.8" height="1.8"/>
										<rect x="90" y="66.2" class="st2" width="1.8" height="1.8"/>
										<rect x="91.9" y="66.2" class="st6" width="1.8" height="1.8"/>
										<rect x="93.6" y="66.2" class="st2" width="1.8" height="1.8"/>
										<rect x="95.4" y="66.2" class="st6" width="1.8" height="1.8"/>
										<rect x="97.2" y="66.2" class="st2" width="1.8" height="1.8"/>
										<rect x="99" y="66.2" class="st6" width="1.8" height="1.8"/>
										<rect x="100.8" y="66.2" class="st2" width="1.8" height="1.8"/>
										<rect x="102.5" y="66.2" class="st6" width="1.8" height="1.8"/>
										<rect x="90" y="68.1" class="st6" width="1.8" height="1.8"/>
										<rect x="91.9" y="68.1" class="st2" width="1.8" height="1.8"/>
										<rect x="93.6" y="68.1" class="st6" width="1.8" height="1.8"/>
										<rect x="95.4" y="68.1" class="st2" width="1.8" height="1.8"/>
										<rect x="97.2" y="68.1" class="st6" width="1.8" height="1.8"/>
										<rect x="99" y="68.1" class="st2" width="1.8" height="1.8"/>
										<rect x="100.8" y="68.1" class="st6" width="1.8" height="1.8"/>
										<rect x="102.5" y="68.1" class="st2" width="1.8" height="1.8"/>
										<rect x="90" y="69.8" class="st2" width="1.8" height="1.8"/>
										<rect x="91.9" y="69.8" class="st6" width="1.8" height="1.8"/>
										<rect x="93.6" y="69.8" class="st2" width="1.8" height="1.8"/>
										<rect x="95.4" y="69.8" class="st6" width="1.8" height="1.8"/>
										<rect x="97.2" y="69.8" class="st2" width="1.8" height="1.8"/>
										<rect x="99" y="69.8" class="st6" width="1.8" height="1.8"/>
										<rect x="100.8" y="69.8" class="st2" width="1.8" height="1.8"/>
										<rect x="102.5" y="69.8" class="st6" width="1.8" height="1.8"/>
										<rect x="90" y="71.6" class="st6" width="1.8" height="1.8"/>
										<rect x="91.9" y="71.6" class="st2" width="1.8" height="1.8"/>
										<rect x="93.6" y="71.6" class="st6" width="1.8" height="1.8"/>
										<rect x="95.4" y="71.6" class="st2" width="1.8" height="1.8"/>
										<rect x="97.2" y="71.6" class="st6" width="1.8" height="1.8"/>
										<rect x="99" y="71.6" class="st2" width="1.8" height="1.8"/>
										<rect x="100.8" y="71.6" class="st6" width="1.8" height="1.8"/>
										<rect x="102.5" y="71.6" class="st2" width="1.8" height="1.8"/>
										<rect x="90" y="73.4" class="st2" width="1.8" height="1.8"/>
										<rect x="91.9" y="73.4" class="st6" width="1.8" height="1.8"/>
										<rect x="93.6" y="73.4" class="st2" width="1.8" height="1.8"/>
										<rect x="95.4" y="73.4" class="st6" width="1.8" height="1.8"/>
										<rect x="97.2" y="73.4" class="st2" width="1.8" height="1.8"/>
										<rect x="99" y="73.4" class="st6" width="1.8" height="1.8"/>
										<rect x="100.8" y="73.4" class="st2" width="1.8" height="1.8"/>
										<rect x="102.5" y="73.4" class="st6" width="1.8" height="1.8"/>
										<rect x="90" y="75.2" class="st6" width="1.8" height="1.8"/>
										<rect x="91.9" y="75.2" class="st2" width="1.8" height="1.8"/>
										<rect x="93.6" y="75.2" class="st6" width="1.8" height="1.8"/>
										<rect x="95.4" y="75.2" class="st2" width="1.8" height="1.8"/>
										<rect x="97.2" y="75.2" class="st6" width="1.8" height="1.8"/>
										<rect x="99" y="75.2" class="st2" width="1.8" height="1.8"/>
										<rect x="100.8" y="75.2" class="st6" width="1.8" height="1.8"/>
										<rect x="102.5" y="75.2" class="st2" width="1.8" height="1.8"/>
									</g>
								</g>
							</g>
						</g>
					</g>
					<g>
						<circle id="SVGID_1_" class="st7" cx="98" cy="69" r="3.4"/>
					</g>
				</g>
			</g>
		</g>
		<g>
			<path class="st1" d="M40,43.5h-6.1c-1.6,0-2.7-1.3-2.7-2.7v-4.1c0-1.6,1.3-2.7,2.7-2.7H40c1.6,0,2.7,1.3,2.7,2.7v4.1
				C42.8,42.3,41.5,43.5,40,43.5z"/>
			<g>
				<path class="st2" d="M34.9,36h1v0.9h-1V36z M35,37.3h0.9v3.4H35V37.3z"/>
				<path class="st2" d="M39.6,39.9l-0.2,0.8h-2.7v-0.8h1.1v-2.6l-1.1,0.5V37l1.4-0.6h0.7v3.5H39.6z"/>
			</g>
			<path class="st1" d="M26,23.2c0.3-0.1,0.5,0,0.6,0.3l7.2,11.6c0.1,0.3,0,0.5-0.3,0.6c-0.3,0.1-0.5,0-0.6-0.3l-7.1-11.6
				C25.6,23.5,25.7,23.3,26,23.2z"/>
		</g>
		<g>
			<path class="st1" d="M157.1,78.7C157.1,78.7,157,78.7,157.1,78.7c-0.3-0.3-0.2-0.6-0.1-0.8l12.8-8.3c0.2-0.2,0.6-0.2,0.7,0.1
				c0.2,0.2,0.1,0.5-0.1,0.7l-12.8,8.3C157.5,78.9,157.2,78.9,157.1,78.7z"/>
			<path class="st1" d="M176.5,72.5h-6.1c-1.6,0-2.7-1.3-2.7-2.7v-4.1c0-1.6,1.3-2.7,2.7-2.7h6.1c1.6,0,2.7,1.3,2.7,2.7v4.1
				C179.3,71.2,178,72.5,176.5,72.5z"/>
			<g>
				<path class="st2" d="M171.5,64.9h1v0.9h-1V64.9z M171.5,66.2h0.9v3.4h-0.9V66.2z"/>
				<path class="st2" d="M173,68.9c0-0.7,0.3-1.1,0.9-1.4l0.2-0.1c0.7-0.3,0.9-0.5,0.9-0.9c0-0.3-0.2-0.6-0.5-0.6
					c-0.4,0-0.6,0.3-0.6,0.8v0.1h-1v-0.1c0-1.1,0.5-1.6,1.6-1.6c0.9,0,1.5,0.5,1.5,1.4c0,0.7-0.3,1.1-1.1,1.5l-0.2,0.1
					c-0.6,0.2-0.8,0.4-0.8,0.8V69h2.1l-0.1,0.8H173C173,69.7,173,68.9,173,68.9z"/>
			</g>
		</g>
		<g>
			<path class="st1" d="M33.7,130.4c-0.2-0.1-0.2-0.4-0.1-0.4l3.1-17.6c0-0.2,0.3-0.4,0.6-0.4c0.2,0,0.4,0.3,0.4,0.6l-3.1,17.6
				c0,0.2-0.3,0.4-0.6,0.4C33.8,130.5,33.8,130.5,33.7,130.4z"/>
			<path class="st1" d="M35.9,135.4h-6.1c-1.6,0-2.7-1.3-2.7-2.7v-4.1c0-1.6,1.3-2.7,2.7-2.7h6.1c1.6,0,2.7,1.3,2.7,2.7v4.1
				C38.7,134.3,37.5,135.4,35.9,135.4z"/>
			<g>
				<path class="st2" d="M30.9,128h1v0.9h-1V128z M31,129.3h0.9v3.4H31V129.3z"/>
				<path class="st2" d="M32.4,131.3h1c0,0.4,0.2,0.7,0.6,0.7s0.6-0.2,0.6-0.6s-0.2-0.6-0.7-0.6h-0.4v-0.7h0.3
					c0.4,0,0.6-0.2,0.6-0.6c0-0.3-0.2-0.5-0.5-0.5c-0.4,0-0.6,0.2-0.6,0.7l0,0h-1l0,0c0-1,0.5-1.5,1.6-1.5c0.9,0,1.5,0.5,1.5,1.2
					c0,0.5-0.2,0.8-0.5,0.9c0.5,0.2,0.7,0.5,0.7,1c0,0.8-0.6,1.4-1.6,1.4C32.9,132.8,32.4,132.2,32.4,131.3z"/>
			</g>
		</g>
	</g>
	<g>
		<path class="st0" d="M169.3,107.4L169.3,107.4c0,0.9-0.5,1.3-1.6,1.3c-1.1,0-1.6-0.4-1.6-1.3v0c0-0.5,0.2-0.9,0.7-1.1
			c-0.4-0.2-0.5-0.5-0.5-1v0c0-0.8,0.5-1.2,1.5-1.2c0.9,0,1.5,0.4,1.5,1.2v0.1c0,0.5-0.2,0.8-0.5,1
			C169.1,106.5,169.3,106.9,169.3,107.4z M168.4,107.4c0-0.5-0.2-0.7-0.8-0.7h-0.1c-0.5,0-0.8,0.2-0.8,0.7v0c0,0.5,0.2,0.7,0.8,0.7
			C168.2,108.1,168.4,107.9,168.4,107.4L168.4,107.4z M166.9,105.4c0,0.4,0.2,0.7,0.7,0.7h0.1c0.5,0,0.7-0.2,0.7-0.7v0
			c0-0.4-0.2-0.6-0.7-0.6C167.2,104.7,166.9,104.9,166.9,105.4L166.9,105.4z"/>
		<path class="st0" d="M0,79.6v-0.6H1v-3.1h0l-1,0.3l-0.1-0.6L1.2,75h0.7v3.9h1v0.6H0z"/>
		<path class="st0" d="M30.4,74.2v-0.8c0-0.9,0.3-1.3,1-1.6l0.5-0.1c0.4-0.1,0.6-0.3,0.6-0.8v0c0-0.5-0.3-0.7-0.8-0.7
			c-0.4,0-0.8,0.1-1.1,0.3l-0.2-0.6c0.3-0.2,0.8-0.3,1.4-0.3c0.9,0,1.5,0.4,1.5,1.3v0.1c0,0.8-0.3,1.1-0.9,1.3l-0.5,0.2
			c-0.5,0.1-0.7,0.4-0.7,0.8v0.3h2.1v0.6H30.4z"/>
		<path class="st0" d="M13.8,33.9l0.1-0.6c0.3,0.1,0.7,0.2,1.2,0.2c0.6,0,0.8-0.2,0.8-0.7v-0.1c0-0.5-0.3-0.7-0.9-0.7h-0.5v-0.6H15
			c0.6,0,0.9-0.2,0.9-0.7v0c0-0.4-0.3-0.6-0.7-0.6c-0.4,0-0.8,0.1-1.1,0.3l-0.2-0.6c0.3-0.2,0.8-0.3,1.4-0.3c0.8,0,1.4,0.3,1.4,1.1
			v0.1c0,0.5-0.2,0.9-0.7,1v0c0.5,0.1,0.8,0.4,0.8,1.1v0.1c0,0.9-0.5,1.3-1.6,1.3C14.6,34.1,14.2,34,13.8,33.9z"/>
		<path class="st0" d="M95.5,4.5V3.6h-2.2V3.1L94.9,0h0.8l-1.5,2.9h1.3V1.6h0.8v1.3h0.5v0.7h-0.5v0.9H95.5z"/>
		<path class="st0" d="M111.3,46.6L111.3,46.6c0,1.1-0.6,1.5-1.6,1.5c-0.6,0-1.1-0.1-1.5-0.4l0.2-0.6c0.4,0.2,0.8,0.3,1.2,0.3
			c0.6,0,0.8-0.2,0.8-0.8v-0.1c0-0.6-0.3-0.8-0.9-0.8c-0.3,0-0.7,0-1,0.1l-0.2-0.2l0.2-2.2h2.4v0.6h-1.7l-0.1,1.1c0.2,0,0.4,0,0.5,0
			C110.8,45.2,111.3,45.7,111.3,46.6z"/>
		<path class="st0" d="M138.8,37.7L138.8,37.7c0,1.1-0.5,1.5-1.5,1.5c-1.2,0-1.6-0.6-1.6-2.1v-0.3c0-1.8,0.7-2.3,1.8-2.3
			c0.5,0,0.8,0.1,1.1,0.2l-0.1,0.6c-0.2-0.1-0.6-0.2-0.9-0.2c-0.7,0-1,0.3-1,1.2c0.3,0,0.6-0.1,0.9-0.1
			C138.3,36.3,138.8,36.7,138.8,37.7z M138,37.7c0-0.6-0.2-0.8-0.7-0.8c-0.3,0-0.6,0-0.8,0.1v0.1c0,1.1,0.1,1.5,0.8,1.5
			C137.8,38.6,138,38.3,138,37.7L138,37.7z"/>
		<path class="st0" d="M177,85.9l1.9-3.9h-2.2v-0.6h3.1v0.5l-1.9,4H177z"/>
		<path class="st0" d="M90.3,101.6v0.6c0,1.5-0.4,2.2-1.7,2.2c-0.5,0-0.9-0.1-1.2-0.2l0.1-0.6c0.3,0.1,0.7,0.2,1,0.2
			c0.6,0,0.9-0.3,0.9-1.1c-0.2,0-0.5,0.1-0.8,0.1c-1.1,0-1.5-0.4-1.5-1.4v-0.1c0-1,0.6-1.5,1.6-1.5C89.8,99.8,90.3,100.3,90.3,101.6
			z M88,101.3c0,0.6,0.2,0.8,0.8,0.8c0.3,0,0.6,0,0.8-0.1v-0.3c0-1-0.1-1.4-0.8-1.4C88.2,100.4,88,100.7,88,101.3L88,101.3z"/>
		<g>
			<path class="st0" d="M115.4,115.1v-0.6h1.1v-3.1h0l-1,0.3l-0.1-0.6l1.3-0.4h0.7v3.9h1v0.6H115.4z"/>
			<path class="st0" d="M119.3,114.8c-0.3-0.3-0.5-0.8-0.5-1.9v-0.2c0-1,0.1-1.5,0.4-1.8c0.3-0.3,0.6-0.4,1.2-0.4
				c0.6,0,1,0.1,1.2,0.4c0.3,0.3,0.4,0.8,0.4,1.8v0.2c0,1.1-0.1,1.5-0.4,1.8c-0.3,0.3-0.7,0.4-1.2,0.4
				C119.9,115.2,119.6,115.1,119.3,114.8z M121.1,114.3c0.2-0.2,0.2-0.6,0.2-1.4v-0.1c0-0.8,0-1.2-0.2-1.4c-0.1-0.2-0.3-0.2-0.6-0.2
				c-0.3,0-0.5,0.1-0.6,0.2c-0.2,0.2-0.2,0.6-0.2,1.4v0.1c0,0.8,0,1.2,0.2,1.4c0.1,0.1,0.3,0.2,0.6,0.2
				C120.7,114.5,120.9,114.4,121.1,114.3z"/>
		</g>
		<g>
			<path class="st0" d="M94.8,152.6V152h1.1v-3.1h0l-1,0.3l-0.1-0.6l1.3-0.4h0.7v3.9h1v0.6H94.8z"/>
			<path class="st0" d="M98.5,152.6V152h1.1v-3.1h0l-1,0.3l-0.1-0.6l1.3-0.4h0.7v3.9h1v0.6H98.5z"/>
		</g>
		<g>
			<path class="st0" d="M58.9,124.7V124h1.1v-3.1h0l-1,0.3l-0.1-0.6l1.3-0.4h0.7v3.9h1v0.6H58.9z"/>
			<path class="st0" d="M62.5,124.7v-0.8c0-0.9,0.3-1.3,1-1.6l0.5-0.1c0.4-0.1,0.6-0.3,0.6-0.8v0c0-0.5-0.3-0.7-0.8-0.7
				c-0.4,0-0.8,0.1-1.1,0.3l-0.2-0.6c0.3-0.2,0.8-0.3,1.4-0.3c0.9,0,1.5,0.4,1.5,1.3v0.1c0,0.8-0.3,1.1-0.9,1.3l-0.5,0.2
				c-0.5,0.1-0.7,0.4-0.7,0.8v0.3h2.1v0.6H62.5z"/>
		</g>
		<g>
			<path class="st0" d="M19.2,124.7V124h1.1v-3.1h0l-1,0.3l-0.1-0.6l1.3-0.4h0.7v3.9h1v0.6H19.2z"/>
			<path class="st0" d="M22.7,124.5l0.1-0.6c0.3,0.1,0.7,0.2,1.2,0.2c0.6,0,0.8-0.2,0.8-0.7v-0.1c0-0.5-0.3-0.7-0.9-0.7h-0.5V122
				h0.4c0.6,0,0.9-0.2,0.9-0.7v0c0-0.4-0.3-0.6-0.7-0.6c-0.4,0-0.8,0.1-1.1,0.3l-0.2-0.6c0.3-0.2,0.8-0.3,1.4-0.3
				c0.8,0,1.4,0.3,1.4,1.1v0.1c0,0.5-0.2,0.9-0.7,1v0c0.5,0.1,0.8,0.4,0.8,1.1v0.1c0,0.9-0.5,1.3-1.6,1.3
				C23.5,124.7,23,124.6,22.7,124.5z"/>
		</g>
		<g>
			<path class="st0" d="M10.5,103.5v-0.6h1.1v-3.1h0l-1,0.3l-0.1-0.6l1.3-0.4h0.7v3.9h1v0.6H10.5z"/>
			<path class="st0" d="M16,103.5v-0.9h-2.2v-0.5l1.6-3.1h0.8l-1.5,2.9H16v-1.3h0.8v1.3h0.5v0.7h-0.5v0.9H16z"/>
		</g>
	</g>
</g>
</svg>
