<?xml version="1.0" encoding="utf-8"?>
<!-- Generator: Adobe Illustrator 26.4.1, SVG Export Plug-In . SVG Version: 6.00 Build 0)  -->
<svg version="1.1" id="Capa_1" xmlns="http://www.w3.org/2000/svg" xmlns:xlink="http://www.w3.org/1999/xlink" x="0px" y="0px"
	 viewBox="0 0 153 215.5" style="enable-background:new 0 0 153 215.5;" xml:space="preserve">
<style type="text/css">
	.st0{fill:#9C9C9D;}
	.st1{fill:#C71517;}
	.st2{fill:#FFFFFF;}
	.st3{fill:#181D22;}
	.st4{fill:#35AA54;}
	.st5{clip-path:url(#SVGID_00000069382108577179495720000017354664013234031501_);}
	.st6{fill:#1D1E1C;}
	.st7{fill:none;stroke:#919191;stroke-width:0.25;stroke-miterlimit:10;}
	.st8{fill:#9E9FA2;}
</style>
<g>
	<path class="st0" d="M130.4,106L130.4,106c-0.3-0.5-2.9-4-4-5.5c-3.8-6.3,6.3-15.3,2.6-22.7c-2.1-3.7-4.2-5.4-4.6-10.7
		c-0.1-3-0.7-16.5-0.7-16.8c-1-10-0.2-12.8-6.9-31.9c-1.9-4.2-7.2-8.4-14.2-7.6c-5.5,0.3-38.5,3.7-44.9,4.5c-0.1,0-5.7,0.7-9.5,3.9
		c-2.9,2.4-6.8,5.7-10.3,12l-6.4,13c-3,6,3.6,14.5,11,12.2c2.8-0.7,6.2-3.2,7-8.1l0.7-7.2C50.6,40,52.9,40,54,40
		c0,0,1.5,0.2,2.7,1.2c6.1,5.6,44.9,40.2,51.7,46.4c0.1,3.3,0,5.7-1.8,11.9c0,0-0.2,0.4-0.8,1.6c-2.5-6.4-1.6-11.2-8.5-12.1
		c-2.6,0.2-4.6,1.7-4.8,1.9l-15.6,12.6c-8.2,6.7-23.7-4.7-31.7,4.6c-6,7.8-24.9,32.8-32.3,42.7c-3,2.8-2.3,9.3,2.9,17.1
		c3.7,5.4,9.1,9,14.8,2.6c3.1,3.5,10.3,11.4,12.7,14.2c0,0,4.6,5.4,6.9,10.3c2.3,4.9,2.4,5.1,3,5.9c6,8.1,18,7.4,23.9-2.7
		c9.3-12.6,34.3-61.7,41-73.7c0.4-0.9,0.5-1,0.7-1.1c1.5-0.6,4-0.9,5.5-1.6C130.3,119.6,133.6,112,130.4,106z M110.8,106.6
		c4.3-8.4,4.8-15.8,4.3-20.6c-0.4-2.1-2.2-3.7-2.6-3.9L70,44c-0.4-0.3-6.9-6.3-8.8-8c-3-2.5-5.5-2.8-7.1-2.9
		c-4.9-0.4-10.6,2.6-10.7,7.8l-0.7,6.7c-0.6,3.7-5.1,2.6-4.9-0.3l6.3-12.8c4.2-6.7,8.2-11,14.4-12.2c6.1-0.6,39.1-4.2,44.4-4.5
		c2.9-0.5,6.1,0.6,7.6,3.4c6.1,17.4,5.3,19.1,6.3,29.5c0.2,4,0.6,13.5,0.7,16.6c0.7,7.6,2.4,8.6,5.3,13.6c0.1,0.2,0.1,1.4-0.1,2.2
		c-2.4,7-6.8,15.1-1.9,21.6c0.7,1.2,3.1,3.9,3.6,4.9c1.1,3.2-1.4,6-4.9,6.5c-3.5,0.4-6.9,2.9-7.9,5.9c-5.5,9.8-34.1,65.1-40.2,72.4
		c-3.6,5-5.1,6-9.9,4.8c-1.2-0.5-2.4-1.8-2.7-2.2c-0.1-0.2-0.4-0.8-1.8-3.7c-4.8-11.2-19.8-25-22.1-28.3c-2.5-2.5-5.2-2.5-8-0.4
		l-2.5,2.4c-0.1,0-0.2,0.1-0.2,0.1c-4.1-3.1-6.6-10.7-6.2-11.6c0,0,0,0,0-0.1c7.3-9.6,28.6-37.9,32.4-42.7c1.4-1.4,2.9-1.4,5.9-1.4
		c3.7,0.2,11.3,2,16.3,1.4c4.6-0.6,8-3.2,8.6-3.7c0.1-0.1,15.5-12.6,15.6-12.6c0.7,2,2.2,6.7,2.7,8.5
		C101.1,111.3,108.7,110.9,110.8,106.6z"/>
	<g>
		<g>
			<path class="st1" d="M117.1,102.9c0-0.3,0.2-0.5,0.5-0.5l25.1-4.3c0.3,0,0.5,0.2,0.5,0.5s-0.2,0.5-0.5,0.5l-25.1,4.3
				C117.2,103.5,117.1,103.2,117.1,102.9z"/>
			<path class="st1" d="M150.2,103.7H144c-1.6,0-2.8-1.3-2.8-2.8v-4.2c0-1.6,1.3-2.8,2.8-2.8h6.2c1.6,0,2.8,1.3,2.8,2.8v4.2
				C153.1,102.4,151.8,103.7,150.2,103.7z"/>
			<g>
				<path class="st2" d="M145,96h1v0.9h-1V96z M145.1,97.3h0.9v3.5h-0.9V97.3z"/>
				<path class="st2" d="M149.8,100l-0.2,0.8h-2.8V100h1.1v-2.7l-1.1,0.5V97l1.4-0.6h0.7v3.6H149.8z"/>
			</g>
		</g>
		<g>
			<g>
				<path class="st1" d="M57.9,9.9h-6.2c-1.6,0-2.8-1.3-2.8-2.8V2.8c0-1.6,1.3-2.8,2.8-2.8h6.2c1.6,0,2.8,1.3,2.8,2.8V7
					C60.7,8.6,59.5,9.9,57.9,9.9z"/>
				<g>
					<path class="st2" d="M53.2,3.9v0.9h1.6v0.8h-1.6v1.6h-1V3.6c0-0.6,0.3-0.9,0.9-0.9h1.8l-0.1,0.8h-1.3
						C53.3,3.6,53.2,3.7,53.2,3.9z"/>
					<path class="st2" d="M55.5,6.2V2.8h1v3.3c0,0.3,0.1,0.4,0.4,0.4h1.3l-0.1,0.8h-1.4C55.8,7.3,55.5,6.9,55.5,6.2z"/>
				</g>
				<g>
					<polygon class="st1" points="57.4,27.6 56.4,27.7 55.2,7.2 56.2,7.1 					"/>
					<g>
						
							<rect x="56.3" y="26.3" transform="matrix(0.9925 -0.1224 0.1224 0.9925 -2.8265 7.5969)" class="st1" width="8.2" height="1"/>
						<path id="Shape_00000065764410594641705710000012851787520307324863_" class="st1" d="M65,25.2l-1.5-0.6
							c-0.2-0.1-0.4,0-0.4,0.2l0.2,1.6l0.2,1.6c0,0.2,0.2,0.3,0.4,0.1l1.3-1l1.3-1c0.2-0.1,0.2-0.3,0-0.4L65,25.2z"/>
					</g>
				</g>
			</g>
			<g>
				<path class="st3" d="M43.9,9.9H23.8c-1.6,0-2.8-1.3-2.8-2.8V2.8C21,1.2,22.3,0,23.8,0h20.1c1.6,0,2.8,1.3,2.8,2.8V7
					C46.7,8.6,45.4,9.9,43.9,9.9z"/>
				<circle class="st1" cx="26.3" cy="5" r="3.5"/>
				<circle class="st4" cx="34.3" cy="4.9" r="3.5"/>
				<g>
					<g>
						<g>
							<defs>
								<circle id="SVGID_1_" cx="41.9" cy="5" r="3.5"/>
							</defs>
							<clipPath id="SVGID_00000006666749864509792010000014106942326058220717_">
								<use xlink:href="#SVGID_1_"  style="overflow:visible;"/>
							</clipPath>
							<g style="clip-path:url(#SVGID_00000006666749864509792010000014106942326058220717_);">
								<rect x="33.7" y="-1.4" class="st2" width="1.8" height="1.8"/>
								<rect x="35.6" y="-1.4" class="st6" width="1.8" height="1.8"/>
								<rect x="37.4" y="-1.4" class="st2" width="1.8" height="1.8"/>
								<rect x="39.2" y="-1.4" class="st6" width="1.8" height="1.8"/>
								<rect x="41" y="-1.4" class="st2" width="1.8" height="1.8"/>
								<rect x="42.9" y="-1.4" class="st6" width="1.8" height="1.8"/>
								<rect x="44.7" y="-1.4" class="st2" width="1.8" height="1.8"/>
								<rect x="46.5" y="-1.4" class="st6" width="1.8" height="1.8"/>
								<rect x="33.7" y="0.4" class="st6" width="1.8" height="1.8"/>
								<rect x="35.6" y="0.4" class="st2" width="1.8" height="1.8"/>
								<rect x="37.4" y="0.4" class="st6" width="1.8" height="1.8"/>
								<rect x="39.2" y="0.4" class="st2" width="1.8" height="1.8"/>
								<rect x="41" y="0.4" class="st6" width="1.8" height="1.8"/>
								<rect x="42.9" y="0.4" class="st2" width="1.8" height="1.8"/>
								<rect x="44.7" y="0.4" class="st6" width="1.8" height="1.8"/>
								<rect x="46.5" y="0.4" class="st2" width="1.8" height="1.8"/>
								<rect x="33.7" y="2.2" class="st2" width="1.8" height="1.8"/>
								<rect x="35.6" y="2.2" class="st6" width="1.8" height="1.8"/>
								<rect x="37.4" y="2.2" class="st2" width="1.8" height="1.8"/>
								<rect x="39.2" y="2.2" class="st6" width="1.8" height="1.8"/>
								<rect x="41" y="2.2" class="st2" width="1.8" height="1.8"/>
								<rect x="42.9" y="2.2" class="st6" width="1.8" height="1.8"/>
								<rect x="44.7" y="2.2" class="st2" width="1.8" height="1.8"/>
								<rect x="46.5" y="2.2" class="st6" width="1.8" height="1.8"/>
								<rect x="33.7" y="4.1" class="st6" width="1.8" height="1.8"/>
								<rect x="35.6" y="4.1" class="st2" width="1.8" height="1.8"/>
								<rect x="37.4" y="4.1" class="st6" width="1.8" height="1.8"/>
								<rect x="39.2" y="4.1" class="st2" width="1.8" height="1.8"/>
								<rect x="41" y="4.1" class="st6" width="1.8" height="1.8"/>
								<rect x="42.9" y="4.1" class="st2" width="1.8" height="1.8"/>
								<rect x="44.7" y="4.1" class="st6" width="1.8" height="1.8"/>
								<rect x="46.5" y="4.1" class="st2" width="1.8" height="1.8"/>
								<rect x="33.7" y="5.9" class="st2" width="1.8" height="1.8"/>
								<rect x="35.6" y="5.9" class="st6" width="1.8" height="1.8"/>
								<rect x="37.4" y="5.9" class="st2" width="1.8" height="1.8"/>
								<rect x="39.2" y="5.9" class="st6" width="1.8" height="1.8"/>
								<rect x="41" y="5.9" class="st2" width="1.8" height="1.8"/>
								<rect x="42.9" y="5.9" class="st6" width="1.8" height="1.8"/>
								<rect x="44.7" y="5.9" class="st2" width="1.8" height="1.8"/>
								<rect x="46.5" y="5.9" class="st6" width="1.8" height="1.8"/>
								<rect x="33.7" y="7.7" class="st6" width="1.8" height="1.8"/>
								<rect x="35.6" y="7.7" class="st2" width="1.8" height="1.8"/>
								<rect x="37.4" y="7.7" class="st6" width="1.8" height="1.8"/>
								<rect x="39.2" y="7.7" class="st2" width="1.8" height="1.8"/>
								<rect x="41" y="7.7" class="st6" width="1.8" height="1.8"/>
								<rect x="42.9" y="7.7" class="st2" width="1.8" height="1.8"/>
								<rect x="44.7" y="7.7" class="st6" width="1.8" height="1.8"/>
								<rect x="46.5" y="7.7" class="st2" width="1.8" height="1.8"/>
								<rect x="33.7" y="9.5" class="st2" width="1.8" height="1.8"/>
								<rect x="35.6" y="9.5" class="st6" width="1.8" height="1.8"/>
								<rect x="37.4" y="9.5" class="st2" width="1.8" height="1.8"/>
								<rect x="39.2" y="9.5" class="st6" width="1.8" height="1.8"/>
								<rect x="41" y="9.5" class="st2" width="1.8" height="1.8"/>
								<rect x="42.9" y="9.5" class="st6" width="1.8" height="1.8"/>
								<rect x="44.7" y="9.5" class="st2" width="1.8" height="1.8"/>
								<rect x="46.5" y="9.5" class="st6" width="1.8" height="1.8"/>
								<rect x="33.7" y="11.4" class="st6" width="1.8" height="1.8"/>
								<rect x="35.6" y="11.4" class="st2" width="1.8" height="1.8"/>
								<rect x="37.4" y="11.4" class="st6" width="1.8" height="1.8"/>
								<rect x="39.2" y="11.4" class="st2" width="1.8" height="1.8"/>
								<rect x="41" y="11.4" class="st6" width="1.8" height="1.8"/>
								<rect x="42.9" y="11.4" class="st2" width="1.8" height="1.8"/>
								<rect x="44.7" y="11.4" class="st6" width="1.8" height="1.8"/>
								<rect x="46.5" y="11.4" class="st2" width="1.8" height="1.8"/>
							</g>
						</g>
					</g>
					<g>
						<circle id="SVGID_00000081626722910048823450000009398272281877020083_" class="st7" cx="41.9" cy="5" r="3.5"/>
					</g>
				</g>
			</g>
		</g>
		<g>
			<path class="st1" d="M109.8,176.8h-6.2c-1.6,0-2.8-1.3-2.8-2.8v-4.2c0-1.6,1.3-2.8,2.8-2.8h6.2c1.6,0,2.8,1.3,2.8,2.8v4.2
				C112.6,175.5,111.3,176.8,109.8,176.8z"/>
			<g>
				<path class="st2" d="M105.1,172.8v-0.2h1v0.1c0,0.4,0.2,0.6,0.5,0.6s0.5-0.2,0.5-0.4c0-0.3-0.1-0.4-0.5-0.5l-0.4-0.1
					c-0.6-0.2-1.2-0.5-1.2-1.3s0.6-1.3,1.5-1.3c1,0,1.5,0.5,1.5,1.4v0.1h-1V171c0-0.4-0.2-0.6-0.5-0.6s-0.4,0.2-0.4,0.4
					c0,0.4,0.4,0.5,0.8,0.7h0.1c0.5,0.2,1.2,0.5,1.2,1.3c0,0.7-0.5,1.4-1.6,1.4C105.7,174.2,105.1,173.7,105.1,172.8z"/>
			</g>
			<path class="st1" d="M102.9,171.5c-0.1,0.3-0.4,0.3-0.7,0.2l-15.3-8.5c-0.3-0.1-0.3-0.4-0.2-0.7c0.1-0.3,0.4-0.3,0.7-0.2
				l15.3,8.5C102.9,171,103,171.3,102.9,171.5z"/>
		</g>
		<g>
			<path class="st1" d="M14,141.8H7.8c-1.6,0-2.8-1.3-2.8-2.8v-4.2c0-1.6,1.3-2.8,2.8-2.8H14c1.6,0,2.8,1.3,2.8,2.8v4.2
				C16.9,140.5,15.6,141.8,14,141.8z"/>
			<g>
				<path class="st2" d="M8.9,134.1h1v0.9h-1V134.1z M8.9,135.4h0.9v3.5H8.9V135.4z"/>
				<path class="st2" d="M10.5,138.1c0-0.7,0.3-1.1,0.9-1.4l0.2-0.1c0.7-0.3,0.9-0.5,0.9-0.9c0-0.3-0.2-0.6-0.5-0.6
					c-0.4,0-0.6,0.3-0.6,0.8v0.1h-1v-0.1c0-1.1,0.5-1.6,1.6-1.6c0.9,0,1.5,0.5,1.5,1.4c0,0.7-0.3,1.1-1.1,1.5l-0.2,0.1
					c-0.6,0.2-0.8,0.4-0.8,0.8v0.1h2.1l-0.1,0.8h-2.9V138.1z"/>
			</g>
			<path class="st1" d="M13.4,139C13.4,139,13.5,138.9,13.4,139c0.4-0.2,0.6-0.1,0.8,0.1l12.5,10.6c0.2,0.2,0.1,0.6-0.2,0.7
				c-0.2,0.2-0.5,0-0.7-0.2l-12.5-10.6C13.2,139.4,13.2,139.1,13.4,139z"/>
		</g>
		<g>
			<path class="st1" d="M84,83.7c0.2-0.2,0.5-0.4,0.7-0.2l31.8,3c0.3,0.1,0.6,0.5,0.7,0.9c-0.1,0.3-0.4,0.6-0.8,0.6l-31.8-3
				c-0.3-0.1-0.6-0.5-0.7-0.9C84,83.8,84,83.8,84,83.7z"/>
			<path class="st1" d="M82.7,88.2h-6.2c-1.6,0-2.8-1.3-2.8-2.8v-4.2c0-1.6,1.3-2.8,2.8-2.8h6.2c1.6,0,2.8,1.3,2.8,2.8v4.2
				C85.5,87,84.3,88.2,82.7,88.2z"/>
			<g>
				<path class="st2" d="M77.5,80.6h1v0.9h-1V80.6z M77.6,81.9h0.9v3.5h-0.9V81.9z"/>
				<path class="st2" d="M79.1,84h1c0,0.4,0.2,0.7,0.6,0.7s0.6-0.2,0.6-0.6s-0.2-0.6-0.7-0.6h-0.4v-0.7h0.3c0.4,0,0.6-0.2,0.6-0.6
					c0-0.3-0.2-0.5-0.5-0.5c-0.4,0-0.6,0.2-0.6,0.7l0,0h-1l0,0c0-1,0.5-1.5,1.6-1.5c0.9,0,1.5,0.5,1.5,1.2c0,0.5-0.2,0.8-0.5,0.9
					c0.5,0.2,0.7,0.5,0.7,1c0,0.8-0.6,1.4-1.6,1.4C79.6,85.5,79.1,84.9,79.1,84z"/>
			</g>
		</g>
	</g>
	<g>
		<path class="st8" d="M119,12.2v-0.6h1.1V8.4h0l-1,0.3l-0.1-0.6l1.3-0.4h0.7v3.9h1v0.6H119z"/>
		<path class="st8" d="M128.7,69.2v-0.8c0-0.9,0.3-1.3,1-1.6l0.5-0.1c0.4-0.1,0.6-0.3,0.6-0.8v0c0-0.5-0.3-0.7-0.8-0.7
			c-0.4,0-0.8,0.1-1.1,0.3l-0.2-0.6c0.3-0.2,0.8-0.3,1.4-0.3c0.9,0,1.5,0.4,1.5,1.3v0.1c0,0.8-0.3,1.1-0.9,1.3l-0.5,0.2
			c-0.5,0.1-0.7,0.4-0.7,0.8v0.3h2.1v0.6H128.7z"/>
		<path class="st8" d="M133.5,83.1l0.1-0.6c0.3,0.1,0.7,0.2,1.2,0.2c0.6,0,0.8-0.2,0.8-0.7V82c0-0.5-0.3-0.7-0.9-0.7h-0.5v-0.6h0.4
			c0.6,0,0.9-0.2,0.9-0.7v0c0-0.4-0.3-0.6-0.7-0.6c-0.4,0-0.8,0.1-1.1,0.3l-0.2-0.6c0.3-0.2,0.8-0.3,1.4-0.3c0.8,0,1.4,0.3,1.4,1.1
			v0.1c0,0.5-0.2,0.9-0.7,1v0c0.5,0.1,0.8,0.4,0.8,1.1V82c0,0.9-0.5,1.3-1.6,1.3C134.3,83.4,133.8,83.3,133.5,83.1z"/>
		<path class="st8" d="M132.6,96.3v-0.9h-2.2v-0.5l1.6-3.1h0.8l-1.5,2.9h1.3v-1.3h0.8v1.3h0.5v0.7h-0.5v0.9H132.6z"/>
		<path class="st8" d="M137.5,118.9L137.5,118.9c0,1.1-0.6,1.5-1.6,1.5c-0.6,0-1.1-0.1-1.5-0.4l0.2-0.6c0.4,0.2,0.8,0.3,1.2,0.3
			c0.6,0,0.8-0.2,0.8-0.8v-0.1c0-0.6-0.3-0.8-0.9-0.8c-0.3,0-0.7,0-1,0.1l-0.2-0.2l0.2-2.2h2.4v0.6h-1.7l-0.1,1.1c0.2,0,0.4,0,0.5,0
			C137,117.5,137.5,117.9,137.5,118.9z"/>
		<path class="st8" d="M124.4,130.5L124.4,130.5c0,1.1-0.5,1.5-1.5,1.5c-1.2,0-1.6-0.6-1.6-2.1v-0.3c0-1.8,0.7-2.3,1.8-2.3
			c0.5,0,0.8,0.1,1.1,0.2l-0.1,0.6c-0.2-0.1-0.6-0.2-0.9-0.2c-0.7,0-1,0.3-1,1.2c0.3,0,0.6-0.1,0.9-0.1
			C123.9,129.1,124.4,129.5,124.4,130.5z M123.6,130.5c0-0.6-0.2-0.8-0.7-0.8c-0.3,0-0.6,0-0.8,0.1v0.1c0,1.1,0.1,1.5,0.8,1.5
			C123.4,131.4,123.6,131.1,123.6,130.5L123.6,130.5z"/>
		<path class="st8" d="M63.7,215.5l1.9-3.9h-2.2v-0.6h3.1v0.5l-1.9,4H63.7z"/>
		<path class="st8" d="M35.9,158.4L35.9,158.4c0,0.9-0.5,1.3-1.6,1.3c-1.1,0-1.6-0.4-1.6-1.3v0c0-0.5,0.2-0.9,0.7-1.1
			c-0.4-0.2-0.5-0.5-0.5-1v0c0-0.8,0.5-1.2,1.5-1.2c0.9,0,1.5,0.4,1.5,1.2v0.1c0,0.5-0.2,0.8-0.5,1
			C35.7,157.5,35.9,157.8,35.9,158.4z M35.1,158.3c0-0.5-0.2-0.7-0.8-0.7h-0.1c-0.5,0-0.8,0.2-0.8,0.7v0c0,0.5,0.2,0.7,0.8,0.7
			C34.9,159.1,35.1,158.9,35.1,158.3L35.1,158.3z M33.6,156.3c0,0.4,0.2,0.7,0.7,0.7h0.1c0.5,0,0.7-0.2,0.7-0.7v0
			c0-0.4-0.2-0.6-0.7-0.6C33.8,155.7,33.6,155.9,33.6,156.3L33.6,156.3z"/>
		<path class="st8" d="M19.5,178.7v0.6c0,1.5-0.4,2.2-1.7,2.2c-0.5,0-0.9-0.1-1.2-0.2l0.1-0.6c0.3,0.1,0.7,0.2,1,0.2
			c0.6,0,0.9-0.3,0.9-1.1c-0.2,0-0.5,0.1-0.8,0.1c-1.1,0-1.5-0.4-1.5-1.4v-0.1c0-1,0.6-1.5,1.6-1.5
			C19.1,176.8,19.5,177.3,19.5,178.7z M17.2,178.3c0,0.6,0.2,0.8,0.8,0.8c0.3,0,0.6,0,0.8-0.1v-0.3c0-1-0.1-1.4-0.8-1.4
			C17.4,177.4,17.2,177.7,17.2,178.3L17.2,178.3z"/>
		<g>
			<path class="st8" d="M0.1,157.9v-0.6h1.1v-3.1h0l-1,0.3L0,153.8l1.3-0.4H2v3.9h1v0.6H0.1z"/>
			<path class="st8" d="M4,157.6c-0.3-0.3-0.5-0.8-0.5-1.9v-0.2c0-1,0.1-1.5,0.4-1.8c0.3-0.3,0.6-0.4,1.2-0.4c0.6,0,1,0.1,1.2,0.4
				c0.3,0.3,0.4,0.8,0.4,1.8v0.2c0,1.1-0.1,1.5-0.4,1.8c-0.3,0.3-0.7,0.4-1.2,0.4C4.7,158,4.3,157.9,4,157.6z M5.8,157.1
				c0.2-0.2,0.2-0.6,0.2-1.4v-0.1c0-0.8,0-1.2-0.2-1.4C5.7,154,5.5,154,5.2,154c-0.3,0-0.5,0.1-0.6,0.2c-0.2,0.2-0.2,0.6-0.2,1.4
				v0.1c0,0.8,0,1.2,0.2,1.4c0.1,0.1,0.3,0.2,0.6,0.2C5.5,157.3,5.7,157.3,5.8,157.1z"/>
		</g>
		<g>
			<path class="st8" d="M38.7,103v-0.6h1.1v-3.1h0l-1,0.3l-0.1-0.6l1.3-0.4h0.7v3.9h1v0.6H38.7z"/>
			<path class="st8" d="M42.4,103v-0.6h1.1v-3.1h0l-1,0.3l-0.1-0.6l1.3-0.4h0.7v3.9h1v0.6H42.4z"/>
		</g>
		<g>
			<path class="st8" d="M66.5,120.4v-0.6h1.1v-3.1h0l-1,0.3l-0.1-0.6l1.3-0.4h0.7v3.9h1v0.6H66.5z"/>
			<path class="st8" d="M70.2,120.4v-0.8c0-0.9,0.3-1.3,1-1.6l0.5-0.1c0.4-0.1,0.6-0.3,0.6-0.8v0c0-0.5-0.3-0.7-0.8-0.7
				c-0.4,0-0.8,0.1-1.1,0.3l-0.2-0.6c0.3-0.2,0.8-0.3,1.4-0.3c0.9,0,1.5,0.4,1.5,1.3v0.1c0,0.8-0.3,1.1-0.9,1.3l-0.5,0.2
				c-0.5,0.1-0.7,0.4-0.7,0.8v0.3H73v0.6H70.2z"/>
		</g>
		<g>
			<path class="st8" d="M90.2,109.3v-0.6h1.1v-3.1h0l-1,0.3l-0.1-0.6l1.3-0.4h0.7v3.9h1v0.6H90.2z"/>
			<path class="st8" d="M93.7,109.1l0.1-0.6c0.3,0.1,0.7,0.2,1.2,0.2c0.6,0,0.8-0.2,0.8-0.7v-0.1c0-0.5-0.3-0.7-0.9-0.7h-0.5v-0.6
				h0.4c0.6,0,0.9-0.2,0.9-0.7v0c0-0.4-0.3-0.6-0.7-0.6c-0.4,0-0.8,0.1-1.1,0.3l-0.2-0.6c0.3-0.2,0.8-0.3,1.4-0.3
				c0.8,0,1.4,0.3,1.4,1.1v0.1c0,0.5-0.2,0.9-0.7,1v0c0.5,0.1,0.8,0.4,0.8,1.1v0.1c0,0.9-0.5,1.3-1.6,1.3
				C94.5,109.4,94,109.3,93.7,109.1z"/>
		</g>
		<g>
			<path class="st8" d="M101.4,117.1v-0.6h1.1v-3.1h0l-1,0.3l-0.1-0.6l1.3-0.4h0.7v3.9h1v0.6H101.4z"/>
			<path class="st8" d="M106.9,117.1v-0.9h-2.2v-0.5l1.6-3.1h0.8l-1.5,2.9h1.3v-1.3h0.8v1.3h0.5v0.7h-0.5v0.9H106.9z"/>
		</g>
		<g>
			<path class="st8" d="M111.4,79.2v-0.6h1.1v-3.1h0l-1,0.3l-0.1-0.6l1.3-0.4h0.7v3.9h1v0.6H111.4z"/>
			<path class="st8" d="M118,77.7L118,77.7c0,1.1-0.6,1.5-1.6,1.5c-0.6,0-1.1-0.1-1.5-0.4l0.2-0.6c0.4,0.2,0.8,0.3,1.2,0.3
				c0.6,0,0.8-0.2,0.8-0.8v-0.1c0-0.6-0.3-0.8-0.9-0.8c-0.3,0-0.7,0-1,0.1l-0.2-0.2l0.2-2.2h2.4v0.6H116l-0.1,1.1c0.2,0,0.4,0,0.5,0
				C117.5,76.4,118,76.8,118,77.7z"/>
		</g>
		<g>
			<path class="st8" d="M53.6,52.1v-0.6h1.1v-3.1h0l-1,0.3L53.5,48l1.3-0.4h0.7v3.9h1v0.6H53.6z"/>
			<path class="st8" d="M60.2,50.6L60.2,50.6c0,1.1-0.5,1.5-1.5,1.5c-1.2,0-1.6-0.6-1.6-2.1v-0.3c0-1.8,0.7-2.3,1.8-2.3
				c0.5,0,0.8,0.1,1.1,0.2l-0.1,0.6c-0.2-0.1-0.6-0.2-0.9-0.2c-0.7,0-1,0.3-1,1.2c0.3,0,0.6-0.1,0.9-0.1
				C59.8,49.2,60.2,49.7,60.2,50.6z M59.5,50.6c0-0.6-0.2-0.8-0.7-0.8c-0.3,0-0.6,0-0.8,0.1v0.1c0,1.1,0.1,1.5,0.8,1.5
				C59.3,51.5,59.5,51.3,59.5,50.6L59.5,50.6z"/>
		</g>
		<g>
			<path class="st8" d="M31,64.6V64h1.1v-3.1h0l-1,0.3l-0.1-0.6l1.3-0.4h0.7V64h1v0.6H31z"/>
			<path class="st8" d="M35,64.6l1.9-3.9h-2.2v-0.6h3.1v0.5l-1.9,4H35z"/>
		</g>
		<g>
			<path class="st8" d="M35.3,19.9v-0.6h1.1v-3.1h0l-1,0.3l-0.1-0.6l1.3-0.4h0.7v3.9h1v0.6H35.3z"/>
			<path class="st8" d="M42,18.7L42,18.7c0,0.9-0.5,1.3-1.6,1.3c-1.1,0-1.6-0.4-1.6-1.3v0c0-0.5,0.2-0.9,0.7-1.1
				c-0.4-0.2-0.5-0.5-0.5-1v0c0-0.8,0.5-1.2,1.5-1.2c0.9,0,1.5,0.4,1.5,1.2v0.1c0,0.5-0.2,0.8-0.5,1C41.8,17.8,42,18.1,42,18.7z
				 M41.1,18.6c0-0.5-0.2-0.7-0.8-0.7h-0.1c-0.5,0-0.8,0.2-0.8,0.7v0c0,0.5,0.2,0.7,0.8,0.7C40.9,19.4,41.1,19.2,41.1,18.6
				L41.1,18.6z M39.6,16.6c0,0.4,0.2,0.7,0.7,0.7h0.1c0.5,0,0.7-0.2,0.7-0.7v0c0-0.4-0.2-0.6-0.7-0.6C39.9,16,39.6,16.2,39.6,16.6
				L39.6,16.6z"/>
		</g>
	</g>
</g>
</svg>
