<svg xmlns="http://www.w3.org/2000/svg" id="Capa_1" viewBox="0 0 210 210"><defs><style>.cls-1{fill:#444;}.cls-2{fill:#e6e6e6;}.cls-3{fill:#f6f6f6;}.cls-4{font-size:5px;letter-spacing:.03em;}.cls-4,.cls-5{font-family:MGPDisplayVF-Medium, 'MGP Display VF';font-variation-settings:'wght' 500, 'wdth' 100;font-weight:500;}.cls-4,.cls-6{fill:#ededed;}.cls-7{fill:#606060;}.cls-8{fill:#a0a0a0;}.cls-9{font-size:5.26px;}.cls-9,.cls-10{fill:#c6c6c6;font-family:MGPText-Bold, 'MGP Text';font-weight:700;}.cls-10{font-size:5.27px;}.cls-11{fill:#fafafa;}.cls-12{fill:red;}.cls-5{fill:#323232;font-size:6.19px;letter-spacing:.02em;}</style></defs><path class="cls-7" d="M142.38,99.73c-1.36.35-2.79.68-4.24,1.01-.39.09-.78.18-1.16.27l-.29-1.24c.39-.09.78-.18,1.17-.27,5.33-1.23,10.84-2.49,12.28-4.8.84-1.34.93-2.71.28-4.19-.71-1.61-2.56-2.69-3.93-3.13-2.07-.65-8.41-.07-10.67.22l-.16-1.26c.34-.04,8.45-1.04,11.21-.17,1.63.51,3.84,1.82,4.72,3.83.82,1.86.69,3.67-.37,5.37-1.29,2.07-4.72,3.3-8.83,4.35Z"></path><path class="cls-8" d="M108.76,197.01c-2.34.6-5.93.42-9.72-3.89-3.27-3.72-8.62-10.36-13.79-16.79-5.26-6.53-10.22-12.7-12.76-15.51-2.77-3.06-8.52-11.41-2.23-22.94,6.98-12.8,11.67-20.62,11.81-20.83l.11-.16c1.83-2.66,2.18-2.95,8.17-4.48,11.24-2.88,49.28-13.76,49.67-13.87h.01s.01,0,.01,0h0c.21-.05,4.99-1.33,4.45-5.61-.68-5.36-6.52-5.03-6.77-5.01h-.08s-111.99-1.9-111.99-1.9c-3.74-.07-5.69-1.53-6.67-2.74-2.32-2.87-2.29-5.9.12-11.17l8.22-19.38c.2-.43.48-1.11.81-1.89,1.17-2.75,2.76-6.52,3.93-8.04,1.43-1.86,4.04-2.7,6.49-2.08,2.61.66,4.38,2.76,4.87,5.75,1.85,11.39,3.86,14.4,7.68,16.82,2.76,1.75,14.03,5.75,20.77,8.14,1.18.42,2.24.8,3.14,1.12,3.51,1.26,7.32,1.46,11.99.62,4.25-.76,8.41-3.64,11.14-7.71,2.21-3.29,10-15.74,16.88-26.72,4.48-7.15,8.7-13.9,10.45-16.61,1.09-1.7,3.47-4.28,4.99-5.41,4.88-3.64,15.92-6,24.78,3.15l.03.03c3.42,3.86,4.5,8.19,6.31,15.37.24.97.5,1.99.78,3.07.2.77,1.84,6.93,4.13,15.45,4.92,18.39,13.16,49.17,15.31,57.54,4.14,16.14,7.38,27.14,7.41,27.25v.03c.54,2.05.39,6.39-3.92,8.11-.25.1-.5.18-.74.24-4.24,1.09-7.63-3.08-9.31-5.15-1.71-2.1-18.44-22.16-19.54-23.33-2.48-2.61-7.65-8.04-18.66-5.22-4.15,1.07-9.37,2.43-14.42,3.76-4.9,1.28-9.96,2.61-13.86,3.61-6.38,1.64-9.5,3.79-11.93,8.22-.83,1.52-3.35,7.11-.68,14.91.8,2.32,2.96,5.56,4.49,7.12,5.74,5.87,6.83,6.81,8.81,8.53l.12.11c2.42,2.1,12.65,11.87,15.43,14.55,1.51,1.45,2.48,3.35,2.75,5.34.52,3.9-.85,6.98-3.97,8.91-6.83,4.23-11.35,6.96-12.35,7.48-.29.21-1.24.84-2.62,1.2ZM83.57,118.08c-.32.51-4.99,8.34-11.72,20.68-2.29,4.19-3.08,8.33-2.36,12.29.71,3.9,2.75,6.81,4.34,8.56,2.58,2.85,7.56,9.04,12.83,15.59,5.16,6.41,10.49,13.04,13.74,16.73,5.29,6.02,9.73,2.56,9.92,2.41l.17-.14h.07c.3-.17,2.16-1.19,12.21-7.41,2.5-1.55,3.55-3.94,3.12-7.12-.21-1.59-1-3.1-2.21-4.27-3.05-2.95-13.07-12.5-15.35-14.48l-.12-.11c-2.02-1.75-3.13-2.71-8.92-8.63-1.66-1.7-4.01-5.16-4.91-7.8-2.91-8.51-.12-14.68.81-16.37,2.67-4.88,6.21-7.35,13.07-9.11,3.9-1,8.96-2.33,13.85-3.61,5.05-1.32,10.28-2.69,14.43-3.76,4.97-1.28,9.42-1.13,13.22.45,3.19,1.32,5.44,3.41,7.22,5.28,1.21,1.27,18.07,21.51,19.64,23.43,4.07,5,6.23,5.05,7.97,4.36,3.82-1.52,2.92-5.63,2.84-5.95-.16-.54-3.35-11.44-7.42-27.29-2.15-8.36-10.38-39.13-15.3-57.52-2.28-8.53-3.93-14.7-4.13-15.47-.28-1.09-.54-2.11-.78-3.08-1.79-7.14-2.78-11.07-5.89-14.59-2.57-2.65-6.89-5.8-12.91-5.8-4.14,0-7.61,1.48-9.46,2.86-1.36,1.01-3.57,3.41-4.55,4.93-1.74,2.71-5.96,9.45-10.43,16.59-6.88,10.99-14.69,23.45-16.91,26.77-3,4.47-7.6,7.64-12.33,8.48-4.99.89-9.1.67-12.93-.7-.9-.32-1.96-.7-3.13-1.12-7.25-2.57-18.2-6.46-21.13-8.32-4.82-3.06-6.72-7.12-8.5-18.07-.21-1.32-.96-3.63-3.52-4.28-1.73-.44-3.62.15-4.6,1.43-1.03,1.34-2.7,5.29-3.7,7.64-.33.78-.62,1.46-.83,1.92l-8.22,19.38c-2.38,5.23-1.97,7.3-.36,9.29,1.06,1.31,2.88,2.02,5.28,2.06l111.95,1.9c.31-.02,2.05-.07,3.9.59,1.91.69,4.29,2.3,4.76,6.01.59,4.68-3.5,7.01-5.78,7.59h-.02c-.9.26-38.52,11.02-49.7,13.89-5.5,1.41-5.56,1.5-7.12,3.76l-.1.15Z"></path><line class="cls-6" x1="70.99" y1="90.89" x2="70.89" y2="83.1"></line><rect class="cls-2" x="70.61" y="83.1" width=".65" height="7.79" transform="translate(-1.12 .93) rotate(-.74)"></rect><polygon class="cls-2" points="106.27 59.92 95.55 54.03 95.92 53.45 106.64 59.34 106.27 59.92"></polygon><rect class="cls-2" x="171.54" y="90.73" width="10.86" height=".65" transform="translate(-16.14 42.92) rotate(-13.23)"></rect><rect class="cls-2" x="116.47" y="188.98" width=".65" height="11.41" transform="translate(-88.78 98.33) rotate(-33.93)"></rect><circle class="cls-1" cx="141.33" cy="8.04" r="3.55"></circle><text class="cls-9" transform="translate(139.99 9.72)"><tspan x="0" y="0">5</tspan></text><path class="cls-12" d="M98.94,49.05h-10.14l-.03.03v8.76h10.17v-8.79Z"></path><text class="cls-4" transform="translate(90.27 55.4)"><tspan x="0" y="0">i1</tspan></text><circle class="cls-1" cx="84.76" cy="68.3" r="3.55"></circle><text class="cls-9" transform="translate(83.42 69.99)"><tspan x="0" y="0">4</tspan></text><circle class="cls-1" cx="52.97" cy="57.41" r="3.55"></circle><text class="cls-9" transform="translate(51.63 59.09)"><tspan x="0" y="0">3</tspan></text><circle class="cls-1" cx="36.96" cy="36.32" r="3.55"></circle><text class="cls-9" transform="translate(35.63 38)"><tspan x="0" y="0">2</tspan></text><circle class="cls-1" cx="13.62" cy="84.99" r="3.55"></circle><text class="cls-9" transform="translate(12.28 86.68)"><tspan x="0" y="0">1</tspan></text><circle class="cls-1" cx="137.78" cy="93.01" r="3.55"></circle><text class="cls-9" transform="translate(135.04 94.7)"><tspan x="0" y="0">13</tspan></text><path class="cls-12" d="M76.53,89.05h-10.98l-.03.03v8.7h11.02v-8.74Z"></path><text class="cls-4" transform="translate(68.32 95.26)"><tspan x="0" y="0">FL</tspan></text><rect class="cls-11" x="66.39" y="91.96" width=".88" height="5.83"></rect><rect x="66.39" y="92.93" width=".88" height=".97"></rect><rect x="66.39" y="94.87" width=".88" height=".97"></rect><rect x="66.39" y="96.81" width=".88" height=".97"></rect><rect class="cls-11" x="65.51" y="91.96" width=".88" height="5.83"></rect><rect x="65.51" y="91.96" width=".88" height=".97"></rect><rect x="65.51" y="93.9" width=".88" height=".97"></rect><rect x="65.51" y="95.84" width=".88" height=".97"></rect><rect class="cls-11" x="66.39" y="89.05" width=".88" height="2.91"></rect><rect x="66.39" y="89.05" width=".88" height=".97"></rect><rect x="66.39" y="90.99" width=".88" height=".97"></rect><rect class="cls-11" x="65.51" y="89.05" width=".88" height="2.91"></rect><rect x="65.51" y="90.02" width=".88" height=".97"></rect><circle class="cls-1" cx="83.49" cy="109.87" r="3.55"></circle><text class="cls-9" transform="translate(80.75 111.56)"><tspan x="0" y="0">12</tspan></text><circle class="cls-1" cx="62.84" cy="152.29" r="3.55"></circle><text class="cls-9" transform="translate(60.1 153.98)"><tspan x="0" y="0">11</tspan></text><circle class="cls-1" cx="100.4" cy="200.78" r="3.55"></circle><text class="cls-9" transform="translate(97.66 202.47)"><tspan x="0" y="0">10</tspan></text><path class="cls-12" d="M125.73,195.1h-10.94l-.03.03v8.96h10.97v-9Z"></path><text class="cls-4" transform="translate(116.25 201.45)"><tspan x="0" y="0">i3</tspan></text><circle class="cls-1" cx="133.18" cy="182.19" r="3.55"></circle><text class="cls-9" transform="translate(131.84 183.88)"><tspan x="0" y="0">9</tspan></text><circle class="cls-1" cx="101.1" cy="132.96" r="3.56"></circle><text class="cls-10" transform="translate(99.75 134.64)"><tspan x="0" y="0">8</tspan></text><circle class="cls-1" cx="142.83" cy="117.21" r="3.55"></circle><text class="cls-9" transform="translate(141.49 118.9)"><tspan x="0" y="0">7</tspan></text><circle class="cls-1" cx="184.96" cy="152.29" r="3.55"></circle><text class="cls-9" transform="translate(183.62 153.98)"><tspan x="0" y="0">6</tspan></text><path class="cls-12" d="M190.06,85.72h-10.14l-.03.03v7.93h10.17v-7.96Z"></path><text class="cls-4" transform="translate(180.99 91.59)"><tspan x="0" y="0">i2</tspan></text><path class="cls-3" d="M198.92,85.79h-8.62l-.03.03v7.38h8.65v-7.41Z"></path><text class="cls-5" transform="translate(192.36 91.85)"><tspan x="0" y="0">S</tspan></text></svg>