<?xml version="1.0" encoding="utf-8"?>
<!-- Generator: Adobe Illustrator 26.4.1, SVG Export Plug-In . SVG Version: 6.00 Build 0)  -->
<svg version="1.1" id="Capa_1" xmlns="http://www.w3.org/2000/svg" xmlns:xlink="http://www.w3.org/1999/xlink" x="0px" y="0px"
	 viewBox="0 0 178.9 158.7" style="enable-background:new 0 0 178.9 158.7;" xml:space="preserve">
<style type="text/css">
	.st0{fill:#9C9C9D;}
	.st1{fill:#C71517;}
	.st2{fill:#FFFFFF;}
	.st3{fill:#181D22;}
	.st4{fill:#35AA54;}
	.st5{clip-path:url(#SVGID_00000037665999586299967790000008820667209394717837_);}
	.st6{fill:#1D1E1C;}
	.st7{fill:none;stroke:#919191;stroke-width:0.25;stroke-miterlimit:10;}
	.st8{fill:#9E9FA2;}
</style>
<g>
	<path class="st0" d="M172.9,33.9l-0.3-8.2c0.6-6.5-7.4-11.4-11.9-15.6c-1-1.1-2.5-1.7-4.2-1.7c-1.7,0-3.6,0.6-5.1,1.7
		c-1.3,1-8.4,5.8-40.3,28.1l-1.6,1.2c-2.8,2.3-6.3,5.5-7.2,7.5c-1,2.1-2.5,2.8-4.1,3.3c-2.2,0.9-4.5,1.8-4.8,6.2
		C93,60.3,90.7,78,90.7,78.1C90.2,86.4,79.4,93.9,71.8,94c-13.6,0.4-25.2,6.2-37.5,10.9c-4,1.2-8,4.3-10,7.8
		c-3.3,4.6-7.6,10.3-8.4,11.2c-4.7,5.7-8.2,14.5-0.4,21.4c7.3,8.9,16.5,5.2,18.1-6.8l2.2-7.8c0.7-1.9,2.7-3,4.9-2.9
		c5,0.4,9.8,1.3,14.5,1.3c3.5-0.1,8.1-0.7,11.8-0.7c1.6,0,2.9,0.1,3.8,0.4c12.6,3.6,20.3-0.9,19.5-13.3c0.5-5.4,1.3-11.7,2.2-13.5
		c4.6-9.9,11.6-3.6,17.3-9.9c12.3-14.6,23-28.1,35.3-43.1c3.5-3.6,5.6-8,7.6-12.4c1.5-3,3.4-7.7,5.7-10c0.1,0.4,0,1.4-0.3,1.9
		l-0.4,0.5c-2.5,3.9-6,9.3-2.1,13.8c3.5,3.9,8.5,5.7,13.1,3.5C173.5,44.5,174,38.6,172.9,33.9z M161.9,32.4c3-3.4,2.2-10.6-3.1-10.7
		c-5,0-8.9,8.6-12,15.4c-2,4.4-2.8,6.2-5.4,8.8c-7.7,9.3-30.1,36.4-34.2,41.6c-2.1,2.7-2.1,2.7-4.9,3c-15.2,1.2-15.8,13.4-17,25v0.2
		c0.6,9.1-3.2,11-12.9,8.3c-1.3-0.4-3-0.5-5.1-0.5c-6.6,0.1-12.6,1.3-19.3,0.1c-1.9-0.2-4.2-0.5-6.7-0.7c-4.6-0.4-8.8,2.3-10.2,6.5
		l-2.4,8.4c-1,7.7-4.8,10-9.4,4.1c-1.7-1.5-3.3-4.1-3.2-6.2c0.3-3.6,2.6-7,3.7-8.3c0.7-0.8,3.6-4.6,8.7-11.6l0.1-0.2
		c1.4-2.6,4.2-4.8,7.3-5.7c0.9-0.4,14.4-5.4,21.3-8.2c4.9-1.9,8.6-2.2,12.2-2.4c5.4-0.4,10.6-0.7,18.9-7.1c3.9-3,6.8-8.3,7.4-13.5
		c0.2-1.9,2.4-18.1,2.7-21.7c0.1-1.5,0.7-1.7,2.2-2.1c1.8-0.5,4.3-1.3,6.3-5.8c0.4-0.8,3.6-3.7,5.7-5.5c11.5-8,37.9-26.5,41.8-29.2
		c1.1-0.7,1.9-1,2.8-0.6c3.2,3,10.3,7.9,10.4,11.4c0,0.1,0,0.2,0,0.3v0.2l0.3,9c0.5,2,1,6.4-1,7.2l-0.1,0.1c-2.8,1.3-4.1,0-6.3-1.7
		C158,38.6,159.8,35.6,161.9,32.4z"/>
	<g>
		<g>
			<g>
				<g>
					<g>
						<path class="st1" d="M8.1,111.3c0.2-0.1,0.4,0,0.5,0.1l17.1,12.8c0.2,0.2,0.2,0.5,0.1,0.7c-0.2,0.2-0.5,0.2-0.7,0.1L7.9,112.2
							c-0.2-0.2-0.2-0.5-0.1-0.7C8,111.4,8,111.4,8.1,111.3z"/>
						<path class="st1" d="M9,116.8H2.8c-1.6,0-2.8-1.3-2.8-2.8v-4.2c0-1.6,1.3-2.8,2.8-2.8H9c1.6,0,2.8,1.3,2.8,2.8v4.2
							C11.8,115.6,10.6,116.8,9,116.8z"/>
						<g>
							<path class="st2" d="M3.8,109.2h1v0.9h-1C3.8,110.1,3.8,109.2,3.8,109.2z M3.9,110.5h0.9v3.5H3.9V110.5z"/>
							<path class="st2" d="M5.4,112.6h1c0,0.4,0.2,0.7,0.6,0.7s0.6-0.2,0.6-0.6s-0.2-0.6-0.7-0.6H6.5v-0.7h0.3
								c0.4,0,0.6-0.2,0.6-0.6c0-0.3-0.2-0.5-0.5-0.5c-0.4,0-0.6,0.2-0.6,0.7l0,0h-1l0,0c0-1,0.5-1.5,1.6-1.5c0.9,0,1.5,0.5,1.5,1.2
								c0,0.5-0.2,0.8-0.5,0.9c0.5,0.2,0.7,0.5,0.7,1c0,0.8-0.6,1.4-1.6,1.4C5.9,114.1,5.4,113.5,5.4,112.6z"/>
						</g>
					</g>
					<g>
						<path class="st1" d="M107.4,121.2h-6.2c-1.6,0-2.8-1.3-2.8-2.8v-4.2c0-1.6,1.3-2.8,2.8-2.8h6.2c1.6,0,2.8,1.3,2.8,2.8v4.2
							C110.3,119.9,109,121.2,107.4,121.2z"/>
						<g>
							<path class="st2" d="M102.3,113.5h1v0.9h-1V113.5z M102.3,114.8h0.9v3.5h-0.9V114.8z"/>
							<path class="st2" d="M103.9,117.5c0-0.7,0.3-1.1,0.9-1.4l0.2-0.1c0.7-0.3,0.9-0.5,0.9-0.9c0-0.3-0.2-0.6-0.5-0.6
								c-0.4,0-0.6,0.3-0.6,0.8v0.1h-1v-0.1c0-1.1,0.5-1.6,1.6-1.6c0.9,0,1.5,0.5,1.5,1.4c0,0.7-0.3,1.1-1.1,1.5l-0.2,0.1
								c-0.6,0.2-0.8,0.4-0.8,0.8v0.1h2.1l-0.1,0.8h-2.9V117.5z"/>
						</g>
						<path class="st1" d="M82.5,117C82.5,117,82.5,116.9,82.5,117c0.2-0.4,0.4-0.4,0.7-0.4l16.4,0.1c0.3,0.1,0.4,0.4,0.3,0.7
							s-0.4,0.3-0.7,0.3l-16.4-0.1C82.6,117.4,82.4,117.2,82.5,117z"/>
					</g>
					<g>
						<path class="st1" d="M150.8,47.8c-0.2,0.2-0.5,0.1-0.7-0.1l-9-7c-0.2-0.2-0.1-0.5,0.1-0.7s0.5-0.1,0.7,0.1l9,7
							C151.1,47.3,151,47.6,150.8,47.8z"/>
						<path class="st1" d="M139.6,42.8h-6.2c-1.6,0-2.8-1.3-2.8-2.8v-4.2c0-1.6,1.3-2.8,2.8-2.8h6.2c1.6,0,2.8,1.3,2.8,2.8V40
							C142.5,41.5,141.2,42.8,139.6,42.8z"/>
						<g>
							<path class="st2" d="M134.4,35.1h1V36h-1V35.1z M134.5,36.4h0.9v3.5h-0.9V36.4z"/>
							<path class="st2" d="M139.2,39.1l-0.2,0.8h-2.8v-0.8h1.1v-2.7l-1.1,0.5v-0.8l1.4-0.6h0.7v3.6H139.2z"/>
						</g>
					</g>
					<g>
						<path class="st1" d="M133.1,96.1h-6.2c-1.6,0-2.8-1.3-2.8-2.8v-4.2c0-1.6,1.3-2.8,2.8-2.8h6.2c1.6,0,2.8,1.3,2.8,2.8v4.2
							C135.9,94.8,134.6,96.1,133.1,96.1z"/>
						<g>
							<path class="st2" d="M128.4,92.1v-0.2h1V92c0,0.4,0.2,0.6,0.5,0.6s0.5-0.2,0.5-0.4c0-0.3-0.1-0.4-0.5-0.5l-0.4-0.1
								c-0.6-0.2-1.2-0.5-1.2-1.3s0.6-1.3,1.5-1.3c1,0,1.5,0.5,1.5,1.4v0.1h-1v-0.2c0-0.4-0.2-0.6-0.5-0.6s-0.4,0.2-0.4,0.4
								c0,0.4,0.4,0.5,0.8,0.7h0.1c0.5,0.2,1.2,0.5,1.2,1.3c0,0.7-0.5,1.4-1.6,1.4C129,93.5,128.4,93,128.4,92.1z"/>
						</g>
						<path class="st1" d="M125.7,87.6c-0.2,0.2-0.5,0.2-0.7,0l-13-11.7c-0.2-0.2-0.2-0.5,0-0.7s0.5-0.2,0.7,0l13,11.7
							C125.8,87.1,125.8,87.4,125.7,87.6z"/>
					</g>
				</g>
			</g>
		</g>
	</g>
	<g>
		<g>
			<path class="st1" d="M97.5,31.9h-6.2c-1.6,0-2.8-1.3-2.8-2.8v-4.3c0-1.6,1.3-2.8,2.8-2.8h6.2c1.6,0,2.8,1.3,2.8,2.8V29
				C100.3,30.6,99.1,31.9,97.5,31.9z"/>
			<g>
				<path class="st2" d="M92.8,25.9v0.9h1.6v0.8h-1.6v1.6h-1v-3.6c0-0.6,0.3-0.9,0.9-0.9h1.8l-0.1,0.8h-1.3
					C92.9,25.6,92.8,25.7,92.8,25.9z"/>
				<path class="st2" d="M95.1,28.2v-3.4h1v3.3c0,0.3,0.1,0.4,0.4,0.4h1.3l-0.1,0.8h-1.4C95.4,29.3,95.1,28.9,95.1,28.2z"/>
			</g>
			<g>
				<polygon class="st1" points="117.2,49.4 116.4,50 99.3,28.5 100.1,27.9 				"/>
				<g>
					
						<rect x="115.2" y="46.6" transform="matrix(0.7547 -0.6561 0.6561 0.7547 -1.6538 89.8538)" class="st1" width="8.2" height="1"/>
					<path id="Shape_00000065764410594641705710000012851787520307324863_" class="st1" d="M122.2,43.3l-1.6,0.3
						c-0.2,0.1-0.3,0.3-0.2,0.4l1,1.2l1,1.2c0.1,0.2,0.3,0.1,0.4-0.1l0.5-1.5l0.5-1.5c0.1-0.2,0-0.4-0.3-0.3L122.2,43.3z"/>
				</g>
			</g>
		</g>
		<g>
			<path class="st3" d="M83.5,31.9H63.4c-1.6,0-2.8-1.3-2.8-2.8v-4.3c0-1.6,1.3-2.8,2.8-2.8h20.1c1.6,0,2.8,1.3,2.8,2.8V29
				C86.3,30.6,85,31.9,83.5,31.9z"/>
			<circle class="st1" cx="65.9" cy="27" r="3.5"/>
			<circle class="st4" cx="73.9" cy="26.9" r="3.5"/>
			<g>
				<g>
					<g>
						<defs>
							<circle id="SVGID_1_" cx="81.5" cy="27" r="3.5"/>
						</defs>
						<clipPath id="SVGID_00000110440315016526297210000002893857292662647943_">
							<use xlink:href="#SVGID_1_"  style="overflow:visible;"/>
						</clipPath>
						<g style="clip-path:url(#SVGID_00000110440315016526297210000002893857292662647943_);">
							<rect x="73.3" y="20.6" class="st2" width="1.8" height="1.8"/>
							<rect x="75.2" y="20.6" class="st6" width="1.8" height="1.8"/>
							<rect x="77" y="20.6" class="st2" width="1.8" height="1.8"/>
							<rect x="78.8" y="20.6" class="st6" width="1.8" height="1.8"/>
							<rect x="80.6" y="20.6" class="st2" width="1.8" height="1.8"/>
							<rect x="82.5" y="20.6" class="st6" width="1.8" height="1.8"/>
							<rect x="84.3" y="20.6" class="st2" width="1.8" height="1.8"/>
							<rect x="86.1" y="20.6" class="st6" width="1.8" height="1.8"/>
							<rect x="73.3" y="22.4" class="st6" width="1.8" height="1.8"/>
							<rect x="75.2" y="22.4" class="st2" width="1.8" height="1.8"/>
							<rect x="77" y="22.4" class="st6" width="1.8" height="1.8"/>
							<rect x="78.8" y="22.4" class="st2" width="1.8" height="1.8"/>
							<rect x="80.6" y="22.4" class="st6" width="1.8" height="1.8"/>
							<rect x="82.5" y="22.4" class="st2" width="1.8" height="1.8"/>
							<rect x="84.3" y="22.4" class="st6" width="1.8" height="1.8"/>
							<rect x="86.1" y="22.4" class="st2" width="1.8" height="1.8"/>
							<rect x="73.3" y="24.2" class="st2" width="1.8" height="1.8"/>
							<rect x="75.2" y="24.2" class="st6" width="1.8" height="1.8"/>
							<rect x="77" y="24.2" class="st2" width="1.8" height="1.8"/>
							<rect x="78.8" y="24.2" class="st6" width="1.8" height="1.8"/>
							<rect x="80.6" y="24.2" class="st2" width="1.8" height="1.8"/>
							<rect x="82.5" y="24.2" class="st6" width="1.8" height="1.8"/>
							<rect x="84.3" y="24.2" class="st2" width="1.8" height="1.8"/>
							<rect x="86.1" y="24.2" class="st6" width="1.8" height="1.8"/>
							<rect x="73.3" y="26.1" class="st6" width="1.8" height="1.8"/>
							<rect x="75.2" y="26.1" class="st2" width="1.8" height="1.8"/>
							<rect x="77" y="26.1" class="st6" width="1.8" height="1.8"/>
							<rect x="78.8" y="26.1" class="st2" width="1.8" height="1.8"/>
							<rect x="80.6" y="26.1" class="st6" width="1.8" height="1.8"/>
							<rect x="82.5" y="26.1" class="st2" width="1.8" height="1.8"/>
							<rect x="84.3" y="26.1" class="st6" width="1.8" height="1.8"/>
							<rect x="86.1" y="26.1" class="st2" width="1.8" height="1.8"/>
							<rect x="73.3" y="27.9" class="st2" width="1.8" height="1.8"/>
							<rect x="75.2" y="27.9" class="st6" width="1.8" height="1.8"/>
							<rect x="77" y="27.9" class="st2" width="1.8" height="1.8"/>
							<rect x="78.8" y="27.9" class="st6" width="1.8" height="1.8"/>
							<rect x="80.6" y="27.9" class="st2" width="1.8" height="1.8"/>
							<rect x="82.5" y="27.9" class="st6" width="1.8" height="1.8"/>
							<rect x="84.3" y="27.9" class="st2" width="1.8" height="1.8"/>
							<rect x="86.1" y="27.9" class="st6" width="1.8" height="1.8"/>
							<rect x="73.3" y="29.7" class="st6" width="1.8" height="1.8"/>
							<rect x="75.2" y="29.7" class="st2" width="1.8" height="1.8"/>
							<rect x="77" y="29.7" class="st6" width="1.8" height="1.8"/>
							<rect x="78.8" y="29.7" class="st2" width="1.8" height="1.8"/>
							<rect x="80.6" y="29.7" class="st6" width="1.8" height="1.8"/>
							<rect x="82.5" y="29.7" class="st2" width="1.8" height="1.8"/>
							<rect x="84.3" y="29.7" class="st6" width="1.8" height="1.8"/>
							<rect x="86.1" y="29.7" class="st2" width="1.8" height="1.8"/>
							<rect x="73.3" y="31.5" class="st2" width="1.8" height="1.8"/>
							<rect x="75.2" y="31.5" class="st6" width="1.8" height="1.8"/>
							<rect x="77" y="31.5" class="st2" width="1.8" height="1.8"/>
							<rect x="78.8" y="31.5" class="st6" width="1.8" height="1.8"/>
							<rect x="80.6" y="31.5" class="st2" width="1.8" height="1.8"/>
							<rect x="82.5" y="31.5" class="st6" width="1.8" height="1.8"/>
							<rect x="84.3" y="31.5" class="st2" width="1.8" height="1.8"/>
							<rect x="86.1" y="31.5" class="st6" width="1.8" height="1.8"/>
							<rect x="73.3" y="33.4" class="st6" width="1.8" height="1.8"/>
							<rect x="75.2" y="33.4" class="st2" width="1.8" height="1.8"/>
							<rect x="77" y="33.4" class="st6" width="1.8" height="1.8"/>
							<rect x="78.8" y="33.4" class="st2" width="1.8" height="1.8"/>
							<rect x="80.6" y="33.4" class="st6" width="1.8" height="1.8"/>
							<rect x="82.5" y="33.4" class="st2" width="1.8" height="1.8"/>
							<rect x="84.3" y="33.4" class="st6" width="1.8" height="1.8"/>
							<rect x="86.1" y="33.4" class="st2" width="1.8" height="1.8"/>
						</g>
					</g>
				</g>
				<g>
					<circle id="SVGID_00000081626722910048823450000009398272281877020083_" class="st7" cx="81.5" cy="27" r="3.5"/>
				</g>
			</g>
		</g>
	</g>
	<g>
		<path class="st8" d="M154.4,4.5V3.9h1.1V0.8h0l-1,0.3l-0.1-0.6l1.3-0.4h0.7v3.9h1v0.6H154.4z"/>
		<path class="st8" d="M176,23.4v-0.8c0-0.9,0.3-1.3,1-1.6l0.5-0.1c0.4-0.1,0.6-0.3,0.6-0.8v0c0-0.5-0.3-0.7-0.8-0.7
			c-0.4,0-0.8,0.1-1.1,0.3l-0.2-0.6c0.3-0.2,0.8-0.3,1.4-0.3c0.9,0,1.5,0.4,1.5,1.3v0.1c0,0.8-0.3,1.1-0.9,1.3l-0.5,0.2
			c-0.5,0.1-0.7,0.4-0.7,0.8v0.3h2.1v0.6H176z"/>
		<path class="st8" d="M173,52.3l0.1-0.6c0.3,0.1,0.7,0.2,1.2,0.2c0.6,0,0.8-0.2,0.8-0.7v-0.1c0-0.5-0.3-0.7-0.9-0.7h-0.5v-0.6h0.4
			c0.6,0,0.9-0.2,0.9-0.7v0c0-0.4-0.3-0.6-0.7-0.6c-0.4,0-0.8,0.1-1.1,0.3l-0.2-0.6c0.3-0.2,0.8-0.3,1.4-0.3c0.8,0,1.4,0.3,1.4,1.1
			v0.1c0,0.5-0.2,0.9-0.7,1v0c0.5,0.1,0.8,0.4,0.8,1.1v0.1c0,0.9-0.5,1.3-1.6,1.3C173.8,52.5,173.3,52.4,173,52.3z"/>
		<path class="st8" d="M164.2,39v-0.9H162v-0.5l1.6-3.1h0.8l-1.5,2.9h1.3v-1.3h0.8v1.3h0.5v0.7H165V39H164.2z"/>
		<path class="st8" d="M154.1,21.5L154.1,21.5c0,1.1-0.6,1.5-1.6,1.5c-0.6,0-1.1-0.1-1.5-0.4l0.2-0.6c0.4,0.2,0.8,0.3,1.2,0.3
			c0.6,0,0.8-0.2,0.8-0.8v-0.1c0-0.6-0.3-0.8-0.9-0.8c-0.3,0-0.7,0-1,0.1l-0.2-0.2l0.2-2.2h2.4v0.6h-1.7l-0.1,1.1c0.2,0,0.4,0,0.5,0
			C153.6,20.1,154.1,20.6,154.1,21.5z"/>
		<path class="st8" d="M112.8,100.3L112.8,100.3c0,1.1-0.5,1.5-1.5,1.5c-1.2,0-1.6-0.6-1.6-2.1v-0.3c0-1.8,0.7-2.3,1.8-2.3
			c0.5,0,0.8,0.1,1.1,0.2l-0.1,0.6c-0.2-0.1-0.6-0.2-0.9-0.2c-0.7,0-1,0.3-1,1.2c0.3,0,0.6-0.1,0.9-0.1
			C112.3,98.9,112.8,99.3,112.8,100.3z M112,100.3c0-0.6-0.2-0.8-0.7-0.8c-0.3,0-0.6,0-0.8,0.1v0.1c0,1.1,0.1,1.5,0.8,1.5
			C111.8,101.2,112,100.9,112,100.3L112,100.3z"/>
		<path class="st8" d="M96.3,106.3l1.9-3.9H96v-0.6H99v0.5l-1.9,4H96.3z"/>
		<path class="st8" d="M90.1,135.2L90.1,135.2c0,0.9-0.5,1.3-1.6,1.3c-1.1,0-1.6-0.4-1.6-1.3v0c0-0.5,0.2-0.9,0.7-1.1
			c-0.4-0.2-0.5-0.5-0.5-1v0c0-0.8,0.5-1.2,1.5-1.2c0.9,0,1.5,0.4,1.5,1.2v0.1c0,0.5-0.2,0.8-0.5,1
			C89.9,134.3,90.1,134.7,90.1,135.2z M89.3,135.2c0-0.5-0.2-0.7-0.8-0.7h-0.1c-0.5,0-0.8,0.2-0.8,0.7v0c0,0.5,0.2,0.7,0.8,0.7
			C89.1,135.9,89.3,135.7,89.3,135.2L89.3,135.2z M87.8,133.2c0,0.4,0.2,0.7,0.7,0.7h0.1c0.5,0,0.7-0.2,0.7-0.7v0
			c0-0.4-0.2-0.6-0.7-0.6C88,132.5,87.8,132.7,87.8,133.2L87.8,133.2z"/>
		<path class="st8" d="M42.5,133.4v0.6c0,1.5-0.4,2.2-1.7,2.2c-0.5,0-0.9-0.1-1.2-0.2l0.1-0.6c0.3,0.1,0.7,0.2,1,0.2
			c0.6,0,0.9-0.3,0.9-1.1c-0.2,0-0.5,0.1-0.8,0.1c-1.1,0-1.5-0.4-1.5-1.4V133c0-1,0.6-1.5,1.6-1.5C42,131.5,42.5,132,42.5,133.4z
			 M40.2,133c0,0.6,0.2,0.8,0.8,0.8c0.3,0,0.6,0,0.8-0.1v-0.3c0-1-0.1-1.4-0.8-1.4C40.4,132.1,40.2,132.4,40.2,133L40.2,133z"/>
		<g>
			<path class="st8" d="M26.8,158.6V158h1.1v-3.1h0l-1,0.3l-0.1-0.6l1.3-0.4h0.7v3.9h1v0.6H26.8z"/>
			<path class="st8" d="M30.7,158.3c-0.3-0.3-0.5-0.8-0.5-1.9v-0.2c0-1,0.1-1.5,0.4-1.8c0.3-0.3,0.6-0.4,1.2-0.4
				c0.6,0,1,0.1,1.2,0.4c0.3,0.3,0.4,0.8,0.4,1.8v0.2c0,1.1-0.1,1.5-0.4,1.8c-0.3,0.3-0.7,0.4-1.2,0.4
				C31.4,158.7,31,158.6,30.7,158.3z M32.5,157.8c0.2-0.2,0.2-0.6,0.2-1.4v-0.1c0-0.8,0-1.2-0.2-1.4c-0.1-0.2-0.3-0.2-0.6-0.2
				c-0.3,0-0.5,0.1-0.6,0.2c-0.2,0.2-0.2,0.6-0.2,1.4v0.1c0,0.8,0,1.2,0.2,1.4c0.1,0.1,0.3,0.2,0.6,0.2
				C32.2,158,32.4,158,32.5,157.8z"/>
		</g>
		<g>
			<path class="st8" d="M1.6,142.2v-0.6h1.1v-3.1h0l-1,0.3l-0.1-0.6l1.3-0.4h0.7v3.9h1v0.6H1.6z"/>
			<path class="st8" d="M5.3,142.2v-0.6h1.1v-3.1h0l-1,0.3l-0.1-0.6l1.3-0.4h0.7v3.9h1v0.6H5.3z"/>
		</g>
		<g>
			<path class="st8" d="M19.3,107v-0.6h1.1v-3.1h0l-1,0.3l-0.1-0.6l1.3-0.4h0.7v3.9h1v0.6H19.3z"/>
			<path class="st8" d="M23,107v-0.8c0-0.9,0.3-1.3,1-1.6l0.5-0.1c0.4-0.1,0.6-0.3,0.6-0.8v0c0-0.5-0.3-0.7-0.8-0.7
				c-0.4,0-0.8,0.1-1.1,0.3l-0.2-0.6c0.3-0.2,0.8-0.3,1.4-0.3c0.9,0,1.5,0.4,1.5,1.3v0.1c0,0.8-0.3,1.1-0.9,1.3l-0.5,0.2
				c-0.5,0.1-0.7,0.4-0.7,0.8v0.3h2.1v0.6H23z"/>
		</g>
		<g>
			<path class="st8" d="M62.7,91.3v-0.6h1.1v-3.1h0l-1,0.3l-0.1-0.6l1.3-0.4h0.7v3.9h1v0.6H62.7z"/>
			<path class="st8" d="M66.2,91.1l0.1-0.6c0.3,0.1,0.7,0.2,1.2,0.2c0.6,0,0.8-0.2,0.8-0.7V90c0-0.5-0.3-0.7-0.9-0.7H67v-0.6h0.4
				c0.6,0,0.9-0.2,0.9-0.7v0c0-0.4-0.3-0.6-0.7-0.6c-0.4,0-0.8,0.1-1.1,0.3L66.3,87c0.3-0.2,0.8-0.3,1.4-0.3c0.8,0,1.4,0.3,1.4,1.1
				v0.1c0,0.5-0.2,0.9-0.7,1v0c0.5,0.1,0.8,0.4,0.8,1.1V90c0,0.9-0.5,1.3-1.6,1.3C67,91.4,66.6,91.3,66.2,91.1z"/>
		</g>
		<g>
			<path class="st8" d="M74.2,105.6V105h1.1v-3.1h0l-1,0.3l-0.1-0.6l1.3-0.4h0.7v3.9h1v0.6H74.2z"/>
			<path class="st8" d="M79.7,105.6v-0.9h-2.2v-0.5l1.6-3.1h0.8l-1.5,2.9h1.3v-1.3h0.8v1.3H81v0.7h-0.5v0.9H79.7z"/>
		</g>
		<g>
			<path class="st8" d="M81.1,81.7v-0.6h1.1V78h0l-1,0.3L81,77.6l1.3-0.4H83v3.9h1v0.6H81.1z"/>
			<path class="st8" d="M87.7,80.3L87.7,80.3c0,1.1-0.6,1.5-1.6,1.5c-0.6,0-1.1-0.1-1.5-0.4l0.2-0.6c0.4,0.2,0.8,0.3,1.2,0.3
				c0.6,0,0.8-0.2,0.8-0.8v-0.1c0-0.6-0.3-0.8-0.9-0.8c-0.3,0-0.7,0-1,0.1l-0.2-0.2l0.2-2.2h2.4v0.6h-1.7l-0.1,1.1
				c0.2,0,0.4,0,0.5,0C87.2,78.9,87.7,79.3,87.7,80.3z"/>
		</g>
		<g>
			<path class="st8" d="M84.7,54.8v-0.6h1.1V51h0l-1,0.3l-0.1-0.6l1.3-0.4h0.7v3.9h1v0.6H84.7z"/>
			<path class="st8" d="M91.4,53.3L91.4,53.3c0,1.1-0.5,1.5-1.5,1.5c-1.2,0-1.6-0.6-1.6-2.1v-0.3c0-1.8,0.7-2.3,1.8-2.3
				c0.5,0,0.8,0.1,1.1,0.2L91,51c-0.2-0.1-0.6-0.2-0.9-0.2c-0.7,0-1,0.3-1,1.2c0.3,0,0.6-0.1,0.9-0.1C90.9,52,91.4,52.4,91.4,53.3z
				 M90.6,53.4c0-0.6-0.2-0.8-0.7-0.8c-0.3,0-0.6,0-0.8,0.1v0.1c0,1.1,0.1,1.5,0.8,1.5C90.4,54.2,90.6,54,90.6,53.4L90.6,53.4z"/>
		</g>
		<g>
			<path class="st8" d="M104,60.7v-0.6h1.1v-3.1h0l-1,0.3l-0.1-0.6l1.3-0.4h0.7v3.9h1v0.6H104z"/>
			<path class="st8" d="M107.9,60.7l1.9-3.9h-2.2v-0.6h3.1v0.5l-1.9,4H107.9z"/>
		</g>
		<g>
			<path class="st8" d="M96.6,43.2v-0.6h1.1v-3.1h0l-1,0.3l-0.1-0.6l1.3-0.4h0.7v3.9h1v0.6H96.6z"/>
			<path class="st8" d="M103.3,41.9L103.3,41.9c0,0.9-0.5,1.3-1.6,1.3c-1.1,0-1.6-0.4-1.6-1.3v0c0-0.5,0.2-0.9,0.7-1.1
				c-0.4-0.2-0.5-0.5-0.5-1v0c0-0.8,0.5-1.2,1.5-1.2c0.9,0,1.5,0.4,1.5,1.2v0.1c0,0.5-0.2,0.8-0.5,1C103.1,41,103.3,41.4,103.3,41.9
				z M102.5,41.9c0-0.5-0.2-0.7-0.8-0.7h-0.1c-0.5,0-0.8,0.2-0.8,0.7v0c0,0.5,0.2,0.7,0.8,0.7C102.3,42.6,102.5,42.4,102.5,41.9
				L102.5,41.9z M101,39.9c0,0.4,0.2,0.7,0.7,0.7h0.1c0.5,0,0.7-0.2,0.7-0.7v0c0-0.4-0.2-0.6-0.7-0.6C101.2,39.2,101,39.4,101,39.9
				L101,39.9z"/>
		</g>
	</g>
</g>
</svg>
