<?xml version="1.0" encoding="utf-8"?>
<!-- Generator: Adobe Illustrator 26.4.1, SVG Export Plug-In . SVG Version: 6.00 Build 0)  -->
<svg version="1.1" id="Capa_1" xmlns="http://www.w3.org/2000/svg" xmlns:xlink="http://www.w3.org/1999/xlink" x="0px" y="0px"
	 viewBox="0 0 154.6 164.1" style="enable-background:new 0 0 154.6 164.1;" xml:space="preserve">
<style type="text/css">
	.st0{fill:#9E9FA2;}
	.st1{fill:#C80502;}
	.st2{fill:#FFFFFF;}
	.st3{fill:#171C21;}
	.st4{fill:#00B753;}
	.st5{clip-path:url(#SVGID_00000093856775337936062060000009132835197736646813_);}
	.st6{fill:#1D1D1B;}
	.st7{fill:none;stroke:#939393;stroke-width:0.25;stroke-miterlimit:10;}
</style>
<g>
	<path class="st0" d="M143.3,115.4L117.4,14c-0.6-2.1-3-5.6-8.1-4.6c-2.3,0.5-3.6,1.7-4.3,2.7c-1.6,2.4-1.1,5.3-1,5.4l10.2,49.9
		c0,0.2,0.2,0.7-0.6,1.4c-0.2,0.2-0.4,0.3-0.6,0.3c-0.1,0-0.3,0-0.7-0.3L88.4,55.5c-2.1-1.3-7.5-1.9-11.2,0.4
		c-6.2,3.4-6.5,9.2-6.6,11.4c-0.1,2.3,0.1,4.6-1.7,6.3c-2.2,1.9-4,1.8-6.4,1.9c-2.1,0-25,1.3-29.7,1.6c-6.3,0.5-13.2,5.7-15.8,11.6
		L6.2,114c-0.2,0.7-0.9,4.5,1.4,6.7c1.3,1.5,4.8,2.7,7.5,1.7c2.6-0.7,49.6-13.7,64.2-17.7c1.7-0.3,3.8-0.5,5.8,0.9
		c2,1.7,2.2,2.9,2.4,3.5c0.5,1.6,2,6.1,2.1,6.6c0,0.3,0,0.5-0.1,0.6c-2.5,1.6-46.2,6.6-71.9,10.7c-3,0.2-8.6,2.2-8.7,8.3v5.9
		c0.7,2.7,3.1,7.2,8,7.2c4,0,76.8-2.9,80.5-3c3.8-0.1,9.3-3.5,6.2-10.1c-0.4-0.9-0.3-1.6,0.3-2.2l8.1-8.7c0.1-0.1,0.4-0.2,1.2-0.3
		l24.5-0.8C140.8,123.3,144.7,120.5,143.3,115.4z M137.5,117.9c-1.3-0.1-6.1-0.1-24,0.7c-2.8-0.2-4.9,1.3-5.8,2.5l-7.6,8.2
		c-1.4,1.3-3.2,4.5-1.4,8.4c0.4,0.9,0.4,1.4,0.4,1.4c-0.2,0.2-1.1,0.6-1.8,0.7c-56.8,2.2-81,3.1-80.1,3c-1.4,0-2.3-2.1-2.5-2.7
		l0.1-4.8c0-2.2,2.3-2.7,3.7-2.8c0.7-0.1,68.1-9.7,70.1-9.9c4.7-0.4,7.6-4.2,6.7-8.3c-0.5-1.4-2-6.4-2.2-6.8c-0.2-1.2-1-3.7-4.2-6.3
		c-3.5-2.7-7.2-2.6-10.7-2c-2.8,0.8-62.6,17.2-64.4,17.8c-1,0.3-1.6,0.1-2-0.2c-0.1-0.2-0.1-1.1,0-1.4c0.1-0.2,10.5-24.6,10.5-24.6
		c1.7-3.8,6.5-7.8,11-8.2c13.3-0.8,28-1.6,29.5-1.6c3.7,0.1,7.5-1,10-3.4c3.7-3.5,3.4-7.2,3.6-10.2c0.1-2.9,0.8-5.1,3.6-6.7
		c0.9-0.5,1.9-0.8,2.9-0.9c1.7-0.1,2.8,0.5,2.8,0.5l23.9,13.3c5.3,3.6,11.9-2.4,10.1-7.9l-10.2-49.2c-0.2-1.1,0.3-1.4,0.8-1.5
		c0.9-0.2,1.4,0,1.7,0.6c0.2,1.1,24.9,96.4,26,102C137.9,117.7,137.6,117.8,137.5,117.9L137.5,117.9z"/>
	<g>
		<g>
			<path class="st1" d="M128.1,89.7c0-0.3,0.2-0.5,0.5-0.5l16.2-3.5c0.3,0,0.5,0.2,0.5,0.5s-0.2,0.5-0.5,0.5l-16.2,3.5
				C128.3,90.2,128.1,89.9,128.1,89.7z"/>
			<path class="st1" d="M151.8,90.5h-6.2c-1.6,0-2.8-1.3-2.8-2.8v-4.2c0-1.6,1.3-2.8,2.8-2.8h6.2c1.6,0,2.8,1.3,2.8,2.8v4.2
				C154.6,89.2,153.3,90.5,151.8,90.5z"/>
			<g>
				<path class="st2" d="M147.1,86.5v-0.2h1v0.1c0,0.4,0.2,0.6,0.5,0.6s0.5-0.2,0.5-0.4c0-0.3-0.1-0.4-0.5-0.5l-0.4-0.1
					c-0.6-0.2-1.2-0.5-1.2-1.3s0.6-1.3,1.5-1.3c1,0,1.5,0.5,1.5,1.4v0.1h-1v-0.2c0-0.4-0.2-0.6-0.5-0.6s-0.4,0.2-0.4,0.4
					c0,0.4,0.4,0.5,0.8,0.7h0.1c0.5,0.2,1.2,0.5,1.2,1.3c0,0.7-0.5,1.4-1.6,1.4C147.7,87.9,147.1,87.4,147.1,86.5z"/>
			</g>
		</g>
		<g>
			<g>
				<path class="st1" d="M51.6,164.1h-6.2c-1.6,0-2.8-1.3-2.8-2.8V157c0-1.6,1.3-2.8,2.8-2.8h6.2c1.6,0,2.8,1.3,2.8,2.8v4.2
					C54.4,162.8,53.2,164.1,51.6,164.1z"/>
				<g>
					<path class="st2" d="M46.9,158.1v0.9h1.6v0.8h-1.6v1.6h-1v-3.6c0-0.6,0.3-0.9,0.9-0.9h1.8l-0.1,0.8h-1.3
						C47,157.8,46.9,157.9,46.9,158.1z"/>
					<path class="st2" d="M49.2,160.4V157h1v3.3c0,0.3,0.1,0.4,0.4,0.4h1.3l-0.1,0.8h-1.4C49.5,161.5,49.2,161.1,49.2,160.4z"/>
				</g>
				<g>
					<polygon class="st1" points="47.5,138 48.5,138 49.1,155 48.1,155.1 					"/>
					
						<rect x="40.1" y="138.2" transform="matrix(0.9981 -6.088365e-02 6.088365e-02 0.9981 -8.3599 2.9499)" class="st1" width="8.2" height="1"/>
					<path id="Shape_17_" class="st1" d="M39.5,138l1.4-0.9c0.2-0.1,0.4-0.1,0.4,0.1v1.6l0.1,1.6c0,0.2-0.1,0.3-0.4,0.3l-1.4-0.7
						l-1.4-0.7c-0.2-0.1-0.2-0.3-0.1-0.4L39.5,138z"/>
				</g>
			</g>
			<g>
				<path class="st3" d="M79.6,164.1H59.5c-1.6,0-2.8-1.3-2.8-2.8V157c0-1.6,1.3-2.8,2.8-2.8h20.1c1.6,0,2.8,1.3,2.8,2.8v4.2
					C82.4,162.8,81.1,164.1,79.6,164.1z"/>
				<circle class="st1" cx="62" cy="159.2" r="3.5"/>
				<circle class="st4" cx="70" cy="159.1" r="3.5"/>
				<g>
					<g>
						<g>
							<g>
								<g>
									<defs>
										<circle id="SVGID_00000132055821662169331700000008183941695545606802_" cx="77.6" cy="159.2" r="3.5"/>
									</defs>
									<clipPath id="SVGID_00000171693273282278101890000000621899876680702877_">
										<use xlink:href="#SVGID_00000132055821662169331700000008183941695545606802_"  style="overflow:visible;"/>
									</clipPath>
									<g style="clip-path:url(#SVGID_00000171693273282278101890000000621899876680702877_);">
										<rect x="69.4" y="152.8" class="st2" width="1.8" height="1.8"/>
										<rect x="71.3" y="152.8" class="st6" width="1.8" height="1.8"/>
										<rect x="73.1" y="152.8" class="st2" width="1.8" height="1.8"/>
										<rect x="74.9" y="152.8" class="st6" width="1.8" height="1.8"/>
										<rect x="76.7" y="152.8" class="st2" width="1.8" height="1.8"/>
										<rect x="78.6" y="152.8" class="st6" width="1.8" height="1.8"/>
										<rect x="80.4" y="152.8" class="st2" width="1.8" height="1.8"/>
										<rect x="82.2" y="152.8" class="st6" width="1.8" height="1.8"/>
										<rect x="69.4" y="154.6" class="st6" width="1.8" height="1.8"/>
										<rect x="71.3" y="154.6" class="st2" width="1.8" height="1.8"/>
										<rect x="73.1" y="154.6" class="st6" width="1.8" height="1.8"/>
										<rect x="74.9" y="154.6" class="st2" width="1.8" height="1.8"/>
										<rect x="76.7" y="154.6" class="st6" width="1.8" height="1.8"/>
										<rect x="78.6" y="154.6" class="st2" width="1.8" height="1.8"/>
										<rect x="80.4" y="154.6" class="st6" width="1.8" height="1.8"/>
										<rect x="82.2" y="154.6" class="st2" width="1.8" height="1.8"/>
										<rect x="69.4" y="156.4" class="st2" width="1.8" height="1.8"/>
										<rect x="71.3" y="156.4" class="st6" width="1.8" height="1.8"/>
										<rect x="73.1" y="156.4" class="st2" width="1.8" height="1.8"/>
										<rect x="74.9" y="156.4" class="st6" width="1.8" height="1.8"/>
										<rect x="76.7" y="156.4" class="st2" width="1.8" height="1.8"/>
										<rect x="78.6" y="156.4" class="st6" width="1.8" height="1.8"/>
										<rect x="80.4" y="156.4" class="st2" width="1.8" height="1.8"/>
										<rect x="82.2" y="156.4" class="st6" width="1.8" height="1.8"/>
										<rect x="69.4" y="158.3" class="st6" width="1.8" height="1.8"/>
										<rect x="71.3" y="158.3" class="st2" width="1.8" height="1.8"/>
										<rect x="73.1" y="158.3" class="st6" width="1.8" height="1.8"/>
										<rect x="74.9" y="158.3" class="st2" width="1.8" height="1.8"/>
										<rect x="76.7" y="158.3" class="st6" width="1.8" height="1.8"/>
										<rect x="78.6" y="158.3" class="st2" width="1.8" height="1.8"/>
										<rect x="80.4" y="158.3" class="st6" width="1.8" height="1.8"/>
										<rect x="82.2" y="158.3" class="st2" width="1.8" height="1.8"/>
										<rect x="69.4" y="160.1" class="st2" width="1.8" height="1.8"/>
										<rect x="71.3" y="160.1" class="st6" width="1.8" height="1.8"/>
										<rect x="73.1" y="160.1" class="st2" width="1.8" height="1.8"/>
										<rect x="74.9" y="160.1" class="st6" width="1.8" height="1.8"/>
										<rect x="76.7" y="160.1" class="st2" width="1.8" height="1.8"/>
										<rect x="78.6" y="160.1" class="st6" width="1.8" height="1.8"/>
										<rect x="80.4" y="160.1" class="st2" width="1.8" height="1.8"/>
										<rect x="82.2" y="160.1" class="st6" width="1.8" height="1.8"/>
										<rect x="69.4" y="161.9" class="st6" width="1.8" height="1.8"/>
										<rect x="71.3" y="161.9" class="st2" width="1.8" height="1.8"/>
										<rect x="73.1" y="161.9" class="st6" width="1.8" height="1.8"/>
										<rect x="74.9" y="161.9" class="st2" width="1.8" height="1.8"/>
										<rect x="76.7" y="161.9" class="st6" width="1.8" height="1.8"/>
										<rect x="78.6" y="161.9" class="st2" width="1.8" height="1.8"/>
										<rect x="80.4" y="161.9" class="st6" width="1.8" height="1.8"/>
										<rect x="82.2" y="161.9" class="st2" width="1.8" height="1.8"/>
										<rect x="69.4" y="163.7" class="st2" width="1.8" height="1.8"/>
										<rect x="71.3" y="163.7" class="st6" width="1.8" height="1.8"/>
										<rect x="73.1" y="163.7" class="st2" width="1.8" height="1.8"/>
										<rect x="74.9" y="163.7" class="st6" width="1.8" height="1.8"/>
										<rect x="76.7" y="163.7" class="st2" width="1.8" height="1.8"/>
										<rect x="78.6" y="163.7" class="st6" width="1.8" height="1.8"/>
										<rect x="80.4" y="163.7" class="st2" width="1.8" height="1.8"/>
										<rect x="82.2" y="163.7" class="st6" width="1.8" height="1.8"/>
										<rect x="69.4" y="165.6" class="st6" width="1.8" height="1.8"/>
										<rect x="71.3" y="165.6" class="st2" width="1.8" height="1.8"/>
										<rect x="73.1" y="165.6" class="st6" width="1.8" height="1.8"/>
										<rect x="74.9" y="165.6" class="st2" width="1.8" height="1.8"/>
										<rect x="76.7" y="165.6" class="st6" width="1.8" height="1.8"/>
										<rect x="78.6" y="165.6" class="st2" width="1.8" height="1.8"/>
										<rect x="80.4" y="165.6" class="st6" width="1.8" height="1.8"/>
										<rect x="82.2" y="165.6" class="st2" width="1.8" height="1.8"/>
									</g>
								</g>
							</g>
						</g>
					</g>
					<g>
						<circle id="SVGID_1_" class="st7" cx="77.6" cy="159.2" r="3.5"/>
					</g>
				</g>
			</g>
		</g>
		<g>
			<path class="st1" d="M63.1,99.2h-6.2c-1.6,0-2.8-1.3-2.8-2.8v-4.2c0-1.6,1.3-2.8,2.8-2.8h6.2c1.6,0,2.8,1.3,2.8,2.8v4.2
				C66,97.9,64.7,99.2,63.1,99.2z"/>
			<g>
				<path class="st2" d="M57.9,91.5h1v0.9h-1V91.5z M58,92.8h0.9v3.5H58V92.8z"/>
				<path class="st2" d="M62.7,95.5l-0.2,0.8h-2.8v-0.8h1.1v-2.7l-1.1,0.5v-0.8l1.4-0.6h0.7v3.6H62.7z"/>
			</g>
			<path class="st1" d="M62.3,98c0.3,0,0.5,0.2,0.5,0.5l4.1,15.2c0,0.3-0.2,0.5-0.5,0.5c-0.3,0-0.5-0.2-0.5-0.5l-4-15.1
				C61.8,98.2,62,98,62.3,98z"/>
		</g>
		<g>
			<path class="st1" d="M53.6,86.1C53.6,86.1,53.5,86.1,53.6,86.1c-0.4,0.1-0.6-0.1-0.7-0.4l-0.4-15.6c-0.1-0.3,0.1-0.6,0.4-0.6
				c0.3-0.1,0.5,0.1,0.6,0.4L54,85.7C54,85.9,53.9,86.1,53.6,86.1z"/>
			<path class="st1" d="M55.3,72.8h-6.2c-1.6,0-2.8-1.3-2.8-2.8v-4.2c0-1.6,1.3-2.8,2.8-2.8h6.2c1.6,0,2.8,1.3,2.8,2.8V70
				C58.2,71.5,56.9,72.8,55.3,72.8z"/>
			<g>
				<path class="st2" d="M50.2,65.1h1V66h-1V65.1z M50.2,66.4h0.9v3.5h-0.9V66.4z"/>
				<path class="st2" d="M51.8,69.1c0-0.7,0.3-1.1,0.9-1.4l0.2-0.1c0.7-0.3,0.9-0.5,0.9-0.9c0-0.3-0.2-0.6-0.5-0.6
					c-0.4,0-0.6,0.3-0.6,0.8V67h-1v-0.1c0-1.1,0.5-1.6,1.6-1.6c0.9,0,1.5,0.5,1.5,1.4c0,0.7-0.3,1.1-1.1,1.5l-0.2,0.1
					c-0.6,0.2-0.8,0.4-0.8,0.8v0.1h2.1L54.7,70h-2.9C51.8,70,51.8,69.1,51.8,69.1z"/>
			</g>
		</g>
		<g>
			<path class="st1" d="M129,27.2c0,0.2-0.2,0.4-0.3,0.3l-15.4,4.8c-0.2,0.1-0.5,0-0.6-0.3c-0.1-0.2,0-0.5,0.3-0.6l15.4-4.8
				c0.2-0.1,0.5,0,0.6,0.3C129.1,27.1,129.1,27.1,129,27.2z"/>
			<path class="st1" d="M134.6,31.5h-6.2c-1.6,0-2.8-1.3-2.8-2.8v-4.2c0-1.6,1.3-2.8,2.8-2.8h6.2c1.6,0,2.8,1.3,2.8,2.8v4.2
				C137.4,30.3,136.2,31.5,134.6,31.5z"/>
			<g>
				<path class="st2" d="M129.4,23.9h1v0.9h-1V23.9z M129.5,25.2h0.9v3.5h-0.9V25.2z"/>
				<path class="st2" d="M131,27.3h1c0,0.4,0.2,0.7,0.6,0.7c0.4,0,0.6-0.2,0.6-0.6s-0.2-0.6-0.7-0.6h-0.4v-0.7h0.3
					c0.4,0,0.6-0.2,0.6-0.6c0-0.3-0.2-0.5-0.5-0.5c-0.4,0-0.6,0.2-0.6,0.7l0,0h-1l0,0c0-1,0.5-1.5,1.6-1.5c0.9,0,1.5,0.5,1.5,1.2
					c0,0.5-0.2,0.8-0.5,0.9c0.5,0.2,0.7,0.5,0.7,1c0,0.8-0.6,1.4-1.6,1.4C131.5,28.8,131,28.2,131,27.3z"/>
			</g>
		</g>
	</g>
	<g>
		<path class="st0" d="M9.4,155.4v-0.6h1.1v-3.1h0l-1,0.3l-0.1-0.6l1.3-0.4h0.7v3.9h1v0.6H9.4z"/>
		<path class="st0" d="M3.1,133.1v-0.8c0-0.9,0.3-1.3,1-1.6l0.5-0.1c0.4-0.1,0.6-0.3,0.6-0.8v0c0-0.5-0.3-0.7-0.8-0.7
			c-0.4,0-0.8,0.1-1.1,0.3l-0.2-0.6c0.3-0.2,0.8-0.3,1.4-0.3c0.9,0,1.5,0.4,1.5,1.3v0.1c0,0.8-0.3,1.1-0.9,1.3l-0.5,0.2
			c-0.5,0.1-0.7,0.4-0.7,0.8v0.3h2.1v0.6H3.1z"/>
		<path class="st0" d="M99,119.6l0.1-0.6c0.3,0.1,0.7,0.2,1.2,0.2c0.6,0,0.8-0.2,0.8-0.7v-0.1c0-0.5-0.3-0.7-0.9-0.7h-0.5v-0.6h0.4
			c0.6,0,0.9-0.2,0.9-0.7v0c0-0.4-0.3-0.6-0.7-0.6c-0.4,0-0.8,0.1-1.1,0.3l-0.2-0.6c0.3-0.2,0.8-0.3,1.4-0.3c0.8,0,1.4,0.3,1.4,1.1
			v0.1c0,0.5-0.2,0.9-0.7,1v0c0.5,0.1,0.8,0.4,0.8,1.1v0.1c0,0.9-0.5,1.3-1.6,1.3C99.8,119.8,99.3,119.7,99,119.6z"/>
		<path class="st0" d="M88.3,96.3v-0.9h-2.2v-0.5l1.6-3.1h0.8L87,94.7h1.3v-1.3h0.8v1.3h0.5v0.7h-0.5v0.9H88.3z"/>
		<path class="st0" d="M3.1,121.3L3.1,121.3c0,1.1-0.6,1.5-1.6,1.5c-0.6,0-1.1-0.1-1.5-0.4l0.2-0.6c0.4,0.2,0.8,0.3,1.2,0.3
			c0.6,0,0.8-0.2,0.8-0.8v-0.1c0-0.6-0.3-0.8-0.9-0.8c-0.3,0-0.7,0-1,0.1l-0.2-0.2l0.2-2.2h2.4v0.6H1L1,119.9c0.2,0,0.4,0,0.5,0
			C2.6,119.9,3.1,120.3,3.1,121.3z"/>
		<path class="st0" d="M17.3,78.4L17.3,78.4c0,1.1-0.5,1.5-1.5,1.5c-1.2,0-1.6-0.6-1.6-2.1v-0.3c0-1.8,0.7-2.3,1.8-2.3
			c0.5,0,0.8,0.1,1.1,0.2L17,76.1C16.7,76,16.4,76,16,76c-0.7,0-1,0.3-1,1.2c0.3,0,0.6-0.1,0.9-0.1C16.9,77.1,17.3,77.5,17.3,78.4z
			 M16.5,78.5c0-0.6-0.2-0.8-0.7-0.8c-0.3,0-0.6,0-0.8,0.1v0.1c0,1.1,0.1,1.5,0.8,1.5C16.4,79.4,16.5,79.1,16.5,78.5L16.5,78.5z"/>
		<path class="st0" d="M73.6,85.6l1.9-3.9h-2.2v-0.6h3.1v0.5l-1.9,4H73.6z"/>
		<path class="st0" d="M73.9,52.6L73.9,52.6c0,0.9-0.5,1.3-1.6,1.3c-1.1,0-1.6-0.4-1.6-1.3v0c0-0.5,0.2-0.9,0.7-1.1
			c-0.4-0.2-0.5-0.5-0.5-1v0c0-0.8,0.5-1.2,1.5-1.2c0.9,0,1.5,0.4,1.5,1.2v0.1c0,0.5-0.2,0.8-0.5,1C73.7,51.7,73.9,52.1,73.9,52.6z
			 M73.1,52.6c0-0.5-0.2-0.7-0.8-0.7h-0.1c-0.5,0-0.8,0.2-0.8,0.7v0c0,0.5,0.2,0.7,0.8,0.7C72.9,53.3,73.1,53.1,73.1,52.6L73.1,52.6
			z M71.6,50.6c0,0.4,0.2,0.7,0.7,0.7h0.1c0.5,0,0.7-0.2,0.7-0.7v0c0-0.4-0.2-0.6-0.7-0.6C71.9,49.9,71.6,50.1,71.6,50.6L71.6,50.6z
			"/>
		<path class="st0" d="M119.2,78.9v0.6c0,1.5-0.4,2.2-1.7,2.2c-0.5,0-0.9-0.1-1.2-0.2l0.1-0.6c0.3,0.1,0.7,0.2,1,0.2
			c0.6,0,0.9-0.3,0.9-1.1c-0.2,0-0.5,0.1-0.8,0.1c-1.1,0-1.5-0.4-1.5-1.4v-0.1c0-1,0.6-1.5,1.6-1.5C118.7,77,119.2,77.5,119.2,78.9z
			 M116.9,78.6c0,0.6,0.2,0.8,0.8,0.8c0.3,0,0.6,0,0.8-0.1v-0.3c0-1-0.1-1.4-0.8-1.4C117.1,77.7,116.9,77.9,116.9,78.6L116.9,78.6z"
			/>
		<g>
			<path class="st0" d="M105.2,5.6V4.9h1.1V1.8h0l-1,0.3l-0.1-0.6l1.3-0.4h0.7v3.9h1v0.6H105.2z"/>
			<path class="st0" d="M109.2,5.3c-0.3-0.3-0.5-0.8-0.5-1.9V3.2c0-1,0.1-1.5,0.4-1.8c0.3-0.3,0.6-0.4,1.2-0.4c0.6,0,1,0.1,1.2,0.4
				c0.3,0.3,0.4,0.8,0.4,1.8v0.2c0,1.1-0.1,1.5-0.4,1.8c-0.3,0.3-0.7,0.4-1.2,0.4C109.8,5.6,109.4,5.5,109.2,5.3z M110.9,4.8
				c0.2-0.2,0.2-0.6,0.2-1.4V3.3c0-0.8,0-1.2-0.2-1.4c-0.1-0.2-0.3-0.2-0.6-0.2c-0.3,0-0.5,0.1-0.6,0.2c-0.2,0.2-0.2,0.6-0.2,1.4
				v0.1c0,0.8,0,1.2,0.2,1.4c0.1,0.1,0.3,0.2,0.6,0.2C110.6,5,110.8,4.9,110.9,4.8z"/>
		</g>
		<g>
			<path class="st0" d="M143.1,130.5v-0.6h1.1v-3.1h0l-1,0.3l-0.1-0.6l1.3-0.4h0.7v3.9h1v0.6H143.1z"/>
			<path class="st0" d="M146.8,130.5v-0.6h1.1v-3.1h0l-1,0.3l-0.1-0.6l1.3-0.4h0.7v3.9h1v0.6H146.8z"/>
		</g>
		<g>
			<path class="st0" d="M112.9,133.1v-0.6h1.1v-3.1h0l-1,0.3l-0.1-0.6l1.3-0.4h0.7v3.9h1v0.6H112.9z"/>
			<path class="st0" d="M116.5,133.1v-0.8c0-0.9,0.3-1.3,1-1.6l0.5-0.1c0.4-0.1,0.6-0.3,0.6-0.8v0c0-0.5-0.3-0.7-0.8-0.7
				c-0.4,0-0.8,0.1-1.1,0.3l-0.2-0.6c0.3-0.2,0.8-0.3,1.4-0.3c0.9,0,1.5,0.4,1.5,1.3v0.1c0,0.8-0.3,1.1-0.9,1.3l-0.5,0.2
				c-0.5,0.1-0.7,0.4-0.7,0.8v0.3h2.1v0.6H116.5z"/>
		</g>
		<g>
			<path class="st0" d="M87.9,135.1v-0.6H89v-3.1h0l-1,0.3l-0.1-0.6l1.3-0.4h0.7v3.9h1v0.6H87.9z"/>
			<path class="st0" d="M91.5,134.9l0.1-0.6c0.3,0.1,0.7,0.2,1.2,0.2c0.6,0,0.8-0.2,0.8-0.7v-0.1c0-0.5-0.3-0.7-0.9-0.7h-0.5v-0.6
				h0.4c0.6,0,0.9-0.2,0.9-0.7v0c0-0.4-0.3-0.6-0.7-0.6c-0.4,0-0.8,0.1-1.1,0.3l-0.2-0.6c0.3-0.2,0.8-0.3,1.4-0.3
				c0.8,0,1.4,0.3,1.4,1.1v0.1c0,0.5-0.2,0.9-0.7,1v0c0.5,0.1,0.8,0.4,0.8,1.1v0.1c0,0.9-0.5,1.3-1.6,1.3
				C92.3,135.2,91.8,135.1,91.5,134.9z"/>
		</g>
		<g>
			<path class="st0" d="M102.5,151.6V151h1.1v-3.1h0l-1,0.3l-0.1-0.6l1.3-0.4h0.7v3.9h1v0.6H102.5z"/>
			<path class="st0" d="M108,151.6v-0.9h-2.2v-0.5l1.6-3.1h0.8l-1.5,2.9h1.3v-1.3h0.8v1.3h0.5v0.7h-0.5v0.9H108z"/>
		</g>
	</g>
</g>
</svg>
