<?xml version="1.0" encoding="UTF-8" standalone="no"?>
<!-- Created with Inkscape (http://www.inkscape.org/) -->
<svg
   xmlns:dc="http://purl.org/dc/elements/1.1/"
   xmlns:cc="http://web.resource.org/cc/"
   xmlns:rdf="http://www.w3.org/1999/02/22-rdf-syntax-ns#"
   xmlns:svg="http://www.w3.org/2000/svg"
   xmlns="http://www.w3.org/2000/svg"
   xmlns:sodipodi="http://sodipodi.sourceforge.net/DTD/sodipodi-0.dtd"
   xmlns:inkscape="http://www.inkscape.org/namespaces/inkscape"
   width="834"
   height="551"
   id="svg2"
   sodipodi:version="0.32"
   inkscape:version="0.45"
   version="1.0"
   sodipodi:docbase="E:\Imachens\Wiki\Motorland"
   sodipodi:docname="Motorland FIM.svg"
   inkscape:output_extension="org.inkscape.output.svg.inkscape"
   sodipodi:modified="true">
  <defs
     id="defs4" />
  <sodipodi:namedview
     id="base"
     pagecolor="#ffffff"
     bordercolor="#666666"
     borderopacity="1.0"
     inkscape:pageopacity="0.0"
     inkscape:pageshadow="2"
     inkscape:zoom="0.49497475"
     inkscape:cx="750.33627"
     inkscape:cy="116.03083"
     inkscape:document-units="px"
     inkscape:current-layer="layer1"
     inkscape:window-width="1024"
     inkscape:window-height="742"
     inkscape:window-x="0"
     inkscape:window-y="0"
     width="834px"
     height="551px" />
  <metadata
     id="metadata7">
    <rdf:RDF>
      <cc:Work
         rdf:about="">
        <dc:format>image/svg+xml</dc:format>
        <dc:type
           rdf:resource="http://purl.org/dc/dcmitype/StillImage" />
      </cc:Work>
    </rdf:RDF>
  </metadata>
  <g
     inkscape:label="Capa 1"
     inkscape:groupmode="layer"
     id="layer1"
     transform="translate(-30.142849,-115.6479)">
    <g
       id="g2364">
      <path
         sodipodi:nodetypes="cccccc"
         id="path9172"
         d="M 306.89703,425.19851 L 358.3256,467.34137 C 364.72799,473.61172 357.43845,479.55395 350.8256,473.58626 L 338.68274,463.58626 C 336.85357,462.20115 335.71726,461.6384 332.55004,461.59134 L 305.8256,462.51483"
         style="fill:none;fill-rule:evenodd;stroke:#dcdcdc;stroke-width:7;stroke-linecap:butt;stroke-linejoin:miter;stroke-miterlimit:4;stroke-dasharray:none;stroke-opacity:1" />
      <path
         sodipodi:nodetypes="ccc"
         id="path8198"
         d="M 370.05919,361.67321 C 374.44514,386.28247 377.32334,402.04197 357.33041,407.64199 C 338.98765,411.72773 293.74342,421.33559 277.12515,405.10976"
         style="fill:none;fill-rule:evenodd;stroke:#dcdcdc;stroke-width:10;stroke-linecap:butt;stroke-linejoin:miter;stroke-miterlimit:4;stroke-dasharray:none;stroke-opacity:1" />
      <path
         sodipodi:nodetypes="cccccccccccccccccccccsccccc"
         id="path7225"
         d="M 791.53996,527.87246 L 559.3971,350.01532 C 542.71313,340.94548 534.86057,375.00616 511.9857,394.50365 C 479.85811,428.26641 447.38163,401.83019 393.29277,386.92751 C 373.02346,378.37434 371.30706,366.85817 367.53388,352.07724 L 351.37144,265.7092 C 349.25676,252.37568 343.89057,243.50964 334.70393,236.41478 L 301.36889,214.19142 C 293.58465,208.1985 278.52169,212.5482 275.10493,226.31325 L 267.02371,270.75996 C 265.8452,277.13304 263.15145,283.0502 258.94248,289.95286 C 247.73624,308.39027 228.56297,327.61751 196.18282,344.30104 C 175.32085,353.06938 170.21443,344.40174 166.18282,327.15818 L 141.18282,202.15818 C 139.38527,191.08423 144.16855,182.23298 152.37139,178.33101 L 166.00845,172.27009 C 176.58647,166.93397 174.52335,157.04979 163.48307,147.01628 C 127.37324,116.30367 57.503435,126.88777 54.386595,180.85639 C 58.883945,282.81646 102.60483,384.01195 184.75425,434.30104 C 230.71184,462.18946 259.12111,466.21649 301.89711,480.72961 L 839.03997,652.15818 C 845.84838,654.80049 850.23749,653.74909 851.48074,651.05224 C 853.30041,647.10504 850.87639,642.35862 844.03997,639.30104 L 822.61139,627.15818 C 815.9898,622.99729 814.66778,616.71658 812.61139,610.72961 L 803.32568,547.15818 C 801.95327,540.72961 799.50674,534.30103 791.53996,527.87246 z "
         style="fill:none;fill-rule:evenodd;stroke:#dcdcdc;stroke-width:10;stroke-linecap:butt;stroke-linejoin:miter;stroke-miterlimit:4;stroke-dasharray:none;stroke-opacity:1" />
      <path
         sodipodi:nodetypes="ccccc"
         id="path8200"
         d="M 652.96846,592.87198 C 637.62707,579.4631 618.53425,558.55423 608.73002,554.43107 L 559.42869,537.92891 C 555.25891,536.70459 551.2339,538.1346 549.75417,542.15769 L 542.96845,561.08626"
         style="fill:none;fill-rule:evenodd;stroke:#dcdcdc;stroke-width:10;stroke-linecap:butt;stroke-linejoin:miter;stroke-miterlimit:4;stroke-dasharray:none;stroke-opacity:1" />
      <path
         sodipodi:nodetypes="cccccccc"
         id="path13051"
         d="M 422.58712,396.27093 C 414.59505,394.28606 408.90288,394.8986 403.57377,409.65282 L 393.97732,443.49292 C 392.06234,458.8287 399.99312,460.71226 408.95006,463.95115 L 450.87139,476.32552 C 460.13572,480.05018 463.19865,485.93156 463.24576,493.75065 L 463.24576,514.71131 C 461.77518,532.75768 470.20606,533.99061 475.11505,535.92452"
         style="fill:none;fill-rule:evenodd;stroke:#dcdcdc;stroke-width:10;stroke-linecap:butt;stroke-linejoin:miter;stroke-miterlimit:4;stroke-dasharray:none;stroke-opacity:1" />
      <path
         sodipodi:nodetypes="ccsccccccccccccccccccccccccccc"
         id="path2366"
         d="M 310.12913,483.35639 L 731.33783,617.78469 C 756.48106,624.91857 779.81086,622.35171 793.18737,603.59398 C 800.78058,592.94612 809.38674,574.94851 803.3256,547.15769 C 801.95319,540.72912 797.27714,532.5761 787.96845,524.30054 L 559.39702,350.01483 C 542.71305,340.94499 534.86049,375.00567 511.98562,394.50316 C 479.85803,428.26592 447.38155,401.8297 393.29269,386.92702 C 373.02338,378.37385 371.30698,366.85768 367.5338,352.07675 L 351.37136,265.70871 C 349.25668,252.37519 343.89049,243.50915 334.70385,236.41429 L 301.36881,214.19093 C 293.58457,208.19801 278.52161,212.54771 275.10485,226.31276 L 267.02363,270.75947 C 265.84512,277.13255 263.15137,283.04971 258.9424,289.95237 C 247.73616,308.38978 228.56289,327.61702 196.18274,344.30055 C 175.32077,353.06889 170.21435,344.40125 166.18274,327.15769 L 141.18274,202.15769 C 139.38519,191.08374 144.16847,182.23249 152.37131,178.33052 L 166.00837,172.2696 C 176.58639,166.93348 174.52327,157.0493 163.48299,147.01579 C 127.37316,116.30318 57.503355,126.88728 54.38651,180.8559 C 57.98211,262.37215 86.648882,343.39969 139.98059,398.31479 C 147.55826,406.17666 152.53427,405.4202 160.95761,402.58438 L 200.35356,381.37118 C 222.6231,370.6007 239.34356,376.58757 251.36626,385.91686 L 300.35866,422.28236 C 309.40705,429.52179 315.95542,435.33264 311.97541,444.00064 L 303.38912,467.23414 C 302.52041,472.83075 298.37921,478.66111 310.12913,483.35639 z "
         style="fill:none;fill-rule:evenodd;stroke:#fffa69;stroke-width:10;stroke-linecap:butt;stroke-linejoin:miter;stroke-miterlimit:4;stroke-dasharray:none;stroke-opacity:1" />
      <path
         sodipodi:nodetypes="ccccc"
         id="path4306"
         d="M 515.80022,394.74434 L 544.72879,368.67292 C 550.83036,364.93122 553.58146,360.70452 564.72879,370.10149 L 707.58593,477.95863 C 721.28315,487.67048 739.95945,497.27305 765.11131,510.01484"
         style="fill:none;fill-rule:evenodd;stroke:#fffa69;stroke-width:4;stroke-linecap:butt;stroke-linejoin:miter;stroke-miterlimit:4;stroke-dasharray:none;stroke-opacity:1" />
      <path
         transform="matrix(0.6783964,0,0,0.7537739,206.86269,187.51272)"
         d="M 516.44048 213.32161 A 3.7880721 3.4092648 0 1 1  508.86433,213.32161 A 3.7880721 3.4092648 0 1 1  516.44048 213.32161 z"
         sodipodi:ry="3.4092648"
         sodipodi:rx="3.7880721"
         sodipodi:cy="213.32161"
         sodipodi:cx="512.6524"
         id="path7218"
         style="fill:#ffffff;fill-opacity:1;fill-rule:evenodd;stroke:#ffffff;stroke-width:4;stroke-linecap:round;stroke-miterlimit:4;stroke-dasharray:none;stroke-dashoffset:0;stroke-opacity:1"
         sodipodi:type="arc" />
      <path
         transform="matrix(0.6783964,0,0,0.7537739,142.48579,247.84904)"
         d="M 516.44048 213.32161 A 3.7880721 3.4092648 0 1 1  508.86433,213.32161 A 3.7880721 3.4092648 0 1 1  516.44048 213.32161 z"
         sodipodi:ry="3.4092648"
         sodipodi:rx="3.7880721"
         sodipodi:cy="213.32161"
         sodipodi:cx="512.6524"
         id="path7220"
         style="fill:#ffffff;fill-opacity:1;fill-rule:evenodd;stroke:#ffffff;stroke-width:4;stroke-linecap:round;stroke-miterlimit:4;stroke-dasharray:none;stroke-dashoffset:0;stroke-opacity:1"
         sodipodi:type="arc" />
      <path
         transform="matrix(0.6783964,0,0,0.7537739,30.186907,216.00429)"
         d="M 516.44048 213.32161 A 3.7880721 3.4092648 0 1 1  508.86433,213.32161 A 3.7880721 3.4092648 0 1 1  516.44048 213.32161 z"
         sodipodi:ry="3.4092648"
         sodipodi:rx="3.7880721"
         sodipodi:cy="213.32161"
         sodipodi:cx="512.6524"
         id="path13071"
         style="fill:#ffffff;fill-opacity:1;fill-rule:evenodd;stroke:#ffffff;stroke-width:4;stroke-linecap:round;stroke-miterlimit:4;stroke-dasharray:none;stroke-dashoffset:0;stroke-opacity:1"
         sodipodi:type="arc" />
      <path
         transform="matrix(0.6783964,0,0,0.7537739,-2.670236,87.075711)"
         d="M 516.44048 213.32161 A 3.7880721 3.4092648 0 1 1  508.86433,213.32161 A 3.7880721 3.4092648 0 1 1  516.44048 213.32161 z"
         sodipodi:ry="3.4092648"
         sodipodi:rx="3.7880721"
         sodipodi:cy="213.32161"
         sodipodi:cx="512.6524"
         id="path13073"
         style="fill:#ffffff;fill-opacity:1;fill-rule:evenodd;stroke:#ffffff;stroke-width:4;stroke-linecap:round;stroke-miterlimit:4;stroke-dasharray:none;stroke-dashoffset:0;stroke-opacity:1"
         sodipodi:type="arc" />
      <path
         transform="matrix(0.6783964,0,0,0.7537739,-61.241664,52.075714)"
         d="M 516.44048 213.32161 A 3.7880721 3.4092648 0 1 1  508.86433,213.32161 A 3.7880721 3.4092648 0 1 1  516.44048 213.32161 z"
         sodipodi:ry="3.4092648"
         sodipodi:rx="3.7880721"
         sodipodi:cy="213.32161"
         sodipodi:cx="512.6524"
         id="path13075"
         style="fill:#ffffff;fill-opacity:1;fill-rule:evenodd;stroke:#ffffff;stroke-width:4;stroke-linecap:round;stroke-miterlimit:4;stroke-dasharray:none;stroke-dashoffset:0;stroke-opacity:1"
         sodipodi:type="arc" />
      <path
         transform="matrix(0.6783964,0,0,0.7537739,-81.598805,113.14714)"
         d="M 516.44048 213.32161 A 3.7880721 3.4092648 0 1 1  508.86433,213.32161 A 3.7880721 3.4092648 0 1 1  516.44048 213.32161 z"
         sodipodi:ry="3.4092648"
         sodipodi:rx="3.7880721"
         sodipodi:cy="213.32161"
         sodipodi:cx="512.6524"
         id="path13077"
         style="fill:#ffffff;fill-opacity:1;fill-rule:evenodd;stroke:#ffffff;stroke-width:4;stroke-linecap:round;stroke-miterlimit:4;stroke-dasharray:none;stroke-dashoffset:0;stroke-opacity:1"
         sodipodi:type="arc" />
      <path
         transform="matrix(0.6783964,0,0,0.7537739,-168.74167,186.36143)"
         d="M 516.44048 213.32161 A 3.7880721 3.4092648 0 1 1  508.86433,213.32161 A 3.7880721 3.4092648 0 1 1  516.44048 213.32161 z"
         sodipodi:ry="3.4092648"
         sodipodi:rx="3.7880721"
         sodipodi:cy="213.32161"
         sodipodi:cx="512.6524"
         id="path13079"
         style="fill:#ffffff;fill-opacity:1;fill-rule:evenodd;stroke:#ffffff;stroke-width:4;stroke-linecap:round;stroke-miterlimit:4;stroke-dasharray:none;stroke-dashoffset:0;stroke-opacity:1"
         sodipodi:type="arc" />
      <path
         transform="matrix(0.6783964,0,0,0.7537739,-204.09881,25.290003)"
         d="M 516.44048 213.32161 A 3.7880721 3.4092648 0 1 1  508.86433,213.32161 A 3.7880721 3.4092648 0 1 1  516.44048 213.32161 z"
         sodipodi:ry="3.4092648"
         sodipodi:rx="3.7880721"
         sodipodi:cy="213.32161"
         sodipodi:cx="512.6524"
         id="path13081"
         style="fill:#ffffff;fill-opacity:1;fill-rule:evenodd;stroke:#ffffff;stroke-width:4;stroke-linecap:round;stroke-miterlimit:4;stroke-dasharray:none;stroke-dashoffset:0;stroke-opacity:1"
         sodipodi:type="arc" />
      <path
         transform="matrix(0.6783964,0,0,0.7537739,-175.17024,0.6471434)"
         d="M 516.44048 213.32161 A 3.7880721 3.4092648 0 1 1  508.86433,213.32161 A 3.7880721 3.4092648 0 1 1  516.44048 213.32161 z"
         sodipodi:ry="3.4092648"
         sodipodi:rx="3.7880721"
         sodipodi:cy="213.32161"
         sodipodi:cx="512.6524"
         id="path13083"
         style="fill:#ffffff;fill-opacity:1;fill-rule:evenodd;stroke:#ffffff;stroke-width:4;stroke-linecap:round;stroke-miterlimit:4;stroke-dasharray:none;stroke-dashoffset:0;stroke-opacity:1"
         sodipodi:type="arc" />
      <path
         transform="matrix(0.6783964,0,0,0.7537739,-256.24166,-27.21)"
         d="M 516.44048 213.32161 A 3.7880721 3.4092648 0 1 1  508.86433,213.32161 A 3.7880721 3.4092648 0 1 1  516.44048 213.32161 z"
         sodipodi:ry="3.4092648"
         sodipodi:rx="3.7880721"
         sodipodi:cy="213.32161"
         sodipodi:cx="512.6524"
         id="path13085"
         style="fill:#ffffff;fill-opacity:1;fill-rule:evenodd;stroke:#ffffff;stroke-width:4;stroke-linecap:round;stroke-miterlimit:4;stroke-dasharray:none;stroke-dashoffset:0;stroke-opacity:1"
         sodipodi:type="arc" />
      <path
         transform="matrix(0.6783964,0,0,0.7537739,-195.52738,243.14714)"
         d="M 516.44048 213.32161 A 3.7880721 3.4092648 0 1 1  508.86433,213.32161 A 3.7880721 3.4092648 0 1 1  516.44048 213.32161 z"
         sodipodi:ry="3.4092648"
         sodipodi:rx="3.7880721"
         sodipodi:cy="213.32161"
         sodipodi:cx="512.6524"
         id="path13087"
         style="fill:#ffffff;fill-opacity:1;fill-rule:evenodd;stroke:#ffffff;stroke-width:4;stroke-linecap:round;stroke-miterlimit:4;stroke-dasharray:none;stroke-dashoffset:0;stroke-opacity:1"
         sodipodi:type="arc" />
      <path
         transform="matrix(0.6783964,0,0,0.7537739,-124.45594,214.57572)"
         d="M 516.44048 213.32161 A 3.7880721 3.4092648 0 1 1  508.86433,213.32161 A 3.7880721 3.4092648 0 1 1  516.44048 213.32161 z"
         sodipodi:ry="3.4092648"
         sodipodi:rx="3.7880721"
         sodipodi:cy="213.32161"
         sodipodi:cx="512.6524"
         id="path13089"
         style="fill:#ffffff;fill-opacity:1;fill-rule:evenodd;stroke:#ffffff;stroke-width:4;stroke-linecap:round;stroke-miterlimit:4;stroke-dasharray:none;stroke-dashoffset:0;stroke-opacity:1"
         sodipodi:type="arc" />
      <path
         transform="matrix(0.6783964,0,0,0.7537739,-35.170236,274.93286)"
         d="M 516.44048 213.32161 A 3.7880721 3.4092648 0 1 1  508.86433,213.32161 A 3.7880721 3.4092648 0 1 1  516.44048 213.32161 z"
         sodipodi:ry="3.4092648"
         sodipodi:rx="3.7880721"
         sodipodi:cy="213.32161"
         sodipodi:cx="512.6524"
         id="path13091"
         style="fill:#ffffff;fill-opacity:1;fill-rule:evenodd;stroke:#ffffff;stroke-width:4;stroke-linecap:round;stroke-miterlimit:4;stroke-dasharray:none;stroke-dashoffset:0;stroke-opacity:1"
         sodipodi:type="arc" />
      <path
         transform="matrix(0.6783964,0,0,0.7537739,-43.741664,318.86143)"
         d="M 516.44048 213.32161 A 3.7880721 3.4092648 0 1 1  508.86433,213.32161 A 3.7880721 3.4092648 0 1 1  516.44048 213.32161 z"
         sodipodi:ry="3.4092648"
         sodipodi:rx="3.7880721"
         sodipodi:cy="213.32161"
         sodipodi:cx="512.6524"
         id="path13093"
         style="fill:#ffffff;fill-opacity:1;fill-rule:evenodd;stroke:#ffffff;stroke-width:4;stroke-linecap:round;stroke-miterlimit:4;stroke-dasharray:none;stroke-dashoffset:0;stroke-opacity:1"
         sodipodi:type="arc" />
      <path
         transform="matrix(-7.3999666e-2,8.6359219e-2,-0.1978954,-0.1553165,828.4803,498.2093)"
         d="M 266.68026,492.50253 L 218.79968,413.07022 L 311.53037,411.32058 L 266.68026,492.50253 z "
         inkscape:randomized="0"
         inkscape:rounded="0"
         inkscape:flatsided="true"
         sodipodi:arg2="2.5991282"
         sodipodi:arg1="1.5519306"
         sodipodi:r2="20.680725"
         sodipodi:r1="53.547615"
         sodipodi:cy="438.96445"
         sodipodi:cx="265.6701"
         sodipodi:sides="3"
         id="path13102"
         style="fill:#ff0000;fill-opacity:1;fill-rule:evenodd;stroke:#ff0000;stroke-width:7;stroke-linecap:round;stroke-miterlimit:4;stroke-dasharray:none;stroke-dashoffset:0;stroke-opacity:1"
         sodipodi:type="star" />
      <path
         transform="matrix(3.7768859e-2,-0.1072724,0.2406642,7.3256743e-2,367.765,554.67432)"
         d="M 266.68026,492.50253 L 218.79968,413.07022 L 311.53037,411.32058 L 266.68026,492.50253 z "
         inkscape:randomized="0"
         inkscape:rounded="0"
         inkscape:flatsided="true"
         sodipodi:arg2="2.5991282"
         sodipodi:arg1="1.5519306"
         sodipodi:r2="20.680725"
         sodipodi:r1="53.547615"
         sodipodi:cy="438.96445"
         sodipodi:cx="265.6701"
         sodipodi:sides="3"
         id="path13106"
         style="fill:#ff0000;fill-opacity:1;fill-rule:evenodd;stroke:#ff0000;stroke-width:7;stroke-linecap:round;stroke-miterlimit:4;stroke-dasharray:none;stroke-dashoffset:0;stroke-opacity:1"
         sodipodi:type="star" />
      <path
         transform="matrix(0.7212063,0,0,0.7867705,197.45474,193.31638)"
         d="M 506.42856 168.42857 A 17.142857 15.714286 0 1 1  472.14285,168.42857 A 17.142857 15.714286 0 1 1  506.42856 168.42857 z"
         sodipodi:ry="15.714286"
         sodipodi:rx="17.142857"
         sodipodi:cy="168.42857"
         sodipodi:cx="489.28571"
         id="path2208"
         style="fill:#ffffff;fill-opacity:1;fill-rule:evenodd;stroke:#fffa69;stroke-width:1.32753575;stroke-linecap:round;stroke-miterlimit:4;stroke-dasharray:none;stroke-dashoffset:0;stroke-opacity:1"
         sodipodi:type="arc" />

      <path
         transform="matrix(0.7212063,0,0,0.7867705,42.437057,228.6535)"
         d="M 506.42856 168.42857 A 17.142857 15.714286 0 1 1  472.14285,168.42857 A 17.142857 15.714286 0 1 1  506.42856 168.42857 z"
         sodipodi:ry="15.714286"
         sodipodi:rx="17.142857"
         sodipodi:cy="168.42857"
         sodipodi:cx="489.28571"
         id="path3191"
         style="fill:#ffffff;fill-opacity:1;fill-rule:evenodd;stroke:#fffa69;stroke-width:1.32753575;stroke-linecap:round;stroke-miterlimit:4;stroke-dasharray:none;stroke-dashoffset:0;stroke-opacity:1"
         sodipodi:type="arc" />



      <path
         id="text3223"
         d="M 161.11819,198.30822 C 160.43849,198.0594 159.93478,197.70438 159.60707,197.24315 C 159.27936,196.78193 159.1155,196.22968 159.1155,195.58638 C 159.1155,194.61539 159.46446,193.79915 160.16236,193.13764 C 160.86027,192.47616 161.78878,192.14542 162.94792,192.1454 C 164.11311,192.14542 165.05073,192.48375 165.76078,193.1604 C 166.47082,193.83708 166.82584,194.66091 166.82585,195.6319 C 166.82584,196.25092 166.6635,196.78952 166.33883,197.2477 C 166.01414,197.7059 165.52106,198.0594 164.85957,198.30822 C 165.67885,198.57525 166.30241,199.00613 166.73026,199.60086 C 167.1581,200.1956 167.37202,200.90564 167.37203,201.73099 C 167.37202,202.87192 166.96845,203.83078 166.16132,204.60758 C 165.35417,205.38437 164.29214,205.77277 162.97523,205.77277 C 161.6583,205.77277 160.59628,205.38286 159.78913,204.60302 C 158.98199,203.82319 158.57842,202.85068 158.57842,201.68547 C 158.57842,200.81765 158.79841,200.09092 159.2384,199.50528 C 159.67838,198.91965 160.30498,198.52063 161.11819,198.30822 L 161.11819,198.30822 z M 160.79048,195.53176 C 160.79047,196.16292 160.99378,196.67877 161.40039,197.07929 C 161.80699,197.47984 162.33497,197.68011 162.98433,197.6801 C 163.61547,197.68011 164.13283,197.48136 164.53641,197.08385 C 164.93998,196.68635 165.14176,196.19934 165.14177,195.6228 C 165.14176,195.022 164.93391,194.51678 164.51821,194.10713 C 164.10249,193.6975 163.58513,193.49268 162.96612,193.49267 C 162.34104,193.49268 161.82216,193.69295 161.40949,194.09347 C 160.99681,194.49402 160.79047,194.97345 160.79048,195.53176 L 160.79048,195.53176 z M 160.2625,201.69458 C 160.26249,202.16187 160.37325,202.61399 160.59476,203.05094 C 160.81627,203.48789 161.1455,203.82623 161.58245,204.06594 C 162.01939,204.30566 162.48972,204.42551 162.99343,204.42551 C 163.7763,204.42551 164.42262,204.17366 164.9324,203.66995 C 165.44216,203.16625 165.69705,202.526 165.69706,201.7492 C 165.69705,200.96026 165.43458,200.30787 164.90964,199.79202 C 164.38469,199.27619 163.72775,199.01827 162.93881,199.01826 C 162.16808,199.01827 161.52934,199.27315 161.02261,199.78292 C 160.51586,200.2927 160.26249,200.92992 160.2625,201.69458 L 160.2625,201.69458 z "
         style="font-size:18.64319038px;font-style:normal;font-weight:normal;writing-mode:lr-tb;fill:#fffa69;fill-opacity:1;stroke:none;stroke-width:1px;stroke-linecap:butt;stroke-linejoin:miter;stroke-opacity:1;font-family:Arial" />
      <path
         transform="matrix(0.7212063,0,0,0.7867705,-158.58329,25.612833)"
         d="M 506.42856 168.42857 A 17.142857 15.714286 0 1 1  472.14285,168.42857 A 17.142857 15.714286 0 1 1  506.42856 168.42857 z"
         sodipodi:ry="15.714286"
         sodipodi:rx="17.142857"
         sodipodi:cy="168.42857"
         sodipodi:cx="489.28571"
         id="path3227"
         style="fill:#ffffff;fill-opacity:1;fill-rule:evenodd;stroke:#fffa69;stroke-width:1.32753575;stroke-linecap:round;stroke-miterlimit:4;stroke-dasharray:none;stroke-dashoffset:0;stroke-opacity:1"
         sodipodi:type="arc" />
      <path
         id="text3229"
         d="M 189.65206,161.54808 L 191.2269,161.40243 C 191.36041,162.14282 191.61529,162.6799 191.99156,163.01368 C 192.36782,163.34746 192.85028,163.51435 193.43895,163.51435 C 193.94266,163.51435 194.38416,163.39904 194.76346,163.16843 C 195.14275,162.93782 195.45377,162.62983 195.69653,162.24446 C 195.93927,161.8591 196.14257,161.33871 196.30644,160.68328 C 196.47029,160.02786 196.55221,159.3603 196.55222,158.68059 C 196.55221,158.60777 196.54918,158.49854 196.54312,158.35288 C 196.2154,158.8748 195.76783,159.29809 195.20041,159.62277 C 194.63297,159.94745 194.01851,160.10979 193.35703,160.10978 C 192.25251,160.10979 191.31793,159.70925 190.55327,158.90817 C 189.7886,158.1071 189.40627,157.05114 189.40627,155.74028 C 189.40627,154.38696 189.80529,153.29763 190.60333,152.47226 C 191.40137,151.64693 192.4012,151.23425 193.60281,151.23424 C 194.47064,151.23425 195.26412,151.4679 195.98328,151.93518 C 196.70242,152.40249 197.2486,153.06853 197.62184,153.93332 C 197.99506,154.79812 198.18167,156.0498 198.18168,157.68835 C 198.18167,159.39368 197.99657,160.75156 197.62639,161.762 C 197.25619,162.77245 196.70545,163.54166 195.97417,164.06964 C 195.24288,164.59762 194.38567,164.86161 193.40254,164.86161 C 192.35871,164.86161 191.50606,164.57183 190.84457,163.99226 C 190.18307,163.4127 189.78557,162.59797 189.65206,161.54808 L 189.65206,161.54808 z M 196.36106,155.65836 C 196.36105,154.71771 196.11071,153.97126 195.61005,153.41899 C 195.10937,152.86674 194.50705,152.59062 193.80308,152.59061 C 193.07483,152.59062 192.44064,152.88799 191.90053,153.48271 C 191.36041,154.07746 191.09035,154.84819 191.09035,155.7949 C 191.09035,156.64454 191.34675,157.33486 191.85956,157.86586 C 192.37237,158.39688 193.00504,158.66239 193.75756,158.66239 C 194.51615,158.66239 195.13971,158.39688 195.62826,157.86586 C 196.11678,157.33486 196.36105,156.59902 196.36106,155.65836 L 196.36106,155.65836 z "
         style="font-size:18.64319038px;font-style:normal;font-weight:normal;writing-mode:lr-tb;fill:#fffa69;fill-opacity:1;stroke:none;stroke-width:1px;stroke-linecap:butt;stroke-linejoin:miter;stroke-opacity:1;font-family:Arial" />
      <path
         transform="matrix(0.7212063,0,0,0.7867705,-254.54779,21.067147)"
         d="M 506.42856 168.42857 A 17.142857 15.714286 0 1 1  472.14285,168.42857 A 17.142857 15.714286 0 1 1  506.42856 168.42857 z"
         sodipodi:ry="15.714286"
         sodipodi:rx="17.142857"
         sodipodi:cy="168.42857"
         sodipodi:cx="489.28571"
         id="path3233"
         style="fill:#ffffff;fill-opacity:1;fill-rule:evenodd;stroke:#fffa69;stroke-width:1.32753575;stroke-linecap:round;stroke-miterlimit:4;stroke-dasharray:none;stroke-dashoffset:0;stroke-opacity:1"
         sodipodi:type="arc" />
      <path
         id="text3235"
         d="M 94.413279,160.08835 L 92.774717,160.08835 L 92.774717,149.64707 C 92.380244,150.02334 91.862883,150.3996 91.222635,150.77586 C 90.582379,151.15213 90.007366,151.43432 89.497594,151.62245 L 89.497594,150.0385 C 90.413972,149.60763 91.215045,149.08572 91.900818,148.47277 C 92.586581,147.85984 93.07208,147.2651 93.357317,146.68856 L 94.413279,146.68856 L 94.413279,160.08835 z M 98.61892,153.50679 C 98.618919,151.92893 98.781258,150.65904 99.105937,149.69714 C 99.430613,148.73525 99.913078,147.99335 100.55333,147.47142 C 101.19358,146.94952 101.99921,146.68857 102.97021,146.68856 C 103.68632,146.68857 104.31443,146.8327 104.85456,147.12095 C 105.39467,147.40923 105.84072,147.82494 106.19272,148.36808 C 106.54469,148.91125 106.82082,149.57274 107.0211,150.35256 C 107.22136,151.1324 107.32149,152.18381 107.3215,153.50679 C 107.32149,155.07253 107.16067,156.33635 106.83904,157.29824 C 106.51739,158.26014 106.03644,159.00356 105.39619,159.52851 C 104.75593,160.05345 103.94727,160.31593 102.97021,160.31593 C 101.68363,160.31593 100.67319,159.8547 99.938872,158.93225 C 99.058903,157.82167 98.618919,156.01319 98.61892,153.50679 L 98.61892,153.50679 z M 100.303,153.50679 C 100.30299,155.69761 100.5594,157.15563 101.07221,157.88084 C 101.58502,158.60606 102.21768,158.96867 102.97021,158.96866 C 103.72273,158.96867 104.3554,158.60454 104.86821,157.87629 C 105.38101,157.14804 105.63742,155.69155 105.63743,153.50679 C 105.63742,151.30991 105.38101,149.85038 104.86821,149.12819 C 104.3554,148.40602 103.71666,148.04493 102.95201,148.04492 C 102.19948,148.04493 101.59867,148.36354 101.14959,149.00075 C 100.58519,149.81397 100.30299,151.31598 100.303,153.50679 L 100.303,153.50679 z "
         style="font-size:18.64319038px;font-style:normal;font-weight:normal;writing-mode:lr-tb;fill:#fffa69;fill-opacity:1;stroke:none;stroke-width:1px;stroke-linecap:butt;stroke-linejoin:miter;stroke-opacity:1;font-family:Arial" />
      <path
         transform="matrix(0.7212063,0,0,0.7867705,-210.60615,295.32356)"
         d="M 506.42856 168.42857 A 17.142857 15.714286 0 1 1  472.14285,168.42857 A 17.142857 15.714286 0 1 1  506.42856 168.42857 z"
         sodipodi:ry="15.714286"
         sodipodi:rx="17.142857"
         sodipodi:cy="168.42857"
         sodipodi:cx="489.28571"
         id="path3239"
         style="fill:#ffffff;fill-opacity:1;fill-rule:evenodd;stroke:#fffa69;stroke-width:1.32753575;stroke-linecap:round;stroke-miterlimit:4;stroke-dasharray:none;stroke-dashoffset:0;stroke-opacity:1"
         sodipodi:type="arc" />
      <path
         id="text3241"
         d="M 138.15529,434.34476 L 136.51673,434.34476 L 136.51673,423.90348 C 136.12226,424.27975 135.6049,424.65601 134.96465,425.03227 C 134.32439,425.40854 133.74938,425.69073 133.23961,425.87886 L 133.23961,424.29491 C 134.15598,423.86404 134.95706,423.34213 135.64283,422.72918 C 136.32859,422.11624 136.81409,421.52151 137.09933,420.94496 L 138.15529,420.94496 L 138.15529,434.34476 z M 150.97248,432.76992 L 150.97248,434.34476 L 142.15156,434.34476 C 142.13942,433.95029 142.20314,433.57099 142.34273,433.20687 C 142.56727,432.60606 142.92684,432.01436 143.42145,431.43176 C 143.91605,430.84916 144.63064,430.17553 145.56523,429.41087 C 147.01566,428.2214 147.99576,427.27923 148.50554,426.58435 C 149.01531,425.88948 149.27019,425.23254 149.2702,424.61352 C 149.27019,423.96418 149.03806,423.41647 148.57381,422.97041 C 148.10955,422.52437 147.50419,422.30134 146.75774,422.30133 C 145.9688,422.30134 145.33765,422.53802 144.86429,423.01137 C 144.39093,423.48475 144.15121,424.14017 144.14514,424.97765 L 142.46107,424.80469 C 142.57637,423.54847 143.01029,422.59112 143.76281,421.93265 C 144.51533,421.27421 145.52578,420.94498 146.79415,420.94496 C 148.07465,420.94498 149.08813,421.3 149.83459,422.01003 C 150.58104,422.72008 150.95427,423.60005 150.95428,424.64993 C 150.95427,425.18399 150.84503,425.70894 150.62657,426.22477 C 150.40808,426.74062 150.04547,427.28378 149.53874,427.85423 C 149.03199,428.4247 148.18996,429.20757 147.01263,430.20284 C 146.02949,431.02819 145.39834,431.58803 145.11918,431.88236 C 144.84001,432.1767 144.6094,432.47255 144.42734,432.76992 L 150.97248,432.76992 z "
         style="font-size:18.64319038px;font-style:normal;font-weight:normal;writing-mode:lr-tb;fill:#fffa69;fill-opacity:1;stroke:none;stroke-width:1px;stroke-linecap:butt;stroke-linejoin:miter;stroke-opacity:1;font-family:Arial" />
      <path
         transform="matrix(0.7212063,0,0,0.7867705,-131.30918,265.01899)"
         d="M 506.42856 168.42857 A 17.142857 15.714286 0 1 1  472.14285,168.42857 A 17.142857 15.714286 0 1 1  506.42856 168.42857 z"
         sodipodi:ry="15.714286"
         sodipodi:rx="17.142857"
         sodipodi:cy="168.42857"
         sodipodi:cx="489.28571"
         id="path3245"
         style="fill:#ffffff;fill-opacity:1;fill-rule:evenodd;stroke:#fffa69;stroke-width:1.32753575;stroke-linecap:round;stroke-miterlimit:4;stroke-dasharray:none;stroke-dashoffset:0;stroke-opacity:1"
         sodipodi:type="arc" />
      <path
         id="text3247"
         d="M 217.55228,404.04016 L 215.91372,404.04016 L 215.91372,393.59888 C 215.51924,393.97515 215.00188,394.35142 214.36164,394.72767 C 213.72138,395.10394 213.14637,395.38614 212.63659,395.57426 L 212.63659,393.99032 C 213.55297,393.55945 214.35405,393.03753 215.03982,392.42458 C 215.72558,391.81165 216.21108,391.21691 216.49632,390.64037 L 217.55228,390.64037 L 217.55228,404.04016 z M 221.76702,400.51725 L 223.40558,400.29878 C 223.59371,401.2273 223.91384,401.89638 224.36596,402.30602 C 224.81808,402.71566 225.36882,402.92048 226.01818,402.92048 C 226.78891,402.92048 227.43978,402.65345 227.9708,402.1194 C 228.50181,401.58536 228.76731,400.92386 228.76732,400.13492 C 228.76731,399.3824 228.52153,398.76187 228.02997,398.27333 C 227.53839,397.78481 226.91331,397.54054 226.15473,397.54053 C 225.84522,397.54054 225.45985,397.60123 224.99863,397.7226 L 225.18069,396.2843 C 225.28993,396.29645 225.37792,396.30252 225.44468,396.30251 C 226.14258,396.30252 226.7707,396.12045 227.32903,395.75632 C 227.88735,395.39221 228.16651,394.83085 228.16652,394.07224 C 228.16651,393.47145 227.96321,392.97381 227.55661,392.57933 C 227.15,392.18488 226.62505,391.98764 225.98177,391.98763 C 225.34454,391.98764 224.81353,392.18791 224.38872,392.58844 C 223.96391,392.98898 223.69081,393.58979 223.56944,394.39085 L 221.93088,394.09955 C 222.13115,393.00112 222.5863,392.14998 223.29635,391.54613 C 224.00639,390.9423 224.88939,390.64038 225.94536,390.64037 C 226.6736,390.64038 227.3442,390.79665 227.95714,391.10918 C 228.57008,391.42173 229.03889,391.84806 229.36358,392.38817 C 229.68825,392.9283 229.85059,393.50179 229.85059,394.10866 C 229.85059,394.6852 229.69583,395.21014 229.38633,395.6835 C 229.07682,396.15687 228.61863,396.53313 228.01176,396.81228 C 228.80069,396.99435 229.41364,397.37213 229.85059,397.94562 C 230.28753,398.51912 230.50601,399.23675 230.50602,400.09851 C 230.50601,401.26371 230.0812,402.2514 229.23158,403.06158 C 228.38195,403.87175 227.30778,404.27684 226.00908,404.27684 C 224.83781,404.27684 223.86529,403.92789 223.09153,403.22998 C 222.31776,402.53208 221.87626,401.62784 221.76702,400.51725 L 221.76702,400.51725 z "
         style="font-size:18.64319038px;font-style:normal;font-weight:normal;writing-mode:lr-tb;fill:#fffa69;fill-opacity:1;stroke:none;stroke-width:1px;stroke-linecap:butt;stroke-linejoin:miter;stroke-opacity:1;font-family:Arial" />
      <path
         transform="matrix(0.7212063,0,0,0.7867705,-18.677171,296.83879)"
         d="M 506.42856 168.42857 A 17.142857 15.714286 0 1 1  472.14285,168.42857 A 17.142857 15.714286 0 1 1  506.42856 168.42857 z"
         sodipodi:ry="15.714286"
         sodipodi:rx="17.142857"
         sodipodi:cy="168.42857"
         sodipodi:cx="489.28571"
         id="path3251"
         style="fill:#ffffff;fill-opacity:1;fill-rule:evenodd;stroke:#fffa69;stroke-width:1.32753575;stroke-linecap:round;stroke-miterlimit:4;stroke-dasharray:none;stroke-dashoffset:0;stroke-opacity:1"
         sodipodi:type="arc" />
      <path
         id="text3253"
         d="M 329.78427,435.85999 L 328.14571,435.85999 L 328.14571,425.41871 C 327.75124,425.79498 327.23388,426.17124 326.59363,426.54749 C 325.95337,426.92376 325.37836,427.20596 324.86859,427.39408 L 324.86859,425.81014 C 325.78497,425.37927 326.58604,424.85736 327.27181,424.2444 C 327.95758,423.63147 328.44307,423.03674 328.72831,422.46019 L 329.78427,422.46019 L 329.78427,435.85999 z M 339.24241,435.85999 L 339.24241,432.66479 L 333.45283,432.66479 L 333.45283,431.16278 L 339.54282,422.51481 L 340.88098,422.51481 L 340.88098,431.16278 L 342.68339,431.16278 L 342.68339,432.66479 L 340.88098,432.66479 L 340.88098,435.85999 L 339.24241,435.85999 z M 339.24241,431.16278 L 339.24241,425.14561 L 335.06408,431.16278 L 339.24241,431.16278 z "
         style="font-size:18.64319038px;font-style:normal;font-weight:normal;writing-mode:lr-tb;fill:#fffa69;fill-opacity:1;stroke:none;stroke-width:1px;stroke-linecap:butt;stroke-linejoin:miter;stroke-opacity:1;font-family:Arial" />
      <path
         transform="matrix(0.7212063,0,0,0.7867705,-60.093423,367.04439)"
         d="M 506.42856 168.42857 A 17.142857 15.714286 0 1 1  472.14285,168.42857 A 17.142857 15.714286 0 1 1  506.42856 168.42857 z"
         sodipodi:ry="15.714286"
         sodipodi:rx="17.142857"
         sodipodi:cy="168.42857"
         sodipodi:cx="489.28571"
         id="path3257"
         style="fill:#ffffff;fill-opacity:1;fill-rule:evenodd;stroke:#fffa69;stroke-width:1.32753575;stroke-linecap:round;stroke-miterlimit:4;stroke-dasharray:none;stroke-dashoffset:0;stroke-opacity:1"
         sodipodi:type="arc" />
      <path
         id="text3259"
         d="M 288.56827,506.06555 L 286.92971,506.06555 L 286.92971,495.62427 C 286.53523,496.00055 286.01787,496.37681 285.37763,496.75306 C 284.73737,497.12933 284.16236,497.41153 283.65258,497.59965 L 283.65258,496.01571 C 284.56896,495.58484 285.37004,495.06292 286.05581,494.44997 C 286.74157,493.83704 287.22707,493.2423 287.51231,492.66576 L 288.56827,492.66576 L 288.56827,506.06555 z M 292.77391,502.56995 L 294.4944,502.4243 C 294.62184,503.26179 294.91769,503.89143 295.38196,504.3132 C 295.84621,504.73498 296.40605,504.94587 297.06148,504.94587 C 297.85041,504.94587 298.51797,504.6485 299.06417,504.05376 C 299.61035,503.45903 299.88344,502.67009 299.88345,501.68695 C 299.88344,500.75237 299.62097,500.01502 299.09603,499.47489 C 298.57108,498.93478 297.88379,498.66472 297.03417,498.66471 C 296.50619,498.66472 296.02979,498.78458 295.60498,499.02429 C 295.18017,499.26401 294.84639,499.57503 294.60364,499.95736 L 293.06521,499.75709 L 294.35785,492.90244 L 300.99403,492.90244 L 300.99403,494.46818 L 295.6687,494.46818 L 294.94956,498.05481 C 295.75063,497.49649 296.59115,497.21733 297.47112,497.21732 C 298.63631,497.21733 299.61945,497.6209 300.42053,498.42803 C 301.2216,499.23518 301.62213,500.27294 301.62214,501.5413 C 301.62213,502.74898 301.27015,503.79281 300.56618,504.67277 C 299.71048,505.75301 298.54225,506.29313 297.06148,506.29313 C 295.84773,506.29313 294.85701,505.95328 294.08931,505.27358 C 293.32161,504.59388 292.88315,503.69267 292.77391,502.56995 L 292.77391,502.56995 z "
         style="font-size:18.64319038px;font-style:normal;font-weight:normal;writing-mode:lr-tb;fill:#fffa69;fill-opacity:1;stroke:none;stroke-width:1px;stroke-linecap:butt;stroke-linejoin:miter;stroke-opacity:1;font-family:Arial" />
      <path
         transform="matrix(0.7212063,0,0,0.7867705,422.25442,450.38198)"
         d="M 506.42856 168.42857 A 17.142857 15.714286 0 1 1  472.14285,168.42857 A 17.142857 15.714286 0 1 1  506.42856 168.42857 z"
         sodipodi:ry="15.714286"
         sodipodi:rx="17.142857"
         sodipodi:cy="168.42857"
         sodipodi:cx="489.28571"
         id="path3263"
         style="fill:#ffffff;fill-opacity:1;fill-rule:evenodd;stroke:#fffa69;stroke-width:1.32753575;stroke-linecap:round;stroke-miterlimit:4;stroke-dasharray:none;stroke-dashoffset:0;stroke-opacity:1"
         sodipodi:type="arc" />
      <path
         id="text3265"
         d="M 771.21594,589.4032 L 769.57738,589.4032 L 769.57738,578.96192 C 769.18291,579.33819 768.66555,579.71445 768.0253,580.09071 C 767.38504,580.46698 766.81003,580.74917 766.30026,580.9373 L 766.30026,579.35335 C 767.21664,578.92248 768.01771,578.40057 768.70348,577.78762 C 769.38925,577.17469 769.87475,576.57995 770.15998,576.00341 L 771.21594,576.00341 L 771.21594,589.4032 z M 783.9239,579.32604 L 782.29444,579.45349 C 782.14878,578.81021 781.94245,578.34292 781.67543,578.05161 C 781.2324,577.58433 780.68622,577.35068 780.03687,577.35067 C 779.51495,577.35068 779.05676,577.49633 778.6623,577.78762 C 778.14645,578.16389 777.73984,578.71311 777.44248,579.43528 C 777.14511,580.15747 776.99035,581.18612 776.97822,582.52124 C 777.37269,581.92044 777.85515,581.47439 778.42562,581.18308 C 778.99607,580.89179 779.59384,580.74614 780.21893,580.74613 C 781.3113,580.74614 782.24133,581.14819 783.00904,581.95229 C 783.77672,582.75641 784.16057,583.79568 784.16058,585.07011 C 784.16057,585.9076 783.98003,586.68592 783.61895,587.40506 C 783.25785,588.12421 782.76173,588.67495 782.13059,589.05728 C 781.49943,589.43961 780.78332,589.63078 779.98225,589.63078 C 778.61678,589.63078 777.50316,589.12859 776.6414,588.12421 C 775.77964,587.11983 775.34876,585.46459 775.34876,583.15846 C 775.34876,580.57925 775.82516,578.70401 776.77795,577.53273 C 777.60937,576.51319 778.72905,576.00342 780.137,576.00341 C 781.18689,576.00342 782.04713,576.29775 782.71774,576.88641 C 783.38832,577.47509 783.79038,578.2883 783.9239,579.32604 L 783.9239,579.32604 z M 777.23311,585.07922 C 777.2331,585.64361 777.35296,586.18373 777.59268,586.69957 C 777.83239,587.21542 778.16769,587.60837 778.59857,587.87843 C 779.02945,588.14849 779.48157,588.28352 779.95494,588.28351 C 780.64677,588.28352 781.24151,588.00435 781.73915,587.44603 C 782.23678,586.88771 782.4856,586.12911 782.48561,585.17025 C 782.4856,584.2478 782.23982,583.52107 781.74825,582.99005 C 781.25668,582.45904 780.63767,582.19353 779.89122,582.19353 C 779.15083,582.19353 778.52271,582.45904 778.00687,582.99005 C 777.49103,583.52107 777.2331,584.21746 777.23311,585.07922 L 777.23311,585.07922 z "
         style="font-size:18.64319038px;font-style:normal;font-weight:normal;writing-mode:lr-tb;fill:#fffa69;fill-opacity:1;stroke:none;stroke-width:1px;stroke-linecap:butt;stroke-linejoin:miter;stroke-opacity:1;font-family:Arial" />
      <path
         transform="matrix(0.6783964,0,0,0.7537739,-276.59881,117.11904)"
         d="M 516.44048 213.32161 A 3.7880721 3.4092648 0 1 1  508.86433,213.32161 A 3.7880721 3.4092648 0 1 1  516.44048 213.32161 z"
         sodipodi:ry="3.4092648"
         sodipodi:rx="3.7880721"
         sodipodi:cy="213.32161"
         sodipodi:cx="512.6524"
         id="path3281"
         style="fill:#ffffff;fill-opacity:1;fill-rule:evenodd;stroke:#ffffff;stroke-width:4;stroke-linecap:round;stroke-miterlimit:4;stroke-dasharray:none;stroke-dashoffset:0;stroke-opacity:1"
         sodipodi:type="arc" />
      <path
         transform="matrix(0.7212063,0,0,0.7867705,-301.51988,154.91236)"
         d="M 506.42856 168.42857 A 17.142857 15.714286 0 1 1  472.14285,168.42857 A 17.142857 15.714286 0 1 1  506.42856 168.42857 z"
         sodipodi:ry="15.714286"
         sodipodi:rx="17.142857"
         sodipodi:cy="168.42857"
         sodipodi:cx="489.28571"
         id="path3283"
         style="fill:#ffffff;fill-opacity:1;fill-rule:evenodd;stroke:#fffa69;stroke-width:1.32753575;stroke-linecap:round;stroke-miterlimit:4;stroke-dasharray:none;stroke-dashoffset:0;stroke-opacity:1"
         sodipodi:type="arc" />
      <path
         id="text3285"
         d="M 47.741549,293.93356 L 46.102987,293.93356 L 46.102987,283.49228 C 45.708514,283.86856 45.191153,284.24482 44.550905,284.62107 C 43.910649,284.99734 43.335636,285.27954 42.825864,285.46766 L 42.825864,283.88372 C 43.742242,283.45285 44.543315,282.93094 45.229088,282.31798 C 45.914851,281.70505 46.40035,281.11031 46.685587,280.53377 L 47.741549,280.53377 L 47.741549,293.93356 z M 58.119106,293.93356 L 56.480544,293.93356 L 56.480544,283.49228 C 56.08607,283.86856 55.56871,284.24482 54.928462,284.62107 C 54.288206,284.99734 53.713193,285.27954 53.203421,285.46766 L 53.203421,283.88372 C 54.119798,283.45285 54.920872,282.93094 55.606644,282.31798 C 56.292408,281.70505 56.777907,281.11031 57.063144,280.53377 L 58.119106,280.53377 L 58.119106,293.93356 z "
         style="font-size:18.64319038px;font-style:normal;font-weight:normal;writing-mode:lr-tb;fill:#fffa69;fill-opacity:1;stroke:none;stroke-width:1px;stroke-linecap:butt;stroke-linejoin:miter;stroke-opacity:1;font-family:Arial" />
      <path
         transform="matrix(0.6783964,0,0,0.7537739,449.82977,435.29)"
         d="M 516.44048 213.32161 A 3.7880721 3.4092648 0 1 1  508.86433,213.32161 A 3.7880721 3.4092648 0 1 1  516.44048 213.32161 z"
         sodipodi:ry="3.4092648"
         sodipodi:rx="3.7880721"
         sodipodi:cy="213.32161"
         sodipodi:cx="512.6524"
         id="path2262"
         style="fill:#ffffff;fill-opacity:1;fill-rule:evenodd;stroke:#ffffff;stroke-width:4;stroke-linecap:round;stroke-miterlimit:4;stroke-dasharray:none;stroke-dashoffset:0;stroke-opacity:1"
         sodipodi:type="arc" />
    </g>
  </g>
</svg>
