<?xml version="1.0" encoding="UTF-8" standalone="no"?>
<!-- Created with Inkscape (http://www.inkscape.org/) -->

<svg
   width="834"
   height="551"
   id="svg2"
   sodipodi:version="0.32"
   inkscape:version="1.4.3 (fcd0343856, 2026-01-01)"
   version="1.0"
   sodipodi:docname="Aragónv.svg"
   inkscape:output_extension="org.inkscape.output.svg.inkscape"
   sodipodi:modified="true"
   xmlns:inkscape="http://www.inkscape.org/namespaces/inkscape"
   xmlns:sodipodi="http://sodipodi.sourceforge.net/DTD/sodipodi-0.dtd"
   xmlns="http://www.w3.org/2000/svg"
   xmlns:svg="http://www.w3.org/2000/svg">
  <defs
     id="defs4" />
  <sodipodi:namedview
     id="base"
     pagecolor="#ffffff"
     bordercolor="#666666"
     borderopacity="1.0"
     inkscape:pageopacity="0.0"
     inkscape:pageshadow="2"
     inkscape:zoom="0.49497475"
     inkscape:cx="751.55349"
     inkscape:cy="189.90868"
     inkscape:document-units="px"
     inkscape:current-layer="g2364"
     inkscape:window-width="945"
     inkscape:window-height="883"
     inkscape:window-x="26"
     inkscape:window-y="23"
     width="834px"
     height="551px"
     inkscape:showpageshadow="2"
     inkscape:pagecheckerboard="0"
     inkscape:deskcolor="#d1d1d1"
     inkscape:window-maximized="0" />
  <g
     inkscape:label="Capa 1"
     inkscape:groupmode="layer"
     id="layer1"
     transform="translate(-30.142849,-115.6479)">
    <g
       id="g2364">
      <path
         sodipodi:nodetypes="ccsccccccccccccccccccccccccccc"
         id="path2366"
         d="m 310.12913,268.05757 421.2087,-134.4283 c 25.14323,-7.13388 48.47303,-4.56702 61.84954,14.19071 7.59321,10.64786 16.19937,28.64547 10.13823,56.43629 -1.37241,6.42857 -6.04846,14.58159 -15.35715,22.85715 L 559.39702,401.39913 c -16.68397,9.06984 -24.53653,-24.99084 -47.4114,-44.48833 -32.12759,-33.76276 -64.60407,-7.32654 -118.69293,7.57614 -20.26931,8.55317 -21.98571,20.06934 -25.75889,34.85027 l -16.16244,86.36804 c -2.11468,13.33352 -7.48087,22.19956 -16.66751,29.29442 l -33.33504,22.22336 c -7.78424,5.99292 -22.8472,1.64322 -26.26396,-12.12183 l -8.08122,-44.44671 c -1.17851,-6.37308 -3.87226,-12.29024 -8.08123,-19.1929 -11.20624,-18.43741 -30.37951,-37.66465 -62.75966,-54.34818 -20.86197,-8.76834 -25.96839,-0.1007 -30,17.14286 l -25,125 c -1.79755,11.07395 2.98573,19.9252 11.18857,23.82717 l 13.63706,6.06092 c 10.57802,5.33612 8.5149,15.2203 -2.52538,25.25381 -36.10983,30.71261 -105.979635,20.12851 -109.09648,-33.84011 3.5956,-81.51625 32.262372,-162.54379 85.59408,-217.45889 7.57767,-7.86187 12.55368,-7.10541 20.97702,-4.26959 l 39.39595,21.2132 c 22.26954,10.77048 38.99,4.78361 51.0127,-4.54568 l 48.9924,-36.3655 c 9.04839,-7.23943 15.59676,-13.05028 11.61675,-21.71828 l -8.58629,-23.2335 c -0.86871,-5.59661 -5.00991,-11.42697 6.74001,-16.12225 z"
         style="fill:none;fill-rule:evenodd;stroke:#fffa69;stroke-width:10;stroke-linecap:butt;stroke-linejoin:miter;stroke-miterlimit:4;stroke-dasharray:none;stroke-opacity:1" />
    </g>
  </g>
</svg>
