<?xml version="1.0" encoding="UTF-8" standalone="no"?>
<!-- Created with Inkscape (http://www.inkscape.org/) -->

<svg
   version="1.0"
   width="1331.9034"
   height="908.8739"
   id="svg2383"
   sodipodi:docname="Australia.svg"
   inkscape:version="1.4.3 (fcd0343856, 2026-01-01)"
   xmlns:inkscape="http://www.inkscape.org/namespaces/inkscape"
   xmlns:sodipodi="http://sodipodi.sourceforge.net/DTD/sodipodi-0.dtd"
   xmlns:xlink="http://www.w3.org/1999/xlink"
   xmlns="http://www.w3.org/2000/svg"
   xmlns:svg="http://www.w3.org/2000/svg"
   xmlns:rdf="http://www.w3.org/1999/02/22-rdf-syntax-ns#"
   xmlns:cc="http://creativecommons.org/ns#"
   xmlns:dc="http://purl.org/dc/elements/1.1/">
  <sodipodi:namedview
     id="namedview1"
     pagecolor="#ffffff"
     bordercolor="#000000"
     borderopacity="0.25"
     inkscape:showpageshadow="2"
     inkscape:pageopacity="0.0"
     inkscape:pagecheckerboard="0"
     inkscape:deskcolor="#d1d1d1"
     inkscape:zoom="0.75478017"
     inkscape:cx="665.75676"
     inkscape:cy="454.43695"
     inkscape:window-width="1210"
     inkscape:window-height="933"
     inkscape:window-x="0"
     inkscape:window-y="0"
     inkscape:window-maximized="1"
     inkscape:current-layer="layer1" />
  <defs
     id="defs2385">
    <clipPath
       id="clipPath3490">
      <rect
         width="1511.7875"
         height="1003.7479"
         x="683.1405"
         y="104.1039"
         transform="matrix(-0.7183395,0.6956928,-0.6956928,-0.7183395,0,0)"
         id="rect3492"
         style="fill:#006a00;fill-opacity:1;fill-rule:nonzero;stroke:none" />
    </clipPath>
    <pattern
       id="pattern4912"
       patternTransform="matrix(0.1737876,0,0,0.1737876,763.47719,1693.9071)"
       height="18.137641"
       width="18.181098"
       patternUnits="userSpaceOnUse">
      <g
         transform="translate(-1025.5348,-1215.2814)"
         id="g4907">
        <rect
           y="1215.2814"
           x="1025.5348"
           height="18.095789"
           width="18.172573"
           id="rect4899"
           style="opacity:1;fill:#fffa69;fill-opacity:1;stroke:none;stroke-width:0.5;stroke-linecap:round;stroke-linejoin:round;stroke-miterlimit:4;stroke-dasharray:none;stroke-dashoffset:0;stroke-opacity:1" />
        <rect
           y="1215.2814"
           x="1025.5348"
           height="9.0746527"
           width="9.0746527"
           id="rect4903"
           style="opacity:1;fill:#ffffff;fill-opacity:1;stroke:none;stroke-width:0.5;stroke-linecap:round;stroke-linejoin:round;stroke-miterlimit:4;stroke-dasharray:none;stroke-dashoffset:0;stroke-opacity:1" />
        <rect
           y="1224.3444"
           x="1034.6412"
           height="9.0746527"
           width="9.0746527"
           id="rect4905"
           style="opacity:1;fill:#ffffff;fill-opacity:1;stroke:none;stroke-width:0.5;stroke-linecap:round;stroke-linejoin:round;stroke-miterlimit:4;stroke-dasharray:none;stroke-dashoffset:0;stroke-opacity:1" />
      </g>
    </pattern>
    <pattern
       patternTransform="matrix(0.4562459,1.6264824e-8,-1.6264824e-8,0.4562459,-1778.2267,454.6431)"
       id="pattern4166"
       xlink:href="#pattern4912" />
    <clipPath
       id="clipPath9716">
      <path
         d="M 871.13547,932.36346 C 1314.8756,1345.252 1758.6155,1758.1404 2202.3556,2171.029 2375.7787,1984.6474 2549.2018,1798.266 2722.6249,1611.8845 2278.8848,1198.996 1835.1448,786.10758 1391.4047,373.21904 1217.9816,559.60052 1044.5586,745.98194 871.13547,932.36346 z"
         id="path9718"
         style="fill:#6a6a6a;fill-opacity:1;fill-rule:nonzero;stroke:#010101;stroke-width:0.9426257;stroke-linecap:round;stroke-linejoin:round;stroke-miterlimit:4;stroke-opacity:1;stroke-dasharray:none;stroke-dashoffset:0" />
    </clipPath>
    <clipPath
       id="clipPath3494">
      <rect
         width="2168.1926"
         height="1468.4177"
         x="-4232.8457"
         y="-2372.1296"
         transform="matrix(-0.9472965,-0.3203582,0.9519016,-0.3064038,0,0)"
         id="rect3496"
         style="fill:#006a00;fill-opacity:1;fill-rule:nonzero;stroke:none" />
    </clipPath>
  </defs>
  <metadata
     id="metadata2388">
    <rdf:RDF>
      <cc:Work
         rdf:about="">
        <dc:format>image/svg+xml</dc:format>
        <dc:type
           rdf:resource="http://purl.org/dc/dcmitype/StillImage" />
        <dc:title />
        <dc:date>8-8-2008</dc:date>
        <dc:creator>
          <cc:Agent>
            <dc:title>Will Pittenger</dc:title>
          </cc:Agent>
        </dc:creator>
        <dc:publisher>
          <cc:Agent>
            <dc:title>Will Pittenger</dc:title>
          </cc:Agent>
        </dc:publisher>
        <dc:subject>
          <rdf:Bag>
            <rdf:li>Australia</rdf:li>
            <rdf:li>Phillip Island</rdf:li>
            <rdf:li>Grand Prix</rdf:li>
            <rdf:li>roud course</rdf:li>
            <rdf:li>Super V8</rdf:li>
            <rdf:li>racing</rdf:li>
            <rdf:li>Gardner Straight</rdf:li>
            <rdf:li>Doohan Corner</rdf:li>
            <rdf:li>Southern Loop</rdf:li>
            <rdf:li>Miller Corner</rdf:li>
            <rdf:li>Siberia</rdf:li>
            <rdf:li>Lukey Heights</rdf:li>
          </rdf:Bag>
        </dc:subject>
        <dc:description>Created in Inkscape with daata from Google Earth</dc:description>
        <cc:license
           rdf:resource="http://creativecommons.org/licenses/by-sa/3.0/" />
      </cc:Work>
      <cc:License
         rdf:about="http://creativecommons.org/licenses/by-sa/3.0/">
        <cc:permits
           rdf:resource="http://creativecommons.org/ns#Reproduction" />
        <cc:permits
           rdf:resource="http://creativecommons.org/ns#Distribution" />
        <cc:requires
           rdf:resource="http://creativecommons.org/ns#Notice" />
        <cc:requires
           rdf:resource="http://creativecommons.org/ns#Attribution" />
        <cc:permits
           rdf:resource="http://creativecommons.org/ns#DerivativeWorks" />
        <cc:requires
           rdf:resource="http://creativecommons.org/ns#ShareAlike" />
      </cc:License>
    </rdf:RDF>
  </metadata>
  <g
     transform="translate(-1269.3965,-826.97145)"
     id="layer1">
    <use
       id="use3367"
       style="stroke:#ffffff;stroke-width:2;stroke-miterlimit:4;stroke-opacity:1;stroke-dasharray:none"
       x="0"
       y="0"
       width="744.09448"
       height="1052.3622"
       xlink:href="#text3339" />
    <use
       id="use3369"
       style="stroke:#ffffff;stroke-width:2;stroke-miterlimit:4;stroke-opacity:1;stroke-dasharray:none"
       x="0"
       y="0"
       width="744.09448"
       height="1052.3622"
       xlink:href="#text3345" />
    <use
       id="use3371"
       style="stroke:#ffffff;stroke-width:2;stroke-miterlimit:4;stroke-opacity:1;stroke-dasharray:none"
       x="0"
       y="0"
       width="744.09448"
       height="1052.3622"
       xlink:href="#text3351" />
    <use
       id="use3373"
       style="stroke:#ffffff;stroke-width:2;stroke-miterlimit:4;stroke-opacity:1;stroke-dasharray:none"
       x="0"
       y="0"
       width="744.09448"
       height="1052.3622"
       xlink:href="#text3355" />
    <use
       id="use3375"
       style="stroke:#ffffff;stroke-width:2;stroke-miterlimit:4;stroke-opacity:1;stroke-dasharray:none"
       x="0"
       y="0"
       width="744.09448"
       height="1052.3622"
       xlink:href="#text3361" />
    <path
       d="m 1798.3366,1391.6682 c 143.734,2.1482 288.6623,3.4259 432.347,5.4758 112.806,1.6093 155.6825,79.4301 176.2219,182.7891 5.5023,27.6153 4.3434,58.0929 15.3236,83.1854 13.9038,31.7738 40.674,57.3268 75.2496,63.205 38.8676,6.6079 71.7789,-19.8692 84.2676,-49.5301 13.1671,-31.2722 16.0217,-63.6198 0.5589,-91.6616 -48.4195,-87.8093 -95.1277,-167.0455 -148.0346,-251.1866 -7.6579,-12.1789 -21.6898,-27.9038 -33.1119,-36.6773 -13.7525,-10.5635 -31.0233,-20.7155 -46.7961,-27.6362 -19.9824,-8.7678 -39.028,-18.4001 -60.7433,-21.8954 -63.8586,-10.2789 -124.4862,-17.8727 -184.9736,-25.7258 -12.4699,-1.6189 -20.8709,-6.1739 -22.9932,-16.1441 -4.4381,-20.849 -0.8684,-29.7928 19.1615,-36.6619 29.5011,-10.1172 59.4451,-17.1122 90.8442,-20.5223 32.278,-3.5056 54.3039,-1.2615 87.8237,-3.2852 11.7226,-0.7077 26.8863,-14.8294 33.6631,-23.261 5.8991,-7.3395 8.5188,-21.2487 7.12,-31.1954 -1.8849,-13.4036 -6.0566,-24.236 -14.5048,-34.1971 -8.7376,-10.3025 -22.3018,-17.5333 -33.6614,-21.62 -48.4755,-17.4394 -92.1809,-40.40207 -142.8297,-45.15041 -54.4276,-5.1026 -112.9685,11.99231 -168.015,11.48731 -24.4904,-0.2247 -52.0255,-3.8972 -72.24,-17.2387 -52.7552,-34.81844 -93.2724,-85.81627 -145.025,-123.40497 -17.5687,-12.76039 -40.1803,-21.09036 -61.2946,-24.08 -20.1136,-2.84794 -43.7869,-0.98406 -62.389,6.56727 -18.2476,7.40745 -36.8224,22.0213 -48.16,38.30909 -14.5667,20.92676 -23.3626,48.01113 -29.5528,73.33455 -5.8498,23.93111 -3.7671,49.69446 -6.5672,74.42906 -1.578,13.9394 -1.4287,30.907 -8.4855,39.6746 -4.9832,6.1912 -20.448,7.4005 -28.1825,2.4616 -22.5479,-14.3981 -37.0711,-44.5245 -60.7466,-58.5544 -15.7282,-9.3204 -38.267,-8.5528 -56.3684,-6.2901 -14.0052,1.7507 -31.7368,10.5492 -41.0477,21.3444 -15.8636,18.3926 -25.5385,40.4043 -35.0239,63.753 -14.2297,35.0271 -22.0995,64.7629 -29.5449,101.5094 -3.8649,19.0753 -3.5739,47.0026 0.5464,65.9561 5.0009,23.004 13.668,42.5338 27.0912,61.2867 11.3865,15.9077 25.8114,29.9235 43.7756,38.5848 22.8988,11.0405 53.3611,24.5489 79.0875,25.1791 121.7214,2.9819 242.4154,5.5212 367.2099,7.3863 z"
       id="path3201"
       style="fill:none;stroke:#ffffff;stroke-width:17;stroke-linecap:butt;stroke-linejoin:round;stroke-miterlimit:4;stroke-opacity:1;stroke-dasharray:none" />
    <path
       d="m 1798.3366,1391.6682 c 143.734,2.1482 288.6623,3.4259 432.347,5.4758 112.806,1.6093 155.6825,79.4301 176.2219,182.7891 5.5023,27.6153 4.3434,58.0929 15.3236,83.1854 13.9038,31.7738 40.674,57.3268 75.2496,63.205 38.8676,6.6079 71.7789,-19.8692 84.2676,-49.5301 13.1671,-31.2722 16.0217,-63.6198 0.5589,-91.6616 -48.4195,-87.8093 -95.1277,-167.0455 -148.0346,-251.1866 -7.6579,-12.1789 -21.6898,-27.9038 -33.1119,-36.6773 -13.7525,-10.5635 -31.0233,-20.7155 -46.7961,-27.6362 -19.9824,-8.7678 -39.028,-18.4001 -60.7433,-21.8954 -63.8586,-10.2789 -124.4862,-17.8727 -184.9736,-25.7258 -12.4699,-1.6189 -20.8709,-6.1739 -22.9932,-16.1441 -4.4381,-20.849 -0.8684,-29.7928 19.1615,-36.6619 29.5011,-10.1172 59.4451,-17.1122 90.8442,-20.5223 32.278,-3.5056 54.3039,-1.2615 87.8237,-3.2852 11.7226,-0.7077 26.8863,-14.8294 33.6631,-23.261 5.8991,-7.3395 8.5188,-21.2487 7.12,-31.1954 -1.8849,-13.4036 -6.0566,-24.236 -14.5048,-34.1971 -8.7376,-10.3025 -22.3018,-17.5333 -33.6614,-21.62 -48.4755,-17.4394 -92.1809,-40.40207 -142.8297,-45.15041 -54.4276,-5.1026 -112.9685,11.99231 -168.015,11.48731 -24.4904,-0.2247 -52.0255,-3.8972 -72.24,-17.2387 -52.7552,-34.81844 -93.2724,-85.81627 -145.025,-123.40497 -17.5687,-12.76039 -40.1803,-21.09036 -61.2946,-24.08 -20.1136,-2.84794 -43.7869,-0.98406 -62.389,6.56727 -18.2476,7.40745 -36.8224,22.0213 -48.16,38.30909 -14.5667,20.92676 -23.3626,48.01113 -29.5528,73.33455 -5.8498,23.93111 -3.7671,49.69446 -6.5672,74.42906 -1.578,13.9394 -1.4287,30.907 -8.4855,39.6746 -4.9832,6.1912 -20.448,7.4005 -28.1825,2.4616 -22.5479,-14.3981 -37.0711,-44.5245 -60.7466,-58.5544 -15.7282,-9.3204 -38.267,-8.5528 -56.3684,-6.2901 -14.0052,1.7507 -31.7368,10.5492 -41.0477,21.3444 -15.8636,18.3926 -25.5385,40.4043 -35.0239,63.753 -14.2297,35.0271 -22.0995,64.7629 -29.5449,101.5094 -3.8649,19.0753 -3.5739,47.0026 0.5464,65.9561 5.0009,23.004 13.668,42.5338 27.0912,61.2867 11.3865,15.9077 25.8114,29.9235 43.7756,38.5848 22.8988,11.0405 53.3611,24.5489 79.0875,25.1791 121.7214,2.9819 242.4154,5.5212 367.2099,7.3863 z"
       id="path2419"
       style="fill:none;stroke:#fffa69;stroke-width:15;stroke-linecap:butt;stroke-linejoin:round;stroke-miterlimit:4;stroke-opacity:1;stroke-dasharray:none" />
  </g>
</svg>
