<?xml version="1.0" encoding="UTF-8" standalone="no"?>
<svg
   inkscape:version="1.4.3 (fcd0343856, 2026-01-01)"
   sodipodi:docname="Austria.svg"
   id="svg154"
   version="1.1"
   viewBox="0 0 680.31 510.24"
   stroke-miterlimit="10"
   clip-rule="evenodd"
   xmlns:inkscape="http://www.inkscape.org/namespaces/inkscape"
   xmlns:sodipodi="http://sodipodi.sourceforge.net/DTD/sodipodi-0.dtd"
   xmlns="http://www.w3.org/2000/svg"
   xmlns:svg="http://www.w3.org/2000/svg"
   xmlns:rdf="http://www.w3.org/1999/02/22-rdf-syntax-ns#"
   xmlns:cc="http://creativecommons.org/ns#"
   xmlns:dc="http://purl.org/dc/elements/1.1/">
  <metadata
     id="metadata158">
    <rdf:RDF>
      <cc:Work
         rdf:about="">
        <dc:format>image/svg+xml</dc:format>
        <dc:type
           rdf:resource="http://purl.org/dc/dcmitype/StillImage" />
      </cc:Work>
    </rdf:RDF>
  </metadata>
  <sodipodi:namedview
     inkscape:current-layer="g152"
     inkscape:window-maximized="1"
     inkscape:window-y="0"
     inkscape:window-x="0"
     inkscape:cy="240.02205"
     inkscape:cx="355.18791"
     inkscape:zoom="1.3415434"
     showgrid="false"
     id="namedview156"
     inkscape:window-height="933"
     inkscape:window-width="1210"
     inkscape:pageshadow="2"
     inkscape:pageopacity="0"
     guidetolerance="10"
     gridtolerance="10"
     objecttolerance="10"
     borderopacity="1"
     bordercolor="#666666"
     pagecolor="#ffffff"
     inkscape:showpageshadow="2"
     inkscape:pagecheckerboard="0"
     inkscape:deskcolor="#d1d1d1" />
  <desc
     id="desc10">SVG generated by Lineform</desc>
  <defs
     id="defs12" />
  <g
     transform="translate(1.529955,1.529955)"
     id="g152">
    <path
       id="path14"
       fill="none"
       stroke-width="7.34"
       stroke="#fffa69"
       d="m 567.8,358.72 c -53.51,13.54 -107.02,27.08 -160.52,40.62 -35.64,8.84 -71.28,17.68 -106.91,26.52 -4.14,0.89 -8.94,2.64 -12.83,0.72 0,0 -5.38,-9.78 -8.59,-15.72 0,0 -8.42,-14.01 -28.68,-39.41 L 227.41,339.32 150.03,185.06 66.76,89.44 c 0,0 -12.1,-11.72 5.12,-15.45 l 71.9,-1.78 50.21,9.54 74.62,13.62 68.35,6.9 71,5.47 c 0,0 17.91,3.77 10.13,21.5 0,0 -20.97,41.77 -67.85,47.33 0,0 -11.52,4.11 -62.17,-5.78 0,0 -35.54,-11.84 -52.46,-3.75 0,0 -23.63,9.48 -22.24,35.47 0,0 0.55,6.14 4.24,13.73 l 34.09,63.28 c 0,0 20.22,23.16 47.47,5.5 l 33.29,-34.78 c 0,0 16.16,-11.77 37.62,-13.2 l 166.05,0.37 39.91,0.02 c 0,0 15.67,0.35 21.71,14.72 l 18.32,69.16 c 0,0 4.4,12.13 -8.65,18.49 z m 0,0" />
  </g>
</svg>
