<?xml version="1.0" encoding="UTF-8" standalone="no"?>
<!-- Created with Inkscape (http://www.inkscape.org/) -->

<svg
   width="1430.4401"
   height="885.35919"
   id="svg2"
   version="1.1"
   inkscape:version="1.4.3 (fcd0343856, 2026-01-01)"
   sodipodi:docname="Brazil.svg"
   inkscape:export-filename="E:\Images\Maps\Race Tracks\South America\Brazil\Autódromo Internacional Ayrton Senna (Goiânia)\Autódromo Internacional Ayrton Senna (Goiânia) track map (Brazil)--Mixed circuit.png"
   inkscape:export-xdpi="90"
   inkscape:export-ydpi="90"
   xmlns:inkscape="http://www.inkscape.org/namespaces/inkscape"
   xmlns:sodipodi="http://sodipodi.sourceforge.net/DTD/sodipodi-0.dtd"
   xmlns:xlink="http://www.w3.org/1999/xlink"
   xmlns="http://www.w3.org/2000/svg"
   xmlns:svg="http://www.w3.org/2000/svg"
   xmlns:rdf="http://www.w3.org/1999/02/22-rdf-syntax-ns#"
   xmlns:cc="http://creativecommons.org/ns#"
   xmlns:dc="http://purl.org/dc/elements/1.1/">
  <title
     id="title5686">Track map for Autódromo Internacional Ayrton Senna in Goiânia, Brazil</title>
  <sodipodi:namedview
     id="base"
     pagecolor="#ffffff"
     bordercolor="#666666"
     borderopacity="1.0"
     inkscape:pageopacity="0.0"
     inkscape:pageshadow="2"
     inkscape:zoom="0.84519445"
     inkscape:cx="715.22003"
     inkscape:cy="443.68488"
     inkscape:document-units="px"
     inkscape:current-layer="layer2"
     showgrid="false"
     inkscape:window-width="1210"
     inkscape:window-height="933"
     inkscape:window-x="0"
     inkscape:window-y="0"
     inkscape:window-maximized="1"
     inkscape:showpageshadow="false"
     showborder="false"
     fit-margin-top="0"
     fit-margin-left="0"
     fit-margin-right="0"
     fit-margin-bottom="0"
     inkscape:pagecheckerboard="0"
     inkscape:deskcolor="#d1d1d1" />
  <g
     inkscape:label="Hidden objects"
     inkscape:groupmode="layer"
     id="layer1"
     transform="translate(343.24428,-89.584991)"
     style="display:none">
    <path
       style="fill:none"
       d="M -120.47965,1169.81475 C -199.66236,1126.0197600000001 -272.0289,1163.7648 -295.44759999999997,1223.09218 M -295.4476,1223.09218 L -313.61036,1269.1045100000001 C -330.55792,1312.03834 -321.25862,1367.4801499999999 -296.65845,1406.5360799999999 L -120.47965000000002,1686.24261 C -109.49001000000003,1703.6900799999999 -92.04556700000002,1717.7062099999998 -73.25647400000003,1726.20069 L 128.956,1817.62022 C 168.79278,1835.63028 227.90681999999998,1810.27485 240.22849000000002,1755.8222 M 240.22849,1755.8222 C 250.68556999999998,1709.60967 221.36930999999996,1660.09726 168.9136899999999,1652.94422 M 168.91368999999997,1652.94422 L 35.720099000000005,1634.78145 M 35.720099,1634.78145 C 6.872748699999999,1630.84772 -23.574954999999996,1614.2230100000002 -38.74722500000001,1589.37455 L -157.41061,1395.033 C -172.60632999999999,1370.1461199999999 -148.21375999999998,1337.12285 -126.53390999999999,1329.64705 L -108.97657,1323.5928 C -77.687366,1312.80343 -36.537334,1335.22573 -17.55733699999999,1362.34002 L -0.6054254000000014,1386.5570400000001 M -0.6054254,1386.5570400000001 C 17.621151,1412.59501 43.07607300000001,1435.2356800000002 72.045623,1448.31043 L 345.6979,1571.8172100000002 C 366.63984,1581.26888 386.83625,1595.68494 399.581,1614.80222 L 446.80395,1685.63719 C 458.17646,1702.6960800000002 442.7387,1734.85772 425.00863,1745.1526000000001 L 406.24044,1756.05026 C 387.17599,1767.11994 380.42356,1800.6703 392.92109,1818.83078 L 431.66831,1875.13534 C 450.70242,1902.79428 492.25097,1923.20095 525.509,1927.8072200000001 L 1001.979,1993.7987200000002 C 1030.3,1997.7212 1067.3122,1965.4566200000002 1066.1541,1936.8887300000001 L 1064.3379,1892.08725 C 1062.6645,1850.8095200000002 1033.2863,1807.9485800000002 997.13564,1787.95408 L -120.47964999999999,1169.81475"
       id="path3764"
       inkscape:connector-curvature="0"
       sodipodi:nodetypes="ssssssssssssssssssssssssssssss" />
  </g>
  <g
     inkscape:groupmode="layer"
     id="layer2"
     inkscape:label="Visible map"
     transform="translate(343.24428,-89.584991)">

    <use
       x="0"
       y="0"
       xlink:href="#path3764"
       id="use3994"
       style="color:#fffa69;fill:none;stroke:#fffa69;stroke-width:10;stroke-linecap:butt;stroke-linejoin:miter;stroke-miterlimit:4;stroke-opacity:1;stroke-dasharray:none;stroke-dashoffset:0;marker:none;visibility:visible;display:inline;overflow:visible;enable-background:accumulate"
       width="744.09448"
       height="1052.3622" />
  </g>
</svg>
