<?xml version="1.0" encoding="UTF-8" standalone="no"?>
<!-- Created with Inkscape (http://www.inkscape.org/) -->

<svg
   width="1430.4401"
   height="885.35919"
   id="svg2"
   version="1.1"
   inkscape:version="1.4.3 (fcd0343856, 2026-01-01)"
   sodipodi:docname="Brazilav.svg"
   inkscape:export-filename="E:\Images\Maps\Race Tracks\South America\Brazil\Autódromo Internacional Ayrton Senna (Goiânia)\Autódromo Internacional Ayrton Senna (Goiânia) track map (Brazil)--Mixed circuit.png"
   inkscape:export-xdpi="90"
   inkscape:export-ydpi="90"
   xmlns:inkscape="http://www.inkscape.org/namespaces/inkscape"
   xmlns:sodipodi="http://sodipodi.sourceforge.net/DTD/sodipodi-0.dtd"
   xmlns:xlink="http://www.w3.org/1999/xlink"
   xmlns="http://www.w3.org/2000/svg"
   xmlns:svg="http://www.w3.org/2000/svg"
   xmlns:rdf="http://www.w3.org/1999/02/22-rdf-syntax-ns#"
   xmlns:cc="http://creativecommons.org/ns#"
   xmlns:dc="http://purl.org/dc/elements/1.1/">
  <defs
     id="defs1" />
  <title
     id="title5686">Track map for Autódromo Internacional Ayrton Senna in Goiânia, Brazil</title>
  <sodipodi:namedview
     id="base"
     pagecolor="#ffffff"
     bordercolor="#666666"
     borderopacity="1.0"
     inkscape:pageopacity="0.0"
     inkscape:pageshadow="2"
     inkscape:zoom="0.84519445"
     inkscape:cx="715.22003"
     inkscape:cy="443.68488"
     inkscape:document-units="px"
     inkscape:current-layer="layer2"
     showgrid="false"
     inkscape:window-width="1210"
     inkscape:window-height="933"
     inkscape:window-x="0"
     inkscape:window-y="0"
     inkscape:window-maximized="1"
     inkscape:showpageshadow="false"
     showborder="false"
     fit-margin-top="0"
     fit-margin-left="0"
     fit-margin-right="0"
     fit-margin-bottom="0"
     inkscape:pagecheckerboard="0"
     inkscape:deskcolor="#d1d1d1" />
  <g
     inkscape:label="Hidden objects"
     inkscape:groupmode="layer"
     id="layer1"
     transform="translate(343.24428,-89.584991)"
     style="display:none">
    <path
       style="fill:none"
       d="m -120.47965,934.90965 c -79.18271,43.79499 -151.54925,6.04995 -174.96795,-53.27743 l -18.16276,-46.01233 c -16.94756,-42.93383 -7.64826,-98.37564 16.95191,-137.43157 l 176.1788,-279.70653 c 10.98964,-17.44747 28.434083,-31.4636 47.223176,-39.95808 L 128.956,287.10418 c 39.83678,-18.01006 98.95082,7.34537 111.27249,61.79802 10.45708,46.21253 -18.85918,95.72494 -71.3148,102.87798 L 35.720099,469.94295 c -28.8473503,3.93373 -59.295054,20.55844 -74.467324,45.4069 L -157.41061,709.6914 c -15.19572,24.88688 9.19685,57.91015 30.8767,65.38595 l 17.55734,6.05425 c 31.289204,10.78937 72.439236,-11.63293 91.419233,-38.74722 L -0.6054254,718.16736 C 17.621151,692.12939 43.076073,669.48872 72.045623,656.41397 L 345.6979,532.90719 c 20.94194,-9.45167 41.13835,-23.86773 53.8831,-42.98501 l 47.22295,-70.83497 C 458.17646,402.02832 442.7387,369.86668 425.00863,359.5718 L 406.24044,348.67414 C 387.17599,337.60446 380.42356,304.0541 392.92109,285.89362 l 38.74722,-56.30456 c 19.03411,-27.65894 60.58266,-48.06561 93.84069,-52.67188 l 476.47,-65.9915 c 28.321,-3.92248 65.3332,28.3421 64.1751,56.90999 l -1.8162,44.80148 c -1.6734,41.27773 -31.0516,84.13867 -67.20226,104.13317 z"
       id="path3764"
       inkscape:connector-curvature="0"
       sodipodi:nodetypes="ssssssssssssssssssssssssssssss" />
  </g>
  <g
     inkscape:groupmode="layer"
     id="layer2"
     inkscape:label="Visible map"
     transform="translate(343.24428,-89.584991)">
    <use
       x="0"
       y="0"
       xlink:href="#path3764"
       id="use3994"
       style="color:#fffa69;display:inline;overflow:visible;visibility:visible;fill:none;stroke:#fffa69;stroke-width:10;stroke-linecap:butt;stroke-linejoin:miter;stroke-miterlimit:4;stroke-dasharray:none;stroke-dashoffset:0;stroke-opacity:1;marker:none;enable-background:accumulate"
       width="744.09448"
       height="1052.3622"
       transform="matrix(1,0,0,-1,0,1064.3679)" />
  </g>
  <metadata
     id="metadata1">
    <rdf:RDF>
      <cc:Work
         rdf:about="">
        <dc:title>Track map for Autódromo Internacional Ayrton Senna in Goiânia, Brazil</dc:title>
      </cc:Work>
    </rdf:RDF>
  </metadata>
</svg>
