<?xml version="1.0" encoding="UTF-8" standalone="no"?>
<svg
   xmlns:dc="http://purl.org/dc/elements/1.1/"
   xmlns:cc="http://creativecommons.org/ns#"
   xmlns:rdf="http://www.w3.org/1999/02/22-rdf-syntax-ns#"
   xmlns:svg="http://www.w3.org/2000/svg"
   xmlns="http://www.w3.org/2000/svg"
   xmlns:xlink="http://www.w3.org/1999/xlink"
   xmlns:sodipodi="http://sodipodi.sourceforge.net/DTD/sodipodi-0.dtd"
   xmlns:inkscape="http://www.inkscape.org/namespaces/inkscape"
   inkscape:export-ydpi="90.015755"
   inkscape:export-xdpi="90.015755"
   inkscape:export-filename="D:\Images\Race Tracks\Catalunya.png"
   inkscape:output_extension="org.inkscape.output.svg.inkscape"
   sodipodi:docname="Formula1_Circuit_Catalunya.svg"
   version="1.0"
   inkscape:version="1.0 (4035a4fb49, 2020-05-01)"
   sodipodi:version="0.32"
   id="svg3942"
   height="517.72412"
   width="1408.546">
  <defs
     id="defs3944">
    <clipPath
       id="clipPath9724"
       clipPathUnits="userSpaceOnUse">
      <path
         style="fill:#6a6a6a;fill-opacity:1;fill-rule:nonzero;stroke:#010101;stroke-width:0.94262564;stroke-linecap:round;stroke-linejoin:round;stroke-miterlimit:4;stroke-dasharray:none;stroke-dashoffset:0;stroke-opacity:1"
         d="M 727.23942,720.30758 C 1333.36,720.30758 1939.4804,720.30758 2545.601,720.30758 C 2545.601,974.89282 2545.601,1229.4779 2545.601,1484.0631 C 1939.4804,1484.0631 1333.36,1484.0631 727.23942,1484.0631 C 727.23942,1229.4779 727.23942,974.89282 727.23942,720.30758 L 727.23942,720.30758 z"
         id="path9726" />
    </clipPath>
    <pattern
       id="pattern4912"
       patternTransform="matrix(0.1737876,0,0,0.1737876,763.47719,1693.9071)"
       height="18.137641"
       width="18.181098"
       patternUnits="userSpaceOnUse">
      <g
         transform="translate(-1025.5348,-1215.2814)"
         id="g4907">
        <rect
           y="1215.2814"
           x="1025.5348"
           height="18.095789"
           width="18.172573"
           id="rect4899"
           style="opacity:1;fill:#fffa69;fill-opacity:1;stroke:none;stroke-width:0.5;stroke-linecap:round;stroke-linejoin:round;stroke-miterlimit:4;stroke-dasharray:none;stroke-dashoffset:0;stroke-opacity:1" />
        <rect
           y="1215.2814"
           x="1025.5348"
           height="9.0746527"
           width="9.0746527"
           id="rect4903"
           style="opacity:1;fill:#ffffff;fill-opacity:1;stroke:none;stroke-width:0.5;stroke-linecap:round;stroke-linejoin:round;stroke-miterlimit:4;stroke-dasharray:none;stroke-dashoffset:0;stroke-opacity:1" />
        <rect
           y="1224.3444"
           x="1034.6412"
           height="9.0746527"
           width="9.0746527"
           id="rect4905"
           style="opacity:1;fill:#ffffff;fill-opacity:1;stroke:none;stroke-width:0.5;stroke-linecap:round;stroke-linejoin:round;stroke-miterlimit:4;stroke-dasharray:none;stroke-dashoffset:0;stroke-opacity:1" />
      </g>
    </pattern>
    <pattern
       patternTransform="matrix(0.4562459,1.0584762e-8,-1.0584762e-8,0.4562459,1606.0059,1268.5349)"
       id="pattern4166"
       xlink:href="#pattern4912"
       inkscape:collect="always" />
  </defs>
  <sodipodi:namedview
     inkscape:document-rotation="0"
     inkscape:window-maximized="1"
     inkscape:window-y="-8"
     inkscape:window-x="-8"
     inkscape:window-height="705"
     inkscape:window-width="1366"
     showgrid="false"
     inkscape:current-layer="layer1"
     inkscape:document-units="px"
     inkscape:cy="291.23629"
     inkscape:cx="867.04892"
     inkscape:zoom="0.50191002"
     inkscape:pageshadow="0"
     inkscape:pageopacity="0.0"
     borderopacity="0.0"
     bordercolor="#ffffff"
     pagecolor="#ffffff"
     id="base" />
  <metadata
     id="metadata3947">
    <rdf:RDF>
      <cc:Work
         rdf:about="">
        <dc:format>image/svg+xml</dc:format>
        <dc:type
           rdf:resource="http://purl.org/dc/dcmitype/StillImage" />
        <cc:license
           rdf:resource="http://creativecommons.org/licenses/by-sa/3.0/" />
        <dc:title>Track map for Catalunya</dc:title>
        <dc:date>8-5-2008</dc:date>
        <dc:creator>
          <cc:Agent>
            <dc:title>Will Pittneger</dc:title>
          </cc:Agent>
        </dc:creator>
        <dc:publisher>
          <cc:Agent>
            <dc:title>Will Pittenger</dc:title>
          </cc:Agent>
        </dc:publisher>
        <dc:subject>
          <rdf:Bag>
            <rdf:li>Catalunya</rdf:li>
            <rdf:li>Racing</rdf:li>
            <rdf:li>Formula 1</rdf:li>
            <rdf:li>road course</rdf:li>
            <rdf:li>Elf</rdf:li>
            <rdf:li>Renault</rdf:li>
            <rdf:li>Repsol</rdf:li>
            <rdf:li>Seat</rdf:li>
            <rdf:li>Campsa</rdf:li>
            <rdf:li>La Caixa</rdf:li>
            <rdf:li>Banc De Sabadell</rdf:li>
            <rdf:li>Europcar</rdf:li>
            <rdf:li>New Holland</rdf:li>
          </rdf:Bag>
        </dc:subject>
        <dc:description>Created in Inkscape with data from Google Earth.</dc:description>
      </cc:Work>
      <cc:License
         rdf:about="http://creativecommons.org/licenses/by-sa/3.0/">
        <cc:permits
           rdf:resource="http://creativecommons.org/ns#Reproduction" />
        <cc:permits
           rdf:resource="http://creativecommons.org/ns#Distribution" />
        <cc:requires
           rdf:resource="http://creativecommons.org/ns#Notice" />
        <cc:requires
           rdf:resource="http://creativecommons.org/ns#Attribution" />
        <cc:permits
           rdf:resource="http://creativecommons.org/ns#DerivativeWorks" />
        <cc:requires
           rdf:resource="http://creativecommons.org/ns#ShareAlike" />
      </cc:License>
    </rdf:RDF>
  </metadata>
  <g
     transform="translate(-930.50284,-997.61967)"
     id="layer1"
     inkscape:groupmode="layer"
     inkscape:label="Layer 1">
    <path
       style="fill:none;fill-rule:evenodd;stroke:white;stroke-width:4;stroke-linecap:butt;stroke-linejoin:round;stroke-miterlimit:4;stroke-dasharray:none;stroke-opacity:1"
       d="M 2146.267,1430.0392 L 2005.4513,1429.927"
       id="path4724"
       sodipodi:nodetypes="cc" />
    <path
       style="fill:none;fill-rule:evenodd;stroke:white;stroke-width:12;stroke-linecap:butt;stroke-linejoin:round;stroke-miterlimit:4;stroke-dasharray:none;stroke-opacity:1"
       d="M 1213.8605,1316.2351 C 1226.6466,1323.7622 1241.9047,1334.0659 1252.2936,1344.8731 C 1256.7596,1349.5189 1258.5706,1357.1527 1259.1727,1363.7158 C 1260.5645,1378.8867 1259.2697,1394.7034 1258.2755,1410.0749 C 1257.9736,1414.7425 1257.5104,1419.85 1255.2845,1423.8331 C 1251.8276,1430.0191 1247.1048,1436.8779 1241.2273,1440.5822 C 1235.2408,1444.3552 1217.7486,1444.9688 1210.5704,1444.7694"
       id="path4714"
       sodipodi:nodetypes="cssssss" />
    <path
       style="fill:none;fill-rule:evenodd;stroke:white;stroke-width:12;stroke-linecap:butt;stroke-linejoin:round;stroke-miterlimit:4;stroke-dasharray:none;stroke-opacity:1"
       d="M 1370.4345,1446.564 C 1361.8606,1446.589 1355.8144,1445.8898 1348.7505,1444.4704 C 1337.773,1442.2646 1329.9635,1440.2177 1322.4305,1434.0022 C 1316.6432,1429.2272 1311.6952,1421.2805 1309.2705,1413.8135 C 1307.3085,1407.7716 1307.1639,1400.2523 1308.9714,1394.3726 C 1311.3013,1386.7932 1315.7118,1378.9007 1321.6827,1373.4363 C 1326.8779,1368.6818 1334.3597,1365.631 1341.2732,1363.7158 C 1349.1149,1361.5434 1358.4709,1361.1984 1368.9391,1361.8465"
       id="path4716"
       sodipodi:nodetypes="csssssss" />
    <path
       style="fill:none;fill-rule:evenodd;stroke:white;stroke-width:12;stroke-linecap:butt;stroke-linejoin:round;stroke-miterlimit:4;stroke-dasharray:none;stroke-opacity:1"
       d="M 1678.7973,1056.5495 C 1695.5713,1057.2723 1728.6847,1067.3781 1753.57,1072.5508 C 1781.9229,1078.4444 1811.0598,1081.9104 1838.437,1090.4215 C 1849.5429,1093.874 1860.0908,1099.9605 1868.5705,1107.5444 C 1874.2477,1112.622 1879.5801,1123.2747 1880.9827,1127.7331 C 1882.3785,1132.1696 1888.8614,1153.7947 1889.6564,1156.4458 C 1890.5837,1159.538 1897.6819,1170.0046 1901.0218,1173.494 C 1904.2886,1176.907 1917.746,1187.2647 1926.1829,1192.4115"
       id="path4718"
       sodipodi:nodetypes="cssszszs" />
    <path
       style="fill:none;fill-rule:evenodd;stroke:white;stroke-width:12;stroke-linecap:butt;stroke-linejoin:round;stroke-miterlimit:4;stroke-dasharray:none;stroke-opacity:1"
       d="M 2134.0884,1316.4781 C 2147.8154,1324.6345 2160.386,1336.5336 2174.69,1343.3776 C 2181.2226,1346.5033 2189.6939,1348.4364 2196.5236,1346.9667 C 2205.4461,1345.0467 2215.2677,1339.5533 2221.9464,1333.2085 C 2227.2313,1328.1879 2230.9123,1320.1081 2232.4145,1312.8704 C 2234.2023,1304.2563 2233.422,1294.5044 2231.8164,1285.6531 C 2229.5338,1273.0695 2226.4681,1259.9017 2220.75,1248.5658 C 2215.1027,1237.3702 2207.1123,1226.3123 2197.72,1218.0585 C 2187.3723,1208.9651 2174.2365,1202.3083 2161.53,1196.524 C 2147.5177,1190.1453 2132.0696,1187.302 2117.4141,1182.3172"
       id="path4720"
       sodipodi:nodetypes="csssssssss" />
    <path
       inkscape:connector-curvature="0"
       id="path4712"
       style="fill:none;fill-rule:evenodd;stroke:#ffffff;stroke-width:12;stroke-linecap:butt;stroke-linejoin:round;stroke-miterlimit:4;stroke-dasharray:none;stroke-opacity:1"
       d="m 2261.2405,1105.9907 c -39.6019,-15.5266 -74.7244,-26.2131 -117.3569,-41.6649 -10.2079,-3.6998 -22.1332,-6.7828 -32.3018,-4.7854 -12.1635,2.3893 -26.5016,10.3513 -34.2715,19.6373 -8.5804,10.2546 -15.0031,24.6764 -17.3173,38.5615 -1.6737,10.0422 2.4198,23.317 7.0455,31.5284 10.6807,18.9601 29.3255,26.002 48.1324,32.3019 17.1843,5.7564 25.9509,8.5317 29.9091,19.1418 11.7246,31.4286 20.8665,61.8762 33.6434,97.8027 7.6939,21.6342 -15.2635,35.0553 -33.4506,24.4918 -137.8729,-80.08 -262.7947,-157.2138 -400.9746,-241.9309 -18.2817,-11.2084 -38.7348,-21.1261 -59.8182,-23.9273 -13.0682,-1.7363 -29.4652,-1.1711 -41.2444,1.9096 -14.142,3.6987 -31.1426,12.9868 -40.749,24.7733 -46.6227,57.2038 -70.6415,100.2738 -112.2881,161.8948 -9.3222,13.7932 -14.7495,31.4645 -12.6894,47.106 5.2216,39.6454 -11.3078,67.8579 -37.8856,69.3891 -43.8466,2.5262 -72.7239,-1.1163 -113.2792,-2.3326 -26.9443,-0.8081 -52.8936,-11.4068 -76.9177,-24.2051 -46.7414,-24.9004 -88.4504,-49.3389 -131.9504,-78.0415 -11.4789,-7.5741 -21.5062,-19.7606 -24.2051,-31.4559 -2.0865,-9.0417 2.9848,-24.5291 9.8487,-31.601 6.2961,-6.4869 16.4677,-9.739 26.2475,-9.4983 69.9924,1.7221 131.0662,0.8619 202.8738,-2.3202 14.9265,-0.6615 35.9825,-11.8782 47.021,-21.6071 12.49,-11.0081 22.571,-21.5836 29.4862,-36.797 5.0484,-11.1066 8.8831,-25.2522 7.2507,-37.0873 -1.5579,-11.2946 -9.4671,-27.2113 -16.3987,-34.8397 -8.2179,-9.044 -20.4347,-16.6557 -33.353,-16.8216 -89.187,-1.1452 -175.0872,-1.3183 -263.6105,1.2689 -21.9192,0.6376 -52.4477,10.0984 -71.8669,19.9878 -23.6499,12.0439 -43.63346,25.4713 -61.57021,44.5433 -13.56749,14.4262 -23.40711,34.8246 -28.71273,53.8364 -4.26529,15.284 -5.09693,33.106 -2.53787,49.0509 2.62519,16.3569 8.88366,28.3511 17.24464,42.3558 7.59054,12.7141 19.0097,26.0787 32.30182,32.7248 28.18185,14.0909 60.52345,23.3211 89.58205,36.6767 37.2176,17.1055 46.8327,37.6722 46.3804,77.2681 -0.2743,24.0146 5.3497,49.5266 51.5163,50.6703 231.1479,5.7262 460.0563,0.2639 691.353,0.7734 130.8027,0.2881 239.6066,0.8671 367.8745,0.7733 34.3163,-0.026 59.9072,-21.683 72.2421,-36.1086 11.1936,-13.0908 19.4806,-34.9601 20.3382,-52.7852 1.2581,-26.1511 2.2487,-51.2104 3.1641,-75.5347"
       sodipodi:nodetypes="csssssssssssssssssssssssssssscsssssssssscssc" />
    <path
       sodipodi:nodetypes="cssssss"
       id="path4476"
       d="M 1213.8605,1316.2351 C 1226.6466,1323.7622 1241.9047,1334.0659 1252.2936,1344.8731 C 1256.7596,1349.5189 1258.5706,1357.1527 1259.1727,1363.7158 C 1260.5645,1378.8867 1259.2697,1394.7034 1258.2755,1410.0749 C 1257.9736,1414.7425 1257.5104,1419.85 1255.2845,1423.8331 C 1251.8276,1430.0191 1247.1048,1436.8779 1241.2273,1440.5822 C 1235.2408,1444.3552 1217.7486,1444.9688 1210.5704,1444.7694"
       style="fill:none;fill-rule:evenodd;stroke:#c8c8c8;stroke-width:10;stroke-linecap:butt;stroke-linejoin:round;stroke-miterlimit:4;stroke-dasharray:none;stroke-opacity:1" />
    <path
       sodipodi:nodetypes="csssssss"
       id="path4478"
       d="M 1370.4345,1446.564 C 1361.8606,1446.589 1355.8144,1445.8898 1348.7505,1444.4704 C 1337.773,1442.2646 1329.9635,1440.2177 1322.4305,1434.0022 C 1316.6432,1429.2272 1311.6952,1421.2805 1309.2705,1413.8135 C 1307.3085,1407.7716 1307.1639,1400.2523 1308.9714,1394.3726 C 1311.3013,1386.7932 1315.7118,1378.9007 1321.6827,1373.4363 C 1326.8779,1368.6818 1334.3597,1365.631 1341.2732,1363.7158 C 1349.1149,1361.5434 1358.4709,1361.1984 1368.9391,1361.8465"
       style="fill:none;fill-rule:evenodd;stroke:#c8c8c8;stroke-width:10;stroke-linecap:butt;stroke-linejoin:round;stroke-miterlimit:4;stroke-dasharray:none;stroke-opacity:1" />
    <path
       sodipodi:nodetypes="cssszszs"
       id="path4480"
       d="M 1678.7973,1056.5495 C 1695.5713,1057.2723 1728.6847,1067.3781 1753.57,1072.5508 C 1781.9229,1078.4444 1811.0598,1081.9104 1838.437,1090.4215 C 1849.5429,1093.874 1860.0908,1099.9605 1868.5705,1107.5444 C 1874.2477,1112.622 1879.5801,1123.2747 1880.9827,1127.7331 C 1882.3785,1132.1696 1888.8614,1153.7947 1889.6564,1156.4458 C 1890.5837,1159.538 1897.6819,1170.0046 1901.0218,1173.494 C 1904.2886,1176.907 1917.746,1187.2647 1926.1829,1192.4115"
       style="fill:none;fill-rule:evenodd;stroke:#c8c8c8;stroke-width:10;stroke-linecap:butt;stroke-linejoin:round;stroke-miterlimit:4;stroke-dasharray:none;stroke-opacity:1" />
    <path
       sodipodi:nodetypes="csssssssss"
       id="path4482"
       d="M 2134.0884,1316.4781 C 2147.8154,1324.6345 2160.386,1336.5336 2174.69,1343.3776 C 2181.2226,1346.5033 2189.6939,1348.4364 2196.5236,1346.9667 C 2205.4461,1345.0467 2215.2677,1339.5533 2221.9464,1333.2085 C 2227.2313,1328.1879 2230.9123,1320.1081 2232.4145,1312.8704 C 2234.2023,1304.2563 2233.422,1294.5044 2231.8164,1285.6531 C 2229.5338,1273.0695 2226.4681,1259.9017 2220.75,1248.5658 C 2215.1027,1237.3702 2207.1123,1226.3123 2197.72,1218.0585 C 2187.3723,1208.9651 2174.2365,1202.3083 2161.53,1196.524 C 2147.5177,1190.1453 2132.0696,1187.302 2117.4141,1182.3172"
       style="fill:none;fill-rule:evenodd;stroke:#c8c8c8;stroke-width:10;stroke-linecap:butt;stroke-linejoin:round;stroke-miterlimit:4;stroke-dasharray:none;stroke-opacity:1" />
    <path
       id="path4492"
       d="M 2260.8418,1105.8482 C 2269.333,1109.0344 2278.0355,1112.3843 2287.072,1115.9747 C 2304.6672,1122.9656 2318.4903,1141.3511 2324.7398,1154.0531 C 2331.7442,1168.2894 2333.6173,1187.5117 2332.9091,1204.3004 C 2331.7701,1231.3014 2330.8671,1256.4984 2329.9158,1281.7753"
       style="fill:none;fill-rule:evenodd;stroke:#ffffff;stroke-width:12;stroke-linecap:butt;stroke-linejoin:round;stroke-miterlimit:4;stroke-dasharray:none;stroke-opacity:1" />
    <path
       sodipodi:nodetypes="ccssc"
       d="m 2329.9462,1281.1143 c 0.1344,-9.5912 -12.401,-18.3662 -22.599,-18.7434 -15.6867,-0.1243 -23.8783,-4.2575 -22.6293,-16.9191 3.6718,-37.2241 8.9099,-73.8926 11.209,-111.2433 1.0905,-17.7169 -20.6178,-22.7019 -34.6864,-28.2178"
       style="fill:none;fill-rule:evenodd;stroke:#ffffff;stroke-width:12;stroke-linecap:butt;stroke-linejoin:round;stroke-miterlimit:4;stroke-dasharray:none;stroke-opacity:1"
       id="path985" />
    <path
       style="fill:none;fill-rule:evenodd;stroke:#ffffff;stroke-width:11.5;stroke-linecap:butt;stroke-linejoin:miter;stroke-miterlimit:4;stroke-dasharray:none;stroke-opacity:1"
       d="m 2291.1617,1184.5524 c 0,0 0.4424,5.3984 0.6491,7.8086 0.2067,2.4102 0.744,5.0848 2.4881,7.044 1.7441,1.9592 2.6148,2.7563 6.1714,3.6203 3.5566,0.864 14.6852,0.2521 18.5506,1.0764 3.8654,0.8243 4.3642,1.3476 6.9087,3.0271 2.5445,1.6795 3.5769,2.9494 4.7814,5.8848 1.2045,2.9354 1.1034,11.4017 1.1034,11.4017 l 0.4744,5.4882"
       id="path987"
       inkscape:connector-curvature="0"
       sodipodi:nodetypes="czzzzzzcc" />
    <path
       sodipodi:nodetypes="czzzzzzcc"
       inkscape:connector-curvature="0"
       id="path4312"
       d="m 2291.1617,1184.5524 c 0,0 0.4424,5.3984 0.6491,7.8086 0.2067,2.4102 0.744,5.0848 2.4881,7.044 1.7441,1.9592 2.6148,2.7563 6.1714,3.6203 3.5566,0.864 14.6852,0.2521 18.5506,1.0764 3.8654,0.8243 4.3642,1.3476 6.9087,3.0271 2.5445,1.6795 3.5769,2.9494 4.7814,5.8848 1.2045,2.9354 1.1034,11.4017 1.1034,11.4017 l 0.4744,5.4882"
       style="fill:none;fill-rule:evenodd;stroke:#c9c9c9;stroke-width:9.5;stroke-linecap:butt;stroke-linejoin:miter;stroke-miterlimit:4;stroke-dasharray:none;stroke-opacity:1" />
    <path
       id="path977"
       style="fill:none;fill-rule:evenodd;stroke:#cccccc;stroke-width:10;stroke-linecap:butt;stroke-linejoin:round;stroke-miterlimit:4;stroke-dasharray:none;stroke-opacity:1"
       d="m 2329.9462,1281.1143 c 0.1344,-9.5912 -12.401,-18.3662 -22.599,-18.7434 -15.6867,-0.1243 -23.8783,-4.2575 -22.6293,-16.9191 3.6718,-37.2241 8.9099,-73.8926 11.209,-111.2433 1.0905,-17.7169 -20.6178,-22.7019 -34.6864,-28.2178"
       sodipodi:nodetypes="ccssc" />
    <path
       style="fill:none;fill-rule:evenodd;stroke:#ffffff;stroke-width:7.8;stroke-linecap:butt;stroke-linejoin:round;stroke-miterlimit:4;stroke-dasharray:none;stroke-opacity:1"
       d="m 2327.633,1287.0867 c -0.5982,20.8491 -4.8888,40.3551 -9.1487,60.3415 -2.3699,11.1191 -6.3957,18.513 -11.297,28.5503 -4.4702,9.1543 -11.771,17.3681 -18.9923,24.675 -5.3904,5.4543 -11.2807,10.4848 -17.7959,14.6555 -6.6448,4.2537 -14.2323,8.5122 -21.6841,10.6177 -10.5435,2.9791 -22.1866,3.2323 -33.3486,3.5891 -27.8195,0.8894 -56.3631,1.8596 -83.5959,0.1496 l -57.9137,-0.6571 c -44.5277,0.7503 -20.4698,0.2507 -45.1034,0.1746 -10.6296,-0.033 -24.3442,0.4778 -35.0247,0.4938 -122.1657,0.1833 -244.6735,-1.8348 -366.8237,-0.7591 -42.0008,0.3699 -97.7232,4.9426 -139.6912,6.8336 -26.6235,1.1996 -26.4282,2.3712 -53.0343,3.8882 -18.8557,1.0751 -50.6784,4.9952 -69.5959,4.8331"
       id="path989"
       sodipodi:nodetypes="cssssssccssssss"
       inkscape:connector-curvature="0" />
    <path
       transform="translate(930.50284,997.61967)"
       d="M 336.48438 37.208984 C 281.76376 37.106072 227.46183 37.644719 172.13477 39.261719 C 150.21557 39.899319 119.68678 49.3606 100.26758 59.25 C 76.617678 71.2939 56.634016 84.720969 38.697266 103.79297 C 25.129776 118.21917 15.289995 138.61711 9.984375 157.62891 C 5.719085 172.91291 4.8862525 190.73674 7.4453125 206.68164 C 10.070502 223.03854 16.330426 235.03241 24.691406 249.03711 C 32.281946 261.75121 43.700067 275.11562 56.992188 281.76172 C 85.174038 295.85262 117.51562 305.0819 146.57422 318.4375 C 183.79182 335.543 193.40738 356.11113 192.95508 395.70703 C 192.68078 419.72163 198.3041 445.23325 244.4707 446.37695 C 475.6186 452.10315 704.52752 446.64089 935.82422 447.15039 C 1066.6269 447.43849 1175.4313 448.01763 1303.6992 447.92383 C 1338.0155 447.89783 1363.6065 426.24005 1375.9414 411.81445 C 1387.135 398.72365 1395.4217 376.8544 1396.2793 359.0293 C 1397.5374 332.8782 1398.528 307.81844 1399.4434 283.49414 L 1399.4375 283.47852 C 1400.3795 258.42774 1401.2774 233.44244 1402.4062 206.68164 C 1403.1145 189.89294 1401.2407 170.66989 1394.2363 156.43359 C 1387.9868 143.73159 1374.1636 125.34637 1356.5684 118.35547 C 1347.6726 114.82098 1339.1077 111.52248 1330.7422 108.38086 L 1330.7383 108.37109 C 1291.1364 92.844494 1256.0134 82.158831 1213.3809 66.707031 C 1203.173 63.007231 1191.2467 59.922522 1181.0781 61.919922 C 1168.9146 64.309222 1154.5765 72.272594 1146.8066 81.558594 C 1138.2262 91.813194 1131.8044 106.23404 1129.4902 120.11914 C 1127.8165 130.16134 1131.9095 143.43704 1136.5352 151.64844 C 1147.2159 170.60854 1165.8611 177.64932 1184.668 183.94922 C 1201.8523 189.70562 1210.6199 192.4817 1214.5781 203.0918 C 1226.3027 234.5204 1235.4438 264.96803 1248.2207 300.89453 C 1255.9146 322.52873 1232.9566 335.95022 1214.7695 325.38672 C 1076.8966 245.30672 951.97482 168.17218 813.79492 83.455078 C 795.51322 72.246678 775.05996 62.328544 753.97656 59.527344 C 740.90836 57.791044 724.51162 58.3568 712.73242 61.4375 C 698.59042 65.1362 681.59078 74.424437 671.98438 86.210938 C 625.36168 143.41474 601.34191 186.48447 559.69531 248.10547 C 550.37311 261.89867 544.94576 279.56944 547.00586 295.21094 C 552.22746 334.85634 535.69889 363.07036 509.12109 364.60156 C 465.27449 367.12776 436.3971 363.48388 395.8418 362.26758 C 368.8975 361.45948 342.94793 350.8608 318.92383 338.0625 C 272.18243 313.1621 230.47266 288.72408 186.97266 260.02148 C 175.49376 252.44738 165.46648 240.26171 162.76758 228.56641 C 160.68108 219.52471 165.75329 204.03674 172.61719 196.96484 C 178.91329 190.47794 189.08543 187.2261 198.86523 187.4668 C 268.85763 189.1889 329.93068 188.32858 401.73828 185.14648 C 416.66478 184.48498 437.72127 173.26796 448.75977 163.53906 C 461.24977 152.53096 471.33089 141.95559 478.24609 126.74219 C 483.29449 115.63559 487.12849 101.4894 485.49609 89.654297 C 483.93819 78.359697 476.02926 62.442853 469.09766 54.814453 C 460.87976 45.770453 448.66244 38.160041 435.74414 37.994141 C 402.29902 37.564691 369.31674 37.270732 336.48438 37.208984 z "
       style="fill:none;fill-rule:evenodd;stroke:#fffa69;stroke-width:10;stroke-linecap:butt;stroke-linejoin:round;stroke-miterlimit:4;stroke-dasharray:none;stroke-opacity:1"
       id="path3965" />
    <text
       id="text4528"
       y="1449.8066"
       x="1076.7422"
       style="font-style:normal;font-weight:normal;line-height:0%;font-family:'Times New Roman';writing-mode:lr-tb;fill:#fffa69;fill-opacity:1;stroke:none;stroke-width:1px;stroke-linecap:butt;stroke-linejoin:miter;stroke-opacity:1"
       xml:space="preserve"><tspan
         style="font-size:40px;line-height:1.25"
         y="1449.8066"
         x="1076.7422"
         id="tspan4530"
         sodipodi:role="line"> </tspan></text>
    <text
       id="text4532"
       y="1470.3915"
       x="1081.4926"
       style="font-style:normal;font-weight:normal;line-height:0%;font-family:'Times New Roman';writing-mode:lr-tb;fill:#fffa69;fill-opacity:1;stroke:none;stroke-width:1px;stroke-linecap:butt;stroke-linejoin:miter;stroke-opacity:1"
       xml:space="preserve"><tspan
         style="font-size:48px;line-height:1.25"
         y="1470.3915"
         x="1081.4926"
         id="tspan4534"
         sodipodi:role="line"> </tspan></text>
    <g
       id="g4693">
      <path
         sodipodi:type="arc"
         style="opacity:1;fill:white;fill-opacity:1;fill-rule:nonzero;stroke:#181818;stroke-width:2.21621633;stroke-linecap:round;stroke-linejoin:round;marker:none;marker-start:none;marker-mid:none;marker-end:none;stroke-miterlimit:4;stroke-dasharray:none;stroke-dashoffset:66;stroke-opacity:1;visibility:visible;display:inline;overflow:visible;enable-background:accumulate"
         id="path4691"
         sodipodi:cx="2274.6179"
         sodipodi:cy="1490.1846"
         sodipodi:rx="32.460609"
         sodipodi:ry="32.460609"
         d="m 2307.0785,1490.1846 a 32.460609,32.460609 0 0 1 -32.4606,32.4606 32.460609,32.460609 0 0 1 -32.4606,-32.4606 32.460609,32.460609 0 0 1 32.4606,-32.4606 32.460609,32.460609 0 0 1 32.4606,32.4606 z"
         transform="matrix(0.902439,0,0,0.902439,-1061.3248,-203.35805)" />
      <text
         xml:space="preserve"
         style="font-style:normal;font-weight:normal;line-height:0%;font-family:'Times New Roman';writing-mode:lr-tb;fill:#fffa69;fill-opacity:1;stroke:none;stroke-width:1px;stroke-linecap:butt;stroke-linejoin:miter;stroke-opacity:1"
         x="978.5686"
         y="1160.0364"
         id="text4544"><tspan
           style="font-size:56px;line-height:1.25"
           sodipodi:role="line"
           id="tspan4546"
           x="978.5686"
           y="1160.0364">3</tspan></text>
    </g>
    <g
       transform="translate(-7.9172218,19.001332)"
       id="g4679">
      <path
         sodipodi:type="arc"
         style="opacity:1;fill:white;fill-opacity:1;fill-rule:nonzero;stroke:#181818;stroke-width:2.21621633;stroke-linecap:round;stroke-linejoin:round;marker:none;marker-start:none;marker-mid:none;marker-end:none;stroke-miterlimit:4;stroke-dasharray:none;stroke-dashoffset:66;stroke-opacity:1;visibility:visible;display:inline;overflow:visible;enable-background:accumulate"
         id="path4665"
         sodipodi:cx="2274.6179"
         sodipodi:cy="1490.1846"
         sodipodi:rx="32.460609"
         sodipodi:ry="32.460609"
         d="m 2307.0785,1490.1846 a 32.460609,32.460609 0 0 1 -32.4606,32.4606 32.460609,32.460609 0 0 1 -32.4606,-32.4606 32.460609,32.460609 0 0 1 32.4606,-32.4606 32.460609,32.460609 0 0 1 32.4606,32.4606 z"
         transform="matrix(0.902439,0,0,0.902439,-735.40619,-49.76393)" />
      <text
         xml:space="preserve"
         style="font-style:normal;font-weight:normal;line-height:0%;font-family:'Times New Roman';writing-mode:lr-tb;fill:#fffa69;fill-opacity:1;stroke:none;stroke-width:1px;stroke-linecap:butt;stroke-linejoin:miter;stroke-opacity:1"
         x="1303.1747"
         y="1313.6305"
         id="text4556"><tspan
           style="font-size:56px;line-height:1.25"
           sodipodi:role="line"
           id="tspan4558"
           x="1303.1747"
           y="1313.6305">6</tspan></text>
    </g>
    <g
       transform="translate(17.417888,0)"
       id="g4707">
      <circle
         style="display:inline;overflow:visible;visibility:visible;opacity:1;fill:#ffffff;fill-opacity:1;fill-rule:nonzero;stroke:#181818;stroke-width:2.21621633;stroke-linecap:round;stroke-linejoin:round;stroke-miterlimit:4;stroke-dasharray:none;stroke-dashoffset:66;stroke-opacity:1;marker:none;marker-start:none;marker-mid:none;marker-end:none;enable-background:accumulate"
         id="path4705"
         transform="matrix(0.902439,0,0,0.902439,-976.34943,109.8358)"
         cx="2274.6179"
         cy="1490.1846"
         r="32.460609" />
      <text
         xml:space="preserve"
         style="font-style:normal;font-weight:normal;line-height:0%;font-family:'Times New Roman';writing-mode:lr-tb;fill:#fffa69;fill-opacity:1;stroke:none;stroke-width:1px;stroke-linecap:butt;stroke-linejoin:miter;stroke-opacity:1"
         x="1062.4912"
         y="1473.5583"
         id="text4536"><tspan
           style="font-size:56px;line-height:1.25"
           sodipodi:role="line"
           id="tspan4538"
           x="1062.4912"
           y="1473.5583">1</tspan></text>
    </g>
    <g
       id="g4923">
      <use
         x="0"
         y="0"
         xlink:href="#text4736"
         id="use4772"
         style="stroke:white;stroke-width:2;stroke-miterlimit:4;stroke-dasharray:none;stroke-opacity:1"
         width="744.09448"
         height="1052.3622" />
      <g
         id="g4686"
         transform="translate(22.168221,1.5834444)">
        <path
           transform="matrix(0.902439,0,0,0.902439,-704.3935,-263.85707)"
           d="m 2307.0785,1490.1846 a 32.460609,32.460609 0 0 1 -32.4606,32.4606 32.460609,32.460609 0 0 1 -32.4606,-32.4606 32.460609,32.460609 0 0 1 32.4606,-32.4606 32.460609,32.460609 0 0 1 32.4606,32.4606 z"
           sodipodi:ry="32.460609"
           sodipodi:rx="32.460609"
           sodipodi:cy="1490.1846"
           sodipodi:cx="2274.6179"
           id="path4684"
           style="opacity:1;fill:white;fill-opacity:1;fill-rule:nonzero;stroke:#181818;stroke-width:2.21621633;stroke-linecap:round;stroke-linejoin:round;marker:none;marker-start:none;marker-mid:none;marker-end:none;stroke-miterlimit:4;stroke-dasharray:none;stroke-dashoffset:66;stroke-opacity:1;visibility:visible;display:inline;overflow:visible;enable-background:accumulate"
           sodipodi:type="arc" />
        <text
           id="text4548"
           y="1099.8655"
           x="1334.8436"
           style="font-style:normal;font-weight:normal;line-height:0%;font-family:'Times New Roman';writing-mode:lr-tb;fill:#fffa69;fill-opacity:1;stroke:none;stroke-width:1px;stroke-linecap:butt;stroke-linejoin:miter;stroke-opacity:1"
           xml:space="preserve"><tspan
             style="font-size:56px;line-height:1.25"
             y="1099.8655"
             x="1334.8436"
             id="tspan4550"
             sodipodi:role="line">4</tspan></text>
      </g>
      <text
         xml:space="preserve"
         style="font-style:normal;font-weight:normal;line-height:0%;font-family:'Times New Roman';writing-mode:lr-tb;fill:#fffa69;fill-opacity:1"
         x="1274.6726"
         y="1090.3649"
         id="text4736"><tspan
           style="font-size:22px;line-height:1.25"
           sodipodi:role="line"
           id="tspan4738"
           x="1274.6726"
           y="1090.3649">Repsol</tspan></text>
    </g>

    <g
       id="g4630">
      <circle
         style="display:inline;overflow:visible;visibility:visible;opacity:1;fill:#ffffff;fill-opacity:1;fill-rule:nonzero;stroke:#181818;stroke-width:2.21621633;stroke-linecap:round;stroke-linejoin:round;stroke-miterlimit:4;stroke-dasharray:none;stroke-dashoffset:66;stroke-opacity:1;marker:none;marker-start:none;marker-mid:none;marker-end:none;enable-background:accumulate"
         id="path4628"
         transform="matrix(0.902439,0,0,0.902439,-14.777407,-289.19215)"
         cx="2274.6179"
         cy="1490.1846"
         r="32.460609" />
      <text
         xml:space="preserve"
         style="font-style:normal;font-weight:normal;line-height:0%;font-family:'Times New Roman';writing-mode:lr-tb;fill:#fffa69;fill-opacity:1;stroke:none;stroke-width:1px;stroke-linecap:butt;stroke-linejoin:miter;stroke-opacity:1"
         x="2007.8074"
         y="1074.5304"
         id="text4580"><tspan
           style="font-size:56px;line-height:1.25"
           sodipodi:role="line"
           id="tspan4582"
           x="2007.8074"
           y="1074.5304">12</tspan></text>
    </g>
    <use
       height="1052.3622"
       width="744.09448"
       style="stroke:#ffffff;stroke-width:2;stroke-miterlimit:4;stroke-dasharray:none;stroke-opacity:1"
       id="use4784"
       xlink:href="#text4762"
       y="0"
       x="0"
       transform="translate(-0.42402919,0.31180792)" />
    <g
       id="g4602">
      <circle
         style="display:inline;overflow:visible;visibility:visible;opacity:1;fill:#ffffff;fill-opacity:1;fill-rule:nonzero;stroke:#181818;stroke-width:2.21621633;stroke-linecap:round;stroke-linejoin:round;stroke-miterlimit:4;stroke-dasharray:none;stroke-dashoffset:66;stroke-opacity:1;marker:none;marker-start:none;marker-mid:none;marker-end:none;enable-background:accumulate"
         id="path4600"
         transform="matrix(0.902439,0,0,0.902439,227.57171,140.24938)"
         cx="2274.6179"
         cy="1490.1846"
         r="32.460609" />
      <text
         xml:space="preserve"
         style="font-style:normal;font-weight:normal;line-height:0%;font-family:'Times New Roman';writing-mode:lr-tb;fill:#fffa69;fill-opacity:1;stroke:none;stroke-width:1px;stroke-linecap:butt;stroke-linejoin:miter;stroke-opacity:1"
         x="2250.0745"
         y="1503.6438"
         id="text4596"><tspan
           style="font-size:56px;line-height:1.25"
           sodipodi:role="line"
           id="tspan4598"
           x="2250.0745"
           y="1503.6438">14</tspan></text>
    </g>
    <text
       id="text4762"
       y="1485.3953"
       x="2147.1428"
       style="font-style:normal;font-weight:normal;line-height:0%;font-family:'Times New Roman';writing-mode:lr-tb;fill:#fffa69;fill-opacity:1"
       xml:space="preserve"><tspan
         style="font-size:22px;line-height:1.25"
         id="tspan4766"
         y="1485.3953"
         x="2147.1428"
         sodipodi:role="line">Catalunya</tspan></text>
    <path
       inkscape:connector-curvature="0"
       sodipodi:nodetypes="cssssssccssssss"
       id="path991"
       d="m 2327.633,1287.0867 c -0.5982,20.8491 -4.8888,40.3551 -9.1487,60.3415 -2.3699,11.1191 -6.3957,18.513 -11.297,28.5503 -4.4702,9.1543 -11.771,17.3681 -18.9923,24.675 -5.3904,5.4543 -11.2807,10.4848 -17.7959,14.6555 -6.6448,4.2537 -14.2323,8.5122 -21.6841,10.6177 -10.5435,2.9791 -22.1866,3.2323 -33.3486,3.5891 -27.8195,0.8894 -56.3631,1.8596 -83.5959,0.1496 l -57.9137,-0.6571 c -44.5277,0.7503 -20.4698,0.2507 -45.1034,0.1746 -10.6296,-0.033 -24.3442,0.4778 -35.0247,0.4938 -122.1657,0.1833 -244.6735,-1.8348 -366.8237,-0.7591 -42.0008,0.3699 -97.7232,4.9426 -139.6912,6.8336 -26.6235,1.1996 -26.4282,2.3712 -53.0343,3.8882 -18.8557,1.0751 -50.6784,4.9952 -69.5959,4.8331"
       style="fill:none;fill-rule:evenodd;stroke:#fffa69;stroke-width:5.8;stroke-linecap:butt;stroke-linejoin:round;stroke-miterlimit:4;stroke-dasharray:none;stroke-opacity:1" />
    <g
       transform="matrix(0.3100541,-1.3229204,1.3229204,0.3100541,-553.09803,3071.9394)"
       id="g4425">
      <path
         sodipodi:type="star"
         style="opacity:1;fill:red;fill-opacity:1;stroke:white;stroke-width:0.61682928;stroke-linecap:round;stroke-linejoin:miter;stroke-miterlimit:4;stroke-dasharray:none;stroke-dashoffset:0;stroke-opacity:1"
         id="path3463"
         sodipodi:sides="3"
         sodipodi:cx="1683.6964"
         sodipodi:cy="1391.4535"
         sodipodi:r1="14.134234"
         sodipodi:r2="7.0671172"
         sodipodi:arg1="0.52359878"
         sodipodi:arg2="1.5707963"
         inkscape:flatsided="true"
         inkscape:rounded="0"
         inkscape:randomized="0"
         d="m 1695.937,1398.5206 -24.4812,0 12.2406,-21.2013 z"
         transform="matrix(-0.500919,0.1152259,0.34924,1.5182438,1918.238,-810.87292)" />
      <rect
         style="opacity:1;fill:url(#pattern4166);fill-opacity:1;stroke:black;stroke-width:0.55197024;stroke-linecap:round;stroke-linejoin:round;stroke-miterlimit:4;stroke-dasharray:none;stroke-dashoffset:0;stroke-opacity:1;display:inline"
         id="rect3457"
         width="12.409092"
         height="45.402771"
         x="1763.3485"
         y="1189.9088"
         transform="matrix(0.2205973,0.975365,0.975365,-0.2205973,0,0)"
         ry="0" />
    </g>
    <g
       inkscape:export-ydpi="90.015755"
       inkscape:export-xdpi="90.015755"
       inkscape:export-filename="D:\Losail.jpg.png"
       clip-path="url(#clipPath9724)"
       transform="matrix(1.6102657,0,0,1.6102657,-1687.2939,-274.46847)"
       id="g3804"
       style="display:inline">
      <text
         xml:space="preserve"
         style="font-style:normal;font-weight:normal;line-height:0%;font-family:'Times New Roman';fill:#fffa69;fill-opacity:1;stroke:#ffffff;stroke-width:0.621016px;stroke-linecap:butt;stroke-linejoin:miter;stroke-opacity:1"
         x="2073.4658"
         y="964.03094"
         id="text3180"><tspan
           style="font-size:64px;line-height:1.25;stroke-width:0.621016"
           sodipodi:role="line"
           id="tspan3182"
           x="2073.4658"
           y="964.03094">N</tspan></text>
      <path
         style="fill:red;fill-opacity:1;fill-rule:nonzero;stroke:white;stroke-width:0.62101555;stroke-linecap:round;stroke-linejoin:round;stroke-miterlimit:4;stroke-dasharray:none;stroke-dashoffset:0;stroke-opacity:1"
         d="M 2167.2298,926.22723 L 2120.5911,954.93424 L 2121.2944,955.6884 L 2136.3071,955.06278 L 2134.6362,969.99576 L 2135.3393,970.74975 L 2167.2298,926.22723 z"
         id="path2745" />
    </g>
    <g
       transform="translate(-32.596399,31.668887)"
       id="g4700">
      <circle
         style="display:inline;overflow:visible;visibility:visible;opacity:1;fill:#ffffff;fill-opacity:1;fill-rule:nonzero;stroke:#181818;stroke-width:2.21621633;stroke-linecap:round;stroke-linejoin:round;stroke-miterlimit:4;stroke-dasharray:none;stroke-dashoffset:66;stroke-opacity:1;marker:none;marker-start:none;marker-mid:none;marker-end:none;enable-background:accumulate"
         id="path4698"
         transform="matrix(0.902439,0,0,0.902439,-984.69062,3.7451029)"
         cx="2274.6179"
         cy="1490.1846"
         r="32.460609" />
      <text
         xml:space="preserve"
         style="font-style:normal;font-weight:normal;line-height:0%;font-family:'Times New Roman';writing-mode:lr-tb;fill:#fffa69;fill-opacity:1;stroke:none;stroke-width:1px;stroke-linecap:butt;stroke-linejoin:miter;stroke-opacity:1"
         x="1054.5739"
         y="1367.4677"
         id="text4540"><tspan
           style="font-size:56px;line-height:1.25"
           sodipodi:role="line"
           id="tspan4542"
           x="1054.5739"
           y="1367.4677">2</tspan></text>
    </g>
    <path
       sodipodi:type="star"
       style="opacity:1;fill:#fffa69;fill-opacity:1;stroke:#ffffff;stroke-width:0.61682928;stroke-linecap:round;stroke-linejoin:miter;stroke-miterlimit:4;stroke-dasharray:none;stroke-dashoffset:0;stroke-opacity:1"
       id="path4801"
       sodipodi:sides="3"
       sodipodi:cx="1683.6964"
       sodipodi:cy="1391.4535"
       sodipodi:r1="14.134234"
       sodipodi:r2="7.0671172"
       sodipodi:arg1="0.52359878"
       sodipodi:arg2="1.5707963"
       inkscape:flatsided="true"
       inkscape:rounded="0"
       inkscape:randomized="0"
       d="m 1695.937,1398.5206 -24.4812,0 12.2406,-21.2013 z"
       transform="matrix(-0.2665011,-0.6455626,-1.9566466,0.8077425,4249.9693,1322.6888)" />
    <g
       transform="translate(16.290149,44.985427)"
       id="g4674">
      <circle
         style="display:inline;overflow:visible;visibility:visible;opacity:1;fill:#ffffff;fill-opacity:1;fill-rule:nonzero;stroke:#181818;stroke-width:2.21621633;stroke-linecap:round;stroke-linejoin:round;stroke-miterlimit:4;stroke-dasharray:none;stroke-dashoffset:66;stroke-opacity:1;marker:none;marker-start:none;marker-mid:none;marker-end:none;enable-background:accumulate"
         id="path4672"
         transform="matrix(0.902439,0,0,0.902439,-892.79608,-150.72157)"
         cx="2274.6179"
         cy="1490.1846"
         r="32.460609" />
      <text
         xml:space="preserve"
         style="font-style:normal;font-weight:normal;line-height:0%;font-family:'Times New Roman';writing-mode:lr-tb;fill:#fffa69;fill-opacity:1;stroke:none;stroke-width:1px;stroke-linecap:butt;stroke-linejoin:miter;stroke-opacity:1"
         x="1146.4137"
         y="1212.29"
         id="text4552"><tspan
           style="font-size:56px;line-height:1.25"
           sodipodi:role="line"
           id="tspan4554"
           x="1146.4137"
           y="1212.29">5</tspan></text>
    </g>
    <path
       sodipodi:type="star"
       style="opacity:1;fill:#fffa69;fill-opacity:1;stroke:#ffffff;stroke-width:0.61682928;stroke-linecap:round;stroke-linejoin:miter;stroke-miterlimit:4;stroke-dasharray:none;stroke-dashoffset:0;stroke-opacity:1"
       id="path4803"
       sodipodi:sides="3"
       sodipodi:cx="1683.6964"
       sodipodi:cy="1391.4535"
       sodipodi:r1="14.134234"
       sodipodi:r2="7.0671172"
       sodipodi:arg1="0.52359878"
       sodipodi:arg2="1.5707963"
       inkscape:flatsided="true"
       inkscape:rounded="0"
       inkscape:randomized="0"
       d="m 1695.937,1398.5206 -24.4812,0 12.2406,-21.2013 z"
       transform="matrix(-0.2739978,0.6424166,1.9471113,0.8304647,-1115.6023,-1019.5885)" />
    <g
       id="g4906">
      <g
         id="g4667"
         transform="translate(-36.835776,-17.834444)">
        <path
           transform="matrix(0.902439,0,0,0.902439,-602.72504,-42.992568)"
           d="m 2307.0785,1490.1846 a 32.460609,32.460609 0 0 1 -32.4606,32.4606 32.460609,32.460609 0 0 1 -32.4606,-32.4606 32.460609,32.460609 0 0 1 32.4606,-32.4606 32.460609,32.460609 0 0 1 32.4606,32.4606 z"
           sodipodi:ry="32.460609"
           sodipodi:rx="32.460609"
           sodipodi:cy="1490.1846"
           sodipodi:cx="2274.6179"
           id="path4663"
           style="opacity:1;fill:white;fill-opacity:1;fill-rule:nonzero;stroke:#181818;stroke-width:2.21621633;stroke-linecap:round;stroke-linejoin:round;marker:none;marker-start:none;marker-mid:none;marker-end:none;stroke-miterlimit:4;stroke-dasharray:none;stroke-dashoffset:66;stroke-opacity:1;visibility:visible;display:inline;overflow:visible;enable-background:accumulate"
           sodipodi:type="arc" />
        <text
           id="text4560"
           y="1319.9644"
           x="1436.184"
           style="font-style:normal;font-weight:normal;line-height:0%;font-family:'Times New Roman';writing-mode:lr-tb;fill:#fffa69;fill-opacity:1;stroke:none;stroke-width:1px;stroke-linecap:butt;stroke-linejoin:miter;stroke-opacity:1"
           xml:space="preserve"><tspan
             style="font-size:56px;line-height:1.25"
             y="1319.9644"
             x="1436.184"
             id="tspan4562"
             sodipodi:role="line">7</tspan></text>
      </g>
      <path
         transform="matrix(0.5162472,-0.4703857,-1.4256998,-1.5647025,2560.0253,4288.1468)"
         d="m 1695.937,1398.5206 -24.4812,0 12.2406,-21.2013 z"
         inkscape:randomized="0"
         inkscape:rounded="0"
         inkscape:flatsided="true"
         sodipodi:arg2="1.5707963"
         sodipodi:arg1="0.52359878"
         sodipodi:r2="7.0671172"
         sodipodi:r1="14.134234"
         sodipodi:cy="1391.4535"
         sodipodi:cx="1683.6964"
         sodipodi:sides="3"
         id="path4805"
         style="opacity:1;fill:black;fill-opacity:1;stroke:white;stroke-width:0.61682928;stroke-linecap:round;stroke-linejoin:miter;stroke-miterlimit:4;stroke-dasharray:none;stroke-dashoffset:0;stroke-opacity:1"
         sodipodi:type="star" />
    </g>
    <g
       id="g4899">
      <g
         id="g4658"
         transform="translate(35.724138,26.918554)">
        <path
           transform="matrix(0.902439,0,0,0.902439,-521.68219,-90.933486)"
           d="m 2307.0785,1490.1846 a 32.460609,32.460609 0 0 1 -32.4606,32.4606 32.460609,32.460609 0 0 1 -32.4606,-32.4606 32.460609,32.460609 0 0 1 32.4606,-32.4606 32.460609,32.460609 0 0 1 32.4606,32.4606 z"
           sodipodi:ry="32.460609"
           sodipodi:rx="32.460609"
           sodipodi:cy="1490.1846"
           sodipodi:cx="2274.6179"
           id="path4656"
           style="opacity:1;fill:white;fill-opacity:1;fill-rule:nonzero;stroke:#181818;stroke-width:2.21621633;stroke-linecap:round;stroke-linejoin:round;marker:none;marker-start:none;marker-mid:none;marker-end:none;stroke-miterlimit:4;stroke-dasharray:none;stroke-dashoffset:66;stroke-opacity:1;visibility:visible;display:inline;overflow:visible;enable-background:accumulate"
           sodipodi:type="arc" />
        <text
           id="text4564"
           y="1272.4609"
           x="1516.9397"
           style="font-style:normal;font-weight:normal;line-height:0%;font-family:'Times New Roman';writing-mode:lr-tb;fill:#fffa69;fill-opacity:1;stroke:none;stroke-width:1px;stroke-linecap:butt;stroke-linejoin:miter;stroke-opacity:1"
           xml:space="preserve"><tspan
             style="font-size:56px;line-height:1.25"
             y="1272.4609"
             x="1516.9397"
             id="tspan4566"
             sodipodi:role="line">8</tspan></text>
      </g>
      <path
         transform="matrix(-2.877296e-3,0.6984022,2.116799,8.7209945e-3,-1421.9504,88.688472)"
         d="m 1695.937,1398.5206 -24.4812,0 12.2406,-21.2013 z"
         inkscape:randomized="0"
         inkscape:rounded="0"
         inkscape:flatsided="true"
         sodipodi:arg2="1.5707963"
         sodipodi:arg1="0.52359878"
         sodipodi:r2="7.0671172"
         sodipodi:r1="14.134234"
         sodipodi:cy="1391.4535"
         sodipodi:cx="1683.6964"
         sodipodi:sides="3"
         id="path4807"
         style="opacity:1;fill:black;fill-opacity:1;stroke:white;stroke-width:0.61682928;stroke-linecap:round;stroke-linejoin:miter;stroke-miterlimit:4;stroke-dasharray:none;stroke-dashoffset:0;stroke-opacity:1"
         sodipodi:type="star" />
    </g>
    <g
       id="g4839">
      <use
         x="0"
         y="0"
         xlink:href="#text4758"
         id="use4782"
         style="stroke:white;stroke-width:2;stroke-miterlimit:4;stroke-dasharray:none;stroke-opacity:1"
         width="744.09448"
         height="1052.3622" />
      <g
         id="g4623"
         transform="translate(24.810258,-9.0219119)">
        <path
           sodipodi:cx="2274.6179"
           sodipodi:cy="1490.1846"
           sodipodi:rx="32.460609"
           sodipodi:ry="32.460609"
           sodipodi:type="arc"
           d="m 2307.0785,1490.1846 a 32.460609,32.460609 0 0 1 -32.4606,32.4606 32.460609,32.460609 0 0 1 -32.4606,-32.4606 32.460609,32.460609 0 0 1 32.4606,-32.4606 32.460609,32.460609 0 0 1 32.4606,32.4606 z"
           transform="matrix(0.902439,0,0,0.902439,216.82684,-307.86537)"
           id="path4621"
           style="opacity:1;fill:white;fill-opacity:1;fill-rule:nonzero;stroke:#181818;stroke-width:2.21621633;stroke-linecap:round;stroke-linejoin:round;marker:none;marker-start:none;marker-mid:none;marker-end:none;stroke-miterlimit:4;stroke-dasharray:none;stroke-dashoffset:66;stroke-opacity:1;visibility:visible;display:inline;overflow:visible;enable-background:accumulate" />
        <text
           id="text4584"
           y="1055.5291"
           x="2240.5737"
           style="font-style:normal;font-weight:normal;line-height:0%;font-family:'Times New Roman';writing-mode:lr-tb;fill:#fffa69;fill-opacity:1;stroke:none;stroke-width:1px;stroke-linecap:butt;stroke-linejoin:miter;stroke-opacity:1"
           xml:space="preserve"><tspan
             style="font-size:56px;line-height:1.25"
             y="1055.5291"
             x="2240.5737"
             id="tspan4586"
             sodipodi:role="line">13</tspan></text>
      </g>
      <text
         xml:space="preserve"
         style="font-style:normal;font-weight:normal;line-height:0%;font-family:'Times New Roman';writing-mode:lr-tb;fill:#fffa69;fill-opacity:1"
         x="2175.22"
         y="1034.2031"
         id="text4758"><tspan
           style="font-size:22px;line-height:1.25"
           sodipodi:role="line"
           id="tspan4760"
           x="2175.22"
           y="1034.2031">Europcar</tspan></text>
      <path
         transform="matrix(0.6984022,2.877296e-3,8.7209945e-3,-2.116799,1106.855,4017.0595)"
         d="m 1695.937,1398.5206 -24.4812,0 12.2406,-21.2013 z"
         inkscape:randomized="0"
         inkscape:rounded="0"
         inkscape:flatsided="true"
         sodipodi:arg2="1.5707963"
         sodipodi:arg1="0.52359878"
         sodipodi:r2="7.0671172"
         sodipodi:r1="14.134234"
         sodipodi:cy="1391.4535"
         sodipodi:cx="1683.6964"
         sodipodi:sides="3"
         id="path4809"
         style="opacity:1;fill:black;fill-opacity:1;stroke:white;stroke-width:0.61682928;stroke-linecap:round;stroke-linejoin:miter;stroke-miterlimit:4;stroke-dasharray:none;stroke-dashoffset:0;stroke-opacity:1"
         sodipodi:type="star" />
    </g>
    <g
       transform="translate(98.33264,40.464317)"
       id="g4870">
      <use
         x="0"
         y="0"
         xlink:href="#text4748"
         id="use4778"
         style="stroke:#ffffff;stroke-width:2;stroke-miterlimit:4;stroke-dasharray:none;stroke-opacity:1"
         width="744.09448"
         height="1052.3622" />
      <g
         id="g4644"
         transform="translate(-92.419612,-1.7075776)">
        <circle
           r="32.460609"
           cy="1490.1846"
           cx="2274.6179"
           transform="matrix(0.902439,0,0,0.902439,66.14227,-24.428847)"
           id="path4642"
           style="display:inline;overflow:visible;visibility:visible;opacity:1;fill:#ffffff;fill-opacity:1;fill-rule:nonzero;stroke:#181818;stroke-width:2.21621633;stroke-linecap:round;stroke-linejoin:round;stroke-miterlimit:4;stroke-dasharray:none;stroke-dashoffset:66;stroke-opacity:1;marker:none;marker-start:none;marker-mid:none;marker-end:none;enable-background:accumulate" />
        <text
           id="text4572"
           y="1338.9656"
           x="2088.563"
           style="font-style:normal;font-weight:normal;line-height:0%;font-family:'Times New Roman';writing-mode:lr-tb;fill:#fffa69;fill-opacity:1;stroke:none;stroke-width:1px;stroke-linecap:butt;stroke-linejoin:miter;stroke-opacity:1"
           xml:space="preserve"><tspan
             style="font-size:56px;line-height:1.25"
             y="1338.9656"
             x="2088.563"
             id="tspan4574"
             sodipodi:role="line">10</tspan></text>
      </g>
      <text
         xml:space="preserve"
         style="font-style:normal;font-weight:normal;line-height:0%;font-family:'Times New Roman';writing-mode:lr-tb;fill:#fffa69;fill-opacity:1"
         x="1911.1013"
         y="1294.6882"
         id="text4748"><tspan
           style="font-size:22px;line-height:1.25"
           sodipodi:role="line"
           id="tspan4750"
           x="1911.1013"
           y="1294.6882">La Caixa</tspan></text>
    </g>
  </g>
</svg>
