<?xml version="1.0" encoding="UTF-8" standalone="no"?>
<svg
   inkscape:export-ydpi="90.015755"
   inkscape:export-xdpi="90.015755"
   inkscape:export-filename="D:\Images\Race Tracks\Catalunya.png"
   inkscape:output_extension="org.inkscape.output.svg.inkscape"
   sodipodi:docname="Catalonia.svg"
   version="1.0"
   inkscape:version="1.4.3 (fcd0343856, 2026-01-01)"
   sodipodi:version="0.32"
   id="svg3942"
   height="517.72412"
   width="1408.546"
   xmlns:inkscape="http://www.inkscape.org/namespaces/inkscape"
   xmlns:sodipodi="http://sodipodi.sourceforge.net/DTD/sodipodi-0.dtd"
   xmlns:xlink="http://www.w3.org/1999/xlink"
   xmlns="http://www.w3.org/2000/svg"
   xmlns:svg="http://www.w3.org/2000/svg"
   xmlns:rdf="http://www.w3.org/1999/02/22-rdf-syntax-ns#"
   xmlns:cc="http://creativecommons.org/ns#"
   xmlns:dc="http://purl.org/dc/elements/1.1/">
  <sodipodi:namedview
     inkscape:document-rotation="0"
     inkscape:window-maximized="1"
     inkscape:window-y="0"
     inkscape:window-x="0"
     inkscape:window-height="933"
     inkscape:window-width="1210"
     showgrid="false"
     inkscape:current-layer="layer1"
     inkscape:document-units="px"
     inkscape:cy="292.88118"
     inkscape:cx="865.69302"
     inkscape:zoom="0.50191002"
     inkscape:pageshadow="0"
     inkscape:pageopacity="0.0"
     borderopacity="0.0"
     bordercolor="#ffffff"
     pagecolor="#ffffff"
     id="base"
     inkscape:showpageshadow="2"
     inkscape:pagecheckerboard="0"
     inkscape:deskcolor="#d1d1d1" />
  <metadata
     id="metadata3947">
    <rdf:RDF>
      <cc:Work
         rdf:about="">
        <dc:format>image/svg+xml</dc:format>
        <dc:type
           rdf:resource="http://purl.org/dc/dcmitype/StillImage" />
        <cc:license
           rdf:resource="http://creativecommons.org/licenses/by-sa/3.0/" />
        <dc:title>Track map for Catalunya</dc:title>
        <dc:date>8-5-2008</dc:date>
        <dc:creator>
          <cc:Agent>
            <dc:title>Will Pittneger</dc:title>
          </cc:Agent>
        </dc:creator>
        <dc:publisher>
          <cc:Agent>
            <dc:title>Will Pittenger</dc:title>
          </cc:Agent>
        </dc:publisher>
        <dc:subject>
          <rdf:Bag>
            <rdf:li>Catalunya</rdf:li>
            <rdf:li>Racing</rdf:li>
            <rdf:li>Formula 1</rdf:li>
            <rdf:li>road course</rdf:li>
            <rdf:li>Elf</rdf:li>
            <rdf:li>Renault</rdf:li>
            <rdf:li>Repsol</rdf:li>
            <rdf:li>Seat</rdf:li>
            <rdf:li>Campsa</rdf:li>
            <rdf:li>La Caixa</rdf:li>
            <rdf:li>Banc De Sabadell</rdf:li>
            <rdf:li>Europcar</rdf:li>
            <rdf:li>New Holland</rdf:li>
          </rdf:Bag>
        </dc:subject>
        <dc:description>Created in Inkscape with data from Google Earth.</dc:description>
      </cc:Work>
      <cc:License
         rdf:about="http://creativecommons.org/licenses/by-sa/3.0/">
        <cc:permits
           rdf:resource="http://creativecommons.org/ns#Reproduction" />
        <cc:permits
           rdf:resource="http://creativecommons.org/ns#Distribution" />
        <cc:requires
           rdf:resource="http://creativecommons.org/ns#Notice" />
        <cc:requires
           rdf:resource="http://creativecommons.org/ns#Attribution" />
        <cc:permits
           rdf:resource="http://creativecommons.org/ns#DerivativeWorks" />
        <cc:requires
           rdf:resource="http://creativecommons.org/ns#ShareAlike" />
      </cc:License>
    </rdf:RDF>
  </metadata>
  <g
     transform="translate(-930.50284,-997.61967)"
     id="layer1"
     inkscape:groupmode="layer"
     inkscape:label="Layer 1">
    <path
       transform="translate(930.50284,997.61967)"
       d="M 336.48438 37.208984 C 281.76376 37.106072 227.46183 37.644719 172.13477 39.261719 C 150.21557 39.899319 119.68678 49.3606 100.26758 59.25 C 76.617678 71.2939 56.634016 84.720969 38.697266 103.79297 C 25.129776 118.21917 15.289995 138.61711 9.984375 157.62891 C 5.719085 172.91291 4.8862525 190.73674 7.4453125 206.68164 C 10.070502 223.03854 16.330426 235.03241 24.691406 249.03711 C 32.281946 261.75121 43.700067 275.11562 56.992188 281.76172 C 85.174038 295.85262 117.51562 305.0819 146.57422 318.4375 C 183.79182 335.543 193.40738 356.11113 192.95508 395.70703 C 192.68078 419.72163 198.3041 445.23325 244.4707 446.37695 C 475.6186 452.10315 704.52752 446.64089 935.82422 447.15039 C 1066.6269 447.43849 1175.4313 448.01763 1303.6992 447.92383 C 1338.0155 447.89783 1363.6065 426.24005 1375.9414 411.81445 C 1387.135 398.72365 1395.4217 376.8544 1396.2793 359.0293 C 1397.5374 332.8782 1398.528 307.81844 1399.4434 283.49414 L 1399.4375 283.47852 C 1400.3795 258.42774 1401.2774 233.44244 1402.4062 206.68164 C 1403.1145 189.89294 1401.2407 170.66989 1394.2363 156.43359 C 1387.9868 143.73159 1374.1636 125.34637 1356.5684 118.35547 C 1347.6726 114.82098 1339.1077 111.52248 1330.7422 108.38086 L 1330.7383 108.37109 C 1291.1364 92.844494 1256.0134 82.158831 1213.3809 66.707031 C 1203.173 63.007231 1191.2467 59.922522 1181.0781 61.919922 C 1168.9146 64.309222 1154.5765 72.272594 1146.8066 81.558594 C 1138.2262 91.813194 1131.8044 106.23404 1129.4902 120.11914 C 1127.8165 130.16134 1131.9095 143.43704 1136.5352 151.64844 C 1147.2159 170.60854 1165.8611 177.64932 1184.668 183.94922 C 1201.8523 189.70562 1210.6199 192.4817 1214.5781 203.0918 C 1226.3027 234.5204 1235.4438 264.96803 1248.2207 300.89453 C 1255.9146 322.52873 1232.9566 335.95022 1214.7695 325.38672 C 1076.8966 245.30672 951.97482 168.17218 813.79492 83.455078 C 795.51322 72.246678 775.05996 62.328544 753.97656 59.527344 C 740.90836 57.791044 724.51162 58.3568 712.73242 61.4375 C 698.59042 65.1362 681.59078 74.424437 671.98438 86.210938 C 625.36168 143.41474 601.34191 186.48447 559.69531 248.10547 C 550.37311 261.89867 544.94576 279.56944 547.00586 295.21094 C 552.22746 334.85634 535.69889 363.07036 509.12109 364.60156 C 465.27449 367.12776 436.3971 363.48388 395.8418 362.26758 C 368.8975 361.45948 342.94793 350.8608 318.92383 338.0625 C 272.18243 313.1621 230.47266 288.72408 186.97266 260.02148 C 175.49376 252.44738 165.46648 240.26171 162.76758 228.56641 C 160.68108 219.52471 165.75329 204.03674 172.61719 196.96484 C 178.91329 190.47794 189.08543 187.2261 198.86523 187.4668 C 268.85763 189.1889 329.93068 188.32858 401.73828 185.14648 C 416.66478 184.48498 437.72127 173.26796 448.75977 163.53906 C 461.24977 152.53096 471.33089 141.95559 478.24609 126.74219 C 483.29449 115.63559 487.12849 101.4894 485.49609 89.654297 C 483.93819 78.359697 476.02926 62.442853 469.09766 54.814453 C 460.87976 45.770453 448.66244 38.160041 435.74414 37.994141 C 402.29902 37.564691 369.31674 37.270732 336.48438 37.208984 z "
       style="fill:none;fill-rule:evenodd;stroke:#fffa69;stroke-width:10;stroke-linecap:butt;stroke-linejoin:round;stroke-miterlimit:4;stroke-dasharray:none;stroke-opacity:1"
       id="path3965" />
  </g>
</svg>
