<?xml version="1.0" encoding="UTF-8" standalone="no"?>
<svg
   inkscape:export-ydpi="90.015755"
   inkscape:export-xdpi="90.015755"
   inkscape:export-filename="D:\Images\Race Tracks\Catalunya.png"
   inkscape:output_extension="org.inkscape.output.svg.inkscape"
   sodipodi:docname="Catalonia.svg"
   version="1.0"
   inkscape:version="1.4.3 (fcd0343856, 2026-01-01)"
   sodipodi:version="0.32"
   id="svg3942"
   height="517.72412"
   width="1408.546"
   xmlns:inkscape="http://www.inkscape.org/namespaces/inkscape"
   xmlns:sodipodi="http://sodipodi.sourceforge.net/DTD/sodipodi-0.dtd"
   xmlns:xlink="http://www.w3.org/1999/xlink"
   xmlns="http://www.w3.org/2000/svg"
   xmlns:svg="http://www.w3.org/2000/svg"
   xmlns:rdf="http://www.w3.org/1999/02/22-rdf-syntax-ns#"
   xmlns:cc="http://creativecommons.org/ns#"
   xmlns:dc="http://purl.org/dc/elements/1.1/">
  <defs
     id="defs3944">
    <clipPath
       id="clipPath9724"
       clipPathUnits="userSpaceOnUse">
      <path
         style="fill:#6a6a6a;fill-opacity:1;fill-rule:nonzero;stroke:#010101;stroke-width:0.94262564;stroke-linecap:round;stroke-linejoin:round;stroke-miterlimit:4;stroke-dasharray:none;stroke-dashoffset:0;stroke-opacity:1"
         d="M 727.23942,720.30758 C 1333.36,720.30758 1939.4804,720.30758 2545.601,720.30758 C 2545.601,974.89282 2545.601,1229.4779 2545.601,1484.0631 C 1939.4804,1484.0631 1333.36,1484.0631 727.23942,1484.0631 C 727.23942,1229.4779 727.23942,974.89282 727.23942,720.30758 L 727.23942,720.30758 z"
         id="path9726" />
    </clipPath>
    <pattern
       id="pattern4912"
       patternTransform="matrix(0.1737876,0,0,0.1737876,763.47719,1693.9071)"
       height="18.137641"
       width="18.181098"
       patternUnits="userSpaceOnUse">
      <g
         transform="translate(-1025.5348,-1215.2814)"
         id="g4907">
        <rect
           y="1215.2814"
           x="1025.5348"
           height="18.095789"
           width="18.172573"
           id="rect4899"
           style="opacity:1;fill:#fffa69;fill-opacity:1;stroke:none;stroke-width:0.5;stroke-linecap:round;stroke-linejoin:round;stroke-miterlimit:4;stroke-dasharray:none;stroke-dashoffset:0;stroke-opacity:1" />
        <rect
           y="1215.2814"
           x="1025.5348"
           height="9.0746527"
           width="9.0746527"
           id="rect4903"
           style="opacity:1;fill:#ffffff;fill-opacity:1;stroke:none;stroke-width:0.5;stroke-linecap:round;stroke-linejoin:round;stroke-miterlimit:4;stroke-dasharray:none;stroke-dashoffset:0;stroke-opacity:1" />
        <rect
           y="1224.3444"
           x="1034.6412"
           height="9.0746527"
           width="9.0746527"
           id="rect4905"
           style="opacity:1;fill:#ffffff;fill-opacity:1;stroke:none;stroke-width:0.5;stroke-linecap:round;stroke-linejoin:round;stroke-miterlimit:4;stroke-dasharray:none;stroke-dashoffset:0;stroke-opacity:1" />
      </g>
    </pattern>
    <pattern
       patternTransform="matrix(0.4562459,1.0584762e-8,-1.0584762e-8,0.4562459,1606.0059,1268.5349)"
       id="pattern4166"
       xlink:href="#pattern4912"
       inkscape:collect="always" />
  </defs>
  <sodipodi:namedview
     inkscape:document-rotation="0"
     inkscape:window-maximized="1"
     inkscape:window-y="0"
     inkscape:window-x="0"
     inkscape:window-height="933"
     inkscape:window-width="1210"
     showgrid="false"
     inkscape:current-layer="layer1"
     inkscape:document-units="px"
     inkscape:cy="292.88118"
     inkscape:cx="865.69302"
     inkscape:zoom="0.50191002"
     inkscape:pageshadow="0"
     inkscape:pageopacity="0.0"
     borderopacity="0.0"
     bordercolor="#ffffff"
     pagecolor="#ffffff"
     id="base"
     inkscape:showpageshadow="2"
     inkscape:pagecheckerboard="0"
     inkscape:deskcolor="#d1d1d1" />
  <metadata
     id="metadata3947">
    <rdf:RDF>
      <cc:Work
         rdf:about="">
        <dc:format>image/svg+xml</dc:format>
        <dc:type
           rdf:resource="http://purl.org/dc/dcmitype/StillImage" />
        <cc:license
           rdf:resource="http://creativecommons.org/licenses/by-sa/3.0/" />
        <dc:title>Track map for Catalunya</dc:title>
        <dc:date>8-5-2008</dc:date>
        <dc:creator>
          <cc:Agent>
            <dc:title>Will Pittneger</dc:title>
          </cc:Agent>
        </dc:creator>
        <dc:publisher>
          <cc:Agent>
            <dc:title>Will Pittenger</dc:title>
          </cc:Agent>
        </dc:publisher>
        <dc:subject>
          <rdf:Bag>
            <rdf:li>Catalunya</rdf:li>
            <rdf:li>Racing</rdf:li>
            <rdf:li>Formula 1</rdf:li>
            <rdf:li>road course</rdf:li>
            <rdf:li>Elf</rdf:li>
            <rdf:li>Renault</rdf:li>
            <rdf:li>Repsol</rdf:li>
            <rdf:li>Seat</rdf:li>
            <rdf:li>Campsa</rdf:li>
            <rdf:li>La Caixa</rdf:li>
            <rdf:li>Banc De Sabadell</rdf:li>
            <rdf:li>Europcar</rdf:li>
            <rdf:li>New Holland</rdf:li>
          </rdf:Bag>
        </dc:subject>
        <dc:description>Created in Inkscape with data from Google Earth.</dc:description>
      </cc:Work>
      <cc:License
         rdf:about="http://creativecommons.org/licenses/by-sa/3.0/">
        <cc:permits
           rdf:resource="http://creativecommons.org/ns#Reproduction" />
        <cc:permits
           rdf:resource="http://creativecommons.org/ns#Distribution" />
        <cc:requires
           rdf:resource="http://creativecommons.org/ns#Notice" />
        <cc:requires
           rdf:resource="http://creativecommons.org/ns#Attribution" />
        <cc:permits
           rdf:resource="http://creativecommons.org/ns#DerivativeWorks" />
        <cc:requires
           rdf:resource="http://creativecommons.org/ns#ShareAlike" />
      </cc:License>
    </rdf:RDF>
  </metadata>
  <g
     transform="translate(-930.50284,-997.61967)"
     id="layer1"
     inkscape:groupmode="layer"
     inkscape:label="Layer 1">

    <path
       id="path4492"
       d="M 2260.8418,1105.8482 C 2269.333,1109.0344 2278.0355,1112.3843 2287.072,1115.9747 C 2304.6672,1122.9656 2318.4903,1141.3511 2324.7398,1154.0531 C 2331.7442,1168.2894 2333.6173,1187.5117 2332.9091,1204.3004 C 2331.7701,1231.3014 2330.8671,1256.4984 2329.9158,1281.7753"
       style="fill:none;fill-rule:evenodd;stroke:#ffffff;stroke-width:12;stroke-linecap:butt;stroke-linejoin:round;stroke-miterlimit:4;stroke-dasharray:none;stroke-opacity:1" />
    <path
       sodipodi:nodetypes="ccssc"
       d="m 2329.9462,1281.1143 c 0.1344,-9.5912 -12.401,-18.3662 -22.599,-18.7434 -15.6867,-0.1243 -23.8783,-4.2575 -22.6293,-16.9191 3.6718,-37.2241 8.9099,-73.8926 11.209,-111.2433 1.0905,-17.7169 -20.6178,-22.7019 -34.6864,-28.2178"
       style="fill:none;fill-rule:evenodd;stroke:#ffffff;stroke-width:12;stroke-linecap:butt;stroke-linejoin:round;stroke-miterlimit:4;stroke-dasharray:none;stroke-opacity:1"
       id="path985" />
    <path
       style="fill:none;fill-rule:evenodd;stroke:#ffffff;stroke-width:11.5;stroke-linecap:butt;stroke-linejoin:miter;stroke-miterlimit:4;stroke-dasharray:none;stroke-opacity:1"
       d="m 2291.1617,1184.5524 c 0,0 0.4424,5.3984 0.6491,7.8086 0.2067,2.4102 0.744,5.0848 2.4881,7.044 1.7441,1.9592 2.6148,2.7563 6.1714,3.6203 3.5566,0.864 14.6852,0.2521 18.5506,1.0764 3.8654,0.8243 4.3642,1.3476 6.9087,3.0271 2.5445,1.6795 3.5769,2.9494 4.7814,5.8848 1.2045,2.9354 1.1034,11.4017 1.1034,11.4017 l 0.4744,5.4882"
       id="path987"
       inkscape:connector-curvature="0"
       sodipodi:nodetypes="czzzzzzcc" />
    <path
       style="fill:none;fill-rule:evenodd;stroke:#ffffff;stroke-width:7.8;stroke-linecap:butt;stroke-linejoin:round;stroke-miterlimit:4;stroke-dasharray:none;stroke-opacity:1"
       d="m 2327.633,1287.0867 c -0.5982,20.8491 -4.8888,40.3551 -9.1487,60.3415 -2.3699,11.1191 -6.3957,18.513 -11.297,28.5503 -4.4702,9.1543 -11.771,17.3681 -18.9923,24.675 -5.3904,5.4543 -11.2807,10.4848 -17.7959,14.6555 -6.6448,4.2537 -14.2323,8.5122 -21.6841,10.6177 -10.5435,2.9791 -22.1866,3.2323 -33.3486,3.5891 -27.8195,0.8894 -56.3631,1.8596 -83.5959,0.1496 l -57.9137,-0.6571 c -44.5277,0.7503 -20.4698,0.2507 -45.1034,0.1746 -10.6296,-0.033 -24.3442,0.4778 -35.0247,0.4938 -122.1657,0.1833 -244.6735,-1.8348 -366.8237,-0.7591 -42.0008,0.3699 -97.7232,4.9426 -139.6912,6.8336 -26.6235,1.1996 -26.4282,2.3712 -53.0343,3.8882 -18.8557,1.0751 -50.6784,4.9952 -69.5959,4.8331"
       id="path989"
       sodipodi:nodetypes="cssssssccssssss"
       inkscape:connector-curvature="0" />
    <path
       transform="translate(930.50284,997.61967)"
       d="M 336.48438 37.208984 C 281.76376 37.106072 227.46183 37.644719 172.13477 39.261719 C 150.21557 39.899319 119.68678 49.3606 100.26758 59.25 C 76.617678 71.2939 56.634016 84.720969 38.697266 103.79297 C 25.129776 118.21917 15.289995 138.61711 9.984375 157.62891 C 5.719085 172.91291 4.8862525 190.73674 7.4453125 206.68164 C 10.070502 223.03854 16.330426 235.03241 24.691406 249.03711 C 32.281946 261.75121 43.700067 275.11562 56.992188 281.76172 C 85.174038 295.85262 117.51562 305.0819 146.57422 318.4375 C 183.79182 335.543 193.40738 356.11113 192.95508 395.70703 C 192.68078 419.72163 198.3041 445.23325 244.4707 446.37695 C 475.6186 452.10315 704.52752 446.64089 935.82422 447.15039 C 1066.6269 447.43849 1175.4313 448.01763 1303.6992 447.92383 C 1338.0155 447.89783 1363.6065 426.24005 1375.9414 411.81445 C 1387.135 398.72365 1395.4217 376.8544 1396.2793 359.0293 C 1397.5374 332.8782 1398.528 307.81844 1399.4434 283.49414 L 1399.4375 283.47852 C 1400.3795 258.42774 1401.2774 233.44244 1402.4062 206.68164 C 1403.1145 189.89294 1401.2407 170.66989 1394.2363 156.43359 C 1387.9868 143.73159 1374.1636 125.34637 1356.5684 118.35547 C 1347.6726 114.82098 1339.1077 111.52248 1330.7422 108.38086 L 1330.7383 108.37109 C 1291.1364 92.844494 1256.0134 82.158831 1213.3809 66.707031 C 1203.173 63.007231 1191.2467 59.922522 1181.0781 61.919922 C 1168.9146 64.309222 1154.5765 72.272594 1146.8066 81.558594 C 1138.2262 91.813194 1131.8044 106.23404 1129.4902 120.11914 C 1127.8165 130.16134 1131.9095 143.43704 1136.5352 151.64844 C 1147.2159 170.60854 1165.8611 177.64932 1184.668 183.94922 C 1201.8523 189.70562 1210.6199 192.4817 1214.5781 203.0918 C 1226.3027 234.5204 1235.4438 264.96803 1248.2207 300.89453 C 1255.9146 322.52873 1232.9566 335.95022 1214.7695 325.38672 C 1076.8966 245.30672 951.97482 168.17218 813.79492 83.455078 C 795.51322 72.246678 775.05996 62.328544 753.97656 59.527344 C 740.90836 57.791044 724.51162 58.3568 712.73242 61.4375 C 698.59042 65.1362 681.59078 74.424437 671.98438 86.210938 C 625.36168 143.41474 601.34191 186.48447 559.69531 248.10547 C 550.37311 261.89867 544.94576 279.56944 547.00586 295.21094 C 552.22746 334.85634 535.69889 363.07036 509.12109 364.60156 C 465.27449 367.12776 436.3971 363.48388 395.8418 362.26758 C 368.8975 361.45948 342.94793 350.8608 318.92383 338.0625 C 272.18243 313.1621 230.47266 288.72408 186.97266 260.02148 C 175.49376 252.44738 165.46648 240.26171 162.76758 228.56641 C 160.68108 219.52471 165.75329 204.03674 172.61719 196.96484 C 178.91329 190.47794 189.08543 187.2261 198.86523 187.4668 C 268.85763 189.1889 329.93068 188.32858 401.73828 185.14648 C 416.66478 184.48498 437.72127 173.26796 448.75977 163.53906 C 461.24977 152.53096 471.33089 141.95559 478.24609 126.74219 C 483.29449 115.63559 487.12849 101.4894 485.49609 89.654297 C 483.93819 78.359697 476.02926 62.442853 469.09766 54.814453 C 460.87976 45.770453 448.66244 38.160041 435.74414 37.994141 C 402.29902 37.564691 369.31674 37.270732 336.48438 37.208984 z "
       style="fill:none;fill-rule:evenodd;stroke:#fffa69;stroke-width:10;stroke-linecap:butt;stroke-linejoin:round;stroke-miterlimit:4;stroke-dasharray:none;stroke-opacity:1"
       id="path3965" />
  </g>
</svg>
