<?xml version="1.0" encoding="UTF-8" standalone="no"?>
<svg
   inkscape:export-ydpi="90.015755"
   inkscape:export-xdpi="90.015755"
   inkscape:export-filename="D:\Images\Race Tracks\Brno (formerly Masarykův okruh).png"
   inkscape:output_extension="org.inkscape.output.svg.inkscape"
   sodipodi:docname="Czeciav.svg"
   version="1.0"
   inkscape:version="1.4.3 (fcd0343856, 2026-01-01)"
   sodipodi:version="0.32"
   id="svg3582"
   height="800.89453"
   width="1394.436"
   xmlns:inkscape="http://www.inkscape.org/namespaces/inkscape"
   xmlns:sodipodi="http://sodipodi.sourceforge.net/DTD/sodipodi-0.dtd"
   xmlns="http://www.w3.org/2000/svg"
   xmlns:svg="http://www.w3.org/2000/svg"
   xmlns:rdf="http://www.w3.org/1999/02/22-rdf-syntax-ns#"
   xmlns:cc="http://creativecommons.org/ns#"
   xmlns:dc="http://purl.org/dc/elements/1.1/">
  <defs
     id="defs1" />
  <sodipodi:namedview
     inkscape:window-maximized="1"
     inkscape:document-rotation="0"
     inkscape:showpageshadow="false"
     showborder="false"
     inkscape:window-y="0"
     inkscape:window-x="0"
     inkscape:window-height="933"
     inkscape:window-width="1210"
     showgrid="false"
     inkscape:current-layer="layer1"
     inkscape:document-units="px"
     inkscape:cy="575.71882"
     inkscape:cx="326.69373"
     inkscape:zoom="1.0300167"
     inkscape:pageshadow="0"
     inkscape:pageopacity="0.0"
     borderopacity="0.0"
     bordercolor="#ffffff"
     pagecolor="#ffffff"
     id="base"
     inkscape:snap-text-baseline="false"
     inkscape:pagecheckerboard="0"
     inkscape:deskcolor="#d1d1d1" />
  <metadata
     id="metadata3587">
    <rdf:RDF>
      <cc:Work
         rdf:about="">
        <dc:format>image/svg+xml</dc:format>
        <dc:type
           rdf:resource="http://purl.org/dc/dcmitype/StillImage" />
      </cc:Work>
    </rdf:RDF>
  </metadata>
  <g
     transform="translate(164.2099,-438.3449)"
     id="layer1"
     inkscape:groupmode="layer"
     inkscape:label="Layer 1">
    <path
       sodipodi:nodetypes="csssssssssssssssssssssss"
       id="path3618"
       d="m 83.085808,448.53944 c -52.176075,-0.7744 -109.433791,0.7844 -155.665025,-0.1787 -104.510203,-2.1756 -110.149883,154.5039 -18.781265,157.6266 46.692077,1.5947 71.152867,-1.6489 97.4651763,10.6636 C 131.45014,675.30374 247.87023,731.61856 369.63712,795.4987 c 33.53872,17.59472 38.1449,59.68178 -5.0454,91.2423 -71.37874,52.15881 -70.8998,87.65114 -30.59007,117.1304 98.99928,72.4002 170.98978,128.7766 269.27556,196.6195 22.09532,15.2516 56.29269,12.3087 69.61803,-14.5292 13.81961,-27.8336 19.53696,-54.0865 23.56174,-85.0831 2.08329,-16.0446 -7.25043,-39.355 -48.43065,-47.1922 -90.66897,-17.2556 -55.84626,-96.96231 -14.72861,-100.76931 53.38031,-4.94241 107.21457,-9.85306 142.45277,-11.43263 38.85365,-1.74163 48.01982,32.28494 37.6452,60.11374 -22.60298,60.63 41.49857,76.5071 59.12843,65.7053 112.32267,-68.82011 204.10638,-136.62983 320.73348,-206.2222 47.681,-28.45146 32.5908,-109.61472 -23.8553,-101.9171 -68.201,9.30069 -115.2261,13.37254 -181.77846,21.25124 -22.24162,2.633 -48.37133,-26.32043 -36.6984,-55.083 9.93587,-24.48219 8.98116,-65.15858 -28.85102,-67.47195 -142.9456,-8.73355 -260.98171,-17.76245 -403.58328,-26.46985 -37.16083,-2.2691 -42.68296,-33.4794 -34.40948,-61.326 24.72272,-83.4213 -20.19931,-122.4891 -83.06447,-123.0748 -106.10611,-0.9884 -211.95057,3.1236 -317.931382,1.5496 z"
       style="font-size:40px;fill:none;fill-rule:evenodd;stroke:#fffa69;stroke-width:15;stroke-linecap:butt;stroke-linejoin:round;stroke-miterlimit:4;stroke-dasharray:none;stroke-opacity:1"
       inkscape:connector-curvature="0" />
  </g>
</svg>
