<?xml version="1.0" encoding="UTF-8" standalone="no"?>
<svg
   xmlns:dc="http://purl.org/dc/elements/1.1/"
   xmlns:cc="http://creativecommons.org/ns#"
   xmlns:rdf="http://www.w3.org/1999/02/22-rdf-syntax-ns#"
   xmlns:svg="http://www.w3.org/2000/svg"
   xmlns="http://www.w3.org/2000/svg"
   xmlns:xlink="http://www.w3.org/1999/xlink"
   xmlns:sodipodi="http://sodipodi.sourceforge.net/DTD/sodipodi-0.dtd"
   xmlns:inkscape="http://www.inkscape.org/namespaces/inkscape"
   inkscape:export-ydpi="90.015755"
   inkscape:export-xdpi="90.015755"
   inkscape:export-filename="D:\Images\Race Tracks\Brno (formerly Masarykův okruh).png"
   inkscape:output_extension="org.inkscape.output.svg.inkscape"
   sodipodi:docname="Brno_(formerly_Masarykův_okruh).svg"
   version="1.0"
   inkscape:version="0.91 r13725"
   sodipodi:version="0.32"
   id="svg3582"
   height="800.89453"
   width="1394.436">
  <defs
     id="defs3584">
    <clipPath
       id="clipPath3490"
       clipPathUnits="userSpaceOnUse">
      <rect
         transform="matrix(-0.7183395,0.6956928,-0.6956928,-0.7183395,0,0)"
         y="104.1039"
         x="683.1405"
         height="1003.7479"
         width="1511.7875"
         id="rect3492"
         style="opacity:1;fill:#006a00;fill-opacity:1;fill-rule:nonzero;stroke:none" />
    </clipPath>
    <pattern
       id="pattern4912"
       patternTransform="matrix(0.1737876,0,0,0.1737876,763.47719,1693.9071)"
       height="18.137641"
       width="18.181098"
       patternUnits="userSpaceOnUse">
      <g
         transform="translate(-1025.5348,-1215.2814)"
         id="g4907">
        <rect
           y="1215.2814"
           x="1025.5348"
           height="18.095789"
           width="18.172573"
           id="rect4899"
           style="opacity:1;fill:#fffa69;fill-opacity:1;stroke:none;stroke-width:0.5;stroke-linecap:round;stroke-linejoin:round;stroke-miterlimit:4;stroke-dasharray:none;stroke-dashoffset:0;stroke-opacity:1" />
        <rect
           y="1215.2814"
           x="1025.5348"
           height="9.0746527"
           width="9.0746527"
           id="rect4903"
           style="opacity:1;fill:#ffffff;fill-opacity:1;stroke:none;stroke-width:0.5;stroke-linecap:round;stroke-linejoin:round;stroke-miterlimit:4;stroke-dasharray:none;stroke-dashoffset:0;stroke-opacity:1" />
        <rect
           y="1224.3444"
           x="1034.6412"
           height="9.0746527"
           width="9.0746527"
           id="rect4905"
           style="opacity:1;fill:#ffffff;fill-opacity:1;stroke:none;stroke-width:0.5;stroke-linecap:round;stroke-linejoin:round;stroke-miterlimit:4;stroke-dasharray:none;stroke-dashoffset:0;stroke-opacity:1" />
      </g>
    </pattern>
    <pattern
       patternTransform="matrix(0.4562459,1.6264824e-8,-1.6264824e-8,0.4562459,-1778.2267,454.6431)"
       id="pattern4166"
       xlink:href="#pattern4912"
       inkscape:collect="always" />
    <clipPath
       id="clipPath3494"
       clipPathUnits="userSpaceOnUse">
      <rect
         transform="matrix(-0.9472965,-0.3203582,0.9519016,-0.3064038,0,0)"
         y="-2372.1296"
         x="-4232.8457"
         height="1468.4177"
         width="2168.1926"
         id="rect3496"
         style="opacity:1;fill:#006a00;fill-opacity:1;fill-rule:nonzero;stroke:none" />
    </clipPath>
    <clipPath
       id="clipPath9716"
       clipPathUnits="userSpaceOnUse">
      <path
         style="fill:#6a6a6a;fill-opacity:1;fill-rule:nonzero;stroke:#010101;stroke-width:0.9426257;stroke-linecap:round;stroke-linejoin:round;stroke-miterlimit:4;stroke-dasharray:none;stroke-dashoffset:0;stroke-opacity:1"
         d="M 871.13547,932.36346 C 1314.8756,1345.252 1758.6155,1758.1404 2202.3556,2171.029 C 2375.7787,1984.6474 2549.2018,1798.266 2722.6249,1611.8845 C 2278.8848,1198.996 1835.1448,786.10758 1391.4047,373.21904 C 1217.9816,559.60052 1044.5586,745.98194 871.13547,932.36346 z"
         id="path9718" />
    </clipPath>
    <inkscape:perspective
       id="perspective3590"
       inkscape:persp3d-origin="372.04724 : 350.78739 : 1"
       inkscape:vp_z="744.09448 : 526.18109 : 1"
       inkscape:vp_y="0 : 1000 : 0"
       inkscape:vp_x="0 : 526.18109 : 1"
       sodipodi:type="inkscape:persp3d" />
    <inkscape:perspective
       sodipodi:type="inkscape:persp3d"
       inkscape:vp_x="0 : 526.18109 : 1"
       inkscape:vp_y="0 : 1000 : 0"
       inkscape:vp_z="744.09448 : 526.18109 : 1"
       inkscape:persp3d-origin="372.04724 : 350.78739 : 1"
       id="perspective3599" />
    <inkscape:perspective
       sodipodi:type="inkscape:persp3d"
       inkscape:vp_x="0 : 526.18109 : 1"
       inkscape:vp_y="0 : 1000 : 0"
       inkscape:vp_z="744.09448 : 526.18109 : 1"
       inkscape:persp3d-origin="372.04724 : 350.78739 : 1"
       id="perspective3612" />
  </defs>
  <sodipodi:namedview
     inkscape:window-maximized="1"
     inkscape:document-rotation="0"
     inkscape:showpageshadow="false"
     showborder="false"
     inkscape:window-y="-8"
     inkscape:window-x="-8"
     inkscape:window-height="971"
     inkscape:window-width="1280"
     showgrid="false"
     inkscape:current-layer="layer1"
     inkscape:document-units="px"
     inkscape:cy="342.28925"
     inkscape:cx="326.9176"
     inkscape:zoom="1.0300167"
     inkscape:pageshadow="0"
     inkscape:pageopacity="0.0"
     borderopacity="0.0"
     bordercolor="#ffffff"
     pagecolor="#ffffff"
     id="base"
     inkscape:snap-text-baseline="false" />
  <metadata
     id="metadata3587">
    <rdf:RDF>
      <cc:Work
         rdf:about="">
        <dc:format>image/svg+xml</dc:format>
        <dc:type
           rdf:resource="http://purl.org/dc/dcmitype/StillImage" />
      </cc:Work>
    </rdf:RDF>
  </metadata>
  <g
     transform="translate(164.2099,-438.3449)"
     id="layer1"
     inkscape:groupmode="layer"
     inkscape:label="Layer 1">
    <path
       style="fill:none;fill-rule:evenodd;stroke:#ffffff;stroke-width:7;stroke-linecap:butt;stroke-linejoin:round;stroke-miterlimit:4;stroke-dasharray:none;stroke-opacity:1"
       d="m 410.58008,1204.1329 c -18.53592,1.3947 -36.32449,-6.1188 -54.38176,-9.1399 -20.3808,-3.4098 -40.92857,-10.6395 -61.08077,-10.5978 -12.35593,0.025 -24.00887,8.9409 -36.4208,10.8101 -12.76553,1.9223 -26.05811,0.5052 -39.08879,0.5748 -49.44291,0.2629 -98.88832,0.4473 -148.331998,0.4214 -26.778746,-0.014 -53.638249,-1.6221 -80.3352451,-0.5427 -13.2195359,0.5346 -33.1682429,7.2714 -46.3581519,7.3212"
       id="path4291"
       sodipodi:nodetypes="csssssss"
       inkscape:connector-curvature="0" />
    <path
       style="font-size:40px;fill:none;fill-rule:evenodd;stroke:#ffffff;stroke-width:17;stroke-linecap:butt;stroke-linejoin:round;stroke-miterlimit:4;stroke-dasharray:none;stroke-opacity:1"
       d="m 83.085808,1208.0018 c -52.176075,0.7744 -109.433791,-0.7844 -155.665025,0.1787 -104.510203,2.1756 -110.149883,-154.5039 -18.781265,-157.6266 46.692077,-1.5947 71.152867,1.6489 97.4651763,-10.6636 C 131.45014,981.2375 247.87023,924.92268 369.63712,861.04254 c 33.53872,-17.59472 38.1449,-59.68178 -5.0454,-91.2423 -71.37874,-52.15881 -70.8998,-87.65114 -30.59007,-117.13042 98.99928,-72.40017 170.98978,-128.77658 269.27556,-196.61948 22.09532,-15.25161 56.29269,-12.30868 69.61803,14.52924 13.81961,27.83351 19.53696,54.08641 23.56174,85.08303 2.08329,16.04461 -7.25043,39.35505 -48.43065,47.19223 -90.66897,17.25556 -55.84626,96.96231 -14.72861,100.76931 53.38031,4.94241 107.21457,9.85306 142.45277,11.43263 38.85365,1.74163 48.01982,-32.28494 37.6452,-60.11378 -22.60298,-60.63001 41.49857,-76.50704 59.12843,-65.70522 112.32267,68.82007 204.10638,136.62979 320.73348,206.22216 47.681,28.45146 32.5908,109.61472 -23.8553,101.9171 -68.201,-9.30069 -115.2261,-13.37254 -181.77846,-21.25124 -22.24162,-2.633 -48.37133,26.32043 -36.6984,55.083 9.93587,24.48219 8.98116,65.15858 -28.85102,67.47195 -142.9456,8.73355 -260.98171,17.76245 -403.58328,26.46985 -37.16083,2.2691 -42.68296,33.4794 -34.40948,61.326 24.72272,83.4213 -20.19931,122.4891 -83.06447,123.0748 -106.10611,0.9884 -211.95057,-3.1236 -317.931382,-1.5496 z"
       id="path4289"
       sodipodi:nodetypes="csssssssssssssssssssssss"
       inkscape:connector-curvature="0" />
    <path
       sodipodi:nodetypes="csssssss"
       id="path4189"
       d="m 410.58008,1204.1329 c -18.53592,1.3947 -36.32449,-6.1188 -54.38176,-9.1399 -20.3808,-3.4098 -40.92857,-10.6395 -61.08077,-10.5978 -12.35593,0.025 -24.00887,8.9409 -36.4208,10.8101 -12.76553,1.9223 -26.05811,0.5052 -39.08879,0.5748 -49.44291,0.2629 -98.88832,0.4473 -148.331998,0.4214 -26.778746,-0.014 -53.638249,-1.6221 -80.3352451,-0.5427 -13.2195359,0.5346 -33.1682429,7.2714 -46.3581519,7.3212"
       style="fill:none;fill-rule:evenodd;stroke:#fffa69;stroke-width:5;stroke-linecap:butt;stroke-linejoin:round;stroke-miterlimit:4;stroke-dasharray:none;stroke-opacity:1"
       inkscape:connector-curvature="0" />
    <path
       sodipodi:nodetypes="csssssssssssssssssssssss"
       id="path3618"
       d="m 83.085808,1208.0018 c -52.176075,0.7744 -109.433791,-0.7844 -155.665025,0.1787 -104.510203,2.1756 -110.149883,-154.5039 -18.781265,-157.6266 46.692077,-1.5947 71.152867,1.6489 97.4651763,-10.6636 C 131.45014,981.2375 247.87023,924.92268 369.63712,861.04254 c 33.53872,-17.59472 38.1449,-59.68178 -5.0454,-91.2423 -71.37874,-52.15881 -70.8998,-87.65114 -30.59007,-117.13042 98.99928,-72.40017 170.98978,-128.77658 269.27556,-196.61948 22.09532,-15.25161 56.29269,-12.30868 69.61803,14.52924 13.81961,27.83351 19.53696,54.08641 23.56174,85.08303 2.08329,16.04461 -7.25043,39.35505 -48.43065,47.19223 -90.66897,17.25556 -55.84626,96.96231 -14.72861,100.76931 53.38031,4.94241 107.21457,9.85306 142.45277,11.43263 38.85365,1.74163 48.01982,-32.28494 37.6452,-60.11378 -22.60298,-60.63001 41.49857,-76.50704 59.12843,-65.70522 112.32267,68.82007 204.10638,136.62979 320.73348,206.22216 47.681,28.45146 32.5908,109.61472 -23.8553,101.9171 -68.201,-9.30069 -115.2261,-13.37254 -181.77846,-21.25124 -22.24162,-2.633 -48.37133,26.32043 -36.6984,55.083 9.93587,24.48219 8.98116,65.15858 -28.85102,67.47195 -142.9456,8.73355 -260.98171,17.76245 -403.58328,26.46985 -37.16083,2.2691 -42.68296,33.4794 -34.40948,61.326 24.72272,83.4213 -20.19931,122.4891 -83.06447,123.0748 -106.10611,0.9884 -211.95057,-3.1236 -317.931382,-1.5496 z"
       style="font-size:40px;fill:none;fill-rule:evenodd;stroke:#fffa69;stroke-width:15;stroke-linecap:butt;stroke-linejoin:round;stroke-miterlimit:4;stroke-dasharray:none;stroke-opacity:1"
       inkscape:connector-curvature="0" />
  </g>
</svg>
