<?xml version="1.0" encoding="UTF-8" standalone="no"?>
<svg
   xmlns:dc="http://purl.org/dc/elements/1.1/"
   xmlns:cc="http://creativecommons.org/ns#"
   xmlns:rdf="http://www.w3.org/1999/02/22-rdf-syntax-ns#"
   xmlns:svg="http://www.w3.org/2000/svg"
   xmlns="http://www.w3.org/2000/svg"
   xmlns:xlink="http://www.w3.org/1999/xlink"
   xmlns:sodipodi="http://sodipodi.sourceforge.net/DTD/sodipodi-0.dtd"
   xmlns:inkscape="http://www.inkscape.org/namespaces/inkscape"
   inkscape:export-ydpi="90.015755"
   inkscape:export-xdpi="90.015755"
   inkscape:export-filename="D:\Images\Race Tracks\Brno (formerly Masarykův okruh).png"
   inkscape:output_extension="org.inkscape.output.svg.inkscape"
   sodipodi:docname="Brno_(formerly_Masarykův_okruh).svg"
   version="1.0"
   inkscape:version="0.91 r13725"
   sodipodi:version="0.32"
   id="svg3582"
   height="800.89453"
   width="1394.436">
  <sodipodi:namedview
     inkscape:window-maximized="1"
     inkscape:document-rotation="0"
     inkscape:showpageshadow="false"
     showborder="false"
     inkscape:window-y="-8"
     inkscape:window-x="-8"
     inkscape:window-height="971"
     inkscape:window-width="1280"
     showgrid="false"
     inkscape:current-layer="layer1"
     inkscape:document-units="px"
     inkscape:cy="342.28925"
     inkscape:cx="326.9176"
     inkscape:zoom="1.0300167"
     inkscape:pageshadow="0"
     inkscape:pageopacity="0.0"
     borderopacity="0.0"
     bordercolor="#ffffff"
     pagecolor="#ffffff"
     id="base"
     inkscape:snap-text-baseline="false" />
  <metadata
     id="metadata3587">
    <rdf:RDF>
      <cc:Work
         rdf:about="">
        <dc:format>image/svg+xml</dc:format>
        <dc:type
           rdf:resource="http://purl.org/dc/dcmitype/StillImage" />
      </cc:Work>
    </rdf:RDF>
  </metadata>
  <g
     transform="translate(164.2099,-438.3449)"
     id="layer1"
     inkscape:groupmode="layer"
     inkscape:label="Layer 1">
    <path
       sodipodi:nodetypes="csssssssssssssssssssssss"
       id="path3618"
       d="m 83.085808,1208.0018 c -52.176075,0.7744 -109.433791,-0.7844 -155.665025,0.1787 -104.510203,2.1756 -110.149883,-154.5039 -18.781265,-157.6266 46.692077,-1.5947 71.152867,1.6489 97.4651763,-10.6636 C 131.45014,981.2375 247.87023,924.92268 369.63712,861.04254 c 33.53872,-17.59472 38.1449,-59.68178 -5.0454,-91.2423 -71.37874,-52.15881 -70.8998,-87.65114 -30.59007,-117.13042 98.99928,-72.40017 170.98978,-128.77658 269.27556,-196.61948 22.09532,-15.25161 56.29269,-12.30868 69.61803,14.52924 13.81961,27.83351 19.53696,54.08641 23.56174,85.08303 2.08329,16.04461 -7.25043,39.35505 -48.43065,47.19223 -90.66897,17.25556 -55.84626,96.96231 -14.72861,100.76931 53.38031,4.94241 107.21457,9.85306 142.45277,11.43263 38.85365,1.74163 48.01982,-32.28494 37.6452,-60.11378 -22.60298,-60.63001 41.49857,-76.50704 59.12843,-65.70522 112.32267,68.82007 204.10638,136.62979 320.73348,206.22216 47.681,28.45146 32.5908,109.61472 -23.8553,101.9171 -68.201,-9.30069 -115.2261,-13.37254 -181.77846,-21.25124 -22.24162,-2.633 -48.37133,26.32043 -36.6984,55.083 9.93587,24.48219 8.98116,65.15858 -28.85102,67.47195 -142.9456,8.73355 -260.98171,17.76245 -403.58328,26.46985 -37.16083,2.2691 -42.68296,33.4794 -34.40948,61.326 24.72272,83.4213 -20.19931,122.4891 -83.06447,123.0748 -106.10611,0.9884 -211.95057,-3.1236 -317.931382,-1.5496 z"
       style="font-size:40px;fill:none;fill-rule:evenodd;stroke:#fffa69;stroke-width:15;stroke-linecap:butt;stroke-linejoin:round;stroke-miterlimit:4;stroke-dasharray:none;stroke-opacity:1"
       inkscape:connector-curvature="0" />
  </g>
</svg>
