<?xml version="1.0" encoding="UTF-8" standalone="no"?>
<!-- Created with Inkscape (http://www.inkscape.org/) -->

<svg xmlns:dc="http://purl.org/dc/elements/1.1/" xmlns:cc="http://creativecommons.org/ns#" xmlns:rdf="http://www.w3.org/1999/02/22-rdf-syntax-ns#" xmlns:svg="http://www.w3.org/2000/svg" xmlns="http://www.w3.org/2000/svg" xmlns:xlink="http://www.w3.org/1999/xlink" xmlns:sodipodi="http://sodipodi.sourceforge.net/DTD/sodipodi-0.dtd" xmlns:inkscape="http://www.inkscape.org/namespaces/inkscape" width="1422.9579" height="702.55042" id="svg3036" version="1.1" inkscape:version="0.47 r22583" sodipodi:docname="Bugatti Circuit.svg" inkscape:export-filename="E:\Images\Maps\Race Tracks\Europe\France\LeMans\Bugatti Circuit.png" inkscape:export-xdpi="90" inkscape:export-ydpi="90">
  <title id="title6274">Track map for the Bugatti Circuit at LeMans</title>
  <defs id="defs3038">
    <filter color-interpolation-filters="sRGB" inkscape:collect="always" id="filter5277" x="-0.036581911" width="1.0731637" y="-0.16673841" height="1.3334768">
      <feGaussianBlur inkscape:collect="always" stdDeviation="4.5896484" id="feGaussianBlur5279" />
    </filter>
    <pattern inkscape:collect="always" xlink:href="#pattern4256" id="pattern4264" patternTransform="matrix(-0.7760302,9.7935943e-4,-9.7935943e-4,-0.7760302,-1599.8308,380.49)" />
    <inkscape:perspective id="perspective5412" inkscape:persp3d-origin="0.5 : 0.33333333 : 1" inkscape:vp_z="1 : 0.5 : 1" inkscape:vp_y="0 : 1000 : 0" inkscape:vp_x="0 : 0.5 : 1" sodipodi:type="inkscape:persp3d" />
    <inkscape:perspective id="perspective5604" inkscape:persp3d-origin="0.5 : 0.33333333 : 1" inkscape:vp_z="1 : 0.5 : 1" inkscape:vp_y="0 : 1000 : 0" inkscape:vp_x="0 : 0.5 : 1" sodipodi:type="inkscape:persp3d" />
    <inkscape:perspective id="perspective5604-1" inkscape:persp3d-origin="0.5 : 0.33333333 : 1" inkscape:vp_z="1 : 0.5 : 1" inkscape:vp_y="0 : 1000 : 0" inkscape:vp_x="0 : 0.5 : 1" sodipodi:type="inkscape:persp3d" />
    <inkscape:perspective id="perspective5604-4" inkscape:persp3d-origin="0.5 : 0.33333333 : 1" inkscape:vp_z="1 : 0.5 : 1" inkscape:vp_y="0 : 1000 : 0" inkscape:vp_x="0 : 0.5 : 1" sodipodi:type="inkscape:persp3d" />
    <inkscape:perspective id="perspective5681" inkscape:persp3d-origin="0.5 : 0.33333333 : 1" inkscape:vp_z="1 : 0.5 : 1" inkscape:vp_y="0 : 1000 : 0" inkscape:vp_x="0 : 0.5 : 1" sodipodi:type="inkscape:persp3d" />
    <inkscape:perspective id="perspective5681-1" inkscape:persp3d-origin="0.5 : 0.33333333 : 1" inkscape:vp_z="1 : 0.5 : 1" inkscape:vp_y="0 : 1000 : 0" inkscape:vp_x="0 : 0.5 : 1" sodipodi:type="inkscape:persp3d" />
    <inkscape:perspective id="perspective5681-14" inkscape:persp3d-origin="0.5 : 0.33333333 : 1" inkscape:vp_z="1 : 0.5 : 1" inkscape:vp_y="0 : 1000 : 0" inkscape:vp_x="0 : 0.5 : 1" sodipodi:type="inkscape:persp3d" />
    <inkscape:perspective id="perspective5681-16" inkscape:persp3d-origin="0.5 : 0.33333333 : 1" inkscape:vp_z="1 : 0.5 : 1" inkscape:vp_y="0 : 1000 : 0" inkscape:vp_x="0 : 0.5 : 1" sodipodi:type="inkscape:persp3d" />
    <inkscape:perspective id="perspective5681-8" inkscape:persp3d-origin="0.5 : 0.33333333 : 1" inkscape:vp_z="1 : 0.5 : 1" inkscape:vp_y="0 : 1000 : 0" inkscape:vp_x="0 : 0.5 : 1" sodipodi:type="inkscape:persp3d" />
    <inkscape:perspective id="perspective5681-4" inkscape:persp3d-origin="0.5 : 0.33333333 : 1" inkscape:vp_z="1 : 0.5 : 1" inkscape:vp_y="0 : 1000 : 0" inkscape:vp_x="0 : 0.5 : 1" sodipodi:type="inkscape:persp3d" />
    <inkscape:perspective id="perspective5681-41" inkscape:persp3d-origin="0.5 : 0.33333333 : 1" inkscape:vp_z="1 : 0.5 : 1" inkscape:vp_y="0 : 1000 : 0" inkscape:vp_x="0 : 0.5 : 1" sodipodi:type="inkscape:persp3d" />
    <inkscape:perspective id="perspective6159" inkscape:persp3d-origin="0.5 : 0.33333333 : 1" inkscape:vp_z="1 : 0.5 : 1" inkscape:vp_y="0 : 1000 : 0" inkscape:vp_x="0 : 0.5 : 1" sodipodi:type="inkscape:persp3d" />
  </defs>
  <sodipodi:namedview id="base" pagecolor="#ffffff" bordercolor="#666666" borderopacity="1.0" inkscape:pageopacity="0.0" inkscape:pageshadow="2" inkscape:zoom="0.87423529" inkscape:cx="711.47894" inkscape:cy="351.27521" inkscape:document-units="px" inkscape:current-layer="layer1" showgrid="false" showborder="false" inkscape:showpageshadow="false" inkscape:window-width="1677" inkscape:window-height="1030" inkscape:window-x="1672" inkscape:window-y="-8" inkscape:window-maximized="1" />
  <metadata id="metadata3041">
    <rdf:RDF>
      <cc:Work rdf:about="">
        <dc:format>image/svg+xml</dc:format>
        <dc:type rdf:resource="http://purl.org/dc/dcmitype/StillImage" />
        <dc:title>Track map for the Bugatti Circuit at LeMans</dc:title>
        <dc:date>January 17, 2010</dc:date>
        <dc:creator>
          <cc:Agent>
            <dc:title>Will Pittenger</dc:title>
          </cc:Agent>
        </dc:creator>
        <dc:publisher>
          <cc:Agent>
            <dc:title>Will Pittenger</dc:title>
          </cc:Agent>
        </dc:publisher>
        <dc:subject>
          <rdf:Bag>
            <rdf:li>LeMans</rdf:li>
            <rdf:li>Sarth</rdf:li>
            <rdf:li>France</rdf:li>
            <rdf:li>Le Mans</rdf:li>
            <rdf:li>Circuit de la Sarthe</rdf:li>
            <rdf:li>24 Hours of Le Mans</rdf:li>
            <rdf:li>Formula 1</rdf:li>
            <rdf:li>F1</rdf:li>
            <rdf:li>racing</rdf:li>
            <rdf:li>open wheel racing</rdf:li>
            <rdf:li>sports cars</rdf:li>
          </rdf:Bag>
        </dc:subject>
        <dc:description>Created in Inkscape.  The full outer circuit (use for the 24 hours of LeMans race) is shown in gray with #fffa69 dots.</dc:description>
        <cc:license rdf:resource="http://creativecommons.org/licenses/by-sa/3.0/" />
      </cc:Work>
      <cc:License rdf:about="http://creativecommons.org/licenses/by-sa/3.0/">
        <cc:permits rdf:resource="http://creativecommons.org/ns#Reproduction" />
        <cc:permits rdf:resource="http://creativecommons.org/ns#Distribution" />
        <cc:requires rdf:resource="http://creativecommons.org/ns#Notice" />
        <cc:requires rdf:resource="http://creativecommons.org/ns#Attribution" />
        <cc:permits rdf:resource="http://creativecommons.org/ns#DerivativeWorks" />
        <cc:requires rdf:resource="http://creativecommons.org/ns#ShareAlike" />
      </cc:License>
    </rdf:RDF>
  </metadata>
  <g inkscape:label="Layer 1" inkscape:groupmode="layer" id="layer1" transform="translate(408.65326,-153.92503)">
    <use x="0" y="0" xlink:href="#text5802" id="use5842" style="stroke:white;stroke-width:5;stroke-miterlimit:4;stroke-dasharray:none;filter:url(#filter5277)" width="744.09448" height="1052.3622" />
    <path style="fill:none" d="m 831.09323,514.41135 c -69.10813,39.23169 -138.2367,78.43305 -207.14559,118.01022 -18.34334,10.53532 -36.10502,22.10842 -54.61111,32.32727 -12.56575,6.93866 -25.49836,13.28302 -38.60441,19.14527 -23.61522,10.56293 -47.51523,20.57125 -71.55939,30.13027 -18.84963,7.49388 -37.86549,14.69162 -57.12196,21.02842 -13.48927,4.43896 -27.30115,7.9855 -41.11527,11.29885 -14.53763,3.48688 -29.19761,6.65406 -43.93997,9.10185 -12.98167,2.15545 -26.11147,3.81071 -39.23212,4.70785 -11.36019,0.77676 -22.91251,1.31564 -34.21041,0.31386 -9.93976,-0.88136 -20.18481,-2.41524 -29.50255,-5.96328 -20.08019,-7.64619 -39.38232,-17.9013 -58.69125,-27.61942 -28.29271,-14.23963 -55.774002,-30.31782 -84.11367,-44.25383 -3.359887,-1.65222 -7.293752,-2.28714 -10.984994,-2.51085 -3.213611,-0.19476 -6.728995,0.15522 -9.729565,1.25543 -3.276569,1.20141 -6.520228,3.21393 -9.101852,5.64942 -8.507989,8.0264 -15.633513,17.78843 -24.166986,25.73627 -2.137663,1.99096 -5.069203,3.20069 -7.8464242,4.08014 -3.4999176,1.10831 -7.3177611,1.82921 -10.9849936,1.88314 -3.4468588,0.0507 -7.1994035,-0.10626 -10.3572802,-1.56928 -38.166622,-17.68226 -75.669353,-37.39959 -113.616215,-55.86654 -13.00258,-6.32775 -25.85238,-13.16567 -39.23212,-18.51756 -7.02097,-2.80839 -14.57527,-4.28714 -21.96999,-5.96328 -8.29813,-1.88091 -16.66492,-3.81383 -25.10856,-4.70786 -9.34158,-0.98911 -18.84422,-0.40004 -28.24712,-0.94157 -10.57932,-0.60928 -21.25516,-0.89574 -31.69956,-2.51085 -9.85169,-1.52346 -19.78959,-3.66189 -29.1887,-6.90486 -8.49074,-2.92955 -16.76394,-7.03276 -24.48084,-11.61271 -5.15124,-3.05724 -10.27885,-6.76758 -14.12356,-11.29885 -4.94328,-5.82601 -9.35039,-12.72132 -12.24042,-19.77298 -2.34092,-5.71185 -3.13108,-12.30485 -3.45243,-18.51756 -0.30637,-5.92309 0.50439,-12.03292 1.56929,-17.88985 0.81825,-4.50035 2.31838,-8.95375 4.08014,-13.18199 1.8999,-4.55976 4.05109,-9.17672 6.90485,-13.182 3.10952,-4.36424 6.93272,-8.40056 10.98499,-11.92656 4.00339,-3.48347 8.44012,-6.75536 13.18199,-9.10185 5.40617,-2.67522 11.34911,-4.72926 17.26214,-5.96328 6.11816,-1.27683 12.55358,-1.56929 18.83142,-1.56929 6.48568,0 13.00209,0.78662 19.45913,1.56929 10.80509,1.30971 21.58354,2.94396 32.32726,4.70785 10.28469,1.68853 20.56101,3.50269 30.75799,5.64942 9.68063,2.03803 19.29014,4.44596 28.87484,6.90486 10.39752,2.66743 20.80823,5.35043 31.07184,8.47414 6.58005,2.00262 13.03147,4.44722 19.45913,6.90485 11.35757,4.3426 22.563172,9.08579 33.896549,13.49585 13.67056,5.31951 27.260054,10.89301 41.115262,15.69285 15.438109,5.3482 31.04013,10.3751 46.7646868,14.75127 6.4546682,1.79635 13.1567452,3.54575 19.7729882,3.76629 5.938036,0.19793 12.325896,-0.55023 17.889847,-2.51086 5.421043,-1.91027 10.682946,-5.34569 15.065134,-9.10185 3.673474,-3.14869 6.657056,-7.39934 9.101852,-11.61271 2.472296,-4.26077 4.373409,-9.05364 5.649425,-13.8097 1.025602,-3.8227 1.647294,-8.0079 1.255428,-11.92657 -0.549704,-5.49704 -1.857088,-11.2462 -4.08014,-16.32056 -2.589422,-5.91064 -6.415023,-11.45448 -10.35728,-16.63442 -5.054976,-6.642 -10.629243,-13.0281 -16.634419,-18.83142 -6.444484,-6.22786 -13.562822,-11.83873 -20.714559,-17.26213 -5.402542,-4.09693 -10.9513232,-8.18415 -16.9482762,-11.29885 -7.4988963,-3.89478 -15.5420968,-6.90704 -23.5392718,-9.72957 -9.788052,-3.45461 -19.792084,-6.38168 -29.816411,-9.10185 -10.794851,-2.92926 -21.6758,-5.67745 -32.641124,-7.84642 -8.075331,-1.59732 -16.310361,-2.37694 -24.480841,-3.45243 -45.08058,-5.93399 -90.14347,-12.02736 -135.27235,-17.57599 -44.21574,-5.43636 -88.76769,-9.33106 -132.7615,-15.37899 -3.18936,-0.43845 -6.28741,-2.1648 -8.78799,-4.08014 -2.41651,-1.85095 -4.41938,-4.55681 -5.96328,-7.21871 -1.49005,-2.56905 -3.20723,-5.52182 -3.13857,-8.47414 0.2452,-10.54353 1.72568,-21.63908 4.08014,-32.01341 0.99335,-4.37694 3.12866,-8.90557 5.96328,-12.24042 2.50095,-2.94229 6.38346,-5.18718 10.04342,-6.591 3.97723,-1.52551 8.5248,-2.08807 12.86814,-2.19699 29.03011,-0.72803 58.17159,-0.40225 87.25223,-0.31386 5.33901,0.0162 10.70525,-0.003 16.00671,0.62771 104.6531,12.44685 209.242019,25.70346 313.856958,38.60441 82.025332,10.11523 163.991572,20.97424 246.063862,30.44412 7.6908,0.8874 15.52986,1.08715 23.22541,0.62772 6.32339,-0.37752 12.85488,-1.22608 18.83142,-3.13857 4.48536,-1.43532 8.72202,-4.13384 12.55428,-6.90486 2.96798,-2.14608 5.75458,-4.85808 7.84642,-7.84642 2.30216,-3.2888 4.05581,-7.1457 5.33557,-10.98499 1.85881,-5.57642 2.00163,-11.79862 4.08014,-17.26214 1.58315,-4.16143 4.28392,-7.97914 6.90485,-11.6127 1.98231,-2.7482 4.28781,-5.38424 6.90486,-7.53257 4.39242,-3.60572 8.95627,-7.40429 14.12356,-9.72957 9.47937,-4.26572 19.6845,-7.34619 29.81641,-10.04342 81.82818,-21.78361 163.87994,-43.31841 246.06386,-63.39911 5.59141,-1.3662 11.5342,-1.16842 17.26213,-0.94157 4.83859,0.19163 9.91208,0.65176 14.43742,2.197 4.05342,1.3841 8.13496,3.70223 11.29885,6.591 4.05482,3.70223 7.25455,8.55511 10.35728,13.18199 2.86055,4.26573 5.55416,8.78259 7.53257,13.49585 1.57864,3.76088 2.8304,7.87632 3.13857,11.92657 0.42416,5.57469 -0.25077,11.3406 -0.94157,16.94827 -1.08772,8.82975 -3.03458,17.56014 -4.394,26.36399 -0.83758,5.42434 -1.89616,10.85526 -2.197,16.32056 -0.32687,5.93817 -0.52974,12.04091 0.31386,17.88984 0.72569,5.03144 2.27277,10.13763 4.39399,14.75128 2.06354,4.48821 4.75033,9.00608 8.16029,12.55428 4.33185,4.50746 9.49289,8.82659 15.06513,11.61271 5.93585,2.96793 12.83786,4.62287 19.45913,5.64942 6.87458,1.06583 14.09451,1.32989 21.02842,0.62772 9.59589,-0.97174 19.20023,-3.10893 28.56098,-5.64943 40.75174,-11.05997 81.08784,-23.93089 121.7765,-35.15198 2.93746,-0.81009 6.19207,-1.40921 9.10185,-0.94157 2.94888,0.47393 6.60689,1.52558 8.47414,3.76628 3.3637,4.03644 5.40744,9.81554 7.21871,15.06514 4.36125,12.64025 8.32224,25.62308 11.29885,38.6044 0.78967,3.44386 0.88006,7.38557 0,10.67114 -0.68922,2.57309 -2.32151,5.49213 -4.70785,6.90485 -49.92315,29.5545 -101.54002,57.22616 -152.22063,85.99681 z" id="path3060" sodipodi:nodetypes="csssssssssssssssssssssssssssssssssssssssssssssssssssssssssssssssssssssssssssssssssssssssssssssssssssssssssssss" />
    <use x="0" y="0" xlink:href="#path3060" id="use3856" style="stroke:#fffa69;stroke-width:10;stroke-miterlimit:4;stroke-opacity:1;stroke-dasharray:none" width="744.09448" height="1052.3622" />
  </g>
</svg>
