<?xml version="1.0" encoding="UTF-8" standalone="no"?>
<!-- Created with Inkscape (http://www.inkscape.org/) -->

<svg xmlns:dc="http://purl.org/dc/elements/1.1/" xmlns:cc="http://creativecommons.org/ns#" xmlns:rdf="http://www.w3.org/1999/02/22-rdf-syntax-ns#" xmlns:svg="http://www.w3.org/2000/svg" xmlns="http://www.w3.org/2000/svg" xmlns:xlink="http://www.w3.org/1999/xlink" xmlns:sodipodi="http://sodipodi.sourceforge.net/DTD/sodipodi-0.dtd" xmlns:inkscape="http://www.inkscape.org/namespaces/inkscape" width="1422.9579" height="702.55042" id="svg3036" version="1.1" inkscape:version="0.47 r22583" sodipodi:docname="Bugatti Circuit.svg" inkscape:export-filename="E:\Images\Maps\Race Tracks\Europe\France\LeMans\Bugatti Circuit.png" inkscape:export-xdpi="90" inkscape:export-ydpi="90">
  <title id="title6274">Track map for the Bugatti Circuit at LeMans</title>
  <defs id="defs3038">
    <filter color-interpolation-filters="sRGB" inkscape:collect="always" id="filter5277" x="-0.036581911" width="1.0731637" y="-0.16673841" height="1.3334768">
      <feGaussianBlur inkscape:collect="always" stdDeviation="4.5896484" id="feGaussianBlur5279" />
    </filter>

    <pattern inkscape:collect="always" xlink:href="#pattern4256" id="pattern4264" patternTransform="matrix(-0.7760302,9.7935943e-4,-9.7935943e-4,-0.7760302,-1599.8308,380.49)" />


    <inkscape:perspective id="perspective5412" inkscape:persp3d-origin="0.5 : 0.33333333 : 1" inkscape:vp_z="1 : 0.5 : 1" inkscape:vp_y="0 : 1000 : 0" inkscape:vp_x="0 : 0.5 : 1" sodipodi:type="inkscape:persp3d" />
    <inkscape:perspective id="perspective5604" inkscape:persp3d-origin="0.5 : 0.33333333 : 1" inkscape:vp_z="1 : 0.5 : 1" inkscape:vp_y="0 : 1000 : 0" inkscape:vp_x="0 : 0.5 : 1" sodipodi:type="inkscape:persp3d" />
    <inkscape:perspective id="perspective5604-1" inkscape:persp3d-origin="0.5 : 0.33333333 : 1" inkscape:vp_z="1 : 0.5 : 1" inkscape:vp_y="0 : 1000 : 0" inkscape:vp_x="0 : 0.5 : 1" sodipodi:type="inkscape:persp3d" />
    <inkscape:perspective id="perspective5604-4" inkscape:persp3d-origin="0.5 : 0.33333333 : 1" inkscape:vp_z="1 : 0.5 : 1" inkscape:vp_y="0 : 1000 : 0" inkscape:vp_x="0 : 0.5 : 1" sodipodi:type="inkscape:persp3d" />
    <inkscape:perspective id="perspective5681" inkscape:persp3d-origin="0.5 : 0.33333333 : 1" inkscape:vp_z="1 : 0.5 : 1" inkscape:vp_y="0 : 1000 : 0" inkscape:vp_x="0 : 0.5 : 1" sodipodi:type="inkscape:persp3d" />
    <inkscape:perspective id="perspective5681-1" inkscape:persp3d-origin="0.5 : 0.33333333 : 1" inkscape:vp_z="1 : 0.5 : 1" inkscape:vp_y="0 : 1000 : 0" inkscape:vp_x="0 : 0.5 : 1" sodipodi:type="inkscape:persp3d" />
    <inkscape:perspective id="perspective5681-14" inkscape:persp3d-origin="0.5 : 0.33333333 : 1" inkscape:vp_z="1 : 0.5 : 1" inkscape:vp_y="0 : 1000 : 0" inkscape:vp_x="0 : 0.5 : 1" sodipodi:type="inkscape:persp3d" />
    <inkscape:perspective id="perspective5681-16" inkscape:persp3d-origin="0.5 : 0.33333333 : 1" inkscape:vp_z="1 : 0.5 : 1" inkscape:vp_y="0 : 1000 : 0" inkscape:vp_x="0 : 0.5 : 1" sodipodi:type="inkscape:persp3d" />
    <inkscape:perspective id="perspective5681-8" inkscape:persp3d-origin="0.5 : 0.33333333 : 1" inkscape:vp_z="1 : 0.5 : 1" inkscape:vp_y="0 : 1000 : 0" inkscape:vp_x="0 : 0.5 : 1" sodipodi:type="inkscape:persp3d" />
    <inkscape:perspective id="perspective5681-4" inkscape:persp3d-origin="0.5 : 0.33333333 : 1" inkscape:vp_z="1 : 0.5 : 1" inkscape:vp_y="0 : 1000 : 0" inkscape:vp_x="0 : 0.5 : 1" sodipodi:type="inkscape:persp3d" />
    <inkscape:perspective id="perspective5681-41" inkscape:persp3d-origin="0.5 : 0.33333333 : 1" inkscape:vp_z="1 : 0.5 : 1" inkscape:vp_y="0 : 1000 : 0" inkscape:vp_x="0 : 0.5 : 1" sodipodi:type="inkscape:persp3d" />
    <inkscape:perspective id="perspective6159" inkscape:persp3d-origin="0.5 : 0.33333333 : 1" inkscape:vp_z="1 : 0.5 : 1" inkscape:vp_y="0 : 1000 : 0" inkscape:vp_x="0 : 0.5 : 1" sodipodi:type="inkscape:persp3d" />

  </defs>
  <sodipodi:namedview id="base" pagecolor="#ffffff" bordercolor="#666666" borderopacity="1.0" inkscape:pageopacity="0.0" inkscape:pageshadow="2" inkscape:zoom="0.87423529" inkscape:cx="711.47894" inkscape:cy="351.27521" inkscape:document-units="px" inkscape:current-layer="layer1" showgrid="false" showborder="false" inkscape:showpageshadow="false" inkscape:window-width="1677" inkscape:window-height="1030" inkscape:window-x="1672" inkscape:window-y="-8" inkscape:window-maximized="1" />
  <metadata id="metadata3041">
    <rdf:RDF>
      <cc:Work rdf:about="">
        <dc:format>image/svg+xml</dc:format>
        <dc:type rdf:resource="http://purl.org/dc/dcmitype/StillImage" />
        <dc:title>Track map for the Bugatti Circuit at LeMans</dc:title>
        <dc:date>January 17, 2010</dc:date>
        <dc:creator>
          <cc:Agent>
            <dc:title>Will Pittenger</dc:title>
          </cc:Agent>
        </dc:creator>
        <dc:publisher>
          <cc:Agent>
            <dc:title>Will Pittenger</dc:title>
          </cc:Agent>
        </dc:publisher>
        <dc:subject>
          <rdf:Bag>
            <rdf:li>LeMans</rdf:li>
            <rdf:li>Sarth</rdf:li>
            <rdf:li>France</rdf:li>
            <rdf:li>Le Mans</rdf:li>
            <rdf:li>Circuit de la Sarthe</rdf:li>
            <rdf:li>24 Hours of Le Mans</rdf:li>
            <rdf:li>Formula 1</rdf:li>
            <rdf:li>F1</rdf:li>
            <rdf:li>racing</rdf:li>
            <rdf:li>open wheel racing</rdf:li>
            <rdf:li>sports cars</rdf:li>
          </rdf:Bag>
        </dc:subject>
        <dc:description>Created in Inkscape.  The full outer circuit (use for the 24 hours of LeMans race) is shown in gray with #fffa69 dots.</dc:description>
        <cc:license rdf:resource="http://creativecommons.org/licenses/by-sa/3.0/" />
      </cc:Work>
      <cc:License rdf:about="http://creativecommons.org/licenses/by-sa/3.0/">
        <cc:permits rdf:resource="http://creativecommons.org/ns#Reproduction" />
        <cc:permits rdf:resource="http://creativecommons.org/ns#Distribution" />
        <cc:requires rdf:resource="http://creativecommons.org/ns#Notice" />
        <cc:requires rdf:resource="http://creativecommons.org/ns#Attribution" />
        <cc:permits rdf:resource="http://creativecommons.org/ns#DerivativeWorks" />
        <cc:requires rdf:resource="http://creativecommons.org/ns#ShareAlike" />
      </cc:License>
    </rdf:RDF>
  </metadata>
  <g inkscape:label="Layer 1" inkscape:groupmode="layer" id="layer1" transform="translate(408.65326,-153.92503)">
    <use x="0" y="0" xlink:href="#text5802" id="use5842" style="stroke:white;stroke-width:5;stroke-miterlimit:4;stroke-dasharray:none;filter:url(#filter5277)" width="744.09448" height="1052.3622" />



    <path style="fill:none" d="m 831.09323,514.41135 c -69.10813,39.23169 -138.2367,78.43305 -207.14559,118.01022 -18.34334,10.53532 -36.10502,22.10842 -54.61111,32.32727 -12.56575,6.93866 -25.49836,13.28302 -38.60441,19.14527 -23.61522,10.56293 -47.51523,20.57125 -71.55939,30.13027 -18.84963,7.49388 -37.86549,14.69162 -57.12196,21.02842 -13.48927,4.43896 -27.30115,7.9855 -41.11527,11.29885 -14.53763,3.48688 -29.19761,6.65406 -43.93997,9.10185 -12.98167,2.15545 -26.11147,3.81071 -39.23212,4.70785 -11.36019,0.77676 -22.91251,1.31564 -34.21041,0.31386 -9.93976,-0.88136 -20.18481,-2.41524 -29.50255,-5.96328 -20.08019,-7.64619 -39.38232,-17.9013 -58.69125,-27.61942 -28.29271,-14.23963 -55.774002,-30.31782 -84.11367,-44.25383 -3.359887,-1.65222 -7.293752,-2.28714 -10.984994,-2.51085 -3.213611,-0.19476 -6.728995,0.15522 -9.729565,1.25543 -3.276569,1.20141 -6.520228,3.21393 -9.101852,5.64942 -8.507989,8.0264 -15.633513,17.78843 -24.166986,25.73627 -2.137663,1.99096 -5.069203,3.20069 -7.8464242,4.08014 -3.4999176,1.10831 -7.3177611,1.82921 -10.9849936,1.88314 -3.4468588,0.0507 -7.1994035,-0.10626 -10.3572802,-1.56928 -38.166622,-17.68226 -75.669353,-37.39959 -113.616215,-55.86654 -13.00258,-6.32775 -25.85238,-13.16567 -39.23212,-18.51756 -7.02097,-2.80839 -14.57527,-4.28714 -21.96999,-5.96328 -8.29813,-1.88091 -16.66492,-3.81383 -25.10856,-4.70786 -9.34158,-0.98911 -18.84422,-0.40004 -28.24712,-0.94157 -10.57932,-0.60928 -21.25516,-0.89574 -31.69956,-2.51085 -9.85169,-1.52346 -19.78959,-3.66189 -29.1887,-6.90486 -8.49074,-2.92955 -16.76394,-7.03276 -24.48084,-11.61271 -5.15124,-3.05724 -10.27885,-6.76758 -14.12356,-11.29885 -4.94328,-5.82601 -9.35039,-12.72132 -12.24042,-19.77298 -2.34092,-5.71185 -3.13108,-12.30485 -3.45243,-18.51756 -0.30637,-5.92309 0.50439,-12.03292 1.56929,-17.88985 0.81825,-4.50035 2.31838,-8.95375 4.08014,-13.18199 1.8999,-4.55976 4.05109,-9.17672 6.90485,-13.182 3.10952,-4.36424 6.93272,-8.40056 10.98499,-11.92656 4.00339,-3.48347 8.44012,-6.75536 13.18199,-9.10185 5.40617,-2.67522 11.34911,-4.72926 17.26214,-5.96328 6.11816,-1.27683 12.55358,-1.56929 18.83142,-1.56929 6.48568,0 13.00209,0.78662 19.45913,1.56929 10.80509,1.30971 21.58354,2.94396 32.32726,4.70785 10.28469,1.68853 20.56101,3.50269 30.75799,5.64942 9.68063,2.03803 19.29014,4.44596 28.87484,6.90486 10.39752,2.66743 20.80823,5.35043 31.07184,8.47414 6.58005,2.00262 13.03147,4.44722 19.45913,6.90485 11.35757,4.3426 22.563172,9.08579 33.896549,13.49585 13.67056,5.31951 27.260054,10.89301 41.115262,15.69285 15.438109,5.3482 31.04013,10.3751 46.7646868,14.75127 6.4546682,1.79635 13.1567452,3.54575 19.7729882,3.76629 5.938036,0.19793 12.325896,-0.55023 17.889847,-2.51086 5.421043,-1.91027 10.682946,-5.34569 15.065134,-9.10185 3.673474,-3.14869 6.657056,-7.39934 9.101852,-11.61271 2.472296,-4.26077 4.373409,-9.05364 5.649425,-13.8097 1.025602,-3.8227 1.647294,-8.0079 1.255428,-11.92657 -0.549704,-5.49704 -1.857088,-11.2462 -4.08014,-16.32056 -2.589422,-5.91064 -6.415023,-11.45448 -10.35728,-16.63442 -5.054976,-6.642 -10.629243,-13.0281 -16.634419,-18.83142 -6.444484,-6.22786 -13.562822,-11.83873 -20.714559,-17.26213 -5.402542,-4.09693 -10.9513232,-8.18415 -16.9482762,-11.29885 -7.4988963,-3.89478 -15.5420968,-6.90704 -23.5392718,-9.72957 -9.788052,-3.45461 -19.792084,-6.38168 -29.816411,-9.10185 -10.794851,-2.92926 -21.6758,-5.67745 -32.641124,-7.84642 -8.075331,-1.59732 -16.310361,-2.37694 -24.480841,-3.45243 -45.08058,-5.93399 -90.14347,-12.02736 -135.27235,-17.57599 -44.21574,-5.43636 -88.76769,-9.33106 -132.7615,-15.37899 -3.18936,-0.43845 -6.28741,-2.1648 -8.78799,-4.08014 -2.41651,-1.85095 -4.41938,-4.55681 -5.96328,-7.21871 -1.49005,-2.56905 -3.20723,-5.52182 -3.13857,-8.47414 0.2452,-10.54353 1.72568,-21.63908 4.08014,-32.01341 0.99335,-4.37694 3.12866,-8.90557 5.96328,-12.24042 2.50095,-2.94229 6.38346,-5.18718 10.04342,-6.591 3.97723,-1.52551 8.5248,-2.08807 12.86814,-2.19699 29.03011,-0.72803 58.17159,-0.40225 87.25223,-0.31386 5.33901,0.0162 10.70525,-0.003 16.00671,0.62771 104.6531,12.44685 209.242019,25.70346 313.856958,38.60441 82.025332,10.11523 163.991572,20.97424 246.063862,30.44412 7.6908,0.8874 15.52986,1.08715 23.22541,0.62772 6.32339,-0.37752 12.85488,-1.22608 18.83142,-3.13857 4.48536,-1.43532 8.72202,-4.13384 12.55428,-6.90486 2.96798,-2.14608 5.75458,-4.85808 7.84642,-7.84642 2.30216,-3.2888 4.05581,-7.1457 5.33557,-10.98499 1.85881,-5.57642 2.00163,-11.79862 4.08014,-17.26214 1.58315,-4.16143 4.28392,-7.97914 6.90485,-11.6127 1.98231,-2.7482 4.28781,-5.38424 6.90486,-7.53257 4.39242,-3.60572 8.95627,-7.40429 14.12356,-9.72957 9.47937,-4.26572 19.6845,-7.34619 29.81641,-10.04342 81.82818,-21.78361 163.87994,-43.31841 246.06386,-63.39911 5.59141,-1.3662 11.5342,-1.16842 17.26213,-0.94157 4.83859,0.19163 9.91208,0.65176 14.43742,2.197 4.05342,1.3841 8.13496,3.70223 11.29885,6.591 4.05482,3.70223 7.25455,8.55511 10.35728,13.18199 2.86055,4.26573 5.55416,8.78259 7.53257,13.49585 1.57864,3.76088 2.8304,7.87632 3.13857,11.92657 0.42416,5.57469 -0.25077,11.3406 -0.94157,16.94827 -1.08772,8.82975 -3.03458,17.56014 -4.394,26.36399 -0.83758,5.42434 -1.89616,10.85526 -2.197,16.32056 -0.32687,5.93817 -0.52974,12.04091 0.31386,17.88984 0.72569,5.03144 2.27277,10.13763 4.39399,14.75128 2.06354,4.48821 4.75033,9.00608 8.16029,12.55428 4.33185,4.50746 9.49289,8.82659 15.06513,11.61271 5.93585,2.96793 12.83786,4.62287 19.45913,5.64942 6.87458,1.06583 14.09451,1.32989 21.02842,0.62772 9.59589,-0.97174 19.20023,-3.10893 28.56098,-5.64943 40.75174,-11.05997 81.08784,-23.93089 121.7765,-35.15198 2.93746,-0.81009 6.19207,-1.40921 9.10185,-0.94157 2.94888,0.47393 6.60689,1.52558 8.47414,3.76628 3.3637,4.03644 5.40744,9.81554 7.21871,15.06514 4.36125,12.64025 8.32224,25.62308 11.29885,38.6044 0.78967,3.44386 0.88006,7.38557 0,10.67114 -0.68922,2.57309 -2.32151,5.49213 -4.70785,6.90485 -49.92315,29.5545 -101.54002,57.22616 -152.22063,85.99681 z" id="path3060" sodipodi:nodetypes="csssssssssssssssssssssssssssssssssssssssssssssssssssssssssssssssssssssssssssssssssssssssssssssssssssssssssssss" />




    <use x="0" y="0" xlink:href="#path3060" id="use3856" style="stroke:#fffa69;stroke-width:10;stroke-miterlimit:4;stroke-opacity:1;stroke-dasharray:none" width="744.09448" height="1052.3622" />




    
    
    <g id="g6189">
      <use style="stroke:white;stroke-width:5;stroke-miterlimit:4;stroke-dasharray:none;filter:url(#filter5277)" id="use5844" xlink:href="#text5810" y="0" x="0" width="744.09448" height="1052.3622" />

      <g style="font-size:32px;font-style:normal;font-variant:normal;font-weight:normal;font-stretch:normal;text-align:center;line-height:100%;writing-mode:lr-tb;text-anchor:middle;color:#fffa69;fill:#fffa69;fill-opacity:1;fill-rule:nonzero;display:inline;overflow:visible;enable-background:accumulate;font-family:Times New Roman;-inkscape-font-specification:Times New Roman" id="text5810">
        <path d="m -356.55291,494.57426 0.39147,-0.35297 3.58779,4.84514 -9.63975,13.27554 -0.46781,-0.33968 0.46822,-0.64482 c 0.52636,-0.72488 0.66676,-1.41463 0.4212,-2.06925 -0.1412,-0.37286 -0.70067,-0.91428 -1.67843,-1.62426 l -11.06295,-8.03313 c -1.07046,-0.77729 -1.82624,-1.14586 -2.26736,-1.10572 -0.60955,0.0594 -1.14998,0.41367 -1.62127,1.06268 l -0.46822,0.64481 -0.4678,-0.33969 5.63696,-7.76303 0.46781,0.33969 c -0.66943,0.90422 -1.04877,1.60391 -1.13802,2.09908 -0.0892,0.49521 -0.0479,0.90816 0.12385,1.23886 0.17181,0.33074 0.76766,0.86638 1.78755,1.60695 l 10.77215,7.82197 c 0.6996,0.50801 1.22901,0.78945 1.58824,0.84431 0.25045,0.0274 0.49433,-0.0337 0.73163,-0.1832 0.2373,-0.14951 0.75684,-0.77637 1.55863,-1.88056 l 0.90889,-1.2517 c 0.95479,-1.3149 1.52805,-2.30825 1.71978,-2.98005 0.19172,-0.67178 0.20017,-1.40585 0.0254,-2.20222 -0.17484,-0.79633 -0.63414,-1.79925 -1.37791,-3.00875 z" style="" id="path6298" />
        <path d="m -345.74729,489.35092 c -0.27502,1.83597 -0.48666,2.9476 -0.63491,3.3349 -0.226,0.57719 -0.56841,1.08559 -1.02721,1.52518 -0.71454,0.68463 -1.53731,1.00409 -2.46831,0.9584 -0.93099,-0.0457 -1.77844,-0.46717 -2.54233,-1.26445 -0.48284,-0.50394 -0.788,-1.04828 -0.91548,-1.63303 -0.18166,-0.80693 -0.10698,-1.80177 0.22406,-2.98453 0.33103,-1.18274 1.0742,-2.94791 2.2295,-5.29552 l -0.38915,-0.40616 c -0.9873,-1.03042 -1.8283,-1.5807 -2.52302,-1.65082 -0.69472,-0.0701 -1.35422,0.19392 -1.97851,0.79205 -0.47384,0.45403 -0.7274,0.94222 -0.76068,1.46458 -0.0408,0.52959 0.0974,0.95985 0.41444,1.29078 l 0.64954,0.63275 c 0.3315,0.346 0.49896,0.69769 0.50236,1.05507 0.003,0.3574 -0.13779,0.67302 -0.42361,0.94686 -0.27828,0.26665 -0.59949,0.38687 -0.96362,0.36066 -0.36412,-0.0262 -0.70833,-0.20853 -1.03263,-0.54701 -0.61976,-0.64683 -0.85813,-1.55812 -0.71512,-2.73385 0.14302,-1.17571 0.81248,-2.33649 2.00839,-3.48235 0.91762,-0.87918 1.8175,-1.44565 2.69964,-1.6994 0.66718,-0.192 1.34388,-0.14069 2.03011,0.15392 0.44527,0.19372 1.14714,0.79075 2.10561,1.79109 l 3.36186,3.50877 c 0.94405,0.98532 1.54118,1.5709 1.79139,1.75674 0.25019,0.18586 0.45457,0.27496 0.61314,0.26728 0.15856,-0.008 0.29425,-0.0655 0.40708,-0.17363 0.12034,-0.1153 0.20041,-0.24252 0.24023,-0.38165 0.0643,-0.24911 0.10584,-0.81551 0.12474,-1.6992 l 0.60536,0.6318 c 0.23857,1.93537 -0.0257,3.27058 -0.79292,4.00564 -0.36856,0.35312 -0.78441,0.50632 -1.24755,0.45957 -0.46315,-0.0467 -0.99395,-0.37488 -1.5924,-0.98444 z m -0.70264,-0.73334 -3.77264,-3.93749 c -0.70334,1.53949 -1.13041,2.56179 -1.28119,3.0669 -0.27711,0.90027 -0.37057,1.65343 -0.28038,2.25948 0.0902,0.60606 0.34066,1.12344 0.75144,1.55216 0.51887,0.54155 1.11117,0.83602 1.77691,0.8834 0.66573,0.0474 1.2092,-0.1307 1.6304,-0.53427 0.57163,-0.54769 0.96345,-1.64442 1.17546,-3.29018 z" style="" id="path6300" />
        <path d="m -324.81695,454.71134 3.19781,6.47253 -0.44768,0.18493 c -1.42017,-1.74631 -2.86479,-2.82884 -4.33386,-3.24761 -1.46909,-0.41873 -2.97865,-0.30795 -4.52868,0.33233 -1.29973,0.53693 -2.33807,1.35187 -3.11505,2.44484 -0.77698,1.093 -1.16805,2.48585 -1.17321,4.17853 -0.005,1.69271 0.43569,3.61254 1.32258,5.75947 0.73177,1.77148 1.65012,3.18975 2.75505,4.25482 1.10493,1.06508 2.371,1.70857 3.79822,1.93047 1.4272,0.22191 2.8725,0.0306 4.3359,-0.57391 1.27083,-0.52497 2.28009,-1.26027 3.02778,-2.20592 0.74767,-0.94563 1.3699,-2.46778 1.86671,-4.56644 l 0.56699,0.10389 c -0.26218,2.14826 -0.8809,3.89718 -1.85616,5.24677 -0.97529,1.3496 -2.3631,2.39625 -4.16345,3.13995 -3.24449,1.34027 -6.25442,1.17484 -9.02977,-0.4963 -2.06834,-1.24189 -3.60361,-3.07591 -4.60583,-5.50206 -0.80734,-1.95439 -1.11101,-3.93088 -0.911,-5.92949 0.20001,-1.99858 0.88189,-3.76514 2.04563,-5.29967 1.16374,-1.5345 2.65541,-2.67759 4.47502,-3.42927 1.41525,-0.58461 2.95442,-0.81469 4.61752,-0.69025 0.49184,0.0448 0.82441,0.0314 0.99772,-0.0402 0.25993,-0.10736 0.4484,-0.29228 0.5654,-0.55477 0.14292,-0.36332 0.17189,-0.79793 0.0869,-1.30383 z" style="" id="path6302" />
        <path d="m -313.16595,451.66922 1.84788,10.30437 c 0.91377,-1.45496 1.67217,-2.41907 2.27519,-2.89233 0.60301,-0.47323 1.23775,-0.76961 1.9042,-0.88914 0.79974,-0.1434 1.52623,-0.0462 2.17947,0.29175 0.65323,0.33793 1.20285,0.95371 1.64885,1.84733 0.31247,0.62128 0.62501,1.80342 0.93759,3.54644 l 0.89361,4.98301 c 0.15995,0.89202 0.34113,1.48921 0.54352,1.79156 0.14665,0.2277 0.35588,0.39125 0.62771,0.49066 0.27181,0.0994 0.73581,0.0903 1.39203,-0.0274 l 0.0993,0.55366 -6.92085,1.24112 -0.0993,-0.55367 0.32297,-0.0579 c 0.65619,-0.11767 1.09453,-0.29946 1.31501,-0.54536 0.22046,-0.2459 0.34703,-0.57286 0.3797,-0.98087 0.001,-0.16956 -0.0697,-0.65421 -0.21311,-1.45396 l -0.89361,-4.98301 c -0.27581,-1.53795 -0.53638,-2.53363 -0.78172,-2.98704 -0.24535,-0.45338 -0.56392,-0.7693 -0.95573,-0.94774 -0.39182,-0.17842 -0.8338,-0.22351 -1.32595,-0.13527 -0.50241,0.0901 -1.00141,0.31718 -1.49701,0.6812 -0.49562,0.36404 -1.05016,1.01908 -1.66363,1.96513 l 1.33489,7.44375 c 0.17284,0.9638 0.33423,1.55395 0.48418,1.77046 0.14994,0.21652 0.38527,0.37804 0.70599,0.48456 0.32071,0.10652 0.83992,0.0954 1.55765,-0.0333 l 0.0993,0.55366 -6.98237,1.25215 -0.0993,-0.55367 c 0.62544,-0.11215 1.10012,-0.29782 1.42405,-0.55698 0.18667,-0.1393 0.31579,-0.36353 0.38734,-0.67268 0.0716,-0.30915 0.0283,-0.90461 -0.12986,-1.78638 l -2.28641,-12.74974 c -0.28868,-1.60972 -0.50456,-2.59225 -0.64765,-2.94759 -0.14309,-0.3553 -0.30605,-0.58535 -0.48888,-0.69016 -0.18282,-0.10477 -0.40752,-0.13327 -0.67411,-0.0855 -0.21531,0.0386 -0.5492,0.18317 -1.00168,0.43362 l -0.31185,-0.49968 3.90512,-2.47822 z" style="" id="path6304" />
        <path d="m -289.64009,469.07108 c -1.38731,1.23361 -2.26194,1.95163 -2.62388,2.15404 -0.54329,0.29844 -1.13189,0.46947 -1.76581,0.51311 -0.98725,0.068 -1.82368,-0.21379 -2.50929,-0.84528 -0.68561,-0.63149 -1.06633,-1.49801 -1.14217,-2.59957 -0.0479,-0.69627 0.0665,-1.30974 0.34317,-1.84042 0.37742,-0.73598 1.07207,-1.45205 2.08394,-2.14819 1.01187,-0.69613 2.71331,-1.57548 5.10432,-2.63804 l -0.0386,-0.56117 c -0.098,-1.4237 -0.3913,-2.38499 -0.87983,-2.88388 -0.48855,-0.49887 -1.16409,-0.71861 -2.02662,-0.65925 -0.65471,0.0451 -1.16215,0.25752 -1.52233,0.63731 -0.37058,0.38053 -0.54013,0.79941 -0.50865,1.25665 l 0.0934,0.90196 c 0.0329,0.47805 -0.0638,0.85537 -0.29013,1.13197 -0.22633,0.27663 -0.53694,0.42853 -0.93184,0.4557 -0.38451,0.0265 -0.70817,-0.087 -0.97098,-0.34036 -0.26282,-0.25338 -0.41032,-0.61389 -0.44251,-1.08154 -0.0615,-0.89371 0.33921,-1.74616 1.2022,-2.55736 0.86299,-0.81117 2.12066,-1.27363 3.773,-1.3874 1.26782,-0.0873 2.3217,0.0542 3.16162,0.42449 0.6353,0.27996 1.12205,0.75286 1.46025,1.41869 0.21781,0.434 0.3743,1.34206 0.46946,2.72419 l 0.33373,4.8479 c 0.0937,1.36137 0.1771,2.19354 0.25018,2.49653 0.0731,0.30299 0.17291,0.50233 0.29959,0.59802 0.12665,0.0957 0.26792,0.13818 0.42381,0.12745 0.16626,-0.0115 0.30925,-0.0578 0.42896,-0.13917 0.20892,-0.15012 0.60369,-0.5584 1.1843,-1.22485 l 0.0601,0.87293 c -1.05661,1.63894 -2.11491,2.49489 -3.17489,2.56786 -0.50922,0.0351 -0.92667,-0.11371 -1.25235,-0.44629 -0.32571,-0.33258 -0.52308,-0.92459 -0.59213,-1.77603 z m -0.0697,-1.01322 -0.37451,-5.44025 c -1.52629,0.73156 -2.50911,1.24297 -2.94847,1.53424 -0.7895,0.51378 -1.34374,1.03223 -1.66273,1.55537 -0.31899,0.52315 -0.4581,1.08089 -0.41732,1.67323 0.0515,0.74824 0.31768,1.35378 0.79852,1.81664 0.48084,0.46286 1.01224,0.67426 1.5942,0.6342 0.78979,-0.0544 1.79323,-0.64551 3.01031,-1.77343 z" style="" id="path6306" />
        <path d="m -284.02467,457.76626 4.46296,-1.63399 0.59342,0.0197 -0.11101,3.3419 c 0.78101,-1.23515 1.5521,-2.09284 2.31326,-2.57306 0.76114,-0.48019 1.55295,-0.70663 2.37542,-0.67932 1.4367,0.0477 2.61528,0.64969 3.53575,1.80587 1.13077,1.41333 1.65951,3.22355 1.58621,5.43066 -0.082,2.46739 -0.8577,4.48441 -2.32717,6.05107 -1.20995,1.28346 -2.69985,1.89579 -4.4697,1.837 -0.77041,-0.0256 -1.43308,-0.15703 -1.988,-0.39434 -0.41126,-0.16999 -0.86937,-0.49788 -1.37435,-0.98367 l -0.14473,4.35698 c -0.0325,0.97862 0.007,1.60266 0.1176,1.87212 0.11091,0.26945 0.31212,0.48719 0.60365,0.65321 0.29152,0.16602 0.82769,0.26199 1.60852,0.28794 l -0.0192,0.5778 -7.49586,-0.24899 0.0192,-0.5778 0.39041,0.013 c 0.57225,0.0294 1.0652,-0.0636 1.47883,-0.27919 0.20161,-0.10795 0.36131,-0.28765 0.4791,-0.53908 0.11779,-0.25144 0.19397,-0.8977 0.22855,-1.93879 l 0.44922,-13.52379 c 0.0308,-0.92656 0.009,-1.51616 -0.0663,-1.7688 -0.075,-0.25262 -0.20151,-0.44443 -0.37955,-0.57542 -0.17804,-0.13097 -0.42323,-0.20165 -0.73555,-0.21204 -0.24987,-0.008 -0.56982,0.054 -0.95986,0.18699 z m 4.91477,2.649 -0.17741,5.3408 c -0.0384,1.15562 -0.0168,1.91717 0.0648,2.28466 0.12569,0.60868 0.46462,1.15148 1.01681,1.62841 0.55217,0.47693 1.26031,0.72974 2.12443,0.75844 1.04108,0.0346 1.89785,-0.34343 2.57031,-1.13404 0.87855,-1.0339 1.34982,-2.51386 1.4138,-4.43989 0.0726,-2.18628 -0.35044,-3.88355 -1.26916,-5.09181 -0.63933,-0.83418 -1.41707,-1.26648 -2.33323,-1.29693 -0.49973,-0.0166 -0.9984,0.0919 -1.496,0.32552 -0.38103,0.17496 -1.01915,0.71657 -1.91437,1.62484 z" style="" id="path6308" />
        <path d="m -263.83093,462.96998 c -0.30226,2.10342 -0.0205,3.82512 0.8453,5.1651 0.86578,1.33998 1.99513,2.10657 3.38805,2.29976 0.9286,0.1288 1.7714,-0.0146 2.52838,-0.43016 0.75697,-0.41556 1.45348,-1.21022 2.08952,-2.38398 l 0.43685,0.37609 c -0.41274,1.3835 -1.22066,2.58336 -2.42375,3.59958 -1.20311,1.01623 -2.58882,1.41558 -4.15713,1.19806 -1.70246,-0.23613 -3.06792,-1.10119 -4.09637,-2.59519 -1.02847,-1.494 -1.38743,-3.36049 -1.07688,-5.59948 0.3363,-2.42469 1.22019,-4.22922 2.65169,-5.41359 1.43148,-1.18435 3.08615,-1.6463 4.96402,-1.38586 1.58894,0.22039 2.82153,0.92506 3.69776,2.11399 0.87621,1.18895 1.19267,2.66044 0.94941,4.41447 z m 0.12451,-0.89766 6.56218,0.91016 c 0.0743,-0.91512 0.0547,-1.56986 -0.0588,-1.96421 -0.17781,-0.61357 -0.49919,-1.12086 -0.96412,-1.52188 -0.46495,-0.401 -0.97601,-0.64015 -1.53316,-0.71744 -0.8564,-0.11876 -1.66865,0.10773 -2.43677,0.67949 -0.76813,0.57178 -1.29123,1.44307 -1.56929,2.61388 z" style="" id="path6310" />
        <path d="m -244.65122,452.56331 -3.34254,18.6878 c -0.15773,0.88184 -0.19819,1.47778 -0.12136,1.78781 0.0768,0.31004 0.23523,0.56324 0.47524,0.75961 0.24001,0.19636 0.72403,0.35965 1.45206,0.48987 l -0.099,0.55371 -6.90602,-1.23522 0.099,-0.55372 c 0.64599,0.11555 1.09883,0.12776 1.35852,0.0366 0.25968,-0.0911 0.48368,-0.27856 0.67201,-0.56234 0.18831,-0.28377 0.36042,-0.86145 0.51632,-1.73304 l 2.28889,-12.79691 c 0.28427,-1.58934 0.42307,-2.57245 0.41641,-2.94932 -0.007,-0.37684 -0.0776,-0.64613 -0.21265,-0.80787 -0.1351,-0.16171 -0.32569,-0.26459 -0.57178,-0.30862 -0.26661,-0.0477 -0.61966,-0.0262 -1.05915,0.0645 l -0.16519,-0.5851 4.5071,-0.97162 z" style="" id="path6312" />
        <path d="m -235.81239,454.19834 -3.43792,18.67049 c -0.16223,0.88102 -0.20573,1.47675 -0.13048,1.78717 0.0752,0.31042 0.23235,0.56443 0.47136,0.76202 0.23899,0.19759 0.72217,0.36335 1.44954,0.49728 l -0.10187,0.5532 -6.89963,-1.27047 0.10187,-0.5532 c 0.64539,0.11884 1.09816,0.13337 1.35831,0.0436 0.26014,-0.0898 0.4851,-0.27609 0.67487,-0.55891 0.18977,-0.2828 0.36482,-0.8596 0.52517,-1.73038 l 2.35419,-12.78506 c 0.29238,-1.58787 0.4362,-2.57025 0.43147,-2.94715 -0.005,-0.37687 -0.0743,-0.64652 -0.20852,-0.80895 -0.13427,-0.1624 -0.32434,-0.26624 -0.5702,-0.31154 -0.26636,-0.049 -0.61952,-0.0293 -1.05947,0.0591 l -0.1622,-0.58594 4.51201,-0.94859 z" style="" id="path6314" />
        <path d="m -232.16843,468.38238 c -0.34648,2.0966 -0.10102,3.82385 0.73637,5.18176 0.83738,1.35791 1.95034,2.1481 3.33888,2.37058 0.92569,0.14832 1.77131,0.0227 2.53688,-0.37684 0.76555,-0.39954 1.47863,-1.17936 2.13924,-2.33946 l 0.42884,0.38519 c -0.44178,1.37451 -1.27478,2.5571 -2.49899,3.54777 -1.22424,0.99067 -2.61805,1.36076 -4.18144,1.11027 -1.69711,-0.27191 -3.04405,-1.16553 -4.04083,-2.68085 -0.99678,-1.51532 -1.31637,-3.38895 -0.95876,-5.62091 0.38727,-2.41707 1.30896,-4.2026 2.76507,-5.35657 1.45611,-1.15395 3.12014,-1.58096 4.9921,-1.28105 1.58396,0.2538 2.80143,0.98426 3.65244,2.19137 0.85098,1.20713 1.1364,2.68496 0.85626,4.43348 z m 0.14337,-0.89483 6.54157,1.0481 c 0.0936,-0.91335 0.0877,-1.56836 -0.0175,-1.96501 -0.16486,-0.61718 -0.47548,-1.13112 -0.93187,-1.54184 -0.4564,-0.4107 -0.96231,-0.66055 -1.51772,-0.74955 -0.8537,-0.13677 -1.67054,0.0726 -2.45053,0.62803 -0.78,0.55549 -1.32132,1.41557 -1.62397,2.58027 z" style="" id="path6316" />
      </g>
    </g>
  </g>
</svg>
