<?xml version="1.0" encoding="UTF-8" standalone="no"?>
<svg
   xmlns:dc="http://purl.org/dc/elements/1.1/"
   xmlns:cc="http://creativecommons.org/ns#"
   xmlns:rdf="http://www.w3.org/1999/02/22-rdf-syntax-ns#"
   xmlns:svg="http://www.w3.org/2000/svg"
   xmlns="http://www.w3.org/2000/svg"
   xmlns:xlink="http://www.w3.org/1999/xlink"
   xmlns:sodipodi="http://sodipodi.sourceforge.net/DTD/sodipodi-0.dtd"
   xmlns:inkscape="http://www.inkscape.org/namespaces/inkscape"
   width="1461.6166"
   height="740.25671"
   id="svg2383"
   sodipodi:version="0.32"
   inkscape:version="1.0 (4035a4fb49, 2020-05-01)"
   version="1.0"
   sodipodi:docname="Sachsenring.svg"
   inkscape:output_extension="org.inkscape.output.svg.inkscape"
   inkscape:export-filename="D:\Images\Race Tracks\Sachsenring.png"
   inkscape:export-xdpi="90.015755"
   inkscape:export-ydpi="90.015755">
  <defs
     id="defs2385">
    <clipPath
       clipPathUnits="userSpaceOnUse"
       id="clipPath3490">
      <rect
         style="opacity:1;fill:#006a00;fill-opacity:1;fill-rule:nonzero;stroke:none"
         id="rect3492"
         width="1511.7875"
         height="1003.7479"
         x="683.1405"
         y="104.1039"
         transform="rotate(135.91755)" />
    </clipPath>
    <pattern
       patternUnits="userSpaceOnUse"
       width="18.181098"
       height="18.137641"
       patternTransform="matrix(0.1737876,0,0,0.1737876,763.47719,1693.9071)"
       id="pattern4912">
      <g
         id="g4907"
         transform="translate(-1025.5348,-1215.2814)">
        <rect
           style="opacity:1;fill:#fffa69;fill-opacity:1;stroke:none;stroke-width:0.5;stroke-linecap:round;stroke-linejoin:round;stroke-miterlimit:4;stroke-dasharray:none;stroke-dashoffset:0;stroke-opacity:1"
           id="rect4899"
           width="18.172573"
           height="18.095789"
           x="1025.5348"
           y="1215.2814" />
        <rect
           style="opacity:1;fill:#ffffff;fill-opacity:1;stroke:none;stroke-width:0.5;stroke-linecap:round;stroke-linejoin:round;stroke-miterlimit:4;stroke-dasharray:none;stroke-dashoffset:0;stroke-opacity:1"
           id="rect4903"
           width="9.0746527"
           height="9.0746527"
           x="1025.5348"
           y="1215.2814" />
        <rect
           style="opacity:1;fill:#ffffff;fill-opacity:1;stroke:none;stroke-width:0.5;stroke-linecap:round;stroke-linejoin:round;stroke-miterlimit:4;stroke-dasharray:none;stroke-dashoffset:0;stroke-opacity:1"
           id="rect4905"
           width="9.0746527"
           height="9.0746527"
           x="1034.6412"
           y="1224.3444" />
      </g>
    </pattern>
    <pattern
       inkscape:collect="always"
       xlink:href="#pattern4912"
       id="pattern4166"
       patternTransform="matrix(0.4562459,1.6264824e-8,-1.6264824e-8,0.4562459,-1778.2267,454.6431)" />
    <clipPath
       clipPathUnits="userSpaceOnUse"
       id="clipPath3494">
      <rect
         style="opacity:1;fill:#006a00;fill-opacity:1;fill-rule:nonzero;stroke:none"
         id="rect3496"
         width="2168.1926"
         height="1468.4177"
         x="-4232.8457"
         y="-2372.1296"
         transform="matrix(-0.9472965,-0.3203582,0.9519016,-0.3064038,0,0)" />
    </clipPath>
    <clipPath
       clipPathUnits="userSpaceOnUse"
       id="clipPath9716">
      <path
         id="path9718"
         d="M 871.13547,932.36346 C 1314.8756,1345.252 1758.6155,1758.1404 2202.3556,2171.029 2375.7787,1984.6474 2549.2018,1798.266 2722.6249,1611.8845 2278.8848,1198.996 1835.1448,786.10758 1391.4047,373.21904 1217.9816,559.60052 1044.5586,745.98194 871.13547,932.36346 Z"
         style="fill:#6a6a6a;fill-opacity:1;fill-rule:nonzero;stroke:#010101;stroke-width:0.942626;stroke-linecap:round;stroke-linejoin:round;stroke-miterlimit:4;stroke-dasharray:none;stroke-dashoffset:0;stroke-opacity:1" />
    </clipPath>
  </defs>
  <sodipodi:namedview
     fit-margin-bottom="0"
     fit-margin-right="0"
     fit-margin-left="0"
     fit-margin-top="0"
     id="base"
     pagecolor="#ffffff"
     bordercolor="#ffffff"
     borderopacity="0.0"
     inkscape:pageopacity="0.0"
     inkscape:pageshadow="0"
     inkscape:zoom="0.56200812"
     inkscape:cx="861.75367"
     inkscape:cy="408.96081"
     inkscape:document-units="px"
     inkscape:current-layer="layer1"
     showgrid="false"
     showguides="true"
     inkscape:guide-bbox="true"
     showborder="false"
     inkscape:showpageshadow="false"
     inkscape:window-width="1366"
     inkscape:window-height="705"
     inkscape:window-x="-8"
     inkscape:window-y="-8"
     inkscape:document-rotation="0"
     inkscape:window-maximized="1" />
  <metadata
     id="metadata2388">
    <rdf:RDF>
      <cc:Work
         rdf:about="">
        <dc:format>image/svg+xml</dc:format>
        <dc:type
           rdf:resource="http://purl.org/dc/dcmitype/StillImage" />
        <dc:title>Track map of Sachsenring</dc:title>
        <dc:date>8-6-2008</dc:date>
        <dc:creator>
          <cc:Agent>
            <dc:title>Will Pittenger</dc:title>
          </cc:Agent>
        </dc:creator>
        <dc:publisher>
          <cc:Agent>
            <dc:title>Will Pittenger</dc:title>
          </cc:Agent>
        </dc:publisher>
        <dc:subject>
          <rdf:Bag>
            <rdf:li>Sachenring</rdf:li>
            <rdf:li>East Germany</rdf:li>
            <rdf:li>Germany</rdf:li>
            <rdf:li>Communist</rdf:li>
            <rdf:li>German Democratic Republi</rdf:li>
            <rdf:li>Coca-Cola Kurve</rdf:li>
            <rdf:li>Castrol Omega</rdf:li>
            <rdf:li>Sternquell</rdf:li>
            <rdf:li>Sachsen Kurve</rdf:li>
            <rdf:li>Quckenberb Kurve</rdf:li>
          </rdf:Bag>
        </dc:subject>
        <dc:description>Created in Inkscape with data from Google Earth.  No pit area for the &quot;Omega Circuit&quot; (the right half of the image) was found.  All turn numbers were assigned by the image author as no such information was available.</dc:description>
        <cc:license
           rdf:resource="http://creativecommons.org/licenses/by-sa/4.0/" />
      </cc:Work>
      <cc:License
         rdf:about="http://creativecommons.org/licenses/by-sa/4.0/">
        <cc:permits
           rdf:resource="http://creativecommons.org/ns#Reproduction" />
        <cc:permits
           rdf:resource="http://creativecommons.org/ns#Distribution" />
        <cc:requires
           rdf:resource="http://creativecommons.org/ns#Notice" />
        <cc:requires
           rdf:resource="http://creativecommons.org/ns#Attribution" />
        <cc:permits
           rdf:resource="http://creativecommons.org/ns#DerivativeWorks" />
        <cc:requires
           rdf:resource="http://creativecommons.org/ns#ShareAlike" />
      </cc:License>
    </rdf:RDF>
  </metadata>
  <g
     inkscape:label="Layer 1"
     inkscape:groupmode="layer"
     id="layer1"
     transform="translate(-996.7786,-934.09594)">
    <path
       inkscape:export-ydpi="90.015755"
       inkscape:export-xdpi="90.015755"
       sodipodi:nodetypes="ccsssssssssssssssssssssscssssssssssssscccssssssssc"
       id="path1019"
       d="m 2078.0492,1428.6637 c -2.869,-21.7805 -14.7674,-41.6279 -33.9097,-60.8673 -28.7153,-28.3605 -54.9632,-38.0037 -87.4324,-54.3896 -29.5781,-14.9269 -62.6529,6.8985 -85.2822,20.0391 -62.3029,36.1785 -68.8292,77.7925 -50.5187,120.6142 15.1631,35.4612 31.1796,76.2966 51.3811,113.0986 9.3265,16.9904 38.0169,49.9111 54.7206,59.8096 25.9508,15.3783 55.7659,31.2556 85.0072,35.7543 28.2633,4.3482 57.1354,5.1152 84.4879,-4.0023 25.7287,-8.5762 68.0723,-35.6853 89.1979,-53.5613 86.3037,-73.0284 141.6492,-117.5575 216.315,-201.9227 28.6747,-32.3996 49.4187,-45.8792 47.798,-77.8546 -1.9103,-37.689 -10.4383,-79.9769 -27.1547,-115.6413 -31.2135,-66.5943 -77.6532,-117.6502 -111.266,-180.7608 -9.2285,-17.3273 -31.6977,-25.5909 -44.3195,-30.61377 -50.8002,-20.21608 -83.4386,-34.23361 -119.3057,-48.51012 -22.2325,-8.84939 -48.6473,-12.97701 -86.7224,5.85276 -81.5999,40.34801 -144.9594,87.75263 -226.386,139.15703 -15.1299,9.5514 -30.8869,11.2288 -51.8902,10.2934 -170.3085,-7.5851 -325.3247,-8.366 -491.7585,-28.6941 -48.7893,-5.9591 -98.6105,-16.4885 -147.5025,-17.4092 -21.9968,-0.4142 -47.5884,6.3914 -67.3148,13.4929 -19.7686,7.1167 -37.5807,21.9782 -49.7949,38.0311 -9.903,13.0154 -20.7892,36.337 -21.0854,53.5145 -0.3357,19.4739 1.8167,40.2687 4.969,59.8038 26.5523,112.0532 48.933,221.4836 79.1796,331.9167 20.4051,74.501 37.2562,106.2795 146.2965,25.6837 135.6957,-100.2978 273.4708,-197.7717 411.6549,-294.0622 130.6975,-91.0736 237.8078,-160.8584 377.9236,-248.047 11.9792,-7.4542 32.2723,-19.4232 45.9275,-18.6104 12.8854,0.767 28.7019,4.9681 38.7511,12.3528 13.8927,10.2091 21.4213,33.0639 19.8051,49.8912 -0.98,10.203 -4.994,24.391 -12.0298,32.0476 -14.4495,15.7244 -29.7989,28.94 -40.3575,46.9288 -15.0341,25.6136 -26.402,54.5275 -27.6462,84.6782 -0.9502,23.0244 6.0427,46.2508 14.5222,67.4494 4.7908,11.9771 15.5298,21.282 26.2537,29.0195 14.2369,10.2722 27.6947,15.4491 45.8648,20.9633 36.4915,11.0743 59.0089,27.6091 74.1517,60.8297 0,0 3.2858,10.9693 3.5717,16.6327 -1.0605,11.7565 -1.9746,24.8389 -5.971,34.9728 -3.0321,7.4541 -7.3514,14.5453 -12.795,20.4719 -4.8085,5.2351 -10.8524,9.3316 -17.0599,12.795 -7.4696,4.1676 -15.5083,7.6467 -23.8839,9.3829 -8.0788,1.6747 -16.5544,1.9102 -24.7369,0.853 -5.8881,-0.7608 -11.9629,-2.0736 -17.0599,-5.118 -6.2138,-3.7115 -11.3695,-9.3114 -15.3539,-15.3539 -5.9003,-8.948 -8.6924,-19.6411 -11.9419,-29.8549 -2.2163,-6.9661 -3.8609,-14.1237 -5.118,-21.3249 -1.138,-6.5189 -2.1816,-19.7321 -2.1816,-19.7321 z"
       style="fill:none;fill-rule:evenodd;stroke:#ffffff;stroke-width:17;stroke-linecap:butt;stroke-linejoin:round;stroke-miterlimit:4;stroke-dasharray:none;stroke-opacity:1" />
    <path
       sodipodi:nodetypes="csssssssssc"
       id="path1021"
       d="m 1184.2663,1609.6974 c 7.7914,-5.8755 20.6665,-26.0957 28.7431,-31.8234 29.513,-20.93 55.1886,-43.6294 83.9501,-64.0823 154.5393,-109.8963 306.9941,-220.1246 462.8938,-328.036 17.6226,-12.1981 37.2029,-21.3902 55.0733,-33.21 28.9926,-19.1762 56.4253,-40.7425 85.5157,-59.778 33.3628,-21.8312 67.3114,-42.9498 101.844,-62.8223 14.3599,-8.2637 26.1178,-13.0113 41.486,-18.9461 7.3253,-2.8289 15.1221,-2.6793 23.0109,-2.926 6.5827,-0.2059 20.2732,3.2816 26.4151,5.3896 18.341,6.2948 25.5131,20.6077 29.4217,25.5621"
       style="fill:none;fill-rule:evenodd;stroke:#ffffff;stroke-width:7;stroke-linecap:butt;stroke-linejoin:round;stroke-miterlimit:4;stroke-dasharray:none;stroke-opacity:1" />
    <path
       style="fill:none;fill-rule:evenodd;stroke:#fffa69;stroke-width:15;stroke-linecap:butt;stroke-linejoin:round;stroke-miterlimit:4;stroke-dasharray:none;stroke-opacity:1"
       d="m 2078.0492,1428.6637 c -2.869,-21.7805 -14.7674,-41.6279 -33.9097,-60.8673 -28.7153,-28.3605 -54.9632,-38.0037 -87.4324,-54.3896 -29.5781,-14.9269 -62.6529,6.8985 -85.2822,20.0391 -62.3029,36.1785 -68.8292,77.7925 -50.5187,120.6142 15.1631,35.4612 31.1796,76.2966 51.3811,113.0986 9.3265,16.9904 38.0169,49.9111 54.7206,59.8096 25.9508,15.3783 55.7659,31.2556 85.0072,35.7543 28.2633,4.3482 57.1354,5.1152 84.4879,-4.0023 25.7287,-8.5762 68.0723,-35.6853 89.1979,-53.5613 86.3037,-73.0284 141.6492,-117.5575 216.315,-201.9227 28.6747,-32.3996 49.4187,-45.8792 47.798,-77.8546 -1.9103,-37.689 -10.4383,-79.9769 -27.1547,-115.6413 -31.2135,-66.5943 -77.6532,-117.6502 -111.266,-180.7608 -9.2285,-17.3273 -31.6977,-25.5909 -44.3195,-30.61377 -50.8002,-20.21608 -83.4386,-34.23361 -119.3057,-48.51012 -22.2325,-8.84939 -48.6473,-12.97701 -86.7224,5.85276 -81.5999,40.34801 -144.9594,87.75263 -226.386,139.15703 -15.1299,9.5514 -30.8869,11.2288 -51.8902,10.2934 -170.3085,-7.5851 -325.3247,-8.366 -491.7585,-28.6941 -48.7893,-5.9591 -98.6105,-16.4885 -147.5025,-17.4092 -21.9968,-0.4142 -47.5884,6.3914 -67.3148,13.4929 -19.7686,7.1167 -37.5807,21.9782 -49.7949,38.0311 -9.903,13.0154 -20.7892,36.337 -21.0854,53.5145 -0.3357,19.4739 1.8167,40.2687 4.969,59.8038 26.5523,112.0532 48.933,221.4836 79.1796,331.9167 20.4051,74.501 37.2562,106.2795 146.2965,25.6837 135.6957,-100.2978 273.4708,-197.7717 411.6549,-294.0622 130.6975,-91.0736 237.8078,-160.8584 377.9236,-248.047 11.9792,-7.4542 32.2723,-19.4232 45.9275,-18.6104 12.8854,0.767 28.7019,4.9681 38.7511,12.3528 13.8927,10.2091 21.4213,33.0639 19.8051,49.8912 -0.98,10.203 -4.994,24.391 -12.0298,32.0476 -14.4495,15.7244 -29.7989,28.94 -40.3575,46.9288 -15.0341,25.6136 -26.402,54.5275 -27.6462,84.6782 -0.9502,23.0244 6.0427,46.2508 14.5222,67.4494 4.7908,11.9771 15.5298,21.282 26.2537,29.0195 14.2369,10.2722 27.6947,15.4491 45.8648,20.9633 36.4915,11.0743 59.0089,27.6091 74.1517,60.8297 0,0 3.2858,10.9693 3.5717,16.6327 -1.0605,11.7565 -1.9746,24.8389 -5.971,34.9728 -3.0321,7.4541 -7.3514,14.5453 -12.795,20.4719 -4.8085,5.2351 -10.8524,9.3316 -17.0599,12.795 -7.4696,4.1676 -15.5083,7.6467 -23.8839,9.3829 -8.0788,1.6747 -16.5544,1.9102 -24.7369,0.853 -5.8881,-0.7608 -11.9629,-2.0736 -17.0599,-5.118 -6.2138,-3.7115 -11.3695,-9.3114 -15.3539,-15.3539 -5.9003,-8.948 -8.6924,-19.6411 -11.9419,-29.8549 -2.2163,-6.9661 -3.8609,-14.1237 -5.118,-21.3249 -1.138,-6.5189 -2.1816,-19.7321 -2.1816,-19.7321 z"
       id="path2419"
       sodipodi:nodetypes="ccsssssssssssssssssssssscssssssssssssscccssssssssc"
       inkscape:export-xdpi="90.015755"
       inkscape:export-ydpi="90.015755" />
    <path
       style="fill:none;fill-rule:evenodd;stroke:#fffa69;stroke-width:5;stroke-linecap:butt;stroke-linejoin:round;stroke-miterlimit:4;stroke-dasharray:none;stroke-opacity:1"
       d="m 1184.2663,1609.6974 c 7.7914,-5.8755 20.6665,-26.0957 28.7431,-31.8234 29.513,-20.93 55.1886,-43.6294 83.9501,-64.0823 154.5393,-109.8963 306.9941,-220.1246 462.8938,-328.036 17.6226,-12.1981 37.2029,-21.3902 55.0733,-33.21 28.9926,-19.1762 56.4253,-40.7425 85.5157,-59.778 33.3628,-21.8312 67.3114,-42.9498 101.844,-62.8223 14.3599,-8.2637 26.1178,-13.0113 41.486,-18.9461 7.3253,-2.8289 15.1221,-2.6793 23.0109,-2.926 6.5827,-0.2059 20.2732,3.2816 26.4151,5.3896 18.341,6.2948 25.5131,20.6077 29.4217,25.5621"
       id="path3191"
       sodipodi:nodetypes="csssssssssc" />
  </g>
</svg>
