<?xml version="1.0" encoding="UTF-8" standalone="no"?>
<!-- Created with Inkscape (http://www.inkscape.org/) -->

<svg
   xmlns:dc="http://purl.org/dc/elements/1.1/"
   xmlns:cc="http://creativecommons.org/ns#"
   xmlns:rdf="http://www.w3.org/1999/02/22-rdf-syntax-ns#"
   xmlns:svg="http://www.w3.org/2000/svg"
   xmlns="http://www.w3.org/2000/svg"
   xmlns:xlink="http://www.w3.org/1999/xlink"
   xmlns:sodipodi="http://sodipodi.sourceforge.net/DTD/sodipodi-0.dtd"
   xmlns:inkscape="http://www.inkscape.org/namespaces/inkscape"
   width="1098.9177"
   height="692.09656"
   id="svg2"
   version="1.1"
   inkscape:version="0.48.2 r9819"
   sodipodi:docname="Silverstone_Circuit_moto intl.svg">
  <sodipodi:namedview
     id="base"
     pagecolor="#ffffff"
     bordercolor="#666666"
     borderopacity="1.0"
     inkscape:pageopacity="0.0"
     inkscape:pageshadow="2"
     inkscape:zoom="0.61896896"
     inkscape:cx="943.89481"
     inkscape:cy="322.19142"
     inkscape:document-units="px"
     inkscape:current-layer="layer2"
     showgrid="false"
     inkscape:window-width="1366"
     inkscape:window-height="705"
     inkscape:window-x="-8"
     inkscape:window-y="-8"
     inkscape:window-maximized="1"
     fit-margin-top="10"
     fit-margin-left="10"
     fit-margin-right="10"
     fit-margin-bottom="10"
     showborder="true"
     borderlayer="false"
     inkscape:showpageshadow="false" />
  <metadata
     id="metadata7">
    <rdf:RDF>
      <cc:Work
         rdf:about="">
        <dc:format>image/svg+xml</dc:format>
        <dc:type
           rdf:resource="http://purl.org/dc/dcmitype/StillImage" />
        <dc:title />
      </cc:Work>
    </rdf:RDF>
  </metadata>
  <g
     inkscape:groupmode="layer"
     id="layer2"
     inkscape:label="Silvertone 2010"
     style="display:inline"
     transform="translate(-2.8671331,-9.03294)">
    <path
       id="path4068"
       style="fill:none;stroke:#fffa69;stroke-width:10;stroke-linecap:butt;stroke-linejoin:miter;stroke-miterlimit:4;stroke-opacity:1;stroke-dasharray:none;display:inline"
       d="m 454.62666,566.96685 26.40187,14.246 2.06729,1.30566 1.63209,1.30566 1.74089,2.28492 1.08805,2.0673 0.87044,3.04655 0.32642,2.82894 0.32641,2.72013 0.32642,3.69938 0.32641,3.64499 0.38082,3.12815 0.38082,2.58413 0.65283,3.10096 0.43523,1.79528 0.65283,2.12171 1.52327,2.55692 3.81481,4.43314 4.78377,5.14078 1.428,1.57079 M 456.80935,568.09996 204.0434,435.70572 165.44165,415.6599 136.93143,398.57583 102.2119,375.04163 c 0,0 -10.217275,-6.74129 -14.861638,-10.70371 -3.199161,-2.72942 -6.188087,-5.72847 -8.893125,-8.94827 -2.567953,-3.05663 -5.020896,-6.26487 -6.911498,-9.78098 -1.478637,-2.74994 -2.55299,-5.72269 -3.400611,-8.7277 -1.148206,-4.07065 -1.845719,-8.27721 -2.250569,-12.48728 -0.342451,-3.56117 -0.568703,-7.17953 -0.144037,-10.73184 0.359065,-3.00356 1.145684,-5.97633 2.257321,-8.78961 0.933479,-2.36241 2.256648,-4.56687 3.661677,-6.68306 1.540967,-2.32093 3.337593,-4.47082 5.196565,-6.54579 1.846839,-2.06143 3.827221,-4.00809 5.898742,-5.8436 1.931816,-1.71173 3.971842,-3.30459 6.072035,-4.80496 2.410505,-1.72205 7.476392,-4.80496 7.476392,-4.80496 l 32.351936,-16.57545 19.65872,-12.38938 17.3744,-14.04356 77.64464,-70.37529 c 0,0 2.86133,-2.69172 4.12979,-4.18606 0.83753,-0.98668 1.80323,-1.93808 2.28433,-3.13955 0.51626,-1.28929 0.64295,-2.744 0.55139,-4.12979 -0.0898,-1.35918 -0.39324,-2.76144 -1.06902,-3.94413 -0.25301,-0.4428 -1.06897,-1.09459 -1.06897,-1.09459 l -15.59649,-15.97035 c 0,0 -2.26732,-3.27311 -2.8751,-5.13973 -0.55997,-1.7198 -0.7432,-3.58118 -0.64705,-5.3873 0.0957,-1.7977 0.59229,-3.57246 1.20968,-5.26353 0.61272,-1.67826 1.45057,-3.28579 2.44749,-4.7684 1.43897,-2.14 5.04128,-5.86835 5.04128,-5.86835 0,0 7.49632,-6.903964 11.47791,-10.076922 4.33045,-3.450965 8.7803,-6.77764 13.46965,-9.72246 2.7179,-1.706787 5.59042,-3.160533 8.46664,-4.58441 2.31375,-1.145422 4.66534,-2.220856 7.06229,-3.180054 3.06883,-1.228069 6.16169,-2.434816 9.35449,-3.290333 3.29444,-0.882753 6.67917,-1.41152 10.05667,-1.885976 2.47617,-0.347841 4.96806,-0.714258 7.46851,-0.702178 2.26753,0.01095 4.57162,0.132066 6.76634,0.702178 3.17961,0.825952 9.05855,3.882232 9.05855,3.882232 l 37.5282,28.469703 175.99452,130.70181 4.58441,6.17444 3.53114,6.52553 2.58816,8.48689 1.64516,7.17256 0.24081,10.68346 0.11029,9.42988 -1.75545,13.51242 -1.88598,13.07131 -2.58815,19.08032 c 0,0 -0.84052,9.71489 -0.94299,14.58594 -0.0751,3.56802 -0.0115,7.14383 0.24081,10.70371 0.23785,3.35598 0.50043,6.73059 1.19842,10.02179 0.77604,3.65918 1.95251,7.23647 3.30497,10.72397 1.23422,3.1826 2.60397,6.34027 4.37061,9.26109 2.10551,3.48108 7.35711,9.73821 7.35711,9.73821 l 59.52755,72.46833 c 0,0 3.90621,5.31476 5.19882,8.31811 0.76759,1.78348 1.32837,3.70085 1.46512,5.63767 0.13321,1.88665 -0.2329,3.79097 -0.64138,5.63768 -0.36723,1.66022 -0.72743,3.38828 -1.61478,4.83873 -0.83703,1.36819 -2.12824,2.41943 -3.37022,3.43436 -1.51361,1.2369 -4.91975,3.19131 -4.91975,3.19131 l -47.88086,15.50642 c 0,0 -3.56049,1.60717 -4.9445,2.93249 -1.62832,1.55926 -2.89892,3.55462 -3.69882,5.66243 -0.67293,1.77323 -1.13618,3.75659 -0.83214,5.62868 0.38283,2.35729 1.77463,4.50345 3.23688,6.39162 1.62696,2.10086 3.70173,3.90594 5.98427,5.26632 6.23437,3.71565 20.42841,7.53267 20.42841,7.53267 0,0 12.48837,4.37797 18.90253,5.96175 3.74635,0.92505 7.5829,1.44169 11.39239,2.05702 3.60913,0.58297 10.85787,1.54839 10.85787,1.54839 0,0 16.11102,2.04937 24.08222,1.03977 2.36435,-0.29946 4.67808,-1.07789 6.84061,-2.07952 1.72931,-0.80097 4.80608,-3.09679 4.80608,-3.09679 l 231.28876,-262.10581 7.06228,-10.83423 c 0,0 3.59395,-7.99635 4.58442,-12.23861 0.79697,-3.41345 0.94534,-6.95929 1.05327,-10.46289 0.093,-3.02035 0.0354,-6.06159 -0.35109,-9.05855 -0.37216,-2.88542 -0.77281,-5.83383 -1.88597,-8.52177 -0.86407,-2.08646 -2.0992,-4.06339 -3.64143,-5.71307 -1.64629,-1.76099 -5.82335,-4.28847 -5.82335,-4.28847 l -6.17444,-2.53301 -21.64823,-1.64517 -24.58747,-2.58815 c 0,0 -3.21009,-1.14742 -4.77008,-1.83084 -1.7444,-0.76421 -3.58476,-1.40768 -5.12117,-2.53302 -1.80009,-1.31847 -3.3413,-3.01049 -4.63955,-4.82522 -1.6659,-2.32863 -2.98843,-4.93259 -3.93737,-7.63393 -0.94807,-2.69886 -1.53371,-5.55581 -1.70031,-8.4115 -0.17754,-3.04319 0.18275,-6.11996 0.75732,-9.11368 0.53313,-2.77777 1.29994,-5.54404 2.47787,-8.11556 1.10149,-2.40466 2.47676,-4.73378 4.23333,-6.71119 1.85917,-2.0929 4.11196,-3.86835 6.52552,-5.2866 1.91202,-1.12354 4.04886,-1.84536 6.17444,-2.47787 2.20432,-0.65595 4.4768,-1.1317 6.76634,-1.34922 2.47841,-0.23546 5.01258,-0.35275 7.46852,0.0551 4.03694,0.6704 11.64669,3.88223 11.64669,3.88223 0,0 37.42242,17.47884 55.64533,27.17562 6.15642,3.27596 12.27813,6.64976 18.11708,10.46291 6.5993,4.30971 13.27902,8.63644 19.06007,13.99403 5.3848,4.99037 9.80371,10.94426 14.34514,16.71273 3.73548,4.74476 7.57195,9.46771 10.59342,14.69622 3.29414,5.70035 6.19501,11.70945 8.11556,18.00681 3.34247,10.95972 5.7682,33.88682 5.7682,33.88682 l 20.70523,206.72154 -0.4164,9.81585 -1.1185,9.46477 c 0,0 -1.443,5.78281 -2.5881,8.52178 -0.8871,2.1218 -2.0422,4.1326 -3.2904,6.06416 -1.1766,1.82078 -2.5957,3.47353 -3.9374,5.17631 -1.2848,1.63057 -2.4204,3.40805 -3.9374,4.82522 -1.9315,1.80446 -4.22797,3.18483 -6.4703,4.58441 -2.08438,1.30099 -4.25699,2.46431 -6.47038,3.53114 -5.05504,2.43647 -10.24767,4.59855 -15.5143,6.53566 -9.69806,3.56702 -29.55785,9.34436 -29.55785,9.34436 l -35.05037,9.65044 -27.6775,5.76822 -57.02942,5.5274 -35.09088,1.64516 -25.73076,1.05327 c 0,0 -11.95935,0.60709 -17.91678,1.1838 -4.47933,0.43362 -9.03098,0.59969 -13.39202,1.71043 -4.64306,1.18257 -9.06292,3.16816 -13.39201,5.22132 -4.11141,1.94992 -7.95394,4.42363 -11.8875,6.71119 -4.18595,2.43433 -8.24039,5.09357 -12.46341,7.46301 -3.17567,1.7818 -6.25196,3.82989 -9.67408,5.0744 -2.67007,0.97102 -5.48796,1.73864 -8.3281,1.81441 -3.52263,0.094 -7.00479,-0.88786 -10.43464,-1.69649 -5.80812,-1.36934 -17.09245,-5.32285 -17.09245,-5.32285 0,0 -21.50212,-8.38775 -32.60611,-11.45552 -4.16012,-1.14934 -8.37723,-2.34963 -12.6866,-2.58815 -4.75724,-0.26331 -9.57584,0.29698 -14.23485,1.29408 -5.1915,1.11106 -10.36019,2.7118 -15.06257,5.17631 -9.57325,5.01732 -16.77289,13.7839 -26.11472,19.21997 -3.34607,1.9471 -6.84245,3.82705 -10.6068,4.73096 -3.98658,0.95727 -8.19429,0.93619 -12.28323,0.63654 -4.01389,-0.29415 -8.05927,-0.99037 -11.83788,-2.37598 -4.32371,-1.5855 -8.49499,-3.80692 -12.09206,-6.68257 -2.25868,-1.80568 -5.20929,-5.2038 -7.38957,-7.87258 -1.75092,-2.14321 -2.34871,-3.00827 -2.34871,-3.00827"
       inkscape:connector-curvature="0"
       sodipodi:nodetypes="cccccccccccccccccccccccccaaaaaaaaaaacccccssssccsssscsssssssscccccccccccccssssccsssssccssssscsscsscccsccssccccsssssssssssscssssssccccssscsssccccccsssssssscssssssssssc" />
  </g>
</svg>
