<?xml version="1.0" encoding="UTF-8" standalone="no"?>
<!-- Created with Inkscape by VulcanSphere (http://www.inkscape.org/ and http://vulcansphere.com) -->

<svg
   width="230.37343mm"
   height="263.86343mm"
   viewBox="0 0 230.3734 263.86343"
   version="1.1"
   id="svg1"
   xml:space="preserve"
   xmlns="http://www.w3.org/2000/svg"
   xmlns:svg="http://www.w3.org/2000/svg"
   xmlns:rdf="http://www.w3.org/1999/02/22-rdf-syntax-ns#"
   xmlns:cc="http://creativecommons.org/ns#"
   xmlns:dc="http://purl.org/dc/elements/1.1/"><title
     id="title1">Balaton Park Circuit</title><desc
     id="desc1">Motorsport circuit in Balatonfőkajár, Hungary</desc><defs
     id="defs1" /><g
     id="layer1"
     transform="translate(58.30594,94.573871)"><g
       id="layer1-5"
       transform="translate(-193.33394,-234.01165)" /><path
       id="path1"
       d="m -7.6440813,-79.433233 c 2.4708564,-1.426985 3.3336187,-4.379574 2.6705885,-6.801348 -0.468255,-1.710341 -1.7929783,-2.881776 -3.4090084,-3.340297 -0.8361794,-0.237251 -1.3748544,-0.361944 -2.1570638,-0.387037 -2.941152,-0.09435 -6.631159,0.0228 -9.945158,-0.04374 -3.310109,-0.06646 -6.584598,0.12417 -9.682691,1.374423 -4.680305,1.888764 -9.068326,4.849639 -11.197283,9.40967 -3.02936,6.488614 -6.492427,13.367102 -8.771112,20.479279 -2.754963,8.598727 5.226271,17.238945 14.424952,17.242422 8.596135,0.0033 17.19227,7.59e-4 25.7884076,0.0071 11.882612,0.0088 23.7652274,0.01917 35.6481934,0.03669 11.560175,0.01705 23.120702,0.04904 34.681228,0.06491 13.877571,0.01905 27.754792,0.02699 41.632368,0.04198 5.34458,0.0058 9.18083,5.362274 7.38999,10.379782 -1.29315,3.623078 -2.73385,7.193782 -4.00297,10.824985 -1.12518,3.219389 -0.74006,5.296759 0.44875,8.478983 0.7969,2.1331794 6.83153,10.1853269 11.19404,16.4869334 1.29841,1.8755307 2.68634,3.650441 3.86497,5.6217626 1.00397,1.679216 2.30253,3.993377 3.09813,6.1449 1.02662,2.776275 1.81482,5.678617 2.12281,8.622559 0.40548,3.875798 0.50632,7.890808 -0.38473,11.684521 -1.11558,4.749649 -2.96001,9.466791 -6.08131,13.313557 -1.09738,1.28727 -4.19701,5.488781 -6.53013,7.517547 -0.32522,0.31986 -2.68366,2.549547 -3.73622,3.488376 -0.63708,0.568246 -1.74134,1.487286 -2.31101,2.03651 -3.85582,3.717407 -7.279763,6.698349 -11.213285,10.336841 -4.382153,4.053475 -8.235545,7.876795 -12.615388,11.932919 -3.629271,3.361028 -7.266831,6.712696 -10.897306,10.071803 -4.402272,4.073216 -8.801572,8.149392 -13.202002,12.224462 -3.262255,3.02105 -6.533398,6.03255 -9.781823,9.06815 -1.263957,1.18115 -1.312685,2.94428 -0.16792,4.26543 0.460375,0.53129 0.933528,1.05261 1.421693,1.55858 2.336878,2.42209 2.739415,5.9606 0.694973,8.60035 -0.92136,1.18964 -2.289074,2.06778 -3.546829,2.95593 -3.181601,2.24664 -6.418085,4.41502 -9.628717,6.62093 -3.644545,2.50402 -7.255193,5.05923 -10.935755,7.50853 -3.087479,2.05462 -3.982573,6.17506 -1.863021,9.10167 2.124717,2.93375 6.327123,3.42589 9.196564,1.04844 4.660952,-3.8618 9.303317,-7.74611 13.95871,-11.6145 7.130913,-5.92543 14.265597,-11.84596 21.400558,-17.76624 1.315482,-1.09153 17.441746,-14.5112 18.046246,-15.027 12.736692,-10.86785 16.913982,-14.523817 27.301292,-28.521283 4.21208,-5.676012 6.59934,-9.929369 8.37109,-14.19193 3.95418,-9.513145 9.7031,-26.226114 9.94016,-27.543273 0.58632,-3.257589 2.64671,-14.920193 2.78647,-21.94586 0.16746,-8.418338 -0.0947,-16.6210982 -0.0691,-25.0422559 0.0175,-5.7799106 -0.16902,-11.9510611 -0.0212,-17.6784761 0.0361,-1.399069 0.55513,-3.00482 1.3816,-4.133865 1.13397,-1.549132 3.10303,-2.694229 5.44338,-2.741002 1.29031,-0.02579 2.75631,-0.06553 4.04642,-0.100296 1.07187,-0.02889 1.4949,-0.310427 1.905,-0.58136 0.20822,-0.137559 0.53722,-0.578889 0.53338,-0.870307 -0.0102,-0.775149 4.85414,-17.322631 4.807,-18.147617 -0.16429,-2.875335 -2.42049,-5.260307 -4.04698,-7.431339 -2.81037,-3.751253 -5.14219,-7.239996 -6.60054,-9.041362 0,0 -1.73074,-2.091654 -2.75936,-3.00653 -0.86808,-0.772094 -2.94221,-0.6465 -3.19283,-0.520531 -0.93114,0.468022 -1.64606,0.948766 -2.55743,1.59674 -0.62675,0.44561 -1.35402,0.96704 -2.27768,1.630975 -0.58193,0.418299 -1.326,0.969811 -2.06713,1.531669 -3.05848,2.318666 -6.28519,6.557048 -11.67795,6.356896 -2.14016,-0.07943 -4.28378,-0.0072 -6.42585,-0.0095 -15.315849,-0.01666 -30.631695,-0.03511 -45.947894,-0.04763 -14.05255,-0.01148 -28.1051,-0.0125 -42.15765,-0.02506 -14.377458,-0.01284 -30.8128889,0.127289 -45.190347,0.153219 -3.589514,0.0065 -6.435564,-1.77711 -7.888288,-5.191651 -1.228035,-2.886421 0.261668,-6.937412 3.008665,-8.43333 2.762679,-1.504457 5.552017,-2.960158 8.32979,-4.436885 m 3.717745,2.715036 c -2.854325,1.518002 -5.524817,2.945343 -8.381645,4.458699 -1.72893,0.915871 -2.887061,2.301816 -2.472796,4.039659 0.374545,1.571214 1.334735,2.170891 3.189287,2.168525 12.5281975,-0.01598 27.1147229,0.328467 39.643273,0.332197 13.584766,0.004 27.169885,0.04192 40.754651,0.05997 14.553139,0.01933 29.105929,0.03608 43.658719,0.04657 4.98722,0.0036 9.48542,-0.311937 14.47089,-0.0708 4.19873,0.203087 6.27937,-2.052838 8.28982,-3.579625 4.02825,-3.059162 6.20389,-4.832028 8.35982,-6.088141 1.06476,-0.62036 2.86485,-1.779053 4.71013,-1.861069 1.34881,-0.05995 2.30924,-0.487566 4.97271,1.645177 1.25783,1.007188 14.71845,18.87248 15.05158,21.400049 0.5522,4.189785 -4.59563,17.568605 -5.21582,20.535472 -0.32494,1.554452 -2.00327,3.340713 -2.71814,3.845363 -0.97723,0.689853 -1.73921,0.984934 -3.89027,1.007447 -1.02729,0.01075 -2.05422,0.02951 -3.08151,0.04445 -2.05317,0.02986 -3.10707,1.084086 -3.12879,3.164771 -0.0365,3.49144 -0.0587,6.983235 -0.085,10.4750287 -0.0689,9.15387594 -0.16711,18.307402 -0.19614,27.4612813 -0.0271,8.543922 -0.89667,16.991559 -2.66947,25.348493 -1.32153,6.229642 -3.15232,12.351316 -5.41295,18.257566 -1.29121,3.373484 -2.67147,6.634327 -4.23305,9.936079 -3.26104,6.895049 -6.00406,11.411628 -8.64554,15.123469 -1.29031,1.813157 -6.34747,8.830787 -12.42694,15.279327 -2.6427,2.80313 -5.35452,5.52568 -7.848826,7.79417 -3.364295,3.05972 -6.237092,5.31256 -7.10737,6.00365 -5.011799,3.97988 -28.443353,23.85913 -35.598421,29.80201 -6.47979,5.38203 -13.44209,10.96567 -19.945548,16.31909 -3.836458,3.15807 -9.603,2.96708 -13.178541,-0.34818 -2.642104,-2.44977 -3.680992,-6.05642 -2.94771,-9.39978 0.276999,-1.26296 0.792616,-2.49135 1.598245,-3.5916 1.014492,-1.3855 2.426684,-2.31647 3.806327,-3.26307 3.283726,-2.25309 6.41641,-4.42873 9.698653,-6.68403 3.210277,-2.20591 6.604034,-4.50478 9.81399,-6.71065 0.771142,-0.52992 1.474339,-1.01221 2.194977,-1.60605 1.542783,-1.27128 1.522336,-3.18448 0.08132,-4.61016 -1.305707,-1.29179 -2.542636,-2.58597 -3.009107,-4.41483 -0.627142,-2.45881 -0.0082,-4.75154 1.816984,-6.48019 3.675267,-3.48081 7.467884,-6.912 11.183716,-10.34943 5.498308,-5.086348 10.660662,-9.969806 16.161262,-15.053942 5.887066,-5.441341 11.154749,-10.333796 17.042493,-15.774109 3.423679,-3.163501 8.174093,-7.478414 11.479376,-10.574996 0.93468,-0.875666 1.96293,-1.87112 2.75219,-2.610587 1.12391,-1.053001 2.84493,-2.676413 3.28926,-3.249957 1.71482,-2.213499 5.15199,-5.380443 7.22978,-7.936977 2.51029,-3.088682 4.2439,-7.911312 5.25283,-12.232703 0.88316,-3.782716 1.04278,-7.775648 0.61886,-11.636892 -0.35323,-3.21737 -1.38309,-6.357233 -2.60715,-9.353552 -0.80049,-1.959476 -1.42013,-2.789964 -3.06566,-5.560991 -0.80861,-1.3616739 -1.88127,-2.7399601 -3.06479,-4.4297366 -3.37937,-4.82488869 -10.12731,-13.2231332 -11.27712,-16.0403274 -1.804549,-4.421369 -2.078676,-6.905186 -0.41949,-11.472575 1.27346,-3.505578 2.63377,-6.750318 3.87689,-10.266129 0.59989,-1.696631 -0.14179,-3.063221 -0.93451,-4.088413 -0.54947,-0.710607 -1.27589,-1.161849 -2.5208,-1.217776 -1.11302,-0.05 -1.733473,-0.214858 -2.848246,-0.216088 -15.785041,-0.01748 -31.569731,-0.03656 -47.354772,-0.05045 -13.085937,-0.01151 -26.171522,-0.01242 -39.257462,-0.02611 -12.52749165,-0.0131 -25.054628,-0.03144 -37.581768,-0.05962 -4.106685,-0.0092 -10.288629,-0.204183 -14.373445,-0.519169 -4.996388,-0.385279 -9.226076,-2.587058 -12.042953,-6.809845 -3.47668,-5.2119 -3.842537,-10.801387 -1.260123,-16.509646 2.116586,-4.678576 4.12795,-9.634223 6.312784,-14.27921 1.468533,-3.122121 3.18441,-6.90981 5.413021,-9.66752 1.76588,-2.185122 3.415179,-3.367013 5.801431,-4.85775 4.678123,-2.922513 9.800161,-3.857454 15.240703,-3.688647 3.33692,0.103536 6.683025,-0.120719 10.023475,-0.08078 4.0657652,0.04861 7.8441062,2.933787 9.1581124,6.846007 1.3152482,3.915917 0.37257738,8.572543 -2.7921555,11.049431 -0.3655074,0.286065 -0.8035576,0.590109 -1.3837889,0.831619"
       style="fill:#fffa69;fill-opacity:1;fill-rule:nonzero;stroke:none;stroke-width:0.352777" /></g><metadata
     id="metadata60"><rdf:RDF><cc:Work
         rdf:about=""><dc:title>Balaton Park Circuit</dc:title></cc:Work></rdf:RDF></metadata></svg>