<?xml version="1.0" encoding="UTF-8" standalone="no"?>
<!-- Created with Inkscape by VulcanSphere (http://www.inkscape.org/ and http://vulcansphere.com) -->

<svg
   width="230.37343mm"
   height="263.86343mm"
   viewBox="0 0 230.3734 263.86343"
   version="1.1"
   id="svg1"
   xml:space="preserve"
   sodipodi:docname="Hungaryv.svg"
   inkscape:version="1.4.3 (fcd0343856, 2026-01-01)"
   xmlns:inkscape="http://www.inkscape.org/namespaces/inkscape"
   xmlns:sodipodi="http://sodipodi.sourceforge.net/DTD/sodipodi-0.dtd"
   xmlns="http://www.w3.org/2000/svg"
   xmlns:svg="http://www.w3.org/2000/svg"><defs
     id="defs1" /><sodipodi:namedview
     id="namedview1"
     pagecolor="#ffffff"
     bordercolor="#000000"
     borderopacity="0.25"
     inkscape:showpageshadow="2"
     inkscape:pageopacity="0.0"
     inkscape:pagecheckerboard="0"
     inkscape:deskcolor="#d1d1d1"
     inkscape:document-units="mm"
     showgrid="false"
     inkscape:zoom="0.59951576"
     inkscape:cx="434.51735"
     inkscape:cy="502.07187"
     inkscape:window-width="1210"
     inkscape:window-height="933"
     inkscape:window-x="0"
     inkscape:window-y="0"
     inkscape:window-maximized="1"
     inkscape:current-layer="layer1" /><title
     id="title1">Balaton Park Circuit</title><desc
     id="desc1">Motorsport circuit in Balatonfőkajár, Hungary</desc><g
     id="layer1"
     transform="translate(58.30594,94.573871)"><path
       id="path1"
       d="m 112.32481,89.83029 c -1.29315,-3.623078 -2.73385,-7.193782 -4.00297,-10.824985 -1.12518,-3.219389 -0.74006,-5.296759 0.44875,-8.478983 0.7969,-2.13318 6.83153,-10.185327 11.19404,-16.486934 1.29841,-1.875531 2.40524,-3.340262 2.22267,-5.629787 -1.03654,-12.998815 -5.01877,-35.832337 -6.69425,-47.602464 -0.12042,-0.380331 -0.39877,-0.994556 -0.72755,-1.4081064 -0.41756,-0.525216 -2.88453,-2.609314 -5.97098,-5.396641 -3.65915,-3.304523 -8.13456,-7.0033896 -10.000711,-8.7295746 -4.382154,-4.053474 -8.235545,-7.876795 -12.615388,-11.932919 -3.629271,-3.361028 -7.266831,-6.712696 -10.897306,-10.071803 -4.402272,-4.073216 -8.801572,-8.149392 -13.202002,-12.224462 -3.262255,-3.02105 -6.533398,-6.03255 -9.781823,-9.06815 -1.263957,-1.18115 -1.312685,-2.94428 -0.16792,-4.26543 0.460375,-0.53129 0.933528,-1.05261 1.421693,-1.55858 2.336878,-2.42209 2.739415,-5.9606 0.694973,-8.60035 -0.92136,-1.18964 -2.289074,-2.06778 -3.546829,-2.95593 -3.181601,-2.24664 -6.418085,-4.41502 -9.628717,-6.62093 -3.644545,-2.50402 -7.255193,-5.05923 -10.935755,-7.50853 -3.087479,-2.05462 -3.982573,-6.17506 -1.863021,-9.10167 2.124717,-2.933751 6.327123,-3.425891 9.196564,-1.04844 4.660952,3.8618 9.303317,7.74611 13.95871,11.6145 7.130913,5.92543 14.265597,11.84596 21.400558,17.76624 1.315482,1.09153 17.439078,14.51434 18.046246,15.027 0.851642,0.71907 -3.488939,6.13865 -4.02424,7.00604 -0.119567,0.19374 -0.448273,1.07803 -0.369215,1.74515 0.09265,0.78186 0.623091,1.35278 0.875475,1.47218 4.048571,1.91535 11.948382,4.997324 21.511478,10.176551 4.83329,2.617634 7.23515,5.197538 9.30779,8.121362 8.67097,12.106912 14.44357,27.48666777 18.39393,41.718667 4.36599,21.299194 2.32216,43.109316 2.61349,64.683128 0.0361,1.399069 0.55513,3.00482 1.3816,4.133865 2.26638,3.104811 6.08615,2.749597 9.4898,2.841298 1.07187,0.02889 1.4949,0.310427 1.905,0.58136 0.20822,0.137559 0.53722,0.578889 0.53338,0.870307 -0.10738,8.144861 -2.44644,19.560441 -2.94753,23.327381 m -159.979195,18.98003 c -2.854325,-1.518 -5.524817,-2.94534 -8.381645,-4.4587 -1.72893,-0.91587 -2.887061,-2.30182 -2.472796,-4.03966 0.374545,-1.57121 1.334735,-2.17089 3.189287,-2.16852 12.5281972,0.016 27.1147226,-0.32847 39.643273,-0.3322 13.584766,-0.004 27.169885,-0.0419 40.754651,-0.06 14.553139,-0.0193 29.105929,-0.0361 43.658715,-0.0466 4.98722,-0.004 10.01459,0.0473 15.00006,-0.19379 12.61153,-0.61 21.19231,-1.41971 26.71183,-2.26451 1.85746,-0.28429 4.99219,-2.19785 4.76985,-2.04325 0.87285,-0.40363 3.24476,-19.36128 3.36364,-28.670144 0.0203,-1.587922 -1.20952,-2.150088 -1.92439,-2.654738 -0.97723,-0.689853 -1.73921,-0.984934 -3.89027,-1.007447 -1.02729,-0.01075 -2.05422,-0.02951 -3.08151,-0.04445 -2.05317,-0.02986 -3.10707,-1.084086 -3.12879,-3.164771 -0.0365,-3.49144 -0.0587,-6.983235 -0.085,-10.475029 -0.0689,-9.153876 -0.16711,-18.307402 -0.19614,-27.461281 -0.0271,-8.543922 -0.89667,-16.991559 -2.66947,-25.348493 -1.32153,-6.229642 -3.15232,-12.351316 -5.41295,-18.2575664 -1.29121,-3.373484 -2.67147,-6.634327 -4.23305,-9.9360786 -3.26104,-6.895049 -6.00406,-11.411629 -8.64554,-15.123469 -2.60771,-3.66439 -5.09126,-6.546165 -11.74498,-9.899895 -4.58605,-2.311546 -15.180476,-7.653117 -19.721769,-10.029167 -0.22655,-0.11854 -0.473692,-0.46208 -0.564389,-0.66038 0,0 0.984182,-1.23746 2.060532,-2.50325 0.897338,-1.05527 1.793381,-2.46258 2.290214,-3.45195 0.09969,-0.19851 0.346103,-1.06411 0.491449,-1.56513 0.102106,-0.35196 -0.07169,-0.86723 -0.194189,-0.96738 -4.955027,-4.05034 -28.443353,-23.85913 -35.598421,-29.80201 -6.47979,-5.38203 -13.44209,-10.96567 -19.945548,-16.319091 -3.836458,-3.15807 -9.603,-2.96708 -13.178541,0.34818 -2.642104,2.449771 -3.680992,6.056421 -2.94771,9.399781 0.276999,1.26296 0.792616,2.49135 1.598245,3.5916 1.014492,1.3855 2.426684,2.31647 3.806327,3.26307 3.283726,2.25309 6.41641,4.42873 9.698653,6.68403 3.210277,2.20591 6.604034,4.50478 9.81399,6.71065 0.771142,0.52992 1.474339,1.01221 2.194977,1.60605 1.542783,1.27128 1.522336,3.18448 0.08132,4.61016 -1.305707,1.29179 -2.542636,2.58597 -3.009107,4.41483 -0.627142,2.45881 -0.0082,4.75154 1.816984,6.48019 3.675267,3.48081 7.467884,6.912 11.183716,10.34943 5.498308,5.086353 10.660662,9.969811 16.161262,15.053947 5.887066,5.441341 11.154749,10.333796 17.042493,15.774109 3.423679,3.163501 8.174092,7.4784136 11.479372,10.5749956 0.93468,0.875666 2.11176,1.804975 2.90102,2.544441 0.70409,0.6596674 1.74453,1.4890794 2.4709,2.1915814 0.13291,0.128537 0.24229,0.259053 0.3316,0.38591 0.20174,0.286543 0.3011,0.554412 0.33793,0.738612 2.51501,12.57711 6.32641,34.187451 7.33514,46.440482 0.0303,0.368587 -0.14878,0.682452 -0.36335,1.010931 -0.1694,0.259329 -0.34843,0.533995 -0.55017,0.808771 -0.66679,0.908212 -1.3688,1.90705 -2.05773,2.890667 -3.37936,4.824897 -10.12731,13.223133 -11.27712,16.040328 -1.80455,4.421369 -2.07867,6.905186 -0.41949,11.472575 1.27346,3.505578 2.63377,6.750318 3.87689,10.266129 0.59989,1.69663 -0.14179,3.06322 -0.93451,4.08841 -0.54947,0.71061 -1.27589,1.16185 -2.5208,1.21778 -1.11302,0.05 -1.73347,0.21486 -2.84824,0.21609 -15.785043,0.0175 -31.569733,0.0366 -47.354774,0.0504 -13.085937,0.0115 -26.171522,0.0124 -39.257462,0.0261 -12.5274919,0.0131 -25.054628,0.0314 -37.581768,0.0596 -4.106685,0.009 -10.288629,0.20418 -14.373445,0.51917 -4.996388,0.38527 -9.226076,2.58705 -12.042953,6.80984 -3.47668,5.2119 -3.842537,10.80139 -1.260123,16.50965 2.116586,4.67857 4.12795,9.63422 6.312784,14.27921 1.468533,3.12212 3.18441,6.90981 5.413021,9.66752 1.76588,2.18512 3.415179,3.36701 5.801431,4.85775 4.678123,2.92251 9.800161,3.85745 15.240703,3.68864 3.33692,-0.10353 6.683025,0.12072 10.0234747,0.0808 4.0657652,-0.0486 7.8441062,-2.93378 9.1581124,-6.846 1.3152482,-3.91592 0.3725774,-8.57255 -2.7921555,-11.04943 -0.3655074,-0.28607 -0.8035576,-0.59011 -1.3837889,-0.83162 z"
       style="fill:#fffa69;fill-opacity:1;fill-rule:nonzero;stroke:none;stroke-width:0.352777"
       sodipodi:nodetypes="csssscsssssssssssssssssssssssssssssccsssscccscsssscsssssssscssscscsssccscsscssssssscsssssssssccscsssssssssscc" /></g></svg>
