<?xml version="1.0" encoding="UTF-8" standalone="no"?>
<!-- Created with Inkscape by VulcanSphere (http://www.inkscape.org/ and http://vulcansphere.com) -->

<svg
   width="230.37343mm"
   height="263.86343mm"
   viewBox="0 0 230.3734 263.86343"
   version="1.1"
   id="svg1"
   xml:space="preserve"
   xmlns="http://www.w3.org/2000/svg"
   xmlns:svg="http://www.w3.org/2000/svg"
   xmlns:rdf="http://www.w3.org/1999/02/22-rdf-syntax-ns#"
   xmlns:cc="http://creativecommons.org/ns#"
   xmlns:dc="http://purl.org/dc/elements/1.1/"><title
     id="title1">Balaton Park Circuit</title><desc
     id="desc1">Motorsport circuit in Balatonfőkajár, Hungary</desc><defs
     id="defs1" /><g
     id="layer1"
     transform="translate(58.30594,94.573871)"><g
       id="g34"
       transform="matrix(1.9149172,0,0,1.9149172,-92.890459,-26.638566)"><path
         style="font-size:4.2375px;fill:#ff0000;stroke:none;stroke-width:1.02731;stroke-dasharray:none"
         d="m 77.122649,19.480133 -5.23261,6.073203 0.4165,-3.04344 -2.52542,-2.172267 z"
         id="path22"
         transform="matrix(1.0150671,0,0,0.98515657,0.23386069,-0.36615206)" /><g
         id="g33"
         transform="matrix(0.58633151,0,0,0.58633151,1.7909396,31.653308)"><path
           style="font-weight:bold;font-size:9.03312px;font-family:'Nimbus Roman No9 L';-inkscape-font-specification:'Nimbus Roman No9 L Bold';stroke-width:2.26581"
           d="m 113.28485,-18.543693 -0.79392,-0.114678 v -0.321981 h 2.1039 v 0.321981 l -0.75864,0.114678 v 5.478094 h -0.51605 l -3.64765,-4.754738 v 4.313667 l 0.79392,0.119089 v 0.321982 h -2.1039 v -0.321982 l 0.75864,-0.119089 v -5.037023 l -0.75864,-0.114678 v -0.321981 h 2.02451 l 2.89783,3.779972 z"
           id="text33" /></g></g><g
       id="layer1-5"
       transform="translate(-193.33394,-234.01165)" /><path
       id="path1"
       d="m -7.6440813,-79.433233 c 2.4708564,-1.426985 3.3336187,-4.379574 2.6705885,-6.801348 -0.468255,-1.710341 -1.7929783,-2.881776 -3.4090084,-3.340297 -0.8361794,-0.237251 -1.3748544,-0.361944 -2.1570638,-0.387037 -2.941152,-0.09435 -6.631159,0.0228 -9.945158,-0.04374 -3.310109,-0.06646 -6.584598,0.12417 -9.682691,1.374423 -4.680305,1.888764 -9.068326,4.849639 -11.197283,9.40967 -3.02936,6.488614 -6.492427,13.367102 -8.771112,20.479279 -2.754963,8.598727 5.226271,17.238945 14.424952,17.242422 8.596135,0.0033 17.19227,7.59e-4 25.7884076,0.0071 11.882612,0.0088 23.7652274,0.01917 35.6481934,0.03669 11.560175,0.01705 23.120702,0.04904 34.681228,0.06491 13.877571,0.01905 27.754792,0.02699 41.632368,0.04198 5.34458,0.0058 9.18083,5.362274 7.38999,10.379782 -1.29315,3.623078 -2.73385,7.193782 -4.00297,10.824985 -1.12518,3.219389 -0.74006,5.296759 0.44875,8.478983 0.7969,2.1331794 6.83153,10.1853269 11.19404,16.4869334 1.29841,1.8755307 2.68634,3.650441 3.86497,5.6217626 1.00397,1.679216 2.30253,3.993377 3.09813,6.1449 1.02662,2.776275 1.81482,5.678617 2.12281,8.622559 0.40548,3.875798 0.50632,7.890808 -0.38473,11.684521 -1.11558,4.749649 -2.96001,9.466791 -6.08131,13.313557 -1.09738,1.28727 -4.19701,5.488781 -6.53013,7.517547 -0.32522,0.31986 -2.68366,2.549547 -3.73622,3.488376 -0.63708,0.568246 -1.74134,1.487286 -2.31101,2.03651 -3.85582,3.717407 -7.279763,6.698349 -11.213285,10.336841 -4.382153,4.053475 -8.235545,7.876795 -12.615388,11.932919 -3.629271,3.361028 -7.266831,6.712696 -10.897306,10.071803 -4.402272,4.073216 -8.801572,8.149392 -13.202002,12.224462 -3.262255,3.02105 -6.533398,6.03255 -9.781823,9.06815 -1.263957,1.18115 -1.312685,2.94428 -0.16792,4.26543 0.460375,0.53129 0.933528,1.05261 1.421693,1.55858 2.336878,2.42209 2.739415,5.9606 0.694973,8.60035 -0.92136,1.18964 -2.289074,2.06778 -3.546829,2.95593 -3.181601,2.24664 -6.418085,4.41502 -9.628717,6.62093 -3.644545,2.50402 -7.255193,5.05923 -10.935755,7.50853 -3.087479,2.05462 -3.982573,6.17506 -1.863021,9.10167 2.124717,2.93375 6.327123,3.42589 9.196564,1.04844 4.660952,-3.8618 9.303317,-7.74611 13.95871,-11.6145 7.130913,-5.92543 14.265597,-11.84596 21.400558,-17.76624 1.315482,-1.09153 17.441746,-14.5112 18.046246,-15.027 12.736692,-10.86785 16.913982,-14.523817 27.301292,-28.521283 4.21208,-5.676012 6.59934,-9.929369 8.37109,-14.19193 3.95418,-9.513145 9.7031,-26.226114 9.94016,-27.543273 0.58632,-3.257589 2.64671,-14.920193 2.78647,-21.94586 0.16746,-8.418338 -0.0947,-16.6210982 -0.0691,-25.0422559 0.0175,-5.7799106 -0.16902,-11.9510611 -0.0212,-17.6784761 0.0361,-1.399069 0.55513,-3.00482 1.3816,-4.133865 1.13397,-1.549132 3.10303,-2.694229 5.44338,-2.741002 1.29031,-0.02579 2.75631,-0.06553 4.04642,-0.100296 1.07187,-0.02889 1.4949,-0.310427 1.905,-0.58136 0.20822,-0.137559 0.53722,-0.578889 0.53338,-0.870307 -0.0102,-0.775149 4.85414,-17.322631 4.807,-18.147617 -0.16429,-2.875335 -2.42049,-5.260307 -4.04698,-7.431339 -2.81037,-3.751253 -5.14219,-7.239996 -6.60054,-9.041362 0,0 -1.73074,-2.091654 -2.75936,-3.00653 -0.86808,-0.772094 -2.94221,-0.6465 -3.19283,-0.520531 -0.93114,0.468022 -1.64606,0.948766 -2.55743,1.59674 -0.62675,0.44561 -1.35402,0.96704 -2.27768,1.630975 -0.58193,0.418299 -1.326,0.969811 -2.06713,1.531669 -3.05848,2.318666 -6.28519,6.557048 -11.67795,6.356896 -2.14016,-0.07943 -4.28378,-0.0072 -6.42585,-0.0095 -15.315849,-0.01666 -30.631695,-0.03511 -45.947894,-0.04763 -14.05255,-0.01148 -28.1051,-0.0125 -42.15765,-0.02506 -14.377458,-0.01284 -30.8128889,0.127289 -45.190347,0.153219 -3.589514,0.0065 -6.435564,-1.77711 -7.888288,-5.191651 -1.228035,-2.886421 0.261668,-6.937412 3.008665,-8.43333 2.762679,-1.504457 5.552017,-2.960158 8.32979,-4.436885 m 3.717745,2.715036 c -2.854325,1.518002 -5.524817,2.945343 -8.381645,4.458699 -1.72893,0.915871 -2.887061,2.301816 -2.472796,4.039659 0.374545,1.571214 1.334735,2.170891 3.189287,2.168525 12.5281975,-0.01598 27.1147229,0.328467 39.643273,0.332197 13.584766,0.004 27.169885,0.04192 40.754651,0.05997 14.553139,0.01933 29.105929,0.03608 43.658719,0.04657 4.98722,0.0036 9.48542,-0.311937 14.47089,-0.0708 4.19873,0.203087 6.27937,-2.052838 8.28982,-3.579625 4.02825,-3.059162 6.20389,-4.832028 8.35982,-6.088141 1.06476,-0.62036 2.86485,-1.779053 4.71013,-1.861069 1.34881,-0.05995 2.30924,-0.487566 4.97271,1.645177 1.25783,1.007188 14.71845,18.87248 15.05158,21.400049 0.5522,4.189785 -4.59563,17.568605 -5.21582,20.535472 -0.32494,1.554452 -2.00327,3.340713 -2.71814,3.845363 -0.97723,0.689853 -1.73921,0.984934 -3.89027,1.007447 -1.02729,0.01075 -2.05422,0.02951 -3.08151,0.04445 -2.05317,0.02986 -3.10707,1.084086 -3.12879,3.164771 -0.0365,3.49144 -0.0587,6.983235 -0.085,10.4750287 -0.0689,9.15387594 -0.16711,18.307402 -0.19614,27.4612813 -0.0271,8.543922 -0.89667,16.991559 -2.66947,25.348493 -1.32153,6.229642 -3.15232,12.351316 -5.41295,18.257566 -1.29121,3.373484 -2.67147,6.634327 -4.23305,9.936079 -3.26104,6.895049 -6.00406,11.411628 -8.64554,15.123469 -1.29031,1.813157 -6.34747,8.830787 -12.42694,15.279327 -2.6427,2.80313 -5.35452,5.52568 -7.848826,7.79417 -3.364295,3.05972 -6.237092,5.31256 -7.10737,6.00365 -5.011799,3.97988 -28.443353,23.85913 -35.598421,29.80201 -6.47979,5.38203 -13.44209,10.96567 -19.945548,16.31909 -3.836458,3.15807 -9.603,2.96708 -13.178541,-0.34818 -2.642104,-2.44977 -3.680992,-6.05642 -2.94771,-9.39978 0.276999,-1.26296 0.792616,-2.49135 1.598245,-3.5916 1.014492,-1.3855 2.426684,-2.31647 3.806327,-3.26307 3.283726,-2.25309 6.41641,-4.42873 9.698653,-6.68403 3.210277,-2.20591 6.604034,-4.50478 9.81399,-6.71065 0.771142,-0.52992 1.474339,-1.01221 2.194977,-1.60605 1.542783,-1.27128 1.522336,-3.18448 0.08132,-4.61016 -1.305707,-1.29179 -2.542636,-2.58597 -3.009107,-4.41483 -0.627142,-2.45881 -0.0082,-4.75154 1.816984,-6.48019 3.675267,-3.48081 7.467884,-6.912 11.183716,-10.34943 5.498308,-5.086348 10.660662,-9.969806 16.161262,-15.053942 5.887066,-5.441341 11.154749,-10.333796 17.042493,-15.774109 3.423679,-3.163501 8.174093,-7.478414 11.479376,-10.574996 0.93468,-0.875666 1.96293,-1.87112 2.75219,-2.610587 1.12391,-1.053001 2.84493,-2.676413 3.28926,-3.249957 1.71482,-2.213499 5.15199,-5.380443 7.22978,-7.936977 2.51029,-3.088682 4.2439,-7.911312 5.25283,-12.232703 0.88316,-3.782716 1.04278,-7.775648 0.61886,-11.636892 -0.35323,-3.21737 -1.38309,-6.357233 -2.60715,-9.353552 -0.80049,-1.959476 -1.42013,-2.789964 -3.06566,-5.560991 -0.80861,-1.3616739 -1.88127,-2.7399601 -3.06479,-4.4297366 -3.37937,-4.82488869 -10.12731,-13.2231332 -11.27712,-16.0403274 -1.804549,-4.421369 -2.078676,-6.905186 -0.41949,-11.472575 1.27346,-3.505578 2.63377,-6.750318 3.87689,-10.266129 0.59989,-1.696631 -0.14179,-3.063221 -0.93451,-4.088413 -0.54947,-0.710607 -1.27589,-1.161849 -2.5208,-1.217776 -1.11302,-0.05 -1.733473,-0.214858 -2.848246,-0.216088 -15.785041,-0.01748 -31.569731,-0.03656 -47.354772,-0.05045 -13.085937,-0.01151 -26.171522,-0.01242 -39.257462,-0.02611 -12.52749165,-0.0131 -25.054628,-0.03144 -37.581768,-0.05962 -4.106685,-0.0092 -10.288629,-0.204183 -14.373445,-0.519169 -4.996388,-0.385279 -9.226076,-2.587058 -12.042953,-6.809845 -3.47668,-5.2119 -3.842537,-10.801387 -1.260123,-16.509646 2.116586,-4.678576 4.12795,-9.634223 6.312784,-14.27921 1.468533,-3.122121 3.18441,-6.90981 5.413021,-9.66752 1.76588,-2.185122 3.415179,-3.367013 5.801431,-4.85775 4.678123,-2.922513 9.800161,-3.857454 15.240703,-3.688647 3.33692,0.103536 6.683025,-0.120719 10.023475,-0.08078 4.0657652,0.04861 7.8441062,2.933787 9.1581124,6.846007 1.3152482,3.915917 0.37257738,8.572543 -2.7921555,11.049431 -0.3655074,0.286065 -0.8035576,0.590109 -1.3837889,0.831619"
       style="fill:#fffa69;fill-opacity:1;fill-rule:nonzero;stroke:none;stroke-width:0.352777" /><g
       id="text20"
       style="font-size:4.2375px;stroke-width:0.353125"
       transform="matrix(1.0150671,0,0,0.98515658,0.23386084,-0.3661525)"><path
         style="fill:#ff0000;stroke:none;stroke-width:1.24459;stroke-dasharray:none"
         d="m 91.915011,-75.50193 8.958139,-3.406751 -2.132895,3.005956 1.493015,3.807543 z"
         id="path21" /><path
         style="font-size:15.1843px;font-family:STIX;stroke-width:0.248943"
         d="m 41.024305,116.65253 c 0,-0.85636 -0.342544,-1.4344 -1.659201,-2.31218 1.059748,-0.56734 1.434406,-0.93129 1.434406,-1.73413 0,-0.83494 -0.738611,-1.53074 -1.798359,-1.53074 -1.188201,0 -2.076676,0.64227 -2.076676,1.6699 0,0.69579 0.224795,1.10257 1.32736,2.01245 -1.145383,0.80284 -1.391587,1.22032 -1.391587,1.95892 0,1.00623 0.845657,1.74484 2.055267,1.74484 1.284542,0 2.10879,-0.70649 2.10879,-1.80906 z m -0.963406,-4.04631 c 0,0.66368 -0.278318,1.11327 -1.006226,1.54144 -0.941996,-0.55662 -1.338064,-1.04902 -1.338064,-1.71271 0,-0.66367 0.460295,-1.05975 1.177497,-1.05975 0.727906,0 1.166793,0.49241 1.166793,1.23102 z m -0.89918,2.79388 c 0.727907,0.49241 1.049043,0.92059 1.049043,1.58426 0,0.6958 -0.481704,1.1775 -1.177497,1.1775 -0.813543,0 -1.359474,-0.55664 -1.359474,-1.54145 0,-0.69579 0.224794,-1.13467 0.856362,-1.6485 z"
         id="path8" /><path
         style="font-size:15.1843px;font-family:STIX;stroke-width:0.247471"
         d="m 55.460989,129.34993 c 1.383359,-0.19153 2.075038,-0.44692 2.979541,-1.2663 0.851298,-0.7768 1.276947,-1.93669 1.276947,-3.16044 0,-0.89387 -0.255389,-1.66003 -0.681038,-2.19209 -0.415007,-0.51077 -0.989634,-0.80873 -1.670672,-0.80873 -1.266305,0 -2.213374,1.07477 -2.213374,2.51133 0,1.29822 0.766167,2.16017 1.91542,2.16017 0.627832,0 1.138612,-0.15963 1.596184,-0.60656 -0.42565,1.74516 -1.617466,2.86249 -3.234932,3.14981 z m 3.224289,-4.01174 c 0,0.564 -0.776809,0.7981 -1.245023,0.7981 -0.798091,0 -1.308869,-0.7981 -1.308869,-2.06439 0,-0.57463 0.159619,-1.20247 0.372442,-1.48977 0.180902,-0.23411 0.457573,-0.3618 0.776809,-0.3618 0.925788,0 1.404641,0.91514 1.404641,2.70286 z"
         id="path9" /><path
         style="font-size:15.1843px;font-family:STIX;stroke-width:0.201972"
         d="m 126.48119,-23.285072 v -0.130272 c -0.65136,0 -0.82505,-0.156325 -0.82505,-0.52977 v -5.1848 l -0.0782,-0.02605 -1.55457,0.790312 v 0.121587 l 0.23449,-0.08685 c 0.15631,-0.06079 0.30397,-0.104216 0.39081,-0.104216 0.18238,0 0.26054,0.13027 0.26054,0.425553 v 3.899456 c 0,0.477661 -0.18237,0.660041 -0.82505,0.694781 v 0.130271 z m 5.2456,-1.189812 -0.12159,-0.05211 c -0.28659,0.486347 -0.46898,0.581879 -0.83374,0.581879 h -2.03223 l 1.43298,-1.528517 c 0.77295,-0.816367 1.11166,-1.467725 1.11166,-2.15382 0,-0.859791 -0.62531,-1.528517 -1.60669,-1.528517 -1.06822,0 -1.62404,0.712149 -1.80643,1.728267 l 0.18239,0.04341 c 0.34739,-0.851106 0.65135,-1.129018 1.27665,-1.129018 0.7382,0 1.20718,0.434237 1.20718,1.224551 0,0.738204 -0.31265,1.398246 -1.12901,2.258037 l -1.5459,1.641418 v 0.104218 h 3.39574 z"
         id="path12" /><path
         style="font-size:15.1843px;font-family:STIX;stroke-width:0.19939"
         d="m 157.56797,-24.674504 v -0.128606 c -0.64303,0 -0.81451,-0.154327 -0.81451,-0.522998 v -5.11852 l -0.0771,-0.02572 -1.5347,0.780211 v 0.120031 l 0.23149,-0.08574 c 0.15433,-0.06001 0.30008,-0.102885 0.38582,-0.102885 0.18004,0 0.25722,0.128606 0.25722,0.420112 v 3.849608 c 0,0.471555 -0.18006,0.651604 -0.81452,0.6859 v 0.128606 z m 1.47468,-4.372604 c 0.35154,-0.634458 0.74591,-0.908817 1.27749,-0.908817 0.56587,0 0.92596,0.291506 0.92596,0.87452 0,0.522999 -0.27435,0.908818 -0.69447,1.148882 -0.17148,0.102884 -0.39439,0.197196 -0.7202,0.308654 v 0.120032 c 0.48871,0 0.68591,0.02572 0.87452,0.08574 0.5916,0.171475 0.89167,0.591588 0.89167,1.243191 0,0.728769 -0.48012,1.311783 -1.11457,1.311783 -0.24008,0 -0.42013,-0.04286 -0.73735,-0.265786 -0.24007,-0.171475 -0.37725,-0.222917 -0.523,-0.222917 -0.1972,0 -0.35153,0.128606 -0.35153,0.308655 0,0.308653 0.33438,0.488702 0.96026,0.488702 0.76306,0 1.57758,-0.248638 1.98912,-0.797357 0.24863,-0.325803 0.39438,-0.745915 0.39438,-1.200324 0,-0.445833 -0.13718,-0.840225 -0.37723,-1.106013 -0.18006,-0.188621 -0.33438,-0.291505 -0.71164,-0.454407 0.57445,-0.342949 0.79736,-0.771637 0.79736,-1.183175 0,-0.703046 -0.54014,-1.174602 -1.33749,-1.174602 -0.89167,0 -1.43182,0.574441 -1.68045,1.388945 z"
         id="path13" /><g
         id="g1"></g>></g><g
       id="g20"><path
         id="path33"
         d="m 93.908781,-50.199177 c 0.865717,0 1.731433,0 2.596797,0"
         style="fill:#ffffff;fill-opacity:1;fill-rule:nonzero;stroke:none;stroke-width:0.352778" /><path
         id="path34"
         d="m 101.63669,-65.599268 v 2.587625 c -0.0265,-0.0056 -0.0529,-0.01623 -0.0794,-0.01623 -0.79199,-0.0021 -1.583977,-0.0035 -2.376316,-0.0032 -0.0314,0 -0.06315,0.01517 -0.09278,0.02293 v 2.545644 l 0.0053,-0.0049 c -0.865011,0.0021 -1.730022,0.0046 -2.595033,0.0067 v -2.597856 c 0.07338,0.0085 0.146755,0.02399 0.220133,0.02399 0.643114,0.0018 1.285875,0.0011 1.928989,7.06e-4 H 99.0561 v -2.561167 h -2.557639 c 0.0025,-0.8509 -0.0026,-1.683196 -5.35e-4,-2.534448 l 0.0089,-0.02574 c 0.07408,-0.006 0.141285,-0.0028 0.215368,-0.0031 0.688975,-0.0011 1.37795,-7.05e-4 2.066925,-7.05e-4 h 0.270228 c 0.0053,-0.08396 0.01235,-0.143581 0.01235,-0.2032 7.05e-4,-0.498123 -0.0025,-0.995892 3.53e-4,-1.494014 0.0018,-0.292453 0.01199,-0.584906 0.01799,-0.877006 h 2.5467 v 2.587272 h -2.548816 v 2.546703 z"
         style="fill:#ffffff;fill-opacity:1;fill-rule:nonzero;stroke:none;stroke-width:0.352778" /><path
         id="path35"
         d="m 93.953967,-69.574884 c -0.0025,-0.389114 0.0058,-0.77359 -3.1e-5,-1.162704 h 2.546751 c -0.0011,0.863952 -0.0021,1.727905 -0.0032,2.591505 l 0.0059,-0.006 -2.549637,0.0052"
         style="fill:#ffffff;fill-opacity:1;fill-rule:nonzero;stroke:none;stroke-width:0.349981" /><path
         id="path36"
         d="m 101.63669,-55.331001 v 2.587625 c -0.27834,-0.0039 -0.55704,-0.01164 -0.83538,-0.01058 -0.57044,0.0021 -1.141234,0.0088 -1.711675,0.01376 -0.006,-0.551745 -0.01482,-1.103489 -0.01623,-1.655586 -7.06e-4,-0.312914 0.01094,-0.625828 0.01729,-0.938742 0.848783,0.0014 1.697215,0.0025 2.545995,0.0035"
         style="fill:#ffffff;fill-opacity:1;fill-rule:nonzero;stroke:none;stroke-width:0.352778" /><path
         id="path37"
         d="m 101.63669,-60.465116 v 2.587625 c -0.77576,-0.0049 -1.55152,-0.0095 -2.326922,-0.01623 -0.07338,-3.53e-4 -0.146756,-0.01482 -0.220133,-0.02258 -0.006,-0.592314 -0.01446,-1.184627 -0.01623,-1.776941 -7.06e-4,-0.258234 0.01305,-0.516114 0.02011,-0.774347 l -0.0053,0.0053 z"
         style="fill:#ffffff;fill-opacity:1;fill-rule:nonzero;stroke:none;stroke-width:0.352778" /><path
         id="path38"
         d="m 99.090275,-50.199955 2.546345,0.0032"
         style="fill:#ffffff;fill-opacity:1;fill-rule:nonzero;stroke:none;stroke-width:0.352778" /><path
         id="path39"
         d="m 101.63669,-60.465116 -2.548467,0.0028 v -2.545644 c 0.02963,-0.0078 0.06138,-0.02293 0.09278,-0.02328 0.792339,0 1.584327,0.0014 2.376317,0.0032 0.0264,3.52e-4 0.0529,0.01058 0.0794,0.01623 z"
         style="fill:#fffa69;fill-opacity:1;fill-rule:nonzero;stroke:none;stroke-width:0.352778" /><path
         id="path40"
         d="m 99.089603,-57.916332 c 0.07338,0.0078 0.146756,0.02222 0.220133,0.02258 0.775754,0.0067 1.551164,0.01129 2.326924,0.01623 v 2.546349 c -0.84878,-0.0011 -1.697215,-0.0021 -2.545999,-0.0032 l 0.0039,0.0064 c -0.0063,-0.367241 -0.01835,-0.734836 -0.01764,-1.102077 7.06e-4,-0.49777 0.01094,-0.995539 0.01729,-1.493309 0,0 -0.0046,0.0071 -0.0046,0.0071"
         style="fill:#fffa69;fill-opacity:1;fill-rule:nonzero;stroke:none;stroke-width:0.352778" /><path
         id="path41"
         d="m 101.63669,-50.196849 -2.54635,-0.0032 0.0042,0.0063 c -0.0063,-0.299156 -0.0187,-0.597958 -0.01799,-0.897114 0.0014,-0.551391 0.01058,-1.102783 0.01658,-1.654175 l -0.0035,0.0049 c 0.570441,-0.0049 1.14123,-0.01199 1.71168,-0.01411 0.27834,-0.0011 0.55704,0.0071 0.83538,0.01058 z"
         style="fill:#fffa69;fill-opacity:1;fill-rule:nonzero;stroke:none;stroke-width:0.352778" /><path
         id="path42"
         d="m 101.63679,-65.599303 h -2.548817 v -2.546703 h 2.548817 z"
         style="fill:#fffa69;fill-opacity:1;fill-rule:nonzero;stroke:none;stroke-width:0.352778" /><path
         id="path43"
         d="m 96.505647,-50.199003 -0.0063,0.0053 c 0.865011,0 1.730022,0 2.595033,0 l -0.0042,-0.0063"
         style="fill:#fffa69;fill-opacity:1;fill-rule:nonzero;stroke:none;stroke-width:0.352778" /><path
         id="path44"
         d="m 96.505647,-50.199003 c -0.865717,0 -1.731433,0 -2.596797,0 0,0 0.0078,0.0049 0.0078,0.0049 0.0067,-0.08079 0.01905,-0.161925 0.01905,-0.242711 0.0014,-0.689681 0.0011,-1.379008 7.06e-4,-2.068689 v -0.249061 c 0.299508,0 0.564797,-0.0014 0.830086,3.53e-4 0.579614,0.0039 1.159227,0.0095 1.738841,0.01446 l -0.0056,-0.0056 c -3.53e-4,0.850547 -3.53e-4,1.701094 -3.53e-4,2.551642 z"
         style="fill:#fffa69;fill-opacity:1;fill-rule:nonzero;stroke:none;stroke-width:0.352778" /><path
         id="path45"
         d="m 93.916647,-50.194063 -0.0078,-0.0049"
         style="fill:#fffa69;fill-opacity:1;fill-rule:nonzero;stroke:none;stroke-width:0.352778" /><path
         id="path46"
         d="m 99.093624,-60.46755 c -0.0071,0.258233 -0.02081,0.516114 -0.02011,0.773994 0.0018,0.592667 0.01023,1.184981 0.01623,1.777295 0,0 0.0042,-0.0071 0.0042,-0.0071 -0.05997,0.0092 -0.119945,0.02646 -0.18027,0.02646 -0.752475,0.0021 -1.50495,0.0018 -2.257777,3.52e-4 -0.04586,0 -0.09172,-0.01094 -0.150636,-0.0187 v -2.5527 l -0.0067,0.0071 c 0.865011,-0.0021 1.730022,-0.0046 2.595033,-0.0067"
         style="fill:#fffa69;fill-opacity:1;fill-rule:nonzero;stroke:none;stroke-width:0.352778" /><path
         id="path47"
         d="m 96.498628,-65.594964 h 2.557286 v 2.561167 c -0.138642,0 -0.273756,0 -0.408517,0 -0.642761,0 -1.285875,0.0011 -1.928636,-7.06e-4 -0.07338,0 -0.147108,-0.01552 -0.220486,-0.02399 l 0.0071,0.0078 c 0,-0.850547 0,-1.700741 0,-2.551289 z"
         style="fill:#fffa69;fill-opacity:1;fill-rule:nonzero;stroke:none;stroke-width:0.352778" /><path
         id="path48"
         d="m 93.935441,-65.596165 c 0.0077,-0.401461 0.01891,-0.802922 0.02241,-1.204736 0.0042,-0.442736 0.0011,-0.886178 0.0011,-1.346906 h 2.546392 c -0.002,0.8509 -0.0046,1.7018 -0.0066,2.5527 l 0.0066,-0.0071 c -0.858252,3.53e-4 -1.716854,3.53e-4 -2.575106,7.05e-4 z"
         style="fill:#fffa69;fill-opacity:1;fill-rule:nonzero;stroke:none;stroke-width:0.351468" /><path
         id="path49"
         d="m 96.498345,-63.058528 c 0,0.866069 3.53e-4,1.731786 3.53e-4,2.597855 l 0.0067,-0.0074 h -2.553403 l -0.0041,-2.55946 c 0.719314,0 1.426887,-9.68e-4 2.130326,-0.0032 0.142169,-3.52e-4 0.284691,-0.01305 0.427214,-0.02011 z"
         style="fill:#fffa69;fill-opacity:1;fill-rule:nonzero;stroke:none;stroke-width:0.352778" /><path
         id="path50"
         d="m 99.090698,-55.334388 c -0.0063,0.312914 -0.01799,0.625828 -0.01729,0.938742 0.0014,0.551744 0.01023,1.103488 0.01623,1.655586 0,0 0.0035,-0.0049 0.0035,-0.0049 -0.864658,0 -1.728963,-3.53e-4 -2.593622,-3.53e-4 l 0.0056,0.0056 c -0.0021,-0.864658 -0.0039,-1.729316 -0.006,-2.594327 0.865363,0.0021 1.730374,0.0039 2.595386,0.006 z"
         style="fill:#fffa69;fill-opacity:1;fill-rule:nonzero;stroke:none;stroke-width:0.352778" /><path
         id="path51"
         d="m 93.910966,-65.601491 c 0.864658,0 1.729669,-3.53e-4 2.594328,-3.53e-4 0,0.850195 0,1.700742 0,2.550936 -0.14217,0.0071 -0.284692,0.01976 -0.427214,0.02011 -0.703439,0.0021 -1.406525,0.0011 -2.126192,0.0011 v 2.561872 h 2.553406 v 2.5527 c 0.05891,0.0078 0.104775,0.0187 0.150636,0.0187 0.752827,0.0011 1.505302,0.0014 2.257777,-3.53e-4 0.06032,0 0.120298,-0.01729 0.18027,-0.02646 -0.006,0.497769 -0.01623,0.995539 -0.01729,1.493308 -3.53e-4,0.367242 0.01164,0.734484 0.01799,1.101725 -0.865011,-0.0018 -1.730375,-0.0039 -2.595386,-0.0056 l 0.0056,0.0056 v -2.550583 h -2.567869 c 0,0.408869 -0.0021,0.804333 7.05e-4,1.199797 0.0032,0.450145 0.01094,0.900289 0.01658,1.350786 l 0.0056,-0.0049"
         style="fill:#ffffff;fill-opacity:1;fill-rule:nonzero;stroke:none;stroke-width:0.352778" /><path
         id="path52"
         d="m 96.499581,-52.745493 c 0.864658,0 1.728964,3.53e-4 2.593622,3.53e-4 -0.006,0.551391 -0.01517,1.102783 -0.01658,1.654175 -7.06e-4,0.299155 0.01164,0.598311 0.01799,0.897466 -0.865364,0 -1.730375,0 -2.595386,0 0,-0.8509 3.53e-4,-1.701447 3.53e-4,-2.551994"
         style="fill:#ffffff;fill-opacity:1;fill-rule:nonzero;stroke:none;stroke-width:0.352778" /><path
         id="path53"
         d="m 93.932593,-52.75664 v -0.230011 c 0,-0.702381 -0.0011,-1.404761 0.0011,-2.107142 3.52e-4,-0.07973 0.01729,-0.159808 0.02646,-0.239536 l -0.0056,0.0049 h 2.550583 l -0.0056,-0.0056 c 0.0018,0.865011 0.0039,1.729669 0.0056,2.594327 -0.579614,-0.0049 -1.159228,-0.01058 -1.738842,-0.01446 -0.264936,-0.0018 -0.530225,-3.52e-4 -0.829733,-3.52e-4 v 0.249061 c 0,0.68968 7.05e-4,1.379008 -7.06e-4,2.068689 -3.52e-4,0.08079 -0.01235,0.161925 -0.01905,0.242711"
         style="fill:#ffffff;fill-opacity:1;fill-rule:nonzero;stroke:none;stroke-width:0.352778" /><path
         id="path54"
         d="m 96.505047,-55.328321 c -0.850194,0 -1.700389,0 -2.550583,0 -0.0056,-0.450144 -0.01341,-0.900642 -0.01658,-1.350786 -0.0032,-0.395464 -7.05e-4,-0.790928 -7.05e-4,-1.199797 h 2.567869 z"
         style="fill:#fffa69;fill-opacity:1;fill-rule:nonzero;stroke:none;stroke-width:0.352778" /><path
         id="path17"
         d="m 96.476046,-68.139714 c 0.0078,-0.408817 0.0192,-0.817634 0.02276,-1.22681 0.0042,-0.450848 0.0011,-0.902415 0.0011,-1.371585 h 2.586862 c -0.002,0.866491 -0.0047,1.732981 -0.0067,2.599472 l 0.0067,-0.0072 c -0.871892,3.59e-4 -1.74414,3.59e-4 -2.616032,7.18e-4 z"
         style="fill:#fffa69;fill-opacity:1;fill-rule:nonzero;stroke:none;stroke-width:0.357481" /></g></g><metadata
     id="metadata60"><rdf:RDF><cc:Work
         rdf:about=""><dc:title>Balaton Park Circuit</dc:title></cc:Work></rdf:RDF></metadata></svg>
