<?xml version="1.0" encoding="UTF-8" standalone="no"?>
<!-- Created with Inkscape by VulcanSphere (http://www.inkscape.org/ and http://vulcansphere.com) -->

<svg
   width="230.37343mm"
   height="263.86343mm"
   viewBox="0 0 230.3734 263.86343"
   version="1.1"
   id="svg1"
   xml:space="preserve"
   sodipodi:docname="Hungaryorig.svg"
   inkscape:version="1.4.3 (fcd0343856, 2026-01-01)"
   xmlns:inkscape="http://www.inkscape.org/namespaces/inkscape"
   xmlns:sodipodi="http://sodipodi.sourceforge.net/DTD/sodipodi-0.dtd"
   xmlns="http://www.w3.org/2000/svg"
   xmlns:svg="http://www.w3.org/2000/svg"
   xmlns:rdf="http://www.w3.org/1999/02/22-rdf-syntax-ns#"
   xmlns:cc="http://creativecommons.org/ns#"
   xmlns:dc="http://purl.org/dc/elements/1.1/"><sodipodi:namedview
     id="namedview1"
     pagecolor="#ffffff"
     bordercolor="#000000"
     borderopacity="0.25"
     inkscape:showpageshadow="2"
     inkscape:pageopacity="0.0"
     inkscape:pagecheckerboard="0"
     inkscape:deskcolor="#d1d1d1"
     inkscape:document-units="mm"
     showgrid="false"
     inkscape:zoom="0.59951576"
     inkscape:cx="435.35136"
     inkscape:cy="500.40386"
     inkscape:window-width="1210"
     inkscape:window-height="933"
     inkscape:window-x="0"
     inkscape:window-y="0"
     inkscape:window-maximized="1"
     inkscape:current-layer="layer1" /><title
     id="title1">Balaton Park Circuit</title><desc
     id="desc1">Motorsport circuit in Balatonfőkajár, Hungary</desc><defs
     id="defs1" /><g
     id="layer1"
     transform="translate(58.30594,94.573871)"><g
       id="g2"
       transform="translate(-17.946272,0.70020567)" /><g
       id="g35"
       transform="translate(-1.8520833,-26.458333)"><g
         id="g36"><g
           id="g41"
           transform="translate(-2.6458333,3.2411458)"><g
             id="g59"
             transform="translate(-1.8708867,2.80633)"><g
               id="g8" /></g></g></g></g><g
       id="g37"
       transform="translate(86.915625,-71.702084)"><g
         id="g42"
         transform="translate(-4.490128,10.664054)"><g
           id="g60"
           transform="translate(-3.1805074,1.8708867)"></g></g></g><g
       id="g38"
       transform="translate(-20.505208,-9.525)" /><g
       id="g40"
       transform="translate(-94.672212,84.917954)" /><g
       id="g44"
       transform="translate(-86.563673,134.73436)"><g
         id="g58"
         transform="translate(1.8520833,-3.571875)" /></g><g
       id="g45"
       transform="translate(-52.991489,155.20193)"><g
         id="g56"
         transform="translate(9.5415222,-8.9802561)"><g
           id="g6"
           transform="translate(-1.8520833,-0.396875)" /></g></g><g
       id="g46"
       transform="translate(-18.649231,51.283772)" /><g
       id="g4"
       transform="translate(11.973675,13.470385)"><g
         id="g47"
         transform="translate(28.045833,31.485417)"><g
           id="g48"
           transform="translate(-0.95814101,-0.02269766)"><g
             id="g61"
             transform="translate(-0.396875,-1.984375)" /></g><g
           id="g55"
           transform="translate(0.67311347,-32.969575)"><g
             id="g7"><g
               id="g10"
               transform="matrix(1.0468504,0,0,1.0468504,-5.6282088,3.4263961)" /></g></g></g></g><g
       id="g34"
       transform="matrix(1.9149172,0,0,1.9149172,-92.890459,-26.638566)"></g><g
       id="layer1-5"
       transform="translate(-193.33394,-234.01165)" /><g
       id="text20"
       style="font-size:4.2375px;stroke-width:0.353125"
       transform="matrix(1.0150671,0,0,0.98515658,0.23386084,-0.3661525)"><path
         style="font-size:4.2375px;fill:none;stroke:#fffa69;stroke-width:0.837234;stroke-dasharray:none"
         d="m 149.7704,-26.281246 c 0,0 0.51096,-0.648567 0.78747,-1.426235 0.37213,-1.04659 1.98284,-5.188437 2.18378,-6.003172 0.64034,-2.429009 4.84775,-13.983988 3.12466,-16.664335 -1.21951,-1.896997 -13.86289,-20.236707 -15.10817,-21.681594 -3.17186,-3.680288 -5.71558,-4.947546 -6.81288,-6.155637 -0.47321,-0.520982 -4.1344,-0.866578 -5.43008,-0.514133 -1.45003,0.394433 -2.54633,1.242433 -3.09665,1.72921 -5.04623,4.463576 -14.03247,14.534341 -18.50076,14.498341 -48.574648,-0.391365 -99.2504068,0.804222 -99.2504068,0.804222 l -30.8173242,3.084492 132.038441,0.189556 9.05358,0.291073 27.56294,3.108775 z"
         id="path20" /></g><path
       id="path1"
       d="m -7.6440813,-79.433233 c 2.4708564,-1.426985 3.3336187,-4.379574 2.6705885,-6.801348 -0.468255,-1.710341 -1.7929783,-2.881776 -3.4090084,-3.340297 -0.8361794,-0.237251 -1.3748544,-0.361944 -2.1570638,-0.387037 -2.941152,-0.09435 -6.631159,0.0228 -9.945158,-0.04374 -3.310109,-0.06646 -6.584598,0.12417 -9.682691,1.374423 -4.680305,1.888764 -9.068326,4.849639 -11.197283,9.40967 -3.02936,6.488614 -6.492427,13.367102 -8.771112,20.479279 -2.754963,8.598727 5.226271,17.238945 14.424952,17.242422 8.596135,0.0033 17.19227,7.59e-4 25.7884076,0.0071 11.882612,0.0088 23.7652274,0.01917 35.6481934,0.03669 11.560175,0.01705 23.120702,0.04904 34.681228,0.06491 13.877571,0.01905 27.754792,0.02699 41.632368,0.04198 5.34458,0.0058 9.18083,5.362274 7.38999,10.379782 -1.29315,3.623078 -2.73385,7.193782 -4.00297,10.824985 -1.12518,3.219389 -0.74006,5.296759 0.44875,8.478983 0.7969,2.1331794 6.83153,10.1853269 11.19404,16.4869334 1.29841,1.8755307 2.40524,3.3402618 2.22267,5.6297876 -1.03654,12.998815 -5.01877,35.832337 -6.69425,47.602464 -0.12042,0.380331 -0.39877,0.994556 -0.72755,1.408106 -0.41756,0.525216 -2.88453,2.609314 -5.97098,5.396641 -3.65915,3.304523 -8.134561,7.00339 -10.000715,8.729575 -4.382154,4.053474 -8.235545,7.876795 -12.615388,11.932919 -3.629271,3.361028 -7.266831,6.712696 -10.897306,10.071803 -4.402272,4.073216 -8.801572,8.149392 -13.202002,12.224462 -3.262255,3.02105 -6.533398,6.03255 -9.781823,9.06815 -1.263957,1.18115 -1.312685,2.94428 -0.16792,4.26543 0.460375,0.53129 0.933528,1.05261 1.421693,1.55858 2.336878,2.42209 2.739415,5.9606 0.694973,8.60035 -0.92136,1.18964 -2.289074,2.06778 -3.546829,2.95593 -3.181601,2.24664 -6.418085,4.41502 -9.628717,6.62093 -3.644545,2.50402 -7.255193,5.05923 -10.935755,7.50853 -3.087479,2.05462 -3.982573,6.17506 -1.863021,9.10167 2.124717,2.93375 6.327123,3.42589 9.196564,1.04844 4.660952,-3.8618 9.303317,-7.74611 13.95871,-11.6145 7.130913,-5.92543 14.265597,-11.84596 21.400558,-17.76624 1.315482,-1.09153 17.439078,-14.51434 18.046246,-15.027 0.851642,-0.71907 -3.488939,-6.13865 -4.02424,-7.00604 -0.119567,-0.19374 -0.448273,-1.07803 -0.369215,-1.74515 0.09265,-0.78186 0.623091,-1.35278 0.875475,-1.47218 4.048571,-1.91535 11.948382,-4.997324 21.511482,-10.176551 4.83329,-2.617634 7.23515,-5.197538 9.30779,-8.121362 4.08761,-5.766297 6.59934,-9.929369 8.37109,-14.19193 3.95418,-9.513145 9.78578,-26.209578 10.02284,-27.526737 0.58632,-3.257589 2.56403,-14.936729 2.70379,-21.962396 0.16746,-8.418338 -0.0947,-16.6210982 -0.0691,-25.0422559 0.0175,-5.7799106 -0.16902,-11.9510611 -0.0212,-17.6784761 0.0361,-1.399069 0.55513,-3.00482 1.3816,-4.133865 1.13397,-1.549132 3.10303,-2.694229 5.44338,-2.741002 1.29031,-0.02579 2.75631,-0.06553 4.04642,-0.100296 1.07187,-0.02889 1.4949,-0.310427 1.905,-0.58136 0.20822,-0.137559 0.53722,-0.578889 0.53338,-0.870307 -0.10738,-8.144866 -2.44644,-19.560443 -2.94753,-23.327377 0,0 -0.65479,-0.936077 -1.2328,-1.034412 -3.32941,-0.566434 -15.37653,-2.267873 -26.19257,-2.66931 -2.14016,-0.07943 -4.28378,-0.0072 -6.42585,-0.0095 -15.315849,-0.01666 -30.631695,-0.03511 -45.947894,-0.04763 -14.05255,-0.01148 -28.1051,-0.0125 -42.15765,-0.02506 -14.377458,-0.01284 -30.8128889,0.127289 -45.190347,0.153219 -3.589514,0.0065 -6.435564,-1.77711 -7.888288,-5.191651 -1.228035,-2.886421 0.261668,-6.937412 3.008665,-8.43333 2.762679,-1.504457 5.552017,-2.960158 8.32979,-4.436885 m 3.717745,2.715036 c -2.854325,1.518002 -5.524817,2.945343 -8.381645,4.458699 -1.72893,0.915871 -2.887061,2.301816 -2.472796,4.039659 0.374545,1.571214 1.334735,2.170891 3.189287,2.168525 12.5281975,-0.01598 27.1147229,0.328467 39.643273,0.332197 13.584766,0.004 27.169885,0.04192 40.754651,0.05997 14.553139,0.01933 29.105929,0.03608 43.658719,0.04657 4.98722,0.0036 10.01459,-0.04735 15.00006,0.193788 12.61153,0.610005 21.19231,1.419708 26.71183,2.264506 1.85746,0.284296 4.99219,2.19785 4.76985,2.043257 0.87285,0.403626 3.24476,19.36128 3.36364,28.670142 0.0203,1.587922 -1.20952,2.150088 -1.92439,2.654738 -0.97723,0.689853 -1.73921,0.984934 -3.89027,1.007447 -1.02729,0.01075 -2.05422,0.02951 -3.08151,0.04445 -2.05317,0.02986 -3.10707,1.084086 -3.12879,3.164771 -0.0365,3.49144 -0.0587,6.983235 -0.085,10.4750287 -0.0689,9.15387594 -0.16711,18.307402 -0.19614,27.4612813 -0.0271,8.543922 -0.89667,16.991559 -2.66947,25.348493 -1.32153,6.229642 -3.15232,12.351316 -5.41295,18.257566 -1.29121,3.373484 -2.67147,6.634327 -4.23305,9.936079 -3.26104,6.895049 -6.00406,11.411629 -8.64554,15.123469 -2.60771,3.66439 -5.09126,6.546165 -11.74498,9.899895 -4.58605,2.311546 -15.18048,7.653117 -19.721773,10.029167 -0.22655,0.11854 -0.473692,0.46208 -0.564389,0.66038 0,0 0.984182,1.23746 2.060532,2.50325 0.897338,1.05527 1.793381,2.46258 2.290214,3.45195 0.09969,0.19851 0.346103,1.06411 0.491449,1.56513 0.102106,0.35196 -0.07169,0.86723 -0.194189,0.96738 -4.955027,4.05034 -28.443353,23.85913 -35.598421,29.80201 -6.47979,5.38203 -13.44209,10.96567 -19.945548,16.31909 -3.836458,3.15807 -9.603,2.96708 -13.178541,-0.34818 -2.642104,-2.44977 -3.680992,-6.05642 -2.94771,-9.39978 0.276999,-1.26296 0.792616,-2.49135 1.598245,-3.5916 1.014492,-1.3855 2.426684,-2.31647 3.806327,-3.26307 3.283726,-2.25309 6.41641,-4.42873 9.698653,-6.68403 3.210277,-2.20591 6.604034,-4.50478 9.81399,-6.71065 0.771142,-0.52992 1.474339,-1.01221 2.194977,-1.60605 1.542783,-1.27128 1.522336,-3.18448 0.08132,-4.61016 -1.305707,-1.29179 -2.542636,-2.58597 -3.009107,-4.41483 -0.627142,-2.45881 -0.0082,-4.75154 1.816984,-6.48019 3.675267,-3.48081 7.467884,-6.912 11.183716,-10.34943 5.498308,-5.086353 10.660662,-9.969811 16.161262,-15.053947 5.887066,-5.441341 11.154749,-10.333796 17.042493,-15.774109 3.423679,-3.163501 8.174093,-7.478414 11.479376,-10.574996 0.93468,-0.875666 2.11176,-1.804975 2.90102,-2.544441 0.70409,-0.659667 1.74453,-1.489079 2.4709,-2.191581 0.13291,-0.128537 0.24229,-0.259053 0.3316,-0.38591 0.20174,-0.286543 0.3011,-0.554412 0.33793,-0.738612 2.51501,-12.57711 6.32641,-34.187451 7.33514,-46.440482 0.0303,-0.3685872 -0.14878,-0.6824525 -0.36335,-1.0109314 -0.1694,-0.2593287 -0.34843,-0.5339952 -0.55017,-0.8087707 -0.66679,-0.9082124 -1.3688,-1.9070499 -2.05773,-2.8906675 -3.37936,-4.82489641 -10.12731,-13.2231332 -11.27712,-16.0403274 -1.804549,-4.421369 -2.078676,-6.905186 -0.41949,-11.472575 1.27346,-3.505578 2.63377,-6.750318 3.87689,-10.266129 0.59989,-1.696631 -0.14179,-3.063221 -0.93451,-4.088413 -0.54947,-0.710607 -1.27589,-1.161849 -2.5208,-1.217776 -1.11302,-0.05 -1.733473,-0.214858 -2.848246,-0.216088 -15.785041,-0.01748 -31.569731,-0.03656 -47.354772,-0.05045 -13.085937,-0.01151 -26.171522,-0.01242 -39.257462,-0.02611 -12.52749165,-0.0131 -25.054628,-0.03144 -37.581768,-0.05962 -4.106685,-0.0092 -10.288629,-0.204183 -14.373445,-0.519169 -4.996388,-0.385279 -9.226076,-2.587058 -12.042953,-6.809845 -3.47668,-5.2119 -3.842537,-10.801387 -1.260123,-16.509646 2.116586,-4.678576 4.12795,-9.634223 6.312784,-14.27921 1.468533,-3.122121 3.18441,-6.90981 5.413021,-9.66752 1.76588,-2.185122 3.415179,-3.367013 5.801431,-4.85775 4.678123,-2.922513 9.800161,-3.857454 15.240703,-3.688647 3.33692,0.103536 6.683025,-0.120719 10.023475,-0.08078 4.0657652,0.04861 7.8441062,2.933787 9.1581124,6.846007 1.3152482,3.915917 0.37257738,8.572543 -2.7921555,11.049431 -0.3655074,0.286065 -0.8035576,0.590109 -1.3837889,0.831619"
       style="fill:#fffa69;fill-opacity:1;fill-rule:nonzero;stroke:none;stroke-width:0.352777" /></g><metadata
     id="metadata60"><rdf:RDF><cc:Work
         rdf:about=""><dc:title>Balaton Park Circuit</dc:title></cc:Work></rdf:RDF></metadata></svg>
