<?xml version="1.0" encoding="UTF-8" standalone="no"?>
<!-- Created with Inkscape by VulcanSphere (http://www.inkscape.org/ and http://vulcansphere.com) -->
<svg
   width="430.862mm"
   height="536.70074mm"
   viewBox="0 0 430.862 536.70074"
   version="1.1"
   id="svg1"
   xmlns="http://www.w3.org/2000/svg"
   xmlns:svg="http://www.w3.org/2000/svg">
  <title
    id="title1">Mandalika International Street Circuit</title><desc
    id="desc1">Motorsport circuit in Central Lombok Regency, Indonesia</desc>
  <defs
     id="defs1" />
  <g
     id="layer1"
     transform="translate(141.28751,177.00626)">
    <path
       id="path33"
       d="m -51.44751,-76.663828 264.39435,-73.516362 c 0,0 28.15921,-4.9137 29.86011,16.63095 1.7009,21.54464 0.56697,88.446425 0.56697,88.446425 0,0 1.17043,13.328835 -14.17411,10.961309 -17.62555,-2.719465 -20.41071,-7.181548 -26.08035,6.236607 -5.66965,13.418155 -8.69346,18.8988095 6.42559,33.261905 15.11905,14.363095 45.92411,41.199405 45.92411,41.199405 0,0 8.50446,6.236607 8.50446,34.584821 0,28.348218 0.18899,50.081848 0.18899,50.081848 0,0 0.75595,11.15029 -15.68601,28.5372 -16.44197,17.3869 -36.66369,41.57738 -36.66369,41.57738 0,0 -6.61459,10.39435 -29.48214,10.39435 -22.86756,0 -35.90774,3.96875 -60.85417,32.50595 -24.94643,28.5372 -25.89137,27.21428 -51.21578,41.01042 -25.3244,13.79613 -82.96577,44.97916 -82.96577,44.97916 0,0 -32.88393,22.11161 -30.23809,-24.37946 2.64583,-46.49107 3.40178,-67.09078 3.40178,-67.09078 0,0 -0.94494,-21.92262 31.37202,-34.20684 32.31697,-12.28423 56.50745,-15.11905 51.40477,-59.53125 -5.10268,-44.4122 -7.74852,-74.650299 -7.74852,-74.650299 0,0 1.13393,-27.78125 -38.36458,-29.482143 0,0 -31.18303,-1.511905 -54.99553,-33.450893 -23.8125,-31.938988 -49.89286,-72.382441 -49.89286,-72.382441 0,0 -14.74107,-17.764881 -5.29167,-54.995534 9.44941,-37.23066 26.647323,-30.61607 26.647323,-30.61607 0,0 13.418157,0.18899 8.693457,42.33333 -4.72471,42.144346 4.15773,37.419643 26.26934,31.561012 z"
       style="display:inline;fill:none;stroke:#fffa69;stroke-width:5;stroke-linecap:butt;stroke-linejoin:miter;stroke-miterlimit:4;stroke-dasharray:none;stroke-opacity:1" />
    <path
       id="path19"
       style="font-size:4.2375px;fill:#ffffff;stroke-width:0.199"
       d="m 235.31592,-147.48308 a 1.8708867,1.6837982 0 0 1 -1.87088,1.6838 1.8708867,1.6837982 0 0 1 -1.87089,-1.6838 1.8708867,1.6837982 0 0 1 1.87089,-1.6838 1.8708867,1.6837982 0 0 1 1.87088,1.6838 z" />
    <path
       id="path873"
       d="m -76.06198,-132.62774 6.1472,38.48681 c 0,0 0,10.690781 13.0962,6.414469 13.09621,-4.276313 130.96207,-34.745039 130.96207,-34.745039 0,0 118.27076,-29.90772 127.15747,-30.67612 3.94136,-0.34079 11.14001,1.11127 15.50125,1.29119 4.34218,0.17914 -102.39609,27.05163 -98.82651,28.31585"
       style="display:inline;fill:none;stroke:#fffa69;stroke-width:2.5;stroke-linecap:butt;stroke-linejoin:miter;stroke-miterlimit:4;stroke-dasharray:none;stroke-opacity:1" />
    <g
       id="g1"
       transform="translate(1.670625)">
      <path
         id="path960"
         style="display:inline;fill:none;stroke:#fffa69;stroke-width:1.28782"
         d="m 255.2546,-163.36374 a 9.2568169,9.2568169 0 0 1 -9.25681,9.25682 9.2568169,9.2568169 0 0 1 -9.25682,-9.25682 9.2568169,9.2568169 0 0 1 9.25682,-9.25682 9.2568169,9.2568169 0 0 1 9.25681,9.25682 z" />
      <path
         style="font-size:19.1022px;line-height:1.25;font-family:STIX;-inkscape-font-specification:STIX;stroke-width:0.895409"
         d="m 248.77796,-156.92049 v -0.28653 c -1.43266,0 -1.81471,-0.34384 -1.81471,-1.16523 v -11.40402 l -0.17192,-0.0573 -3.41929,1.7383 v 0.26743 l 0.51576,-0.19102 c 0.34384,-0.13372 0.66857,-0.22923 0.8596,-0.22923 0.40114,0 0.57306,0.28653 0.57306,0.93601 v 8.57688 c 0,1.05063 -0.40114,1.45177 -1.81471,1.52818 v 0.28653 z"
         id="text1017"/>
    </g>
    <path
       id="path960-8"
       style="display:inline;fill:none;stroke:#fffa69;stroke-width:1.28782"
       d="m 264.87631,-25.987202 a 9.2568169,9.2568169 0 0 1 -9.25682,9.256817 9.2568169,9.2568169 0 0 1 -9.25682,-9.256817 9.2568169,9.2568169 0 0 1 9.25682,-9.256817 9.2568169,9.2568169 0 0 1 9.25682,9.256817 z" />
    <path
       style="font-size:14.5377px;line-height:1.25;font-family:STIX;-inkscape-font-specification:STIX;white-space:pre;stroke-width:0.681448"
       d="m 257.94167,-22.925186 -0.20353,-0.08723 c -0.47975,0.814111 -0.78504,0.974026 -1.39562,0.974026 h -3.40182 l 2.39872,-2.558636 c 1.29385,-1.366543 1.86082,-2.456871 1.86082,-3.605349 0,-1.439232 -1.04671,-2.558635 -2.68947,-2.558635 -1.78814,0 -2.71855,1.192091 -3.02384,2.893002 l 0.30529,0.07269 c 0.58151,-1.424694 1.09033,-1.8899 2.13704,-1.8899 1.23571,0 2.02074,0.726884 2.02074,2.049815 0,1.235705 -0.52336,2.34057 -1.8899,3.779802 l -2.58771,2.747625 v 0.174453 h 5.68424 z"
       id="text1017-5"
       transform="matrix(1.1511067,0,0,1.1511067,-37.442283,3.905695)"/>
    <path
       id="path960-1"
       style="display:inline;fill:none;stroke:#fffa69;stroke-width:1.28782"
       d="m 204.47342,-48.43784 a 9.2568169,9.2568169 0 0 1 -9.25682,9.256817 9.2568169,9.2568169 0 0 1 -9.25682,-9.256817 9.2568169,9.2568169 0 0 1 9.25682,-9.256816 9.2568169,9.2568169 0 0 1 9.25682,9.256816 z" />
    <path
       style="font-size:18.035px;line-height:1.25;font-family:STIX;-inkscape-font-specification:STIX;stroke-width:0.845381"
       d="m 192.16181,-51.33146 c 0.73944,-1.33459 1.56905,-1.91171 2.68722,-1.91171 1.19031,0 1.94778,0.61319 1.94778,1.83957 0,1.100135 -0.57712,1.91171 -1.46084,2.41669 -0.3607,0.21642 -0.82961,0.414805 -1.51494,0.64926 v 0.25249 c 1.028,0 1.4428,0.0541 1.83957,0.18035 1.24442,0.3607 1.87564,1.244415 1.87564,2.615075 0,1.532975 -1.00996,2.759355 -2.34455,2.759355 -0.50498,0 -0.88371,-0.09018 -1.55101,-0.559085 -0.50498,-0.3607 -0.79354,-0.46891 -1.10013,-0.46891 -0.41481,0 -0.73944,0.270525 -0.73944,0.64926 0,0.64926 0.70337,1.027995 2.01992,1.027995 1.60512,0 3.31844,-0.523015 4.18412,-1.677255 0.52302,-0.68533 0.82961,-1.569045 0.82961,-2.5249 0,-0.93782 -0.28856,-1.76743 -0.79354,-2.326515 -0.37873,-0.39677 -0.70336,-0.61319 -1.4969,-0.955855 1.20834,-0.7214 1.67725,-1.62315 1.67725,-2.48883 0,-1.47887 -1.1362,-2.470795 -2.81346,-2.470795 -1.87564,0 -3.01184,1.208345 -3.53486,2.92167 z"
       id="text1017-7"/>
    <path
       id="path960-3"
       style="display:inline;fill:none;stroke:#fffa69;stroke-width:1.28782"
       d="m 192.17901,-8.3474178 a 9.2568169,9.2568169 0 0 1 -9.25681,9.25681683 9.2568169,9.2568169 0 0 1 -9.25682,-9.25681683 9.2568169,9.2568169 0 0 1 9.25682,-9.2568172 9.2568169,9.2568169 0 0 1 9.25681,9.2568172 z" />
    <path
       style="font-size:17.8162px;line-height:1.25;font-family:STIX;-inkscape-font-specification:STIX;stroke-width:0.835126"
       d="m 186.64206,-5.5546831 v -1.1402368 h -1.83507 v -7.9282091 h -0.78391 l -5.59429,7.9282091 v 1.1402368 h 4.98854 v 2.9753054 h 1.38966 v -2.9753054 z m -3.22473,-1.1402368 h -4.27589 l 4.27589,-6.1109571 z"
       id="text1017-4"/>
    <path
       id="path960-38"
       style="display:inline;fill:none;stroke:#fffa69;stroke-width:1.28782"
       d="m 285.18879,46.17556 a 9.2568169,9.2568169 0 0 1 -9.25681,9.256817 9.2568169,9.2568169 0 0 1 -9.25682,-9.256817 9.2568169,9.2568169 0 0 1 9.25682,-9.256817 9.2568169,9.2568169 0 0 1 9.25681,9.256817 z" />
    <path
       style="font-size:14.5377px;line-height:1.25;font-family:STIX;-inkscape-font-specification:STIX;white-space:pre;stroke-width:0.681448"
       d="m 277.73116,41.329113 -0.13084,-0.101764 c -0.2326,0.305291 -0.36344,0.37798 -0.69781,0.37798 h -3.0093 l -1.58461,3.445435 c 0,0 -0.0145,0.04361 -0.0145,0.07269 0,0.08723 0.0436,0.116302 0.17445,0.116302 1.39562,0 2.41326,0.465206 3.09653,1.017639 0.6542,0.523357 0.97403,1.250242 0.97403,2.180655 0,1.250242 -0.94495,2.456871 -1.96259,2.456871 -0.29075,0 -0.62512,-0.130839 -1.03218,-0.465206 -0.4652,-0.37798 -0.74142,-0.450669 -1.07579,-0.450669 -0.40705,0 -0.65419,0.18899 -0.65419,0.552433 0,0.552432 0.75596,0.901337 1.84628,0.901337 0.98857,0 1.78814,-0.218066 2.47141,-0.712347 0.98857,-0.726885 1.4247,-1.628223 1.4247,-3.023842 0,-0.770498 -0.13084,-1.322931 -0.50882,-1.846288 -0.82865,-1.148478 -1.55554,-1.468307 -3.63443,-1.860825 l 0.58151,-1.235705 h 2.82031 c 0.23261,0 0.34891,-0.08723 0.39252,-0.18899 z"
       id="text1017-3"
       transform="matrix(1.1800599,0,0,1.1800599,-48.36179,-8.3421882)"/>
    <g
       id="g16"
       transform="translate(-2.2313638)">
      <path
         id="path960-5"
         style="display:inline;fill:none;stroke:#fffa69;stroke-width:1.28782"
         d="m 288.93058,142.39259 a 9.2568169,9.2568169 0 0 1 -9.25681,9.25682 9.2568169,9.2568169 0 0 1 -9.25682,-9.25682 9.2568169,9.2568169 0 0 1 9.25682,-9.25681 9.2568169,9.2568169 0 0 1 9.25681,9.25681 z" />
      <path
         style="font-size:17.9594px;line-height:1.25;font-family:STIX;-inkscape-font-specification:STIX;stroke-width:0.841837"
         d="m 282.999,135.93716 c -2.4784,0.26939 -3.89719,0.70042 -5.4417,2.31676 -1.27512,1.31104 -1.95758,3.01718 -1.95758,4.9568 0,1.25716 0.34123,2.53227 0.8441,3.4482 0.62858,1.1494 1.76002,1.8139 3.17881,1.8139 1.18532,0 2.19105,-0.4849 2.85555,-1.31103 0.59266,-0.71838 0.91592,-1.72411 0.91592,-2.87351 0,-2.31676 -1.29307,-3.75351 -3.39432,-3.75351 -0.79022,0 -1.40084,0.12571 -2.28085,0.80817 0.48491,-2.71187 2.49636,-4.65149 5.31599,-5.11843 z m -1.22124,8.90786 c 0,1.83186 -0.6645,3.12494 -1.95758,3.12494 -1.68818,0 -2.55023,-1.79594 -2.55023,-4.52577 0,-1.65227 1.0596,-2.08329 2.08329,-2.08329 1.67022,0 2.42452,1.18532 2.42452,3.48412 z"
         id="text1017-1"/>
    </g>
    <path
       id="path960-7"
       style="display:inline;fill:none;stroke:#fffa69;stroke-width:1.28782"
       d="m 220.50958,224.17706 a 9.2568169,9.2568169 0 0 1 -9.25682,9.25682 9.2568169,9.2568169 0 0 1 -9.25682,-9.25682 9.2568169,9.2568169 0 0 1 9.25682,-9.25681 9.2568169,9.2568169 0 0 1 9.25682,9.25681 z" />
    <path
       style="font-size:18.4558px;line-height:1.25;font-family:STIX;-inkscape-font-specification:STIX;stroke-width:0.865108"
       d="m 214.83934,218.32737 v -0.29529 h -6.81019 l -1.10735,2.713 0.33221,0.1661 c 0.77514,-1.25499 1.08889,-1.51337 2.15933,-1.51337 h 3.96799 l -3.65424,10.99965 h 1.19962 z"
       id="text1017-6"/>
    <path
       id="path960-71"
       style="display:inline;fill:none;stroke:#fffa69;stroke-width:1.28782"
       d="m 155.2958,201.19189 a 9.2568169,9.2568169 0 0 1 -9.25681,9.25682 9.2568169,9.2568169 0 0 1 -9.25682,-9.25682 9.2568169,9.2568169 0 0 1 9.25682,-9.25681 9.2568169,9.2568169 0 0 1 9.25681,9.25681 z" />
    <path
       style="font-size:14.5377px;line-height:1.25;font-family:STIX;-inkscape-font-specification:STIX;white-space:pre;stroke-width:0.681448"
       d="m 147.93984,203.99241 c 0,-1.16301 -0.4652,-1.94805 -2.25334,-3.14014 1.43923,-0.7705 1.94805,-1.26478 1.94805,-2.35511 0,-1.13394 -1.0031,-2.07889 -2.44233,-2.07889 -1.61369,0 -2.82032,0.87227 -2.82032,2.26788 0,0.94495 0.30529,1.49739 1.80268,2.73309 -1.55554,1.09033 -1.8899,1.6573 -1.8899,2.6604 0,1.36654 1.14848,2.36965 2.79124,2.36965 1.74452,0 2.86392,-0.95949 2.86392,-2.45688 z m -1.30839,-5.49525 c 0,0.90134 -0.37798,1.51192 -1.36654,2.09343 -1.27932,-0.75596 -1.81722,-1.42469 -1.81722,-2.32603 0,-0.90134 0.62512,-1.43923 1.59915,-1.43923 0.98856,0 1.58461,0.66873 1.58461,1.67183 z m -1.22117,3.79434 c 0.98857,0.66874 1.4247,1.25025 1.4247,2.15158 0,0.94495 -0.6542,1.59915 -1.59915,1.59915 -1.10487,0 -1.84629,-0.75596 -1.84629,-2.09343 0,-0.94495 0.30529,-1.54099 1.16302,-2.2388 z"
       id="text1017-16"
       transform="matrix(1.1570209,0,0,1.1570209,-21.816647,-31.629322)"/>
    <path
       style="display:inline;fill:none;stroke:#fffa69;stroke-width:0.681448px;stroke-linecap:butt;stroke-linejoin:miter;stroke-opacity:1"
       d="M 89.01636,262.27518 Z"
       id="path1152" />
    <path
       id="path960-30"
       style="display:inline;fill:none;stroke:#fffa69;stroke-width:1.28782"
       d="m 116.89148,284.15515 a 9.2568169,9.2568169 0 0 1 -9.25682,9.25682 9.2568169,9.2568169 0 0 1 -9.256818,-9.25682 9.2568169,9.2568169 0 0 1 9.256818,-9.25682 9.2568169,9.2568169 0 0 1 9.25682,9.25682 z" />
    <path
       style="font-size:16.4182px;line-height:1.25;font-family:STIX;-inkscape-font-specification:STIX;stroke-width:0.769594"
       d="m 104.76403,289.94491 c 2.13437,-0.29553 3.20155,-0.68956 4.5971,-1.95377 1.31345,-1.19852 1.97018,-2.98811 1.97018,-4.8762 0,-1.37913 -0.39404,-2.56124 -1.05076,-3.38215 -0.64031,-0.78807 -1.5269,-1.24778 -2.57766,-1.24778 -1.95377,0 -3.41499,1.65823 -3.41499,3.87469 0,2.00302 1.18211,3.3329 2.95528,3.3329 0.96867,0 1.75675,-0.24628 2.46273,-0.93584 -0.65673,2.69258 -2.49557,4.41649 -4.99113,4.85979 z m 4.97471,-6.18966 c 0,0.87016 -1.19852,1.23136 -1.92092,1.23136 -1.23137,0 -2.01944,-1.23136 -2.01944,-3.18513 0,-0.88658 0.24627,-1.85525 0.57463,-2.29854 0.27911,-0.36121 0.70599,-0.55822 1.19853,-0.55822 1.42839,0 2.1672,1.41196 2.1672,4.17022 z"
       id="text1017-0"/>
    <g
       id="g8"
       transform="translate(0,-1.312567)">
      <path
         id="path960-88"
         style="display:inline;fill:none;stroke:#fffa69;stroke-width:1.28782"
         d="m -28.585625,349.79376 a 9.2568169,9.2568169 0 0 1 -9.256817,9.25682 9.2568169,9.2568169 0 0 1 -9.256816,-9.25682 9.2568169,9.2568169 0 0 1 9.256816,-9.25681 9.2568169,9.2568169 0 0 1 9.256817,9.25681 z" />
      <path
         style="font-size:13.7826px;line-height:1.25;font-family:STIX;-inkscape-font-specification:STIX;stroke-width:0.738351"
         d="m -39.849551,354.56866 v -0.20673 c -1.033695,0 -1.309347,-0.24809 -1.309347,-0.84074 v -8.22822 l -0.124044,-0.0413 -2.467085,1.25421 v 0.19296 l 0.37213,-0.13783 c 0.248087,-0.0965 0.482391,-0.16539 0.620217,-0.16539 0.289435,0 0.413478,0.20674 0.413478,0.67535 v 6.18839 c 0,0.75804 -0.289435,1.04748 -1.309347,1.10261 v 0.20673 z m 8.021473,-4.54825 c 0,-2.82544 -1.254216,-4.76878 -3.059737,-4.76878 -2.218999,0 -3.169998,2.24656 -3.169998,4.68608 0,2.26035 0.758043,4.82391 3.114868,4.82391 2.246563,0 3.114867,-2.37061 3.114867,-4.74121 z m -1.323129,0.0689 c 0,2.72895 -0.620217,4.31395 -1.791738,4.31395 -1.185304,0 -1.791739,-1.57121 -1.791739,-4.36908 0,-2.79787 0.620217,-4.42422 1.764173,-4.42422 1.212869,0 1.819304,1.61257 1.819304,4.47935 z"
         id="text1017-68"/>
    </g>
    <path
       id="path960-88-6"
       style="display:inline;fill:none;stroke:#fffa69;stroke-width:1.28782"
       d="m -39.27639,211.34813 a 9.2568169,9.2568169 0 0 1 -9.256817,9.25682 9.2568169,9.2568169 0 0 1 -9.256817,-9.25682 9.2568169,9.2568169 0 0 1 9.256817,-9.25682 9.2568169,9.2568169 0 0 1 9.256817,9.25682 z" />
    <path
       style="font-size:13.4971px;line-height:1.25;font-family:STIX;-inkscape-font-specification:STIX;stroke-width:0.723055"
       d="m -50.070818,216.21498 v -0.20246 c -1.012283,0 -1.282225,-0.24294 -1.282225,-0.82332 v -8.05777 l -0.121474,-0.0405 -2.415981,1.22824 v 0.18896 l 0.364422,-0.13497 c 0.242948,-0.0945 0.472399,-0.16197 0.60737,-0.16197 0.283439,0 0.404913,0.20246 0.404913,0.66136 v 6.0602 c 0,0.74234 -0.28344,1.02578 -1.282225,1.07976 v 0.20246 z m 6.74855,0 v -0.20246 c -1.012283,0 -1.282225,-0.24294 -1.282225,-0.82332 v -8.05777 l -0.121474,-0.0405 -2.415981,1.22824 v 0.18896 l 0.364422,-0.13497 c 0.242948,-0.0945 0.472399,-0.16197 0.60737,-0.16197 0.283439,0 0.404913,0.20246 0.404913,0.66136 v 6.0602 c 0,0.74234 -0.28344,1.02578 -1.282225,1.07976 v 0.20246 z"
       id="text1017-68-5"/>
    <path
       id="path960-88-4"
       style="display:inline;fill:none;stroke:#fffa69;stroke-width:1.28782;filter:url(#filter1053)"
       d="m 61.751488,191.57018 a 9.2568169,9.2568169 0 0 1 -9.256817,9.25681 9.2568169,9.2568169 0 0 1 -9.256817,-9.25681 9.2568169,9.2568169 0 0 1 9.256817,-9.25682 9.2568169,9.2568169 0 0 1 9.256817,9.25682 z" />
    <path
       style="font-size:13.1323px;line-height:1.25;font-family:STIX;-inkscape-font-specification:STIX;stroke-width:0.703513"
       d="M 50.297024,195.72598 V 195.529 c -0.984922,0 -1.247568,-0.23638 -1.247568,-0.80107 v -7.83999 l -0.118191,-0.0394 -2.350682,1.19504 v 0.18385 l 0.354573,-0.13132 c 0.236381,-0.0919 0.45963,-0.15759 0.590953,-0.15759 0.275778,0 0.393969,0.19698 0.393969,0.64348 v 5.8964 c 0,0.72228 -0.275778,0.99806 -1.247568,1.05059 v 0.19698 z m 7.616735,-1.79912 -0.183853,-0.0788 c -0.433365,0.73541 -0.709144,0.87987 -1.2607,0.87987 h -3.072959 l 2.16683,-2.31129 c 1.168775,-1.23443 1.680934,-2.21936 1.680934,-3.25681 0,-1.3001 -0.945525,-2.31128 -2.429475,-2.31128 -1.615273,0 -2.45574,1.07685 -2.731519,2.61333 l 0.275779,0.0657 c 0.525292,-1.28697 0.984922,-1.7072 1.930448,-1.7072 1.116245,0 1.82539,0.65661 1.82539,1.85165 0,1.11625 -0.472763,2.1143 -1.7072,3.4144 l -2.337549,2.48201 v 0.15758 h 5.134729 z"
       id="text1017-68-2"/>
    <path
       id="path960-88-7"
       style="display:inline;fill:none;stroke:#fffa69;stroke-width:1.28782;filter:url(#filter1053)"
       d="m 45.715294,36.019329 a 9.2568169,9.2568169 0 0 1 -9.256817,9.256817 9.2568169,9.2568169 0 0 1 -9.256817,-9.256817 9.2568169,9.2568169 0 0 1 9.256817,-9.256817 9.2568169,9.2568169 0 0 1 9.256817,9.256817 z" />
    <path
       style="font-size:14.5314px;line-height:1.25;font-family:STIX;-inkscape-font-specification:STIX;stroke-width:0.778464"
       d="m 34.749683,40.842537 v -0.217971 c -1.089855,0 -1.380483,-0.261565 -1.380483,-0.886415 v -8.675246 l -0.130783,-0.04359 -2.601121,1.322357 v 0.20344 l 0.392348,-0.145314 c 0.261565,-0.10172 0.508599,-0.174377 0.653913,-0.174377 0.30516,0 0.435942,0.217971 0.435942,0.712038 v 6.524599 c 0,0.799227 -0.305159,1.104386 -1.380483,1.162512 v 0.217971 z m 2.426743,-7.411014 c 0.595788,-1.075324 1.264232,-1.540328 2.165179,-1.540328 0.959072,0 1.569391,0.494067 1.569391,1.482202 0,0.886416 -0.465005,1.540329 -1.177043,1.947208 -0.290628,0.174377 -0.668445,0.334222 -1.220638,0.52313 v 0.20344 c 0.82829,0 1.162512,0.04359 1.482203,0.145314 1.002666,0.290628 1.511265,1.002667 1.511265,2.107053 0,1.235169 -0.813758,2.223304 -1.889082,2.223304 -0.406879,0 -0.712038,-0.07266 -1.2497,-0.450473 -0.406879,-0.290628 -0.639381,-0.377817 -0.886415,-0.377817 -0.334222,0 -0.595788,0.217971 -0.595788,0.523131 0,0.52313 0.566725,0.82829 1.627517,0.82829 1.293295,0 2.673778,-0.421411 3.371285,-1.351421 0.42141,-0.552193 0.668444,-1.264231 0.668444,-2.034396 0,-0.755632 -0.232502,-1.424077 -0.639381,-1.87455 -0.30516,-0.319691 -0.566725,-0.494068 -1.206107,-0.770164 0.973604,-0.581256 1.351421,-1.307826 1.351421,-2.005334 0,-1.191574 -0.915479,-1.990801 -2.266899,-1.990801 -1.511265,0 -2.426743,0.973603 -2.848154,2.354086 z"
       id="text1017-68-6"/>
    <path
       id="path960-88-5"
       style="display:inline;fill:none;stroke:#fffa69;stroke-width:1.28782;filter:url(#filter1053)"
       d="m -33.396477,47.244648 a 9.2568169,9.2568169 0 0 1 -9.256817,9.256817 9.2568169,9.2568169 0 0 1 -9.256816,-9.256817 9.2568169,9.2568169 0 0 1 9.256816,-9.256817 9.2568169,9.2568169 0 0 1 9.256817,9.256817 z" />
    <path
       style="font-size:13.2588px;line-height:1.25;font-family:STIX;-inkscape-font-specification:STIX;stroke-width:0.710288"
       d="M -44.546148,51.594772 V 51.39589 c -0.99441,0 -1.259586,-0.238658 -1.259586,-0.808786 V 42.6716 l -0.119329,-0.03978 -2.373325,1.206551 v 0.185623 l 0.357987,-0.132588 c 0.238659,-0.09281 0.464058,-0.159106 0.596646,-0.159106 0.278435,0 0.397764,0.198882 0.397764,0.649681 v 5.953201 c 0,0.729234 -0.278434,1.007669 -1.259586,1.060704 v 0.198882 z m 7.676845,-2.214219 V 48.53199 h -1.365656 v -5.900166 h -0.583387 l -4.163264,5.900166 v 0.848563 h 3.712464 v 2.214219 h 1.034187 v -2.214219 z m -2.399843,-0.848563 h -3.182112 l 3.182112,-4.547769 z"
       id="text1017-68-0"/>
    <g
       id="g17"
       transform="translate(1.1813103)">
      <path
         id="path960-88-52"
         style="display:inline;fill:none;stroke:#fffa69;stroke-width:1.28782;filter:url(#filter1053)"
         d="m -122.12996,-79.441109 a 9.2568169,9.2568169 0 0 1 -9.25682,9.256817 9.2568169,9.2568169 0 0 1 -9.25682,-9.256817 9.2568169,9.2568169 0 0 1 9.25682,-9.256817 9.2568169,9.2568169 0 0 1 9.25682,9.256817 z" />
      <path
         style="font-size:13.8423px;line-height:1.25;font-family:STIX;-inkscape-font-specification:STIX;stroke-width:0.741547"
         d="m -133.2454,-74.612846 v -0.207635 c -1.03817,0 -1.31502,-0.249161 -1.31502,-0.84438 v -8.263854 l -0.12458,-0.04153 -2.47777,1.259649 v 0.193792 l 0.37374,-0.138423 c 0.24916,-0.0969 0.48448,-0.166108 0.62291,-0.166108 0.29068,0 0.41527,0.207635 0.41527,0.678273 v 6.215193 c 0,0.761327 -0.29069,1.052015 -1.31502,1.107384 v 0.207635 z m 7.53021,-9.426607 -0.12458,-0.0969 c -0.22147,0.290688 -0.34605,0.3599 -0.66443,0.3599 h -2.86535 l -1.50881,3.280625 c 0,0 -0.0139,0.04153 -0.0139,0.06921 0,0.08305 0.0415,0.110739 0.16611,0.110739 1.32886,0 2.29782,0.442953 2.94841,0.968961 0.6229,0.498323 0.92743,1.190438 0.92743,2.076345 0,1.190438 -0.89974,2.339349 -1.86871,2.339349 -0.27684,0 -0.59521,-0.124581 -0.9828,-0.442954 -0.44295,-0.3599 -0.70596,-0.429111 -1.02433,-0.429111 -0.38758,0 -0.6229,0.17995 -0.6229,0.526007 0,0.526008 0.7198,0.858223 1.75797,0.858223 0.94128,0 1.7026,-0.207635 2.35319,-0.678273 0.94128,-0.692115 1.35655,-1.550338 1.35655,-2.879198 0,-0.733642 -0.12459,-1.25965 -0.48448,-1.757973 -0.78902,-1.093541 -1.48113,-1.398072 -3.46058,-1.771814 l 0.55369,-1.176596 h 2.68541 c 0.22148,0 0.33221,-0.08305 0.37374,-0.179949 z"
         id="text1017-68-8"/>
    </g>


  </g>
</svg>
