<?xml version="1.0" encoding="UTF-8" standalone="no"?>
<!-- Created with Inkscape by VulcanSphere (http://www.inkscape.org/ and http://vulcansphere.com) -->
<svg
   width="430.862mm"
   height="536.70074mm"
   viewBox="0 0 430.862 536.70074"
   version="1.1"
   id="svg1"
   xmlns="http://www.w3.org/2000/svg"
   xmlns:svg="http://www.w3.org/2000/svg">
  <title
    id="title1">Mandalika International Street Circuit</title><desc
    id="desc1">Motorsport circuit in Central Lombok Regency, Indonesia</desc>
  <defs
     id="defs1" />
  <g
     id="layer1"
     transform="translate(141.28751,177.00626)">
    <path
       id="path33"
       d="m -51.44751,-76.663828 264.39435,-73.516362 c 0,0 28.15921,-4.9137 29.86011,16.63095 1.7009,21.54464 0.56697,88.446425 0.56697,88.446425 0,0 1.17043,13.328835 -14.17411,10.961309 -17.62555,-2.719465 -20.41071,-7.181548 -26.08035,6.236607 -5.66965,13.418155 -8.69346,18.8988095 6.42559,33.261905 15.11905,14.363095 45.92411,41.199405 45.92411,41.199405 0,0 8.50446,6.236607 8.50446,34.584821 0,28.348218 0.18899,50.081848 0.18899,50.081848 0,0 0.75595,11.15029 -15.68601,28.5372 -16.44197,17.3869 -36.66369,41.57738 -36.66369,41.57738 0,0 -6.61459,10.39435 -29.48214,10.39435 -22.86756,0 -35.90774,3.96875 -60.85417,32.50595 -24.94643,28.5372 -25.89137,27.21428 -51.21578,41.01042 -25.3244,13.79613 -82.96577,44.97916 -82.96577,44.97916 0,0 -32.88393,22.11161 -30.23809,-24.37946 2.64583,-46.49107 3.40178,-67.09078 3.40178,-67.09078 0,0 -0.94494,-21.92262 31.37202,-34.20684 32.31697,-12.28423 56.50745,-15.11905 51.40477,-59.53125 -5.10268,-44.4122 -7.74852,-74.650299 -7.74852,-74.650299 0,0 1.13393,-27.78125 -38.36458,-29.482143 0,0 -31.18303,-1.511905 -54.99553,-33.450893 -23.8125,-31.938988 -49.89286,-72.382441 -49.89286,-72.382441 0,0 -14.74107,-17.764881 -5.29167,-54.995534 9.44941,-37.23066 26.647323,-30.61607 26.647323,-30.61607 0,0 13.418157,0.18899 8.693457,42.33333 -4.72471,42.144346 4.15773,37.419643 26.26934,31.561012 z"
       style="display:inline;fill:none;stroke:#fffa69;stroke-width:5;stroke-linecap:butt;stroke-linejoin:miter;stroke-miterlimit:4;stroke-dasharray:none;stroke-opacity:1" />
    <path
       id="path19"
       style="font-size:4.2375px;fill:#ffffff;stroke-width:0.199"
       d="m 235.31592,-147.48308 a 1.8708867,1.6837982 0 0 1 -1.87088,1.6838 1.8708867,1.6837982 0 0 1 -1.87089,-1.6838 1.8708867,1.6837982 0 0 1 1.87089,-1.6838 1.8708867,1.6837982 0 0 1 1.87088,1.6838 z" />


    <path
       style="font-size:17.8162px;line-height:1.25;font-family:STIX;-inkscape-font-specification:STIX;stroke-width:0.835126"
       d="m 186.64206,-5.5546831 v -1.1402368 h -1.83507 v -7.9282091 h -0.78391 l -5.59429,7.9282091 v 1.1402368 h 4.98854 v 2.9753054 h 1.38966 v -2.9753054 z m -3.22473,-1.1402368 h -4.27589 l 4.27589,-6.1109571 z"
       id="text1017-4"/>
    <path
       id="path960-38"
       style="display:inline;fill:none;stroke:#fffa69;stroke-width:1.28782"
       d="m 285.18879,46.17556 a 9.2568169,9.2568169 0 0 1 -9.25681,9.256817 9.2568169,9.2568169 0 0 1 -9.25682,-9.256817 9.2568169,9.2568169 0 0 1 9.25682,-9.256817 9.2568169,9.2568169 0 0 1 9.25681,9.256817 z" />
    <path
       style="font-size:14.5377px;line-height:1.25;font-family:STIX;-inkscape-font-specification:STIX;white-space:pre;stroke-width:0.681448"
       d="m 277.73116,41.329113 -0.13084,-0.101764 c -0.2326,0.305291 -0.36344,0.37798 -0.69781,0.37798 h -3.0093 l -1.58461,3.445435 c 0,0 -0.0145,0.04361 -0.0145,0.07269 0,0.08723 0.0436,0.116302 0.17445,0.116302 1.39562,0 2.41326,0.465206 3.09653,1.017639 0.6542,0.523357 0.97403,1.250242 0.97403,2.180655 0,1.250242 -0.94495,2.456871 -1.96259,2.456871 -0.29075,0 -0.62512,-0.130839 -1.03218,-0.465206 -0.4652,-0.37798 -0.74142,-0.450669 -1.07579,-0.450669 -0.40705,0 -0.65419,0.18899 -0.65419,0.552433 0,0.552432 0.75596,0.901337 1.84628,0.901337 0.98857,0 1.78814,-0.218066 2.47141,-0.712347 0.98857,-0.726885 1.4247,-1.628223 1.4247,-3.023842 0,-0.770498 -0.13084,-1.322931 -0.50882,-1.846288 -0.82865,-1.148478 -1.55554,-1.468307 -3.63443,-1.860825 l 0.58151,-1.235705 h 2.82031 c 0.23261,0 0.34891,-0.08723 0.39252,-0.18899 z"
       id="text1017-3"
       transform="matrix(1.1800599,0,0,1.1800599,-48.36179,-8.3421882)"/>



  </g>
</svg>
