<?xml version="1.0" encoding="UTF-8" standalone="no"?>
<svg
   xmlns:dc="http://purl.org/dc/elements/1.1/"
   xmlns:cc="http://creativecommons.org/ns#"
   xmlns:rdf="http://www.w3.org/1999/02/22-rdf-syntax-ns#"
   xmlns:svg="http://www.w3.org/2000/svg"
   xmlns="http://www.w3.org/2000/svg"
   xmlns:xlink="http://www.w3.org/1999/xlink"
   xmlns:sodipodi="http://sodipodi.sourceforge.net/DTD/sodipodi-0.dtd"
   xmlns:inkscape="http://www.inkscape.org/namespaces/inkscape"
   width="1391.0374"
   height="871.23389"
   id="svg2383"
   sodipodi:version="0.32"
   inkscape:version="1.0 (4035a4fb49, 2020-05-01)"
   version="1.0"
   sodipodi:docname="mugello15turns.svg"
   inkscape:output_extension="org.inkscape.output.svg.inkscape"
   inkscape:export-filename="D:\Images\Race Tracks\Mugello Racing Circuit track map.png"
   inkscape:export-xdpi="90.015755"
   inkscape:export-ydpi="90.015755">

  <sodipodi:namedview
     id="base"
     pagecolor="#ffffff"
     bordercolor="#ffffff"
     borderopacity="0.0"
     inkscape:pageopacity="0.0"
     inkscape:pageshadow="0"
     inkscape:zoom="0.90723663"
     inkscape:cx="927.35824"
     inkscape:cy="510.93726"
     inkscape:document-units="px"
     inkscape:current-layer="g3294"
     showgrid="false"
     inkscape:window-width="1355"
     inkscape:window-height="877"
     inkscape:window-x="0"
     inkscape:window-y="0"
     inkscape:document-rotation="0"
     inkscape:window-maximized="0" />
  <metadata
     id="metadata2388">
    <rdf:RDF>
      <cc:Work
         rdf:about="">
        <dc:format>image/svg+xml</dc:format>
        <dc:type
           rdf:resource="http://purl.org/dc/dcmitype/StillImage" />
        <dc:title />
        <dc:date>8-5-2008</dc:date>
        <dc:creator>
          <cc:Agent>
            <dc:title>Will Pittenger</dc:title>
          </cc:Agent>
        </dc:creator>
        <dc:publisher>
          <cc:Agent>
            <dc:title>Will Pittenger</dc:title>
          </cc:Agent>
        </dc:publisher>
        <dc:subject>
          <rdf:Bag>
            <rdf:li>Mugello</rdf:li>
            <rdf:li>Formula 1</rdf:li>
            <rdf:li>Scuderia Ferrari</rdf:li>
            <rdf:li>racing</rdf:li>
            <rdf:li>road course</rdf:li>
            <rdf:li>San Donato</rdf:li>
            <rdf:li>Luco</rdf:li>
            <rdf:li>Poggio Secco</rdf:li>
            <rdf:li>Materassi</rdf:li>
            <rdf:li>Borgo San Lorenzo</rdf:li>
            <rdf:li>Casanova</rdf:li>
            <rdf:li>Savelli</rdf:li>
            <rdf:li>Arrabbiata</rdf:li>
            <rdf:li>Scarperia</rdf:li>
            <rdf:li>Correntaio</rdf:li>
            <rdf:li>Biondetti</rdf:li>
            <rdf:li>Bucine</rdf:li>
            <rdf:li>MotoGP</rdf:li>
            <rdf:li>A1GP</rdf:li>
          </rdf:Bag>
        </dc:subject>
        <dc:description>Created in Inkscape with data from Google Earth.  The gray dashed line represents pavement that has the same width as the main track, but only leads to pit road.  Because of its location, the author of this image believes that it is only used by cars needing a shorter route back to the paddock.</dc:description>
        <cc:license
           rdf:resource="http://creativecommons.org/licenses/by-sa/3.0/" />
      </cc:Work>
      <cc:License
         rdf:about="http://creativecommons.org/licenses/by-sa/3.0/">
        <cc:permits
           rdf:resource="http://creativecommons.org/ns#Reproduction" />
        <cc:permits
           rdf:resource="http://creativecommons.org/ns#Distribution" />
        <cc:requires
           rdf:resource="http://creativecommons.org/ns#Notice" />
        <cc:requires
           rdf:resource="http://creativecommons.org/ns#Attribution" />
        <cc:permits
           rdf:resource="http://creativecommons.org/ns#DerivativeWorks" />
        <cc:requires
           rdf:resource="http://creativecommons.org/ns#ShareAlike" />
      </cc:License>
    </rdf:RDF>
  </metadata>
  <g
     inkscape:label="Layer 1"
     inkscape:groupmode="layer"
     id="layer1"
     transform="translate(-1043.8539,-878.92802)">
    <path
       style="fill:none;fill-rule:evenodd;stroke:#fffa69;stroke-width:10;stroke-linecap:butt;stroke-linejoin:round;stroke-miterlimit:4;stroke-dasharray:none;stroke-opacity:1"
       d="M 1732.3345,1323.9367 C 1699.1198,1313.5321 1665.8215,1303.2988 1633.0364,1291.6349 C 1582.8737,1273.7885 1534.047,1252.3645 1484.6873,1232.4149 C 1438.3379,1213.682 1392.3338,1194.0549 1345.9091,1175.5876 C 1320.1532,1165.3422 1293.7038,1156.5296 1266.9491,1149.2676 C 1209.9584,1133.7987 1151.8531,1122.0543 1096.4672,1103.8058 C 1082.8628,1099.3234 1065.0307,1090.8006 1059.9782,1078.084 C 1054.6188,1064.595 1046.1776,1047.2373 1051.6036,1033.2204 C 1056.8712,1019.6123 1068.303,1004.642 1081.5127,999.124 C 1099.8072,991.48198 1121.0776,991.32699 1142.5273,992.544 C 1177.3067,994.5173 1210.0851,1007.6835 1243.0218,1005.1058 C 1255.9457,1004.0944 1269.0274,991.13057 1275.9218,979.98218 C 1287.7705,960.82269 1292.9428,935.54245 1304.6345,915.97672 C 1312.4834,902.84184 1325.023,891.88788 1338.7309,886.66582 C 1350.1466,882.31697 1373.5821,886.43293 1391.3709,895.63855 C 1492.7136,948.08283 1568.5602,990.59746 1683.2836,1047.5767 C 1750.2327,1080.828 1782.8442,967.78824 1850.1763,1014.6767 C 1929.3502,1069.8114 2011.4012,1123.7531 2097.2255,1181.5695 C 2115.152,1193.6459 2116.883,1221.1535 2118.1619,1242.584 C 2122.578,1317.1852 2126.2074,1363.1328 2187.5509,1376.5768 C 2218.7211,1383.4081 2293.7642,1400.5023 2354.4437,1415.4586 C 2376.12,1420.8013 2395.146,1436.1724 2407.6818,1453.144 C 2421.0672,1471.2658 2428.7784,1499.3195 2427.4218,1522.5331 C 2425.1894,1560.7328 2411.8786,1599.6428 2399.9055,1637.384 C 2393.5343,1657.4671 2385.4901,1678.8217 2372.3891,1693.6131 C 2360.7652,1706.7369 2330.3624,1719.4102 2311.9727,1718.7368 C 2214.7174,1715.1751 2123.413,1711.055 2029.0327,1706.7731 C 2017.8905,1706.2676 2004.9839,1698.0498 1996.7309,1690.6221 C 1989.0324,1683.6934 1984.7035,1673.8459 1982.9727,1663.704 C 1978.3914,1636.8583 1977.3044,1603.7591 1966.8218,1578.7622 C 1961.7516,1566.6718 1947.9303,1555.2378 1934.52,1552.4422 C 1825.5024,1529.7154 1709.3207,1523.8672 1599.5382,1502.1949 C 1586.0952,1499.5411 1572.8986,1489.8989 1564.8436,1479.464 C 1555.352,1467.168 1550.4873,1449.6678 1550.4873,1434.6004 C 1550.4873,1420.5563 1560.5128,1401.4872 1570.8254,1392.1295 C 1582.0474,1381.9466 1595.5707,1376.0807 1611.5018,1375.3804 C 1631.8604,1374.4855 1652.4931,1380.5655 1671.32,1389.1385 C 1697.1573,1400.9037 1720.5714,1421.9234 1745.4945,1436.3949 C 1757.6587,1443.458 1771.2068,1451.1456 1784.9745,1451.9476 C 1812.2819,1453.5383 1841.7494,1440.3732 1868.72,1443.5731 C 1888.8064,1445.9562 1908.0002,1458.3788 1926.1455,1468.6967 C 2030.0293,1527.7679 2129.6825,1597.9716 2234.8073,1651.7404 C 2251.3128,1660.1826 2274.2209,1660.3944 2291.0364,1655.3295 C 2307.3203,1650.4247 2321.3231,1634.2646 2330.5164,1620.0368 C 2338.0722,1608.3433 2340.9107,1590.4162 2340.6854,1575.7713 C 2340.5119,1564.4949 2335.1901,1552.3285 2329.32,1542.8712 C 2320.8337,1529.1988 2312.0168,1516.9023 2298.2145,1508.1767 C 2277.3223,1494.969 2252.7602,1486.0603 2228.8255,1478.2676 C 2064.1335,1424.6469 1897.7162,1375.743 1732.3345,1323.9367 z"
       id="path2419"
       sodipodi:nodetypes="cssssssssssssssssssssssssssssssssssssssssssssssss" />
  </g>
</svg>
