<?xml version="1.0" encoding="UTF-8"?>
<!DOCTYPE svg PUBLIC "-//W3C//DTD SVG 1.1//EN" "http://www.w3.org/Graphics/SVG/1.1/DTD/svg11.dtd">
<!-- Creator: CorelDRAW X5 -->
<svg xmlns="http://www.w3.org/2000/svg" xml:space="preserve" width="1000px" height="720px" style="shape-rendering:geometricPrecision; text-rendering:geometricPrecision; image-rendering:optimizeQuality; fill-rule:evenodd; clip-rule:evenodd"
viewBox="0 0 893.804 643.239"
 xmlns:xlink="http://www.w3.org/1999/xlink">
 <defs>
  <style type="text/css">
   <![CDATA[
    .str1 {stroke:#fffa69;stroke-width:7.06291}
    .str0 {stroke:#fffa69;stroke-width:11.7714}
    .fil0 {fill:none}
   ]]>
  </style>
 </defs>
 <g id="Layer_x0020_1">
  <metadata id="CorelCorpID_0Corel-Layer"/>
  <path class="fil0 str0" d="M380.412 418.626l-19.9024 23.2879 14.6387 75.2295m65.1435 -115.635l44.9941 48.6455c9.59751,15.0825 9.59751,34.3572 0,49.4397l-25.706 49.1758m64.5512 82.6631c6.176,7.15133 16.9801,7.94181 24.1314,1.76581l336.66 -410.231c5.18932,-8.39127 3.5106,-19.3098 -3.95973,-25.7551 -7.47033,-6.44494 -18.517,-6.505 -26.0571,-0.141812l-174.804 191.284c-5.82197,4.21532 -13.3327,5.3298 -20.128,2.98673 -6.79497,-2.3434 -12.0227,-7.85038 -14.009,-14.7581l-16.4796 -143.61c-4.60339,-14.6684 -16.1028,-26.1491 -30.7792,-30.7282 -14.676,-4.57869 -30.6644,-1.67405 -42.7915,7.7743 -18.0268,17.5163 -46.7159,17.5163 -64.7424,0l-114.182 -138.902c-23.1621,-16.596 -52.6013,-21.7913 -80.0451,-14.1255l-114.182 28.251c-6.83401,1.48352 -12.1818,6.80498 -13.699,13.6316 -1.51722,6.827 1.07343,13.9126 6.63614,18.1509l266.032 231.895c8.56512,14.3274 9.44769,31.9751 2.35441,47.0856l-23.5428 34.1367c-3.62271,4.96209 -9.47705,7.79633 -15.616,7.56008 -6.13929,-0.235909 -11.7587,-3.5116 -14.9894,-8.73729l-248.375 -269.563c-10.0086,-6.55539 -22.9512,-6.55539 -32.9598,0 -9.11501,3.40816 -16.9354,9.58216 -22.3656,17.6571 -6.38388,10.9058 -6.38388,24.408 0,35.3139l242.489 326.066c2.84659,3.1816 6.91376,4.99979 11.1828,4.99979 4.26938,0 8.33621,-1.8182 11.1828,-4.99979l11.7714 -12.9486c5.02148,-7.85172 15.0281,-10.8538 23.5425,-7.06291l55.914 8.24012 81.8105 104.765z"/>
 </g>
</svg>
