<?xml version="1.0" encoding="UTF-8" standalone="no"?>
<!-- Created with Inkscape (http://www.inkscape.org/) -->
<svg
   xmlns:dc="http://purl.org/dc/elements/1.1/"
   xmlns:cc="http://web.resource.org/cc/"
   xmlns:rdf="http://www.w3.org/1999/02/22-rdf-syntax-ns#"
   xmlns:svg="http://www.w3.org/2000/svg"
   xmlns="http://www.w3.org/2000/svg"
   xmlns:sodipodi="http://sodipodi.sourceforge.net/DTD/sodipodi-0.dtd"
   xmlns:inkscape="http://www.inkscape.org/namespaces/inkscape"
   width="767.34601"
   height="800"
   id="svg1901"
   sodipodi:version="0.32"
   inkscape:version="0.45.1"
   sodipodi:docname="Circuit Sepang.svg"
   sodipodi:docbase="C:\Documents and Settings\Lada\My Documents\My Pictures\Moottoriradat"
   version="1.0"
   inkscape:output_extension="org.inkscape.output.svg.inkscape">
  <defs
     id="defs1903" />
  <sodipodi:namedview
     id="base"
     pagecolor="#ffffff"
     bordercolor="#666666"
     borderopacity="1.0"
     inkscape:pageopacity="0.0"
     inkscape:pageshadow="2"
     inkscape:zoom="0.56178423"
     inkscape:cx="316.95218"
     inkscape:cy="337.59251"
     inkscape:document-units="px"
     inkscape:current-layer="layer2"
     gridtolerance="10000"
     inkscape:window-width="1280"
     inkscape:window-height="744"
     inkscape:window-x="-4"
     inkscape:window-y="-4" />
  <metadata
     id="metadata1906">
    <rdf:RDF>
      <cc:Work
         rdf:about="">
        <dc:format>image/svg+xml</dc:format>
        <dc:type
           rdf:resource="http://purl.org/dc/dcmitype/StillImage" />
      </cc:Work>
    </rdf:RDF>
  </metadata>
  <g
     inkscape:groupmode="layer"
     id="layer2"
     inkscape:label="SVG">
    <path
       style="opacity:1;fill:none;fill-rule:evenodd;stroke:#fffa69;stroke-width:10;stroke-linecap:butt;stroke-linejoin:miter;stroke-miterlimit:4;stroke-dasharray:none;stroke-opacity:1"
       d="M 466.34804,233.17139 L 357.77283,515.53212 L 330.99481,586.0355 L 306.76126,648.68809 C 306.76126,648.68809 293.68151,689.53956 278.81343,689.64222 C 278.81343,689.64222 262.4745,692.16619 256.41181,676.56591 C 256.41181,676.56591 252.10239,663.38059 265.16568,652.83488 L 277.12437,640.022 C 277.12437,640.022 288.37018,625.46862 275.5958,621.21048 C 275.5958,621.21048 256.96411,619.96454 244.90912,625.3787 C 244.90912,625.3787 225.14067,632.82238 207.56872,622.93815 L 160.22206,599.99699 C 160.22206,599.99699 138.37914,588.0383 134.35224,569.73418 C 134.35224,569.73418 124.95612,547.03707 129.83722,525.43821 L 140.33158,470.28179 L 146.43296,419.39634 L 148.50742,361.18924 L 148.3854,311.28001 C 148.3854,311.28001 146.80548,288.55079 165.84176,293.18783 L 289.56464,322.59001 C 289.56464,322.59001 324.06643,330.68238 341.15028,305.54472 C 341.15028,305.54472 362.07477,278.09494 361.3426,264.18381 C 361.3426,264.18381 363.64184,238.18556 354.61181,217.19684 C 354.61181,217.19684 348.31777,206.45842 350.75832,184.49348 C 350.75832,184.49348 354.5733,166.2022 372.14525,153.26729 C 372.14525,153.26729 391.95221,139.83142 418.5542,135.19438 C 418.5542,135.19438 428.07234,136.90276 467.36518,123.96785 L 543.51023,102.37543 C 543.51023,102.37543 545.70682,99.806416 553.27252,110.54483 L 583.29127,148.86146 L 552.78441,237.69745 L 519.83699,328.72994 L 500.3126,384.13041 C 500.3126,384.13041 491.77068,412.19672 511.53913,400.48209 L 549.85575,379.00525 C 549.85575,379.00525 563.27877,371.43955 582.31505,377.29687 C 582.31505,377.29687 612.57787,387.79123 624.2925,403.6548 C 636.00714,419.51837 636.00714,419.51837 636.00714,419.51837 L 649.91827,443.43575 C 649.91827,443.43575 658.46019,456.85877 641.13229,464.91259 L 502.84311,530.11376 C 502.84311,530.11376 484.84728,544.35877 484.93714,562.53456 L 486.31155,607.65895 C 486.31155,607.65895 485.81061,631.38373 463.11351,657.98571 C 463.11351,657.98571 441.49536,686.19333 415.86959,684.729 C 415.86959,684.729 396.83327,688.08153 391.92653,672.20513 C 391.92653,672.20513 388.53544,663.5733 394.39276,647.95378 L 421.2388,552.5283 L 456.62677,429.03651 L 485.6693,322.62856 L 514.71184,219.63738 C 514.71184,219.63738 520.08105,200.35705 513.97968,189.37457 C 513.97968,189.37457 502.50909,173.02289 483.96092,190.59485 L 466.34804,233.17139 z "
       id="path2219"
       sodipodi:nodetypes="ccccccccccccccccccccccccccccccccccccsccccccccccccccccc" />
  </g>
</svg>
