<?xml version="1.0" encoding="UTF-8" standalone="no"?>
<!-- Created with Inkscape (http://www.inkscape.org/) -->

<svg
   width="1381.2585"
   height="871.85059"
   id="svg2383"
   sodipodi:version="0.32"
   inkscape:version="1.4.3 (fcd0343856, 2026-01-01)"
   version="1.0"
   sodipodi:docname="Netherlansflippedvertical.svg"
   inkscape:output_extension="org.inkscape.output.svg.inkscape"
   xmlns:inkscape="http://www.inkscape.org/namespaces/inkscape"
   xmlns:sodipodi="http://sodipodi.sourceforge.net/DTD/sodipodi-0.dtd"
   xmlns="http://www.w3.org/2000/svg"
   xmlns:svg="http://www.w3.org/2000/svg">
  <defs
     id="defs1" />
  <sodipodi:namedview
     id="base"
     pagecolor="#ffffff"
     bordercolor="#ffffff"
     borderopacity="0.0"
     inkscape:pageopacity="0.0"
     inkscape:pageshadow="0"
     inkscape:zoom="0.91365951"
     inkscape:cx="690.62927"
     inkscape:cy="436.1581"
     inkscape:document-units="px"
     inkscape:current-layer="layer1"
     showgrid="false"
     showborder="false"
     inkscape:showpageshadow="false"
     inkscape:window-width="945"
     inkscape:window-height="888"
     inkscape:window-x="26"
     inkscape:window-y="23"
     inkscape:pagecheckerboard="0"
     inkscape:deskcolor="#d1d1d1"
     inkscape:window-maximized="0" />
  <g
     inkscape:label="Layer 1"
     inkscape:groupmode="layer"
     id="layer1"
     transform="translate(-1452.9132,-778.47002)">
    <path
       style="fill:none;fill-rule:evenodd;stroke:#fffa69;stroke-width:10;stroke-linecap:butt;stroke-linejoin:round;stroke-miterlimit:4;stroke-dasharray:none;stroke-opacity:1"
       d="m 1776.6,1262.2626 c -99.6001,62.922 -196.9626,123.7595 -295.8009,188.1282 -5.2266,3.4038 -8.5104,16.295 -6.58,22.1327 12.566,38.0014 22.2453,64.4513 35.2927,100.7936 3.6966,10.2963 14.3302,16.9162 20.9364,20.0391 37.2604,17.614 73.4157,32.6597 108.57,49.0509 6.7935,3.1676 19.4003,2.0201 26.32,-0.5981 7.8354,-2.9648 16.9095,-9.491 21.5345,-16.1509 5.3447,-7.6965 8.0015,-18.7132 8.3746,-28.4137 0.4245,-11.0364 -1.9045,-22.0012 -5.9818,-32.3018 -3.4996,-8.8412 -8.8997,-19.5665 -16.7491,-23.9273 -10.0961,-5.6089 -24.8001,-6.6644 -37.0873,-5.9818 -16.4255,0.9125 -33.2099,8.9199 -48.7518,8.3745 -7.189,-0.2522 -14.5645,-5.1942 -19.4409,-10.7672 -3.4981,-3.9979 -4.9385,-10.8267 -3.8883,-15.5528 1.3425,-6.0412 10.1923,-13.5546 16.7491,-15.2536 24.6316,-6.3826 47.6135,-11.676 74.4737,-13.4591 24.603,-1.6332 50.2023,5.4999 74.1746,0 73.0995,-16.771 145.924,-32.4648 217.7381,-52.64 47.4235,-13.323 92.7073,-31.0946 139.6755,-46.06 34.3845,-10.9558 66.3022,-20.21 100.4945,-31.1054 13.2484,-4.2216 19.9387,-16.777 24.2264,-26.9182 4.5866,-10.848 8.7173,-24.5432 16.7491,-33.7973 10.3124,-11.8817 24.3567,-21.4599 39.1809,-25.7218 17.0789,-4.9102 37.1882,-4.3698 55.3318,-0.2991 44.0673,9.8869 83.851,25.4672 128.011,37.6854 15.1684,4.1968 28.1256,2.6763 38.2836,-1.7945 8.9284,-3.9295 19.7546,-12.0024 22.4318,-20.9363 15.1571,-50.5797 34.9942,-93.2896 52.9391,-140.5728 21.0924,-55.5767 41.1023,-109.6566 58.0236,-164.79899 3.4565,-11.2638 23.3717,-22.5276 31.1055,-21.8337 46.6697,4.1872 82.7877,15.3865 131.8991,18.5437 6.7189,0.4319 18.5296,-0.614 23.6281,-4.7855 8.0615,-6.5957 16.7047,-15.9139 18.5437,-25.7218 2.9465,-15.7145 0.064,-35.8403 -5.9818,-51.4437 -6.3161,-16.2997 -18.4686,-32.1054 -31.1055,-44.2654 -8.4989,-8.1782 -20.8507,-13.5046 -32.3018,-16.7491 -12.4761,-3.5349 -26.5919,-5.9836 -39.48,-3.5891 -60.0901,11.1643 -121.7508,25.2494 -179.4546,44.2654 -12.4829,4.1137 -21.7546,15.6482 -31.1054,25.1237 -50.4674,51.1403 -102.0971,102.27089 -148.3491,156.72359 -9.9771,11.7461 -13.4875,27.9503 -20.3382,41.8727 -5.5117,11.2012 -9.557,23.4671 -16.7491,33.4982 -7.9618,11.1047 -18.2726,20.8926 -28.7127,29.9091 -24.6532,21.2914 -48.8049,45.6792 -76.5673,61.0146 -14.1104,7.7943 -33.0969,11.8141 -49.0509,8.3745 -70.9817,-15.3034 -142.3514,-50.5112 -211.7564,-64.6036 -9.1562,-1.8591 -17.3097,9.9111 -23.9272,16.7491 -5.3462,5.5244 -3.6514,13.8547 -9.8701,17.0481 -8.5365,4.3836 -21.0513,1.712 -31.7036,3.2901 -10.8823,1.6122 -25.2088,6.8246 -34.9936,11.6644 -27.3024,13.5045 -52.9419,29.3242 -78.96,45.761 z"
       id="path2406"
       sodipodi:nodetypes="csssssssssssssssssssssssssssssssssssssssssssssssssss" />
  </g>
</svg>
