<?xml version='1.0' encoding='UTF-8'?>
<!-- Created with Inkscape by VulcanSphere (http://www.inkscape.org/ and http://vulcansphere.com) --><svg xmlns="http://www.w3.org/2000/svg" xmlns:svg="http://www.w3.org/2000/svg" xmlns:rdf="http://www.w3.org/1999/02/22-rdf-syntax-ns#" xmlns:cc="http://creativecommons.org/ns#" xmlns:dc="http://purl.org/dc/elements/1.1/" width="230.37343mm" height="263.86343mm" viewBox="0 0 230.3734 263.86343" version="1.1" id="svg1" xml:space="preserve"><title id="title1">Balaton Park Circuit</title><desc id="desc1">Motorsport circuit in Balatonfőkajár, Hungary</desc><defs id="defs1"/><g id="layer1" transform="translate(58.30594,94.573871)"><g id="g3" transform="translate(-28.309081,3.8779594)"/><g id="g1" transform="translate(17.586335,-9.1673448)"/><g id="g2" transform="translate(-17.946272,0.70020567)"/><g id="g35" transform="translate(-1.8520833,-26.458333)"><g id="g36"><g id="g41" transform="translate(-2.6458333,3.2411458)"><g id="g59" transform="translate(-1.8708867,2.80633)"><g id="g8"/></g></g></g></g><g id="g37" transform="translate(86.915625,-71.702084)"><g id="g42" transform="translate(-4.490128,10.664054)"><g id="g60" transform="translate(-3.1805074,1.8708867)"><g id="g9" transform="translate(-17.197917)"/></g></g></g><g id="g38" transform="translate(-20.505208,-9.525)"/><g id="g39" transform="translate(41.804167,-38.364583)"/><g id="g40" transform="translate(-94.672212,84.917954)"/><g id="g43" transform="translate(-32.820017,149.33849)"><g id="g57" transform="translate(3.5546847,-5.6126601)"><g id="g5" transform="translate(-2.5135417,1.3229167)"/></g></g><g id="g44" transform="translate(-86.563673,134.73436)"><g id="g58" transform="translate(1.8520833,-3.571875)"/></g><g id="g45" transform="translate(-52.991489,155.20193)"><g id="g56" transform="translate(9.5415222,-8.9802561)"><g id="g6" transform="translate(-1.8520833,-0.396875)"/></g></g><g id="g46" transform="translate(-18.649231,51.283772)"/><g id="g4" transform="translate(11.973675,13.470385)"><g id="g47" transform="translate(28.045833,31.485417)"><g id="g48" transform="translate(-0.95814101,-0.02269766)"><g id="g61" transform="translate(-0.396875,-1.984375)"/></g><g id="g55" transform="translate(0.67311347,-32.969575)"><g id="g7"><g id="g10" transform="matrix(1.0468504,0,0,1.0468504,-5.6282088,3.4263961)"/></g></g></g></g><g id="g34" transform="matrix(1.9149172,0,0,1.9149172,-92.890459,-26.638566)"><g id="g33" transform="matrix(0.58633151,0,0,0.58633151,1.7909396,31.653308)"/></g><g id="layer1-5" transform="translate(-193.33394,-234.01165)"/><g id="text20" style="font-size:4.2375px;stroke-width:0.353125" transform="matrix(1.0150671,0,0,0.98515658,0.23386084,-0.3661525)"><g id="g11" transform="translate(-0.65164001,1.3428491)"/><g id="g12" transform="translate(1.30328,4.2971173)"/></g><path id="path1" d="M -7.6440813,607.160093 C -5.173224899999999,608.587078 -4.310462599999999,611.539667 -4.9734928,613.9614409999999 C -5.4417478,615.671782 -6.7664710999999995,616.843217 -8.3825012,617.301738 C -9.2186806,617.538989 -9.7573556,617.663682 -10.539565,617.6887750000001 C -13.480717,617.783125 -17.170724,617.665975 -20.484722999999995,617.732515 M -20.484723,617.732515 C -23.794832,617.798975 -27.069321,617.608345 -30.167414,616.3580919999999 C -34.847719,614.469328 -39.23574,611.508453 -41.364697,606.9484219999999 C -44.394057,600.4598080000001 -47.857124,593.58132 -50.135809,586.469143 C -52.890772,577.870416 -44.909538000000005,569.230198 -35.710857000000004,569.226721 C -27.114722000000004,569.223421 -18.518587000000004,569.225962 -9.922449400000005,569.219621 C 1.960162599999995,569.210821 13.842777999999996,569.2004509999999 25.72574399999999,569.182931 C 37.28591899999999,569.165881 48.846446,569.133891 60.40697199999999,569.118021 C 74.28454299999999,569.098971 88.161764,569.091031 102.03934000000001,569.076041 M 102.03933999999998,569.076041 C 107.38391999999997,569.070241 111.22016999999998,563.713767 109.42932999999998,558.696259 C 108.13617999999998,555.073181 106.69547999999998,551.502477 105.42635999999997,547.8712740000001 C 104.30117999999997,544.651885 104.68629999999997,542.574515 105.87510999999998,539.392291 C 106.67200999999997,537.2591116000001 112.70663999999998,529.2069641 117.06914999999998,522.9053576 C 118.36755999999998,521.0298269 119.47438999999999,519.5650958 119.29181999999997,517.27557 C 118.25527999999997,504.276755 114.27304999999997,481.443233 112.59756999999998,469.673106 C 112.47714999999998,469.292775 112.19879999999998,468.67855000000003 111.87001999999998,468.265 C 111.45245999999999,467.739784 108.98548999999998,465.655686 105.89903999999999,462.868359 C 102.23988999999999,459.56383600000004 97.76447899999998,455.86496900000003 95.89832499999999,454.138784 C 91.51617099999999,450.08531000000005 87.66277999999998,446.261989 83.28293699999999,442.205865 C 79.65366599999999,438.844837 76.016106,435.493169 72.38563099999999,432.13406200000003 C 67.983359,428.060846 63.58405899999999,423.98467 59.18362899999999,419.9096 C 55.921373999999986,416.88855 52.65023099999999,413.87705 49.40180599999999,410.84145 C 48.137848999999996,409.6603 48.08912099999999,407.89717 49.23388599999999,406.57602 C 49.69426099999999,406.04473 50.167413999999994,405.52341 50.65557899999999,405.01744 C 52.99245699999999,402.59535 53.39499399999999,399.05683999999997 51.350551999999986,396.41709000000003 C 50.429191999999986,395.22745 49.06147799999999,394.34931 47.803722999999984,393.46116 C 44.62212199999998,391.21452 41.385637999999986,389.04614000000004 38.17500599999998,386.84023 C 34.53046099999998,384.33621000000005 30.919812999999984,381.781 27.23925099999998,379.3317 C 24.15177199999998,377.27708 23.256677999999983,373.15664000000004 25.376229999999982,370.23003 C 27.500946999999982,367.29628 31.703352999999982,366.80413999999996 34.57279399999998,369.18159 C 39.23374599999998,373.04339 43.87611099999998,376.92769999999996 48.531503999999984,380.79609 C 55.662416999999984,386.72152 62.797100999999984,392.64205 69.93206199999997,398.56233 M 69.93206199999999,398.56233 C 71.24754399999999,399.65386 87.37113999999998,413.07667000000004 87.97830799999998,413.58933 C 88.82994999999998,414.3084 84.48936899999998,419.72798 83.95406799999998,420.59537 C 83.83450099999997,420.78911 83.50579499999998,421.6734 83.58485299999998,422.34051999999997 C 83.67750299999999,423.12238 84.20794399999998,423.6933 84.46032799999998,423.8127 C 88.50889899999997,425.72805 96.40870999999997,428.810024 105.97180999999998,433.98925099999997 C 110.80509999999998,436.606885 113.20695999999998,439.186789 115.27959999999997,442.110613 C 119.36720999999997,447.87691 121.87893999999997,452.039982 123.65068999999997,456.302543 C 127.60486999999996,465.815688 133.43646999999996,482.512121 133.67352999999997,483.82928 C 134.25984999999997,487.086869 136.23755999999997,498.766009 136.37731999999997,505.791676 C 136.54477999999997,514.210014 136.28261999999998,522.4127742000001 136.30821999999998,530.8339318999999 C 136.32572,536.6138424999999 136.1392,542.784993 136.28701999999998,548.512408 C 136.32312,549.911477 136.84214999999998,551.5172279999999 137.66861999999998,552.6462730000001 C 138.80258999999998,554.1954049999999 140.77164999999997,555.340502 143.11199999999997,555.387275 C 144.40230999999997,555.413065 145.86830999999998,555.452805 147.15841999999998,555.487571 C 148.23028999999997,555.5164609999999 148.65331999999998,555.797998 149.06341999999998,556.068931 C 149.27164,556.20649 149.60063999999997,556.64782 149.59679999999997,556.9392379999999 C 149.48941999999997,565.084104 147.15035999999998,576.499681 146.64926999999997,580.266615 C 146.64926999999997,580.266615 145.99447999999998,581.2026920000001 145.41646999999998,581.301027 C 142.08705999999998,581.867461 130.03993999999997,583.5689 119.22389999999997,583.970337 C 117.08373999999998,584.049767 114.94011999999998,583.977537 112.79804999999998,583.979837 C 97.48220099999998,583.996497 82.16635499999998,584.014947 66.85015599999997,584.027467 C 52.79760599999997,584.038947 38.74505599999996,584.0399669999999 24.692505999999973,584.052527 C 10.315047999999974,584.0653669999999 -6.120382900000028,583.925238 -20.49784100000003,583.899308 C -24.08735500000003,583.8928080000001 -26.93340500000003,585.676418 -28.38612900000003,589.090959 C -29.614164000000027,591.97738 -28.12446100000003,596.028371 -25.377464000000028,597.524289 C -22.61478500000003,599.028746 -19.82544700000003,600.484447 -17.04767400000003,601.961174 M -13.329929000000028,599.246138 C -16.184254000000028,597.728136 -18.854746000000027,596.300795 -21.711574000000027,594.787439 C -23.440504000000026,593.871568 -24.598635000000026,592.485623 -24.184370000000026,590.74778 C -23.809825000000025,589.1765660000001 -22.849635000000028,588.576889 -20.995083000000026,588.579255 C -8.466885500000027,588.595235 6.119639899999978,588.2507880000001 18.648189999999975,588.247058 C 32.23295599999997,588.243058 45.81807499999997,588.205138 59.40284099999997,588.187088 M 59.40284099999998,588.187088 C 73.95597999999998,588.167758 88.50876999999998,588.151008 103.06155999999999,588.140518 C 108.04877999999998,588.136918 113.07614999999998,588.187868 118.06161999999999,587.94673 C 130.67315,587.336725 139.25393000000003,586.527022 144.77345000000003,585.682224 M 144.77345,585.682224 C 146.63091,585.3979280000001 149.76564,583.484374 149.5433,583.6389670000001 C 150.41615,583.2353410000001 152.78806,564.277687 152.90694,554.968825 C 152.92723999999998,553.380903 151.69742,552.818737 150.98255,552.314087 C 150.00532,551.624234 149.24334,551.329153 147.09228000000002,551.30664 C 146.06499000000002,551.2958900000001 145.03806000000003,551.2771299999999 144.01077,551.26219 C 141.9576,551.23233 140.90370000000001,550.1781040000001 140.88198,548.097419 C 140.84548,544.605979 140.82328,541.114184 140.79698,537.6223903 C 140.72807999999998,528.46851436 140.62986999999998,519.3149883000001 140.60083999999998,510.161109 C 140.57374,501.61718700000006 139.70416999999998,493.16955 137.93137,484.81261600000005 C 136.60984,478.58297400000004 134.77904999999998,472.46130000000005 132.51842,466.55505000000005 C 131.22720999999999,463.18156600000003 129.84695,459.920723 128.28537,456.618971 C 125.02433,449.723922 122.28131,445.20734200000004 119.63983,441.495502 C 117.03212,437.831112 114.54857,434.949337 107.89485,431.59560700000003 C 103.3088,429.284061 92.71437,423.94249 88.173077,421.56644 C 87.946527,421.4479 87.699385,421.10436000000004 87.608688,420.90606 C 87.608688,420.90606 88.59287,419.6686 89.66922,418.40281000000004 C 90.566558,417.34754000000004 91.46260099999999,415.94023000000004 91.959434,414.95086000000003 C 92.059124,414.75235000000004 92.305537,413.88675 92.450883,413.38573 C 92.55298900000001,413.03377 92.379193,412.5185 92.25669400000001,412.41835000000003 C 87.30166700000001,408.36801 63.81334100000001,388.55922 56.65827300000001,382.61634000000004 C 50.17848300000001,377.23431 43.21618300000001,371.65067 36.712725000000006,366.29725 C 32.876267000000006,363.13918 27.109725000000005,363.33017 23.534184000000007,366.64543000000003 C 20.892080000000007,369.09520000000003 19.853192000000007,372.70185000000004 20.586474000000006,376.04521 C 20.863473000000006,377.30817 21.379090000000005,378.53656 22.184719000000005,379.63681 C 23.199211000000005,381.02231000000006 24.611403000000003,381.95328000000006 25.991046000000004,382.89988000000005 C 29.274772000000006,385.15297 32.407456,387.32861 35.689699000000005,389.58391000000006 C 38.899976,391.78982 42.293733,394.08869000000004 45.50368900000001,396.29456000000005 C 46.274831000000006,396.82448 46.97802800000001,397.30677000000003 47.69866600000001,397.90061000000003 C 49.24144900000001,399.17189 49.22100200000001,401.08509000000004 47.77998600000001,402.51077000000004 C 46.47427900000001,403.80256 45.237350000000006,405.09674 44.77087900000001,406.92560000000003 C 44.14373700000001,409.38441 44.762679000000006,411.67714 46.587863000000006,413.40579 C 50.263130000000004,416.88660000000004 54.055747000000004,420.31779000000006 57.771579,423.75522 C 63.269887000000004,428.84157300000004 68.432241,433.72503100000006 73.932841,438.809167 C 79.819907,444.250508 85.08758999999999,449.142963 90.975334,454.583276 C 94.399013,457.746777 99.149427,462.06169 102.45471,465.158272 C 103.38939,466.03393800000003 104.56647000000001,466.963247 105.35573000000001,467.702713 C 106.05982,468.36238000000003 107.10026,469.191792 107.82663000000001,469.89429400000006 C 107.95954,470.022831 108.06892,470.15334700000005 108.15823,470.280204 C 108.35997,470.566747 108.45933000000001,470.83461600000004 108.49616,471.018816 C 111.01117,483.595926 114.82257,505.206267 115.8313,517.459298 C 115.8616,517.8278852000001 115.68252,518.1417505000001 115.46795,518.4702294 C 115.29855,518.7295581000001 115.11952000000001,519.0042246 114.91778000000001,519.2790001000001 C 114.25099,520.1872125 113.54898000000001,521.18605 112.86005,522.1696676 C 109.48069,526.99456401 102.73274,535.3928008 101.58293,538.209995 C 99.77838100000001,542.6313640000001 99.504254,545.115181 101.16344000000001,549.68257 C 102.43690000000001,553.188148 103.79721,556.432888 105.04033000000001,559.948699 C 105.64022000000001,561.6453300000001 104.89854000000001,563.01192 104.10582000000001,564.037112 C 103.55635000000001,564.747719 102.82993,565.198961 101.58502000000001,565.254888 C 100.47200000000001,565.304888 99.85154700000001,565.469746 98.73677400000001,565.4709760000001 C 82.95173300000002,565.488456 67.167043,565.5075360000001 51.382002000000014,565.521426 C 38.29606500000001,565.5329360000001 25.210480000000015,565.533846 12.124540000000025,565.547536 M 12.124540000000017,565.547536 C -0.40295164999998256,565.560636 -12.93008799999998,565.578976 -25.45722799999998,565.607156 C -29.563912999999978,565.616356 -35.74585699999998,565.8113390000001 -39.830672999999976,566.1263250000001 C -44.82706099999997,566.511604 -49.056748999999975,568.713383 -51.87362599999997,572.9361700000001 C -55.350305999999975,578.14807 -55.71616299999997,583.737557 -53.13374899999997,589.445816 C -51.017162999999975,594.1243920000001 -49.005798999999975,599.080039 -46.82096499999997,603.7250260000001 C -45.35243199999997,606.8471470000001 -43.63655499999997,610.6348360000001 -41.40794399999997,613.392546 C -39.64206399999997,615.577668 -37.99276499999997,616.7595590000001 -35.60651299999997,618.250296 C -30.928389999999972,621.172809 -25.806351999999972,622.10775 -20.36580999999997,621.9389430000001 C -17.028889999999972,621.835407 -13.68278499999997,622.059662 -10.342334999999972,622.0197230000001 C -6.276569799999971,621.9711130000001 -2.498228799999973,619.0859360000001 -1.1842225999999716,615.173716 C 0.1310256000000285,611.257799 -0.8116452199999715,606.601173 -3.9763780999999714,604.1242850000001 C -4.341885499999972,603.8382200000001 -4.779935699999971,603.5341760000001 -5.360166999999971,603.292666" style="fill:#000000;fill-opacity:1;fill-rule:nonzero;stroke:none;stroke-width:3"/><g id="g20"><g id="g13"/></g></g><metadata id="metadata60"><rdf:RDF><cc:Work rdf:about=""><dc:title>Balaton Park Circuit</dc:title></cc:Work></rdf:RDF></metadata></svg>