<?xml version='1.0' encoding='UTF-8'?>
<!-- Created with Inkscape (http://www.inkscape.org/) --><svg xmlns:dc="http://purl.org/dc/elements/1.1/" xmlns:cc="http://creativecommons.org/ns#" xmlns:rdf="http://www.w3.org/1999/02/22-rdf-syntax-ns#" xmlns:svg="http://www.w3.org/2000/svg" xmlns="http://www.w3.org/2000/svg" xmlns:xlink="http://www.w3.org/1999/xlink" version="1.0" width="1331.9034" height="908.8739" id="svg2383">
  <defs id="defs2385">
    <clipPath id="clipPath3490">
      <rect width="1511.7875" height="1003.7479" x="683.1405" y="104.1039" transform="matrix(-0.7183395,0.6956928,-0.6956928,-0.7183395,0,0)" id="rect3492" style="fill:#006a00;fill-opacity:1;fill-rule:nonzero;stroke:none"/>
    </clipPath>
    <pattern id="pattern4912" patternTransform="matrix(0.1737876,0,0,0.1737876,763.47719,1693.9071)" height="18.137641" width="18.181098" patternUnits="userSpaceOnUse">
      <g transform="translate(-1025.5348,-1215.2814)" id="g4907">
        <rect y="1215.2814" x="1025.5348" height="18.095789" width="18.172573" id="rect4899" style="opacity:1;fill:#000000;fill-opacity:1;stroke:none;stroke-width:0.5;stroke-linecap:round;stroke-linejoin:round;stroke-miterlimit:4;stroke-dasharray:none;stroke-dashoffset:0;stroke-opacity:1"/>
        <rect y="1215.2814" x="1025.5348" height="9.0746527" width="9.0746527" id="rect4903" style="opacity:1;fill:#ffffff;fill-opacity:1;stroke:none;stroke-width:0.5;stroke-linecap:round;stroke-linejoin:round;stroke-miterlimit:4;stroke-dasharray:none;stroke-dashoffset:0;stroke-opacity:1"/>
        <rect y="1224.3444" x="1034.6412" height="9.0746527" width="9.0746527" id="rect4905" style="opacity:1;fill:#ffffff;fill-opacity:1;stroke:none;stroke-width:0.5;stroke-linecap:round;stroke-linejoin:round;stroke-miterlimit:4;stroke-dasharray:none;stroke-dashoffset:0;stroke-opacity:1"/>
      </g>
    </pattern>
    <pattern patternTransform="matrix(0.4562459,1.6264824e-8,-1.6264824e-8,0.4562459,-1778.2267,454.6431)" id="pattern4166" xlink:href="#pattern4912"/>
    <clipPath id="clipPath9716">
      </clipPath>
    <clipPath id="clipPath3494">
      <rect width="2168.1926" height="1468.4177" x="-4232.8457" y="-2372.1296" transform="matrix(-0.9472965,-0.3203582,0.9519016,-0.3064038,0,0)" id="rect3496" style="fill:#006a00;fill-opacity:1;fill-rule:nonzero;stroke:none"/>
    </clipPath>
  </defs>
  <metadata id="metadata2388">
    <rdf:RDF>
      <cc:Work rdf:about="">
        <dc:format>image/svg+xml</dc:format>
        <dc:type rdf:resource="http://purl.org/dc/dcmitype/StillImage"/>
        <dc:title/>
        <dc:date>8-8-2008</dc:date>
        <dc:creator>
          <cc:Agent>
            <dc:title>Will Pittenger</dc:title>
          </cc:Agent>
        </dc:creator>
        <dc:publisher>
          <cc:Agent>
            <dc:title>Will Pittenger</dc:title>
          </cc:Agent>
        </dc:publisher>
        <dc:subject>
          <rdf:Bag>
            <rdf:li>Australia</rdf:li>
            <rdf:li>Phillip Island</rdf:li>
            <rdf:li>Grand Prix</rdf:li>
            <rdf:li>roud course</rdf:li>
            <rdf:li>Super V8</rdf:li>
            <rdf:li>racing</rdf:li>
            <rdf:li>Gardner Straight</rdf:li>
            <rdf:li>Doohan Corner</rdf:li>
            <rdf:li>Southern Loop</rdf:li>
            <rdf:li>Miller Corner</rdf:li>
            <rdf:li>Siberia</rdf:li>
            <rdf:li>Lukey Heights</rdf:li>
          </rdf:Bag>
        </dc:subject>
        <dc:description>Created in Inkscape with daata from Google Earth</dc:description>
        <cc:license rdf:resource="http://creativecommons.org/licenses/by-sa/3.0/"/>
      </cc:Work>
      <cc:License rdf:about="http://creativecommons.org/licenses/by-sa/3.0/">
        <cc:permits rdf:resource="http://creativecommons.org/ns#Reproduction"/>
        <cc:permits rdf:resource="http://creativecommons.org/ns#Distribution"/>
        <cc:requires rdf:resource="http://creativecommons.org/ns#Notice"/>
        <cc:requires rdf:resource="http://creativecommons.org/ns#Attribution"/>
        <cc:permits rdf:resource="http://creativecommons.org/ns#DerivativeWorks"/>
        <cc:requires rdf:resource="http://creativecommons.org/ns#ShareAlike"/>
      </cc:License>
    </rdf:RDF>
  </metadata>
  <g transform="translate(-1269.3965,-826.97145)" id="layer1">
    <use id="use3367" style="stroke:#ffffff;stroke-width:2;stroke-miterlimit:4;stroke-opacity:1;stroke-dasharray:none" x="0" y="0" width="744.09448" height="1052.3622" xlink:href="#text3339"/>
    <use id="use3369" style="stroke:#ffffff;stroke-width:2;stroke-miterlimit:4;stroke-opacity:1;stroke-dasharray:none" x="0" y="0" width="744.09448" height="1052.3622" xlink:href="#text3345"/>
    <use id="use3371" style="stroke:#ffffff;stroke-width:2;stroke-miterlimit:4;stroke-opacity:1;stroke-dasharray:none" x="0" y="0" width="744.09448" height="1052.3622" xlink:href="#text3351"/>
    <use id="use3373" style="stroke:#ffffff;stroke-width:2;stroke-miterlimit:4;stroke-opacity:1;stroke-dasharray:none" x="0" y="0" width="744.09448" height="1052.3622" xlink:href="#text3355"/>
    <use id="use3375" style="stroke:#ffffff;stroke-width:2;stroke-miterlimit:4;stroke-opacity:1;stroke-dasharray:none" x="0" y="0" width="744.09448" height="1052.3622" xlink:href="#text3361"/>
    <path d="M 1798.3366,426.0796 C 1942.0706,423.93139999999994 2086.9989,422.6537000000001 2230.6836000000003,420.6038000000001 C 2343.4896000000003,418.9945 2386.3661,341.17370000000005 2406.9055000000003,237.81470000000013 C 2412.4078000000004,210.1994000000002 2411.2489000000005,179.72180000000003 2422.2291000000005,154.62930000000006 C 2436.1329000000005,122.85550000000012 2462.9031000000004,97.30250000000001 2497.4787000000006,91.42430000000013 C 2536.3463000000006,84.81640000000016 2569.2576000000004,111.29350000000022 2581.7463000000007,140.95440000000008 C 2594.913400000001,172.2266000000002 2597.7680000000005,204.57420000000002 2582.3052000000007,232.61599999999999 C 2533.8857000000007,320.4252999999999 2487.1775000000007,399.66149999999993 2434.2706000000007,483.8026 C 2426.6127000000006,495.9815000000001 2412.5808000000006,511.70640000000003 2401.158700000001,520.4799 C 2387.406200000001,531.0434 2370.135400000001,541.1954000000001 2354.362600000001,548.1161 C 2334.380200000001,556.8839 2315.334600000001,566.5162 2293.6193000000007,570.0115000000001 C 2229.7607000000007,580.2904000000001 2169.133100000001,587.8842 2108.645700000001,595.7373 C 2096.175800000001,597.3562 2087.774800000001,601.9112 2085.652500000001,611.8814 C 2081.214400000001,632.7303999999999 2084.784100000001,641.6741999999999 2104.814000000001,648.5433 C 2134.315100000001,658.6605 2164.259100000001,665.6555000000001 2195.658200000001,669.0656000000001 C 2227.936200000001,672.5712000000001 2249.962100000001,670.3271000000002 2283.481900000001,672.3508000000002 C 2295.204500000001,673.0585000000001 2310.3682000000013,687.1802000000002 2317.1450000000013,695.6118000000001 C 2323.0441000000014,702.9513000000002 2325.663800000001,716.8605000000002 2324.2650000000012,726.8072000000002 C 2322.380100000001,740.2108000000003 2318.2084000000013,751.0432000000003 2309.760200000001,761.0043000000003 C 2301.022600000001,771.3068000000003 2287.458400000001,778.5376000000003 2276.098800000001,782.6243000000002 C 2227.623300000001,800.0637000000002 2183.9179000000013,823.0263700000002 2133.2691000000013,827.7747100000001 C 2078.8415000000014,832.8773100000002 2020.3006000000014,815.7824000000002 1965.2541000000015,816.2874000000002 C 1940.7637000000016,816.5121000000001 1913.2286000000015,820.1846000000002 1893.0141000000015,833.5261000000002 C 1840.2589000000014,868.3445400000002 1799.7417000000014,919.3423700000002 1747.9891000000014,956.9310700000002 C 1730.4204000000013,969.6914600000002 1707.8088000000014,978.0214300000002 1686.6945000000014,981.0110700000002 C 1666.5809000000015,983.8590100000002 1642.9076000000014,981.9951300000002 1624.3055000000015,974.4438000000002 C 1606.0579000000016,967.0363500000002 1587.4831000000015,952.4225000000002 1576.1455000000014,936.1347100000003 C 1561.5788000000014,915.2079500000002 1552.7829000000015,888.1235800000003 1546.5927000000015,862.8001600000002 C 1540.7429000000016,838.8690500000002 1542.8256000000015,813.1057000000002 1540.0255000000016,788.3711000000003 C 1538.4475000000016,774.4317000000003 1538.5968000000016,757.4641000000004 1531.5400000000016,748.6965000000002 C 1526.5568000000017,742.5053000000003 1511.0920000000015,741.2960000000003 1503.3575000000017,746.2349000000002 C 1480.8096000000016,760.6330000000003 1466.2864000000018,790.7594000000001 1442.6109000000017,804.7893000000001 C 1426.8827000000017,814.1097000000001 1404.3439000000017,813.3421000000002 1386.2425000000017,811.0794000000002 C 1372.2373000000016,809.3287000000001 1354.5057000000018,800.5302000000001 1345.1948000000016,789.7350000000001 C 1329.3312000000017,771.3424000000002 1319.6563000000015,749.3307000000002 1310.1709000000017,725.9820000000002 C 1295.9412000000016,690.9549000000002 1288.0714000000016,661.2191000000003 1280.6260000000016,624.4726000000003 C 1276.7611000000015,605.3973000000003 1277.0521000000015,577.4700000000003 1281.1724000000015,558.5165000000002 C 1286.1733000000015,535.5125000000003 1294.8404000000014,515.9827000000002 1308.2636000000016,497.22980000000007 C 1319.6501000000017,481.3221000000001 1334.0750000000016,467.30629999999996 1352.0392000000015,458.645 C 1374.9380000000015,447.6044999999999 1405.4003000000016,434.0961 1431.1267000000016,433.4658999999999 C 1552.8481000000015,430.4839999999999 1673.5421000000017,427.9447 1798.3366000000017,426.0796 L 1798.3366,426.0796" id="path2419" style="fill:none;stroke:#000000;stroke-width:3;stroke-linecap:butt;stroke-linejoin:round;stroke-miterlimit:4;stroke-opacity:1;stroke-dasharray:none"/>
    <g transform="translate(-7.7116571,23.134971)" id="g3330">
      </g>
    <g transform="translate(-8.8133224,24.236637)" id="g3323">
      </g>
    <g transform="translate(-14.321649,18.72831)" id="g3316">
      </g>
    <g transform="translate(1.1016653,30.846628)" id="g3309">
      </g>
    <g transform="translate(-6.6099918,16.52498)" id="g3302">
      </g>
    <g transform="translate(57.286596,0)" id="g3295">
      </g>
    <g transform="translate(-12.118318,16.557397)" id="g3288">
      </g>
    <g transform="translate(-5.5083265,12.118318)" id="g3281">
      </g>
    <g transform="translate(-13.219984,15.423314)" id="g3274">
      </g>
    <g transform="translate(-22.931641,6.8983347)" id="g3267">
      </g>
    <g transform="translate(-1.1016653,9.9149877)" id="g3260">
      </g>
    <g transform="translate(-25.338302,-6.6099918)" id="g3253">
      </g>
    <g transform="matrix(1.9555278,0,0,1.9555278,-2363.2969,-280.76004)" id="g3804" style="display:inline">
      </g>
    <g transform="matrix(0.9360189,0.8856542,0.8856542,-0.9360189,-260.24797,882.37812)" clip-path="url(#clipPath9716)" id="g4801" style="display:inline">
      <rect width="13.041035" height="53.588943" ry="0" x="-1620.8837" y="376.01733" transform="matrix(-0.7183395,-0.6956928,0.6956928,-0.7183395,0,0)" clip-path="url(#clipPath3490)" id="rect3457" style="fill:url(#pattern4166);fill-opacity:1;stroke:#000000;stroke-width:0.77603012;stroke-linecap:round;stroke-linejoin:round;stroke-miterlimit:4;stroke-opacity:1;stroke-dasharray:none;stroke-dashoffset:0;display:inline"/>
    </g>
    </g>
</svg>