<?xml version="1.0" encoding="UTF-8" standalone="no"?>
<!-- Created with Inkscape (http://www.inkscape.org/) -->

<svg
   width="1103"
   height="538"
   id="svg3004"
   version="1.1"
   inkscape:version="1.4.3 (fcd0343856, 2026-01-01)"
   sodipodi:docname="Portugalv.svg"
   xmlns:inkscape="http://www.inkscape.org/namespaces/inkscape"
   xmlns:sodipodi="http://sodipodi.sourceforge.net/DTD/sodipodi-0.dtd"
   xmlns="http://www.w3.org/2000/svg"
   xmlns:svg="http://www.w3.org/2000/svg">
  <defs
     id="defs1" />
  <sodipodi:namedview
     inkscape:document-units="mm"
     pagecolor="#ffffff"
     bordercolor="#666666"
     borderopacity="1.0"
     inkscape:pageopacity="0.0"
     inkscape:pageshadow="2"
     inkscape:zoom="0.64126394"
     inkscape:cx="822.5942"
     inkscape:cy="240.15072"
     inkscape:current-layer="layer1"
     id="namedview3008"
     showgrid="false"
     width="1052.36px"
     fit-margin-top="0"
     fit-margin-left="0"
     fit-margin-right="0"
     fit-margin-bottom="0"
     inkscape:window-width="1210"
     inkscape:window-height="933"
     inkscape:window-x="0"
     inkscape:window-y="0"
     inkscape:window-maximized="1"
     inkscape:snap-nodes="false"
     inkscape:showpageshadow="2"
     inkscape:pagecheckerboard="0"
     inkscape:deskcolor="#d1d1d1" />
  <g
     inkscape:label="Layer 1"
     inkscape:groupmode="layer"
     id="layer1"
     transform="translate(28.649292,-99.655434)">
    <path
       style="fill:none;stroke:#fffa69;stroke-width:13.8189;stroke-linecap:butt;stroke-linejoin:miter;stroke-miterlimit:4;stroke-dasharray:none;stroke-opacity:1"
       d="m 457.07978,384.8728 c 0,0 -11.48395,2.44871 -18.7455,2.6621 -7.26155,0.21339 -14.00482,-0.66514 -24.81023,-1.55942 -10.80541,-0.89428 -39.69635,-6.61606 -39.69635,-6.61606 l -92.62485,-13.78346 c 0,0 -9.01439,0.12893 -15.43747,2.20536 -6.42308,2.07643 -11.88929,3.61496 -22.05353,11.5781 -10.16424,7.96314 -44.65841,70.57131 -44.65841,70.57131 0,0 -3.07919,7.44891 -1.10268,17.64282 1.97651,10.19391 4.23574,10.83532 9.37275,15.82734 5.13701,4.99202 19.84819,5.12352 19.84819,5.12352 0,0 60.86728,-8.60746 97.58688,-15.98881 36.7196,-7.38135 122.39711,-29.22093 122.39711,-29.22093 0,0 15.3933,-2.66532 23.15621,-2.75669 7.76291,-0.0914 15.87444,0.11697 23.15621,2.20535 7.28177,2.08838 12.44569,5.07067 19.84818,9.92409 7.40249,4.85342 23.70755,19.84818 23.70755,19.84818 0,0 80.87141,88.47632 86.00878,92.0735 5.13737,3.59718 7.01707,7.40666 18.61172,11.25514 11.59465,3.84847 16.61267,3.81846 24.94401,4.73367 8.33134,0.91521 20.20571,0.32494 27.01557,-0.55134 6.80986,-0.87628 9.53817,-0.58005 13.78346,-3.30803 4.24529,-2.72798 7.94246,-7.79604 9.92409,-12.68078 1.98163,-4.88473 1.65402,-15.43747 1.65402,-15.43747 l -0.55134,-121.84577 c 0,0 -0.11693,-10.43904 2.20535,-17.64283 2.32228,-7.20379 3.88873,-16.37831 12.68078,-27.01558 8.79205,-10.63727 13.77342,-12.46777 19.84818,-16.54015 6.07476,-4.07238 105.60319,-47.84688 110.81901,-49.06911 5.21582,-1.22223 11.45873,-1.64012 15.98881,0 4.53008,1.64012 8.72323,3.94172 11.48351,7.49037 2.76028,3.54865 3.64822,8.51241 4.5053,13.46049 0.85708,4.94808 0.26055,12.13269 -1.65401,15.98881 -1.91456,3.85612 -71.12265,103.65161 -71.12265,103.65161 0,0 -4.69933,14.17758 -3.30803,21.50219 1.3913,7.32461 4.79492,15.07334 10.01869,19.84818 5.22377,4.77484 12.77398,8.39211 19.98195,10.60921 7.70165,2.36895 15.98603,3.085 24.03052,2.62291 8.27886,-0.47555 17.0608,-1.7672 24.25888,-5.51338 7.19808,-3.74618 13.11239,-10.91907 17.64283,-15.98881 4.53044,-5.06974 9.92409,-13.78346 9.92409,-13.78346 l 73.87935,-110.81901 c 0,0 9.30849,-19.49956 12.12939,-29.22093 2.8209,-9.72137 4.4931,-18.20672 4.9621,-28.66959 0.469,-10.46287 -0.8348,-23.29993 -2.7567,-33.63164 -1.9219,-10.33171 -3.9334,-18.33636 -8.2701,-28.11826 -4.3367,-9.7819 -11.42939,-20.74659 -18.19419,-29.77227 -6.7648,-9.02568 -10.4843,-15.5775 -22.05349,-24.25888 -11.5692,-8.68138 -27.36224,-18.91283 -48.51777,-23.70755 -21.15553,-4.79472 -15.97493,-2.20713 -38.59369,-2.75669 -22.61876,-0.54956 -97.03554,2.20535 -97.03554,2.20535 l -682.005522,7.1674 c 0,0 -18.07651,0.70749 -23.70755,3.30803 -5.631043,2.60054 -8.078471,5.2052 -9.924085,8.82141 -1.300898,2.54892 -2.689804,5.95865 -2.689804,5.95865 l -33.670821,97.86592 -1.130382,3.13507 c -1.314378,5.03718 -0.954448,10.48142 0,15.43747 0.954448,4.95605 5.513384,13.78346 5.513384,13.78346 l 47.966428,82.14941 c 0,0 6.82497,8.23243 10.47543,9.37275 3.65046,1.14032 6.15698,2.34733 9.211282,1.62632 3.05429,-0.72102 6.82105,-3.5109 8.98289,-6.03702 2.16184,-2.52612 3.85937,-8.27008 3.85937,-8.27008 l 17.64282,-67.26327 c 0,0 5.64227,-10.16385 9.37276,-14.3348 3.73049,-4.17095 8.78585,-8.18983 12.68078,-10.47543 3.89493,-2.2856 4.61711,-2.44822 9.92409,-3.85937 5.30698,-1.41115 22.05353,-3.30803 22.05353,-3.30803 l 65.60926,-2.75669 86.00878,-3.85937 71.67399,-3.30802 h 82.70075 l 38.68661,1.24973 c 0,0 12.07851,4.75749 16.99856,8.67435 2.74692,2.18683 5.35461,4.71181 7.16739,7.71874 2.01059,3.33504 3.27142,7.56714 3.85937,11.02677 0.58795,3.45963 0.55889,6.29068 0,9.37275 -0.55889,3.08207 -1.92703,5.95957 -3.30803,8.82141 -1.381,2.86184 -4.5424,7.24287 -4.5424,7.24287 -1.22545,1.29047 -1.07255,1.40934 -3.26284,3.04439 z"
       id="path3031"
       inkscape:connector-curvature="0"
       sodipodi:nodetypes="czzcczzczzczczzzczzzzzzcczzzzzzzzczzaazzcczzzzzzzzcczcccczcczzzcczzzccccccsssssccc" />
  </g>
</svg>
