<?xml version="1.0" encoding="UTF-8" standalone="no"?>
<!-- Created with Inkscape (http://www.inkscape.org/) -->

<svg
   width="1201.3054"
   height="892.91034"
   id="svg2383"
   sodipodi:version="0.32"
   inkscape:version="1.1.1 (3bf5ae0d25, 2021-09-20)"
   inkscape:export-filename="d:\Images\Race Tracks\Losail.png"
   inkscape:export-xdpi="90.015755"
   inkscape:export-ydpi="90.015755"
   sodipodi:docname="Losail.svg"
   inkscape:output_extension="org.inkscape.output.svg.inkscape"
   version="1.0"
   xmlns:inkscape="http://www.inkscape.org/namespaces/inkscape"
   xmlns:sodipodi="http://sodipodi.sourceforge.net/DTD/sodipodi-0.dtd"
   xmlns:xlink="http://www.w3.org/1999/xlink"
   xmlns="http://www.w3.org/2000/svg"
   xmlns:svg="http://www.w3.org/2000/svg"
   xmlns:rdf="http://www.w3.org/1999/02/22-rdf-syntax-ns#"
   xmlns:cc="http://creativecommons.org/ns#"
   xmlns:dc="http://purl.org/dc/elements/1.1/">
  <defs
     id="defs2385">
    <clipPath
       clipPathUnits="userSpaceOnUse"
       id="clipPath9724">
      <path
         id="path9726"
         d="M 727.23942,720.30758 C 1333.36,720.30758 1939.4804,720.30758 2545.601,720.30758 C 2545.601,974.89282 2545.601,1229.4779 2545.601,1484.0631 C 1939.4804,1484.0631 1333.36,1484.0631 727.23942,1484.0631 C 727.23942,1229.4779 727.23942,974.89282 727.23942,720.30758 L 727.23942,720.30758 z"
         style="fill:#6a6a6a;fill-opacity:1;fill-rule:nonzero;stroke:#010101;stroke-width:0.94262564;stroke-linecap:round;stroke-linejoin:round;stroke-miterlimit:4;stroke-dasharray:none;stroke-dashoffset:0;stroke-opacity:1" />
    </clipPath>
    <clipPath
       clipPathUnits="userSpaceOnUse"
       id="clipPath3490">
      <rect
         style="opacity:1;fill:#006a00;fill-opacity:1;fill-rule:nonzero;stroke:none"
         id="rect3492"
         width="1511.7875"
         height="1003.7479"
         x="683.1405"
         y="104.1039"
         transform="matrix(-0.7183395,0.6956928,-0.6956928,-0.7183395,0,0)" />
    </clipPath>
    <pattern
       patternUnits="userSpaceOnUse"
       width="18.181098"
       height="18.137641"
       patternTransform="matrix(0.1737876,0,0,0.1737876,763.47719,1693.9071)"
       id="pattern4912">
      <g
         id="g4907"
         transform="translate(-1025.5348,-1215.2814)">
        <rect
           style="opacity:1;fill:#fffa69;fill-opacity:1;stroke:none;stroke-width:0.5;stroke-linecap:round;stroke-linejoin:round;stroke-miterlimit:4;stroke-dasharray:none;stroke-dashoffset:0;stroke-opacity:1"
           id="rect4899"
           width="18.172573"
           height="18.095789"
           x="1025.5348"
           y="1215.2814" />
        <rect
           style="opacity:1;fill:#ffffff;fill-opacity:1;stroke:none;stroke-width:0.5;stroke-linecap:round;stroke-linejoin:round;stroke-miterlimit:4;stroke-dasharray:none;stroke-dashoffset:0;stroke-opacity:1"
           id="rect4903"
           width="9.0746527"
           height="9.0746527"
           x="1025.5348"
           y="1215.2814" />
        <rect
           style="opacity:1;fill:#ffffff;fill-opacity:1;stroke:none;stroke-width:0.5;stroke-linecap:round;stroke-linejoin:round;stroke-miterlimit:4;stroke-dasharray:none;stroke-dashoffset:0;stroke-opacity:1"
           id="rect4905"
           width="9.0746527"
           height="9.0746527"
           x="1034.6412"
           y="1224.3444" />
      </g>
    </pattern>
    <pattern
       inkscape:collect="always"
       xlink:href="#pattern4912"
       id="pattern4166"
       patternTransform="matrix(0.4562459,1.6264824e-8,-1.6264824e-8,0.4562459,-1778.2267,454.6431)" />
    <clipPath
       clipPathUnits="userSpaceOnUse"
       id="clipPath3494">
      <rect
         style="opacity:1;fill:#006a00;fill-opacity:1;fill-rule:nonzero;stroke:none"
         id="rect3496"
         width="2168.1926"
         height="1468.4177"
         x="-4232.8457"
         y="-2372.1296"
         transform="matrix(-0.9472965,-0.3203582,0.9519016,-0.3064038,0,0)" />
    </clipPath>
    <clipPath
       clipPathUnits="userSpaceOnUse"
       id="clipPath9716">
      <path
         id="path9718"
         d="M 871.13547,932.36346 C 1314.8756,1345.252 1758.6155,1758.1404 2202.3556,2171.029 C 2375.7787,1984.6474 2549.2018,1798.266 2722.6249,1611.8845 C 2278.8848,1198.996 1835.1448,786.10758 1391.4047,373.21904 C 1217.9816,559.60052 1044.5586,745.98194 871.13547,932.36346 z"
         style="fill:#6a6a6a;fill-opacity:1;fill-rule:nonzero;stroke:#010101;stroke-width:0.9426257;stroke-linecap:round;stroke-linejoin:round;stroke-miterlimit:4;stroke-dasharray:none;stroke-dashoffset:0;stroke-opacity:1" />
    </clipPath>
  </defs>
  <sodipodi:namedview
     id="base"
     pagecolor="#ffffff"
     bordercolor="#ffffff"
     borderopacity="0.0"
     inkscape:pageopacity="0.0"
     inkscape:pageshadow="0"
     inkscape:zoom="0.46197248"
     inkscape:cx="756.53857"
     inkscape:cy="691.59964"
     inkscape:document-units="px"
     inkscape:current-layer="layer1"
     showgrid="false"
     inkscape:window-width="1366"
     inkscape:window-height="705"
     inkscape:window-x="-8"
     inkscape:window-y="-8"
     inkscape:pagecheckerboard="0"
     inkscape:window-maximized="1" />
  <metadata
     id="metadata2388">
    <rdf:RDF>
      <cc:Work
         rdf:about="">
        <dc:format>image/svg+xml</dc:format>
        <dc:type
           rdf:resource="http://purl.org/dc/dcmitype/StillImage" />
        <cc:license
           rdf:resource="http://creativecommons.org/licenses/by-sa/4.0/" />
      </cc:Work>
      <cc:License
         rdf:about="http://creativecommons.org/licenses/by-sa/4.0/">
        <cc:permits
           rdf:resource="http://creativecommons.org/ns#Reproduction" />
        <cc:permits
           rdf:resource="http://creativecommons.org/ns#Distribution" />
        <cc:requires
           rdf:resource="http://creativecommons.org/ns#Notice" />
        <cc:requires
           rdf:resource="http://creativecommons.org/ns#Attribution" />
        <cc:permits
           rdf:resource="http://creativecommons.org/ns#DerivativeWorks" />
        <cc:requires
           rdf:resource="http://creativecommons.org/ns#ShareAlike" />
      </cc:License>
    </rdf:RDF>
  </metadata>
  <g
     inkscape:label="Layer 1"
     inkscape:groupmode="layer"
     id="layer1"
     transform="translate(-405.60707,-126.99867)">
    <path
       style="fill:none;fill-rule:evenodd;stroke:#fffa69;stroke-width:10;stroke-linecap:butt;stroke-linejoin:round;stroke-miterlimit:4;stroke-dasharray:none;stroke-opacity:1"
       d="m 967.85818,991.34764 c -136.78331,0.32413 -268.29139,-2.91728 -398.09,-3.28999 -76.61657,-0.22001 -85.71966,-85.00612 -43.36818,-107.97183 47.57896,-25.80038 92.33077,-47.70595 138.77819,-74.77273 34.88033,-20.32617 37.63028,-75.93138 -5.38365,-97.80273 -45.51341,-23.14227 -73.63756,-38.24165 -117.54272,-63.10818 -10.71091,-6.06633 -24.84734,-22.1385 -29.01182,-33.79727 -35.46804,-99.29519 -64.81521,-190.41608 -98.40091,-291.01546 -10.23731,-30.66385 4.19894,-58.91982 38.28363,-70.58544 26.23316,-8.97841 37.89126,-13.33905 66.0991,-22.43183 25.27965,-8.14887 57.31405,13.07301 67.89364,40.37728 22.12137,57.09184 37.86379,113.80012 56.22909,170.18272 4.19093,12.86642 21.86908,28.94221 32.6009,28.71273 8.49702,-0.1817 24.78508,-7.81851 26.32,-18.24455 13.39673,-90.99794 26.45597,-181.94672 37.98455,-272.7709 2.34904,-18.50619 21.59345,-33.10943 34.99364,-38.88182 12.52102,-5.39367 31.10764,-2.79046 43.06909,2.99091 11.96582,5.78348 23.60728,18.36361 28.71272,31.70363 7.25698,18.96179 6.7191,40.72503 14.35636,59.81818 9.9094,24.77351 21.92602,50.30076 40.37728,69.98727 12.68005,13.52894 34.90824,27.75032 49.00337,44.11904 8.59867,9.98566 25.88683,28.49438 19.18936,51.59006 -7.91552,27.29603 -26.64883,80.89017 -38.58273,137.58182 -2.96952,14.10662 5.22037,32.19297 16.15091,39.47999 12.99674,8.66449 37.803,8.14088 54.4346,3.29001 31.223,-9.10671 63.3229,-21.26682 91.5218,-39.77909 24.0423,-15.78348 44.0281,-35.5742 63.4072,-56.82728 14.9321,-16.37611 28.228,-35.29218 37.6855,-55.6309 27.6298,-59.41886 49.6135,-120.44484 74.1745,-181.84728 7.3421,-18.35514 19.9703,-41.68092 35.8909,-51.14455 9.6595,-5.74179 28.599,-14.3045 39.4801,-14.35636 44.18,-0.21054 68.9074,-0.51351 113.6545,0.29909 11.5309,0.21081 32.6451,13.17491 37.9845,23.3291 23.6409,44.95888 44.3592,80.83711 69.3892,123.82363 6.7494,11.59143 7.3601,38.09751 -3.2901,50.54636 -53.0677,62.0301 -92.2043,110.68946 -147.1527,171.97728 -15.669,17.47672 -25.5551,48.61973 -13.16,67.59454 63.9061,97.82927 116.6715,189.29863 189.6236,288.62273 24.4913,33.34478 -0.1178,83.22842 -40.9754,83.44636 -197.3997,1.05299 -382.5363,4.31201 -582.33002,4.78546 z"
       id="path2406"
       sodipodi:nodetypes="csssssssssssssssssssssssssssssssssssssss"
       inkscape:export-filename="D:\Losail.jpg.png"
       inkscape:export-xdpi="90.015755"
       inkscape:export-ydpi="90.015755" />
  </g>
</svg>
