<?xml version="1.0" encoding="UTF-8" standalone="no"?>
<!-- Created with Inkscape (http://www.inkscape.org/) -->

<svg
   xmlns:dc="http://purl.org/dc/elements/1.1/"
   xmlns:cc="http://creativecommons.org/ns#"
   xmlns:rdf="http://www.w3.org/1999/02/22-rdf-syntax-ns#"
   xmlns:svg="http://www.w3.org/2000/svg"
   xmlns="http://www.w3.org/2000/svg"
   xmlns:xlink="http://www.w3.org/1999/xlink"
   xmlns:sodipodi="http://sodipodi.sourceforge.net/DTD/sodipodi-0.dtd"
   xmlns:inkscape="http://www.inkscape.org/namespaces/inkscape"
   width="1450.8616"
   height="1016.9352"
   id="svg4434"
   sodipodi:version="0.32"
   inkscape:version="0.48.0 r9654"
   version="1.0"
   sodipodi:docname="Misano_World_Circuit.svg"
   inkscape:output_extension="org.inkscape.output.svg.inkscape"
   inkscape:export-filename="D:\Images\Race Tracks\Misano World Circuit.png"
   inkscape:export-xdpi="90.015755"
   inkscape:export-ydpi="90.015755">
  <defs
     id="defs4436">
  </defs>
  <sodipodi:namedview
     id="base"
     pagecolor="#ffffff"
     bordercolor="#ffffff"
     borderopacity="0.0"
     inkscape:pageopacity="0.0"
     inkscape:pageshadow="0"
     inkscape:zoom="0.40563058"
     inkscape:cx="673.55873"
     inkscape:cy="351.09029"
     inkscape:document-units="px"
     inkscape:current-layer="layer1"
     showgrid="false"
     inkscape:window-width="1371"
     inkscape:window-height="823"
     inkscape:window-x="4"
     inkscape:window-y="2"
     showguides="true"
     inkscape:guide-bbox="true"
     showborder="false"
     inkscape:showpageshadow="false"
     inkscape:window-maximized="0" />
  <metadata
     id="metadata4439">
    <rdf:RDF>
      <cc:Work
         rdf:about="">
        <dc:format>image/svg+xml</dc:format>
        <dc:type
           rdf:resource="http://purl.org/dc/dcmitype/StillImage" />
        <cc:license
           rdf:resource="http://creativecommons.org/licenses/by-sa/3.0/" />
        <dc:title>Track map of Misano</dc:title>
        <dc:date>8-7-2008</dc:date>
        <dc:creator>
          <cc:Agent>
            <dc:title>Will Pittenger</dc:title>
          </cc:Agent>
        </dc:creator>
        <dc:publisher>
          <cc:Agent>
            <dc:title>Will Pittenger</dc:title>
          </cc:Agent>
        </dc:publisher>
        <dc:subject>
          <rdf:Bag>
            <rdf:li>Misano</rdf:li>
            <rdf:li>Italy</rdf:li>
            <rdf:li>Variante del Parco</rdf:li>
            <rdf:li>Rio</rdf:li>
            <rdf:li>Quercia</rdf:li>
            <rdf:li>Tramonto</rdf:li>
            <rdf:li>Curvone</rdf:li>
            <rdf:li>Carro</rdf:li>
            <rdf:li>MotoGP</rdf:li>
            <rdf:li>Circuito Internazionale Santamonica</rdf:li>
          </rdf:Bag>
        </dc:subject>
        <dc:description>Created in Inkscape with data from Google Earth.</dc:description>
      </cc:Work>
      <cc:License
         rdf:about="http://creativecommons.org/licenses/by-sa/3.0/">
        <cc:permits
           rdf:resource="http://creativecommons.org/ns#Reproduction" />
        <cc:permits
           rdf:resource="http://creativecommons.org/ns#Distribution" />
        <cc:requires
           rdf:resource="http://creativecommons.org/ns#Notice" />
        <cc:requires
           rdf:resource="http://creativecommons.org/ns#Attribution" />
        <cc:permits
           rdf:resource="http://creativecommons.org/ns#DerivativeWorks" />
        <cc:requires
           rdf:resource="http://creativecommons.org/ns#ShareAlike" />
      </cc:License>
    </rdf:RDF>
  </metadata>
  <g
     inkscape:groupmode="layer"
     id="layer2"
     inkscape:label="at">
  </g>
  <g
     inkscape:label="Layer 1"
     inkscape:groupmode="layer"
     id="layer1"
     transform="translate(-863.67841,-658.36285)">
    <path
       style="fill:none;stroke:#fffa69;stroke-width:20.00000038;stroke-linecap:butt;stroke-linejoin:round;stroke-miterlimit:4;stroke-opacity:1;stroke-dasharray:none"
       d="m 1678.1991,1084.0658 c -53.202,112.1499 -105.3397,225.5909 -162.7055,334.9818 -10.8514,20.6927 -33.8805,28.25 -57.4255,28.4137 -29.069,0.2101 -66.4989,-2.1501 -78.6246,-3.009 -7.2757,-0.5154 -13.3465,0.7645 -18.6663,2.8764 -5.3199,2.112 -11.1577,7.9736 -14.3787,13.0479 -9.3041,14.6576 -11.0286,25.7771 -14.4998,37.9279 -6.5001,23.64 -8.9345,52.3128 -12.856,70.0614 -5.237,22.2259 -4.3715,31.2012 -13.5093,46.2867 -5.6103,9.262 -13.3927,17.1548 -52.5847,34.3572 -29.6353,13.0077 -55.607,16.4743 -66.156,15.8906 -83.557,-4.6234 -167.9596,-11.9349 -247.04906,-25.1236 -15.84092,-2.6416 -17.40575,-29.9414 -7.47727,-41.5737 15.38023,-18.0196 27.71436,-32.4631 44.56454,-49.0509 5.83762,-5.7467 16.91553,-9.5658 24.52549,-6.58 37.4874,14.7085 64.533,27.851 103.4854,38.8818 6.1106,1.7304 22.6252,0.5293 27.2173,-3.8882 100.2891,-96.4758 213.1547,-207.6071 289.8191,-297.8945 74.9824,-88.3066 144.5936,-198.013 211.1581,-305.37185 19.5855,-31.5884 18.4235,-62.08757 -13.9636,-78.36182 -21.4017,-10.75423 -69.0402,0.24549 -97.2982,12.56182 -108.9523,47.48721 -209.7269,112.23975 -315.5409,166.59365 -7.1287,3.6618 -32.3791,6.5981 -40.3773,6.2809 -61.0941,-2.423 -79.6439,-9.1084 -87.5825,-32.1394 -12.8993,-37.423 29.6375,-68.97081 49.8971,-77.32787 211.9093,-87.41257 426.3624,-175.63363 640.6528,-256.32091 13.4175,-5.05212 33.7088,-4.40411 47.8545,-2.09364 105.4906,17.23014 189.8425,33.73601 294.0064,57.42546 15.0737,3.42813 46.2238,20.03452 57.7245,30.20818 40.3417,35.68694 81.4239,66.07209 113.6545,107.97181 7.6482,9.9427 9.5762,27.2652 7.1783,39.7791 -10.3633,54.08367 -26.381,106.22287 -43.3683,156.72367 -7.692,22.8672 -53.5664,20.807 -58.0236,-4.4863 -11.607,-65.8666 -19.3357,-125.83751 -29.3109,-191.71737 -2.1718,-14.34316 -20.656,-33.7618 -34.3954,-39.18091 -86.3564,-34.06089 -170.882,-62.45018 -260.5083,-84.34364 -14.8561,-3.62897 -44.4327,-1.15081 -53.2381,16.74909 -45.8293,93.16266 -85.7032,183.43319 -132.1982,281.44453 z"
       id="path4457"
       sodipodi:nodetypes="ssssssccssssssssssssssssssssssssssssss"
       inkscape:connector-curvature="0" />
  </g>
</svg>
