<?xml version="1.0" encoding="UTF-8" standalone="no"?>
<!-- Created with Inkscape (http://www.inkscape.org/) -->

<svg
   xmlns:dc="http://purl.org/dc/elements/1.1/"
   xmlns:cc="http://creativecommons.org/ns#"
   xmlns:rdf="http://www.w3.org/1999/02/22-rdf-syntax-ns#"
   xmlns:svg="http://www.w3.org/2000/svg"
   xmlns="http://www.w3.org/2000/svg"
   xmlns:xlink="http://www.w3.org/1999/xlink"
   xmlns:sodipodi="http://sodipodi.sourceforge.net/DTD/sodipodi-0.dtd"
   xmlns:inkscape="http://www.inkscape.org/namespaces/inkscape"
   width="1450.8616"
   height="1016.9352"
   id="svg4434"
   sodipodi:version="0.32"
   inkscape:version="0.48.0 r9654"
   version="1.0"
   sodipodi:docname="Misano_World_Circuit.svg"
   inkscape:output_extension="org.inkscape.output.svg.inkscape"
   inkscape:export-filename="D:\Images\Race Tracks\Misano World Circuit.png"
   inkscape:export-xdpi="90.015755"
   inkscape:export-ydpi="90.015755">
  <defs
     id="defs4436">
    <clipPath
       clipPathUnits="userSpaceOnUse"
       id="clipPath3490">
      <rect
         style="opacity:1;fill:#006a00;fill-opacity:1;fill-rule:nonzero;stroke:none"
         id="rect3492"
         width="1511.7875"
         height="1003.7479"
         x="683.1405"
         y="104.1039"
         transform="matrix(-0.7183395,0.6956928,-0.6956928,-0.7183395,0,0)" />
    </clipPath>
    <pattern
       patternUnits="userSpaceOnUse"
       width="18.181098"
       height="18.137641"
       patternTransform="matrix(0.1737876,0,0,0.1737876,763.47719,1693.9071)"
       id="pattern4912">
      <g
         id="g4907"
         transform="translate(-1025.5348,-1215.2814)">
        <rect
           style="opacity:1;fill:#fffa69;fill-opacity:1;stroke:none;stroke-width:0.5;stroke-linecap:round;stroke-linejoin:round;stroke-miterlimit:4;stroke-dasharray:none;stroke-dashoffset:0;stroke-opacity:1"
           id="rect4899"
           width="18.172573"
           height="18.095789"
           x="1025.5348"
           y="1215.2814" />
        <rect
           style="opacity:1;fill:#ffffff;fill-opacity:1;stroke:none;stroke-width:0.5;stroke-linecap:round;stroke-linejoin:round;stroke-miterlimit:4;stroke-dasharray:none;stroke-dashoffset:0;stroke-opacity:1"
           id="rect4903"
           width="9.0746527"
           height="9.0746527"
           x="1025.5348"
           y="1215.2814" />
        <rect
           style="opacity:1;fill:#ffffff;fill-opacity:1;stroke:none;stroke-width:0.5;stroke-linecap:round;stroke-linejoin:round;stroke-miterlimit:4;stroke-dasharray:none;stroke-dashoffset:0;stroke-opacity:1"
           id="rect4905"
           width="9.0746527"
           height="9.0746527"
           x="1034.6412"
           y="1224.3444" />
      </g>
    </pattern>
    <pattern
       inkscape:collect="always"
       xlink:href="#pattern4912"
       id="pattern4166"
       patternTransform="matrix(0.4562459,1.6264824e-8,-1.6264824e-8,0.4562459,-1778.2267,454.6431)" />
    <clipPath
       clipPathUnits="userSpaceOnUse"
       id="clipPath3494">
      <rect
         style="opacity:1;fill:#006a00;fill-opacity:1;fill-rule:nonzero;stroke:none"
         id="rect3496"
         width="2168.1926"
         height="1468.4177"
         x="-4232.8457"
         y="-2372.1296"
         transform="matrix(-0.9472965,-0.3203582,0.9519016,-0.3064038,0,0)" />
    </clipPath>
    <clipPath
       clipPathUnits="userSpaceOnUse"
       id="clipPath9716">
      <path
         id="path9718"
         d="M 871.13547,932.36346 C 1314.8756,1345.252 1758.6155,1758.1404 2202.3556,2171.029 C 2375.7787,1984.6474 2549.2018,1798.266 2722.6249,1611.8845 C 2278.8848,1198.996 1835.1448,786.10758 1391.4047,373.21904 C 1217.9816,559.60052 1044.5586,745.98194 871.13547,932.36346 z"
         style="fill:#6a6a6a;fill-opacity:1;fill-rule:nonzero;stroke:#010101;stroke-width:0.9426257;stroke-linecap:round;stroke-linejoin:round;stroke-miterlimit:4;stroke-dasharray:none;stroke-dashoffset:0;stroke-opacity:1" />
    </clipPath>
    <inkscape:perspective
       sodipodi:type="inkscape:persp3d"
       inkscape:vp_x="0 : 526.18109 : 1"
       inkscape:vp_y="0 : 1000 : 0"
       inkscape:vp_z="744.09448 : 526.18109 : 1"
       inkscape:persp3d-origin="372.04724 : 350.78739 : 1"
       id="perspective4442" />
    <inkscape:perspective
       id="perspective4451"
       inkscape:persp3d-origin="372.04724 : 350.78739 : 1"
       inkscape:vp_z="744.09448 : 526.18109 : 1"
       inkscape:vp_y="0 : 1000 : 0"
       inkscape:vp_x="0 : 526.18109 : 1"
       sodipodi:type="inkscape:persp3d" />
  </defs>
  <sodipodi:namedview
     id="base"
     pagecolor="#ffffff"
     bordercolor="#ffffff"
     borderopacity="0.0"
     inkscape:pageopacity="0.0"
     inkscape:pageshadow="0"
     inkscape:zoom="0.40563058"
     inkscape:cx="673.55873"
     inkscape:cy="351.09029"
     inkscape:document-units="px"
     inkscape:current-layer="layer1"
     showgrid="false"
     inkscape:window-width="1371"
     inkscape:window-height="823"
     inkscape:window-x="4"
     inkscape:window-y="2"
     showguides="true"
     inkscape:guide-bbox="true"
     showborder="false"
     inkscape:showpageshadow="false"
     inkscape:window-maximized="0" />
  <metadata
     id="metadata4439">
    <rdf:RDF>
      <cc:Work
         rdf:about="">
        <dc:format>image/svg+xml</dc:format>
        <dc:type
           rdf:resource="http://purl.org/dc/dcmitype/StillImage" />
        <cc:license
           rdf:resource="http://creativecommons.org/licenses/by-sa/3.0/" />
        <dc:title>Track map of Misano</dc:title>
        <dc:date>8-7-2008</dc:date>
        <dc:creator>
          <cc:Agent>
            <dc:title>Will Pittenger</dc:title>
          </cc:Agent>
        </dc:creator>
        <dc:publisher>
          <cc:Agent>
            <dc:title>Will Pittenger</dc:title>
          </cc:Agent>
        </dc:publisher>
        <dc:subject>
          <rdf:Bag>
            <rdf:li>Misano</rdf:li>
            <rdf:li>Italy</rdf:li>
            <rdf:li>Variante del Parco</rdf:li>
            <rdf:li>Rio</rdf:li>
            <rdf:li>Quercia</rdf:li>
            <rdf:li>Tramonto</rdf:li>
            <rdf:li>Curvone</rdf:li>
            <rdf:li>Carro</rdf:li>
            <rdf:li>MotoGP</rdf:li>
            <rdf:li>Circuito Internazionale Santamonica</rdf:li>
          </rdf:Bag>
        </dc:subject>
        <dc:description>Created in Inkscape with data from Google Earth.</dc:description>
      </cc:Work>
      <cc:License
         rdf:about="http://creativecommons.org/licenses/by-sa/3.0/">
        <cc:permits
           rdf:resource="http://creativecommons.org/ns#Reproduction" />
        <cc:permits
           rdf:resource="http://creativecommons.org/ns#Distribution" />
        <cc:requires
           rdf:resource="http://creativecommons.org/ns#Notice" />
        <cc:requires
           rdf:resource="http://creativecommons.org/ns#Attribution" />
        <cc:permits
           rdf:resource="http://creativecommons.org/ns#DerivativeWorks" />
        <cc:requires
           rdf:resource="http://creativecommons.org/ns#ShareAlike" />
      </cc:License>
    </rdf:RDF>
  </metadata>
  <g
     inkscape:groupmode="layer"
     id="layer2"
     inkscape:label="at">
    <path
       style="fill:none;stroke:#aaaaaa;stroke-width:18.79999924;stroke-linecap:round;stroke-linejoin:miter;stroke-miterlimit:4;stroke-opacity:1;stroke-dasharray:none"
       d="M 483.81461,798.75636 342.67634,983.03734 c 0,0 -8.64003,10.63466 -21.57136,15.40811 -12.93132,4.77345 -30.81621,4.93065 -30.81621,4.93065"
       id="path3871"
       inkscape:connector-curvature="0"
       sodipodi:nodetypes="cczc" />
  </g>
  <g
     inkscape:label="Layer 1"
     inkscape:groupmode="layer"
     id="layer1"
     transform="translate(-863.67841,-658.36285)">
    <use
       x="0"
       y="0"
       xlink:href="#text5172"
       id="use5202"
       style="stroke:#ffffff;stroke-width:2;stroke-miterlimit:4;stroke-opacity:1;stroke-dasharray:none"
       width="744.09448"
       height="1052.3622"
       transform="translate(0.61632415,-2.3880893e-6)" />
    <use
       x="0"
       y="0"
       xlink:href="#text5178"
       id="use5204"
       style="stroke:white;stroke-width:2;stroke-miterlimit:4;stroke-dasharray:none;stroke-opacity:1"
       width="744.09448"
       height="1052.3622" />
    <use
       x="0"
       y="0"
       xlink:href="#text5182"
       id="use5206"
       style="stroke:white;stroke-width:2;stroke-miterlimit:4;stroke-dasharray:none;stroke-opacity:1"
       width="744.09448"
       height="1052.3622" />
    <use
       x="0"
       y="0"
       xlink:href="#text5186"
       id="use5208"
       style="stroke:white;stroke-width:2;stroke-miterlimit:4;stroke-dasharray:none;stroke-opacity:1"
       width="744.09448"
       height="1052.3622" />
    <use
       x="0"
       y="0"
       xlink:href="#text5190"
       id="use5210"
       style="stroke:white;stroke-width:2;stroke-miterlimit:4;stroke-dasharray:none;stroke-opacity:1"
       width="744.09448"
       height="1052.3622" />
    <use
       x="0"
       y="0"
       xlink:href="#text5194"
       id="use5212"
       style="stroke:white;stroke-width:2;stroke-miterlimit:4;stroke-dasharray:none;stroke-opacity:1"
       width="744.09448"
       height="1052.3622" />
    <use
       x="0"
       y="0"
       xlink:href="#text5198"
       id="use5214"
       style="stroke:white;stroke-width:2;stroke-miterlimit:4;stroke-dasharray:none;stroke-opacity:1"
       width="744.09448"
       height="1052.3622" />
    <path
       sodipodi:nodetypes="cssssssssssssss"
       id="path4992"
       d="M 2012.9688,834.6903 C 1994.2188,828.09656 1968.0039,821.44952 1951.5,819.61218 C 1921.8843,816.31514 1898.8601,814.11218 1870.5,814.11218 C 1862.0268,814.11218 1853.3223,816.50008 1845.5,819.61218 C 1837.8223,822.66675 1830.3033,827.27862 1824,832.61218 C 1818.3866,837.36195 1813.3685,843.36781 1809.75,849.86218 C 1791.0352,883.45114 1774.4006,918.43649 1757,952.86218 C 1739.6506,987.1865 1722.1241,1021.4328 1705.5,1056.1122 C 1671.7908,1126.4328 1637.3317,1196.6742 1606,1267.8622 C 1602.415,1276.0075 1602.3365,1285.3338 1600.75,1294.1122 C 1599.8365,1299.1671 1600.4709,1304.6471 1598.5,1309.3622 C 1587.3042,1336.1471 1575.1169,1363.047 1561.25,1388.6122 C 1554.8669,1400.3803 1546.8685,1411.8171 1537.75,1421.3622 C 1532.6185,1426.7337 1524.9925,1429.4888 1518.5,1433.3622 C 1510.3259,1438.2388 1498.9375,1443.5653 1490.6406,1446.7528"
       style="fill:none;fill-rule:evenodd;stroke:white;stroke-width:7;stroke-linecap:butt;stroke-linejoin:round;stroke-miterlimit:4;stroke-dasharray:none;stroke-opacity:1" />
    <path
       style="fill:none;fill-rule:evenodd;stroke:#c8c8c8;stroke-width:15;stroke-linecap:butt;stroke-linejoin:round;stroke-miterlimit:4;stroke-dasharray:none;stroke-opacity:1"
       d="M 2238.2095,861.84127 C 2247.3009,872.41544 2262.3607,886.19433 2259.0336,901.2465 C 2251.6689,934.56595 2241.4473,970.18486 2225.2364,1000.0213 C 2210.9047,1026.3992 2174.5949,1013.2973 2170.1663,988.65582"
       id="path4968"
       sodipodi:nodetypes="cssc" />
    <path
       style="fill:none;stroke:#fffa69;stroke-width:20.00000038;stroke-linecap:butt;stroke-linejoin:round;stroke-miterlimit:4;stroke-opacity:1;stroke-dasharray:none"
       d="m 1678.1991,1084.0658 c -53.202,112.1499 -105.3397,225.5909 -162.7055,334.9818 -10.8514,20.6927 -33.8805,28.25 -57.4255,28.4137 -29.069,0.2101 -66.4989,-2.1501 -78.6246,-3.009 -7.2757,-0.5154 -13.3465,0.7645 -18.6663,2.8764 -5.3199,2.112 -11.1577,7.9736 -14.3787,13.0479 -9.3041,14.6576 -11.0286,25.7771 -14.4998,37.9279 -6.5001,23.64 -8.9345,52.3128 -12.856,70.0614 -5.237,22.2259 -4.3715,31.2012 -13.5093,46.2867 -5.6103,9.262 -13.3927,17.1548 -52.5847,34.3572 -29.6353,13.0077 -55.607,16.4743 -66.156,15.8906 -83.557,-4.6234 -167.9596,-11.9349 -247.04906,-25.1236 -15.84092,-2.6416 -17.40575,-29.9414 -7.47727,-41.5737 15.38023,-18.0196 27.71436,-32.4631 44.56454,-49.0509 5.83762,-5.7467 16.91553,-9.5658 24.52549,-6.58 37.4874,14.7085 64.533,27.851 103.4854,38.8818 6.1106,1.7304 22.6252,0.5293 27.2173,-3.8882 100.2891,-96.4758 213.1547,-207.6071 289.8191,-297.8945 74.9824,-88.3066 144.5936,-198.013 211.1581,-305.37185 19.5855,-31.5884 18.4235,-62.08757 -13.9636,-78.36182 -21.4017,-10.75423 -69.0402,0.24549 -97.2982,12.56182 -108.9523,47.48721 -209.7269,112.23975 -315.5409,166.59365 -7.1287,3.6618 -32.3791,6.5981 -40.3773,6.2809 -61.0941,-2.423 -79.6439,-9.1084 -87.5825,-32.1394 -12.8993,-37.423 29.6375,-68.97081 49.8971,-77.32787 211.9093,-87.41257 426.3624,-175.63363 640.6528,-256.32091 13.4175,-5.05212 33.7088,-4.40411 47.8545,-2.09364 105.4906,17.23014 189.8425,33.73601 294.0064,57.42546 15.0737,3.42813 46.2238,20.03452 57.7245,30.20818 40.3417,35.68694 81.4239,66.07209 113.6545,107.97181 7.6482,9.9427 9.5762,27.2652 7.1783,39.7791 -10.3633,54.08367 -26.381,106.22287 -43.3683,156.72367 -7.692,22.8672 -53.5664,20.807 -58.0236,-4.4863 -11.607,-65.8666 -19.3357,-125.83751 -29.3109,-191.71737 -2.1718,-14.34316 -20.656,-33.7618 -34.3954,-39.18091 -86.3564,-34.06089 -170.882,-62.45018 -260.5083,-84.34364 -14.8561,-3.62897 -44.4327,-1.15081 -53.2381,16.74909 -45.8293,93.16266 -85.7032,183.43319 -132.1982,281.44453 z"
       id="path4457"
       sodipodi:nodetypes="ssssssccssssssssssssssssssssssssssssss"
       inkscape:connector-curvature="0" />
    <path
       style="fill:none;stroke:#fffa69;stroke-width:7.5;stroke-linecap:butt;stroke-linejoin:round;stroke-miterlimit:4;stroke-opacity:1;stroke-dasharray:none"
       d="m 2012.9688,834.6903 c -18.75,-6.59374 -44.9649,-13.24078 -61.4688,-15.07812 -29.6157,-3.29704 -52.6399,-5.5 -81,-5.5 -8.4732,0 -17.1777,2.3879 -25,5.5 -7.6777,3.05457 -15.1967,7.66644 -21.5,13 -5.6134,4.74977 -10.3293,10.93348 -14.25,17.25 -14.3567,23.12959 -15.3582,21.9254 -29.2164,51.57476 -18.9306,40.50175 -50.565,112.15136 -70.6755,154.67526 -33.3395,70.4966 -70.7832,149.2781 -99.5,210.0068 -3.8044,8.0452 -8.0216,19.2148 -9.6081,27.9932 -0.9135,5.0549 -0.2791,10.5349 -2.25,15.25 -11.1958,26.7849 -23.3831,53.6848 -37.25,79.25 -22.0389,39.4108 -34.0975,71.0334 -53.2275,98.3702 -6.7582,9.4291 -35.2366,51.8479 -43.2675,57.7659 -8.031,5.9179 -25.3202,7.9085 -40.2214,12.2155 -14.9012,4.307 -41.5563,8.7352 -54.2366,19.106 -12.6803,10.3708 -31.4325,24.653 -31.4325,24.653 l -36.9795,27.7346"
       id="path4990"
       sodipodi:nodetypes="csssssssssscczzzcc"
       inkscape:connector-curvature="0" />
    <g
       id="g5167"
       transform="translate(-13.188623,15.586554)">
      <path
         sodipodi:type="arc"
         style="opacity:1;fill:white;fill-opacity:1;fill-rule:nonzero;stroke:#181818;stroke-width:1.9130435;stroke-linecap:round;stroke-linejoin:round;marker:none;marker-start:none;marker-mid:none;marker-end:none;stroke-miterlimit:4;stroke-dasharray:none;stroke-dashoffset:66;stroke-opacity:1;visibility:visible;display:inline;overflow:visible;enable-background:accumulate"
         id="path5165"
         sodipodi:cx="1720.5159"
         sodipodi:cy="814.96698"
         sodipodi:rx="26.377247"
         sodipodi:ry="26.377247"
         d="m 1746.8931,814.96698 c 0,14.56775 -11.8095,26.37725 -26.3772,26.37725 -14.5678,0 -26.3773,-11.8095 -26.3773,-26.37725 0,-14.56775 11.8095,-26.37725 26.3773,-26.37725 14.5677,0 26.3772,11.8095 26.3772,26.37725 z"
         transform="matrix(1.0454545,0,0,1.0454545,-311.32885,535.12436)" />
      <text
         id="text4996"
         y="1406.0571"
         x="1473.5289"
         style="font-size:56px;font-style:normal;font-weight:normal;writing-mode:lr-tb;fill:black;fill-opacity:1;stroke:none;stroke-width:1px;stroke-linecap:butt;stroke-linejoin:miter;stroke-opacity:1;font-family:Times New Roman"
         xml:space="preserve"><tspan
           y="1406.0571"
           x="1473.5289"
           id="tspan4998"
           sodipodi:role="line">1</tspan></text>
    </g>
    <g
       id="g5160"
       transform="translate(5.9948286,20.382417)">
      <path
         sodipodi:type="arc"
         style="opacity:1;fill:white;fill-opacity:1;fill-rule:nonzero;stroke:#181818;stroke-width:1.9130435;stroke-linecap:round;stroke-linejoin:round;marker:none;marker-start:none;marker-mid:none;marker-end:none;stroke-miterlimit:4;stroke-dasharray:none;stroke-dashoffset:66;stroke-opacity:1;visibility:visible;display:inline;overflow:visible;enable-background:accumulate"
         id="path5158"
         sodipodi:cx="1720.5159"
         sodipodi:cy="814.96698"
         sodipodi:rx="26.377247"
         sodipodi:ry="26.377247"
         d="m 1746.8931,814.96698 c 0,14.56775 -11.8095,26.37725 -26.3772,26.37725 -14.5678,0 -26.3773,-11.8095 -26.3773,-26.37725 0,-14.56775 11.8095,-26.37725 26.3773,-26.37725 14.5677,0 26.3772,11.8095 26.3772,26.37725 z"
         transform="matrix(1.0454545,0,0,1.0454545,-422.05761,613.05697)" />
      <text
         id="text5000"
         y="1483.9897"
         x="1363.224"
         style="font-size:56px;font-style:normal;font-weight:normal;writing-mode:lr-tb;fill:black;fill-opacity:1;stroke:none;stroke-width:1px;stroke-linecap:butt;stroke-linejoin:miter;stroke-opacity:1;font-family:Times New Roman"
         xml:space="preserve"><tspan
           y="1483.9897"
           x="1363.224"
           id="tspan5002"
           sodipodi:role="line">2</tspan></text>
    </g>
    <g
       id="g5153"
       transform="translate(56.853084,18.751594)">
      <path
         sodipodi:type="arc"
         style="fill:#ffffff;fill-opacity:1;fill-rule:nonzero;stroke:#181818;stroke-width:1.9130435;stroke-linecap:round;stroke-linejoin:round;stroke-miterlimit:4;stroke-opacity:1;stroke-dasharray:none;stroke-dashoffset:66;marker:none;visibility:visible;display:inline;overflow:visible;enable-background:accumulate"
         id="path5151"
         sodipodi:cx="1720.5159"
         sodipodi:cy="814.96698"
         sodipodi:rx="26.377247"
         sodipodi:ry="26.377247"
         d="m 1746.8931,814.96698 c 0,14.56775 -11.8095,26.37725 -26.3772,26.37725 -14.5678,0 -26.3773,-11.8095 -26.3773,-26.37725 0,-14.56775 11.8095,-26.37725 26.3773,-26.37725 14.5677,0 26.3772,11.8095 26.3772,26.37725 z"
         transform="matrix(1.0454545,0,0,1.0454545,-507.81298,771.64865)" />
      <text
         id="text5004"
         y="1642.2533"
         x="1278.0975"
         style="font-size:56px;font-style:normal;font-weight:normal;writing-mode:lr-tb;fill:#fffa69;fill-opacity:1;stroke:none;font-family:Times New Roman"
         xml:space="preserve"><tspan
           y="1642.2533"
           x="1278.0975"
           id="tspan5006"
           sodipodi:role="line">3</tspan></text>
    </g>
    <g
       id="g5146"
       transform="translate(-28.636894,38.597553)">
      <path
         sodipodi:type="arc"
         style="opacity:1;fill:white;fill-opacity:1;fill-rule:nonzero;stroke:#181818;stroke-width:1.9130435;stroke-linecap:round;stroke-linejoin:round;marker:none;marker-start:none;marker-mid:none;marker-end:none;stroke-miterlimit:4;stroke-dasharray:none;stroke-dashoffset:66;stroke-opacity:1;visibility:visible;display:inline;overflow:visible;enable-background:accumulate"
         id="path5144"
         sodipodi:cx="1720.5159"
         sodipodi:cy="814.96698"
         sodipodi:rx="26.377247"
         sodipodi:ry="26.377247"
         d="m 1746.8931,814.96698 c 0,14.56775 -11.8095,26.37725 -26.3772,26.37725 -14.5678,0 -26.3773,-11.8095 -26.3773,-26.37725 0,-14.56775 11.8095,-26.37725 26.3773,-26.37725 14.5677,0 26.3772,11.8095 26.3772,26.37725 z"
         transform="matrix(1.0454545,0,0,1.0454545,-872.84136,679.00021)" />
      <text
         id="text5008"
         y="1549.933"
         x="912.4129"
         style="font-size:56px;font-style:normal;font-weight:normal;writing-mode:lr-tb;fill:black;fill-opacity:1;stroke:none;stroke-width:1px;stroke-linecap:butt;stroke-linejoin:miter;stroke-opacity:1;font-family:Times New Roman"
         xml:space="preserve"><tspan
           y="1549.933"
           x="912.4129"
           id="tspan5010"
           sodipodi:role="line">4</tspan></text>
    </g>
    <g
       id="g5139"
       transform="translate(-8.3927601,17.984486)">
      <path
         sodipodi:type="arc"
         style="opacity:1;fill:white;fill-opacity:1;fill-rule:nonzero;stroke:#181818;stroke-width:1.9130435;stroke-linecap:round;stroke-linejoin:round;marker:none;marker-start:none;marker-mid:none;marker-end:none;stroke-miterlimit:4;stroke-dasharray:none;stroke-dashoffset:66;stroke-opacity:1;visibility:visible;display:inline;overflow:visible;enable-background:accumulate"
         id="path5137"
         sodipodi:cx="1720.5159"
         sodipodi:cy="814.96698"
         sodipodi:rx="26.377247"
         sodipodi:ry="26.377247"
         d="m 1746.8931,814.96698 c 0,14.56775 -11.8095,26.37725 -26.3772,26.37725 -14.5678,0 -26.3773,-11.8095 -26.3773,-26.37725 0,-14.56775 11.8095,-26.37725 26.3773,-26.37725 14.5677,0 26.3772,11.8095 26.3772,26.37725 z"
         transform="matrix(1.0454545,0,0,1.0454545,-792.48333,628.15561)" />
      <text
         id="text5012"
         y="1498.3774"
         x="992.74359"
         style="font-size:56px;font-style:normal;font-weight:normal;writing-mode:lr-tb;fill:black;fill-opacity:1;stroke:none;stroke-width:1px;stroke-linecap:butt;stroke-linejoin:miter;stroke-opacity:1;font-family:Times New Roman"
         xml:space="preserve"><tspan
           y="1498.3774"
           x="992.74359"
           id="tspan5014"
           sodipodi:role="line">5</tspan></text>
    </g>
    <g
       id="g5132"
       transform="translate(-14.387589,19.183452)">
      <path
         sodipodi:type="arc"
         style="opacity:1;fill:white;fill-opacity:1;fill-rule:nonzero;stroke:#181818;stroke-width:1.9130435;stroke-linecap:round;stroke-linejoin:round;marker:none;marker-start:none;marker-mid:none;marker-end:none;stroke-miterlimit:4;stroke-dasharray:none;stroke-dashoffset:66;stroke-opacity:1;visibility:visible;display:inline;overflow:visible;enable-background:accumulate"
         id="path5130"
         sodipodi:cx="1720.5159"
         sodipodi:cy="814.96698"
         sodipodi:rx="26.377247"
         sodipodi:ry="26.377247"
         d="m 1746.8931,814.96698 c 0,14.56775 -11.8095,26.37725 -26.3772,26.37725 -14.5678,0 -26.3773,-11.8095 -26.3773,-26.37725 0,-14.56775 11.8095,-26.37725 26.3773,-26.37725 14.5677,0 26.3772,11.8095 26.3772,26.37725 z"
         transform="matrix(1.0454545,0,0,1.0454545,-674.3557,663.74179)" />
      <text
         id="text5016"
         y="1534.3464"
         x="1110.2423"
         style="font-size:56px;font-style:normal;font-weight:normal;writing-mode:lr-tb;fill:black;fill-opacity:1;stroke:none;stroke-width:1px;stroke-linecap:butt;stroke-linejoin:miter;stroke-opacity:1;font-family:Times New Roman"
         xml:space="preserve"><tspan
           y="1534.3464"
           x="1110.2423"
           id="tspan5018"
           sodipodi:role="line">6</tspan></text>
    </g>
    <g
       id="g5125">
      <path
         sodipodi:type="arc"
         style="opacity:1;fill:white;fill-opacity:1;fill-rule:nonzero;stroke:#181818;stroke-width:1.9130435;stroke-linecap:round;stroke-linejoin:round;marker:none;marker-start:none;marker-mid:none;marker-end:none;stroke-miterlimit:4;stroke-dasharray:none;stroke-dashoffset:66;stroke-opacity:1;visibility:visible;display:inline;overflow:visible;enable-background:accumulate"
         id="path5123"
         sodipodi:cx="1720.5159"
         sodipodi:cy="814.96698"
         sodipodi:rx="26.377247"
         sodipodi:ry="26.377247"
         d="m 1746.8931,814.96698 c 0,14.56775 -11.8095,26.37725 -26.3772,26.37725 -14.5678,0 -26.3773,-11.8095 -26.3773,-26.37725 0,-14.56775 11.8095,-26.37725 26.3773,-26.37725 14.5677,0 26.3772,11.8095 26.3772,26.37725 z"
         transform="matrix(1.0454545,0,0,1.0454545,-402.51867,389.61618)" />
      <text
         id="text5020"
         y="1259.7833"
         x="1382.4075"
         style="font-size:56px;font-style:normal;font-weight:normal;writing-mode:lr-tb;fill:black;fill-opacity:1;stroke:none;stroke-width:1px;stroke-linecap:butt;stroke-linejoin:miter;stroke-opacity:1;font-family:Times New Roman"
         xml:space="preserve"><tspan
           y="1259.7833"
           x="1382.4075"
           id="tspan5022"
           sodipodi:role="line">7</tspan></text>
    </g>
    <g
       id="g5118"
       transform="translate(-8.3927601,22.780349)">
      <path
         sodipodi:type="arc"
         style="opacity:1;fill:white;fill-opacity:1;fill-rule:nonzero;stroke:#181818;stroke-width:1.9130435;stroke-linecap:round;stroke-linejoin:round;marker:none;marker-start:none;marker-mid:none;marker-end:none;stroke-miterlimit:4;stroke-dasharray:none;stroke-dashoffset:66;stroke-opacity:1;visibility:visible;display:inline;overflow:visible;enable-background:accumulate"
         id="path5116"
         sodipodi:cx="1720.5159"
         sodipodi:cy="814.96698"
         sodipodi:rx="26.377247"
         sodipodi:ry="26.377247"
         d="m 1746.8931,814.96698 c 0,14.56775 -11.8095,26.37725 -26.3772,26.37725 -14.5678,0 -26.3773,-11.8095 -26.3773,-26.37725 0,-14.56775 11.8095,-26.37725 26.3773,-26.37725 14.5677,0 26.3772,11.8095 26.3772,26.37725 z"
         transform="matrix(1.0454545,0,0,1.0454545,-190.01464,58.264067)" />
      <text
         id="text5024"
         y="928.86871"
         x="1594.6244"
         style="font-size:56px;font-style:normal;font-weight:normal;writing-mode:lr-tb;fill:black;fill-opacity:1;stroke:none;stroke-width:1px;stroke-linecap:butt;stroke-linejoin:miter;stroke-opacity:1;font-family:Times New Roman"
         xml:space="preserve"><tspan
           y="928.86871"
           x="1594.6244"
           id="tspan5026"
           sodipodi:role="line">8</tspan></text>
    </g>
    <g
       id="g5111"
       transform="translate(0,3.5968972)">
      <path
         sodipodi:type="arc"
         style="opacity:1;fill:white;fill-opacity:1;fill-rule:nonzero;stroke:#181818;stroke-width:1.9130435;stroke-linecap:round;stroke-linejoin:round;marker:none;marker-start:none;marker-mid:none;marker-end:none;stroke-miterlimit:4;stroke-dasharray:none;stroke-dashoffset:66;stroke-opacity:1;visibility:visible;display:inline;overflow:visible;enable-background:accumulate"
         id="path5109"
         sodipodi:cx="1720.5159"
         sodipodi:cy="814.96698"
         sodipodi:rx="26.377247"
         sodipodi:ry="26.377247"
         d="m 1746.8931,814.96698 c 0,14.56775 -11.8095,26.37725 -26.3772,26.37725 -14.5678,0 -26.3773,-11.8095 -26.3773,-26.37725 0,-14.56775 11.8095,-26.37725 26.3773,-26.37725 14.5677,0 26.3772,11.8095 26.3772,26.37725 z"
         transform="matrix(1.0454545,0,0,1.0454545,-590.64684,258.54599)" />
      <text
         id="text5028"
         y="1129.0959"
         x="1194.1699"
         style="font-size:56px;font-style:normal;font-weight:normal;writing-mode:lr-tb;fill:black;fill-opacity:1;stroke:none;stroke-width:1px;stroke-linecap:butt;stroke-linejoin:miter;stroke-opacity:1;font-family:Times New Roman"
         xml:space="preserve"><tspan
           y="1129.0959"
           x="1194.1699"
           id="tspan5030"
           sodipodi:role="line">9</tspan></text>
    </g>
    <g
       id="g5104"
       transform="translate(-13.188623,17.984486)">
      <path
         sodipodi:type="arc"
         style="opacity:1;fill:white;fill-opacity:1;fill-rule:nonzero;stroke:#181818;stroke-width:1.9130435;stroke-linecap:round;stroke-linejoin:round;marker:none;marker-start:none;marker-mid:none;marker-end:none;stroke-miterlimit:4;stroke-dasharray:none;stroke-dashoffset:66;stroke-opacity:1;visibility:visible;display:inline;overflow:visible;enable-background:accumulate"
         id="path5102"
         sodipodi:cx="1720.5159"
         sodipodi:cy="814.96698"
         sodipodi:rx="26.377247"
         sodipodi:ry="26.377247"
         d="m 1746.8931,814.96698 c 0,14.56775 -11.8095,26.37725 -26.3772,26.37725 -14.5678,0 -26.3773,-11.8095 -26.3773,-26.37725 0,-14.56775 11.8095,-26.37725 26.3773,-26.37725 14.5677,0 26.3772,11.8095 26.3772,26.37725 z"
         transform="matrix(1.0454545,0,0,1.0454545,-750.51598,192.54831)" />
      <text
         id="text5032"
         y="1063.153"
         x="1017.9219"
         style="font-size:56px;font-style:normal;font-weight:normal;writing-mode:lr-tb;fill:black;fill-opacity:1;stroke:none;stroke-width:1px;stroke-linecap:butt;stroke-linejoin:miter;stroke-opacity:1;font-family:Times New Roman"
         xml:space="preserve"><tspan
           y="1063.153"
           x="1017.9219"
           id="tspan5034"
           sodipodi:role="line">10</tspan></text>
    </g>
    <g
       id="g5097"
       transform="translate(135.94449,-56.351522)">
      <path
         sodipodi:type="arc"
         style="opacity:1;fill:white;fill-opacity:1;fill-rule:nonzero;stroke:#181818;stroke-width:1.9130435;stroke-linecap:round;stroke-linejoin:round;marker:none;marker-start:none;marker-mid:none;marker-end:none;stroke-miterlimit:4;stroke-dasharray:none;stroke-dashoffset:66;stroke-opacity:1;visibility:visible;display:inline;overflow:visible;enable-background:accumulate"
         id="path5095"
         sodipodi:cx="1720.5159"
         sodipodi:cy="814.96698"
         sodipodi:rx="26.377247"
         sodipodi:ry="26.377247"
         d="m 1746.8931,814.96698 c 0,14.56775 -11.8095,26.37725 -26.3772,26.37725 -14.5678,0 -26.3773,-11.8095 -26.3773,-26.37725 0,-14.56775 11.8095,-26.37725 26.3773,-26.37725 14.5677,0 26.3772,11.8095 26.3772,26.37725 z"
         transform="matrix(1.0454545,0,0,1.0454545,-32.357532,-108.72031)" />
      <text
         id="text5036"
         y="762.21246"
         x="1738.5002"
         style="font-size:56px;font-style:normal;font-weight:normal;writing-mode:lr-tb;fill:black;fill-opacity:1;stroke:none;stroke-width:1px;stroke-linecap:butt;stroke-linejoin:miter;stroke-opacity:1;font-family:Times New Roman"
         xml:space="preserve"><tspan
           y="762.21246"
           x="1738.5002"
           id="tspan5038"
           sodipodi:role="line">11</tspan></text>
    </g>
    <g
       id="g5090"
       transform="translate(-19.183452,15.586554)">
      <path
         sodipodi:type="arc"
         style="opacity:1;fill:white;fill-opacity:1;fill-rule:nonzero;stroke:#181818;stroke-width:1.9130435;stroke-linecap:round;stroke-linejoin:round;marker:none;marker-start:none;marker-mid:none;marker-end:none;stroke-miterlimit:4;stroke-dasharray:none;stroke-dashoffset:66;stroke-opacity:1;visibility:visible;display:inline;overflow:visible;enable-background:accumulate"
         id="path5088"
         sodipodi:cx="1720.5159"
         sodipodi:cy="814.96698"
         sodipodi:rx="26.377247"
         sodipodi:ry="26.377247"
         d="m 1746.8931,814.96698 c 0,14.56775 -11.8095,26.37725 -26.3772,26.37725 -14.5678,0 -26.3773,-11.8095 -26.3773,-26.37725 0,-14.56775 11.8095,-26.37725 26.3773,-26.37725 14.5677,0 26.3772,11.8095 26.3772,26.37725 z"
         transform="matrix(1.0454545,0,0,1.0454545,382.34266,-123.10788)" />
      <text
         id="text5040"
         y="747.82489"
         x="2150.9446"
         style="font-size:56px;font-style:normal;font-weight:normal;writing-mode:lr-tb;fill:black;fill-opacity:1;stroke:none;stroke-width:1px;stroke-linecap:butt;stroke-linejoin:miter;stroke-opacity:1;font-family:Times New Roman"
         xml:space="preserve"><tspan
           y="747.82489"
           x="2150.9446"
           id="tspan5042"
           sodipodi:role="line">12</tspan></text>
    </g>
    <g
       id="g5083"
       transform="translate(-53.400191,-68.940695)">
      <path
         sodipodi:type="arc"
         style="opacity:1;fill:white;fill-opacity:1;fill-rule:nonzero;stroke:#181818;stroke-width:1.9130435;stroke-linecap:round;stroke-linejoin:round;marker:none;marker-start:none;marker-mid:none;marker-end:none;stroke-miterlimit:4;stroke-dasharray:none;stroke-dashoffset:66;stroke-opacity:1;visibility:visible;display:inline;overflow:visible;enable-background:accumulate"
         id="path5081"
         sodipodi:cx="1720.5159"
         sodipodi:cy="814.96698"
         sodipodi:rx="26.377247"
         sodipodi:ry="26.377247"
         d="m 1746.8931,814.96698 c 0,14.56775 -11.8095,26.37725 -26.3772,26.37725 -14.5678,0 -26.3773,-11.8095 -26.3773,-26.37725 0,-14.56775 11.8095,-26.37725 26.3773,-26.37725 14.5677,0 26.3772,11.8095 26.3772,26.37725 z"
         transform="matrix(1.0454545,0,0,1.0454545,540.64296,55.866118)" />
      <text
         id="text5044"
         y="926.47076"
         x="2310.407"
         style="font-size:56px;font-style:normal;font-weight:normal;writing-mode:lr-tb;fill:black;fill-opacity:1;stroke:none;stroke-width:1px;stroke-linecap:butt;stroke-linejoin:miter;stroke-opacity:1;font-family:Times New Roman"
         xml:space="preserve"><tspan
           y="926.47076"
           x="2310.407"
           id="tspan5046"
           sodipodi:role="line">13</tspan></text>
    </g>
    <g
       id="g5076"
       transform="translate(25.17828,19.183452)">
      <path
         sodipodi:type="arc"
         style="opacity:1;fill:white;fill-opacity:1;fill-rule:nonzero;stroke:#181818;stroke-width:1.9130435;stroke-linecap:round;stroke-linejoin:round;marker:none;marker-start:none;marker-mid:none;marker-end:none;stroke-miterlimit:4;stroke-dasharray:none;stroke-dashoffset:66;stroke-opacity:1;visibility:visible;display:inline;overflow:visible;enable-background:accumulate"
         id="path5074"
         sodipodi:cx="1720.5159"
         sodipodi:cy="814.96698"
         sodipodi:rx="26.377247"
         sodipodi:ry="26.377247"
         d="m 1746.8931,814.96698 c 0,14.56775 -11.8095,26.37725 -26.3772,26.37725 -14.5678,0 -26.3773,-11.8095 -26.3773,-26.37725 0,-14.56775 11.8095,-26.37725 26.3773,-26.37725 14.5677,0 26.3772,11.8095 26.3772,26.37725 z"
         transform="matrix(1.0454545,0,0,1.0454545,393.3246,295.33114)" />
      <text
         id="text5048"
         y="1166.2639"
         x="2161.7351"
         style="font-size:56px;font-style:normal;font-weight:normal;writing-mode:lr-tb;fill:black;fill-opacity:1;stroke:none;stroke-width:1px;stroke-linecap:butt;stroke-linejoin:miter;stroke-opacity:1;font-family:Times New Roman"
         xml:space="preserve"><tspan
           y="1166.2639"
           x="2161.7351"
           id="tspan5050"
           sodipodi:role="line">14</tspan></text>
    </g>





  </g>
</svg>
