<?xml version="1.0" encoding="UTF-8" standalone="no"?>
<!-- Created with Inkscape (http://www.inkscape.org/) -->

<svg
   width="1450.8616"
   height="1016.9352"
   id="svg4434"
   sodipodi:version="0.32"
   inkscape:version="1.4.3 (fcd0343856, 2026-01-01)"
   version="1.0"
   sodipodi:docname="San Marinov.svg"
   inkscape:output_extension="org.inkscape.output.svg.inkscape"
   inkscape:export-filename="D:\Images\Race Tracks\Misano World Circuit.png"
   inkscape:export-xdpi="90.015755"
   inkscape:export-ydpi="90.015755"
   xmlns:inkscape="http://www.inkscape.org/namespaces/inkscape"
   xmlns:sodipodi="http://sodipodi.sourceforge.net/DTD/sodipodi-0.dtd"
   xmlns="http://www.w3.org/2000/svg"
   xmlns:svg="http://www.w3.org/2000/svg">
  <defs
     id="defs1" />
  <sodipodi:namedview
     id="base"
     pagecolor="#ffffff"
     bordercolor="#ffffff"
     borderopacity="0.0"
     inkscape:pageopacity="0.0"
     inkscape:pageshadow="0"
     inkscape:zoom="0.40563058"
     inkscape:cx="673.02618"
     inkscape:cy="350.07223"
     inkscape:document-units="px"
     inkscape:current-layer="layer1"
     showgrid="false"
     inkscape:window-width="945"
     inkscape:window-height="707"
     inkscape:window-x="26"
     inkscape:window-y="23"
     showguides="true"
     inkscape:guide-bbox="true"
     showborder="false"
     inkscape:showpageshadow="false"
     inkscape:window-maximized="0"
     inkscape:pagecheckerboard="0"
     inkscape:deskcolor="#d1d1d1" />
  <g
     inkscape:groupmode="layer"
     id="layer2"
     inkscape:label="at" />
  <g
     inkscape:label="Layer 1"
     inkscape:groupmode="layer"
     id="layer1"
     transform="translate(-863.67841,-658.36285)">
    <path
       style="fill:none;stroke:#fffa69;stroke-width:20;stroke-linecap:butt;stroke-linejoin:round;stroke-miterlimit:4;stroke-dasharray:none;stroke-opacity:1"
       d="m 1678.1991,1292.5017 c -53.202,-112.1499 -105.3397,-225.5909 -162.7055,-334.98184 -10.8514,-20.6927 -33.8805,-28.25 -57.4255,-28.4137 -29.069,-0.2101 -66.4989,2.1501 -78.6246,3.009 -7.2757,0.5154 -13.3465,-0.7645 -18.6663,-2.8764 -5.3199,-2.112 -11.1577,-7.9736 -14.3787,-13.0479 -9.3041,-14.6576 -11.0286,-25.7771 -14.4998,-37.9279 -6.5001,-23.64 -8.9345,-52.3128 -12.856,-70.0614 -5.237,-22.2259 -4.3715,-31.2012 -13.5093,-46.2867 -5.6103,-9.262 -13.3927,-17.1548 -52.5847,-34.3572 -29.6353,-13.0077 -55.607,-16.4743 -66.156,-15.8906 -83.557,4.6234 -167.9596,11.9349 -247.04906,25.1236 -15.84092,2.6416 -17.40575,29.9414 -7.47727,41.5737 15.38023,18.0196 27.71436,32.4631 44.56454,49.0509 5.83762,5.7467 16.91553,9.5658 24.52549,6.58 37.4874,-14.7085 64.533,-27.851 103.4854,-38.8818 6.1106,-1.7304 22.6252,-0.5293 27.2173,3.8882 100.2891,96.4758 213.1547,207.60714 289.8191,297.89454 74.9824,88.3066 144.5936,198.013 211.1581,305.3718 19.5855,31.5884 18.4235,62.0876 -13.9636,78.3618 -21.4017,10.7543 -69.0402,-0.2455 -97.2982,-12.5618 -108.9523,-47.4872 -209.7269,-112.2397 -315.5409,-166.5936 -7.1287,-3.6618 -32.3791,-6.5981 -40.3773,-6.2809 -61.0941,2.423 -79.6439,9.1084 -87.5825,32.1394 -12.8993,37.423 29.6375,68.9708 49.8971,77.3278 211.9093,87.4126 426.3624,175.6337 640.6528,256.3209 13.4175,5.0522 33.7088,4.4041 47.8545,2.0937 105.4906,-17.2302 189.8425,-33.736 294.0064,-57.4255 15.0737,-3.4281 46.2238,-20.0345 57.7245,-30.2082 40.3417,-35.6869 81.4239,-66.0721 113.6545,-107.9718 7.6482,-9.9427 9.5762,-27.2652 7.1783,-39.7791 -10.3633,-54.0836 -26.381,-106.2228 -43.3683,-156.7236 -7.692,-22.8672 -53.5664,-20.807 -58.0236,4.4863 -11.607,65.8666 -19.3357,125.8375 -29.3109,191.7173 -2.1718,14.3432 -20.656,33.7618 -34.3954,39.1809 -86.3564,34.0609 -170.882,62.4502 -260.5083,84.3437 -14.8561,3.6289 -44.4327,1.1508 -53.2381,-16.7491 -45.8293,-93.1627 -85.7032,-183.4332 -132.1982,-281.4445 z"
       id="path4457"
       sodipodi:nodetypes="ssssssccssssssssssssssssssssssssssssss"
       inkscape:connector-curvature="0" />
  </g>
</svg>
