<?xml version="1.0" encoding="UTF-8" standalone="no"?>
<!-- Created with Inkscape (http://www.inkscape.org/) -->

<svg
   version="1.1"
   width="1215.3156"
   height="1117.5112"
   id="svg2"
   sodipodi:docname="Jerez.svg"
   inkscape:version="1.1.1 (3bf5ae0d25, 2021-09-20)"
   xmlns:inkscape="http://www.inkscape.org/namespaces/inkscape"
   xmlns:sodipodi="http://sodipodi.sourceforge.net/DTD/sodipodi-0.dtd"
   xmlns="http://www.w3.org/2000/svg"
   xmlns:svg="http://www.w3.org/2000/svg"
   xmlns:rdf="http://www.w3.org/1999/02/22-rdf-syntax-ns#"
   xmlns:cc="http://creativecommons.org/ns#"
   xmlns:dc="http://purl.org/dc/elements/1.1/">
  <sodipodi:namedview
     id="namedview223"
     pagecolor="#ffffff"
     bordercolor="#666666"
     borderopacity="1.0"
     inkscape:pageshadow="2"
     inkscape:pageopacity="0.0"
     inkscape:pagecheckerboard="0"
     showgrid="false"
     inkscape:zoom="0.8765587"
     inkscape:cx="779.75383"
     inkscape:cy="413.54903"
     inkscape:window-width="1366"
     inkscape:window-height="705"
     inkscape:window-x="-8"
     inkscape:window-y="-8"
     inkscape:window-maximized="1"
     inkscape:current-layer="g4647"
     fit-margin-top="0"
     fit-margin-left="0"
     fit-margin-right="0"
     fit-margin-bottom="0" />
  <defs
     id="defs4" />
  <metadata
     id="metadata7">
    <rdf:RDF>
      <cc:Work
         rdf:about="">
        <dc:format>image/svg+xml</dc:format>
        <dc:type
           rdf:resource="http://purl.org/dc/dcmitype/StillImage" />
        <cc:license
           rdf:resource="http://creativecommons.org/licenses/by-sa/4.0/" />
      </cc:Work>
      <cc:License
         rdf:about="http://creativecommons.org/licenses/by-sa/4.0/">
        <cc:permits
           rdf:resource="http://creativecommons.org/ns#Reproduction" />
        <cc:permits
           rdf:resource="http://creativecommons.org/ns#Distribution" />
        <cc:requires
           rdf:resource="http://creativecommons.org/ns#Notice" />
        <cc:requires
           rdf:resource="http://creativecommons.org/ns#Attribution" />
        <cc:permits
           rdf:resource="http://creativecommons.org/ns#DerivativeWorks" />
        <cc:requires
           rdf:resource="http://creativecommons.org/ns#ShareAlike" />
      </cc:License>
    </rdf:RDF>
  </metadata>
  <g
     transform="translate(292.93927,30.378612)"
     id="layer1">
    <g
       id="g4647">
      <path
         d="M 446.55823,667.61442 C 429.01375,609.43346 400.51772,554.98948 378.24551,498.42341 319.80614,359.09499 259.2721,220.48414 202.1419,80.707229 190.87844,42.288591 232.17346,23.35312 263.91328,29.515353 c 54.62494,0.282949 109.54267,-2.062321 163.98376,-0.12902 41.77346,12.947962 19.07387,59.01673 -10.44268,71.023687 -34.36366,20.01642 -58.92506,57.68628 -51.043,98.44225 3.21564,52.76619 -3.16788,109.25376 22.25954,157.84861 23.31833,49.34076 80.0348,59.61302 128.93566,64.53611 83.87853,11.41352 164.73266,21.90356 246.15946,36.11176 72.72833,24.82915 78.71725,138.14795 16.28512,177.64058 C 619.2713,765.66789 458.49146,896.34644 297.71162,1027.025 c -28.69063,17.8551 -46.44548,5.9192 -50.6555,-14.8826 -3.08278,-15.23201 5.55677,-35.21775 13.56366,-51.74151 20.2913,-42.05349 49.20123,-98.77325 75.4143,-150.64201 9.69032,-35.93505 3.66116,-78.29504 -23.07725,-105.02663 C 275.70388,654.98067 236.01022,607.00893 196.36299,558.60429 152.56504,522.30475 87.1505,538.71081 55.407834,582.60077 27.49573,619.80718 20.269142,667.53397 2.793913,709.98528 c -14.009178,32.44904 -17.84675,71.17018 -42.854605,97.29955 -27.982438,20.07108 -58.072034,-0.36324 -79.681488,-19.14306 -19.61769,-18.87709 -57.01619,-29.21925 -53.50065,-61.99552 10.78055,-40.99089 35.84693,-76.8998 52.99142,-115.62028 24.315956,-46.43071 45.056809,-94.95539 71.794092,-139.96831 28.024925,-32.32986 72.972746,-39.58616 113.360304,-32.34143 34.739887,4.80294 70.786734,4.43835 105.098114,11.05844 4.76848,0.92004 7.99475,1.57018 11.98922,3.5128 3.99447,1.94262 8.3011,4.96452 11.1895,7.78222 20.10293,19.61078 35.48992,44.5141 54.49844,65.35664 48.84556,58.97998 96.17626,119.29977 145.99786,177.41648 24.82791,17.7238 61.57739,-4.60049 52.88211,-35.72839 z"
         id="path3164"
         style="fill:none;stroke:#fffa69;stroke-width:10;stroke-linecap:butt;stroke-linejoin:miter;stroke-miterlimit:4;stroke-dasharray:none;stroke-opacity:1" />
    </g>
  </g>
</svg>
