<?xml version="1.0" encoding="UTF-8" standalone="no"?>
<!-- Created with Inkscape (http://www.inkscape.org/) -->

<svg
   version="1.1"
   width="1215.3156"
   height="1117.5112"
   id="svg2"
   sodipodi:docname="Spainv.svg"
   inkscape:version="1.4.3 (fcd0343856, 2026-01-01)"
   xmlns:inkscape="http://www.inkscape.org/namespaces/inkscape"
   xmlns:sodipodi="http://sodipodi.sourceforge.net/DTD/sodipodi-0.dtd"
   xmlns="http://www.w3.org/2000/svg"
   xmlns:svg="http://www.w3.org/2000/svg">
  <sodipodi:namedview
     id="namedview223"
     pagecolor="#ffffff"
     bordercolor="#666666"
     borderopacity="1.0"
     inkscape:pageshadow="2"
     inkscape:pageopacity="0.0"
     inkscape:pagecheckerboard="0"
     showgrid="false"
     inkscape:zoom="0.8765587"
     inkscape:cx="779.75383"
     inkscape:cy="414.11944"
     inkscape:window-width="1210"
     inkscape:window-height="933"
     inkscape:window-x="0"
     inkscape:window-y="0"
     inkscape:window-maximized="1"
     inkscape:current-layer="g4647"
     fit-margin-top="0"
     fit-margin-left="0"
     fit-margin-right="0"
     fit-margin-bottom="0"
     inkscape:showpageshadow="2"
     inkscape:deskcolor="#d1d1d1" />
  <defs
     id="defs4" />
  <g
     transform="translate(292.93927,30.378612)"
     id="layer1">
    <g
       id="g4647">
      <path
         d="M 446.55823,396.44987 C 429.01375,454.63083 400.51772,509.07481 378.24551,565.64088 319.80614,704.9693 259.2721,843.58015 202.1419,983.35706 c -11.26346,38.41864 30.03156,57.35414 61.77138,51.19184 54.62494,-0.2829 109.54267,2.0624 163.98376,0.1291 41.77346,-12.948 19.07387,-59.01678 -10.44268,-71.02373 -34.36366,-20.01642 -58.92506,-57.68628 -51.043,-98.44225 3.21564,-52.76619 -3.16788,-109.25376 22.25954,-157.84861 23.31833,-49.34076 80.0348,-59.61302 128.93566,-64.53611 83.87853,-11.41352 164.73266,-21.90356 246.15946,-36.11176 72.72833,-24.82915 78.71725,-138.14795 16.28512,-177.64058 C 619.2713,298.3964 458.49146,167.71785 297.71162,37.039287 c -28.69063,-17.8551 -46.44548,-5.9192 -50.6555,14.8826 -3.08278,15.23201 5.55677,35.21775 13.56366,51.741513 20.2913,42.05349 49.20123,98.77325 75.4143,150.64201 9.69032,35.93505 3.66116,78.29504 -23.07725,105.02663 C 275.70388,409.08362 236.01022,457.05536 196.36299,505.46 152.56504,541.75954 87.1505,525.35348 55.407834,481.46352 27.49573,444.25711 20.269142,396.53032 2.793913,354.07901 c -14.009178,-32.44904 -17.84675,-71.17018 -42.854605,-97.29955 -27.982438,-20.07108 -58.072034,0.36324 -79.681488,19.14306 -19.61769,18.87709 -57.01619,29.21925 -53.50065,61.99552 10.78055,40.99089 35.84693,76.8998 52.99142,115.62028 24.315956,46.43071 45.056809,94.95539 71.794092,139.96831 28.024925,32.32986 72.972746,39.58616 113.360304,32.34143 34.739887,-4.80294 70.786734,-4.43835 105.098114,-11.05844 4.76848,-0.92004 7.99475,-1.57018 11.98922,-3.5128 3.99447,-1.94262 8.3011,-4.96452 11.1895,-7.78222 20.10293,-19.61078 35.48992,-44.5141 54.49844,-65.35664 48.84556,-58.97998 96.17626,-119.29977 145.99786,-177.41648 24.82791,-17.7238 61.57739,4.60049 52.88211,35.72839 z"
         id="path3164"
         style="fill:none;stroke:#fffa69;stroke-width:10;stroke-linecap:butt;stroke-linejoin:miter;stroke-miterlimit:4;stroke-dasharray:none;stroke-opacity:1" />
    </g>
  </g>
</svg>
