<?xml version="1.0" encoding="UTF-8" standalone="no"?>
<!-- Created with Inkscape (http://www.inkscape.org/) -->

<svg
   xmlns:dc="http://purl.org/dc/elements/1.1/"
   xmlns:cc="http://creativecommons.org/ns#"
   xmlns:rdf="http://www.w3.org/1999/02/22-rdf-syntax-ns#"
   xmlns:svg="http://www.w3.org/2000/svg"
   xmlns="http://www.w3.org/2000/svg"
   xmlns:xlink="http://www.w3.org/1999/xlink"
   xmlns:sodipodi="http://sodipodi.sourceforge.net/DTD/sodipodi-0.dtd"
   xmlns:inkscape="http://www.inkscape.org/namespaces/inkscape"
   width="1672.3146"
   height="763.87268"
   id="svg2383"
   sodipodi:version="0.32"
   inkscape:version="0.48.2 r9819"
   version="1.0"
   sodipodi:docname="Buriram fin.svg"
   inkscape:output_extension="org.inkscape.output.svg.inkscape"
   inkscape:export-filename="D:\Images\Race Tracks\Donington as of 2006.png"
   inkscape:export-xdpi="90.015755"
   inkscape:export-ydpi="90.015755">
  <defs
     id="defs2385">
    <clipPath
       clipPathUnits="userSpaceOnUse"
       id="clipPath3490">
      <rect
         style="fill:#006a00;fill-opacity:1;fill-rule:nonzero;stroke:none"
         id="rect3492"
         width="1511.7875"
         height="1003.7479"
         x="683.1405"
         y="104.1039"
         transform="matrix(-0.7183395,0.6956928,-0.6956928,-0.7183395,0,0)" />
    </clipPath>
    <pattern
       patternUnits="userSpaceOnUse"
       width="10.793857"
       height="10.773841"
       patternTransform="matrix(-0.5630234,-0.534067,0.534067,-0.5630234,1593.7246,910.57043)"
       id="pattern4256">
      <g
         id="g4248"
         transform="matrix(0.5878912,6.0987118e-3,-6.0987118e-3,0.5878912,-595.3809,-720.7077)">
        <rect
           style="opacity:1;fill:black;fill-opacity:1;stroke:none;stroke-width:0.5;stroke-linecap:round;stroke-linejoin:round;stroke-miterlimit:4;stroke-dasharray:none;stroke-dashoffset:0;stroke-opacity:1"
           id="rect4250"
           width="18.172573"
           height="18.095789"
           x="1025.5348"
           y="1215.2814" />
        <rect
           style="opacity:1;fill:white;fill-opacity:1;stroke:none;stroke-width:0.5;stroke-linecap:round;stroke-linejoin:round;stroke-miterlimit:4;stroke-dasharray:none;stroke-dashoffset:0;stroke-opacity:1"
           id="rect4252"
           width="9.0746527"
           height="9.0746527"
           x="1025.5348"
           y="1215.2814" />
        <rect
           style="opacity:1;fill:white;fill-opacity:1;stroke:none;stroke-width:0.5;stroke-linecap:round;stroke-linejoin:round;stroke-miterlimit:4;stroke-dasharray:none;stroke-dashoffset:0;stroke-opacity:1"
           id="rect4254"
           width="9.0746527"
           height="9.0746527"
           x="1034.6412"
           y="1224.3444" />
      </g>
    </pattern>
    <pattern
       inkscape:collect="always"
       xlink:href="#pattern4256"
       id="pattern4264"
       patternTransform="matrix(-0.7760302,9.7935943e-4,-9.7935943e-4,-0.7760302,-1599.8308,380.49)" />
    <clipPath
       clipPathUnits="userSpaceOnUse"
       id="clipPath3494">
      <rect
         style="fill:#006a00;fill-opacity:1;fill-rule:nonzero;stroke:none"
         id="rect3496"
         width="2168.1926"
         height="1468.4177"
         x="-4232.8457"
         y="-2372.1296"
         transform="matrix(-0.9472965,-0.3203582,0.9519016,-0.3064038,0,0)" />
    </clipPath>
    <clipPath
       clipPathUnits="userSpaceOnUse"
       id="clipPath9716">
      <path
         id="path9718"
         d="M 871.13547,932.36346 C 1314.8756,1345.252 1758.6155,1758.1404 2202.3556,2171.029 2375.7787,1984.6474 2549.2018,1798.266 2722.6249,1611.8845 2278.8848,1198.996 1835.1448,786.10758 1391.4047,373.21904 1217.9816,559.60052 1044.5586,745.98194 871.13547,932.36346 z"
         style="fill:#6a6a6a;fill-opacity:1;fill-rule:nonzero;stroke:#010101;stroke-width:0.9426257;stroke-linecap:round;stroke-linejoin:round;stroke-miterlimit:4;stroke-opacity:1;stroke-dasharray:none;stroke-dashoffset:0"
         inkscape:connector-curvature="0" />
    </clipPath>
    <inkscape:perspective
       sodipodi:type="inkscape:persp3d"
       inkscape:vp_x="0 : 526.18109 : 1"
       inkscape:vp_y="0 : 1000 : 0"
       inkscape:vp_z="744.09448 : 526.18109 : 1"
       inkscape:persp3d-origin="372.04724 : 350.78739 : 1"
       id="perspective2391" />
    <inkscape:perspective
       id="perspective2400"
       inkscape:persp3d-origin="372.04724 : 350.78739 : 1"
       inkscape:vp_z="744.09448 : 526.18109 : 1"
       inkscape:vp_y="0 : 1000 : 0"
       inkscape:vp_x="0 : 526.18109 : 1"
       sodipodi:type="inkscape:persp3d" />
    <inkscape:perspective
       id="perspective3203"
       inkscape:persp3d-origin="372.04724 : 350.78739 : 1"
       inkscape:vp_z="744.09448 : 526.18109 : 1"
       inkscape:vp_y="0 : 1000 : 0"
       inkscape:vp_x="0 : 526.18109 : 1"
       sodipodi:type="inkscape:persp3d" />
    <clipPath
       clipPathUnits="userSpaceOnUse"
       id="clipPath3213">
      <rect
         y="475.71487"
         x="1064.7638"
         height="448.63635"
         width="413.94183"
         id="rect3215"
         style="fill:#ffffff;fill-opacity:1;fill-rule:nonzero;stroke:#fffa69;stroke-width:0.99999994;stroke-linecap:butt;stroke-linejoin:round;stroke-miterlimit:4;stroke-opacity:1;stroke-dasharray:none;stroke-dashoffset:0;marker:none;visibility:visible;display:inline;overflow:visible;enable-background:accumulate" />
    </clipPath>
    <clipPath
       clipPathUnits="userSpaceOnUse"
       id="clipPath9716-1">
      <path
         inkscape:connector-curvature="0"
         id="path9718-6"
         d="M 871.13547,932.36346 C 1314.8756,1345.252 1758.6155,1758.1404 2202.3556,2171.029 2375.7787,1984.6474 2549.2018,1798.266 2722.6249,1611.8845 2278.8848,1198.996 1835.1448,786.10758 1391.4047,373.21904 1217.9816,559.60052 1044.5586,745.98194 871.13547,932.36346 z"
         style="fill:#6a6a6a;fill-opacity:1;fill-rule:nonzero;stroke:#010101;stroke-width:0.9426257;stroke-linecap:round;stroke-linejoin:round;stroke-miterlimit:4;stroke-opacity:1;stroke-dasharray:none;stroke-dashoffset:0" />
    </clipPath>
    <clipPath
       clipPathUnits="userSpaceOnUse"
       id="clipPath3494-8">
      <rect
         style="fill:#006a00;fill-opacity:1;fill-rule:nonzero;stroke:none"
         id="rect3496-5"
         width="2168.1926"
         height="1468.4177"
         x="-4232.8457"
         y="-2372.1296"
         transform="matrix(-0.9472965,-0.3203582,0.9519016,-0.3064038,0,0)" />
    </clipPath>
    <pattern
       inkscape:collect="always"
       xlink:href="#pattern4256-6"
       id="pattern4264-7"
       patternTransform="matrix(-0.7760302,9.7935943e-4,-9.7935943e-4,-0.7760302,-1599.8308,380.49)" />
    <pattern
       patternUnits="userSpaceOnUse"
       width="10.793857"
       height="10.773841"
       patternTransform="matrix(-0.5630234,-0.534067,0.534067,-0.5630234,1593.7246,910.57043)"
       id="pattern4256-6">
      <g
         id="g4248-1"
         transform="matrix(0.5878912,6.0987118e-3,-6.0987118e-3,0.5878912,-595.3809,-720.7077)">
        <rect
           style="opacity:1;fill:black;fill-opacity:1;stroke:none;stroke-width:0.5;stroke-linecap:round;stroke-linejoin:round;stroke-miterlimit:4;stroke-dasharray:none;stroke-dashoffset:0;stroke-opacity:1"
           id="rect4250-8"
           width="18.172573"
           height="18.095789"
           x="1025.5348"
           y="1215.2814" />
        <rect
           style="opacity:1;fill:white;fill-opacity:1;stroke:none;stroke-width:0.5;stroke-linecap:round;stroke-linejoin:round;stroke-miterlimit:4;stroke-dasharray:none;stroke-dashoffset:0;stroke-opacity:1"
           id="rect4252-9"
           width="9.0746527"
           height="9.0746527"
           x="1025.5348"
           y="1215.2814" />
        <rect
           style="opacity:1;fill:white;fill-opacity:1;stroke:none;stroke-width:0.5;stroke-linecap:round;stroke-linejoin:round;stroke-miterlimit:4;stroke-dasharray:none;stroke-dashoffset:0;stroke-opacity:1"
           id="rect4254-2"
           width="9.0746527"
           height="9.0746527"
           x="1034.6412"
           y="1224.3444" />
      </g>
    </pattern>
    <clipPath
       clipPathUnits="userSpaceOnUse"
       id="clipPath3490-7">
      <rect
         style="fill:#006a00;fill-opacity:1;fill-rule:nonzero;stroke:none"
         id="rect3492-9"
         width="1511.7875"
         height="1003.7479"
         x="683.1405"
         y="104.1039"
         transform="matrix(-0.7183395,0.6956928,-0.6956928,-0.7183395,0,0)" />
    </clipPath>
    <pattern
       patternUnits="userSpaceOnUse"
       width="10.793857"
       height="10.773841"
       patternTransform="matrix(-0.5630234,-0.534067,0.534067,-0.5630234,1593.7246,910.57043)"
       id="pattern4688">
      <g
         id="g4690"
         transform="matrix(0.5878912,6.0987118e-3,-6.0987118e-3,0.5878912,-595.3809,-720.7077)">
        <rect
           style="opacity:1;fill:black;fill-opacity:1;stroke:none;stroke-width:0.5;stroke-linecap:round;stroke-linejoin:round;stroke-miterlimit:4;stroke-dasharray:none;stroke-dashoffset:0;stroke-opacity:1"
           id="rect4692"
           width="18.172573"
           height="18.095789"
           x="1025.5348"
           y="1215.2814" />
        <rect
           style="opacity:1;fill:white;fill-opacity:1;stroke:none;stroke-width:0.5;stroke-linecap:round;stroke-linejoin:round;stroke-miterlimit:4;stroke-dasharray:none;stroke-dashoffset:0;stroke-opacity:1"
           id="rect4694"
           width="9.0746527"
           height="9.0746527"
           x="1025.5348"
           y="1215.2814" />
        <rect
           style="opacity:1;fill:white;fill-opacity:1;stroke:none;stroke-width:0.5;stroke-linecap:round;stroke-linejoin:round;stroke-miterlimit:4;stroke-dasharray:none;stroke-dashoffset:0;stroke-opacity:1"
           id="rect4696"
           width="9.0746527"
           height="9.0746527"
           x="1034.6412"
           y="1224.3444" />
      </g>
    </pattern>
    <clipPath
       clipPathUnits="userSpaceOnUse"
       id="clipPath9716-8">
      <path
         inkscape:connector-curvature="0"
         id="path9718-2"
         d="M 871.13547,932.36346 C 1314.8756,1345.252 1758.6155,1758.1404 2202.3556,2171.029 2375.7787,1984.6474 2549.2018,1798.266 2722.6249,1611.8845 2278.8848,1198.996 1835.1448,786.10758 1391.4047,373.21904 1217.9816,559.60052 1044.5586,745.98194 871.13547,932.36346 z"
         style="fill:#6a6a6a;fill-opacity:1;fill-rule:nonzero;stroke:#010101;stroke-width:0.9426257;stroke-linecap:round;stroke-linejoin:round;stroke-miterlimit:4;stroke-opacity:1;stroke-dasharray:none;stroke-dashoffset:0" />
    </clipPath>
    <clipPath
       clipPathUnits="userSpaceOnUse"
       id="clipPath3494-4">
      <rect
         style="fill:#006a00;fill-opacity:1;fill-rule:nonzero;stroke:none"
         id="rect3496-55"
         width="2168.1926"
         height="1468.4177"
         x="-4232.8457"
         y="-2372.1296"
         transform="matrix(-0.9472965,-0.3203582,0.9519016,-0.3064038,0,0)" />
    </clipPath>
    <pattern
       inkscape:collect="always"
       xlink:href="#pattern4256-7"
       id="pattern4264-1"
       patternTransform="matrix(-0.7760302,9.7935943e-4,-9.7935943e-4,-0.7760302,-1599.8308,380.49)" />
    <pattern
       patternUnits="userSpaceOnUse"
       width="10.793857"
       height="10.773841"
       patternTransform="matrix(-0.5630234,-0.534067,0.534067,-0.5630234,1593.7246,910.57043)"
       id="pattern4256-7">
      <g
         id="g4248-11"
         transform="matrix(0.5878912,6.0987118e-3,-6.0987118e-3,0.5878912,-595.3809,-720.7077)">
        <rect
           style="opacity:1;fill:black;fill-opacity:1;stroke:none;stroke-width:0.5;stroke-linecap:round;stroke-linejoin:round;stroke-miterlimit:4;stroke-dasharray:none;stroke-dashoffset:0;stroke-opacity:1"
           id="rect4250-5"
           width="18.172573"
           height="18.095789"
           x="1025.5348"
           y="1215.2814" />
        <rect
           style="opacity:1;fill:white;fill-opacity:1;stroke:none;stroke-width:0.5;stroke-linecap:round;stroke-linejoin:round;stroke-miterlimit:4;stroke-dasharray:none;stroke-dashoffset:0;stroke-opacity:1"
           id="rect4252-2"
           width="9.0746527"
           height="9.0746527"
           x="1025.5348"
           y="1215.2814" />
        <rect
           style="opacity:1;fill:white;fill-opacity:1;stroke:none;stroke-width:0.5;stroke-linecap:round;stroke-linejoin:round;stroke-miterlimit:4;stroke-dasharray:none;stroke-dashoffset:0;stroke-opacity:1"
           id="rect4254-7"
           width="9.0746527"
           height="9.0746527"
           x="1034.6412"
           y="1224.3444" />
      </g>
    </pattern>
    <clipPath
       clipPathUnits="userSpaceOnUse"
       id="clipPath3490-6">
      <rect
         style="fill:#006a00;fill-opacity:1;fill-rule:nonzero;stroke:none"
         id="rect3492-1"
         width="1511.7875"
         height="1003.7479"
         x="683.1405"
         y="104.1039"
         transform="matrix(-0.7183395,0.6956928,-0.6956928,-0.7183395,0,0)" />
    </clipPath>
    <pattern
       patternUnits="userSpaceOnUse"
       width="10.793857"
       height="10.773841"
       patternTransform="matrix(-0.5630234,-0.534067,0.534067,-0.5630234,1593.7246,910.57043)"
       id="pattern3751">
      <g
         id="g3753"
         transform="matrix(0.5878912,6.0987118e-3,-6.0987118e-3,0.5878912,-595.3809,-720.7077)">
        <rect
           style="opacity:1;fill:black;fill-opacity:1;stroke:none;stroke-width:0.5;stroke-linecap:round;stroke-linejoin:round;stroke-miterlimit:4;stroke-dasharray:none;stroke-dashoffset:0;stroke-opacity:1"
           id="rect3755"
           width="18.172573"
           height="18.095789"
           x="1025.5348"
           y="1215.2814" />
        <rect
           style="opacity:1;fill:white;fill-opacity:1;stroke:none;stroke-width:0.5;stroke-linecap:round;stroke-linejoin:round;stroke-miterlimit:4;stroke-dasharray:none;stroke-dashoffset:0;stroke-opacity:1"
           id="rect3757"
           width="9.0746527"
           height="9.0746527"
           x="1025.5348"
           y="1215.2814" />
        <rect
           style="opacity:1;fill:white;fill-opacity:1;stroke:none;stroke-width:0.5;stroke-linecap:round;stroke-linejoin:round;stroke-miterlimit:4;stroke-dasharray:none;stroke-dashoffset:0;stroke-opacity:1"
           id="rect3759"
           width="9.0746527"
           height="9.0746527"
           x="1034.6412"
           y="1224.3444" />
      </g>
    </pattern>
  </defs>
  <sodipodi:namedview
     id="base"
     pagecolor="#ffffff"
     bordercolor="#ffffff"
     borderopacity="0.0"
     inkscape:pageopacity="0.0"
     inkscape:pageshadow="0"
     inkscape:zoom="0.44472781"
     inkscape:cx="1042.1353"
     inkscape:cy="279.46606"
     inkscape:document-units="px"
     inkscape:current-layer="layer1"
     showgrid="true"
     inkscape:showpageshadow="false"
     showborder="false"
     inkscape:window-width="1366"
     inkscape:window-height="705"
     inkscape:window-x="-8"
     inkscape:window-y="-8"
     inkscape:window-maximized="1"
     fit-margin-top="0"
     fit-margin-left="0"
     fit-margin-right="0"
     fit-margin-bottom="0">
    <inkscape:grid
       type="xygrid"
       id="grid3701"
       empspacing="5"
       visible="true"
       enabled="true"
       snapvisiblegridlinesonly="true" />
    <sodipodi:guide
       position="-40.474193,-35.977071"
       orientation="0,1337.8236"
       id="guide3254" />
    <sodipodi:guide
       position="1699.9162,335.03638"
       orientation="-927.53363,0"
       id="guide3256" />
    <sodipodi:guide
       position="1695.419,789.24679"
       orientation="0,-1337.8236"
       id="guide3258" />
    <sodipodi:guide
       position="-40.474193,-35.977071"
       orientation="927.53363,0"
       id="guide3260" />
  </sodipodi:namedview>
  <metadata
     id="metadata2388">
    <rdf:RDF>
      <cc:Work
         rdf:about="">
        <dc:format>image/svg+xml</dc:format>
        <dc:type
           rdf:resource="http://purl.org/dc/dcmitype/StillImage" />
        <dc:title />
        <dc:date />
        <dc:creator>
          <cc:Agent>
            <dc:title />
          </cc:Agent>
        </dc:creator>
        <dc:publisher>
          <cc:Agent>
            <dc:title />
          </cc:Agent>
        </dc:publisher>
        <dc:subject>
          <rdf:Bag />
        </dc:subject>
        <dc:description />
        <cc:license
           rdf:resource="http://creativecommons.org/licenses/by-sa/3.0/" />
      </cc:Work>
      <cc:License
         rdf:about="http://creativecommons.org/licenses/by-sa/3.0/">
        <cc:permits
           rdf:resource="http://creativecommons.org/ns#Reproduction" />
        <cc:permits
           rdf:resource="http://creativecommons.org/ns#Distribution" />
        <cc:requires
           rdf:resource="http://creativecommons.org/ns#Notice" />
        <cc:requires
           rdf:resource="http://creativecommons.org/ns#Attribution" />
        <cc:permits
           rdf:resource="http://creativecommons.org/ns#DerivativeWorks" />
        <cc:requires
           rdf:resource="http://creativecommons.org/ns#ShareAlike" />
      </cc:License>
    </rdf:RDF>
  </metadata>
  <g
     inkscape:label="Layer 1"
     inkscape:groupmode="layer"
     id="layer1"
     transform="translate(-1076.3816,-655.63289)"
     style="display:inline">
    <path
       sodipodi:nodetypes="cssssscccccsssssccc"
       inkscape:connector-curvature="0"
       id="path4041"
       d="m 1104.693,1391.4405 c 0,0 -17.781,-33.9376 -22.7667,-52.2792 -1.4357,-5.2818 -2.3192,-10.8399 -1.9675,-16.3021 0.3913,-6.0772 2.0242,-12.1423 4.4971,-17.7074 3.1649,-7.1221 16.3042,-21.8322 21.3092,-27.8063 l 33.2186,-39.6507 c 9.0781,-10.8359 15.7321,-23.4936 23.3289,-35.4149 l 67.738,-138.2869 c 10.9964,-23.3528 33.7285,-69.70552 33.7285,-69.70552 l 61.8356,-131.8222 59.3059,-126.76293 28.9503,-57.05737 c 2.8555,-5.62775 7.3311,-10.53149 12.3671,-14.33461 2.3081,-1.74302 5.0877,-2.86413 7.87,-3.65392 3.8122,-1.08211 7.8643,-1.82292 11.805,-1.40536 3.7418,0.39649 7.1486,2.3565 10.6807,3.65392 29.5758,10.86407 87.9751,34.57171 87.9751,34.57171 l 142.5029,59.86808 60.9924,24.17209"
       style="fill:none;stroke:#ffffff;stroke-width:7;stroke-linecap:butt;stroke-linejoin:miter;stroke-miterlimit:4;stroke-opacity:1;stroke-dasharray:none" />
    <path
       sodipodi:nodetypes="cssssssssssscccssssccsssccsscscccscccsccccc"
       inkscape:connector-curvature="0"
       id="path4039"
       d="m 1123.5328,1343.708 c 96.4586,-203.6035 191.1789,-408.03969 289.3757,-610.81064 4.6903,-9.68512 11.1864,-14.31055 19.5738,-16.17854 10.0312,-2.23408 24.0197,1.43386 35.8858,4.09269 14.0664,3.15184 26.0617,5.79684 37.8468,8.411 188.7108,41.85965 376.5048,88.00611 564.9121,131.1675 36.8873,8.45036 73.5742,17.87488 110.744,24.95323 28.5152,5.43023 58.7133,8.17089 89.1428,11.75804 57.635,6.79422 116.771,12.69464 171.3562,19.39426 83.2302,10.2154 156.0654,20.682 238.9528,33.28426 20.797,3.16199 42.839,9.47068 53.5551,30.86936 8.9834,17.93855 5.7808,42.29324 -3.5999,58.99984 -12.2193,21.7619 -34.7132,27.698 -59.9972,25.7539 -341.7741,-47.5401 -684.7372,-98.57568 -1026.6465,-144.80969 -43.0989,-5.8829 -83.8591,15.20856 -114.7786,44.70613 -27.7358,23.97167 -65.9493,64.00946 -103.264,100.73506 -35.4323,34.8729 -70.1647,66.4828 -90.2831,88.6727 -6.1863,6.8233 -12.0983,12.3012 -14.8238,17.8188 -3.8768,7.8482 -4.7519,15.9074 -5.2608,23.0195 -1.6202,22.6411 10.0004,39.718 40.8467,52.4006 29.8595,12.8231 64.3154,34.2643 101.2759,27.9283 21.1596,-2.2856 40.3217,-8.261 57.5894,-19.5871 5.1582,-3.3834 10.1853,-7.2256 14.4082,-12.1889 4.4648,-5.2476 8.441,-12.0893 12.7564,-19.8061 16.0865,-28.7659 35.4187,-69.7134 54.0476,-103.7969 7.6828,-17.2157 19.7786,-29.9381 34.2091,-40.2949 10.6279,-7.5643 20.0184,-11.9391 31.9262,-16.1126 27.6867,-9.7037 45.9042,-8.282 92.7827,-2.4249 105.4705,13.1777 206.5106,24.4043 311.6001,39.0573 13.6727,3.9836 26.1006,5.7341 36.7757,14.6193 10.134,8.4348 18.855,23.6883 19.4702,39.1719 9.5847,59.1203 22.6118,118.249 30.0782,177.3641 -0.1255,42.7083 -45.6374,72.9775 -85.6169,65.5682 -21.4287,-2.9462 -33.8469,-17.7314 -48.5276,-33.2286 -10.8534,-11.4569 -24.3854,-22.9425 -36.2213,-32.1932 -36.9216,-30.4156 -84.7553,-44.8667 -143.5731,-27.5073 -23.1557,7.8307 -34.1509,14.5271 -50.5775,23.9027 -14.2642,9.6406 -26.6094,17.4148 -37.6952,23.6636 -34.6765,19.5464 -57.0306,24.1682 -87.2525,24.3052 -175.0971,1.4924 -365.0606,22.5232 -519.9764,34.274 -14.6834,0.6138 -23.76,1.5271 -32.2073,-8.3092 -4.8043,-5.6815 -5.7734,-13.2419 -2.9032,-21.3516 4.457,-12.3155 8.5743,-25.9879 14.0934,-37.2913 z"
       style="fill:none;stroke:#ffffff;stroke-width:17;stroke-linecap:butt;stroke-linejoin:miter;stroke-miterlimit:4;stroke-opacity:1;stroke-dasharray:none" />
    <g
       style="display:inline"
       id="g3804"
       transform="matrix(1.9555278,0,0,1.9555278,-1667.4639,-626.08656)"
       clip-path="none">
      <text
         id="text3180"
         y="964.98792"
         x="2082.6702"
         style="font-size:64px;font-style:normal;font-weight:normal;fill:#fffa69;fill-opacity:1;stroke:#ffffff;stroke-width:0.51137096px;stroke-linecap:butt;stroke-linejoin:miter;stroke-opacity:1;font-family:Times New Roman"
         xml:space="preserve"
         inkscape:export-xdpi="90.015755"
         inkscape:export-ydpi="90.015755"><tspan
           y="964.98792"
           x="2082.6702"
           id="tspan3182"
           sodipodi:role="line"
           style="stroke-width:0.51137096">N</tspan></text>
    </g>
    <path
       style="fill:none;stroke:#fffa69;stroke-width:15;stroke-linecap:butt;stroke-linejoin:miter;stroke-miterlimit:4;stroke-opacity:1;stroke-dasharray:none"
       d="m 1123.5328,1343.708 c 96.4586,-203.6035 191.1789,-408.03969 289.3757,-610.81064 4.6903,-9.68512 11.1864,-14.31055 19.5738,-16.17854 10.0312,-2.23408 24.0197,1.43386 35.8858,4.09269 14.0664,3.15184 26.0617,5.79684 37.8468,8.411 188.7108,41.85965 376.5048,88.00611 564.9121,131.1675 36.8873,8.45036 73.5742,17.87488 110.744,24.95323 28.5152,5.43023 58.7133,8.17089 89.1428,11.75804 57.635,6.79422 116.771,12.69464 171.3562,19.39426 83.2302,10.2154 156.0654,20.682 238.9528,33.28426 20.797,3.16199 42.839,9.47068 53.5551,30.86936 8.9834,17.93855 5.7808,42.29324 -3.5999,58.99984 -12.2193,21.7619 -34.7132,27.698 -59.9972,25.7539 -341.7741,-47.5401 -684.7372,-98.57568 -1026.6465,-144.80969 -43.0989,-5.8829 -83.8591,15.20856 -114.7786,44.70613 -27.7358,23.97167 -65.9493,64.00946 -103.264,100.73506 -35.4323,34.8729 -70.1647,66.4828 -90.2831,88.6727 -6.1863,6.8233 -12.0983,12.3012 -14.8238,17.8188 -3.8768,7.8482 -4.7519,15.9074 -5.2608,23.0195 -1.6202,22.6411 10.0004,39.718 40.8467,52.4006 29.8595,12.8231 64.3154,34.2643 101.2759,27.9283 21.1596,-2.2856 40.3217,-8.261 57.5894,-19.5871 5.1582,-3.3834 10.1853,-7.2256 14.4082,-12.1889 4.4648,-5.2476 8.441,-12.0893 12.7564,-19.8061 16.0865,-28.7659 35.4187,-69.7134 54.0476,-103.7969 7.6828,-17.2157 19.7786,-29.9381 34.2091,-40.2949 10.6279,-7.5643 20.0184,-11.9391 31.9262,-16.1126 27.6867,-9.7037 45.9042,-8.282 92.7827,-2.4249 105.4705,13.1777 206.5106,24.4043 311.6001,39.0573 13.6727,3.9836 26.1006,5.7341 36.7757,14.6193 10.134,8.4348 18.855,23.6883 19.4702,39.1719 9.5847,59.1203 22.6118,118.249 30.0782,177.3641 -0.1255,42.7083 -45.6374,72.9775 -85.6169,65.5682 -21.4287,-2.9462 -33.8469,-17.7314 -48.5276,-33.2286 -10.8534,-11.4569 -24.3854,-22.9425 -36.2213,-32.1932 -36.9216,-30.4156 -84.7553,-44.8667 -143.5731,-27.5073 -23.1557,7.8307 -34.1509,14.5271 -50.5775,23.9027 -14.2642,9.6406 -26.6094,17.4148 -37.6952,23.6636 -34.6765,19.5464 -57.0306,24.1682 -87.2525,24.3052 -175.0971,1.4924 -365.0606,22.5232 -519.9764,34.274 -14.6834,0.6138 -23.76,1.5271 -32.2073,-8.3092 -4.8043,-5.6815 -5.7734,-13.2419 -2.9032,-21.3516 4.457,-12.3155 8.5743,-25.9879 14.0934,-37.2913 z"
       id="path3397"
       inkscape:connector-curvature="0"
       sodipodi:nodetypes="cssssssssssscccssssccsssccsscscccscccsccccc" />






  </g>
</svg>
