<?xml version="1.0" encoding="UTF-8" standalone="no"?>
<!-- Created with Inkscape (http://www.inkscape.org/) -->

<svg
   width="1672.3146"
   height="763.87268"
   id="svg2383"
   sodipodi:version="0.32"
   inkscape:version="1.4.3 (fcd0343856, 2026-01-01)"
   version="1.0"
   sodipodi:docname="Thailandv.svg"
   inkscape:output_extension="org.inkscape.output.svg.inkscape"
   inkscape:export-filename="D:\Images\Race Tracks\Donington as of 2006.png"
   inkscape:export-xdpi="90.015755"
   inkscape:export-ydpi="90.015755"
   xmlns:inkscape="http://www.inkscape.org/namespaces/inkscape"
   xmlns:sodipodi="http://sodipodi.sourceforge.net/DTD/sodipodi-0.dtd"
   xmlns="http://www.w3.org/2000/svg"
   xmlns:svg="http://www.w3.org/2000/svg">
  <defs
     id="defs1" />
  <sodipodi:namedview
     id="base"
     pagecolor="#ffffff"
     bordercolor="#ffffff"
     borderopacity="0.0"
     inkscape:pageopacity="0.0"
     inkscape:pageshadow="0"
     inkscape:zoom="0.44472781"
     inkscape:cx="1042.2105"
     inkscape:cy="281.0708"
     inkscape:document-units="px"
     inkscape:current-layer="layer1"
     showgrid="true"
     inkscape:showpageshadow="false"
     showborder="false"
     inkscape:window-width="1210"
     inkscape:window-height="933"
     inkscape:window-x="0"
     inkscape:window-y="0"
     inkscape:window-maximized="1"
     fit-margin-top="0"
     fit-margin-left="0"
     fit-margin-right="0"
     fit-margin-bottom="0"
     inkscape:pagecheckerboard="0"
     inkscape:deskcolor="#d1d1d1">
    <inkscape:grid
       type="xygrid"
       id="grid3701"
       empspacing="5"
       visible="true"
       enabled="true"
       snapvisiblegridlinesonly="true"
       originx="0"
       originy="0"
       spacingy="1"
       spacingx="1"
       units="px" />
    <sodipodi:guide
       position="-40.474193,-35.977071"
       orientation="0,1337.8236"
       id="guide3254"
       inkscape:locked="false" />
    <sodipodi:guide
       position="1699.9162,335.03638"
       orientation="-927.53363,0"
       id="guide3256"
       inkscape:locked="false" />
    <sodipodi:guide
       position="1695.419,789.24679"
       orientation="0,-1337.8236"
       id="guide3258"
       inkscape:locked="false" />
    <sodipodi:guide
       position="-40.474193,-35.977071"
       orientation="927.53363,0"
       id="guide3260"
       inkscape:locked="false" />
  </sodipodi:namedview>
  <g
     inkscape:label="Layer 1"
     inkscape:groupmode="layer"
     id="layer1"
     transform="translate(-1076.3816,-655.63289)"
     style="display:inline">
    <path
       style="fill:none;stroke:#fffa69;stroke-width:15;stroke-linecap:butt;stroke-linejoin:miter;stroke-miterlimit:4;stroke-dasharray:none;stroke-opacity:1"
       d="m 1123.5328,783.25256 c 96.4586,203.6035 191.1789,408.03964 289.3757,610.81064 4.6903,9.6851 11.1864,14.3105 19.5738,16.1785 10.0312,2.2341 24.0197,-1.4338 35.8858,-4.0927 14.0664,-3.1518 26.0617,-5.7968 37.8468,-8.411 188.7108,-41.8596 376.5048,-88.0061 564.9121,-131.1675 36.8873,-8.4503 73.5742,-17.8748 110.744,-24.9532 28.5152,-5.4302 58.7133,-8.1709 89.1428,-11.758 57.635,-6.7942 116.771,-12.6947 171.3562,-19.3943 83.2302,-10.2154 156.0654,-20.682 238.9528,-33.2842 20.797,-3.162 42.839,-9.4707 53.5551,-30.8694 8.9834,-17.9386 5.7808,-42.2932 -3.5999,-58.9998 -12.2193,-21.7619 -34.7132,-27.698 -59.9972,-25.7539 -341.7741,47.5401 -684.7372,98.5756 -1026.6465,144.8096 -43.0989,5.8829 -83.8591,-15.2085 -114.7786,-44.7061 -27.7358,-23.9717 -65.9493,-64.0094 -103.264,-100.735 -35.4323,-34.8729 -70.1647,-66.48284 -90.2831,-88.67274 -6.1863,-6.8233 -12.0983,-12.3012 -14.8238,-17.8188 -3.8768,-7.8482 -4.7519,-15.9074 -5.2608,-23.0195 -1.6202,-22.6411 10.0004,-39.718 40.8467,-52.4006 29.8595,-12.8231 64.3154,-34.2643 101.2759,-27.9283 21.1596,2.2856 40.3217,8.261 57.5894,19.5871 5.1582,3.3834 10.1853,7.2256 14.4082,12.1889 4.4648,5.2476 8.441,12.0893 12.7564,19.8061 16.0865,28.7659 35.4187,69.7134 54.0476,103.79694 7.6828,17.2157 19.7786,29.9381 34.2091,40.2949 10.6279,7.5643 20.0184,11.9391 31.9262,16.1126 27.6867,9.7037 45.9042,8.282 92.7827,2.4249 105.4705,-13.1777 206.5106,-24.4043 311.6001,-39.0573 13.6727,-3.9836 26.1006,-5.7341 36.7757,-14.6193 10.134,-8.4348 18.855,-23.68834 19.4702,-39.17194 9.5847,-59.1203 22.6118,-118.249 30.0782,-177.3641 -0.1255,-42.7083 -45.6374,-72.9775 -85.6169,-65.5682 -21.4287,2.9462 -33.8469,17.7314 -48.5276,33.2286 -10.8534,11.4569 -24.3854,22.9425 -36.2213,32.1932 -36.9216,30.4156 -84.7553,44.8667 -143.5731,27.5073 -23.1557,-7.8307 -34.1509,-14.5271 -50.5775,-23.9027 -14.2642,-9.6406 -26.6094,-17.4148 -37.6952,-23.6636 -34.6765,-19.5464 -57.0306,-24.1682 -87.2525,-24.3052 -175.0971,-1.4924 -365.0606,-22.5232 -519.9764,-34.274 -14.6834,-0.6138 -23.76,-1.5271 -32.2073,8.3092 -4.8043,5.6815 -5.7734,13.2419 -2.9032,21.3516 4.457,12.3155 8.5743,25.9879 14.0934,37.2913 z"
       id="path3397"
       inkscape:connector-curvature="0"
       sodipodi:nodetypes="cssssssssssscccssssccsssccsscscccscccsccccc" />
  </g>
</svg>
