<?xml version="1.0" encoding="UTF-8" standalone="no"?>
<!-- Created with Inkscape (http://www.inkscape.org/) -->

<svg
   width="2300"
   height="2300"
   id="svg2"
   version="1.1"
   inkscape:version="1.1 (c68e22c387, 2021-05-23)"
   sodipodi:docname="Austin_circuit.svg"
   style="display:inline"
   xmlns:inkscape="http://www.inkscape.org/namespaces/inkscape"
   xmlns:sodipodi="http://sodipodi.sourceforge.net/DTD/sodipodi-0.dtd"
   xmlns="http://www.w3.org/2000/svg"
   xmlns:svg="http://www.w3.org/2000/svg"
   xmlns:rdf="http://www.w3.org/1999/02/22-rdf-syntax-ns#"
   xmlns:cc="http://creativecommons.org/ns#"
   xmlns:dc="http://purl.org/dc/elements/1.1/">
  <defs
     id="defs4">
    <filter
       color-interpolation-filters="sRGB"
       inkscape:collect="always"
       id="filter11082-3-8-3"
       x="-0.12469913"
       width="1.2493983"
       y="-0.10641281"
       height="1.2128256">
      <feGaussianBlur
         inkscape:collect="always"
         stdDeviation="2.3487404"
         id="feGaussianBlur11084-5-7-8" />
    </filter>
    <filter
       color-interpolation-filters="sRGB"
       inkscape:collect="always"
       id="filter5181-5-3-4"
       x="-0.26505486"
       y="-0.091103999"
       width="1.5301097"
       height="1.182208">
      <feGaussianBlur
         inkscape:collect="always"
         stdDeviation="14.932208"
         id="feGaussianBlur5183-1-1-4" />
    </filter>
    <filter
       color-interpolation-filters="sRGB"
       inkscape:collect="always"
       id="filter5493-3-9-56-4-4-7"
       x="-0.064474198"
       y="-0.074448391"
       width="1.1289484"
       height="1.1488968">
      <feGaussianBlur
         inkscape:collect="always"
         stdDeviation="8.1692568"
         id="feGaussianBlur5495-1-0-2-3-8-8" />
    </filter>
    <filter
       color-interpolation-filters="sRGB"
       inkscape:collect="always"
       id="filter5493-3-9-6-1-6-8"
       x="-0.064474198"
       y="-0.074448391"
       width="1.1289484"
       height="1.1488968">
      <feGaussianBlur
         inkscape:collect="always"
         stdDeviation="8.1692568"
         id="feGaussianBlur5495-1-0-6-2-5-2" />
    </filter>
    <filter
       color-interpolation-filters="sRGB"
       inkscape:collect="always"
       id="filter5493-3-9-42-3-0-9"
       x="-0.064474198"
       y="-0.074448391"
       width="1.1289484"
       height="1.1488968">
      <feGaussianBlur
         inkscape:collect="always"
         stdDeviation="8.1692568"
         id="feGaussianBlur5495-1-0-53-3-9-1" />
    </filter>
    <filter
       color-interpolation-filters="sRGB"
       inkscape:collect="always"
       id="filter5493-3-9-5-4-0-3"
       x="-0.064474198"
       y="-0.074448391"
       width="1.1289484"
       height="1.1488968">
      <feGaussianBlur
         inkscape:collect="always"
         stdDeviation="8.1692568"
         id="feGaussianBlur5495-1-0-51-1-0-5" />
    </filter>
    <filter
       color-interpolation-filters="sRGB"
       inkscape:collect="always"
       id="filter5493-3-9-4-1-6-9"
       x="-0.064474198"
       y="-0.074448391"
       width="1.1289484"
       height="1.1488968">
      <feGaussianBlur
         inkscape:collect="always"
         stdDeviation="8.1692568"
         id="feGaussianBlur5495-1-0-5-3-1-8" />
    </filter>
    <filter
       color-interpolation-filters="sRGB"
       inkscape:collect="always"
       id="filter5493-3-9-427-9-4"
       x="-0.064474198"
       y="-0.074448391"
       width="1.1289484"
       height="1.1488968">
      <feGaussianBlur
         inkscape:collect="always"
         stdDeviation="8.1692568"
         id="feGaussianBlur5495-1-0-79-3-0" />
    </filter>
    <filter
       color-interpolation-filters="sRGB"
       inkscape:collect="always"
       id="filter5493-3-9-427-9-4-3"
       x="-0.064474198"
       y="-0.074448391"
       width="1.1289484"
       height="1.1488968">
      <feGaussianBlur
         inkscape:collect="always"
         stdDeviation="8.1692568"
         id="feGaussianBlur5495-1-0-79-3-0-5" />
    </filter>
    <filter
       color-interpolation-filters="sRGB"
       inkscape:collect="always"
       id="filter5493-3-9-6-1-6-8-7"
       x="-0.064474198"
       y="-0.074448391"
       width="1.1289484"
       height="1.1488968">
      <feGaussianBlur
         inkscape:collect="always"
         stdDeviation="8.1692568"
         id="feGaussianBlur5495-1-0-6-2-5-2-9" />
    </filter>
  </defs>
  <sodipodi:namedview
     id="base"
     pagecolor="#ffffff"
     bordercolor="#666666"
     borderopacity="1.0"
     inkscape:pageopacity="0.0"
     inkscape:pageshadow="2"
     inkscape:zoom="0.64807872"
     inkscape:cx="1104.0325"
     inkscape:cy="46.290673"
     inkscape:document-units="px"
     inkscape:current-layer="layer3"
     showgrid="false"
     inkscape:window-width="1920"
     inkscape:window-height="1052"
     inkscape:window-x="-8"
     inkscape:window-y="-8"
     inkscape:window-maximized="1"
     inkscape:pagecheckerboard="0" />
  <metadata
     id="metadata7">
    <rdf:RDF>
      <cc:Work
         rdf:about="">
        <dc:format>image/svg+xml</dc:format>
        <dc:type
           rdf:resource="http://purl.org/dc/dcmitype/StillImage" />
      </cc:Work>
    </rdf:RDF>
  </metadata>
  <g
     inkscape:groupmode="layer"
     id="layer2"
     inkscape:label="Circuito"
     style="display:inline">

    <path
       style="color:#fffa69;font-style:normal;font-variant:normal;font-weight:normal;font-stretch:normal;font-size:medium;line-height:normal;font-family:Sans;-inkscape-font-specification:Sans;text-indent:0;text-align:start;text-decoration:none;text-decoration-line:none;letter-spacing:normal;word-spacing:normal;text-transform:none;writing-mode:lr-tb;direction:ltr;baseline-shift:baseline;text-anchor:start;display:inline;overflow:visible;visibility:visible;fill:#fffa69;fill-opacity:1;stroke:none;stroke-width:0.34299999;marker:none;enable-background:accumulate"
       d="m 2095.0962,62.519865 c -11.6406,0.978162 -21.4936,7.632926 -32.0337,18.105135 l -0.031,-0.03125 c -0.015,0.01602 6.366,-6.182385 -0.031,0.0625 -61.2959,67.46568 -240.0654,236.83541 -301.6248,286.07879 -34.4974,27.59561 -91.327,76.13657 -149.4088,123.83439 -58.0817,47.69783 -117.7054,94.06956 -153.8387,121.47123 -46.7265,35.43503 -77.5678,65.50973 -262.7442,186.63836 2.4679,6.93058 10.9364,17.06239 12.0301,16.4712 91.7428,-62.0386 167.7293,-116.03355 234.8235,-165.69475 67.0943,-49.6612 164.0296,-129.01676 179.0146,-140.98793 55.5303,-44.36179 107.6775,-89.48534 163.3673,-137.37162 54.8888,-47.1975 112.0885,-100.31554 179.4203,-162.65855 7.7225,-8.03561 70.408,-69.17653 100.8551,-98.54318 5.4141,-5.22194 24.6211,-19.946474 28.3076,-22.26083 1.9277,-1.310147 6.4609,-5.322368 9.0983,-3.296432 2.6334,2.022785 2.3468,4.869184 2.2989,8.075581 -1.2629,8.461121 -8.8723,78.735241 -12.3441,108.459821 l -22.6071,102.9458 c -35.0853,132.30012 -44.0817,185.3847 -75.805,319.61937 -0.016,0.0757 -0.046,0.14302 -0.063,0.21875 -3.022,12.246 -6.9815,17.27528 -16.5937,27.125 -64.2184,52.56882 -128.7935,104.9236 -196.593,155.34375 -0.1166,0.0806 -0.2312,0.16395 -0.3438,0.25 -8.3979,7.32808 -16.6981,8.14765 -24.875,7.3125 -5.6453,-0.57658 -10.2374,-2.36616 -19.7812,-10.96875 -27.3126,-22.94353 -61.1861,-27.92551 -92.6563,-15.5625 -40.0192,20.49541 -51.6296,51.73938 -53.625,74.84375 -6.4717,48.80777 -24.6048,96.48066 -47.9607,126.75095 -4.3435,6.36181 -11.8267,11.49325 -15.9456,13.09285 -2.139,0.3652 3.9769,17.9777 6.4688,17.0759 8.8713,-3.4452 19.0001,-9.7687 29.4803,-27.76624 31.6971,-50.78565 42.8302,-99.24131 45.1844,-124.78113 1.2224,-27.47593 20.0207,-53.27302 43.537,-61.73013 27.8698,-11.74948 60.957,-1.99094 72.9858,10.63905 10.3039,10.7405 20.3425,15.01866 32.3985,17.09477 12.4798,2.14908 23.9258,-1.80993 36.164,-12.31352 l 0.3438,-0.25 c 62.5902,-45.78211 124.4366,-94.16721 185.572,-145.04097 1.9334,-2.00483 7.6708,-6.68802 11.9592,-11.11528 10.6398,-10.87025 17.831,-20.44312 21.625,-36 0.022,-0.083 0.043,-0.16637 0.062,-0.25 27.5794,-122.66048 61.0051,-264.09395 96.125,-396.5625 L 2138.5,113.125 c 0.046,-0.16541 0.088,-0.33217 0.125,-0.5 4.189,-20.515384 -5.2411,-39.139509 -21.2188,-46.59375 -5.9916,-2.79534 -15.3152,-4.099161 -22.31,-3.511385 z"
       id="path3770"
       inkscape:connector-curvature="0"
       sodipodi:nodetypes="scccsssccssscscsccccccccsccccccccccscccccccccss" />
    <path
       style="color:#fffa69;font-style:normal;font-variant:normal;font-weight:normal;font-stretch:normal;font-size:medium;line-height:normal;font-family:Sans;-inkscape-font-specification:Sans;text-indent:0;text-align:start;text-decoration:none;text-decoration-line:none;letter-spacing:normal;word-spacing:normal;text-transform:none;writing-mode:lr-tb;direction:ltr;baseline-shift:baseline;text-anchor:start;display:inline;overflow:visible;visibility:visible;fill:#fffa69;fill-opacity:1;stroke:none;stroke-width:0.34299999;marker:none;enable-background:accumulate"
       d="m 1526.6562,1001.1875 c -5.1066,1.9821 -11.4429,1.6107 -15.7705,2.2856 -1.6691,0.1264 -9.8922,0.6 -11.2299,0.6751 l -80.0123,1.3535 c -0.2298,0.012 -22.3407,-0.44 -48.4247,1.1228 -40.0085,0.4829 -73.639,24.2521 -85.434,38.3229 -9.7661,11.5696 -24.9669,29.8701 -35.3473,50.2709 -1.3709,2.2609 14.0601,11.2449 14.875,9.75 12.4852,-23.3277 30.474,-45.9861 46.1929,-58.8993 15.3799,-12.6347 32.7219,-18.9563 61.2134,-21.6945 l 96.9889,-2.0198 c 8.7906,0.1371 29.7207,-0.5449 37.148,-0.9547 10.7353,-0.2984 13.3345,0.3208 25.8228,-2.4967 1.7902,-1.0455 -4.6426,-18.2255 -6.0223,-17.7158 z"
       id="path3772"
       inkscape:connector-curvature="0"
       sodipodi:nodetypes="ccccccccsccccc" />
    <path
       style="color:#fffa69;font-style:normal;font-variant:normal;font-weight:normal;font-stretch:normal;font-size:medium;line-height:normal;font-family:Sans;-inkscape-font-specification:Sans;text-indent:0;text-align:start;text-decoration:none;text-decoration-line:none;letter-spacing:normal;word-spacing:normal;text-transform:none;writing-mode:lr-tb;direction:ltr;baseline-shift:baseline;text-anchor:start;display:inline;overflow:visible;visibility:visible;fill:#fffa69;fill-opacity:1;stroke:none;stroke-width:0.34299999;marker:none;enable-background:accumulate"
       d="m 1195.8125,798.25 c -45.7789,31.69998 -98.2406,64.76634 -152.4431,99.18172 -3.29,1.84698 8.3976,20.71626 11.2102,18.81843 54.2347,-34.4358 106.5835,-69.19744 152.8266,-101.2189 0.585,-3.60867 -8.4966,-16.81145 -11.5937,-16.78125 z"
       id="path3776"
       inkscape:connector-curvature="0"
       sodipodi:nodetypes="ccccc" />
    <g
       id="g3783">
      <path
         sodipodi:nodetypes="ccccssccccsccccsccccccccccccsccccccccccccscccccccccccccccsccccccccsccccccsccccccsccsscccccccsccccscccsccccccccccscccccccccccscccccccccsccccscccssscc"
         inkscape:connector-curvature="0"
         id="path3774"
         d="m 1043.5,897.25 -188.51779,117.1427 -85.16686,54.0395 c -7.33047,3.3238 -32.14085,21.2972 -36.39505,25.7068 -4.50758,4.6721 -7.55852,8.9859 -6.51138,15.4741 1.04714,6.4882 2.14706,12.8757 7.33189,16.6508 4.92147,3.5833 4.17391,3.0787 11.40797,6.6275 3.25165,1.5493 15.83079,6.3207 15.87749,6.3357 91.0565,46.5456 138.39034,71.7894 216.35903,124.7269 1.11945,0.7694 1.28207,0.8048 2.79933,1.9239 9.89914,6.7042 12.45993,15.0746 11.57937,22.6893 -0.51729,4.4734 -5.21354,13.5873 -13.18097,17.0478 0,0 -1.98496,0.8386 -2.02966,0.8576 l -67.92842,27.9947 c -0.14747,0.059 -0.29337,0.121 -0.4375,0.1874 -12.33172,4.7021 -19.37126,3.9344 -26.125,0.7813 -7.60823,-3.552 -15.06115,-9.8156 -21.625,-16.2813 -0.0817,-0.085 -0.16502,-0.1683 -0.25,-0.25 l -14.5453,-14.4404 c -3.87581,-3.8437 -8.3817,-8.3825 -8.4132,-8.4135 -13.16947,-10.7067 -17.56065,-12.3256 -31.1977,-20.5525 -0.37936,-0.2378 -0.7767,-0.4469 -1.1875,-0.625 l -50.1875,-20.7188 c -0.19524,-0.08 -0.39333,-0.1529 -0.59375,-0.2187 -10.33052,-3.4517 -25.85299,-10.2889 -41.89558,-8.1994 -0.6112,-0.3025 -10.09705,1.7491 -10.18802,2.1162 l -42.29093,14.0108 c -0.53167,0.1903 -8.95551,5.4776 -9.44159,5.765 -9.56394,5.7384 -13.4582,17.8337 -12.92878,27.4833 0.52867,9.6358 9.68086,20.2494 18.33865,26.1366 l 0.0312,0.031 c 70.2188,47.3204 133.21742,90.6339 195.46123,133.3022 -1.50153,-0.2683 0.125,0.062 0.125,0.062 22.46128,14.8305 35.44713,38.8452 43.22068,62.0736 6.20962,23.7237 9.4515,55.1531 8.22434,72.4681 -2.20789,17.709 -8.22453,31.5622 -17.5625,42.8437 -0.021,0.031 -0.0419,0.062 -0.0625,0.094 l -51.21875,63.1875 -0.0625,0.094 c -11.02503,13.2711 -16.98667,23.5765 -30.71875,30.2813 -0.012,0.01 -0.0193,0.025 -0.0312,0.031 -18.51809,8.7249 -46.15091,17.9669 -77.96828,21.5 -31.80892,3.532 -67.76601,1.2217 -91.53172,-11.0938 -0.0204,-0.011 -0.0422,-0.021 -0.0625,-0.031 l -47.90625,-28.5626 c -0.11319,-0.065 -0.22781,-0.1275 -0.34375,-0.1874 -54.84823,-30.8109 -119.99235,-64.2819 -188.71875,-95.1563 -0.16438,-0.078 -0.33115,-0.1509 -0.5,-0.2187 -14.67326,-5.8004 -25.14546,-9.024 -38.72966,-6.1366 -16.84502,5.2751 -20.98027,8.6813 -41.61409,28.1366 -70.25275,78.2857 -129.09553,157.1247 -215.77805,253.2548 l -6.276563,7.9413 c -11.824484,14.8014 -20.534004,20.507 -20.765366,37.7263 -0.237429,12.8679 10.758431,24.7257 22.08851,27.8915 3.64541,0.6578 32.565039,7.4773 36.858379,8.3056 385.06262,82.2 665.82903,156.0591 1018.27379,228.9751 5.5865,1.203 40.5256,9.4107 44.3009,9.1004 19.2011,0.7015 35.379,-14.0575 40.0484,-24.1331 6.0692,-13.0959 6.9601,-30.7234 -9.5317,-49.0083 -4.6348,-5.7554 -16.4121,-16.1826 -19.5637,-19.2743 l -70.3733,-67.7174 -0.063,-0.062 -78.5311,-76.4688 c -28.3836,-28.455 -50.3433,-110.2238 -6.0939,-179.9375 l 123.625,-193.625 c 0.1215,-0.1832 0.2362,-0.3708 0.3439,-0.5625 5.6382,-10.5181 12.0143,-20.5471 17.8125,-36.6562 5.8453,-16.2399 6.6223,-38.8751 1.5625,-76.2188 0,-0.01 0,-0.021 0,-0.031 -6.2689,-36.3144 1.5811,-61.4295 12.2188,-79.0938 4.639,-6.5827 15.7115,-18.4188 24,-29.3125 l 0.031,0.031 c 6.5031,-7.7296 12.4315,-12.7364 12.5247,-12.8287 15.4879,-15.8906 25.3985,-41.5619 27.0518,-49.3877 5.19,-24.5666 -0.9666,-53.5144 -14.2953,-85.7212 -0.01,-0.031 -0.021,-0.063 -0.031,-0.094 -9.9129,-32.517 -22.083,-59.781 9.9115,-122.5955 2.1463,-3.415 -14.0671,-11.2002 -14.8804,-9.7482 -35.9528,63.145 -24.4465,101.6162 -12.0936,137.4062 0.013,0.043 0.019,0.082 0.031,0.125 17.3369,46.4322 17.0602,64.5329 14.1728,77.0924 -3.4224,14.8865 -8.9985,22.88 -34.8917,53.0638 -0.096,0.092 -0.1895,0.1855 -0.2811,0.2813 -0.607,0.6539 -5.1677,4.6316 -10.25,10.125 -5.0824,5.4934 -10.355,13.5134 -16.5939,22.9687 -11.4425,17.3416 -19.6251,48.1813 -14.2811,89.875 0,0.012 0,0.02 0,0.031 4.3489,35.8981 4.8713,46.7233 -1.0626,69.2187 -3.6832,13.1143 -9.6485,20.7541 -16,32.4688 -0.012,0.023 -0.019,0.04 -0.031,0.062 l -123.8125,193.875 c -0.065,0.1132 -0.1276,0.2278 -0.1875,0.3437 -22.4048,33.3958 -29.3295,74.8015 -26.799,109.903 2.8007,38.8494 19.858,74.4856 40.4011,96.5779 26.0623,26.6396 33.7938,34.7219 53.764,55.3461 7.123,6.783 15.269,15.7473 21.4383,22.2566 l 53.9738,53.1134 c 16.1541,16.7841 34.4453,35.9002 31.5631,41.9543 -2.7677,5.8136 -57.6572,-0.8052 -120.6008,-4.8885 l -133.81631,-22.5086 c -277.99384,-63.0767 -555.34014,-127.0785 -835.007,-187.7652 -16.18375,-6.8367 -16.4941,-11.6612 -17.69829,-18.1135 -1.46047,-7.8255 4.10437,-18.2558 8.84375,-23.2812 0.1186,-0.1319 0.23325,-0.2674 0.34375,-0.4062 80.49913,-93.3368 129.10921,-157.1016 198.85217,-235.0732 9.53786,-12.0528 16.71627,-19.0966 25.38177,-26.7454 11.99845,-12.5082 17.21444,-14.8444 25.86581,-17.1642 8.66853,-2.3243 15.25369,-1.3824 27.93145,3.608 0.0568,0.022 0.0993,0.04 0.15625,0.062 65.02285,28.6758 129.4995,62.2265 187.375,94.5 l 48,28.5938 c 0.14344,0.087 0.28935,0.1708 0.4375,0.25 28.77345,14.9412 64.84924,16.7991 98.78125,13.0312 33.93201,-3.7678 65.72814,-13.2723 86.625,-23.125 0.0209,-0.01 0.0417,-0.021 0.0625,-0.031 15.081,-7.23 21.90079,-15.7595 32.77327,-28.8483 2.96009,-3.0251 9.13864,-10.1269 12.18019,-13.4545 l 16.76119,-20.9623 24.888,-30.2008 c 11.48283,-15.8436 19.89546,-27.8759 22.73029,-53.6763 -0.26977,-27.068 -0.40418,-46.9232 -4.66377,-74.4012 -7.42067,-51.4131 -23.0289,-56.7642 -57.41903,-83.6835 L 666.18715,1306.5597 c 2e-5,-0.01 2e-5,-0.021 0,-0.031 -4.60997,-3.1267 -6.74898,-7.3138 -6.9375,-10.75 -0.18033,-3.2867 0.86487,-6.135 5.0625,-8.8437 l 57.34375,-20.8437 c 10.4225,-2.5073 15.29239,0.6295 26.6875,4.5 0.0348,0.012 0.0588,0.019 0.0937,0.031 l 49.40625,20.4375 c 14.85308,7.2838 25.37986,16.6379 35.40625,27 l 0.0937,0.094 15.125,13.6876 c 0.08,0.079 0.16958,0.1709 0.25,0.25 6.89886,6.7854 16.59577,17.2306 27.84108,22.1111 11.27325,4.8926 25.38946,5.6981 40.61652,-0.2669 l 21.68234,-8.4758 25.29472,-9.8239 c 8.64455,-3.4302 13.09405,-5.3372 22.28375,-9.4502 14.09789,-6.0066 26.12909,-19.643 27.98389,-33.6711 1.8548,-14.0281 -3.0724,-31.8416 -17.72424,-41.7645 -32.94283,-30.8213 -221.75688,-132.6875 -233.61998,-134.0069 -5.80649,-3.0668 -6.93672,-7.4346 -1.1189,-11.1851 12.32037,-8.866 16.33577,-11.7005 32.28765,-22.6346 21.33522,-14.6241 38.52834,-26.7949 49.918,-34.1721 43.06952,-27.8965 97.64134,-63.55296 126.21565,-81.00694 28.5743,-17.45399 57.27562,-34.95818 84.42542,-51.849 1.5713,-1.24864 -10.1602,-19.30244 -11.3042,-18.64546 z"
         style="color:#fffa69;font-style:normal;font-variant:normal;font-weight:normal;font-stretch:normal;font-size:medium;line-height:normal;font-family:Sans;-inkscape-font-specification:Sans;text-indent:0;text-align:start;text-decoration:none;text-decoration-line:none;letter-spacing:normal;word-spacing:normal;text-transform:none;writing-mode:lr-tb;direction:ltr;baseline-shift:baseline;text-anchor:start;display:inline;overflow:visible;visibility:visible;fill:#fffa69;fill-opacity:1;stroke:none;stroke-width:0.34299999;marker:none;enable-background:accumulate" />
    </g>
  </g>
</svg>
