<?xml version="1.0" encoding="UTF-8" standalone="no"?>
<!-- Created with Inkscape (http://www.inkscape.org/) -->

<svg
   id="svg2"
   version="1.1"
   inkscape:version="1.4.3 (fcd0343856, 2026-01-01)"
   width="760.58679"
   height="855.64594"
   sodipodi:docname="USAtodov.svg"
   xmlns:inkscape="http://www.inkscape.org/namespaces/inkscape"
   xmlns:sodipodi="http://sodipodi.sourceforge.net/DTD/sodipodi-0.dtd"
   xmlns="http://www.w3.org/2000/svg"
   xmlns:svg="http://www.w3.org/2000/svg">
  <defs
     id="defs1" />
  <sodipodi:namedview
     pagecolor="#ffffff"
     bordercolor="#666666"
     borderopacity="1"
     objecttolerance="10"
     gridtolerance="10"
     guidetolerance="10"
     inkscape:pageopacity="0"
     inkscape:pageshadow="2"
     inkscape:window-width="1210"
     inkscape:window-height="933"
     id="namedview4"
     showgrid="false"
     inkscape:zoom="2.2522805"
     inkscape:cx="52.169346"
     inkscape:cy="703.73118"
     inkscape:window-x="0"
     inkscape:window-y="0"
     inkscape:window-maximized="1"
     inkscape:current-layer="svg2"
     fit-margin-top="0"
     fit-margin-left="0"
     fit-margin-right="0"
     fit-margin-bottom="0"
     inkscape:showpageshadow="2"
     inkscape:pagecheckerboard="0"
     inkscape:deskcolor="#d1d1d1" />
  <path
     style="fill:none;stroke:#fffa69;stroke-width:8.5;stroke-linecap:butt;stroke-linejoin:round;stroke-miterlimit:4;stroke-dasharray:none;stroke-opacity:1"
     d="m 348.42208,496.82909 122.74336,93.53343 75.45923,65.51303 c 29.0558,28.88625 61.48539,55.75325 90.54118,84.9716 19.2162,19.89986 39.0551,39.53481 57.94019,59.10356 11.09481,8.14477 39.82937,53.78496 52.8238,51.31207 13.27015,-3.76586 7.87517,-14.59111 3.69788,-36.95178 -4.17729,-22.36067 -28.28087,-178.40915 -31.41908,-182.71299 -5.31927,-6.8144 -80.95619,-76.14758 -86.43699,-77.45838 -5.4808,-1.3108 -18.39163,11.47037 -35.19598,10.79729 -16.80435,-0.67309 -29.05179,-16.87696 -30.85416,-42.22805 -4.22757,-23.95033 -9.24006,-40.42237 -21.51885,-49.98999 -3.13821,-2.60023 -13.1687,-2.90002 -13.1687,-2.90002 l -45.56406,-1.6368 c -19.53327,0.53749 -27.04572,-6.42418 -38.18075,-18.70402 -12.29741,-13.93157 -15.54068,-30.90372 -14.22211,-46.11767 1.31858,-15.21396 4.98471,-22.17976 7.77206,-29.65347 2.84748,-7.63493 4.08706,-15.59118 3.2323,-22.44489 -0.8385,-6.72338 -8.87133,-18.36193 -18.03924,-29.79622 -5.46346,-6.81406 -6.47393,-9.70125 -9.27547,-17.29814 -3.57019,-9.68121 4.3055,-28.52388 2.82474,-41.40972 -3.06822,-26.70012 -14.99558,-36.7093 -33.06115,-68.79603 -13.20384,-23.45169 -19.52914,-42.86437 -21.29811,-55.44787 -0.76754,-5.45989 -2.79884,-31.12781 14.46067,-50.044783 8.01168,-8.78105 13.78793,-15.94291 37.72078,-36.7269 16.24161,-14.1047 38.36414,-30.36235 35.19707,-39.78371 C 450.71158,0.38932693 438.53053,4.4470869 415.98117,7.2630269 398.30221,9.4707569 218.39342,39.138267 98.209964,58.707307 35.129823,68.978417 7.7902833,70.671097 4.4421163,79.216517 c -3.348167,8.54542 37.8662027,53.632373 61.2614547,86.392303 15.536333,21.75524 27.174393,41.83871 33.631783,43.56192 12.600766,3.36262 26.508926,-5.0819 52.189766,-14.13983 9.08995,-3.35491 27.14166,-10.60836 49.91222,-20.31487 32.55514,-12.63659 62.17326,-12.52885 87.37981,8.27173 5.80086,5.07533 10.70066,11.33784 14.98822,16.42427 4.45505,5.28514 14.58309,13.9531 14.75107,29.93702 0.16753,15.94102 -2.20186,37.83375 -9.58353,45.21395 -6.12385,6.12263 -99.71888,60.27248 -102.29201,66.16866 -3.32326,7.61504 12.60961,12.22622 20.70669,15.95388 6.19127,2.85028 17.21795,1.14113 24.39808,-1.1446 6.82047,-2.17124 17.31916,-5.31395 21.11999,-7.33168 5.6989,-3.02535 16.42542,-12.69946 20.78754,-17.45581 2.49194,-2.71714 5.40047,-3.78601 10.58809,-3.69715 7.79002,0.13343 15.51035,4.70711 25.70813,9.81838 9.51089,5.68525 21.04818,9.76368 15.82677,21.2035 -2.22221,5.89397 -19.51198,15.75207 -40.99072,26.40438 -20.80905,10.32018 -23.87063,9.4508 -37.36853,14.86111 -5.95611,2.38736 -29.39471,8.04999 -30.65419,13.5052 -1.25948,5.45521 61.50421,46.31817 111.61933,83.98021 z"
     id="path2857"
     sodipodi:nodetypes="cccccczczzccccczsssssssssssszsscccsssssssssccsszc"
     inkscape:connector-curvature="0" />
</svg>
