<?xml version="1.0" encoding="UTF-8" standalone="no"?>
<!-- Created with Inkscape (http://www.inkscape.org/) -->

<svg
   width="1966.2372"
   height="924.56921"
   id="svg2383"
   sodipodi:version="0.32"
   inkscape:version="1.1.1 (3bf5ae0d25, 2021-09-20)"
   version="1.0"
   sodipodi:docname="Valencia_(Ricardo_Tormo)_track_map.svg"
   inkscape:output_extension="org.inkscape.output.svg.inkscape"
   xmlns:inkscape="http://www.inkscape.org/namespaces/inkscape"
   xmlns:sodipodi="http://sodipodi.sourceforge.net/DTD/sodipodi-0.dtd"
   xmlns:xlink="http://www.w3.org/1999/xlink"
   xmlns="http://www.w3.org/2000/svg"
   xmlns:svg="http://www.w3.org/2000/svg"
   xmlns:rdf="http://www.w3.org/1999/02/22-rdf-syntax-ns#"
   xmlns:cc="http://creativecommons.org/ns#"
   xmlns:dc="http://purl.org/dc/elements/1.1/">
  <sodipodi:namedview
     id="base"
     pagecolor="#ffffff"
     bordercolor="#ffffff"
     borderopacity="0.0"
     inkscape:pageopacity="0.0"
     inkscape:pageshadow="0"
     inkscape:zoom="0.57008381"
     inkscape:cx="1023.5337"
     inkscape:cy="203.47885"
     inkscape:document-units="px"
     inkscape:current-layer="layer1"
     showgrid="false"
     showborder="false"
     inkscape:showpageshadow="false"
     inkscape:window-width="1920"
     inkscape:window-height="1009"
     inkscape:window-x="1912"
     inkscape:window-y="-8"
     inkscape:window-maximized="1"
     fit-margin-top="0"
     fit-margin-left="0"
     fit-margin-right="0"
     fit-margin-bottom="0"
     inkscape:pagecheckerboard="0" />
  <metadata
     id="metadata2388">
    <rdf:RDF>
      <cc:Work
         rdf:about="">
        <dc:format>image/svg+xml</dc:format>
        <dc:type
           rdf:resource="http://purl.org/dc/dcmitype/StillImage" />
        <dc:title>Track map of Circuit Valencia (Ricardo Tormo)</dc:title>
        <dc:date>10-5-2008</dc:date>
        <dc:creator>
          <cc:Agent>
            <dc:title>Will Pittenger</dc:title>
          </cc:Agent>
        </dc:creator>
        <dc:publisher>
          <cc:Agent>
            <dc:title>Will Pittenger</dc:title>
          </cc:Agent>
        </dc:publisher>
        <dc:subject>
          <rdf:Bag>
            <rdf:li>Valencia</rdf:li>
            <rdf:li>Spain</rdf:li>
            <rdf:li>Formula 1</rdf:li>
            <rdf:li>road course</rdf:li>
            <rdf:li>racing</rdf:li>
            <rdf:li>Ricardo Tormo</rdf:li>
            <rdf:li>MotoGP</rdf:li>
            <rdf:li>Valencian Community Grand Prix</rdf:li>
          </rdf:Bag>
        </dc:subject>
        <dc:description>Created in Inkscape with data from Google Earth.  Don't confuse the track with the street circuit in downtown Valencia.</dc:description>
        <cc:license
           rdf:resource="http://creativecommons.org/licenses/by-sa/4.0/" />
      </cc:Work>
      <cc:License
         rdf:about="http://creativecommons.org/licenses/by-sa/4.0/">
        <cc:permits
           rdf:resource="http://creativecommons.org/ns#Reproduction" />
        <cc:permits
           rdf:resource="http://creativecommons.org/ns#Distribution" />
        <cc:requires
           rdf:resource="http://creativecommons.org/ns#Notice" />
        <cc:requires
           rdf:resource="http://creativecommons.org/ns#Attribution" />
        <cc:permits
           rdf:resource="http://creativecommons.org/ns#DerivativeWorks" />
        <cc:requires
           rdf:resource="http://creativecommons.org/ns#ShareAlike" />
      </cc:License>
    </rdf:RDF>
  </metadata>
  <g
     inkscape:label="Layer 1"
     inkscape:groupmode="layer"
     id="layer1"
     transform="translate(-572.76069,-933.58013)">
    <path
       id="path3573"
       style="fill:none;stroke:#fffa69;stroke-width:30;stroke-linecap:butt;stroke-linejoin:round;stroke-miterlimit:4;stroke-dasharray:none;stroke-opacity:1"
       d="m 1628.3584,1398.3296 c -74.339,30.7097 -153.2198,74.4702 -227.9134,110.1141 -23.8434,11.3781 -43.3379,5.9571 -57.4857,-5.8235 -35.0473,-29.1834 -68.7954,-59.0593 -108.7642,-82.6394 -35.4493,-20.9136 -59.8808,-30.0534 -92.3167,-40.4283 -15.9285,-5.0948 -43.6924,-10.8756 -60.335,-12.8771 -44.0625,-5.2992 -82.76084,-4.351 -126.96461,0.9092 -32.19857,3.8317 -70.27826,13.474 -99.86873,27.0515 -40.61704,18.6371 -68.18053,32.963 -98.80258,57.135 -27.42401,21.6479 -55.03912,49.1073 -74.63847,73.572 -33.78037,42.1661 -57.0382,78.832 -81.82451,127.2969 -6.87359,13.4403 -14.56955,28.9667 -13.92276,43.5281 0.55604,12.5193 5.35215,28.221 13.85498,36.7382 9.31904,9.3349 25.32863,16.7745 39.61065,16.8178 231.55188,0.6999 469.18293,-0.4801 703.77423,-0.4004 307.4098,0.1043 614.5698,-2.632 921.5397,-2.3795 23.5942,0.019 55.0049,-4.4741 77.9593,-19.7939 22.9547,-15.3198 37.4529,-41.466 42.6516,-63.8743 41.952,-180.8287 88.7585,-393.7845 133.1717,-563.6119 4.7201,-18.0461 -2.7482,-43.9273 -22.79,-57.1302 -20.0418,-13.2028 -52.6577,-13.7276 -74.4789,8.4687 -42.0298,42.7519 -93.7576,105.0886 -140.9321,148.3227 -24.3665,22.3313 -36.3587,43.8985 -32.211,82.7481 8.3769,78.4598 16.8045,145.0339 19.8197,221.7171 0.5206,13.2387 0.4042,33.9257 -7.2933,48.2472 -7.6974,14.3213 -22.9759,22.2771 -35.2684,23.0935 -78.6244,5.222 -145.4491,0.9944 -221.4416,1.0025 -20.5267,0 -37.9994,-15.1131 -50.3405,-31.7403 -10.4589,-14.0913 -16.624,-40.5045 -17.1755,-57.8189 -0.4599,-14.4381 5.2567,-36.5107 18.9084,-56.3715 74.6186,-108.555 132.781,-193.5329 208.8925,-303.4339 26.933,-38.8897 -10.541,-104.1035 -54.5463,-105.7918 -183.6463,-7.0457 -366.9593,-2.8695 -553.1444,-3.6683 -18.5653,-0.08 -41.1223,5.8524 -57.9564,13.7288 -78.6414,36.7959 -160.1857,74.5043 -239.4648,110.3451 -18.5098,8.3681 -36.2453,23.5786 -44.4108,41.6319 -7.09,15.6755 -9.9415,39.865 -7.0671,56.9153 3.2378,19.2057 9.8183,37.2521 25.0446,53.8781 13.8037,15.0727 32.6877,22.5138 51.8933,24.3507 73.4181,7.0227 150.8155,5.9087 224.7272,1.4443 14.6142,-0.8827 29.5899,-8.1389 40.8507,-17.4851 38.5504,-31.9959 70.3641,-73.5952 108.5826,-106.5406 16.2262,-13.9876 34.4324,-29.7978 54.7511,-34.258 34.8462,-7.6489 43.2364,-6.2479 103.7272,-3.8233 44.0293,1.7647 46.1305,2.141 65.0422,8.5082 0,0 18.728,7.1434 31.3853,24.0783 14.8785,19.9068 12.8721,36.0001 10.3672,51.769 -3.3396,21.0222 -21.228,34.6702 -34.0425,40.3302 -94.3753,41.6836 -163.3213,75.7328 -261.1539,116.1477 z"
       sodipodi:nodetypes="ssssssssssssssccsssssssssssssssssssssssssssssssss"
       inkscape:connector-curvature="0" />
  </g>
</svg>
