<?xml version='1.0' encoding='UTF-8'?>
<svg xmlns:inkscape="http://www.inkscape.org/namespaces/inkscape" xmlns:sodipodi="http://sodipodi.sourceforge.net/DTD/sodipodi-0.dtd" xmlns="http://www.w3.org/2000/svg" xmlns:svg="http://www.w3.org/2000/svg" xmlns:rdf="http://www.w3.org/1999/02/22-rdf-syntax-ns#" xmlns:cc="http://creativecommons.org/ns#" xmlns:dc="http://purl.org/dc/elements/1.1/" inkscape:version="1.1.1 (3bf5ae0d25, 2021-09-20)" sodipodi:docname="Red Bull Ring moto 2022.svg" id="svg154" version="1.1" viewBox="0 0 680.31 510.24" stroke-miterlimit="10" clip-rule="evenodd">
  <metadata id="metadata158">
    <rdf:RDF>
      <cc:Work rdf:about="">
        <dc:format>image/svg+xml</dc:format>
        <dc:type rdf:resource="http://purl.org/dc/dcmitype/StillImage"/>
      </cc:Work>
    </rdf:RDF>
  </metadata>
  <sodipodi:namedview inkscape:current-layer="svg154" inkscape:window-maximized="1" inkscape:window-y="-8" inkscape:window-x="-8" inkscape:cy="221.3868" inkscape:cx="255.67566" inkscape:zoom="0.6707717" showgrid="false" id="namedview156" inkscape:window-height="705" inkscape:window-width="1366" inkscape:pageshadow="2" inkscape:pageopacity="0" guidetolerance="10" gridtolerance="10" objecttolerance="10" borderopacity="1" bordercolor="#666666" pagecolor="#ffffff" inkscape:pagecheckerboard="0"/>
  <desc id="desc10">SVG generated by Lineform</desc>
  <defs id="defs12"/>
  <g id="g152" transform="">
    <path id="path14" fill="none" stroke-width="7.34" stroke="#000000" d="M 151.21594,836.47417 L 125.97937,863.03764 L 66.76,931.04 C 66.76,931.04 54.660000000000004,942.76 71.88000000000001,946.49 L 143.78000000000003,948.27 L 193.99000000000004,938.73 L 268.61,925.11 L 336.96000000000004,918.21 L 407.96000000000004,912.74 C 407.96000000000004,912.74 425.87000000000006,908.97 418.09000000000003,891.24 C 418.09000000000003,891.24 397.12,849.47 350.24,843.9100000000001 C 350.24,843.9100000000001 338.72,839.8 288.07,849.69 C 288.07,849.69 252.53,861.53 235.60999999999999,853.44 C 235.60999999999999,853.44 211.98,843.96 213.36999999999998,817.97 C 213.36999999999998,817.97 213.92,811.83 217.60999999999999,804.24 L 251.7,740.96 C 251.7,740.96 271.91999999999996,717.8 299.16999999999996,735.46 L 332.46,770.24 C 332.46,770.24 348.62,782.01 370.08,783.44 L 536.13,783.07 L 576.04,783.05 C 576.04,783.05 591.7099999999999,782.7 597.75,768.33 L 616.07,699.1700000000001 C 616.07,699.1700000000001 620.47,687.04 607.4200000000001,680.6800000000001 L 567.8000000000001,661.76 C 514.2900000000001,648.22 460.7800000000001,634.6800000000001 407.2800000000001,621.14 C 371.6400000000001,612.3 336.0000000000001,603.46 300.3700000000001,594.62 C 296.23000000000013,593.73 291.4300000000001,591.98 287.54000000000013,593.9 C 287.54000000000013,593.9 282.16000000000014,603.68 278.95000000000016,609.62 C 278.95000000000016,609.62 270.53000000000014,623.63 250.27000000000015,649.03 L 227.41000000000014,681.16 L 207.73149000000015,720.38986 L 195.76225000000017,743.85655 C 195.76225000000017,743.85655 191.26555000000016,751.86466 188.74756000000016,755.70049 C 186.69363000000016,758.8293799999999 184.45263000000017,761.83501 182.15901000000017,764.7927 C 179.50187000000017,768.2191599999999 176.70012000000017,771.53316 173.85742000000016,774.80731 M 173.85742000000016,774.8073099999999 C 171.71697000000017,777.2726299999999 169.60904000000016,779.5462699999999 167.26887000000016,782.05472 C 166.27286000000015,783.12235 164.90985000000018,784.52518 164.10636000000017,785.7443099999999 C 163.69332000000017,786.37101 163.38828000000018,787.1055899999999 163.31573000000017,787.8526499999999 C 163.21243000000018,788.9163599999999 163.52784000000017,789.9939199999999 163.84282000000016,791.0151599999999 C 165.76877000000016,797.2594899999999 169.32897000000017,802.8770999999999 172.07204000000016,808.80808 C 172.57932000000017,809.9049 173.01270000000017,809.98207 173.19857000000016,811.17614 C 173.30751000000015,811.87596 173.65628000000015,813.5781099999999 173.33034000000015,814.20688 C 172.81894000000014,815.19326 171.12812000000014,816.82097 170.30654000000015,817.56895 C 169.44907000000015,818.34961 165.87679000000014,822.2083 164.84680000000014,823.14603 C 157.53424000000015,829.80354 151.21594000000013,836.47417 151.21594000000013,836.47417 L 151.21594,836.47417" sodipodi:nodetypes="cccccccccccccccccccccccccccccccccssssssssssssc" transform="translate(-54.660000000000004, -591.98)"/>
    <g id="g96">
      </g>
    </g>
  </svg>