<?xml version="1.0" encoding="UTF-8" standalone="no"?>
<!-- Created with Inkscape (http://www.inkscape.org/) -->

<svg
   version="1.0"
   width="1331.9034"
   height="908.8739"
   id="svg2383"
   sodipodi:docname="Australiav.svg"
   inkscape:version="1.4.3 (fcd0343856, 2026-01-01)"
   xmlns:inkscape="http://www.inkscape.org/namespaces/inkscape"
   xmlns:sodipodi="http://sodipodi.sourceforge.net/DTD/sodipodi-0.dtd"
   xmlns="http://www.w3.org/2000/svg"
   xmlns:svg="http://www.w3.org/2000/svg">
  <g
     transform="translate(-1269.3965,-826.97145)"
     id="layer1">
    <path
       d="m 1798.3366,1171.1312 c 143.734,-2.1482 288.6623,-3.4259 432.347,-5.4758 112.806,-1.6093 155.6825,-79.4301 176.2219,-182.78914 5.5023,-27.6153 4.3434,-58.0929 15.3236,-83.1854 13.9038,-31.7738 40.674,-57.3268 75.2496,-63.205 38.8676,-6.6079 71.7789,19.8692 84.2676,49.5301 13.1671,31.2722 16.0217,63.6198 0.5589,91.6616 -48.4195,87.80934 -95.1277,167.04554 -148.0346,251.18664 -7.6579,12.1789 -21.6898,27.9038 -33.1119,36.6773 -13.7525,10.5635 -31.0233,20.7155 -46.7961,27.6362 -19.9824,8.7678 -39.028,18.4001 -60.7433,21.8954 -63.8586,10.2789 -124.4862,17.8727 -184.9736,25.7258 -12.4699,1.6189 -20.8709,6.1739 -22.9932,16.1441 -4.4381,20.849 -0.8684,29.7928 19.1615,36.6619 29.5011,10.1172 59.4451,17.1122 90.8442,20.5223 32.278,3.5056 54.3039,1.2615 87.8237,3.2852 11.7226,0.7077 26.8863,14.8294 33.6631,23.261 5.8991,7.3395 8.5188,21.2487 7.12,31.1954 -1.8849,13.4036 -6.0566,24.236 -14.5048,34.1971 -8.7376,10.3025 -22.3018,17.5333 -33.6614,21.62 -48.4755,17.4394 -92.1809,40.402 -142.8297,45.1504 -54.4276,5.1026 -112.9685,-11.9923 -168.015,-11.4873 -24.4904,0.2247 -52.0255,3.8972 -72.24,17.2387 -52.7552,34.8184 -93.2724,85.8162 -145.025,123.4049 -17.5687,12.7604 -40.1803,21.0904 -61.2946,24.08 -20.1136,2.848 -43.7869,0.9841 -62.389,-6.5672 -18.2476,-7.4075 -36.8224,-22.0213 -48.16,-38.3091 -14.5667,-20.9268 -23.3626,-48.0112 -29.5528,-73.3346 -5.8498,-23.9311 -3.7671,-49.6944 -6.5672,-74.429 -1.578,-13.9394 -1.4287,-30.907 -8.4855,-39.6746 -4.9832,-6.1912 -20.448,-7.4005 -28.1825,-2.4616 -22.5479,14.3981 -37.0711,44.5245 -60.7466,58.5544 -15.7282,9.3204 -38.267,8.5528 -56.3684,6.2901 -14.0052,-1.7507 -31.7368,-10.5492 -41.0477,-21.3444 -15.8636,-18.3926 -25.5385,-40.4043 -35.0239,-63.753 -14.2297,-35.0271 -22.0995,-64.7629 -29.5449,-101.5094 -3.8649,-19.0753 -3.5739,-47.0026 0.5464,-65.9561 5.0009,-23.004 13.668,-42.5338 27.0912,-61.2867 11.3865,-15.9077 25.8114,-29.9235 43.7756,-38.5848 22.8988,-11.0405 53.3611,-24.5489 79.0875,-25.1791 121.7214,-2.9819 242.4154,-5.5212 367.2099,-7.3863 z"
       id="path2419"
       style="fill:none;stroke:#fffa69;stroke-width:15;stroke-linecap:butt;stroke-linejoin:round;stroke-miterlimit:4;stroke-dasharray:none;stroke-opacity:1" />
  </g>
</svg>
