<?xml version="1.0" encoding="UTF-8" standalone="no"?>
<svg
   inkscape:export-ydpi="90.015755"
   inkscape:export-xdpi="90.015755"
   inkscape:export-filename="D:\Images\Race Tracks\Catalunya.png"
   inkscape:output_extension="org.inkscape.output.svg.inkscape"
   sodipodi:docname="Cataloniav.svg"
   version="1.0"
   inkscape:version="1.4.3 (fcd0343856, 2026-01-01)"
   sodipodi:version="0.32"
   id="svg3942"
   height="517.72412"
   width="1408.546"
   xmlns:inkscape="http://www.inkscape.org/namespaces/inkscape"
   xmlns:sodipodi="http://sodipodi.sourceforge.net/DTD/sodipodi-0.dtd"
   xmlns="http://www.w3.org/2000/svg"
   xmlns:svg="http://www.w3.org/2000/svg">
  <g
     transform="translate(-930.50284,-997.61967)"
     id="layer1"
     inkscape:groupmode="layer"
     inkscape:label="Layer 1">
    <path
       d="m 1266.9872,1446.6217 c -54.7206,0.1029 -109.0225,-0.4358 -164.3496,-2.0528 -21.9192,-0.6376 -52.448,-10.0989 -71.8672,-19.9883 -23.6499,-12.0439 -43.63354,-25.4709 -61.57029,-44.5429 -13.56749,-14.4262 -23.40728,-34.8242 -28.7129,-53.836 -4.26529,-15.284 -5.09812,-33.1078 -2.53906,-49.0527 2.62519,-16.3569 8.88512,-28.3508 17.2461,-42.3555 7.59054,-12.7141 19.00866,-26.0785 32.30078,-32.7246 28.18187,-14.0909 60.52347,-23.3202 89.58207,-36.6758 37.2176,-17.1055 46.8331,-37.6736 46.3808,-77.2695 -0.2743,-24.0146 5.349,-49.5262 51.5156,-50.6699 231.1479,-5.7262 460.0569,-0.264 691.3536,-0.7735 130.8026,-0.2881 239.607,-0.8672 367.8749,-0.7734 34.3163,0.026 59.9073,21.6838 72.2422,36.1094 11.1936,13.0908 19.4803,34.96 20.3379,52.7851 1.2581,26.1511 2.2487,51.2109 3.1641,75.5352 l -0.01,0.016 c 0.942,25.0508 1.8399,50.0361 2.9687,76.7969 0.7083,16.7887 -1.1655,36.0117 -8.1699,50.248 -6.2495,12.702 -20.0727,31.0873 -37.6679,38.0782 -8.8958,3.5345 -17.4607,6.833 -25.8262,9.9746 l -0,0.01 c -39.6019,15.5266 -74.7249,26.2123 -117.3574,41.6641 -10.2079,3.6998 -22.1342,6.7845 -32.3028,4.7871 -12.1635,-2.3893 -26.5016,-10.3527 -34.2715,-19.6387 -8.5804,-10.2546 -15.0022,-24.6754 -17.3164,-38.5605 -1.6737,-10.0422 2.4193,-23.3179 7.045,-31.5293 10.6807,-18.9601 29.3259,-26.0009 48.1328,-32.3008 17.1843,-5.7564 25.9519,-8.5325 29.9101,-19.1426 11.7246,-31.4286 20.8657,-61.8762 33.6426,-97.8027 7.6939,-21.6342 -15.2641,-35.0557 -33.4512,-24.4922 -137.8729,80.08 -262.7946,157.2146 -400.9745,241.9317 -18.2817,11.2084 -38.735,21.1265 -59.8184,23.9277 -13.0682,1.7363 -29.4649,1.1705 -41.2441,-1.9102 -14.142,-3.6987 -31.1417,-12.9869 -40.7481,-24.7734 -46.6227,-57.2038 -70.6424,-100.2735 -112.289,-161.8945 -9.3222,-13.7932 -14.7496,-31.464 -12.6895,-47.1055 5.2216,-39.6454 -11.307,-67.8594 -37.8848,-69.3906 -43.8466,-2.5262 -72.724,1.1177 -113.2793,2.334 -26.9443,0.8081 -52.8938,11.4067 -76.9179,24.205 -46.7414,24.9004 -88.4512,49.3385 -131.9512,78.0411 -11.4789,7.5741 -21.5062,19.7597 -24.2051,31.455 -2.0865,9.0417 2.9857,24.5297 9.8496,31.6016 6.2961,6.4869 16.4683,9.7387 26.2481,9.498 69.9924,-1.7221 131.0654,-0.8617 202.873,2.3204 14.9265,0.6615 35.983,11.8785 47.0215,21.6074 12.49,11.0081 22.5711,21.5834 29.4863,36.7968 5.0484,11.1066 8.8824,25.2528 7.25,37.0879 -1.5579,11.2946 -9.4668,27.2115 -16.3984,34.8399 -8.2179,9.044 -20.4352,16.6544 -33.3535,16.8203 -33.4451,0.4294 -66.4274,0.7234 -99.2598,0.7852 z"
       style="fill:none;fill-rule:evenodd;stroke:#fffa69;stroke-width:10;stroke-linecap:butt;stroke-linejoin:round;stroke-miterlimit:4;stroke-dasharray:none;stroke-opacity:1"
       id="path3965" />
  </g>
</svg>
