<?xml version="1.0" encoding="UTF-8" standalone="no"?>
<!-- Created with Inkscape (http://www.inkscape.org/) -->

<svg
   width="1422.9579"
   height="702.55042"
   id="svg3036"
   version="1.1"
   inkscape:version="1.4.3 (fcd0343856, 2026-01-01)"
   sodipodi:docname="Francev.svg"
   inkscape:export-filename="E:\Images\Maps\Race Tracks\Europe\France\LeMans\Bugatti Circuit.png"
   inkscape:export-xdpi="90"
   inkscape:export-ydpi="90"
   xmlns:inkscape="http://www.inkscape.org/namespaces/inkscape"
   xmlns:sodipodi="http://sodipodi.sourceforge.net/DTD/sodipodi-0.dtd"
   xmlns:xlink="http://www.w3.org/1999/xlink"
   xmlns="http://www.w3.org/2000/svg"
   xmlns:svg="http://www.w3.org/2000/svg"
   xmlns:rdf="http://www.w3.org/1999/02/22-rdf-syntax-ns#"
   xmlns:cc="http://creativecommons.org/ns#"
   xmlns:dc="http://purl.org/dc/elements/1.1/">
  <g
     inkscape:label="Layer 1"
     inkscape:groupmode="layer"
     id="layer1">
    <path
       style="fill:none"
       d="M 831.09323,890.6894900000001 C 761.9851,851.4578000000001 692.8565299999999,812.2564400000001 623.94764,772.6792700000001 C 605.6043,762.1439500000001 587.84262,750.5708500000001 569.33653,740.3520000000001 C 556.7707800000001,733.4133400000001 543.83817,727.0689800000001 530.73212,721.2067300000001 C 507.1169,710.6438 483.21689000000003,700.6354800000001 459.17273,691.0764600000001 C 440.3231,683.5825800000001 421.30724,676.3848400000002 402.05077,670.0480400000001 C 388.5615,665.6090800000002 374.74962,662.0625400000001 360.9355,658.7491900000001 C 346.39787,655.2623100000001 331.73789,652.0951300000002 316.99553,649.6473400000001 C 304.01385999999997,647.4918900000001 290.88406,645.8366300000001 277.76340999999996,644.9394900000001 C 266.40322,644.1627300000001 254.85089999999997,643.6238500000001 243.55299999999997,644.6256300000001 C 233.61323999999996,645.5069900000001 223.36818999999997,647.0408700000002 214.05044999999996,650.5889100000002 C 193.97025999999994,658.2351000000002 174.66812999999996,668.4902100000002 155.35919999999996,678.2083300000002 C 127.06648999999996,692.4479600000002 99.58519799999996,708.5261500000001 71.24552999999996,722.4621600000002 C 67.88564299999996,724.1143800000002 63.95177799999996,724.7493000000002 60.26053599999996,724.9730100000002 C 57.04692499999996,725.1677700000001 53.53154099999996,724.8177900000002 50.53097099999996,723.7175800000001 C 47.254401999999956,722.5161700000001 44.010742999999955,720.5036500000001 41.42911899999996,718.0681600000001 C 32.921129999999955,710.0417600000002 25.795605999999957,700.2797300000002 17.262132999999956,692.3318900000002 C 15.124469999999956,690.3409300000002 12.192929999999956,689.1312000000001 9.415708799999955,688.2517500000001 C 5.915791199999955,687.1434400000002 2.0979476999999536,686.4225400000001 -1.5692848000000446,686.3686100000001 C -5.016143600000044,686.3179100000001 -8.768688300000044,686.4748700000001 -11.926565000000044,687.9378900000002 C -50.09318700000004,705.6201500000002 -87.59591800000003,725.3374800000001 -125.54278000000002,743.8044300000001 M -125.54278000000004,743.8044300000001 C -138.54536000000004,750.1321800000002 -151.39516000000003,756.9701000000001 -164.7749000000001,762.3219900000001 M -164.77490000000003,762.3219900000001 C -171.79587000000004,765.1303800000002 -179.35017000000002,766.6091300000002 -186.74489000000003,768.2852700000002 C -195.04302,770.1661800000002 -203.40981000000002,772.0991000000002 -211.85345000000004,772.9931300000002 C -221.19503000000003,773.9822400000002 -230.69767000000004,773.3931700000002 -240.10057000000003,773.9347000000001 C -250.67989000000003,774.5439800000001 -261.35573,774.8304400000002 -271.80012999999997,776.4455500000001 M -271.80013,776.4455500000001 C -281.65182000000004,777.9690100000001 -291.58972,780.1074400000001 -300.98883,783.3504100000001 C -309.47957,786.2799600000001 -317.75277,790.3831700000002 -325.46967,794.9631200000001 C -330.62091,798.0203600000001 -335.74852,801.7307000000001 -339.59323,806.2619700000001 C -344.53651,812.0879800000001 -348.94362,818.9832900000001 -351.83365000000003,826.0349500000001 C -354.17457,831.7468000000001 -354.96473000000003,838.3398000000001 -355.28608,844.5525100000001 C -355.59245000000004,850.4756000000001 -354.78169,856.5854300000001 -353.71679,862.4423600000001 C -352.89854,866.9427100000001 -351.39841,871.3961100000001 -349.63665000000003,875.6243500000002 C -347.73675000000003,880.1841100000001 -345.58556000000004,884.8010700000002 -342.7318,888.8063500000002 C -339.62228000000005,893.1705900000002 -335.79908,897.2069100000001 -331.74681000000004,900.7329100000002 C -327.74342,904.2163800000002 -323.30669000000006,907.4882700000002 -318.56482000000005,909.8347600000002 C -313.1586500000001,912.5099800000003 -307.21571000000006,914.5640200000003 -301.30268000000007,915.7980400000001 C -295.1845200000001,917.0748700000001 -288.74910000000006,917.3673300000003 -282.4712600000001,917.3673300000003 C -275.9855800000001,917.3673300000003 -269.4691700000001,916.5807100000002 -263.01213000000007,915.7980400000001 C -252.20704000000006,914.4883300000001 -241.42859000000007,912.8540800000002 -230.68487000000007,911.0901900000001 C -220.40018000000006,909.4016600000002 -210.12386000000006,907.5875000000002 -199.92688000000007,905.4407700000002 C -190.24625000000006,903.4027400000002 -180.63674000000006,900.9948100000001 -171.05204000000006,898.5359100000002 C -160.65452000000005,895.8684800000001 -150.24381000000005,893.1854800000001 -139.98020000000005,890.0617700000001 C -133.40015000000005,888.0591500000002 -126.94873000000005,885.6145500000001 -120.52107000000005,883.1569200000001 C -109.16350000000006,878.8143200000002 -97.95789800000006,874.0711300000002 -86.62452100000004,869.6610700000001 C -72.95396100000005,864.3415600000001 -59.36446700000005,858.7680600000001 -45.50925900000004,853.9682200000001 C -30.07115000000004,848.6200200000001 -14.469129000000038,843.5931200000001 1.2554277999999641,839.2169500000001 M 1.255427799999957,839.2169500000001 C 7.710095999999957,837.4206000000001 14.412172999999955,835.6712000000001 21.028415999999957,835.4506600000001 C 26.966451999999958,835.25273 33.35431199999996,836.0008900000001 38.91826299999995,837.9615200000001 C 44.33930599999995,839.87179 49.601208999999955,843.30721 53.983396999999954,847.0633700000001 C 57.65687099999995,850.2120600000001 60.64045299999995,854.4627100000001 63.085248999999955,858.6760800000001 C 65.55754499999995,862.93685 67.45865799999996,867.72972 68.73467399999994,872.4857800000001 M 68.73467399999996,872.4857800000001 C 69.76027599999996,876.3084800000001 70.38196799999996,880.49368 69.99010199999995,884.4123500000001 C 69.44039799999995,889.90939 68.13301399999995,895.6585500000001 65.90996199999995,900.7329100000001 C 63.32053999999995,906.64355 59.49493899999995,912.18739 55.55268199999995,917.36733 C 50.49770599999995,924.0093300000001 44.923438999999945,930.39543 38.918262999999946,936.19875 C 32.47377899999994,942.42661 25.355440999999942,948.03748 18.203703999999945,953.4608800000001 C 12.801161999999945,957.55781 7.252380799999946,961.64503 1.2554277999999428,964.75973 M 1.2554277999999464,964.75973 C -6.243468500000055,968.6545100000001 -14.286669000000055,971.66677 -22.283844000000055,974.4893000000001 C -32.07189600000005,977.9439100000001 -42.07592800000006,980.8709800000001 -52.10025500000007,983.5911500000001 M -52.100255000000054,983.5911500000001 C -62.895106000000055,986.5204100000001 -73.77605500000007,989.2686000000001 -84.74137900000008,991.43757 M -84.74137900000005,991.43757 C -92.81671000000006,993.0348900000001 -101.05174000000005,993.8145100000002 -109.22222000000005,994.8900000000001 C -154.30280000000005,1000.8239900000001 -199.36569000000003,1006.9173600000001 -244.49457000000004,1012.4659900000001 C -288.71031000000005,1017.9023500000001 -333.2622600000001,1021.7970500000001 -377.25607000000014,1027.84498 M -377.25607,1027.84498 C -380.44543000000004,1028.28343 -383.54348000000005,1030.00978 -386.04406,1031.92512 C -388.46057,1033.7760700000001 -390.46344,1036.4819300000001 -392.00734,1039.14383 C -393.49739,1041.71288 -395.21457,1044.6656500000001 -395.14591,1047.61797 C -394.90071,1058.1615000000002 -393.42023,1069.2570500000002 -391.06577000000004,1079.63138 C -390.07242,1084.0083200000001 -387.93711,1088.5369500000002 -385.10249000000005,1091.8718000000001 C -382.60154000000006,1094.81409 -378.71903000000003,1097.0589800000002 -375.05907,1098.4628000000002 C -371.08184,1099.9883100000002 -366.53427,1100.55087 -362.19093000000004,1100.6597900000002 C -333.16082000000006,1101.3878200000001 -304.01934000000006,1101.0620400000003 -274.93870000000004,1100.9736500000001 C -269.59969000000007,1100.95745 -264.23345000000006,1100.97665 -258.93199000000004,1100.3459400000002 C -154.27889000000005,1087.8990900000001 -49.68997100000004,1074.6424800000002 54.924968000000035,1061.7415300000002 M 54.92496799999998,1061.7415300000002 C 136.95029999999997,1051.6263000000001 218.91653999999997,1040.7672900000002 300.98883,1031.2974100000001 C 308.67963000000003,1030.41001 316.51869,1030.21026 324.21424,1030.6696900000002 C 330.53763000000004,1031.0472100000002 337.06912,1031.89577 343.04566,1033.8082600000002 C 347.53102,1035.24358 351.76768,1037.9421000000002 355.59994,1040.7131200000001 C 358.56792,1042.8592 361.35452,1045.5712 363.44636,1048.5595400000002 C 365.74852000000004,1051.84834 367.50217000000004,1055.7052400000002 368.78193000000005,1059.5445300000001 C 370.64074000000005,1065.12095 370.78356,1071.3431500000002 372.86207,1076.8066700000002 C 374.44522,1080.9681 377.14599000000004,1084.78581 379.76692,1088.41937 C 381.74923,1091.16757 384.05473,1093.8036100000002 386.67178,1095.9519400000001 C 391.0642,1099.5576600000002 395.62805000000003,1103.35623 400.79534,1105.6815100000001 C 410.27471,1109.9472300000002 420.47984,1113.0277 430.61175000000003,1115.7249300000003 C 512.43993,1137.5085400000003 594.4916900000001,1159.0433400000002 676.67561,1179.1240400000002 C 682.26702,1180.49024 688.2098100000001,1180.2924600000001 693.93774,1180.06561 C 698.7763299999999,1179.8739800000003 703.8498199999999,1179.4138500000004 708.3751599999999,1177.8686100000002 C 712.4285799999999,1176.4845100000002 716.5101199999999,1174.1663800000001 719.67401,1171.27761 C 723.7288299999999,1167.5753800000002 726.92856,1162.7225000000003 730.0312899999999,1158.09562 C 732.8918399999999,1153.8298900000002 735.5854499999999,1149.3130300000003 737.5638599999999,1144.5997700000003 C 739.1424999999998,1140.8388900000002 740.3942599999999,1136.7234500000002 740.7024299999998,1132.6732000000002 C 741.1265899999999,1127.0985100000003 740.4516599999998,1121.3326000000002 739.7608599999999,1115.7249300000003 C 738.6731399999999,1106.8951800000002 736.7262799999999,1098.1647900000003 735.3668599999999,1089.3609400000003 C 734.5292799999999,1083.9366000000002 733.4706999999999,1078.5056800000002 733.1698599999999,1073.0403800000001 C 732.8429899999999,1067.1022100000002 732.6401199999999,1060.9994700000002 733.4837199999998,1055.15054 C 734.2094099999998,1050.1191000000003 735.7564899999999,1045.0129100000001 737.8777099999999,1040.3992600000001 C 739.9412499999999,1035.9110500000002 742.6280399999998,1031.3931800000003 746.0379999999999,1027.8449800000003 C 750.3698499999999,1023.3375200000003 755.5308899999999,1019.0183900000002 761.1031299999999,1016.2322700000002 C 767.0389799999998,1013.2643400000002 773.9409899999998,1011.6094000000003 780.5622599999998,1010.5828500000002 C 787.4368399999998,1009.5170200000002 794.6567699999998,1009.2529600000003 801.5906799999998,1009.9551300000002 C 811.1865699999998,1010.9268700000002 820.7909099999998,1013.0640600000002 830.1516599999998,1015.6045600000002 C 870.9033999999998,1026.6645300000002 911.2394999999998,1039.53545 951.9281599999997,1050.75654 C 954.8656199999997,1051.5666300000003 958.1202299999997,1052.1657500000001 961.0300099999997,1051.6981100000003 C 963.9788899999998,1051.2241800000002 967.6368999999997,1050.1725300000003 969.5041499999998,1047.9318300000002 C 972.8678499999997,1043.8953900000001 974.9115899999997,1038.1162900000002 976.7228599999997,1032.8666900000003 C 981.0841099999998,1020.2264400000001 985.0450999999997,1007.2436100000002 988.0217099999998,994.2622900000001 C 988.8113799999998,990.8184300000003 988.9017699999997,986.8767200000002 988.0217099999998,983.5911500000002 C 987.3324899999998,981.0180600000002 985.7001999999998,978.0990200000002 983.3138599999997,976.6863000000002 C 933.3907099999998,947.1318000000001 881.7738399999997,919.4601400000001 831.0932299999997,890.6894900000002 L 831.09323,890.6894900000001"
       id="path3060"
       sodipodi:nodetypes="csssssssssssssssssssssssssssssssssssssssssssssssssssssssssssssssssssssssssssssssssssssssssssssssssssssssssssss" />
  </g>
</svg>
