<?xml version="1.0" encoding="UTF-8" standalone="no"?>
<svg
   width="1461.6166"
   height="740.25671"
   id="svg2383"
   sodipodi:version="0.32"
   inkscape:version="1.4.3 (fcd0343856, 2026-01-01)"
   version="1.0"
   sodipodi:docname="Germanyv.svg"
   inkscape:output_extension="org.inkscape.output.svg.inkscape"
   inkscape:export-filename="D:\Images\Race Tracks\Sachsenring.png"
   inkscape:export-xdpi="90.015755"
   inkscape:export-ydpi="90.015755"
   xmlns:inkscape="http://www.inkscape.org/namespaces/inkscape"
   xmlns:sodipodi="http://sodipodi.sourceforge.net/DTD/sodipodi-0.dtd"
   xmlns="http://www.w3.org/2000/svg"
   xmlns:svg="http://www.w3.org/2000/svg">
  <g
     inkscape:label="Layer 1"
     inkscape:groupmode="layer"
     id="layer1"
     transform="translate(-996.7786,-934.09594)">
    <path
       style="fill:none;fill-rule:evenodd;stroke:#fffa69;stroke-width:15;stroke-linecap:butt;stroke-linejoin:round;stroke-miterlimit:4;stroke-dasharray:none;stroke-opacity:1"
       d="m 2078.0492,1179.7601 c -2.869,21.7805 -14.7674,41.6279 -33.9097,60.8673 -28.7153,28.3605 -54.9632,38.0037 -87.4324,54.3896 -29.5781,14.9269 -62.6529,-6.8985 -85.2822,-20.0391 -62.3029,-36.1785 -68.8292,-77.7925 -50.5187,-120.6142 15.1631,-35.4612 31.1796,-76.2966 51.3811,-113.0986 9.3265,-16.9904 38.0169,-49.91111 54.7206,-59.80961 25.9508,-15.3783 55.7659,-31.2556 85.0072,-35.7543 28.2633,-4.3482 57.1354,-5.1152 84.4879,4.0023 25.7287,8.5762 68.0723,35.6853 89.1979,53.56131 86.3037,73.0284 141.6492,117.5575 216.315,201.9227 28.6747,32.3996 49.4187,45.8792 47.798,77.8546 -1.9103,37.689 -10.4383,79.9769 -27.1547,115.6413 -31.2135,66.5943 -77.6532,117.6502 -111.266,180.7608 -9.2285,17.3273 -31.6977,25.5909 -44.3195,30.6138 -50.8002,20.216 -83.4386,34.2336 -119.3057,48.5101 -22.2325,8.8494 -48.6473,12.977 -86.7224,-5.8528 -81.5999,-40.348 -144.9594,-87.7526 -226.386,-139.157 -15.1299,-9.5514 -30.8869,-11.2288 -51.8902,-10.2934 -170.3085,7.5851 -325.3247,8.366 -491.7585,28.6941 -48.7893,5.9591 -98.6105,16.4885 -147.5025,17.4092 -21.9968,0.4142 -47.5884,-6.3914 -67.3148,-13.4929 -19.7686,-7.1167 -37.5807,-21.9782 -49.7949,-38.0311 -9.903,-13.0154 -20.7892,-36.337 -21.0854,-53.5145 -0.3357,-19.4739 1.8167,-40.2687 4.969,-59.8038 26.5523,-112.0532 48.933,-221.4836 79.1796,-331.9167 20.4051,-74.50101 37.2562,-106.27951 146.2965,-25.6837 135.6957,100.2978 273.4708,197.7717 411.6549,294.0622 130.6975,91.0736 237.8078,160.8584 377.9236,248.047 11.9792,7.4542 32.2723,19.4232 45.9275,18.6104 12.8854,-0.767 28.7019,-4.9681 38.7511,-12.3528 13.8927,-10.2091 21.4213,-33.0639 19.8051,-49.8912 -0.98,-10.203 -4.994,-24.391 -12.0298,-32.0476 -14.4495,-15.7244 -29.7989,-28.94 -40.3575,-46.9288 -15.0341,-25.6136 -26.402,-54.5275 -27.6462,-84.6782 -0.9502,-23.0244 6.0427,-46.2508 14.5222,-67.4494 4.7908,-11.9771 15.5298,-21.282 26.2537,-29.0195 14.2369,-10.2722 27.6947,-15.4491 45.8648,-20.9633 36.4915,-11.0743 59.0089,-27.6091 74.1517,-60.8297 0,0 3.2858,-10.9693 3.5717,-16.6327 -1.0605,-11.7565 -1.9746,-24.8389 -5.971,-34.9728 -3.0321,-7.4541 -7.3514,-14.5453 -12.795,-20.4719 -4.8085,-5.2351 -10.8524,-9.3316 -17.0599,-12.795 -7.4696,-4.1676 -15.5083,-7.6467 -23.8839,-9.3829 -8.0788,-1.6747 -16.5544,-1.9102 -24.7369,-0.853 -5.8881,0.7608 -11.9629,2.0736 -17.0599,5.118 -6.2138,3.7115 -11.3695,9.3114 -15.3539,15.3539 -5.9003,8.948 -8.6924,19.6411 -11.9419,29.8549 -2.2163,6.9661 -3.8609,14.1237 -5.118,21.3249 -1.138,6.5189 -2.1816,19.7321 -2.1816,19.7321 z"
       id="path2419"
       sodipodi:nodetypes="ccsssssssssssssssssssssscssssssssssssscccssssssssc"
       inkscape:export-xdpi="90.015755"
       inkscape:export-ydpi="90.015755" />
  </g>
</svg>
