<?xml version="1.0" encoding="UTF-8" standalone="no"?>
<!-- Created with Inkscape by VulcanSphere (http://www.inkscape.org/ and http://vulcansphere.com) -->
<svg
   width="430.862mm"
   height="536.70074mm"
   viewBox="0 0 430.862 536.70074"
   version="1.1"
   id="svg1"
   xmlns="http://www.w3.org/2000/svg"
   xmlns:svg="http://www.w3.org/2000/svg">
  <title
    id="title1">Mandalika International Street Circuit</title><desc
    id="desc1">Motorsport circuit in Central Lombok Regency, Indonesia</desc>
  <defs
     id="defs1" />
  <g
     id="layer1"
     transform="translate(141.28751,177.00626)">
    <path
       id="path33"
       d="M -51.44751,1150.065308 L 212.94683999999998,1223.58167 C 212.94683999999998,1223.58167 241.10604999999998,1228.49537 242.80694999999997,1206.95072 C 244.50784999999996,1185.40608 243.37391999999997,1118.504295 243.37391999999997,1118.504295 C 243.37391999999997,1118.504295 244.54434999999998,1105.17546 229.19980999999996,1107.542986 C 211.57425999999995,1110.262451 208.78909999999996,1114.724534 203.11945999999995,1101.306379 C 197.44980999999996,1087.888224 194.42599999999996,1082.4075695000001 209.54504999999995,1068.044474 C 224.66409999999993,1053.681379 255.46915999999993,1026.845069 255.46915999999996,1026.845069 M 255.46915999999993,1026.845069 C 255.46915999999993,1026.845069 263.9736199999999,1020.6084619999999 263.9736199999999,992.260248 C 263.9736199999999,963.91203 264.1626099999999,942.1784 264.1626099999999,942.1784 C 264.1626099999999,942.1784 264.9185599999999,931.02811 248.4765999999999,913.6412 C 232.0346299999999,896.2543 211.8129099999999,872.06382 211.8129099999999,872.06382 C 211.8129099999999,872.06382 205.1983199999999,861.6694699999999 182.33076999999992,861.6694699999999 C 159.46320999999992,861.6694699999999 146.42302999999993,857.7007199999999 121.4765999999999,829.16352 C 96.53016999999991,800.62632 95.58522999999991,801.9492399999999 70.26081999999991,788.1531 C 44.93641999999991,774.3569699999999 -12.704950000000096,743.1739399999999 -12.704950000000082,743.1739399999999 M -12.704950000000096,743.1739399999999 C -12.704950000000096,743.1739399999999 -45.588880000000096,721.06233 -42.943040000000096,767.5534 C -40.29721000000009,814.0444699999999 -39.541260000000094,834.64418 -39.541260000000094,834.64418 C -39.541260000000094,834.64418 -40.486200000000096,856.5668 -8.169240000000094,868.85102 C 24.147729999999903,881.1352499999999 48.338209999999904,883.97007 43.235529999999905,928.38227 C 38.132849999999905,972.7944699999999 35.487009999999906,1003.032569 35.487009999999906,1003.032569 C 35.487009999999906,1003.032569 36.620939999999905,1030.813819 -2.877570000000091,1032.514712 C -2.877570000000091,1032.514712 -34.06060000000009,1034.026617 -57.87310000000009,1065.9656049999999 C -81.6856000000001,1097.904593 -107.76596000000009,1138.348046 -107.76596000000009,1138.348046 C -107.76596000000009,1138.348046 -122.5070300000001,1156.112927 -113.05763000000009,1193.34358 C -103.60822000000009,1230.57424 -86.41030700000009,1223.95965 -86.41030700000009,1223.95965 C -86.41030700000009,1223.95965 -72.9921500000001,1223.77066 -77.7168500000001,1181.6263199999999 C -82.4415600000001,1139.4819739999998 -73.55912000000009,1144.206677 -51.447510000000094,1150.065308 L -51.44751,1150.065308"
       style="display:inline;fill:none;stroke:#fffa69;stroke-width:5;stroke-linecap:butt;stroke-linejoin:miter;stroke-miterlimit:4;stroke-dasharray:none;stroke-opacity:1" />
  </g>
</svg>
