<?xml version="1.0" encoding="UTF-8" standalone="no"?>
<svg
   width="1391.0374"
   height="871.23389"
   id="svg2383"
   sodipodi:version="0.32"
   inkscape:version="1.4.3 (fcd0343856, 2026-01-01)"
   version="1.0"
   sodipodi:docname="Italyv.svg"
   inkscape:output_extension="org.inkscape.output.svg.inkscape"
   inkscape:export-filename="D:\Images\Race Tracks\Mugello Racing Circuit track map.png"
   inkscape:export-xdpi="90.015755"
   inkscape:export-ydpi="90.015755"
   xmlns:inkscape="http://www.inkscape.org/namespaces/inkscape"
   xmlns:sodipodi="http://sodipodi.sourceforge.net/DTD/sodipodi-0.dtd"
   xmlns="http://www.w3.org/2000/svg"
   xmlns:svg="http://www.w3.org/2000/svg">
  <g
     inkscape:label="Layer 1"
     inkscape:groupmode="layer"
     id="layer1"
     transform="translate(-1043.8539,-878.92802)">
    <path
       style="fill:none;fill-rule:evenodd;stroke:#fffa69;stroke-width:10;stroke-linecap:butt;stroke-linejoin:round;stroke-miterlimit:4;stroke-dasharray:none;stroke-opacity:1"
       d="m 1732.3345,1279.701 c -33.2147,10.4046 -66.513,20.6379 -99.2981,32.3018 -50.1627,17.8464 -98.9894,39.2704 -148.3491,59.22 -46.3494,18.7329 -92.3535,38.36 -138.7782,56.8273 -25.7559,10.2454 -52.2053,19.058 -78.96,26.32 -56.9907,15.4689 -115.096,27.2133 -170.4819,45.4618 -13.6044,4.4824 -31.4365,13.0052 -36.489,25.7218 -5.3594,13.489 -13.8006,30.8467 -8.3746,44.8636 5.2676,13.6081 16.6994,28.5784 29.9091,34.0964 18.2945,7.6421 39.5649,7.797 61.0146,6.58 34.7794,-1.9733 67.5578,-15.1395 100.4945,-12.5618 12.9239,1.0114 26.0056,13.9753 32.9,25.1237 11.8487,19.1594 17.021,44.4397 28.7127,64.0054 7.8489,13.1349 20.3885,24.0889 34.0964,29.3109 11.4157,4.3489 34.8512,0.2329 52.64,-8.9727 101.3427,-52.4443 177.1893,-94.9589 291.9127,-151.9382 66.9491,-33.2513 99.5606,79.7885 166.8927,32.9 79.1739,-55.1347 161.2249,-109.0764 247.0492,-166.8928 17.9265,-12.0764 19.6575,-39.584 20.9364,-61.0145 4.4161,-74.6012 8.0455,-120.5488 69.389,-133.9928 31.1702,-6.8313 106.2133,-23.9255 166.8928,-38.8818 21.6763,-5.3427 40.7023,-20.7138 53.2381,-37.6854 13.3854,-18.1218 21.0966,-46.1755 19.74,-69.3891 -2.2324,-38.1997 -15.5432,-77.1097 -27.5163,-114.85086 -6.3712,-20.0831 -14.4154,-41.4377 -27.5164,-56.2291 -11.6239,-13.1238 -42.0267,-25.7971 -60.4164,-25.1237 -97.2553,3.5617 -188.5597,7.6818 -282.94,11.9637 -11.1422,0.5055 -24.0488,8.7233 -32.3018,16.151 -7.6985,6.9287 -12.0274,16.7762 -13.7582,26.9181 -4.5813,26.8457 -5.6683,59.9449 -16.1509,84.94176 -5.0702,12.0904 -18.8915,23.5244 -32.3018,26.32 -109.0176,22.7268 -225.1993,28.575 -334.9818,50.2473 -13.443,2.6538 -26.6396,12.296 -34.6946,22.7309 -9.4916,12.296 -14.3563,29.7962 -14.3563,44.8636 0,14.0441 10.0255,33.1132 20.3381,42.4709 11.222,10.1829 24.7453,16.0488 40.6764,16.7491 20.3586,0.8949 40.9913,-5.1851 59.8182,-13.7581 25.8373,-11.7652 49.2514,-32.7849 74.1745,-47.2564 12.1642,-7.0631 25.7123,-14.7507 39.48,-15.5527 27.3074,-1.5907 56.7749,11.5744 83.7455,8.3745 20.0864,-2.3831 39.2802,-14.8057 57.4255,-25.1236 103.8838,-59.0712 203.537,-129.2749 308.6618,-183.04366 16.5055,-8.4422 39.4136,-8.654 56.2291,-3.5891 16.2839,4.9048 30.2867,21.0649 39.48,35.2927 7.5558,11.6935 10.3943,29.62056 10.169,44.26546 -0.1735,11.2764 -5.4953,23.4428 -11.3654,32.9001 -8.4863,13.6724 -17.3032,25.9689 -31.1055,34.6945 -20.8922,13.2077 -45.4543,22.1164 -69.389,29.9091 -164.692,53.6207 -331.1093,102.5246 -496.491,154.3309 z"
       id="path2419"
       sodipodi:nodetypes="cssssssssssssssssssssssssssssssssssssssssssssssss" />
  </g>
</svg>
