<?xml version="1.0" encoding="UTF-8" standalone="no"?>
<!-- Creator: CorelDRAW X5 -->

<svg
   xml:space="preserve"
   width="1000.0062"
   height="719.69885"
   style="fill-rule:evenodd"
   viewBox="0 0 893.80951 642.96996"
   id="svg2"
   version="1.1"
   inkscape:version="1.4.3 (fcd0343856, 2026-01-01)"
   sodipodi:docname="Twin_Ring_Motegi_map-2.svg"
   xmlns:inkscape="http://www.inkscape.org/namespaces/inkscape"
   xmlns:sodipodi="http://sodipodi.sourceforge.net/DTD/sodipodi-0.dtd"
   xmlns="http://www.w3.org/2000/svg"
   xmlns:svg="http://www.w3.org/2000/svg"
   xmlns:rdf="http://www.w3.org/1999/02/22-rdf-syntax-ns#"
   xmlns:cc="http://creativecommons.org/ns#"
   xmlns:dc="http://purl.org/dc/elements/1.1/">
<g
   id="g3978"
   transform="translate(-1.8232772e-4,-0.12498527)"><path
     sodipodi:nodetypes="cccccccccccccccscccccccccccscccccc"
     class="fil0 str0"
     d="M 524.1311,807.9652 C 530.3071,800.81387 541.1111999999999,800.02339 548.2624999999999,806.19939 L 884.9224999999999,1216.43039 C 890.1118199999999,1224.82166 888.4330999999999,1235.74019 880.9627699999999,1242.1854899999998 C 873.4924399999999,1248.63043 862.4457699999998,1248.69049 854.9056699999999,1242.3273 L 680.1016699999999,1051.0433 C 674.2796999999999,1046.82798 666.7689699999999,1045.7135 659.9736699999999,1048.05657 C 653.1786999999998,1050.39997 647.9509699999999,1055.90695 645.9646699999998,1062.81467 L 629.4850699999998,1206.4246699999999 C 624.8816799999998,1221.09307 613.3822699999998,1232.57377 598.7058699999999,1237.15287 C 584.0298699999998,1241.73156 568.0414699999999,1238.82692 555.9143699999998,1229.3785699999999 C 537.8875699999999,1211.86227 509.1984699999999,1211.86227 491.1719699999999,1229.3785699999999 L 376.98997,1368.2805720000001 C 353.82787,1384.8765720000001 324.38867000000005,1390.071872 296.94487000000004,1382.406072 L 182.76287000000002,1354.155072 C 175.92886000000001,1352.671552 170.58107,1347.3500920000001 169.06387,1340.5234719999999 C 167.54665,1333.6964699999999 170.1373,1326.61087 175.70001000000002,1322.37257 L 441.73201,1090.47757 C 450.29713,1076.15017 451.1797,1058.50247 444.08642,1043.39197 L 420.54362,1009.2552699999999 C 416.92091,1004.2931799999999 411.06656999999996,1001.45894 404.92762,1001.6951899999999 C 398.78833,1001.9310999999999 393.16892,1005.20679 389.93822,1010.4324799999999 L 141.56322,1279.9954799999998 C 131.55462,1286.5508699999998 118.61202,1286.5508699999998 108.60342,1279.9954799999998 C 99.48841,1276.5873199999999 91.66802,1270.4133199999999 86.23782,1262.33838 C 79.85394,1251.43258 79.85394,1237.9303799999998 86.23782,1227.0244799999998 L 328.72682,900.9584799999999 C 331.57340999999997,897.7768799999999 335.64058,895.9586899999999 339.90961999999996,895.9586899999999 C 344.179,895.9586899999999 348.24582999999996,897.77689 351.09241999999995,900.9584799999999 L 362.8638199999999,913.90708 C 367.8852999999999,921.7588 377.8919199999999,924.7608799999999 386.40631999999994,920.9699899999999 L 442.3203199999999,912.7298699999999 L 524.13082,807.9648699999999 L 524.1311,807.9652"
     id="path10"
     inkscape:connector-curvature="0"
     style="fill:none;stroke:#fffa69;stroke-width:11.77140045" /></g></svg>
