<?xml version="1.0" encoding="UTF-8" standalone="no"?>
<!-- Created with Inkscape (http://www.inkscape.org/) -->

<svg
   width="767.34601"
   height="800"
   id="svg1901"
   sodipodi:version="0.32"
   inkscape:version="1.4.3 (fcd0343856, 2026-01-01)"
   sodipodi:docname="Malasaiav.svg"
   version="1.0"
   inkscape:output_extension="org.inkscape.output.svg.inkscape"
   xmlns:inkscape="http://www.inkscape.org/namespaces/inkscape"
   xmlns:sodipodi="http://sodipodi.sourceforge.net/DTD/sodipodi-0.dtd"
   xmlns="http://www.w3.org/2000/svg"
   xmlns:svg="http://www.w3.org/2000/svg">
  <g
     inkscape:groupmode="layer"
     id="layer2"
     inkscape:label="SVG">
    <path
       style="opacity:1;fill:none;fill-rule:evenodd;stroke:#fffa69;stroke-width:10;stroke-linecap:butt;stroke-linejoin:miter;stroke-miterlimit:4;stroke-dasharray:none;stroke-opacity:1"
       d="M 466.34804,558.72944 357.77283,276.36871 330.99481,205.86533 306.76126,143.21274 c 0,0 -13.07975,-40.85147 -27.94783,-40.95413 0,0 -16.33893,-2.523967 -22.40162,13.07631 0,0 -4.30942,13.18532 8.75387,23.73103 l 11.95869,12.81288 c 0,0 11.24581,14.55338 -1.52857,18.81152 0,0 -18.63169,1.24594 -30.68668,-4.16822 0,0 -19.76845,-7.44368 -37.3404,2.44055 l -47.34666,22.94116 c 0,0 -21.84292,11.95869 -25.86982,30.26281 0,0 -9.39612,22.69711 -4.51502,44.29597 l 10.49436,55.15642 6.10138,50.88545 2.07446,58.2071 -0.12202,49.90923 c 0,0 -1.57992,22.72922 17.45636,18.09218 l 123.72288,-29.40218 c 0,0 34.50179,-8.09237 51.58564,17.04529 0,0 20.92449,27.44978 20.19232,41.36091 0,0 2.29924,25.99825 -6.73079,46.98697 0,0 -6.29404,10.73842 -3.85349,32.70336 0,0 3.81498,18.29128 21.38693,31.22619 0,0 19.80696,13.43587 46.40895,18.07291 0,0 9.51814,-1.70838 48.81098,11.22653 l 76.14505,21.59242 c 0,0 2.19659,2.56902 9.76229,-8.1694 l 30.01875,-38.31663 -30.50686,-88.83599 -32.94742,-91.03249 -19.52439,-55.40047 c 0,0 -8.54192,-28.06631 11.22653,-16.35168 l 38.31662,21.47684 c 0,0 13.42302,7.5657 32.4593,1.70838 0,0 30.26282,-10.49436 41.97745,-26.35793 11.71464,-15.86357 11.71464,-15.86357 11.71464,-15.86357 l 13.91113,-23.91738 c 0,0 8.54192,-13.42302 -8.78598,-21.47684 L 502.84311,261.78707 c 0,0 -17.99583,-14.24501 -17.90597,-32.4208 l 1.37441,-45.12439 c 0,0 -0.50094,-23.72478 -23.19804,-50.32676 0,0 -21.61815,-28.20762 -47.24392,-26.74329 0,0 -19.03632,-3.35253 -23.94306,12.52387 0,0 -3.39109,8.63183 2.46623,24.25135 l 26.84604,95.42548 35.38797,123.49179 29.04253,106.40795 29.04254,102.99118 c 0,0 5.36921,19.28033 -0.73216,30.26281 0,0 -11.47059,16.35168 -30.01876,-1.22028 z"
       id="path2219"
       sodipodi:nodetypes="ccccccccccccccccccccccccccccccccccccsccccccccccccccccc" />
  </g>
</svg>
